<?xml version="1.0" encoding="UTF-8" standalone="no"?>
<!-- Created with Inkscape (http://www.inkscape.org/) -->

<svg
   xmlns:dc="http://purl.org/dc/elements/1.1/"
   xmlns:cc="http://creativecommons.org/ns#"
   xmlns:rdf="http://www.w3.org/1999/02/22-rdf-syntax-ns#"
   xmlns:svg="http://www.w3.org/2000/svg"
   xmlns="http://www.w3.org/2000/svg"
   xmlns:sodipodi="http://sodipodi.sourceforge.net/DTD/sodipodi-0.dtd"
   xmlns:inkscape="http://www.inkscape.org/namespaces/inkscape"
   width="987.97894"
   height="997.0191"
   id="svg2"
   sodipodi:version="0.32"
   inkscape:version="0.48.3.1 r9886"
   sodipodi:docname="cart-alt.svg"
   version="1.0"
   inkscape:output_extension="org.inkscape.output.svg.inkscape">
  <defs
     id="defs4" />
  <sodipodi:namedview
     id="base"
     pagecolor="#ffffff"
     bordercolor="#666666"
     borderopacity="1.0"
     inkscape:pageopacity="0.0"
     inkscape:pageshadow="2"
     inkscape:zoom="0.45254834"
     inkscape:cx="211.22733"
     inkscape:cy="242.38832"
     inkscape:document-units="px"
     inkscape:current-layer="layer1"
     inkscape:window-width="1487"
     inkscape:window-height="1021"
     inkscape:window-x="0"
     inkscape:window-y="28"
     showgrid="false"
     inkscape:window-maximized="0"
     fit-margin-top="0"
     fit-margin-left="0"
     fit-margin-right="0"
     fit-margin-bottom="0" />
  <metadata
     id="metadata7">
    <rdf:RDF>
      <cc:Work
         rdf:about="">
        <dc:format>image/svg+xml</dc:format>
        <dc:type
           rdf:resource="http://purl.org/dc/dcmitype/StillImage" />
        <dc:title></dc:title>
        <dc:creator>
          <cc:Agent>
            <dc:title />
          </cc:Agent>
        </dc:creator>
        <dc:subject>
          <rdf:Bag />
        </dc:subject>
        <cc:license
           rdf:resource="http://creativecommons.org/licenses/publicdomain/" />
        <dc:description />
        <dc:contributor>
          <cc:Agent>
            <dc:title />
          </cc:Agent>
        </dc:contributor>
      </cc:Work>
      <cc:License
         rdf:about="http://creativecommons.org/licenses/publicdomain/">
        <cc:permits
           rdf:resource="http://creativecommons.org/ns#Reproduction" />
        <cc:permits
           rdf:resource="http://creativecommons.org/ns#Distribution" />
        <cc:permits
           rdf:resource="http://creativecommons.org/ns#DerivativeWorks" />
      </cc:License>
    </rdf:RDF>
  </metadata>
  <g
     inkscape:label="Layer 1"
     inkscape:groupmode="layer"
     id="layer1"
     transform="translate(-374.21785,422.78273)">
    <g
       id="g5517"
       transform="matrix(1.0164779,0,0,-1.0164779,359.46013,380.67019)">
      <path
         id="path5519"
         d="m 682,226 c 0,12.667 -5.66699,22 -17,28 l -157,75 c 18,11.333 32.667,27.833 44,49.5 11.333,21.667 17,45.5 17,71.5 0,18.667 -3,36.333 -9,53 -6,16.667 -14.333,31.167 -25,43.5 -10.667,12.333 -23.167,22.167 -37.5,29.5 -14.333,7.333 -29.5,11 -45.5,11 -16,0 -31.167,-3.66699 -45.5,-11 -14.333,-7.33801 -26.833,-17.171 -37.5,-29.5 -10.667,-12.333 -19.167,-26.833 -25.5,-43.5 -6.33301,-16.668 -9.5,-34.334 -9.5,-53 0,-26.667 5.83301,-50.834 17.5,-72.5 11.667,-21.667 27.167,-38.167 46.5,-49.5 L 239,254 c -5.33299,-2 -9.5,-5.66701 -12.5,-11 -3,-5.33299 -4.5,-11 -4.5,-17 V 100 c 0,-8.6667 2.5,-16 7.5,-22 5,-6 11.167,-9 18.5,-9 h 407 c 7.33301,0 13.667,3 19,9 5.333,6 8,13.3333 8,22 v 126 z m 208,344 v -83 h 67 c 8,0 14.833,-2.83301 20.5,-8.5 5.667,-5.66699 8.5,-12.5 8.5,-20.5 v -87 c 0,-8 -2.83301,-14.833 -8.5,-20.5 C 971.83301,344.833 965,342 957,342 h -67 v -83 h 67 c 8,0 14.833,-2.83301 20.5,-8.5 5.66699,-5.66701 8.5,-12.5 8.5,-20.5 v -87 c 0,-8 -2.83301,-14.833 -8.5,-20.5 C 971.83301,116.833 965,114 957,114 H 890 V 31 h 67 c 8,0 14.833,-2.8333 20.5,-8.5 C 983.167,16.8333 986,10 986,2 v -87 c 0,-8 -2.83301,-14.8333 -8.5,-20.5 -5.66699,-5.667 -12.5,-8.5 -20.5,-8.5 h -67 v -24 c 0,-13.333 -4.5,-24.5 -13.5,-33.5 -9,-9 -20.167,-13.5 -33.5,-13.5 H 62 c -13.3333,0 -24.5,4.5 -33.5,13.5 -9,9 -13.5,20.167 -13.5,33.5 v 876 c 0,13.333 4.5,24.5 13.5,33.5 9,9 20.1667,13.5 33.5,13.5 h 781 c 13.333,0 24.5,-4.5 33.5,-13.5 9,-9 13.5,-20.167 13.5,-33.5 v -23 h 67 c 8,0 14.833,-2.83301 20.5,-8.5 5.667,-5.66699 8.5,-12.5 8.5,-20.5 v -87 c 0,-8 -2.83301,-14.833 -8.5,-20.5 C 971.83301,572.833 965,570 957,570 h -67 z"
         inkscape:connector-curvature="0"
         style="fill:currentColor" />
    </g>
  </g>
</svg>
