<?xml version="1.0" encoding="UTF-8" standalone="no"?>
<!-- Created with Inkscape (http://www.inkscape.org/) -->

<svg
   xmlns:dc="http://purl.org/dc/elements/1.1/"
   xmlns:cc="http://creativecommons.org/ns#"
   xmlns:rdf="http://www.w3.org/1999/02/22-rdf-syntax-ns#"
   xmlns:svg="http://www.w3.org/2000/svg"
   xmlns="http://www.w3.org/2000/svg"
   xmlns:sodipodi="http://sodipodi.sourceforge.net/DTD/sodipodi-0.dtd"
   xmlns:inkscape="http://www.inkscape.org/namespaces/inkscape"
   width="512"
   height="512"
   id="svg2"
   sodipodi:version="0.32"
   inkscape:version="0.48.3.1 r9886"
   sodipodi:docname="address-book-alt.svg"
   version="1.0"
   inkscape:output_extension="org.inkscape.output.svg.inkscape">
  <defs
     id="defs4" />
  <sodipodi:namedview
     id="base"
     pagecolor="#ffffff"
     bordercolor="#666666"
     borderopacity="1.0"
     inkscape:pageopacity="0.0"
     inkscape:pageshadow="2"
     inkscape:zoom="0.64"
     inkscape:cx="305.25443"
     inkscape:cy="188.15545"
     inkscape:document-units="px"
     inkscape:current-layer="layer1"
     inkscape:window-width="1487"
     inkscape:window-height="1021"
     inkscape:window-x="0"
     inkscape:window-y="28"
     showgrid="false"
     inkscape:window-maximized="0"
     fit-margin-top="0"
     fit-margin-left="0"
     fit-margin-right="0"
     fit-margin-bottom="0" />
  <metadata
     id="metadata7">
    <rdf:RDF>
      <cc:Work
         rdf:about="">
        <dc:format>image/svg+xml</dc:format>
        <dc:type
           rdf:resource="http://purl.org/dc/dcmitype/StillImage" />
        <dc:title />
        <dc:creator>
          <cc:Agent>
            <dc:title />
          </cc:Agent>
        </dc:creator>
        <dc:subject>
          <rdf:Bag />
        </dc:subject>
        <cc:license
           rdf:resource="http://creativecommons.org/licenses/publicdomain/" />
        <dc:description />
        <dc:contributor>
          <cc:Agent>
            <dc:title />
          </cc:Agent>
        </dc:contributor>
      </cc:Work>
      <cc:License
         rdf:about="http://creativecommons.org/licenses/publicdomain/">
        <cc:permits
           rdf:resource="http://creativecommons.org/ns#Reproduction" />
        <cc:permits
           rdf:resource="http://creativecommons.org/ns#Distribution" />
        <cc:permits
           rdf:resource="http://creativecommons.org/ns#DerivativeWorks" />
      </cc:License>
    </rdf:RDF>
  </metadata>
  <g
     inkscape:label="Layer 1"
     inkscape:groupmode="layer"
     id="layer1"
     transform="translate(-374.21785,-62.236374)">
    <path
       style="fill:#000000;fill-opacity:1"
       d="M 256 0 C 114.6151 0 0 114.6151 0 256 C 0 397.3849 114.6151 512 256 512 C 397.3849 512 512 397.3849 512 256 C 512 114.6151 397.3849 -6.3948846e-14 256 0 z M 134.125 123.1875 L 351.8125 123.1875 C 357.86572 123.1875 362.75 128.07175 362.75 134.125 L 362.75 142.53125 L 380.875 142.53125 C 385.26761 142.53125 388.8125 146.07616 388.8125 150.46875 L 388.8125 174.09375 C 388.8125 178.48634 385.26761 182.03125 380.875 182.03125 L 362.75 182.03125 L 362.75 204.71875 L 380.875 204.71875 C 385.26761 204.71875 388.8125 208.26366 388.8125 212.65625 L 388.8125 236.3125 C 388.8125 240.70508 385.26761 244.21875 380.875 244.21875 L 362.75 244.21875 L 362.75 266.9375 L 380.875 266.9375 C 385.26761 266.9375 388.8125 270.45117 388.8125 274.84375 L 388.8125 298.5 C 388.8125 302.89259 385.26761 306.4375 380.875 306.4375 L 362.75 306.4375 L 362.75 329.125 L 380.875 329.125 C 385.26761 329.125 388.8125 332.66991 388.8125 337.0625 L 388.8125 360.6875 C 388.8125 365.08008 385.26761 368.625 380.875 368.625 L 362.75 368.625 L 362.75 377.875 C 362.75 383.92825 357.86572 388.8125 351.8125 388.8125 L 134.125 388.8125 C 128.07174 388.8125 123.1875 383.92825 123.1875 377.875 L 123.1875 134.125 C 123.1875 128.07175 128.07174 123.1875 134.125 123.1875 z M 243.46875 177.40625 C 224.20474 177.40625 208.59375 194.36131 208.59375 215.25 C 208.59375 229.8482 216.20604 242.50748 227.375 248.8125 C 216.31605 252.40617 180.21875 273.61666 180.21875 279.125 L 180.21875 309.375 C 180.21875 315.42826 185.07175 320.3125 191.125 320.3125 L 295.78125 320.3125 C 301.83448 320.3125 306.71875 315.42826 306.71875 309.375 L 306.71875 278.03125 C 306.71875 272.26532 267.13982 251.67925 258.15625 249.53125 C 270.07864 243.51865 278.34375 230.44699 278.34375 215.25 C 278.34375 194.36131 262.73277 177.40625 243.46875 177.40625 z "
       transform="translate(374.21785,62.236374)"
       id="path2991" />
  </g>
</svg>
