<?xml version="1.0" encoding="UTF-8" standalone="no"?>
<!-- Created with Inkscape (http://www.inkscape.org/) -->

<svg
   xmlns:dc="http://purl.org/dc/elements/1.1/"
   xmlns:cc="http://creativecommons.org/ns#"
   xmlns:rdf="http://www.w3.org/1999/02/22-rdf-syntax-ns#"
   xmlns:svg="http://www.w3.org/2000/svg"
   xmlns="http://www.w3.org/2000/svg"
   xmlns:sodipodi="http://sodipodi.sourceforge.net/DTD/sodipodi-0.dtd"
   xmlns:inkscape="http://www.inkscape.org/namespaces/inkscape"
   width="987.97894"
   height="997.0191"
   id="svg2"
   sodipodi:version="0.32"
   inkscape:version="0.48.3.1 r9886"
   sodipodi:docname="address-book.svg"
   version="1.0"
   inkscape:output_extension="org.inkscape.output.svg.inkscape">
  <defs
     id="defs4" />
  <sodipodi:namedview
     id="base"
     pagecolor="#ffffff"
     bordercolor="#666666"
     borderopacity="1.0"
     inkscape:pageopacity="0.0"
     inkscape:pageshadow="2"
     inkscape:zoom="0.64"
     inkscape:cx="400.80536"
     inkscape:cy="499.03077"
     inkscape:document-units="px"
     inkscape:current-layer="layer1"
     inkscape:window-width="1487"
     inkscape:window-height="1021"
     inkscape:window-x="0"
     inkscape:window-y="28"
     showgrid="false"
     inkscape:window-maximized="0"
     fit-margin-top="0"
     fit-margin-left="0"
     fit-margin-right="0"
     fit-margin-bottom="0" />
  <metadata
     id="metadata7">
    <rdf:RDF>
      <cc:Work
         rdf:about="">
        <dc:format>image/svg+xml</dc:format>
        <dc:type
           rdf:resource="http://purl.org/dc/dcmitype/StillImage" />
        <dc:title></dc:title>
        <dc:creator>
          <cc:Agent>
            <dc:title />
          </cc:Agent>
        </dc:creator>
        <dc:subject>
          <rdf:Bag />
        </dc:subject>
        <cc:license
           rdf:resource="http://creativecommons.org/licenses/publicdomain/" />
        <dc:description />
        <dc:contributor>
          <cc:Agent>
            <dc:title />
          </cc:Agent>
        </dc:contributor>
      </cc:Work>
      <cc:License
         rdf:about="http://creativecommons.org/licenses/publicdomain/">
        <cc:permits
           rdf:resource="http://creativecommons.org/ns#Reproduction" />
        <cc:permits
           rdf:resource="http://creativecommons.org/ns#Distribution" />
        <cc:permits
           rdf:resource="http://creativecommons.org/ns#DerivativeWorks" />
      </cc:License>
    </rdf:RDF>
  </metadata>
  <g
     inkscape:label="Layer 1"
     inkscape:groupmode="layer"
     id="layer1"
     transform="translate(-374.21785,422.78273)">
    <path
       style="fill:#000000;fill-opacity:1;stroke:none"
       d="m 413.25978,-417.43898 c -22.49485,0 -40.60443,18.10958 -40.60443,40.60443 l 0,905.79114 c 0,22.49485 18.10958,40.60443 40.60443,40.60443 l 808.96522,0 c 22.4948,0 40.6044,-18.10958 40.6044,-40.60443 l 0,-34.3576 67.3721,0 c 16.3236,0 29.4539,-13.1615 29.4539,-29.48506 l 0,-87.86174 c 0,-16.32356 -13.1303,-29.45383 -29.4539,-29.45383 l -67.3721,0 0,-84.33228 67.3721,0 c 16.3236,0 29.4539,-13.16151 29.4539,-29.48506 l 0,-87.86174 c 0,-16.32355 -13.1303,-29.45383 -29.4539,-29.45383 l -67.3721,0 0,-84.332278 67.3721,0 c 16.3236,0 29.4539,-13.161513 29.4539,-29.4850634 l 0,-87.8617406 c 0,-16.323548 -13.1303,-29.453828 -29.4539,-29.453828 l -67.3721,0 0,-84.33228 67.3721,0 c 16.3236,0 29.4539,-13.1615 29.4539,-29.48506 l 0,-87.86174 c 0,-16.32356 -13.1303,-29.45383 -29.4539,-29.45383 l -67.3721,0 0,-31.23418 c 0,-22.49485 -18.1096,-40.60443 -40.6044,-40.60443 l -808.96522,0 z m 406.29418,201.46044 c 71.58816,0 129.62183,62.92808 129.62183,140.553801 0,56.47442 -30.71896,105.15411 -75.02449,127.497911 33.38439,7.982306 180.4398,84.456748 180.4398,105.883858 l 0,116.44102 c 0,22.49485 -18.1096,40.60443 -40.6044,40.60443 l -388.8655,0 c -22.49485,0 -40.60443,-18.10958 -40.60443,-40.60443 l 0,-112.44304 c 0,-20.46987 134.15814,-99.307045 175.25497,-112.66168 -41.50563,-23.43047 -69.83962,-70.468821 -69.83962,-124.718069 0,-77.625721 58.03367,-140.553801 129.62184,-140.553801 z"
       id="rect3787"
       inkscape:connector-curvature="0" />
  </g>
</svg>
