<?xml version="1.0" encoding="UTF-8" standalone="no"?>
<!-- Created with Inkscape (http://www.inkscape.org/) -->

<svg
   xmlns:dc="http://purl.org/dc/elements/1.1/"
   xmlns:cc="http://creativecommons.org/ns#"
   xmlns:rdf="http://www.w3.org/1999/02/22-rdf-syntax-ns#"
   xmlns:svg="http://www.w3.org/2000/svg"
   xmlns="http://www.w3.org/2000/svg"
   xmlns:sodipodi="http://sodipodi.sourceforge.net/DTD/sodipodi-0.dtd"
   xmlns:inkscape="http://www.inkscape.org/namespaces/inkscape"
   width="987.97894"
   height="997.0191"
   id="svg2"
   sodipodi:version="0.32"
   inkscape:version="0.48.3.1 r9886"
   sodipodi:docname="question.svg"
   version="1.0"
   inkscape:output_extension="org.inkscape.output.svg.inkscape">
  <defs
     id="defs4" />
  <sodipodi:namedview
     id="base"
     pagecolor="#ffffff"
     bordercolor="#666666"
     borderopacity="1.0"
     inkscape:pageopacity="0.0"
     inkscape:pageshadow="2"
     inkscape:zoom="0.45254834"
     inkscape:cx="476.39237"
     inkscape:cy="242.38832"
     inkscape:document-units="px"
     inkscape:current-layer="layer1"
     inkscape:window-width="1487"
     inkscape:window-height="1021"
     inkscape:window-x="0"
     inkscape:window-y="28"
     showgrid="false"
     inkscape:window-maximized="0"
     fit-margin-top="0"
     fit-margin-left="0"
     fit-margin-right="0"
     fit-margin-bottom="0" />
  <metadata
     id="metadata7">
    <rdf:RDF>
      <cc:Work
         rdf:about="">
        <dc:format>image/svg+xml</dc:format>
        <dc:type
           rdf:resource="http://purl.org/dc/dcmitype/StillImage" />
        <dc:title></dc:title>
        <dc:creator>
          <cc:Agent>
            <dc:title />
          </cc:Agent>
        </dc:creator>
        <dc:subject>
          <rdf:Bag />
        </dc:subject>
        <cc:license
           rdf:resource="http://creativecommons.org/licenses/publicdomain/" />
        <dc:description />
        <dc:contributor>
          <cc:Agent>
            <dc:title />
          </cc:Agent>
        </dc:contributor>
      </cc:Work>
      <cc:License
         rdf:about="http://creativecommons.org/licenses/publicdomain/">
        <cc:permits
           rdf:resource="http://creativecommons.org/ns#Reproduction" />
        <cc:permits
           rdf:resource="http://creativecommons.org/ns#Distribution" />
        <cc:permits
           rdf:resource="http://creativecommons.org/ns#DerivativeWorks" />
      </cc:License>
    </rdf:RDF>
  </metadata>
  <g
     inkscape:label="Layer 1"
     inkscape:groupmode="layer"
     id="layer1"
     transform="translate(-374.21785,422.78273)">
    <g
       id="g7649"
       transform="matrix(1.05,0,0,-1.05,347.40732,392.82682)">
      <path
         id="path7651"
         d="m 500,396 c -26,0 -50.5,4.83301 -73.5,14.5 -23,9.66699 -43,23 -60,40 -17,17 -30.333,37 -40,60 -9.667,23 -14.5,47.5 -14.5,73.5 0,26 4.83301,50.333 14.5,73 9.66699,22.667 23,42.5 40,59.5 17,17 37,30.5 60,40.5 23,10 47.5,15 73.5,15 26,0 50.333,-5 73,-15 22.667,-10 42.5,-23.5 59.5,-40.5 17,-17 30.5,-36.833 40.5,-59.5 10,-22.667 15,-47 15,-73 0,-26 -5,-50.5 -15,-73.5 -10,-23 -23.5,-43 -40.5,-60 -17,-17 -36.833,-30.333 -59.5,-40 C 550.333,400.833 526,396 500,396 z m 152,-39 c 34.668,0 64.835,-6.83301 90.5,-20.5 25.667,-13.667 46.667,-31.5 63,-53.5 16.333,-22 28.5,-47.167 36.5,-75.5 8,-28.333 12,-57.167 12,-86.5 v -273 c 0,-10.667 -5.33301,-16 -16,-16 h -99 c -10.667,0 -16,5.33299 -16,16 V 86 c 0,4.6667 -1.83301,9.6667 -5.5,15 -3.66699,5.333 -9.5,8 -17.5,8 -8,0 -13.833,-2.667 -17.5,-8 C 678.83301,95.6667 677,90.6667 677,86 v -238 c 0,-4.66701 -1.66699,-8.5 -5,-11.5 -3.33301,-3 -7.33301,-4.5 -12,-4.5 H 329 c -10.667,0 -16,5.33299 -16,16 V 86 c 0,4.6667 -1.5,9.6667 -4.5,15 -3,5.333 -9.16699,8 -18.5,8 -9.33301,0 -15.5,-2.667 -18.5,-8 -3,-5.3333 -4.5,-10.3333 -4.5,-15 v -238 c 0,-4.66701 -1.66699,-8.5 -5,-11.5 -3.33301,-3 -7.33299,-4.5 -12,-4.5 h -95 c -11.333,0 -17,5.33299 -17,16 v 273 c 0,29.333 4,58.167 12,86.5 8,28.333 20.333,53.5 37,75.5 16.667,22 37.667,39.833 63,53.5 25.334,13.667 55.667,20.5 91,20.5 h 159 152 v 0 z"
         inkscape:connector-curvature="0"
         style="fill:currentColor" />
    </g>
  </g>
</svg>
