<?xml version="1.0" encoding="UTF-8" standalone="no"?>
<!-- Created with Inkscape (http://www.inkscape.org/) -->

<svg
   xmlns:dc="http://purl.org/dc/elements/1.1/"
   xmlns:cc="http://creativecommons.org/ns#"
   xmlns:rdf="http://www.w3.org/1999/02/22-rdf-syntax-ns#"
   xmlns:svg="http://www.w3.org/2000/svg"
   xmlns="http://www.w3.org/2000/svg"
   xmlns:sodipodi="http://sodipodi.sourceforge.net/DTD/sodipodi-0.dtd"
   xmlns:inkscape="http://www.inkscape.org/namespaces/inkscape"
   width="512"
   height="512"
   id="svg2"
   sodipodi:version="0.32"
   inkscape:version="0.48.3.1 r9886"
   sodipodi:docname="align-right.svg"
   version="1.0"
   inkscape:output_extension="org.inkscape.output.svg.inkscape">
  <defs
     id="defs4" />
  <sodipodi:namedview
     id="base"
     pagecolor="#ffffff"
     bordercolor="#666666"
     borderopacity="1.0"
     inkscape:pageopacity="0.0"
     inkscape:pageshadow="2"
     inkscape:zoom="0.22627417"
     inkscape:cx="206.47332"
     inkscape:cy="247.99823"
     inkscape:document-units="px"
     inkscape:current-layer="text10546"
     inkscape:window-width="1487"
     inkscape:window-height="1021"
     inkscape:window-x="0"
     inkscape:window-y="28"
     showgrid="false"
     inkscape:window-maximized="0"
     fit-margin-top="0"
     fit-margin-left="0"
     fit-margin-right="0"
     fit-margin-bottom="0" />
  <metadata
     id="metadata7">
    <rdf:RDF>
      <cc:Work
         rdf:about="">
        <dc:format>image/svg+xml</dc:format>
        <dc:type
           rdf:resource="http://purl.org/dc/dcmitype/StillImage" />
        <dc:title />
        <dc:creator>
          <cc:Agent>
            <dc:title />
          </cc:Agent>
        </dc:creator>
        <dc:subject>
          <rdf:Bag />
        </dc:subject>
        <cc:license
           rdf:resource="http://creativecommons.org/licenses/publicdomain/" />
        <dc:description />
        <dc:contributor>
          <cc:Agent>
            <dc:title />
          </cc:Agent>
        </dc:contributor>
      </cc:Work>
      <cc:License
         rdf:about="http://creativecommons.org/licenses/publicdomain/">
        <cc:permits
           rdf:resource="http://creativecommons.org/ns#Reproduction" />
        <cc:permits
           rdf:resource="http://creativecommons.org/ns#Distribution" />
        <cc:permits
           rdf:resource="http://creativecommons.org/ns#DerivativeWorks" />
      </cc:License>
    </rdf:RDF>
  </metadata>
  <g
     inkscape:label="Layer 1"
     inkscape:groupmode="layer"
     id="layer1"
     transform="translate(-374.21785,-62.236374)">
    <g
       style="font-size:1353.90222168px;font-style:italic;font-variant:normal;font-weight:normal;font-stretch:normal;line-height:125%;letter-spacing:0px;word-spacing:0px;fill:#000000;fill-opacity:1;stroke:none;font-family:Serif;-inkscape-font-specification:Serif Italic"
       id="text10546">
      <path
         style="fill:#000000"
         d="m 615.19049,110.60112 c -10.62925,0 -19.1773,8.56426 -19.1773,19.19351 l 0,32.40527 c 0,10.62926 8.54805,19.19352 19.1773,19.19352 l 251.85006,0 c 10.62926,0 19.1773,-8.56426 19.1773,-19.19352 l 0,-32.40527 c 0,-10.62925 -8.54804,-19.19351 -19.1773,-19.19351 l -251.85006,0 z M 466.55422,225.438 c -10.62925,0 -19.19351,8.54805 -19.19351,19.1773 l 0,32.42148 c 0,10.62926 8.56426,19.17731 19.19351,19.17731 l 400.48633,0 c 10.62921,0 19.1773,-8.54805 19.1773,-19.17731 l 0,-32.42148 c 0,-10.62925 -8.54809,-19.1773 -19.1773,-19.1773 l -400.48633,0 z m 136.85107,114.82067 c -10.62926,0 -19.19352,8.56425 -19.19352,19.19351 l 0,32.40527 c 0,10.62925 8.56426,19.19352 19.19352,19.19352 l 263.63526,0 c 10.62926,0 19.1773,-8.56427 19.1773,-19.19352 l 0,-32.40527 c 0,-10.62926 -8.54804,-19.19351 -19.1773,-19.19351 l -263.63526,0 z M 393.41137,455.09554 c -10.62926,0 -19.19352,8.54805 -19.19352,19.17731 l 0,32.40527 c 0,10.62925 8.56426,19.19351 19.19352,19.19351 l 473.62918,0 c 10.62926,0 19.1773,-8.56426 19.1773,-19.19351 l 0,-32.40527 c 0,-10.62926 -8.54804,-19.17731 -19.1773,-19.17731 l -473.62918,0 z"
         id="rect10685"
         inkscape:connector-curvature="0" />
    </g>
  </g>
</svg>
