<?xml version="1.0" encoding="UTF-8" standalone="no"?>
<!-- Created with Inkscape (http://www.inkscape.org/) -->

<svg
   xmlns:dc="http://purl.org/dc/elements/1.1/"
   xmlns:cc="http://creativecommons.org/ns#"
   xmlns:rdf="http://www.w3.org/1999/02/22-rdf-syntax-ns#"
   xmlns:svg="http://www.w3.org/2000/svg"
   xmlns="http://www.w3.org/2000/svg"
   xmlns:sodipodi="http://sodipodi.sourceforge.net/DTD/sodipodi-0.dtd"
   xmlns:inkscape="http://www.inkscape.org/namespaces/inkscape"
   width="512"
   height="512"
   id="svg2"
   sodipodi:version="0.32"
   inkscape:version="0.48.3.1 r9886"
   sodipodi:docname="arrow-right-alt.svg"
   version="1.0"
   inkscape:output_extension="org.inkscape.output.svg.inkscape">
  <defs
     id="defs4" />
  <sodipodi:namedview
     id="base"
     pagecolor="#ffffff"
     bordercolor="#666666"
     borderopacity="1.0"
     inkscape:pageopacity="0.0"
     inkscape:pageshadow="2"
     inkscape:zoom="1.8101934"
     inkscape:cx="283.98804"
     inkscape:cy="302.72416"
     inkscape:document-units="px"
     inkscape:current-layer="layer1"
     inkscape:window-width="1920"
     inkscape:window-height="1025"
     inkscape:window-x="0"
     inkscape:window-y="27"
     showgrid="false"
     inkscape:window-maximized="1"
     fit-margin-top="0"
     fit-margin-left="0"
     fit-margin-right="0"
     fit-margin-bottom="0" />
  <metadata
     id="metadata7">
    <rdf:RDF>
      <cc:Work
         rdf:about="">
        <dc:format>image/svg+xml</dc:format>
        <dc:type
           rdf:resource="http://purl.org/dc/dcmitype/StillImage" />
        <dc:title />
        <dc:creator>
          <cc:Agent>
            <dc:title />
          </cc:Agent>
        </dc:creator>
        <dc:subject>
          <rdf:Bag />
        </dc:subject>
        <cc:license
           rdf:resource="http://creativecommons.org/licenses/publicdomain/" />
        <dc:description />
        <dc:contributor>
          <cc:Agent>
            <dc:title />
          </cc:Agent>
        </dc:contributor>
      </cc:Work>
      <cc:License
         rdf:about="http://creativecommons.org/licenses/publicdomain/">
        <cc:permits
           rdf:resource="http://creativecommons.org/ns#Reproduction" />
        <cc:permits
           rdf:resource="http://creativecommons.org/ns#Distribution" />
        <cc:permits
           rdf:resource="http://creativecommons.org/ns#DerivativeWorks" />
      </cc:License>
    </rdf:RDF>
  </metadata>
  <g
     inkscape:label="Layer 1"
     inkscape:groupmode="layer"
     id="layer1"
     transform="translate(-374.21785,-62.236374)">
    <path
       style="fill:#000000;fill-opacity:1"
       d="M 256 0 C 114.61514 -3.7895613e-14 0 114.6151 0 256 C 0 397.3849 114.61514 512 256 512 C 397.3849 512 512 397.3849 512 256 C 512 114.6151 397.3849 0 256 0 z M 252.9375 147.40625 C 255.07079 147.35292 257.17906 147.97 259.3125 149.25 L 398.09375 248.0625 C 400.82425 249.769 402.1875 252.3365 402.1875 255.75 C 402.1875 259.1635 400.82425 261.731 398.09375 263.4375 L 259.3125 362.75 C 255.899 364.798 252.50725 365.1466 249.09375 363.78125 C 245.68025 362.07475 243.96875 359.1585 243.96875 355.0625 L 243.96875 308.46875 L 119.03125 308.46875 C 116.30076 308.46875 114.08149 307.61274 112.375 305.90625 C 110.66851 304.19976 109.8125 301.98101 109.8125 299.25 L 109.8125 213.25 C 109.8125 210.5195 110.66851 208.22125 112.375 206.34375 C 114.08098 204.46625 116.30024 203.53125 119.03125 203.53125 L 243.96875 203.53125 L 243.96875 156.9375 C 243.96875 153.524 245.68025 150.60825 249.09375 148.21875 C 250.37381 147.70669 251.65753 147.43825 252.9375 147.40625 z "
       transform="translate(374.21785,62.236374)"
       id="path3112" />
  </g>
</svg>
