<?xml version="1.0" encoding="UTF-8" standalone="no"?>
<!-- Created with Inkscape (http://www.inkscape.org/) -->

<svg
   xmlns:dc="http://purl.org/dc/elements/1.1/"
   xmlns:cc="http://creativecommons.org/ns#"
   xmlns:rdf="http://www.w3.org/1999/02/22-rdf-syntax-ns#"
   xmlns:svg="http://www.w3.org/2000/svg"
   xmlns="http://www.w3.org/2000/svg"
   xmlns:sodipodi="http://sodipodi.sourceforge.net/DTD/sodipodi-0.dtd"
   xmlns:inkscape="http://www.inkscape.org/namespaces/inkscape"
   width="512"
   height="512"
   id="svg2"
   sodipodi:version="0.32"
   inkscape:version="0.48.3.1 r9886"
   sodipodi:docname="arrow-up-alt.svg"
   version="1.0"
   inkscape:output_extension="org.inkscape.output.svg.inkscape">
  <defs
     id="defs4" />
  <sodipodi:namedview
     id="base"
     pagecolor="#ffffff"
     bordercolor="#666666"
     borderopacity="1.0"
     inkscape:pageopacity="0.0"
     inkscape:pageshadow="2"
     inkscape:zoom="0.45254834"
     inkscape:cx="10.143836"
     inkscape:cy="352.87375"
     inkscape:document-units="px"
     inkscape:current-layer="layer1"
     inkscape:window-width="1487"
     inkscape:window-height="1021"
     inkscape:window-x="0"
     inkscape:window-y="28"
     showgrid="false"
     inkscape:window-maximized="0"
     fit-margin-top="0"
     fit-margin-left="0"
     fit-margin-right="0"
     fit-margin-bottom="0" />
  <metadata
     id="metadata7">
    <rdf:RDF>
      <cc:Work
         rdf:about="">
        <dc:format>image/svg+xml</dc:format>
        <dc:type
           rdf:resource="http://purl.org/dc/dcmitype/StillImage" />
        <dc:title />
        <dc:creator>
          <cc:Agent>
            <dc:title />
          </cc:Agent>
        </dc:creator>
        <dc:subject>
          <rdf:Bag />
        </dc:subject>
        <cc:license
           rdf:resource="http://creativecommons.org/licenses/publicdomain/" />
        <dc:description />
        <dc:contributor>
          <cc:Agent>
            <dc:title />
          </cc:Agent>
        </dc:contributor>
      </cc:Work>
      <cc:License
         rdf:about="http://creativecommons.org/licenses/publicdomain/">
        <cc:permits
           rdf:resource="http://creativecommons.org/ns#Reproduction" />
        <cc:permits
           rdf:resource="http://creativecommons.org/ns#Distribution" />
        <cc:permits
           rdf:resource="http://creativecommons.org/ns#DerivativeWorks" />
      </cc:License>
    </rdf:RDF>
  </metadata>
  <g
     inkscape:label="Layer 1"
     inkscape:groupmode="layer"
     id="layer1"
     transform="translate(-374.21785,-62.236374)">
    <path
       style="fill:#000000;fill-opacity:1"
       d="M 256 0 C 114.6151 0 0 114.61509 0 256 C 0 397.38489 114.6151 512 256 512 C 397.38488 512 512 397.38489 512 256 C 512 114.61509 397.38488 0 256 0 z M 255.5 109.8125 C 258.9135 109.8125 261.6395 111.17575 263.6875 113.90625 L 363 252.6875 C 365.048 255.7595 365.23775 258.99275 363.53125 262.40625 C 361.82475 266.16075 359.067 268.03125 355.3125 268.03125 L 308.75 268.03125 L 308.75 392.4375 C 308.75 395.16815 307.78375 397.49765 305.90625 399.375 C 304.02875 401.25235 301.7305 402.1875 299 402.1875 L 213 402.1875 C 210.2695 402.1875 207.97125 401.25235 206.09375 399.375 C 204.21625 397.49765 203.25 395.16815 203.25 392.4375 L 203.25 268.03125 L 157.1875 268.03125 C 153.0915 268.03125 150.17525 266.16075 148.46875 262.40625 C 146.76225 258.99275 146.952 255.7595 149 252.6875 L 247.8125 113.90625 C 249.8605 111.17575 252.428 109.8125 255.5 109.8125 z "
       transform="translate(374.21785,62.236374)"
       id="path3116" />
  </g>
</svg>
