<?xml version="1.0" encoding="UTF-8" standalone="no"?>
<!-- Created with Inkscape (http://www.inkscape.org/) -->

<svg
   xmlns:dc="http://purl.org/dc/elements/1.1/"
   xmlns:cc="http://creativecommons.org/ns#"
   xmlns:rdf="http://www.w3.org/1999/02/22-rdf-syntax-ns#"
   xmlns:svg="http://www.w3.org/2000/svg"
   xmlns="http://www.w3.org/2000/svg"
   xmlns:sodipodi="http://sodipodi.sourceforge.net/DTD/sodipodi-0.dtd"
   xmlns:inkscape="http://www.inkscape.org/namespaces/inkscape"
   width="512"
   height="512"
   id="svg2"
   sodipodi:version="0.32"
   inkscape:version="0.48.3.1 r9886"
   sodipodi:docname="barcode.svg"
   version="1.0"
   inkscape:output_extension="org.inkscape.output.svg.inkscape">
  <defs
     id="defs4" />
  <sodipodi:namedview
     id="base"
     pagecolor="#ffffff"
     bordercolor="#666666"
     borderopacity="1.0"
     inkscape:pageopacity="0.0"
     inkscape:pageshadow="2"
     inkscape:zoom="1.28"
     inkscape:cx="322.10426"
     inkscape:cy="275.60992"
     inkscape:document-units="px"
     inkscape:current-layer="layer1"
     inkscape:window-width="1487"
     inkscape:window-height="1021"
     inkscape:window-x="0"
     inkscape:window-y="28"
     showgrid="false"
     inkscape:window-maximized="0"
     fit-margin-top="0"
     fit-margin-left="0"
     fit-margin-right="0"
     fit-margin-bottom="0" />
  <metadata
     id="metadata7">
    <rdf:RDF>
      <cc:Work
         rdf:about="">
        <dc:format>image/svg+xml</dc:format>
        <dc:type
           rdf:resource="http://purl.org/dc/dcmitype/StillImage" />
        <dc:title />
        <dc:creator>
          <cc:Agent>
            <dc:title />
          </cc:Agent>
        </dc:creator>
        <dc:subject>
          <rdf:Bag />
        </dc:subject>
        <cc:license
           rdf:resource="http://creativecommons.org/licenses/publicdomain/" />
        <dc:description />
        <dc:contributor>
          <cc:Agent>
            <dc:title />
          </cc:Agent>
        </dc:contributor>
      </cc:Work>
      <cc:License
         rdf:about="http://creativecommons.org/licenses/publicdomain/">
        <cc:permits
           rdf:resource="http://creativecommons.org/ns#Reproduction" />
        <cc:permits
           rdf:resource="http://creativecommons.org/ns#Distribution" />
        <cc:permits
           rdf:resource="http://creativecommons.org/ns#DerivativeWorks" />
      </cc:License>
    </rdf:RDF>
  </metadata>
  <g
     inkscape:label="Layer 1"
     inkscape:groupmode="layer"
     id="layer1"
     transform="translate(-374.21785,-62.236374)">
    <path
       id="path10172"
       style="fill:currentColor"
       d="m 843.71329,96.773356 0,442.926034 42.50456,0 0,-442.926034 -42.50456,0 z m -30.84904,0 0,442.926034 10.29382,0 0,-442.926034 -10.29382,0 z m -35.06383,0 0,442.926034 14.29788,0 0,-442.926034 -14.29788,0 z m -12.15805,0 0,442.926034 4.76596,0 0,-442.926034 -4.76596,0 z m -52.231,0 0,442.926034 21.39817,0 0,-442.926034 -21.39817,0 z m -57.4995,0 0,442.926034 42.50456,0 0,-442.926034 -42.50456,0 z m -23.01925,0 0,442.926034 10.27761,0 0,-442.926034 -10.27761,0 z m -30.36271,0 0,442.926034 8.23505,0 0,-442.926034 -8.23505,0 z m -29.68187,0 0,442.926034 21.10639,0 0,-442.926034 -21.10639,0 z m -52.44174,0 0,442.926034 13.86018,0 0,-442.926034 -13.86018,0 z m -47.28673,0 0,442.926034 32.50254,0 0,-442.926034 -32.50254,0 z m -35.84194,0 0,442.926034 10.27761,0 0,-442.926034 -10.27761,0 z m -63.05978,0 0,442.926034 42.78014,0 0,-442.926034 -42.78014,0 z" />
  </g>
</svg>
