<?xml version="1.0" encoding="UTF-8" standalone="no"?>
<!-- Created with Inkscape (http://www.inkscape.org/) -->

<svg
   xmlns:dc="http://purl.org/dc/elements/1.1/"
   xmlns:cc="http://creativecommons.org/ns#"
   xmlns:rdf="http://www.w3.org/1999/02/22-rdf-syntax-ns#"
   xmlns:svg="http://www.w3.org/2000/svg"
   xmlns="http://www.w3.org/2000/svg"
   xmlns:sodipodi="http://sodipodi.sourceforge.net/DTD/sodipodi-0.dtd"
   xmlns:inkscape="http://www.inkscape.org/namespaces/inkscape"
   width="987.97894"
   height="997.0191"
   id="svg2"
   sodipodi:version="0.32"
   inkscape:version="0.48.3.1 r9886"
   sodipodi:docname="stumbleupon.svg"
   version="1.0"
   inkscape:output_extension="org.inkscape.output.svg.inkscape">
  <defs
     id="defs4" />
  <sodipodi:namedview
     id="base"
     pagecolor="#ffffff"
     bordercolor="#666666"
     borderopacity="1.0"
     inkscape:pageopacity="0.0"
     inkscape:pageshadow="2"
     inkscape:zoom="0.45254834"
     inkscape:cx="653.16907"
     inkscape:cy="242.38832"
     inkscape:document-units="px"
     inkscape:current-layer="layer1"
     inkscape:window-width="1487"
     inkscape:window-height="1021"
     inkscape:window-x="0"
     inkscape:window-y="28"
     showgrid="false"
     inkscape:window-maximized="0"
     fit-margin-top="0"
     fit-margin-left="0"
     fit-margin-right="0"
     fit-margin-bottom="0" />
  <metadata
     id="metadata7">
    <rdf:RDF>
      <cc:Work
         rdf:about="">
        <dc:format>image/svg+xml</dc:format>
        <dc:type
           rdf:resource="http://purl.org/dc/dcmitype/StillImage" />
        <dc:title></dc:title>
        <dc:creator>
          <cc:Agent>
            <dc:title />
          </cc:Agent>
        </dc:creator>
        <dc:subject>
          <rdf:Bag />
        </dc:subject>
        <cc:license
           rdf:resource="http://creativecommons.org/licenses/publicdomain/" />
        <dc:description />
        <dc:contributor>
          <cc:Agent>
            <dc:title />
          </cc:Agent>
        </dc:contributor>
      </cc:Work>
      <cc:License
         rdf:about="http://creativecommons.org/licenses/publicdomain/">
        <cc:permits
           rdf:resource="http://creativecommons.org/ns#Reproduction" />
        <cc:permits
           rdf:resource="http://creativecommons.org/ns#Distribution" />
        <cc:permits
           rdf:resource="http://creativecommons.org/ns#DerivativeWorks" />
      </cc:License>
    </rdf:RDF>
  </metadata>
  <g
     inkscape:label="Layer 1"
     inkscape:groupmode="layer"
     id="layer1"
     transform="translate(-374.21785,422.78273)">
    <g
       id="g6640"
       transform="matrix(1.0433404,0,0,-1.0433404,346.53712,388.72894)">
      <path
         id="path6642"
         d="m 686,217 c 16,0 28.667,-4.66701 38,-14 5.33301,-5.334 9,-11.167 11,-17.5 2,-6.333 3.66699,-11.833 5,-16.5 H 625 c 0.68597,4 2.35199,8.66701 5,14 2.67603,5.33299 6.34302,10.5 11,15.5 4.66699,5 10.667,9.33299 18,13 7.333,3.66701 16.333,5.5 27,5.5 z M 390,156 c 0.66699,0 3,-0.33299 7,-1 4,-0.66701 8.16699,-2.5 12.5,-5.5 4.336,-3 8.17001,-7.66701 11.5,-14 3.33301,-6.33299 5,-15.5 5,-27.5 0,-19.3333 -4.66699,-31.6667 -14,-37 -9.33301,-5.3333 -18.667,-8 -28,-8 H 281 v 93 h 109 v 0 z m 22,115 c 0,-9.33301 -0.83301,-16.833 -2.5,-22.5 -1.673,-5.66701 -3.84,-9.83299 -6.5,-12.5 -2.66699,-2.66701 -5.66699,-4.33299 -9,-5 -3.33301,-0.66701 -7,-1 -11,-1 H 281 v 76 h 94 15 l 3.5,-0.5 7.5,-4 7.5,-10.5 z M 832,107 c 0,0.667 0.33301,5.667 1,15 0.66699,9.33299 0.33301,20.833 -1,34.5 -1.35901,13.667 -4.69202,28.167 -10,43.5 -5.33301,15.333 -14,29.667 -26,43 -25.333,29.333 -61.333,44 -108,44 -20.667,0 -38.833,-2.5 -54.5,-7.5 -15.667,-5 -29,-11.333 -40,-19 -11,-7.66701 -20.167,-16.333 -27.5,-26 -7.333,-9.667 -13.333,-18.833 -18,-27.5 -4.66699,-10 -8.33301,-19.667 -11,-29 -2.66699,-9.334 -4.66699,-17.667 -6,-25 -1.349,-7.33299 -2.18298,-13.333 -2.5,-18 L 528,128 V 115.5 L 531.5,87 543,50.5 568,14 c 26.668,-30 66.335,-45 119,-45 h 6 c 6,0 16.5,0.6667 31.5,2 15,1.3333 30.333,5.8333 46,13.5 15.667,7.66667 29.5,19 41.5,34 12,15 18,35.8333 18,62.5 0,4.6667 -2.33301,7 -7,7 h -69 c -2,0 -3.66699,-0.666702 -5,-2 -1.33301,-2.6673 -2,-4.334 -2,-5 0,-0.666702 -0.33301,-3 -1,-7 -0.66699,-4 -3.33301,-8.6667 -8,-14 C 728,50 711.667,45 689,45 h -2 c -2.66699,0 -7.33301,0.5 -14,1.5 -6.66699,1 -13.667,3.5 -21,7.5 -16,9.3333 -24.333,25 -25,47 h 199 c 4,0 6,2 6,6 z m -306,-6 v 9.5 l -2,21.5 -7.5,27 -16.5,25 c -8,8 -17,14 -27,18 9.33499,5.33299 18.169,13.5 26.5,24.5 8.33301,11 12.5,27.167 12.5,48.5 0,34.667 -10.5,62.167 -31.5,82.5 -21,20.333 -50.167,30.5 -87.5,30.5 H 187 c -4.66701,0 -7,-2.33301 -7,-7 V -16 c 0,-4.6667 2.33299,-7 7,-7 h 208 c 4.66699,0 13.667,1 27,3 13.334,2 27.668,6.6667 43,14 14,6.66667 27.667,18.3333 41,35 13.333,16.6667 20,40.6667 20,72 z m 70,222 c 0,-4 2,-6 6,-6 h 164 c 4.66699,0 7,2 7,6 v 49 c 0,4.66699 -2.33301,7 -7,7 H 602 c -4,0 -6,-2.33301 -6,-7 v -49 z m 349,450 c 6.68103,0 12.348,-2.16699 17,-6.5 4.66699,-4.33301 7,-9.83301 7,-16.5 v -900 c 0,-6.66701 -2.33301,-12.167 -7,-16.5 -4.66699,-4.333 -10.333,-6.5 -17,-6.5 H 55 c -6.6667,0 -12.3333,2.16701 -17,6.5 -4.6667,4.33299 -7,9.83299 -7,16.5 v 900 c 0,6.66699 2.3333,12.167 7,16.5 4.6667,4.333 10.3334,6.5 17,6.5 h 890 v 0 z"
         inkscape:connector-curvature="0"
         style="fill:currentColor" />
    </g>
  </g>
</svg>
