<?xml version="1.0" encoding="UTF-8" standalone="no"?>
<!-- Created with Inkscape (http://www.inkscape.org/) -->

<svg
   xmlns:dc="http://purl.org/dc/elements/1.1/"
   xmlns:cc="http://creativecommons.org/ns#"
   xmlns:rdf="http://www.w3.org/1999/02/22-rdf-syntax-ns#"
   xmlns:svg="http://www.w3.org/2000/svg"
   xmlns="http://www.w3.org/2000/svg"
   xmlns:sodipodi="http://sodipodi.sourceforge.net/DTD/sodipodi-0.dtd"
   xmlns:inkscape="http://www.inkscape.org/namespaces/inkscape"
   width="987.97894"
   height="997.0191"
   id="svg2"
   sodipodi:version="0.32"
   inkscape:version="0.48.3.1 r9886"
   sodipodi:docname="cc.svg"
   version="1.0"
   inkscape:output_extension="org.inkscape.output.svg.inkscape">
  <defs
     id="defs4" />
  <sodipodi:namedview
     id="base"
     pagecolor="#ffffff"
     bordercolor="#666666"
     borderopacity="1.0"
     inkscape:pageopacity="0.0"
     inkscape:pageshadow="2"
     inkscape:zoom="0.45254834"
     inkscape:cx="211.22733"
     inkscape:cy="330.77667"
     inkscape:document-units="px"
     inkscape:current-layer="layer1"
     inkscape:window-width="1487"
     inkscape:window-height="1021"
     inkscape:window-x="0"
     inkscape:window-y="28"
     showgrid="false"
     inkscape:window-maximized="0"
     fit-margin-top="0"
     fit-margin-left="0"
     fit-margin-right="0"
     fit-margin-bottom="0" />
  <metadata
     id="metadata7">
    <rdf:RDF>
      <cc:Work
         rdf:about="">
        <dc:format>image/svg+xml</dc:format>
        <dc:type
           rdf:resource="http://purl.org/dc/dcmitype/StillImage" />
        <dc:title></dc:title>
        <dc:creator>
          <cc:Agent>
            <dc:title />
          </cc:Agent>
        </dc:creator>
        <dc:subject>
          <rdf:Bag />
        </dc:subject>
        <cc:license
           rdf:resource="http://creativecommons.org/licenses/publicdomain/" />
        <dc:description />
        <dc:contributor>
          <cc:Agent>
            <dc:title />
          </cc:Agent>
        </dc:contributor>
      </cc:Work>
      <cc:License
         rdf:about="http://creativecommons.org/licenses/publicdomain/">
        <cc:permits
           rdf:resource="http://creativecommons.org/ns#Reproduction" />
        <cc:permits
           rdf:resource="http://creativecommons.org/ns#Distribution" />
        <cc:permits
           rdf:resource="http://creativecommons.org/ns#DerivativeWorks" />
      </cc:License>
    </rdf:RDF>
  </metadata>
  <g
     inkscape:label="Layer 1"
     inkscape:groupmode="layer"
     id="layer1"
     transform="translate(-374.21785,422.78273)">
    <g
       id="g7781"
       transform="matrix(1.0530406,0,0,-1.0530406,307.31191,398.63426)">
      <path
         id="path7783"
         d="m 968,-139 c 2,-2 2.66699,-4.5 2,-7.5 -0.66699,-3 -2.33301,-5.16701 -5,-6.5 -4.66699,-4 -9.66699,-3.33299 -15,2 l -367,483 -99,19 c -9.33301,2.66699 -16.333,7 -21,13 l -42,53 V 372 265 L 529,142 c 2.66699,-2 4.5,-4.5 5.5,-7.5 1,-3 1.83301,-6.16701 2.5,-9.5 l 51,-233 c 2.64899,-12 0.315,-23.167 -7,-33.5 -7.33301,-10.333 -17.333,-16.833 -30,-19.5 -2.66699,-0.66701 -6,-1 -10,-1 -11.333,0 -21.333,3.33299 -30,10 -8.66901,6.666 -14.335,15.333 -17,26 L 446,98 358,197 319,59 c -1.33301,-3.3333 -2.5,-6.3333 -3.5,-9 -1,-2.6667 -2.5,-5.3333 -4.5,-8 L 181,-125 c -10,-12 -22.667,-18 -38,-18 -10.667,0 -20.333,3 -29,9 -10.667,7.333 -16.8334,17.167 -18.5,29.5 -1.6663,12.3333 1.167,23.5 8.5,33.5 l 125,159 48,173 c 0,0.66699 0.16699,1.16699 0.5,1.5 0.33301,0.33301 0.5,0.83301 0.5,1.5 l -1,145 -26,-35 -10,-103 c -1.33299,-8.66699 -5.33299,-16 -12,-22 -6.66701,-6 -14.667,-9 -24,-9 -1.33299,0 -2.33299,0.33299 -3,1 -10,0.66701 -18.333,4.66701 -25,12 -6.66701,7.33401 -9.33299,15.668 -8,25 l 12,111 c 0,6 2,11.667 6,17 l 100,135 c 7.33301,12 18,21.167 32,27.5 14,6.333 28.667,8.16699 44,5.5 10,-2 18.667,-5.66699 26,-11 6.66699,-3.34198 11.333,-6.67499 14,-10 L 512,416 618,395 c 10,-2 17.667,-6.83301 23,-14.5 5.333,-7.66699 7.33301,-16.167 6,-25.5 -2.66699,-11.333 -9.66699,-19.333 -21,-24 l 342,-470 v 0 z M 346,592 c -12.667,2.66699 -24,7.5 -34,14.5 -10,7 -18.5,15.333 -25.5,25 -7,9.667 -11.833,20.5 -14.5,32.5 -2.667,12 -2.66699,24.333 0,37 2.66699,12.667 7.5,24 14.5,34 7,10 15.5,18.167 25.5,24.5 10,6.333 21,10.833 33,13.5 12,2.667 24.333,3 37,1 12.667,-2.66699 24.167,-7.5 34.5,-14.5 10.333,-7 18.833,-15.333 25.5,-25 6.667,-9.667 11.333,-20.5 14,-32.5 2.667,-12 2.66699,-24.333 0,-37 -2.66699,-12.667 -7.5,-24 -14.5,-34 -7,-10 -15.5,-18.333 -25.5,-25 -10,-6.667 -21,-11.333 -33,-14 -12,-2.667 -24.333,-2.66699 -37,0 z"
         inkscape:connector-curvature="0"
         style="fill:currentColor" />
    </g>
  </g>
</svg>
