<?xml version="1.0" encoding="UTF-8" standalone="no"?>
<!-- Created with Inkscape (http://www.inkscape.org/) -->

<svg
   xmlns:dc="http://purl.org/dc/elements/1.1/"
   xmlns:cc="http://creativecommons.org/ns#"
   xmlns:rdf="http://www.w3.org/1999/02/22-rdf-syntax-ns#"
   xmlns:svg="http://www.w3.org/2000/svg"
   xmlns="http://www.w3.org/2000/svg"
   xmlns:sodipodi="http://sodipodi.sourceforge.net/DTD/sodipodi-0.dtd"
   xmlns:inkscape="http://www.inkscape.org/namespaces/inkscape"
   width="987.97894"
   height="997.0191"
   id="svg2"
   sodipodi:version="0.32"
   inkscape:version="0.48.3.1 r9886"
   sodipodi:docname="tags.svg"
   version="1.0"
   inkscape:output_extension="org.inkscape.output.svg.inkscape">
  <defs
     id="defs4" />
  <sodipodi:namedview
     id="base"
     pagecolor="#ffffff"
     bordercolor="#666666"
     borderopacity="1.0"
     inkscape:pageopacity="0.0"
     inkscape:pageshadow="2"
     inkscape:zoom="0.32"
     inkscape:cx="-447.43901"
     inkscape:cy="996.99817"
     inkscape:document-units="px"
     inkscape:current-layer="layer1"
     inkscape:window-width="1487"
     inkscape:window-height="1021"
     inkscape:window-x="0"
     inkscape:window-y="28"
     showgrid="false"
     inkscape:window-maximized="0"
     fit-margin-top="0"
     fit-margin-left="0"
     fit-margin-right="0"
     fit-margin-bottom="0" />
  <metadata
     id="metadata7">
    <rdf:RDF>
      <cc:Work
         rdf:about="">
        <dc:format>image/svg+xml</dc:format>
        <dc:type
           rdf:resource="http://purl.org/dc/dcmitype/StillImage" />
        <dc:title></dc:title>
        <dc:creator>
          <cc:Agent>
            <dc:title />
          </cc:Agent>
        </dc:creator>
        <dc:subject>
          <rdf:Bag />
        </dc:subject>
        <cc:license
           rdf:resource="http://creativecommons.org/licenses/publicdomain/" />
        <dc:description />
        <dc:contributor>
          <cc:Agent>
            <dc:title />
          </cc:Agent>
        </dc:contributor>
      </cc:Work>
      <cc:License
         rdf:about="http://creativecommons.org/licenses/publicdomain/">
        <cc:permits
           rdf:resource="http://creativecommons.org/ns#Reproduction" />
        <cc:permits
           rdf:resource="http://creativecommons.org/ns#Distribution" />
        <cc:permits
           rdf:resource="http://creativecommons.org/ns#DerivativeWorks" />
      </cc:License>
    </rdf:RDF>
  </metadata>
  <g
     inkscape:label="Layer 1"
     inkscape:groupmode="layer"
     id="layer1"
     transform="translate(-374.21785,422.78273)">
    <path
       inkscape:connector-curvature="0"
       d="M 1207.352,-172.04663 748.33481,-408.69708 c -62.89933,-33.10759 -186.86152,30.86302 -222.46876,87.18164 -15.86512,25.20054 -14.74283,43.36126 -14.74283,53.66593 l 5.66247,534.36374 c 0.35709,11.37596 14.69182,26.62892 26.88398,34.17888 25.45561,15.61005 411.16675,256.34154 422.03257,263.17732 5.86653,3.67295 12.85534,5.35639 19.69112,5.35639 5.8155,0 11.682,-1.27533 16.98744,-3.92802 11.631,-5.71348 18.8749,-16.73234 18.8749,-28.82248 l 0,-561.196697 c 0,-11.68204 -6.8358,-22.44583 -17.9567,-28.31236 L 586.11269,-285.95921 c 4.69322,-9.18238 23.26204,-28.56742 57.3899,-46.42205 35.96434,-18.8749 62.84832,-11.73305 69.02092,-9.33543 0,0 400.45399,214.30664 412.69719,220.6833 12.1922,6.37666 12.4472,7.34591 12.4472,18.21173 0,10.916833 0,532.57827 0,532.57827 0,26.5779 26.935,37.44372 46.7792,37.44372 19.7421,0 40.8616,-19.38503 40.8616,-37.44372 l 0,-573.49089 c 0,-11.68204 -6.8868,-22.49684 -17.9567,-28.31235 z"
       id="path2989" />
  </g>
</svg>
