<?xml version="1.0" encoding="UTF-8" standalone="no"?>
<!-- Created with Inkscape (http://www.inkscape.org/) -->

<svg
   xmlns:dc="http://purl.org/dc/elements/1.1/"
   xmlns:cc="http://creativecommons.org/ns#"
   xmlns:rdf="http://www.w3.org/1999/02/22-rdf-syntax-ns#"
   xmlns:svg="http://www.w3.org/2000/svg"
   xmlns="http://www.w3.org/2000/svg"
   xmlns:sodipodi="http://sodipodi.sourceforge.net/DTD/sodipodi-0.dtd"
   xmlns:inkscape="http://www.inkscape.org/namespaces/inkscape"
   width="512"
   height="512"
   id="svg2"
   sodipodi:version="0.32"
   inkscape:version="0.48.3.1 r9886"
   sodipodi:docname="braille.svg"
   version="1.0"
   inkscape:output_extension="org.inkscape.output.svg.inkscape">
  <defs
     id="defs4" />
  <sodipodi:namedview
     id="base"
     pagecolor="#ffffff"
     bordercolor="#666666"
     borderopacity="1.0"
     inkscape:pageopacity="0.0"
     inkscape:pageshadow="2"
     inkscape:zoom="0.64"
     inkscape:cx="147.57123"
     inkscape:cy="549.87114"
     inkscape:document-units="px"
     inkscape:current-layer="layer1"
     inkscape:window-width="1487"
     inkscape:window-height="1021"
     inkscape:window-x="0"
     inkscape:window-y="28"
     showgrid="false"
     inkscape:window-maximized="0"
     fit-margin-top="0"
     fit-margin-left="0"
     fit-margin-right="0"
     fit-margin-bottom="0" />
  <metadata
     id="metadata7">
    <rdf:RDF>
      <cc:Work
         rdf:about="">
        <dc:format>image/svg+xml</dc:format>
        <dc:type
           rdf:resource="http://purl.org/dc/dcmitype/StillImage" />
        <dc:title />
        <dc:creator>
          <cc:Agent>
            <dc:title />
          </cc:Agent>
        </dc:creator>
        <dc:subject>
          <rdf:Bag />
        </dc:subject>
        <cc:license
           rdf:resource="http://creativecommons.org/licenses/publicdomain/" />
        <dc:description />
        <dc:contributor>
          <cc:Agent>
            <dc:title />
          </cc:Agent>
        </dc:contributor>
      </cc:Work>
      <cc:License
         rdf:about="http://creativecommons.org/licenses/publicdomain/">
        <cc:permits
           rdf:resource="http://creativecommons.org/ns#Reproduction" />
        <cc:permits
           rdf:resource="http://creativecommons.org/ns#Distribution" />
        <cc:permits
           rdf:resource="http://creativecommons.org/ns#DerivativeWorks" />
      </cc:License>
    </rdf:RDF>
  </metadata>
  <g
     inkscape:label="Layer 1"
     inkscape:groupmode="layer"
     id="layer1"
     transform="translate(-374.21785,-62.236374)">
    <path
       id="path3099"
       style="fill:#000000;fill-opacity:1"
       d="m 591.9062,510.6553 c 0,35.11485 -28.46622,63.58107 -63.58107,63.58107 -35.11486,0 -63.58106,-28.46622 -63.58106,-63.58107 0,-35.11485 28.46621,-63.58106 63.58106,-63.58106 35.11485,0 63.58107,28.46621 63.58107,63.58106 z m 0,-192.41893 c 0,35.11485 -28.46622,63.58107 -63.58107,63.58107 -35.11486,0 -63.58106,-28.46622 -63.58106,-63.58107 0,-35.11484 28.46621,-63.58106 63.58106,-63.58106 35.11485,0 63.58107,28.46622 63.58107,63.58106 z m 0,-192.41894 c 0,35.11485 -28.46622,63.58106 -63.58107,63.58106 -35.11486,0 -63.58106,-28.46621 -63.58106,-63.58106 0,-35.114844 28.46621,-63.581056 63.58106,-63.581056 35.11485,0 63.58107,28.466212 63.58107,63.581056 z M 795.69163,510.6553 c 0,35.11485 -28.46621,63.58107 -63.58107,63.58107 -35.11483,0 -63.58104,-28.46622 -63.58104,-63.58107 0,-35.11485 28.46621,-63.58106 63.58104,-63.58106 35.11487,0 63.58107,28.46621 63.58107,63.58106 z m 0,-192.41893 c 0,35.11485 -28.46621,63.58107 -63.58107,63.58107 -35.11483,0 -63.58104,-28.46622 -63.58104,-63.58107 0,-35.11484 28.46621,-63.58106 63.58104,-63.58106 35.11487,0 63.58107,28.46622 63.58107,63.58106 z m 0,-192.41894 c 0,35.11485 -28.46621,63.58106 -63.58107,63.58106 -35.11483,0 -63.58104,-28.46621 -63.58104,-63.58106 0,-35.114844 28.46621,-63.581056 63.58104,-63.581056 35.11487,0 63.58107,28.466212 63.58107,63.581056 z"
       inkscape:connector-curvature="0" />
  </g>
</svg>
