<?xml version="1.0" encoding="UTF-8" standalone="no"?>
<!-- Created with Inkscape (http://www.inkscape.org/) -->

<svg
   xmlns:dc="http://purl.org/dc/elements/1.1/"
   xmlns:cc="http://creativecommons.org/ns#"
   xmlns:rdf="http://www.w3.org/1999/02/22-rdf-syntax-ns#"
   xmlns:svg="http://www.w3.org/2000/svg"
   xmlns="http://www.w3.org/2000/svg"
   xmlns:sodipodi="http://sodipodi.sourceforge.net/DTD/sodipodi-0.dtd"
   xmlns:inkscape="http://www.inkscape.org/namespaces/inkscape"
   width="987.97894"
   height="997.0191"
   id="svg2"
   sodipodi:version="0.32"
   inkscape:version="0.48.3.1 r9886"
   sodipodi:docname="blind.svg"
   version="1.0"
   inkscape:output_extension="org.inkscape.output.svg.inkscape">
  <defs
     id="defs4" />
  <sodipodi:namedview
     id="base"
     pagecolor="#ffffff"
     bordercolor="#666666"
     borderopacity="1.0"
     inkscape:pageopacity="0.0"
     inkscape:pageshadow="2"
     inkscape:zoom="0.45254834"
     inkscape:cx="122.83898"
     inkscape:cy="330.77667"
     inkscape:document-units="px"
     inkscape:current-layer="layer1"
     inkscape:window-width="1487"
     inkscape:window-height="1021"
     inkscape:window-x="0"
     inkscape:window-y="28"
     showgrid="false"
     inkscape:window-maximized="0"
     fit-margin-top="0"
     fit-margin-left="0"
     fit-margin-right="0"
     fit-margin-bottom="0" />
  <metadata
     id="metadata7">
    <rdf:RDF>
      <cc:Work
         rdf:about="">
        <dc:format>image/svg+xml</dc:format>
        <dc:type
           rdf:resource="http://purl.org/dc/dcmitype/StillImage" />
        <dc:title></dc:title>
        <dc:creator>
          <cc:Agent>
            <dc:title />
          </cc:Agent>
        </dc:creator>
        <dc:subject>
          <rdf:Bag />
        </dc:subject>
        <cc:license
           rdf:resource="http://creativecommons.org/licenses/publicdomain/" />
        <dc:description />
        <dc:contributor>
          <cc:Agent>
            <dc:title />
          </cc:Agent>
        </dc:contributor>
      </cc:Work>
      <cc:License
         rdf:about="http://creativecommons.org/licenses/publicdomain/">
        <cc:permits
           rdf:resource="http://creativecommons.org/ns#Reproduction" />
        <cc:permits
           rdf:resource="http://creativecommons.org/ns#Distribution" />
        <cc:permits
           rdf:resource="http://creativecommons.org/ns#DerivativeWorks" />
      </cc:License>
    </rdf:RDF>
  </metadata>
  <g
     inkscape:label="Layer 1"
     inkscape:groupmode="layer"
     id="layer1"
     transform="translate(-374.21785,422.78273)">
    <g
       id="g7814"
       transform="matrix(1.128,0,0,-1.128,315.48732,410.17882)">
      <path
         id="path7816"
         d="m 771,625 c 0,-14.667 -2.83301,-28.5 -8.5,-41.5 -5.66699,-13 -13.167,-24.5 -22.5,-34.5 -9.333,-10 -20.5,-17.833 -33.5,-23.5 -13,-5.667 -26.833,-8.5 -41.5,-8.5 -14.667,0 -28.5,2.83301 -41.5,8.5 -13,5.66699 -24.333,13.5 -34,23.5 -9.667,10 -17.333,21.5 -23,34.5 -5.667,13 -8.5,26.833 -8.5,41.5 0,14.667 2.83301,28.667 8.5,42 5.66699,13.333 13.334,25 23,35 9.66699,10 21,17.833 34,23.5 13,5.667 26.833,8.5 41.5,8.5 14.667,0 28.5,-2.83301 41.5,-8.5 13,-5.66699 24.167,-13.5 33.5,-23.5 9.333,-10 16.833,-21.667 22.5,-35 5.667,-13.333 8.5,-27.333 8.5,-42 z m 0,-329 c 0,-15.333 -2.83301,-29.5 -8.5,-42.5 -5.66699,-13 -13.167,-24.333 -22.5,-34 -9.333,-9.667 -20.5,-17.333 -33.5,-23 -13,-5.667 -26.833,-8.5 -41.5,-8.5 -14.667,0 -28.5,2.83299 -41.5,8.5 -13,5.66701 -24.333,13.334 -34,23 -9.66699,9.66701 -17.333,21 -23,34 -5.667,13 -8.5,27.167 -8.5,42.5 0,14.667 2.83301,28.667 8.5,42 5.66699,13.333 13.334,24.833 23,34.5 9.66699,9.66699 21,17.333 34,23 13,5.667 26.833,8.5 41.5,8.5 14.667,0 28.5,-2.83301 41.5,-8.5 13,-5.67001 24.167,-13.336 33.5,-23 9.33301,-9.66699 16.833,-21.167 22.5,-34.5 5.667,-13.333 8.5,-27.333 8.5,-42 z m -3,-329 c 0,-14.6667 -2.66699,-28.3333 -8,-41 -5.33899,-12.6667 -12.672,-23.6667 -22,-33 -9.33301,-9.333 -20.333,-16.667 -33,-22 -12.667,-5.33299 -26,-8 -40,-8 -14,0 -27.333,2.66701 -40,8 -12.667,5.333 -23.667,12.667 -33,22 -9.33801,9.3333 -16.671,20.3333 -22,33 -5.33301,12.6667 -8,26.3333 -8,41 0,14 2.66699,27.3333 8,40 5.33301,12.6667 12.667,23.8333 22,33.5 9.33301,9.6667 20.333,17.1667 33,22.5 12.667,5.3333 26,8 40,8 14,0 27.333,-2.6667 40,-8 12.667,-5.3333 23.667,-12.8333 33,-22.5 9.33301,-9.6667 16.667,-20.8333 22,-33.5 5.33301,-12.6667 8,-26 8,-40 z M 422,625 c 0,-14.667 -2.83301,-28.5 -8.5,-41.5 -5.66699,-13 -13.167,-24.5 -22.5,-34.5 -9.333,-10 -20.5,-17.833 -33.5,-23.5 -13,-5.667 -26.833,-8.5 -41.5,-8.5 -14.667,0 -28.5,2.83301 -41.5,8.5 -13,5.66699 -24.333,13.5 -34,23.5 -9.667,10 -17.333,21.5 -23,34.5 -5.667,13 -8.5,26.833 -8.5,41.5 0,14.667 2.83299,28.667 8.5,42 5.66701,13.333 13.334,25 23,35 9.66701,10 21,17.833 34,23.5 13,5.667 26.833,8.5 41.5,8.5 14.667,0 28.5,-2.83301 41.5,-8.5 13,-5.66699 24.167,-13.5 33.5,-23.5 9.333,-10 16.833,-21.667 22.5,-35 5.667,-13.333 8.5,-27.333 8.5,-42 z m 0,-329 c 0,-15.333 -2.83301,-29.5 -8.5,-42.5 -5.66699,-13 -13.167,-24.333 -22.5,-34 -9.333,-9.667 -20.5,-17.333 -33.5,-23 -13,-5.667 -26.833,-8.5 -41.5,-8.5 -14.667,0 -28.5,2.83299 -41.5,8.5 -13,5.66701 -24.333,13.334 -34,23 -9.66701,9.66701 -17.333,21 -23,34 -5.667,13 -8.5,27.167 -8.5,42.5 0,14.667 2.83299,28.667 8.5,42 5.66701,13.333 13.334,24.833 23,34.5 9.66701,9.66699 21,17.333 34,23 13,5.667 26.833,8.5 41.5,8.5 14.667,0 28.5,-2.83301 41.5,-8.5 13,-5.67001 24.167,-13.336 33.5,-23 9.33301,-9.66699 16.833,-21.167 22.5,-34.5 5.667,-13.333 8.5,-27.333 8.5,-42 z m 0,-329 c 0,-15.3333 -2.83301,-29.5 -8.5,-42.5 -5.66699,-13 -13.167,-24.3333 -22.5,-34 -9.33301,-9.667 -20.5,-17.333 -33.5,-23 -13,-5.66701 -26.833,-8.5 -41.5,-8.5 -14.667,0 -28.5,2.83299 -41.5,8.5 -13,5.667 -24.333,13.333 -34,23 -9.66701,9.6667 -17.333,21 -23,34 -5.667,13 -8.5,27.1667 -8.5,42.5 0,14.6667 2.83299,28.6667 8.5,42 5.66701,13.3333 13.334,24.8333 23,34.5 9.66701,9.6667 21,17.3334 34,23 13,5.6667 26.833,8.5 41.5,8.5 14.667,0 28.5,-2.8333 41.5,-8.5 13,-5.6667 24.167,-13.3333 33.5,-23 9.333,-9.6667 16.833,-21.1667 22.5,-34.5 5.66699,-13.3333 8.5,-27.3333 8.5,-42 z"
         inkscape:connector-curvature="0"
         style="fill:currentColor" />
    </g>
  </g>
</svg>
