<?xml version="1.0" encoding="UTF-8" standalone="no"?>
<!-- Created with Inkscape (http://www.inkscape.org/) -->

<svg
   xmlns:dc="http://purl.org/dc/elements/1.1/"
   xmlns:cc="http://creativecommons.org/ns#"
   xmlns:rdf="http://www.w3.org/1999/02/22-rdf-syntax-ns#"
   xmlns:svg="http://www.w3.org/2000/svg"
   xmlns="http://www.w3.org/2000/svg"
   xmlns:sodipodi="http://sodipodi.sourceforge.net/DTD/sodipodi-0.dtd"
   xmlns:inkscape="http://www.inkscape.org/namespaces/inkscape"
   width="512"
   height="512"
   id="svg2"
   sodipodi:version="0.32"
   inkscape:version="0.48.3.1 r9886"
   sodipodi:docname="bullhorn.svg"
   version="1.0"
   inkscape:output_extension="org.inkscape.output.svg.inkscape">
  <defs
     id="defs4" />
  <sodipodi:namedview
     id="base"
     pagecolor="#ffffff"
     bordercolor="#666666"
     borderopacity="1.0"
     inkscape:pageopacity="0.0"
     inkscape:pageshadow="2"
     inkscape:zoom="0.45254834"
     inkscape:cx="362.83038"
     inkscape:cy="-350.9046"
     inkscape:document-units="px"
     inkscape:current-layer="text10546"
     inkscape:window-width="1487"
     inkscape:window-height="1021"
     inkscape:window-x="0"
     inkscape:window-y="28"
     showgrid="false"
     inkscape:window-maximized="0"
     fit-margin-top="0"
     fit-margin-left="0"
     fit-margin-right="0"
     fit-margin-bottom="0" />
  <metadata
     id="metadata7">
    <rdf:RDF>
      <cc:Work
         rdf:about="">
        <dc:format>image/svg+xml</dc:format>
        <dc:type
           rdf:resource="http://purl.org/dc/dcmitype/StillImage" />
        <dc:title />
        <dc:creator>
          <cc:Agent>
            <dc:title />
          </cc:Agent>
        </dc:creator>
        <dc:subject>
          <rdf:Bag />
        </dc:subject>
        <cc:license
           rdf:resource="http://creativecommons.org/licenses/publicdomain/" />
        <dc:description />
        <dc:contributor>
          <cc:Agent>
            <dc:title />
          </cc:Agent>
        </dc:contributor>
      </cc:Work>
      <cc:License
         rdf:about="http://creativecommons.org/licenses/publicdomain/">
        <cc:permits
           rdf:resource="http://creativecommons.org/ns#Reproduction" />
        <cc:permits
           rdf:resource="http://creativecommons.org/ns#Distribution" />
        <cc:permits
           rdf:resource="http://creativecommons.org/ns#DerivativeWorks" />
      </cc:License>
    </rdf:RDF>
  </metadata>
  <g
     inkscape:label="Layer 1"
     inkscape:groupmode="layer"
     id="layer1"
     transform="translate(-374.21785,-62.236374)">
    <g
       style="font-size:1353.90222168px;font-style:italic;font-variant:normal;font-weight:normal;font-stretch:normal;line-height:125%;letter-spacing:0px;word-spacing:0px;fill:#000000;fill-opacity:1;stroke:none;font-family:Serif;-inkscape-font-specification:Serif Italic"
       id="text10546">
      <path
         style="fill:currentColor"
         d="M 437.5625 42.28125 C 371.6427 107.56105 274.74823 147.5006 181.40625 153.125 L 42.78125 153.125 C 20.95901 153.4228 1.23134 171.98675 0 196.46875 L 0 258.96875 C 0.29776 280.79105 18.29921 301.0811 42.78125 302.3125 L 98.34375 302.3125 C 83.49153 352.6807 99.45923 403.67475 116.6875 453.71875 C 142.24658 477.85205 200.69336 474.8463 219.75 443.4375 C 199.79635 429.8878 172.3062 408.84055 188.34375 370.65625 C 168.90731 353.39285 180.39053 315.36995 208.34375 304.53125 C 291.7268 313.99225 374.33125 356.35265 437.5625 413.15625 C 459.29991 412.85835 479.07108 395.00525 480.34375 370.65625 L 480.34375 268.15625 C 497.75697 263.67305 511.18427 247.7028 512 227.875 C 511.78959 209.9764 499.44104 192.8837 480.34375 187.3125 L 480.34375 85.0625 C 480.04599 63.2402 462.04454 43.51265 437.5625 42.28125 z M 438.65625 97.5625 L 438.65625 358.15625 C 377.55195 310.53545 302.0726 278.5896 224.1875 264.25 L 224.1875 191.46875 C 300.61399 179.97035 375.35316 144.7235 438.65625 97.5625 z "
         transform="translate(374.21785,62.236374)"
         id="path2986" />
    </g>
  </g>
</svg>
