<?xml version="1.0" encoding="UTF-8" standalone="no"?>
<!-- Created with Inkscape (http://www.inkscape.org/) -->

<svg
   xmlns:dc="http://purl.org/dc/elements/1.1/"
   xmlns:cc="http://creativecommons.org/ns#"
   xmlns:rdf="http://www.w3.org/1999/02/22-rdf-syntax-ns#"
   xmlns:svg="http://www.w3.org/2000/svg"
   xmlns="http://www.w3.org/2000/svg"
   xmlns:sodipodi="http://sodipodi.sourceforge.net/DTD/sodipodi-0.dtd"
   xmlns:inkscape="http://www.inkscape.org/namespaces/inkscape"
   width="512"
   height="512"
   id="svg2"
   sodipodi:version="0.32"
   inkscape:version="0.48.3.1 r9886"
   sodipodi:docname="calendar-alt.svg"
   version="1.0"
   inkscape:output_extension="org.inkscape.output.svg.inkscape">
  <defs
     id="defs4" />
  <sodipodi:namedview
     id="base"
     pagecolor="#ffffff"
     bordercolor="#666666"
     borderopacity="1.0"
     inkscape:pageopacity="0.0"
     inkscape:pageshadow="2"
     inkscape:zoom="1.28"
     inkscape:cx="549.51467"
     inkscape:cy="178.29569"
     inkscape:document-units="px"
     inkscape:current-layer="layer1"
     inkscape:window-width="1920"
     inkscape:window-height="1025"
     inkscape:window-x="0"
     inkscape:window-y="27"
     showgrid="false"
     inkscape:window-maximized="1"
     fit-margin-top="0"
     fit-margin-left="0"
     fit-margin-right="0"
     fit-margin-bottom="0" />
  <metadata
     id="metadata7">
    <rdf:RDF>
      <cc:Work
         rdf:about="">
        <dc:format>image/svg+xml</dc:format>
        <dc:type
           rdf:resource="http://purl.org/dc/dcmitype/StillImage" />
        <dc:title />
        <dc:creator>
          <cc:Agent>
            <dc:title />
          </cc:Agent>
        </dc:creator>
        <dc:subject>
          <rdf:Bag />
        </dc:subject>
        <cc:license
           rdf:resource="http://creativecommons.org/licenses/publicdomain/" />
        <dc:description />
        <dc:contributor>
          <cc:Agent>
            <dc:title />
          </cc:Agent>
        </dc:contributor>
      </cc:Work>
      <cc:License
         rdf:about="http://creativecommons.org/licenses/publicdomain/">
        <cc:permits
           rdf:resource="http://creativecommons.org/ns#Reproduction" />
        <cc:permits
           rdf:resource="http://creativecommons.org/ns#Distribution" />
        <cc:permits
           rdf:resource="http://creativecommons.org/ns#DerivativeWorks" />
      </cc:License>
    </rdf:RDF>
  </metadata>
  <g
     inkscape:label="Layer 1"
     inkscape:groupmode="layer"
     id="layer1"
     transform="translate(-374.21785,-62.236374)">
    <path
       style="fill:#000000;fill-opacity:1"
       d="M 256 0 C 114.61511 7.5791225e-14 0 114.6151 0 256 C 0 397.3849 114.61511 512 256 512 C 397.38489 512 512 397.3849 512 256 C 512 114.6151 397.38489 -7.4829032e-14 256 0 z M 193.03125 116.21875 C 200.19925 116.21875 203.78125 119.452 203.78125 125.9375 L 203.78125 149 C 203.78125 155.4855 200.19925 158.71875 193.03125 158.71875 C 185.86325 158.71875 182.28125 155.4855 182.28125 149 L 182.28125 125.9375 C 182.28125 119.452 185.86325 116.21875 193.03125 116.21875 z M 319.5 116.21875 C 326.668 116.21875 330.25 119.452 330.25 125.9375 L 330.25 149 C 330.25 155.4855 326.668 158.71875 319.5 158.71875 C 311.9905 158.71875 308.21875 155.4855 308.21875 149 L 308.21875 125.9375 C 308.21875 119.452 311.9905 116.21875 319.5 116.21875 z M 142.34375 137.71875 L 166.90625 137.71875 C 166.90625 158.09875 169.71228 173.71034 193.03125 173.5625 C 216.35022 173.41466 219.92184 158.92188 219.125 137.71875 L 293.375 137.71875 C 293.375 158.09877 296.4169 173.6153 319.5 173.5625 C 342.5831 173.50967 346.42005 158.62227 345.59375 137.71875 L 369.65625 137.71875 C 372.72825 137.71875 374.28125 139.27175 374.28125 142.34375 L 374.28125 189.9375 C 374.28125 193.0095 372.72825 194.5625 369.65625 194.5625 L 142.34375 194.5625 C 139.27175 194.5625 137.71875 193.0095 137.71875 189.9375 L 137.71875 142.34375 C 137.71875 139.27175 139.27175 137.71875 142.34375 137.71875 z M 142.34375 210.9375 L 369.65625 210.9375 C 372.72825 210.9375 374.28125 212.4905 374.28125 215.5625 L 374.28125 378.875 C 374.28125 381.947 372.72825 383.5 369.65625 383.5 L 142.34375 383.5 C 139.27175 383.5 137.71875 381.947 137.71875 378.875 L 137.71875 215.5625 C 137.71875 212.4905 139.27175 210.9375 142.34375 210.9375 z M 222.03125 250.78125 C 212.26562 250.78793 202.35756 252.75638 195.59375 255.5 C 194.5695 256.524 194.221 257.38 194.5625 258.0625 L 196.59375 273.90625 C 196.6163 275.6119 198.49714 275.89332 200.1875 275.46875 C 206.84073 272.7598 226.47438 266.64449 228.34375 277.5 C 228.18229 285.23322 216.81111 285.94589 210.9375 286.71875 C 209.572 287.40124 208.90625 288.25725 208.90625 289.28125 L 208.90625 305.15625 C 208.90625 306.86274 209.572 307.71875 210.9375 307.71875 C 217.53524 308.2471 231.5866 308.18751 232.4375 318.96875 C 232.16448 334.09454 205.57639 327.76881 197.125 324.59375 C 195.19315 324.59375 194.43732 324.61717 194.0625 326.65625 L 192 342.53125 C 191.6585 343.55525 192.16575 344.41125 193.53125 345.09375 C 216.97483 353.83 254.2731 350.27331 257.03125 317.9375 C 256.9239 307.77387 249.87665 298.97415 239.09375 294.90625 C 249.33375 289.78625 254.46875 282.2735 254.46875 272.375 C 254.18903 256.18538 238.3073 250.77012 222.03125 250.78125 z M 303.625 251.90625 L 274.9375 265.71875 C 273.9135 266.40125 273.40625 267.25725 273.40625 268.28125 L 275.96875 284.15625 C 276.42246 285.65988 277.25761 286.99908 279.03125 286.21875 L 291.84375 281.59375 L 291.84375 345.59375 C 291.84375 346.95925 292.5095 347.65625 293.875 347.65625 L 313.34375 347.65625 C 315.05025 347.65625 315.90625 346.95925 315.90625 345.59375 L 315.90625 254.46875 C 315.90625 252.76225 315.05025 251.90625 313.34375 251.90625 L 303.625 251.90625 z "
       transform="translate(374.21785,62.236374)"
       id="path3114" />
  </g>
</svg>
