<?xml version="1.0" encoding="UTF-8" standalone="no"?>
<!-- Created with Inkscape (http://www.inkscape.org/) -->

<svg
   xmlns:dc="http://purl.org/dc/elements/1.1/"
   xmlns:cc="http://creativecommons.org/ns#"
   xmlns:rdf="http://www.w3.org/1999/02/22-rdf-syntax-ns#"
   xmlns:svg="http://www.w3.org/2000/svg"
   xmlns="http://www.w3.org/2000/svg"
   xmlns:sodipodi="http://sodipodi.sourceforge.net/DTD/sodipodi-0.dtd"
   xmlns:inkscape="http://www.inkscape.org/namespaces/inkscape"
   width="987.97894"
   height="997.0191"
   id="svg2"
   sodipodi:version="0.32"
   inkscape:version="0.48.3.1 r9886"
   sodipodi:docname="camera.svg"
   version="1.0"
   inkscape:output_extension="org.inkscape.output.svg.inkscape">
  <defs
     id="defs4" />
  <sodipodi:namedview
     id="base"
     pagecolor="#ffffff"
     bordercolor="#666666"
     borderopacity="1.0"
     inkscape:pageopacity="0.0"
     inkscape:pageshadow="2"
     inkscape:zoom="0.45254834"
     inkscape:cx="422.52012"
     inkscape:cy="435.74142"
     inkscape:document-units="px"
     inkscape:current-layer="layer1"
     inkscape:window-width="1487"
     inkscape:window-height="1021"
     inkscape:window-x="0"
     inkscape:window-y="28"
     showgrid="false"
     inkscape:window-maximized="0"
     fit-margin-top="0"
     fit-margin-left="0"
     fit-margin-right="0"
     fit-margin-bottom="0" />
  <metadata
     id="metadata7">
    <rdf:RDF>
      <cc:Work
         rdf:about="">
        <dc:format>image/svg+xml</dc:format>
        <dc:type
           rdf:resource="http://purl.org/dc/dcmitype/StillImage" />
        <dc:title></dc:title>
        <dc:creator>
          <cc:Agent>
            <dc:title />
          </cc:Agent>
        </dc:creator>
        <dc:subject>
          <rdf:Bag />
        </dc:subject>
        <cc:license
           rdf:resource="http://creativecommons.org/licenses/publicdomain/" />
        <dc:description />
        <dc:contributor>
          <cc:Agent>
            <dc:title />
          </cc:Agent>
        </dc:contributor>
      </cc:Work>
      <cc:License
         rdf:about="http://creativecommons.org/licenses/publicdomain/">
        <cc:permits
           rdf:resource="http://creativecommons.org/ns#Reproduction" />
        <cc:permits
           rdf:resource="http://creativecommons.org/ns#Distribution" />
        <cc:permits
           rdf:resource="http://creativecommons.org/ns#DerivativeWorks" />
      </cc:License>
    </rdf:RDF>
  </metadata>
  <g
     inkscape:label="Layer 1"
     inkscape:groupmode="layer"
     id="layer1"
     transform="translate(-374.21785,422.78273)">
    <path
       inkscape:connector-curvature="0"
       d="m 671.59186,106.57057 c 2.28175,106.55834 90.05708,198.89704 196.61538,196.61532 106.5583,-2.28173 198.89716,-90.05698 196.61536,-196.61532 C 1062.5409,0.012242 974.76554,-92.326458 868.20724,-90.044738 761.64894,-87.763008 669.31012,0.012242 671.59186,106.57057 z m 628.42794,-277.59373 -215.9063,0 c -15.4219,-61.6875 -34.6993,-123.37499 -96.38676,-123.37499 l -239.039,0 c -61.6875,0 -80.96484,61.68749 -96.38671,123.37499 l -215.90623,0 c -33.92813,0 -61.6875,27.75938 -61.6875,61.6875 l 0,493.49995 c 0,33.92813 27.75937,61.6875 61.6875,61.6875 l 863.625,0 c 33.9281,0 61.6875,-27.75937 61.6875,-61.6875 l 0,-493.49995 c 0,-33.92812 -27.7594,-61.6875 -61.6875,-61.6875 z M 868.20724,384.16429 c -153.31075,0 -277.59371,-124.28295 -277.59371,-277.59372 0,-153.310768 124.28296,-277.59373 277.59371,-277.59373 153.31076,0 277.59366,124.282962 277.59366,277.59373 0,153.31077 -124.281,277.59372 -277.59366,277.59372 z m 431.81256,-435.667918 -107.9532,0 0,-57.832032 107.9532,0 z"
       id="path4"
       sodipodi:nodetypes="zzzzzscsscsssssssssssssccccc" />
  </g>
</svg>
