<?xml version="1.0" encoding="UTF-8" standalone="no"?>
<!-- Created with Inkscape (http://www.inkscape.org/) -->

<svg
   xmlns:dc="http://purl.org/dc/elements/1.1/"
   xmlns:cc="http://creativecommons.org/ns#"
   xmlns:rdf="http://www.w3.org/1999/02/22-rdf-syntax-ns#"
   xmlns:svg="http://www.w3.org/2000/svg"
   xmlns="http://www.w3.org/2000/svg"
   xmlns:sodipodi="http://sodipodi.sourceforge.net/DTD/sodipodi-0.dtd"
   xmlns:inkscape="http://www.inkscape.org/namespaces/inkscape"
   width="987.97894"
   height="997.0191"
   id="svg2"
   sodipodi:version="0.32"
   inkscape:version="0.48.3.1 r9886"
   sodipodi:docname="mic-alt.svg"
   version="1.0"
   inkscape:output_extension="org.inkscape.output.svg.inkscape">
  <defs
     id="defs4" />
  <sodipodi:namedview
     id="base"
     pagecolor="#ffffff"
     bordercolor="#666666"
     borderopacity="1.0"
     inkscape:pageopacity="0.0"
     inkscape:pageshadow="2"
     inkscape:zoom="0.45254834"
     inkscape:cx="211.22733"
     inkscape:cy="242.38832"
     inkscape:document-units="px"
     inkscape:current-layer="layer1"
     inkscape:window-width="1487"
     inkscape:window-height="1021"
     inkscape:window-x="0"
     inkscape:window-y="28"
     showgrid="false"
     inkscape:window-maximized="0"
     fit-margin-top="0"
     fit-margin-left="0"
     fit-margin-right="0"
     fit-margin-bottom="0" />
  <metadata
     id="metadata7">
    <rdf:RDF>
      <cc:Work
         rdf:about="">
        <dc:format>image/svg+xml</dc:format>
        <dc:type
           rdf:resource="http://purl.org/dc/dcmitype/StillImage" />
        <dc:title></dc:title>
        <dc:creator>
          <cc:Agent>
            <dc:title />
          </cc:Agent>
        </dc:creator>
        <dc:subject>
          <rdf:Bag />
        </dc:subject>
        <cc:license
           rdf:resource="http://creativecommons.org/licenses/publicdomain/" />
        <dc:description />
        <dc:contributor>
          <cc:Agent>
            <dc:title />
          </cc:Agent>
        </dc:contributor>
      </cc:Work>
      <cc:License
         rdf:about="http://creativecommons.org/licenses/publicdomain/">
        <cc:permits
           rdf:resource="http://creativecommons.org/ns#Reproduction" />
        <cc:permits
           rdf:resource="http://creativecommons.org/ns#Distribution" />
        <cc:permits
           rdf:resource="http://creativecommons.org/ns#DerivativeWorks" />
      </cc:License>
    </rdf:RDF>
  </metadata>
  <g
     inkscape:label="Layer 1"
     inkscape:groupmode="layer"
     id="layer1"
     transform="translate(-374.21785,422.78273)">
    <g
       id="g5451"
       transform="matrix(1.0888609,0,0,-1.0888609,352.76882,405.03519)">
      <path
         id="path5453"
         d="m 917,487 c 8,-10 11,-22 9,-36 L 888,233 c -1.33301,-11.334 -6.5,-20.667 -15.5,-28 -9,-7.333 -19.167,-11 -30.5,-11 H 288 l -11,-62 h 528 c 12.667,0 23.667,-4.5 33,-13.5 9.333,-9 14,-20.1667 14,-33.5 C 852,71.6667 847.33301,60.5 838,51.5 828.66699,42.5 817.667,38 805,38 H 221 c -14,0 -26,5.6667 -36,17 -9.33299,11.3333 -13,24.3333 -11,39 l 25,136 -38,382 -108,34 c -12.6667,4 -21.8333,11.667 -27.5,23 -5.6667,11.333 -6.8334,23.333 -3.5,36 4,12.672 11.8333,21.839 23.5,27.5 11.6667,5.68903 23.5,6.85602 35.5,3.5 l 138,-44 c 8.66701,-2.66699 15.834,-7.66699 21.5,-15 5.66701,-7.33801 9.16701,-15.672 10.5,-25 l 8,-76 626,-70 c 14,-2 24.667,-8.33301 32,-19 z M 292,12 c 20,0 37,-7 51,-21 14,-14 21,-31 21,-51 0,-20 -7,-37.1667 -21,-51.5 -14,-14.333 -31,-21.5 -51,-21.5 -20,0 -37,7.167 -51,21.5 -14,14.3333 -21,31.5 -21,51.5 0,20 7,37 21,51 14,14 31,21 51,21 z m 427,0 c 20,0 37,-7 51,-21 14,-14 21,-31 21,-51 0,-20 -7,-37.1667 -21,-51.5 -14,-14.333 -31,-21.5 -51,-21.5 -20,0 -37,7.167 -51,21.5 -14,14.3333 -21,31.5 -21,51.5 0,20 7,37 21,51 14,14 31,21 51,21 z"
         inkscape:connector-curvature="0"
         style="fill:currentColor" />
    </g>
  </g>
</svg>
