<?xml version="1.0" encoding="UTF-8" standalone="no"?>
<!-- Created with Inkscape (http://www.inkscape.org/) -->

<svg
   xmlns:dc="http://purl.org/dc/elements/1.1/"
   xmlns:cc="http://creativecommons.org/ns#"
   xmlns:rdf="http://www.w3.org/1999/02/22-rdf-syntax-ns#"
   xmlns:svg="http://www.w3.org/2000/svg"
   xmlns="http://www.w3.org/2000/svg"
   xmlns:sodipodi="http://sodipodi.sourceforge.net/DTD/sodipodi-0.dtd"
   xmlns:inkscape="http://www.inkscape.org/namespaces/inkscape"
   width="987.97894"
   height="997.0191"
   id="svg2"
   sodipodi:version="0.32"
   inkscape:version="0.48.3.1 r9886"
   sodipodi:docname="cart.svg"
   version="1.0"
   inkscape:output_extension="org.inkscape.output.svg.inkscape">
  <defs
     id="defs4" />
  <sodipodi:namedview
     id="base"
     pagecolor="#ffffff"
     bordercolor="#666666"
     borderopacity="1.0"
     inkscape:pageopacity="0.0"
     inkscape:pageshadow="2"
     inkscape:zoom="0.45254834"
     inkscape:cx="211.22733"
     inkscape:cy="242.38832"
     inkscape:document-units="px"
     inkscape:current-layer="layer1"
     inkscape:window-width="1487"
     inkscape:window-height="1021"
     inkscape:window-x="0"
     inkscape:window-y="28"
     showgrid="false"
     inkscape:window-maximized="0"
     fit-margin-top="0"
     fit-margin-left="0"
     fit-margin-right="0"
     fit-margin-bottom="0" />
  <metadata
     id="metadata7">
    <rdf:RDF>
      <cc:Work
         rdf:about="">
        <dc:format>image/svg+xml</dc:format>
        <dc:type
           rdf:resource="http://purl.org/dc/dcmitype/StillImage" />
        <dc:title></dc:title>
        <dc:creator>
          <cc:Agent>
            <dc:title />
          </cc:Agent>
        </dc:creator>
        <dc:subject>
          <rdf:Bag />
        </dc:subject>
        <cc:license
           rdf:resource="http://creativecommons.org/licenses/publicdomain/" />
        <dc:description />
        <dc:contributor>
          <cc:Agent>
            <dc:title />
          </cc:Agent>
        </dc:contributor>
      </cc:Work>
      <cc:License
         rdf:about="http://creativecommons.org/licenses/publicdomain/">
        <cc:permits
           rdf:resource="http://creativecommons.org/ns#Reproduction" />
        <cc:permits
           rdf:resource="http://creativecommons.org/ns#Distribution" />
        <cc:permits
           rdf:resource="http://creativecommons.org/ns#DerivativeWorks" />
      </cc:License>
    </rdf:RDF>
  </metadata>
  <g
     inkscape:label="Layer 1"
     inkscape:groupmode="layer"
     id="layer1"
     transform="translate(-374.21785,422.78273)">
    <g
       id="g5484"
       transform="matrix(0.987,0,0,-0.987,374.70732,371.82682)">
      <path
         id="path5486"
         d="m 792,396 c 1.33301,8 -0.66699,15.667 -6,23 -5.33301,6.66699 -12.333,10.667 -21,12 l -403,45 -5,49 c -0.66699,6 -3,11.5 -7,16.5 -4,5 -8.66699,8.16699 -14,9.5 l -89,28 c -8,2.66699 -15.667,2 -23,-2 -7.333,-4 -12.333,-10 -15,-18 -2.667,-8 -2,-15.667 2,-23 4,-7.333 10,-12.333 18,-15 l 69,-22 25,-246 -16,-88 c -0.66699,-4 -0.5,-8.16701 0.5,-12.5 1,-4.334 3.16699,-8.16701 6.5,-11.5 6,-7.33299 13.667,-11 23,-11 h 376 c 8.66699,0 16,2.83299 22,8.5 6,5.66701 9,12.834 9,21.5 0,8.66701 -3,15.834 -9,21.5 -6,5.66701 -13.333,8.5 -22,8.5 H 373 l 7,40 h 358 c 7.33301,0 13.667,2.33299 19,7 5.333,4.66701 8.66699,10.667 10,18 z M 658,19 c 13.333,0 24.5,4.5 33.5,13.5 9,9 13.5,20.1667 13.5,33.5 0,13.3333 -4.5,24.5 -13.5,33.5 -9,9 -20.167,13.5 -33.5,13.5 -13.333,0 -24.333,-4.5 -33,-13.5 -8.667,-9 -13,-20.1667 -13,-33.5 0,-13.3333 4.33301,-24.5 13,-33.5 8.66699,-9 19.667,-13.5 33,-13.5 z m -275,0 c 13.333,0 24.5,4.5 33.5,13.5 9,9 13.5,20.1667 13.5,33.5 0,13.3333 -4.5,24.5 -13.5,33.5 -9,9 -20.167,13.5 -33.5,13.5 -13.333,0 -24.5,-4.5 -33.5,-13.5 -9,-9 -13.5,-20.1667 -13.5,-33.5 0,-13.3333 4.5,-24.5 13.5,-33.5 9,-9 20.167,-13.5 33.5,-13.5 z m 117,781 c 68.667,0 133.5,-13.167 194.5,-39.5 61,-26.333 114,-62 159,-107 45,-45 80.667,-98 107,-159 26.333,-61 39.5,-125.833 39.5,-194.5 0,-46 -6,-90.333 -18,-133 -12,-42.667 -28.833,-82.5 -50.5,-119.5 -21.667,-37 -47.667,-70.6667 -78,-101 -30.333,-30.3333 -64,-56.333 -101,-78 -37,-21.667 -76.833,-38.5 -119.5,-50.5 -42.667,-12 -87,-18 -133,-18 -46,0 -90.333,6 -133,18 -42.667,12 -82.5,28.833 -119.5,50.5 -37,21.667 -70.667,47.6667 -101,78 -30.333,30.3333 -56.3333,64 -78,101 C 46.8333,84.5 30,124.333 18,167 6,209.667 0,254 0,300 c 0,46 6,90.333 18,133 12,42.667 28.8333,82.5 50.5,119.5 21.6667,37 47.667,70.667 78,101 30.333,30.333 64,56.333 101,78 37,21.667 76.833,38.5 119.5,50.5 42.667,12 87,18 133,18 z"
         inkscape:connector-curvature="0"
         style="fill:currentColor" />
    </g>
  </g>
</svg>
