<?xml version="1.0" encoding="UTF-8" standalone="no"?>
<!-- Created with Inkscape (http://www.inkscape.org/) -->

<svg
   xmlns:dc="http://purl.org/dc/elements/1.1/"
   xmlns:cc="http://creativecommons.org/ns#"
   xmlns:rdf="http://www.w3.org/1999/02/22-rdf-syntax-ns#"
   xmlns:svg="http://www.w3.org/2000/svg"
   xmlns="http://www.w3.org/2000/svg"
   xmlns:sodipodi="http://sodipodi.sourceforge.net/DTD/sodipodi-0.dtd"
   xmlns:inkscape="http://www.inkscape.org/namespaces/inkscape"
   width="512"
   height="512"
   id="svg2"
   sodipodi:version="0.32"
   inkscape:version="0.48.3.1 r9886"
   sodipodi:docname="cart.svg"
   version="1.0"
   inkscape:output_extension="org.inkscape.output.svg.inkscape">
  <defs
     id="defs4" />
  <sodipodi:namedview
     id="base"
     pagecolor="#ffffff"
     bordercolor="#666666"
     borderopacity="1.0"
     inkscape:pageopacity="0.0"
     inkscape:pageshadow="2"
     inkscape:zoom="0.16"
     inkscape:cx="1506.5646"
     inkscape:cy="-758.00774"
     inkscape:document-units="px"
     inkscape:current-layer="layer1"
     inkscape:window-width="1487"
     inkscape:window-height="1021"
     inkscape:window-x="0"
     inkscape:window-y="28"
     showgrid="false"
     inkscape:window-maximized="0"
     fit-margin-top="0"
     fit-margin-left="0"
     fit-margin-right="0"
     fit-margin-bottom="0" />
  <metadata
     id="metadata7">
    <rdf:RDF>
      <cc:Work
         rdf:about="">
        <dc:format>image/svg+xml</dc:format>
        <dc:type
           rdf:resource="http://purl.org/dc/dcmitype/StillImage" />
        <dc:title />
        <dc:creator>
          <cc:Agent>
            <dc:title />
          </cc:Agent>
        </dc:creator>
        <dc:subject>
          <rdf:Bag />
        </dc:subject>
        <cc:license
           rdf:resource="http://creativecommons.org/licenses/publicdomain/" />
        <dc:description />
        <dc:contributor>
          <cc:Agent>
            <dc:title />
          </cc:Agent>
        </dc:contributor>
      </cc:Work>
      <cc:License
         rdf:about="http://creativecommons.org/licenses/publicdomain/">
        <cc:permits
           rdf:resource="http://creativecommons.org/ns#Reproduction" />
        <cc:permits
           rdf:resource="http://creativecommons.org/ns#Distribution" />
        <cc:permits
           rdf:resource="http://creativecommons.org/ns#DerivativeWorks" />
      </cc:License>
    </rdf:RDF>
  </metadata>
  <g
     inkscape:label="Layer 1"
     inkscape:groupmode="layer"
     id="layer1"
     transform="translate(-374.21785,-62.236374)">
    <path
       id="path3089"
       style="fill:currentColor"
       d="m 885.96105,234.41235 -21.47117,123.17676 c -2.64783,13.60693 -13.48931,21.8812 -25.99142,22.03621 l -313.02719,0 -6.21534,35.03192 298.33636,0 c 15.70945,1.19357 26.36515,12.3223 26.55647,26.55646 -1.14209,15.6767 -12.26948,26.36175 -26.55647,26.55646 l -329.97809,0 c -17.84623,-1.60524 -28.48774,-15.83042 -26.55646,-31.64174 L 475.18351,359.2842 453.71233,143.44235 392.68899,124.2313 c -14.91205,-5.92104 -20.9987,-19.41141 -17.51597,-33.336831 5.79125,-14.513293 19.66767,-21.144076 33.33683,-17.515963 l 77.97428,24.861365 c 10.5043,3.937939 16.54724,12.536449 18.081,22.601239 l 4.52024,42.94236 353.70941,39.55217 c 16.25157,3.52009 25.07419,16.39308 23.16627,31.07671 z m -317.49363,289.1172 c 0,22.38995 -18.15063,40.54058 -40.54057,40.54058 -22.38995,0 -40.54058,-18.15063 -40.54058,-40.54058 0,-22.38993 18.15063,-40.54057 40.54058,-40.54057 22.38994,0 40.54057,18.15064 40.54057,40.54057 z m 242.02724,0 c 0,22.38995 -18.15066,40.54058 -40.54057,40.54058 -22.38992,0 -40.54058,-18.15063 -40.54058,-40.54058 0,-22.38993 18.15066,-40.54057 40.54058,-40.54057 22.38991,0 40.54057,18.15064 40.54057,40.54057 z"
       inkscape:connector-curvature="0" />
  </g>
</svg>
