<?xml version="1.0" encoding="UTF-8" standalone="no"?>
<!-- Created with Inkscape (http://www.inkscape.org/) -->

<svg
   xmlns:dc="http://purl.org/dc/elements/1.1/"
   xmlns:cc="http://creativecommons.org/ns#"
   xmlns:rdf="http://www.w3.org/1999/02/22-rdf-syntax-ns#"
   xmlns:svg="http://www.w3.org/2000/svg"
   xmlns="http://www.w3.org/2000/svg"
   xmlns:sodipodi="http://sodipodi.sourceforge.net/DTD/sodipodi-0.dtd"
   xmlns:inkscape="http://www.inkscape.org/namespaces/inkscape"
   width="512"
   height="512"
   id="svg2"
   sodipodi:version="0.32"
   inkscape:version="0.48.3.1 r9886"
   sodipodi:docname="cc.svg"
   version="1.0"
   inkscape:output_extension="org.inkscape.output.svg.inkscape">
  <defs
     id="defs4" />
  <sodipodi:namedview
     id="base"
     pagecolor="#ffffff"
     bordercolor="#666666"
     borderopacity="1.0"
     inkscape:pageopacity="0.0"
     inkscape:pageshadow="2"
     inkscape:zoom="0.22627417"
     inkscape:cx="-1158.9022"
     inkscape:cy="-452.37946"
     inkscape:document-units="px"
     inkscape:current-layer="layer1"
     inkscape:window-width="1487"
     inkscape:window-height="1021"
     inkscape:window-x="0"
     inkscape:window-y="28"
     showgrid="false"
     inkscape:window-maximized="0"
     fit-margin-top="0"
     fit-margin-left="0"
     fit-margin-right="0"
     fit-margin-bottom="0" />
  <metadata
     id="metadata7">
    <rdf:RDF>
      <cc:Work
         rdf:about="">
        <dc:format>image/svg+xml</dc:format>
        <dc:type
           rdf:resource="http://purl.org/dc/dcmitype/StillImage" />
        <dc:title />
        <dc:creator>
          <cc:Agent>
            <dc:title />
          </cc:Agent>
        </dc:creator>
        <dc:subject>
          <rdf:Bag />
        </dc:subject>
        <cc:license
           rdf:resource="http://creativecommons.org/licenses/publicdomain/" />
        <dc:description />
        <dc:contributor>
          <cc:Agent>
            <dc:title />
          </cc:Agent>
        </dc:contributor>
      </cc:Work>
      <cc:License
         rdf:about="http://creativecommons.org/licenses/publicdomain/">
        <cc:permits
           rdf:resource="http://creativecommons.org/ns#Reproduction" />
        <cc:permits
           rdf:resource="http://creativecommons.org/ns#Distribution" />
        <cc:permits
           rdf:resource="http://creativecommons.org/ns#DerivativeWorks" />
      </cc:License>
    </rdf:RDF>
  </metadata>
  <g
     inkscape:label="Layer 1"
     inkscape:groupmode="layer"
     id="layer1"
     transform="translate(-374.21785,-62.236374)">
    <g
       id="g7748"
       transform="matrix(0.58581236,0,0,-0.58581236,337.31167,488.26849)">
      <path
         id="path7750"
         d="m 850,184 c 5.88361,13.2944 -1.33792,22.4756 -11,29 l -48,20 c -11.4805,5.60602 -25.01256,-1.85611 -29,-12 -8.82186,-19.92846 -22.03995,-35.71728 -43,-36 -50.93811,6.70151 -60.73696,67.1744 -61,105 0.61051,41.15864 15.03491,105.05109 61,106 21.75155,-1.5057 35.5443,-14.81309 44,-33 6.24577,-10.75961 17.49276,-16.06648 28,-11 l 48,21 c 10.78085,5.7499 14.73834,18.61139 11,29 -28,58.667 -71.667,88 -131,88 C 607.36974,488.21233 555.48569,385.11408 555,290 539.0598,105.97072 771.92739,17.969862 850,184 z m -407,0 c 3.9673,12.25833 -1.60883,23.01456 -11,29 l -48,20 c -16.07763,7.69188 -32.21602,-19.7534 -42,-34 -6.66699,-9.333 -16.667,-14 -30,-14 -51.0667,6.67382 -61.72724,66.89339 -62,105 0,32 5.83299,57.667 17.5,77 11.667,19.333 26.5,29 44.5,29 21.88144,-1.5218 34.57799,-14.85162 43,-33 6.39607,-10.82471 18.42252,-16.0943 29,-11 l 47,21 c 11.3814,5.33146 16.63045,18.72345 11,29 -28,58.667 -71.333,88 -130,88 C 198.48002,472.52692 148.48916,385.79438 148,290 147.27846,188.42263 208.0378,91.780321 312,91 c 59.333,0 103,31 131,93 z m 471,383 c 7.33301,-1.33301 13,-4.5 17,-9.5 4,-5 6,-11.167 6,-18.5 l 0,-241 0,-15 0,-241 c 0,-7.3333 -2,-13.5 -6,-18.5 -4,-5 -9.66699,-8.1667 -17,-9.5 L 506,-68 c -4,-1.3333 -8,-1.3333 -12,0 L 86,14 c -7.3333,1.3333 -13,4.5 -17,9.5 -4,5 -6,11.1667 -6,18.5 l 0,241 0,15 0,241 c 0,7.33301 2,13.5 6,18.5 4,5 9.6667,8.16699 17,9.5 l 408,82 c 4,0.66699 8,0.66699 12,0 z"
         inkscape:connector-curvature="0"
         style="fill:currentColor"
         sodipodi:nodetypes="ccccccccccccccccccccsccccccccccssccssccccssccsscccc" />
    </g>
  </g>
</svg>
