<?xml version="1.0" encoding="UTF-8" standalone="no"?>
<!-- Created with Inkscape (http://www.inkscape.org/) -->

<svg
   xmlns:dc="http://purl.org/dc/elements/1.1/"
   xmlns:cc="http://creativecommons.org/ns#"
   xmlns:rdf="http://www.w3.org/1999/02/22-rdf-syntax-ns#"
   xmlns:svg="http://www.w3.org/2000/svg"
   xmlns="http://www.w3.org/2000/svg"
   xmlns:sodipodi="http://sodipodi.sourceforge.net/DTD/sodipodi-0.dtd"
   xmlns:inkscape="http://www.inkscape.org/namespaces/inkscape"
   width="987.97894"
   height="997.0191"
   id="svg2"
   sodipodi:version="0.32"
   inkscape:version="0.48.3.1 r9886"
   sodipodi:docname="delicious.svg"
   version="1.0"
   inkscape:output_extension="org.inkscape.output.svg.inkscape">
  <defs
     id="defs4" />
  <sodipodi:namedview
     id="base"
     pagecolor="#ffffff"
     bordercolor="#666666"
     borderopacity="1.0"
     inkscape:pageopacity="0.0"
     inkscape:pageshadow="2"
     inkscape:zoom="0.45254834"
     inkscape:cx="299.61567"
     inkscape:cy="242.38832"
     inkscape:document-units="px"
     inkscape:current-layer="layer1"
     inkscape:window-width="1487"
     inkscape:window-height="1021"
     inkscape:window-x="0"
     inkscape:window-y="28"
     showgrid="false"
     inkscape:window-maximized="0"
     fit-margin-top="0"
     fit-margin-left="0"
     fit-margin-right="0"
     fit-margin-bottom="0" />
  <metadata
     id="metadata7">
    <rdf:RDF>
      <cc:Work
         rdf:about="">
        <dc:format>image/svg+xml</dc:format>
        <dc:type
           rdf:resource="http://purl.org/dc/dcmitype/StillImage" />
        <dc:title></dc:title>
        <dc:creator>
          <cc:Agent>
            <dc:title />
          </cc:Agent>
        </dc:creator>
        <dc:subject>
          <rdf:Bag />
        </dc:subject>
        <cc:license
           rdf:resource="http://creativecommons.org/licenses/publicdomain/" />
        <dc:description />
        <dc:contributor>
          <cc:Agent>
            <dc:title />
          </cc:Agent>
        </dc:contributor>
      </cc:Work>
      <cc:License
         rdf:about="http://creativecommons.org/licenses/publicdomain/">
        <cc:permits
           rdf:resource="http://creativecommons.org/ns#Reproduction" />
        <cc:permits
           rdf:resource="http://creativecommons.org/ns#Distribution" />
        <cc:permits
           rdf:resource="http://creativecommons.org/ns#DerivativeWorks" />
      </cc:License>
    </rdf:RDF>
  </metadata>
  <g
     inkscape:label="Layer 1"
     inkscape:groupmode="layer"
     id="layer1"
     transform="translate(-374.21785,422.78273)">
    <g
       id="g7127"
       transform="matrix(1.089404,0,0,-1.089404,323.50532,402.54802)">
      <path
         id="path7129"
         d="m 872,-118 c 5.33301,-10 3.66699,-19.333 -5,-28 -4,-4 -9.33301,-6 -16,-6 -4,0 -8,1 -12,3 L 634,-29 c -44,-12 -88.667,-18 -134,-18 -62.667,0 -121.5,10.5 -176.5,31.5 -55,21 -103,49.5 -144,85.5 -41,36 -73.333,78.333 -97,127 C 58.8333,245.667 47,297.667 47,353 c 0,54.667 11.8333,106.333 35.5,155 23.667,48.667 56,91 97,127 41,36 89,64.5 144,85.5 55,21 113.833,31.5 176.5,31.5 62.667,0 121.5,-10.5 176.5,-31.5 55,-21 103,-49.5 144,-85.5 41,-36 73.333,-78.333 97,-127 C 941.167,459.333 953,407.666 953,353 953,292.333 938.333,234.833 909,180.5 879.665,126.167 838.332,80 785,42 z"
         inkscape:connector-curvature="0"
         style="fill:currentColor" />
    </g>
  </g>
</svg>
