<?xml version="1.0" encoding="UTF-8" standalone="no"?>
<!-- Created with Inkscape (http://www.inkscape.org/) -->

<svg
   xmlns:dc="http://purl.org/dc/elements/1.1/"
   xmlns:cc="http://creativecommons.org/ns#"
   xmlns:rdf="http://www.w3.org/1999/02/22-rdf-syntax-ns#"
   xmlns:svg="http://www.w3.org/2000/svg"
   xmlns="http://www.w3.org/2000/svg"
   xmlns:sodipodi="http://sodipodi.sourceforge.net/DTD/sodipodi-0.dtd"
   xmlns:inkscape="http://www.inkscape.org/namespaces/inkscape"
   width="987.97894"
   height="997.0191"
   id="svg2"
   sodipodi:version="0.32"
   inkscape:version="0.48.3.1 r9886"
   sodipodi:docname="export.svg"
   version="1.0"
   inkscape:output_extension="org.inkscape.output.svg.inkscape">
  <defs
     id="defs4" />
  <sodipodi:namedview
     id="base"
     pagecolor="#ffffff"
     bordercolor="#666666"
     borderopacity="1.0"
     inkscape:pageopacity="0.0"
     inkscape:pageshadow="2"
     inkscape:zoom="0.32"
     inkscape:cx="-156.33829"
     inkscape:cy="311.91384"
     inkscape:document-units="px"
     inkscape:current-layer="text10546"
     inkscape:window-width="1487"
     inkscape:window-height="1021"
     inkscape:window-x="0"
     inkscape:window-y="28"
     showgrid="false"
     inkscape:window-maximized="0"
     fit-margin-top="0"
     fit-margin-left="0"
     fit-margin-right="0"
     fit-margin-bottom="0" />
  <metadata
     id="metadata7">
    <rdf:RDF>
      <cc:Work
         rdf:about="">
        <dc:format>image/svg+xml</dc:format>
        <dc:type
           rdf:resource="http://purl.org/dc/dcmitype/StillImage" />
        <dc:title></dc:title>
        <dc:creator>
          <cc:Agent>
            <dc:title />
          </cc:Agent>
        </dc:creator>
        <dc:subject>
          <rdf:Bag />
        </dc:subject>
        <cc:license
           rdf:resource="http://creativecommons.org/licenses/publicdomain/" />
        <dc:description />
        <dc:contributor>
          <cc:Agent>
            <dc:title />
          </cc:Agent>
        </dc:contributor>
      </cc:Work>
      <cc:License
         rdf:about="http://creativecommons.org/licenses/publicdomain/">
        <cc:permits
           rdf:resource="http://creativecommons.org/ns#Reproduction" />
        <cc:permits
           rdf:resource="http://creativecommons.org/ns#Distribution" />
        <cc:permits
           rdf:resource="http://creativecommons.org/ns#DerivativeWorks" />
      </cc:License>
    </rdf:RDF>
  </metadata>
  <g
     inkscape:label="Layer 1"
     inkscape:groupmode="layer"
     id="layer1"
     transform="translate(-374.21785,422.78273)">
    <g
       style="font-size:1353.90222168px;font-style:italic;font-variant:normal;font-weight:normal;font-stretch:normal;line-height:125%;letter-spacing:0px;word-spacing:0px;fill:#000000;fill-opacity:1;stroke:none;font-family:Serif;-inkscape-font-specification:Serif Italic"
       id="text10546">
      <path
         inkscape:connector-curvature="0"
         d="m 1238.3322,384.16588 c 0,34.1131 -27.5742,61.68735 -61.6874,61.68735 l -616.87496,0 c -34.05149,0 -61.68749,-27.57425 -61.68749,-61.68735 l 0,-616.87354 c 0,-34.11312 27.636,-61.68736 61.68749,-61.68736 l 397.6875,0 133.60436,-123.37471 -592.97935,0 c -68.10301,0 -123.37505,55.27187 -123.37505,123.37471 l 0,740.24825 c 0,68.10285 55.27204,123.37471 123.37505,123.37471 l 740.24985,0 c 68.1031,0 123.3751,-55.27186 123.3751,-123.37471 l 0,-508.92068 -123.3751,102.531041 z"
         id="path4"
         sodipodi:nodetypes="ssssssccssssssccs" />
      <g
         id="g3362"
         transform="matrix(0.79523199,0,0,-0.79523199,559.41436,167.41615)">
        <path
           id="path3364"
           d="m 978,569 c 4.66699,-4.66699 7,-10.167 7,-16.5 0,-6.333 -2.33301,-11.833 -7,-16.5 L 348,-94 c -4,-4.6667 -9.33301,-7 -16,-7 h -1 -1 c -6,0 -11.333,2.3333 -16,7 L 22,197 c -4.6667,6 -7,11.667 -7,17 0,5.333 2.3333,11 7,17 l 125,125 c 11.333,10 22.667,10 34,0 L 331,205 819,694 c 6,4.66699 11.667,7 17,7 5.333,0 11,-2.33301 17,-7 L 978,569 v 0 z"
           inkscape:connector-curvature="0"
           style="fill:currentColor" />
      </g>
    </g>
  </g>
</svg>
