<?xml version="1.0" encoding="UTF-8" standalone="no"?>
<!-- Created with Inkscape (http://www.inkscape.org/) -->

<svg
   xmlns:dc="http://purl.org/dc/elements/1.1/"
   xmlns:cc="http://creativecommons.org/ns#"
   xmlns:rdf="http://www.w3.org/1999/02/22-rdf-syntax-ns#"
   xmlns:svg="http://www.w3.org/2000/svg"
   xmlns="http://www.w3.org/2000/svg"
   xmlns:sodipodi="http://sodipodi.sourceforge.net/DTD/sodipodi-0.dtd"
   xmlns:inkscape="http://www.inkscape.org/namespaces/inkscape"
   width="987.97894"
   height="997.0191"
   id="svg2"
   sodipodi:version="0.32"
   inkscape:version="0.48.3.1 r9886"
   sodipodi:docname="adult.svg"
   version="1.0"
   inkscape:output_extension="org.inkscape.output.svg.inkscape">
  <defs
     id="defs4" />
  <sodipodi:namedview
     id="base"
     pagecolor="#ffffff"
     bordercolor="#666666"
     borderopacity="1.0"
     inkscape:pageopacity="0.0"
     inkscape:pageshadow="2"
     inkscape:zoom="0.45254834"
     inkscape:cx="476.39237"
     inkscape:cy="242.38832"
     inkscape:document-units="px"
     inkscape:current-layer="layer1"
     inkscape:window-width="1487"
     inkscape:window-height="1021"
     inkscape:window-x="0"
     inkscape:window-y="28"
     showgrid="false"
     inkscape:window-maximized="0"
     fit-margin-top="0"
     fit-margin-left="0"
     fit-margin-right="0"
     fit-margin-bottom="0" />
  <metadata
     id="metadata7">
    <rdf:RDF>
      <cc:Work
         rdf:about="">
        <dc:format>image/svg+xml</dc:format>
        <dc:type
           rdf:resource="http://purl.org/dc/dcmitype/StillImage" />
        <dc:title></dc:title>
        <dc:creator>
          <cc:Agent>
            <dc:title />
          </cc:Agent>
        </dc:creator>
        <dc:subject>
          <rdf:Bag />
        </dc:subject>
        <cc:license
           rdf:resource="http://creativecommons.org/licenses/publicdomain/" />
        <dc:description />
        <dc:contributor>
          <cc:Agent>
            <dc:title />
          </cc:Agent>
        </dc:contributor>
      </cc:Work>
      <cc:License
         rdf:about="http://creativecommons.org/licenses/publicdomain/">
        <cc:permits
           rdf:resource="http://creativecommons.org/ns#Reproduction" />
        <cc:permits
           rdf:resource="http://creativecommons.org/ns#Distribution" />
        <cc:permits
           rdf:resource="http://creativecommons.org/ns#DerivativeWorks" />
      </cc:License>
    </rdf:RDF>
  </metadata>
  <g
     inkscape:label="Layer 1"
     inkscape:groupmode="layer"
     id="layer1"
     transform="translate(-374.21785,422.78273)">
    <g
       id="g7682"
       transform="matrix(1.031348,0,0,-1.031348,351.50197,390.80364)">
      <path
         id="path7684"
         d="m 393,556 c 0,-1.33301 -0.16699,-2.33301 -0.5,-3 -0.33301,-0.66699 -0.5,-1.66699 -0.5,-3 0,-15.333 3,-29.833 9,-43.5 6,-13.667 14,-25.5 24,-35.5 10,-10 21.833,-17.833 35.5,-23.5 13.667,-5.667 28.167,-8.5 43.5,-8.5 15.333,0 29.667,2.83301 43,8.5 13.333,5.66699 25,13.5 35,23.5 10,10 18,21.833 24,35.5 6,13.667 9,28.167 9,43.5 v 6 H 393 v 0 z M 504,392 c -27.333,0 -52.833,5.16699 -76.5,15.5 -23.667,10.33301 -44.334,24.333 -62,42 -17.667,17.667 -31.667,38.333 -42,62 -10.333,23.667 -15.5,49.167 -15.5,76.5 0,27.333 5.16699,52.833 15.5,76.5 10.333,23.669 24.333,44.336 42,62 17.667,17.667 38.333,31.667 62,42 23.667,10.333 49.167,15.5 76.5,15.5 26.667,0 52,-5.16699 76,-15.5 24,-10.33301 44.833,-24.333 62.5,-42 17.667,-17.667 31.667,-38.333 42,-62 10.333,-23.667 15.5,-49.167 15.5,-76.5 0,-27.333 -5.16699,-52.833 -15.5,-76.5 -10.333,-23.668 -24.333,-44.334 -42,-62 C 624.833,431.833 604,417.833 580,407.5 556,397.167 530.667,392 504,392 z m 148,-32 c 58.667,-0.66699 100.667,-15.333 126,-44 25.333,-28.667 38,-76.667 38,-144 v -330 c 0,-4 -1.33301,-7.5 -4,-10.5 -2.66699,-3 -5.66699,-4.5 -9,-4.5 h -86 c -3.33301,0 -6.5,1.5 -9.5,4.5 -3,3 -4.5,6.5 -4.5,10.5 v 295 c 0,7.33299 -2.16699,13.333 -6.5,18 -4.33301,4.667 -9.83301,7 -16.5,7 -6,0 -11.333,-2.33299 -16,-7 -4.667,-4.66701 -7,-10.667 -7,-18 v -295 c 0,-4 -1.33301,-7.5 -4,-10.5 -2.66699,-3 -6,-4.5 -10,-4.5 H 363 c -4,0 -7.33301,1.5 -10,4.5 -2.66699,3 -4,6.5 -4,10.5 v 295 c 0,7.33299 -2.16699,13.333 -6.5,18 -4.33301,4.667 -9.83301,7 -16.5,7 -6,0 -11.333,-2.33299 -16,-7 -4.667,-4.66701 -7,-10.667 -7,-18 v -295 c 0,-4 -1.33301,-7.5 -4,-10.5 -2.66699,-3 -6,-4.5 -10,-4.5 h -89 c -3.33299,0 -6.5,1.5 -9.5,4.5 -3,3 -4.5,6.5 -4.5,10.5 v 330 c 0,67.333 12.667,115.333 38,144 25.333,28.667 67.667,43.333 127,44 h 148 5 148 v 0 z"
         inkscape:connector-curvature="0"
         style="fill:currentColor" />
    </g>
  </g>
</svg>
