<?xml version="1.0" encoding="UTF-8" standalone="no"?>
<!-- Created with Inkscape (http://www.inkscape.org/) -->

<svg
   xmlns:dc="http://purl.org/dc/elements/1.1/"
   xmlns:cc="http://creativecommons.org/ns#"
   xmlns:rdf="http://www.w3.org/1999/02/22-rdf-syntax-ns#"
   xmlns:svg="http://www.w3.org/2000/svg"
   xmlns="http://www.w3.org/2000/svg"
   xmlns:sodipodi="http://sodipodi.sourceforge.net/DTD/sodipodi-0.dtd"
   xmlns:inkscape="http://www.inkscape.org/namespaces/inkscape"
   width="512"
   height="512"
   id="svg2"
   sodipodi:version="0.32"
   inkscape:version="0.48.3.1 r9886"
   sodipodi:docname="child.svg"
   version="1.0"
   inkscape:output_extension="org.inkscape.output.svg.inkscape">
  <defs
     id="defs4" />
  <sodipodi:namedview
     id="base"
     pagecolor="#ffffff"
     bordercolor="#666666"
     borderopacity="1.0"
     inkscape:pageopacity="0.0"
     inkscape:pageshadow="2"
     inkscape:zoom="0.64"
     inkscape:cx="468.86762"
     inkscape:cy="627.67651"
     inkscape:document-units="px"
     inkscape:current-layer="layer1"
     inkscape:window-width="1487"
     inkscape:window-height="1021"
     inkscape:window-x="0"
     inkscape:window-y="28"
     showgrid="false"
     inkscape:window-maximized="0"
     fit-margin-top="0"
     fit-margin-left="0"
     fit-margin-right="0"
     fit-margin-bottom="0" />
  <metadata
     id="metadata7">
    <rdf:RDF>
      <cc:Work
         rdf:about="">
        <dc:format>image/svg+xml</dc:format>
        <dc:type
           rdf:resource="http://purl.org/dc/dcmitype/StillImage" />
        <dc:title />
        <dc:creator>
          <cc:Agent>
            <dc:title />
          </cc:Agent>
        </dc:creator>
        <dc:subject>
          <rdf:Bag />
        </dc:subject>
        <cc:license
           rdf:resource="http://creativecommons.org/licenses/publicdomain/" />
        <dc:description />
        <dc:contributor>
          <cc:Agent>
            <dc:title />
          </cc:Agent>
        </dc:contributor>
      </cc:Work>
      <cc:License
         rdf:about="http://creativecommons.org/licenses/publicdomain/">
        <cc:permits
           rdf:resource="http://creativecommons.org/ns#Reproduction" />
        <cc:permits
           rdf:resource="http://creativecommons.org/ns#Distribution" />
        <cc:permits
           rdf:resource="http://creativecommons.org/ns#DerivativeWorks" />
      </cc:License>
    </rdf:RDF>
  </metadata>
  <g
     inkscape:label="Layer 1"
     inkscape:groupmode="layer"
     id="layer1"
     transform="translate(-374.21785,-62.236374)">
    <path
       id="path7684"
       style="fill:#000000"
       d="m 710.99266,289.11745 c 31.38288,0.3568 53.85003,8.20212 67.40145,23.53702 13.55147,15.33491 20.32741,41.01166 20.32741,77.03025 l 0,176.52767 c -0.20829,3.99099 -3.09813,7.95749 -6.9541,8.02398 l -46.00418,0 c -4.23927,-0.40016 -7.4344,-4.22319 -7.48906,-8.02398 l 0,-157.80504 c -0.46281,-7.81067 -5.00774,-13.2752 -12.30344,-13.3733 -7.70468,0.6578 -12.22124,6.64841 -12.30345,13.3733 l 0,157.80504 c -0.18697,4.38895 -3.49605,7.96646 -7.48906,8.02398 l -149.78103,0 c -4.50791,-0.25241 -7.43868,-4.08301 -7.48906,-8.02398 l 0,-157.80504 c -0.46279,-7.81065 -5.00774,-13.2752 -12.30344,-13.3733 -7.70468,0.6578 -12.22121,6.64844 -12.30344,13.3733 l 0,157.80504 c -0.18701,4.38894 -3.49607,7.96646 -7.48905,8.02398 l -47.60898,0 c -4.23924,-0.40016 -7.43439,-4.22319 -7.48905,-8.02398 l 0,-176.52767 c 0,-36.01859 6.77598,-61.69534 20.32743,-77.03025 13.55144,-15.3349 36.19726,-23.18022 67.93641,-23.53702 l 161.01464,0 z M 632.16835,62.236374 c -57.75965,0 -104.59364,47.068586 -104.59364,105.144726 0,58.07614 46.83399,105.16094 104.59364,105.16094 57.75965,0 104.57746,-47.0848 104.57746,-105.16094 0,-58.07614 -46.81781,-105.144726 -104.57746,-105.144726 z m -59.89051,122.633736 119.19752,0 c 0,32.91513 -26.68363,59.59876 -59.59876,59.59876 -32.91513,0 -59.59876,-26.68363 -59.59876,-59.59876 z"
       inkscape:connector-curvature="0" />
  </g>
</svg>
