<?xml version="1.0" encoding="UTF-8" standalone="no"?>
<!-- Created with Inkscape (http://www.inkscape.org/) -->

<svg
   xmlns:dc="http://purl.org/dc/elements/1.1/"
   xmlns:cc="http://creativecommons.org/ns#"
   xmlns:rdf="http://www.w3.org/1999/02/22-rdf-syntax-ns#"
   xmlns:svg="http://www.w3.org/2000/svg"
   xmlns="http://www.w3.org/2000/svg"
   xmlns:sodipodi="http://sodipodi.sourceforge.net/DTD/sodipodi-0.dtd"
   xmlns:inkscape="http://www.inkscape.org/namespaces/inkscape"
   width="512"
   height="512"
   id="svg2"
   sodipodi:version="0.32"
   inkscape:version="0.48.3.1 r9886"
   sodipodi:docname="cloud-alt.svg"
   version="1.0"
   inkscape:output_extension="org.inkscape.output.svg.inkscape">
  <defs
     id="defs4" />
  <sodipodi:namedview
     id="base"
     pagecolor="#ffffff"
     bordercolor="#666666"
     borderopacity="1.0"
     inkscape:pageopacity="0.0"
     inkscape:pageshadow="2"
     inkscape:zoom="0.45254834"
     inkscape:cx="628.86227"
     inkscape:cy="176.09706"
     inkscape:document-units="px"
     inkscape:current-layer="layer1"
     inkscape:window-width="1920"
     inkscape:window-height="1025"
     inkscape:window-x="0"
     inkscape:window-y="27"
     showgrid="false"
     inkscape:window-maximized="1"
     fit-margin-top="0"
     fit-margin-left="0"
     fit-margin-right="0"
     fit-margin-bottom="0" />
  <metadata
     id="metadata7">
    <rdf:RDF>
      <cc:Work
         rdf:about="">
        <dc:format>image/svg+xml</dc:format>
        <dc:type
           rdf:resource="http://purl.org/dc/dcmitype/StillImage" />
        <dc:title />
        <dc:creator>
          <cc:Agent>
            <dc:title />
          </cc:Agent>
        </dc:creator>
        <dc:subject>
          <rdf:Bag />
        </dc:subject>
        <cc:license
           rdf:resource="http://creativecommons.org/licenses/publicdomain/" />
        <dc:description />
        <dc:contributor>
          <cc:Agent>
            <dc:title />
          </cc:Agent>
        </dc:contributor>
      </cc:Work>
      <cc:License
         rdf:about="http://creativecommons.org/licenses/publicdomain/">
        <cc:permits
           rdf:resource="http://creativecommons.org/ns#Reproduction" />
        <cc:permits
           rdf:resource="http://creativecommons.org/ns#Distribution" />
        <cc:permits
           rdf:resource="http://creativecommons.org/ns#DerivativeWorks" />
      </cc:License>
    </rdf:RDF>
  </metadata>
  <g
     inkscape:label="Layer 1"
     inkscape:groupmode="layer"
     id="layer1"
     transform="translate(-374.21785,-62.236374)">
    <path
       style="fill:#000000;fill-opacity:1;stroke:none"
       d="M 256 0 C 114.61511 3.7895613e-14 0 114.6151 0 256 C 0 397.3849 114.61511 512 256 512 C 397.38489 512 512 397.3849 512 256 C 512 114.6151 397.38489 -5.6843419e-14 256 0 z M 264.1875 146.4375 C 275.793 146.4375 286.80825 148.387 297.21875 152.3125 C 307.62925 156.238 317.171 161.72125 325.875 168.71875 C 334.579 175.71625 342.09175 184.164 348.40625 194.0625 C 354.72075 203.961 359.428 214.707 362.5 226.3125 C 370.692 225.2885 378.36325 226.1445 385.53125 228.875 C 392.69925 231.6055 399.118 235.69475 404.75 241.15625 C 410.382 246.61775 414.82 253.195 418.0625 260.875 C 421.305 268.555 422.90625 276.654 422.90625 285.1875 C 422.90625 298.4995 419.32425 310.26 412.15625 320.5 C 410.10825 323.572 407.22325 325.125 403.46875 325.125 L 111.09375 325.125 C 106.99775 325.125 103.923 323.41351 101.875 320 C 93.34149 306.3465 89.09375 290.65575 89.09375 272.90625 C 89.09375 261.30075 91.12275 250.2855 95.21875 239.875 C 99.31475 229.4645 104.8775 220.43 111.875 212.75 C 118.8725 205.07 127.051 199 136.4375 194.5625 C 145.824 190.125 155.98375 187.90625 166.90625 187.90625 C 172.70875 187.90625 178.16125 188.572 183.28125 189.9375 C 193.17975 175.943 205.1305 165.197 219.125 157.6875 C 233.1195 150.178 248.145 146.4375 264.1875 146.4375 z "
       transform="translate(374.21785,62.236374)"
       id="path3060" />
  </g>
</svg>
