<?xml version="1.0" encoding="UTF-8" standalone="no"?>
<!-- Created with Inkscape (http://www.inkscape.org/) -->

<svg
   xmlns:dc="http://purl.org/dc/elements/1.1/"
   xmlns:cc="http://creativecommons.org/ns#"
   xmlns:rdf="http://www.w3.org/1999/02/22-rdf-syntax-ns#"
   xmlns:svg="http://www.w3.org/2000/svg"
   xmlns="http://www.w3.org/2000/svg"
   xmlns:sodipodi="http://sodipodi.sourceforge.net/DTD/sodipodi-0.dtd"
   xmlns:inkscape="http://www.inkscape.org/namespaces/inkscape"
   width="987.97894"
   height="997.0191"
   id="svg2"
   sodipodi:version="0.32"
   inkscape:version="0.48.3.1 r9886"
   sodipodi:docname="cloud.svg"
   version="1.0"
   inkscape:output_extension="org.inkscape.output.svg.inkscape">
  <defs
     id="defs4" />
  <sodipodi:namedview
     id="base"
     pagecolor="#ffffff"
     bordercolor="#666666"
     borderopacity="1.0"
     inkscape:pageopacity="0.0"
     inkscape:pageshadow="2"
     inkscape:zoom="0.45254834"
     inkscape:cx="980.20595"
     inkscape:cy="176.09706"
     inkscape:document-units="px"
     inkscape:current-layer="layer1"
     inkscape:window-width="1920"
     inkscape:window-height="1025"
     inkscape:window-x="0"
     inkscape:window-y="27"
     showgrid="false"
     inkscape:window-maximized="1"
     fit-margin-top="0"
     fit-margin-left="0"
     fit-margin-right="0"
     fit-margin-bottom="0" />
  <metadata
     id="metadata7">
    <rdf:RDF>
      <cc:Work
         rdf:about="">
        <dc:format>image/svg+xml</dc:format>
        <dc:type
           rdf:resource="http://purl.org/dc/dcmitype/StillImage" />
        <dc:title></dc:title>
        <dc:creator>
          <cc:Agent>
            <dc:title />
          </cc:Agent>
        </dc:creator>
        <dc:subject>
          <rdf:Bag />
        </dc:subject>
        <cc:license
           rdf:resource="http://creativecommons.org/licenses/publicdomain/" />
        <dc:description />
        <dc:contributor>
          <cc:Agent>
            <dc:title />
          </cc:Agent>
        </dc:contributor>
      </cc:Work>
      <cc:License
         rdf:about="http://creativecommons.org/licenses/publicdomain/">
        <cc:permits
           rdf:resource="http://creativecommons.org/ns#Reproduction" />
        <cc:permits
           rdf:resource="http://creativecommons.org/ns#Distribution" />
        <cc:permits
           rdf:resource="http://creativecommons.org/ns#DerivativeWorks" />
      </cc:License>
    </rdf:RDF>
  </metadata>
  <g
     inkscape:label="Layer 1"
     inkscape:groupmode="layer"
     id="layer1"
     transform="translate(-374.21785,422.78273)">
    <g
       id="g4277"
       transform="matrix(0.987,0,0,-0.987,374.70732,371.82682)">
      <path
         id="path4279"
         d="m 805,174 c 14,20 21,43 21,69 0,16.667 -3.16699,32.5 -9.5,47.5 -6.33301,15 -15,27.833 -26,38.5 -11,10.667 -23.5,18.667 -37.5,24 -14,5.333 -29,7 -45,5 -6,22.667 -15.167,43.667 -27.5,63 -12.333,19.333 -27,35.833 -44,49.5 -17,13.667 -35.667,24.333 -56,32 -20.333,7.667 -41.833,11.5 -64.5,11.5 -31.333,0 -60.667,-7.33301 -88,-22 -27.333,-14.66699 -50.667,-35.667 -70,-63 -10,2.66699 -20.667,4 -32,4 -21.333,0 -41.167,-4.33301 -59.5,-13 -18.333,-8.66699 -34.333,-20.5 -48,-35.5 -13.667,-15 -24.5,-32.667 -32.5,-53 -8,-20.333 -12,-41.833 -12,-64.5 0,-34.667 8.33299,-65.333 25,-92 4,-6.66701 10,-10 18,-10 h 571 c 7.33301,0 13,3 17,9 z M 500,800 c 68.667,0 133.5,-13.167 194.5,-39.5 61,-26.333 114,-62 159,-107 45,-45 80.667,-98 107,-159 26.333,-61 39.5,-125.833 39.5,-194.5 0,-46 -6,-90.333 -18,-133 -12,-42.667 -28.833,-82.5 -50.5,-119.5 -21.667,-37 -47.667,-70.6667 -78,-101 -30.333,-30.3333 -64,-56.333 -101,-78 -37,-21.667 -76.833,-38.5 -119.5,-50.5 -42.667,-12 -87,-18 -133,-18 -46,0 -90.333,6 -133,18 -42.667,12 -82.5,28.833 -119.5,50.5 -37,21.667 -70.667,47.6667 -101,78 -30.333,30.3333 -56.3333,64 -78,101 C 46.8333,84.5 30,124.333 18,167 6,209.667 0,254 0,300 c 0,46 6,90.333 18,133 12,42.667 28.8333,82.5 50.5,119.5 21.6667,37 47.667,70.667 78,101 30.333,30.333 64,56.333 101,78 37,21.667 76.833,38.5 119.5,50.5 42.667,12 87,18 133,18 z"
         inkscape:connector-curvature="0"
         style="fill:currentColor" />
    </g>
  </g>
</svg>
