<?xml version="1.0" encoding="UTF-8" standalone="no"?>
<!-- Created with Inkscape (http://www.inkscape.org/) -->

<svg
   xmlns:dc="http://purl.org/dc/elements/1.1/"
   xmlns:cc="http://creativecommons.org/ns#"
   xmlns:rdf="http://www.w3.org/1999/02/22-rdf-syntax-ns#"
   xmlns:svg="http://www.w3.org/2000/svg"
   xmlns="http://www.w3.org/2000/svg"
   xmlns:sodipodi="http://sodipodi.sourceforge.net/DTD/sodipodi-0.dtd"
   xmlns:inkscape="http://www.inkscape.org/namespaces/inkscape"
   width="512"
   height="512"
   id="svg2"
   sodipodi:version="0.32"
   inkscape:version="0.48.3.1 r9886"
   sodipodi:docname="cogs.svg"
   version="1.0"
   inkscape:output_extension="org.inkscape.output.svg.inkscape">
  <defs
     id="defs4" />
  <sodipodi:namedview
     id="base"
     pagecolor="#ffffff"
     bordercolor="#666666"
     borderopacity="1.0"
     inkscape:pageopacity="0.0"
     inkscape:pageshadow="2"
     inkscape:zoom="0.22627417"
     inkscape:cx="657.71783"
     inkscape:cy="-505.15835"
     inkscape:document-units="px"
     inkscape:current-layer="layer1"
     inkscape:window-width="1920"
     inkscape:window-height="1025"
     inkscape:window-x="0"
     inkscape:window-y="27"
     showgrid="false"
     inkscape:window-maximized="1"
     fit-margin-top="0"
     fit-margin-left="0"
     fit-margin-right="0"
     fit-margin-bottom="0" />
  <metadata
     id="metadata7">
    <rdf:RDF>
      <cc:Work
         rdf:about="">
        <dc:format>image/svg+xml</dc:format>
        <dc:type
           rdf:resource="http://purl.org/dc/dcmitype/StillImage" />
        <dc:title></dc:title>
        <dc:creator>
          <cc:Agent>
            <dc:title />
          </cc:Agent>
        </dc:creator>
        <dc:subject>
          <rdf:Bag />
        </dc:subject>
        <cc:license
           rdf:resource="http://creativecommons.org/licenses/publicdomain/" />
        <dc:description />
        <dc:contributor>
          <cc:Agent>
            <dc:title />
          </cc:Agent>
        </dc:contributor>
      </cc:Work>
      <cc:License
         rdf:about="http://creativecommons.org/licenses/publicdomain/">
        <cc:permits
           rdf:resource="http://creativecommons.org/ns#Reproduction" />
        <cc:permits
           rdf:resource="http://creativecommons.org/ns#Distribution" />
        <cc:permits
           rdf:resource="http://creativecommons.org/ns#DerivativeWorks" />
      </cc:License>
    </rdf:RDF>
  </metadata>
  <g
     inkscape:label="Layer 1"
     inkscape:groupmode="layer"
     id="layer1"
     transform="translate(-374.21785,-62.236374)">
    <path
       style="fill:currentColor"
       d="m 792.24317,123.98342 c -0.8748,0.0115 -1.7121,0.24532 -2.5127,0.67414 -1.2806,0.68612 -2.1838,1.73365 -2.7169,3.16639 l -9.6422,26.00529 c -6.7897,0.10608 -13.5739,1.08106 -20.3466,2.92125 l -16.3019,-22.43032 c -0.9455,-1.1915 -1.9894,-1.93841 -3.1664,-2.24712 -1.6182,-0.42448 -3.092,-0.2491 -4.392,0.51071 l -20.6123,12.03229 c -1.3001,0.75983 -2.1543,1.82888 -2.5944,3.20725 -0.4407,1.37819 -0.3127,2.80195 0.4086,4.2491 l 11.5624,25.18816 c -4.9275,4.99766 -9.1179,10.43834 -12.5429,16.30182 l -27.3945,-4.35124 c -1.5099,-0.23872 -2.8798,0.0176 -4.1061,0.79671 -1.2267,0.77908 -2.0246,1.91975 -2.4105,3.39111 l -6.0264,22.94104 c -0.3859,1.47114 -0.2369,2.84543 0.4494,4.12652 0.6861,1.28034 1.7542,2.18363 3.1868,2.71697 l 26.0054,9.66261 c 0.1061,6.78973 1.0811,13.57383 2.9212,20.34664 l -22.4303,16.2814 c -1.3388,0.90683 -2.1583,2.07624 -2.4514,3.49325 -0.2932,1.41697 -0.065,2.76519 0.6945,4.06524 l 12.0527,20.61221 c 0.7598,1.30006 1.9363,2.16992 3.5546,2.5944 1.1767,0.30865 2.4726,0.16543 3.8814,-0.40857 l 25.2086,-11.54202 c 4.9974,4.92761 10.4178,9.09755 16.2814,12.52258 l -4.3513,27.39442 c -0.2402,1.50957 0.037,2.87934 0.8171,4.1061 0.7783,1.22619 1.8986,2.04484 3.3708,2.43097 l 22.941,6.00594 c 1.4711,0.3859 2.8661,0.2571 4.1469,-0.429 1.2808,-0.68611 2.184,-1.75404 2.717,-3.18682 l 9.6422,-26.00529 c 6.7898,-0.10605 13.5737,-1.08102 20.3466,-2.92126 l 16.2814,22.43033 c 0.7984,1.15296 1.8628,1.8998 3.1869,2.24712 1.6183,0.42452 3.0919,0.26947 4.392,-0.49028 l 20.6123,-12.05272 c 1.3,-0.75978 2.1748,-1.8288 2.6148,-3.20726 0.4463,-1.37681 0.2981,-2.80035 -0.429,-4.24909 l -11.5625,-25.18816 c 4.9277,-4.99762 9.1181,-10.43831 12.543,-16.30183 l 27.3945,4.35124 c 1.51,0.23877 2.8794,-0.0176 4.106,-0.7967 1.2264,-0.77917 2.0246,-1.89932 2.4106,-3.37068 l 6.0263,-22.96147 c 0.3858,-1.47071 0.2365,-2.8453 -0.4493,-4.12653 -0.6868,-1.27953 -1.7339,-2.1827 -3.1665,-2.71697 l -26.0257,-9.66261 c -0.106,-6.78949 -1.081,-13.57378 -2.9212,-20.34664 l 22.4303,-16.28139 c 1.3382,-0.90502 2.1579,-2.07431 2.4514,-3.49325 0.2932,-1.41688 0.065,-2.76514 -0.6945,-4.06524 l -12.0528,-20.61221 c -0.7597,-1.30013 -1.9362,-2.16989 -3.5545,-2.5944 -1.3242,-0.34732 -2.6198,-0.20402 -3.8815,0.40857 l -25.2085,11.54202 c -4.997,-4.92744 -10.4174,-9.09741 -16.2814,-12.52258 l 4.3513,-27.39442 c 0.2427,-1.50889 -0.034,-2.87871 -0.8172,-4.1061 -0.7771,-1.2259 -1.8975,-2.04455 -3.3707,-2.43097 l -22.9614,-6.02637 c -0.5518,-0.14473 -1.089,-0.21116 -1.6139,-0.20428 z m -268.9188,53.80828 c -2.339,0 -4.3277,0.76779 -5.9651,2.28797 -1.6373,1.52018 -2.5646,3.44219 -2.7987,5.78122 l -4.2286,42.45012 c -10.0575,2.80671 -19.7546,6.89804 -29.1104,12.27744 l -32.9714,-27.00628 c -1.871,-1.40335 -3.7468,-2.10412 -5.6178,-2.10412 -2.5727,0 -4.675,0.81405 -6.3124,2.4514 l -25.9644,25.94401 c -1.6373,1.63736 -2.5184,3.57979 -2.6353,5.80165 -0.1172,2.22186 0.6506,4.27791 2.288,6.14893 l 27.0063,32.97136 c -5.3794,9.3558 -9.4707,19.05294 -12.2774,29.1104 l -42.4502,4.20825 c -2.3389,0.234 -4.2609,1.18175 -5.7812,2.81911 -1.5203,1.63736 -2.2879,3.62604 -2.2879,5.96508 l 0,36.48503 c 0,2.33869 0.7676,4.32737 2.2879,5.96508 1.5203,1.63666 3.4423,2.56433 5.7812,2.79869 l 42.4502,4.20824 c 2.8067,10.05747 6.898,19.77503 12.2774,29.13083 l -27.0063,32.97136 c -1.6374,1.87112 -2.4048,3.92697 -2.288,6.14893 0.1169,2.22196 0.998,4.14398 2.6353,5.78122 l 25.9644,25.96444 c 1.6374,1.63725 3.7397,2.4514 6.3124,2.4514 1.8706,0 3.7464,-0.70077 5.6178,-2.10412 l 32.9714,-27.00628 c 9.3554,5.3795 19.0529,9.47073 29.1104,12.27744 l 4.2286,42.45011 c 0.2316,2.33905 1.1593,4.26105 2.7987,5.78123 1.636,1.52018 3.625,2.28797 5.9651,2.28797 l 36.485,0 c 2.339,0 4.3277,-0.76779 5.9651,-2.28797 1.6373,-1.52018 2.5852,-3.44218 2.8192,-5.78123 l 4.1877,-42.45011 c 10.0575,-2.80671 19.7751,-6.89794 29.1309,-12.27744 l 32.9713,27.00628 c 1.6374,1.40335 3.5128,2.10412 5.6179,2.10412 2.5727,0 4.6749,-0.81415 6.3123,-2.4514 l 25.9644,-25.96444 c 1.6373,-1.63725 2.5185,-3.55926 2.6353,-5.78122 0.1263,-2.22196 -0.6412,-4.27781 -2.288,-6.14893 l -27.0063,-32.97136 c 5.3794,-9.3558 9.4708,-19.07336 12.2775,-29.13083 l 42.45,-4.20824 c 2.3391,-0.23401 4.2611,-1.16133 5.7813,-2.79869 1.5202,-1.63736 2.288,-3.62603 2.288,-5.96508 l 0,-36.48503 c 0,-2.33799 -0.7678,-4.32702 -2.288,-5.96508 -1.5202,-1.63526 -3.4422,-2.58336 -5.7813,-2.81911 l -42.45,-4.20825 c -2.8067,-10.05712 -6.8981,-19.7546 -12.2775,-29.1104 l 27.0063,-32.97136 c 1.6374,-1.86821 2.4049,-3.92392 2.288,-6.14893 -0.1168,-2.22185 -0.998,-4.1643 -2.6353,-5.80165 l -25.9644,-25.94401 c -1.6374,-1.63735 -3.7396,-2.4514 -6.3123,-2.4514 -2.1051,0 -3.9805,0.70077 -5.6179,2.10412 l -32.9713,27.00628 c -9.3548,-5.3794 -19.0727,-9.47073 -29.1309,-12.27744 l -4.1877,-42.45012 c -0.2278,-2.33903 -1.1759,-4.26104 -2.8192,-5.78122 -1.6342,-1.52019 -3.6233,-2.28797 -5.9651,-2.28797 l -36.485,0 z m 254.5373,22.49161 c 2.6559,0.0127 5.3609,0.35726 8.0487,1.06228 17.2021,4.51214 27.4736,22.1021 22.9615,39.30414 -4.5121,17.20206 -22.1021,27.49405 -39.3042,22.9819 -17.2019,-4.51211 -27.4939,-22.12253 -22.9819,-39.32458 3.8072,-14.51423 16.9338,-24.09229 31.2759,-24.02374 z m -236.2948,95.33912 c 27.3462,0 49.5183,22.17209 49.5183,49.51832 0,27.34624 -22.1721,49.51833 -49.5183,49.51833 -27.3462,0 -49.5183,-22.17209 -49.5183,-49.51833 0,-27.34623 22.1721,-49.51832 49.5183,-49.51832 z m 207.0822,61.06034 c -1.0131,0 -1.8852,0.3426 -2.5944,1.00099 -0.7091,0.6584 -1.1038,1.47922 -1.2052,2.49226 l -1.8182,18.40595 c -4.3559,1.2156 -8.5727,2.98152 -12.6247,5.31137 l -14.2795,-11.70545 c -0.8103,-0.60779 -1.6206,-0.89884 -2.4309,-0.89884 -1.1142,0 -2.0283,0.35312 -2.7374,1.06227 l -11.2356,11.23559 c -0.7091,0.70916 -1.0934,1.55039 -1.144,2.51269 -0.051,0.9623 0.2714,1.84533 0.9806,2.65569 l 11.7055,14.27941 c -2.3299,4.05203 -4.0958,8.24836 -5.3114,12.6043 l -18.3855,1.83855 c -1.0131,0.10135 -1.8543,0.49613 -2.5127,1.20527 -0.6585,0.70916 -0.9806,1.58135 -0.9806,2.5944 l 0,15.79112 c 0,1.01289 0.3221,1.88509 0.9806,2.5944 0.6584,0.70884 1.4996,1.10377 2.5127,1.20527 l 18.3855,1.81813 c 1.2156,4.35593 2.9815,8.57268 5.3114,12.62472 l -11.7055,14.27941 c -0.7092,0.81039 -1.0312,1.69335 -0.9806,2.65569 0.05,0.96234 0.4349,1.8036 1.144,2.51269 l 11.2356,11.23559 c 0.7091,0.7091 1.6232,1.06228 2.7374,1.06228 0.8102,0 1.6205,-0.29105 2.4309,-0.89885 l 14.2795,-11.70545 c 4.0519,2.32989 8.2688,4.09577 12.6247,5.31137 l 1.8182,18.38552 c 0.1002,1.01305 0.4952,1.85429 1.2052,2.51269 0.7086,0.65839 1.5809,0.98056 2.5944,0.98056 l 15.7911,0 c 1.013,0 1.8852,-0.32217 2.5944,-0.98056 0.7092,-0.6584 1.104,-1.49964 1.2053,-2.51269 l 1.8181,-18.38552 c 4.356,-1.2156 8.5727,-2.98148 12.6248,-5.31137 l 14.2794,11.70545 c 0.7091,0.6078 1.5192,0.89885 2.4309,0.89885 1.1143,0 2.0283,-0.35318 2.7375,-1.06228 l 11.2355,-11.23559 c 0.7091,-0.7091 1.0934,-1.55035 1.144,-2.51269 0.055,-0.96234 -0.2673,-1.8453 -0.9806,-2.65569 l -11.7054,-14.27941 c 2.3299,-4.05204 4.0958,-8.26879 5.3114,-12.62472 l 18.4059,-1.81813 c 1.0131,-0.10134 1.8339,-0.49612 2.4923,-1.20527 0.6584,-0.70915 1.001,-1.58135 1.001,-2.5944 l 0,-15.79112 c 0,-1.01259 -0.3426,-1.88494 -1.001,-2.5944 -0.6585,-0.70824 -1.4793,-1.10316 -2.4923,-1.20527 l -18.4059,-1.83855 c -1.2156,-4.35579 -2.9815,-8.55227 -5.3114,-12.6043 l 11.7054,-14.27941 c 0.7093,-0.80914 1.0313,-1.69203 0.9806,-2.65569 -0.05,-0.96229 -0.4349,-1.80354 -1.144,-2.51269 l -11.2355,-11.23559 c -0.7092,-0.70915 -1.6232,-1.06227 -2.7375,-1.06227 -0.9117,0 -1.7218,0.29105 -2.4309,0.89884 l -14.2794,11.70545 c -4.0516,-2.32985 -8.2686,-4.09577 -12.6248,-5.31137 l -1.8181,-18.40595 c -0.099,-1.01304 -0.4936,-1.83386 -1.2053,-2.49226 -0.7077,-0.65839 -1.5801,-1.00099 -2.5944,-1.00099 l -15.7911,0 z m 7.9058,51.05046 c 11.8437,0 21.4293,9.58556 21.4293,21.42934 0,11.84377 -9.5856,21.44977 -21.4293,21.44977 -11.8438,0 -21.4498,-9.606 -21.4498,-21.44977 0,-11.84378 9.606,-21.42934 21.4498,-21.42934 z"
       id="path2987"
       inkscape:connector-curvature="0" />
  </g>
</svg>
