<?xml version="1.0" encoding="UTF-8" standalone="no"?>
<!-- Created with Inkscape (http://www.inkscape.org/) -->

<svg
   xmlns:dc="http://purl.org/dc/elements/1.1/"
   xmlns:cc="http://creativecommons.org/ns#"
   xmlns:rdf="http://www.w3.org/1999/02/22-rdf-syntax-ns#"
   xmlns:svg="http://www.w3.org/2000/svg"
   xmlns="http://www.w3.org/2000/svg"
   xmlns:sodipodi="http://sodipodi.sourceforge.net/DTD/sodipodi-0.dtd"
   xmlns:inkscape="http://www.inkscape.org/namespaces/inkscape"
   width="987.97894"
   height="997.0191"
   id="svg2"
   sodipodi:version="0.32"
   inkscape:version="0.48.3.1 r9886"
   sodipodi:docname="compass.svg"
   version="1.0"
   inkscape:output_extension="org.inkscape.output.svg.inkscape">
  <defs
     id="defs4" />
  <sodipodi:namedview
     id="base"
     pagecolor="#ffffff"
     bordercolor="#666666"
     borderopacity="1.0"
     inkscape:pageopacity="0.0"
     inkscape:pageshadow="2"
     inkscape:zoom="0.64"
     inkscape:cx="348.96411"
     inkscape:cy="569.85163"
     inkscape:document-units="px"
     inkscape:current-layer="layer1"
     inkscape:window-width="1487"
     inkscape:window-height="1021"
     inkscape:window-x="0"
     inkscape:window-y="28"
     showgrid="false"
     inkscape:window-maximized="0"
     fit-margin-top="0"
     fit-margin-left="0"
     fit-margin-right="0"
     fit-margin-bottom="0" />
  <metadata
     id="metadata7">
    <rdf:RDF>
      <cc:Work
         rdf:about="">
        <dc:format>image/svg+xml</dc:format>
        <dc:type
           rdf:resource="http://purl.org/dc/dcmitype/StillImage" />
        <dc:title />
        <dc:creator>
          <cc:Agent>
            <dc:title />
          </cc:Agent>
        </dc:creator>
        <dc:subject>
          <rdf:Bag />
        </dc:subject>
        <cc:license
           rdf:resource="http://creativecommons.org/licenses/publicdomain/" />
        <dc:description />
        <dc:contributor>
          <cc:Agent>
            <dc:title />
          </cc:Agent>
        </dc:contributor>
      </cc:Work>
      <cc:License
         rdf:about="http://creativecommons.org/licenses/publicdomain/">
        <cc:permits
           rdf:resource="http://creativecommons.org/ns#Reproduction" />
        <cc:permits
           rdf:resource="http://creativecommons.org/ns#Distribution" />
        <cc:permits
           rdf:resource="http://creativecommons.org/ns#DerivativeWorks" />
      </cc:License>
    </rdf:RDF>
  </metadata>
  <g
     inkscape:label="Layer 1"
     inkscape:groupmode="layer"
     id="layer1"
     transform="translate(-374.21785,422.78273)">
    <path
       style="fill:#000000;fill-opacity:1;stroke:none"
       d="M 494 5 C 221.44747 5 0.5 225.94748 0.5 498.5 C 0.5 771.05252 221.44747 992 494 992 C 766.55258 992 987.5 771.05252 987.5 498.5 C 987.5 225.94748 766.55258 5 494 5 z M 494 135.84375 C 694.29628 135.84375 856.65625 298.20371 856.65625 498.5 C 856.65625 698.79629 694.29628 861.1875 494 861.1875 C 293.70371 861.1875 131.3125 698.79629 131.3125 498.5 C 131.3125 298.20371 293.70371 135.84375 494 135.84375 z M 699.3125 267.4375 C 695.57927 267.4414 691.62611 268.45182 687.625 270.75 L 430.40625 424.4375 C 427.61778 425.83123 424.85098 428.6303 422.0625 432.8125 L 266.28125 691.0625 C 255.21626 713.72926 276.98772 738.16008 300.78125 726.625 L 560.0625 570.84375 C 564.2447 568.05525 567.04377 565.25724 568.4375 562.46875 L 722.125 305.25 C 730.43722 290.70445 717.29986 267.41869 699.3125 267.4375 z "
       transform="translate(374.21785,-422.78273)"
       id="path3138" />
  </g>
</svg>
