<?xml version="1.0" encoding="UTF-8" standalone="no"?>
<!-- Created with Inkscape (http://www.inkscape.org/) -->

<svg
   xmlns:dc="http://purl.org/dc/elements/1.1/"
   xmlns:cc="http://creativecommons.org/ns#"
   xmlns:rdf="http://www.w3.org/1999/02/22-rdf-syntax-ns#"
   xmlns:svg="http://www.w3.org/2000/svg"
   xmlns="http://www.w3.org/2000/svg"
   xmlns:sodipodi="http://sodipodi.sourceforge.net/DTD/sodipodi-0.dtd"
   xmlns:inkscape="http://www.inkscape.org/namespaces/inkscape"
   width="512"
   height="512"
   id="svg2987"
   version="1.1"
   inkscape:version="0.48.3.1 r9886"
   sodipodi:docname="New document 1">
  <defs
     id="defs2989" />
  <sodipodi:namedview
     id="base"
     pagecolor="#ffffff"
     bordercolor="#666666"
     borderopacity="1.0"
     inkscape:pageopacity="0.0"
     inkscape:pageshadow="2"
     inkscape:zoom="0.24748737"
     inkscape:cx="301.60386"
     inkscape:cy="212.90457"
     inkscape:document-units="px"
     inkscape:current-layer="layer1"
     showgrid="false"
     inkscape:window-width="1920"
     inkscape:window-height="1025"
     inkscape:window-x="0"
     inkscape:window-y="27"
     inkscape:window-maximized="1" />
  <metadata
     id="metadata2992">
    <rdf:RDF>
      <cc:Work
         rdf:about="">
        <dc:format>image/svg+xml</dc:format>
        <dc:type
           rdf:resource="http://purl.org/dc/dcmitype/StillImage" />
        <dc:title></dc:title>
      </cc:Work>
    </rdf:RDF>
  </metadata>
  <g
     inkscape:label="Layer 1"
     inkscape:groupmode="layer"
     id="layer1"
     transform="translate(0,-540.36218)">
    <path
       d="m 256,623.72156 c -141.38504,0 -256,114.615 -256,256 0,31.39978 5.656,61.48444 16,89.28125 l 70,0 c -14.0362,-26.673 -22,-57.04686 -22,-89.28125 0,-106.039 85.96096,-192 192,-192 106.039,0 192,85.961 192,192 0,32.23439 -7.9638,62.60825 -22,89.28125 l 70,0 c 10.344,-27.79681 16,-57.88147 16,-89.28125 0,-141.385 -114.615,-256 -256,-256 z m 0,100.53125 c -17.6731,0 -32,14.32689 -32,32 0,17.67311 14.3269,32 32,32 17.6731,0 32,-14.32689 32,-32 0,-17.67311 -14.3269,-32 -32,-32 z m -95.96875,31.34375 c -17.67311,0 -32,14.32689 -32,32 0,17.67311 14.32689,32 32,32 17.67311,0 32,-14.32689 32,-32 0,-17.67311 -14.32689,-32 -32,-32 z m 191.9375,0 c -17.6733,0 -32,14.32689 -32,32 0,17.67311 14.3267,32 32,32 17.673,0 32,-14.32689 32,-32 0,-17.67311 -14.327,-32 -32,-32 z M 256,818.40906 l -25.09375,125.5 0,25.09375 50.1875,0 0,-25.09375 L 256,818.40906 z"
       id="path4"
       inkscape:connector-curvature="0" />
  </g>
</svg>
