<?xml version="1.0" encoding="UTF-8" standalone="no"?>
<!-- Created with Inkscape (http://www.inkscape.org/) -->

<svg
   xmlns:dc="http://purl.org/dc/elements/1.1/"
   xmlns:cc="http://creativecommons.org/ns#"
   xmlns:rdf="http://www.w3.org/1999/02/22-rdf-syntax-ns#"
   xmlns:svg="http://www.w3.org/2000/svg"
   xmlns="http://www.w3.org/2000/svg"
   xmlns:sodipodi="http://sodipodi.sourceforge.net/DTD/sodipodi-0.dtd"
   xmlns:inkscape="http://www.inkscape.org/namespaces/inkscape"
   width="987.97894"
   height="997.0191"
   id="svg2"
   sodipodi:version="0.32"
   inkscape:version="0.48.3.1 r9886"
   sodipodi:docname="linkedin-rect.svg"
   version="1.0"
   inkscape:output_extension="org.inkscape.output.svg.inkscape">
  <defs
     id="defs4" />
  <sodipodi:namedview
     id="base"
     pagecolor="#ffffff"
     bordercolor="#666666"
     borderopacity="1.0"
     inkscape:pageopacity="0.0"
     inkscape:pageshadow="2"
     inkscape:zoom="0.45254834"
     inkscape:cx="653.16907"
     inkscape:cy="242.38832"
     inkscape:document-units="px"
     inkscape:current-layer="layer1"
     inkscape:window-width="1487"
     inkscape:window-height="1021"
     inkscape:window-x="0"
     inkscape:window-y="28"
     showgrid="false"
     inkscape:window-maximized="0"
     fit-margin-top="0"
     fit-margin-left="0"
     fit-margin-right="0"
     fit-margin-bottom="0" />
  <metadata
     id="metadata7">
    <rdf:RDF>
      <cc:Work
         rdf:about="">
        <dc:format>image/svg+xml</dc:format>
        <dc:type
           rdf:resource="http://purl.org/dc/dcmitype/StillImage" />
        <dc:title></dc:title>
        <dc:creator>
          <cc:Agent>
            <dc:title />
          </cc:Agent>
        </dc:creator>
        <dc:subject>
          <rdf:Bag />
        </dc:subject>
        <cc:license
           rdf:resource="http://creativecommons.org/licenses/publicdomain/" />
        <dc:description />
        <dc:contributor>
          <cc:Agent>
            <dc:title />
          </cc:Agent>
        </dc:contributor>
      </cc:Work>
      <cc:License
         rdf:about="http://creativecommons.org/licenses/publicdomain/">
        <cc:permits
           rdf:resource="http://creativecommons.org/ns#Reproduction" />
        <cc:permits
           rdf:resource="http://creativecommons.org/ns#Distribution" />
        <cc:permits
           rdf:resource="http://creativecommons.org/ns#DerivativeWorks" />
      </cc:License>
    </rdf:RDF>
  </metadata>
  <g
     inkscape:label="Layer 1"
     inkscape:groupmode="layer"
     id="layer1"
     transform="translate(-374.21785,422.78273)">
    <g
       id="g6574"
       transform="matrix(1.0704989,0,0,-1.0704989,332.95787,396.87649)">
      <path
         id="path6576"
         d="m 500,-161 c -63.333,0 -123,12.167 -179,36.5 -56,24.333 -104.833,57.3333 -146.5,99 C 132.833,16.1667 99.8333,65 75.5,121 51.1667,177 39,236.667 39,300 c 0,63.333 12.1667,123 36.5,179 24.3334,56 57.333,104.833 99,146.5 41.667,41.667 90.5,74.667 146.5,99 56,24.333 115.667,36.5 179,36.5 63.333,0 123,-12.167 179,-36.5 56,-24.333 104.833,-57.333 146.5,-99 C 867.167,583.833 900.167,535 924.5,479 948.833,423 961,363.333 961,300 961,236.667 948.833,177 924.5,121 900.167,65 867.167,16.167 825.5,-25.5 783.833,-67.167 735,-100.167 679,-124.5 623,-148.833 563.333,-161 500,-161 z m 389,398 c -3.33301,0.66701 -12.333,3 -27,7 -14.667,4 -33,7.5 -55,10.5 -22,3 -47.167,4.83301 -75.5,5.5 -28.333,0.66699 -57.833,-1.33301 -88.5,-6 12.667,-35.333 23.667,-68.833 33,-100.5 9.33301,-31.667 17.167,-59.8334 23.5,-84.5 6.33301,-24.6667 11,-45.3333 14,-62 3,-16.6667 5.16699,-28 6.5,-34 44,30 80.833,67.6667 110.5,113 29.667,45.333 49.167,95.667 58.5,151 z M 654,-63 c -1.33301,8.6667 -4,22.3333 -8,41 -4,18.6667 -9.33301,41.1667 -16,67.5 -6.66699,26.3333 -14.833,55.667 -24.5,88 C 595.83301,165.833 584,200 570,236 c -0.66699,-0.66701 -1.66699,-1 -3,-1 -55.333,-19.333 -102.333,-42.5 -141,-69.5 -38.667,-27 -70.167,-53 -94.5,-78 C 307.167,62.5 289.333,40.6667 278,22 266.667,3.3333 260,-7.6667 258,-11 c 34,-26 71.333,-46.3333 112,-61 40.667,-14.6667 84,-22 130,-22 54,0 105.333,10.3333 154,31 z M 207,36 c 2,4 10.333,16.6667 25,38 14.667,21.3334 35.5,45.667 62.5,73 27,27.333 59.833,54.833 98.5,82.5 38.667,27.667 83.667,49.833 135,66.5 2.66699,1.34201 5.16699,2.17599 7.5,2.5 2.33301,0.34201 4.83301,1.17599 7.5,2.5 -5.341,11.333 -10.675,22.333 -16,33 -5.341,10.667 -10.675,21.667 -16,33 -49.333,-14.668 -97.333,-25.835 -144,-33.5 -46.667,-7.66699 -88.5,-13.167 -125.5,-16.5 -37,-3.333 -67.667,-5.16699 -92,-5.5 C 125.167,311.16699 110.667,311 106,311 v -12 c 0,-50.667 9,-98.333 27,-143 18,-44.667 42.667,-84.6667 74,-120 z m -92,344 c 4,0 16.667,0.16699 38,0.5 21.333,0.33301 48.333,2 81,5 32.667,3 70.167,7.83301 112.5,14.5 42.333,6.66699 86.5,16 132.5,28 -16.667,28.667 -33.167,56 -49.5,82 -16.333,26 -31.167,49.167 -44.5,69.5 -13.333,20.333 -24.667,37.167 -34,50.5 -9.333,13.333 -15.333,22 -18,26 C 277,630 229.833,592.833 191.5,544.5 153.167,496.167 127.667,441.333 115,380 z m 293,302 c 2.66699,-3.33899 8.83301,-11.672 18.5,-25 9.66699,-13.333 21.333,-30.333 35,-51 13.667,-20.667 28.667,-44.167 45,-70.5 16.333,-26.333 32.5,-54.167 48.5,-83.5 34.667,12.667 64.667,26.833 90,42.5 25.333,15.667 46.333,30.5 63,44.5 16.667,14 29.167,26 37.5,36 8.333,10 13.5,16.333 15.5,19 -35.334,31.333 -75.167,55.667 -119.5,73 -44.333,17.333 -91.5,26 -141.5,26 -30.667,0 -61.334,-3.66699 -92,-11 z M 805,548 c -2,-2.66699 -7.83301,-9.5 -17.5,-20.5 -9.66699,-11 -23.333,-24 -41,-39 -17.667,-15 -39.833,-31 -66.5,-48 -26.667,-17 -58.333,-32.833 -95,-47.5 4.66699,-9.33301 9.16699,-18.833 13.5,-28.5 4.33301,-9.667 8.5,-19.167 12.5,-28.5 1.33301,-3.33301 2.83301,-6.66699 4.5,-10 1.66699,-3.33301 3.16699,-6.66699 4.5,-10 32.667,4 64.667,5.66699 96,5 31.333,-0.66699 59.667,-2.16699 85,-4.5 25.333,-2.33301 46.333,-5 63,-8 16.667,-3 26.667,-4.83301 30,-5.5 -0.66699,46.667 -8.66699,90.667 -24,132 -15.33301,41.333 -37,79 -65,113 z"
         inkscape:connector-curvature="0"
         style="fill:currentColor" />
    </g>
  </g>
</svg>
