<?xml version="1.0" encoding="UTF-8" standalone="no"?>
<!-- Created with Inkscape (http://www.inkscape.org/) -->

<svg
   xmlns:dc="http://purl.org/dc/elements/1.1/"
   xmlns:cc="http://creativecommons.org/ns#"
   xmlns:rdf="http://www.w3.org/1999/02/22-rdf-syntax-ns#"
   xmlns:svg="http://www.w3.org/2000/svg"
   xmlns="http://www.w3.org/2000/svg"
   xmlns:sodipodi="http://sodipodi.sourceforge.net/DTD/sodipodi-0.dtd"
   xmlns:inkscape="http://www.inkscape.org/namespaces/inkscape"
   width="987.97894"
   height="997.0191"
   id="svg2"
   sodipodi:version="0.32"
   inkscape:version="0.48.3.1 r9886"
   sodipodi:docname="tint.svg"
   version="1.0"
   inkscape:output_extension="org.inkscape.output.svg.inkscape">
  <defs
     id="defs4" />
  <sodipodi:namedview
     id="base"
     pagecolor="#ffffff"
     bordercolor="#666666"
     borderopacity="1.0"
     inkscape:pageopacity="0.0"
     inkscape:pageshadow="2"
     inkscape:zoom="0.16"
     inkscape:cx="1129.1207"
     inkscape:cy="69.231557"
     inkscape:document-units="px"
     inkscape:current-layer="text10546"
     inkscape:window-width="1487"
     inkscape:window-height="1021"
     inkscape:window-x="0"
     inkscape:window-y="28"
     showgrid="false"
     inkscape:window-maximized="0"
     fit-margin-top="0"
     fit-margin-left="0"
     fit-margin-right="0"
     fit-margin-bottom="0" />
  <metadata
     id="metadata7">
    <rdf:RDF>
      <cc:Work
         rdf:about="">
        <dc:format>image/svg+xml</dc:format>
        <dc:type
           rdf:resource="http://purl.org/dc/dcmitype/StillImage" />
        <dc:title></dc:title>
        <dc:creator>
          <cc:Agent>
            <dc:title />
          </cc:Agent>
        </dc:creator>
        <dc:subject>
          <rdf:Bag />
        </dc:subject>
        <cc:license
           rdf:resource="http://creativecommons.org/licenses/publicdomain/" />
        <dc:description />
        <dc:contributor>
          <cc:Agent>
            <dc:title />
          </cc:Agent>
        </dc:contributor>
      </cc:Work>
      <cc:License
         rdf:about="http://creativecommons.org/licenses/publicdomain/">
        <cc:permits
           rdf:resource="http://creativecommons.org/ns#Reproduction" />
        <cc:permits
           rdf:resource="http://creativecommons.org/ns#Distribution" />
        <cc:permits
           rdf:resource="http://creativecommons.org/ns#DerivativeWorks" />
      </cc:License>
    </rdf:RDF>
  </metadata>
  <g
     inkscape:label="Layer 1"
     inkscape:groupmode="layer"
     id="layer1"
     transform="translate(-374.21785,422.78273)">
    <g
       style="font-size:1353.90222168px;font-style:italic;font-variant:normal;font-weight:normal;font-stretch:normal;line-height:125%;letter-spacing:0px;word-spacing:0px;fill:#000000;fill-opacity:1;stroke:none;font-family:Serif;-inkscape-font-specification:Serif Italic"
       id="text10546">
      <path
         inkscape:connector-curvature="0"
         d="m 1238.3323,569.22724 -740.24995,0 c -68.10301,0 -123.37501,-55.272 -123.37501,-123.37501 l 0,-740.25004 c 0,-68.103 55.272,-123.37501 123.37501,-123.37501 l 555.18745,0 -123.37489,123.37501 -370.12506,0 c -34.0515,0 -61.6875,27.63599 -61.6875,61.6875 l 0,616.87504 c 0,34.11319 27.636,61.6875 61.6875,61.6875 l 616.87495,0 c 34.1132,0 61.6875,-27.57431 61.6875,-61.6875 l 0,-370.125034 123.375,-123.375006 0,555.18754 c 0,68.10301 -55.272,123.37501 -123.375,123.37501 z m 0,-863.62505 c -47.6453,-42.15874 -47.8768,-41.56296 -61.6875,-123.37501 0,0 185.0625,-1.91231 185.0625,185.06251 -76.4328,-18.12176 -75.7297,-19.52876 -123.375,-61.6875 z m -555.18749,555.18753 0,-185.062524 c 99.76935,-7.597375 185.0626,90.194584 185.0626,185.062524 z M 1238.3323,-171.02281 929.89491,137.41471 806.51991,14.039696 1114.9573,-294.39781 z"
         id="path2989"
         sodipodi:nodetypes="sssssccssssssccsszcczccccccccc" />
    </g>
  </g>
</svg>
