<?xml version="1.0" encoding="UTF-8" standalone="no"?>
<!-- Created with Inkscape (http://www.inkscape.org/) -->

<svg
   xmlns:dc="http://purl.org/dc/elements/1.1/"
   xmlns:cc="http://creativecommons.org/ns#"
   xmlns:rdf="http://www.w3.org/1999/02/22-rdf-syntax-ns#"
   xmlns:svg="http://www.w3.org/2000/svg"
   xmlns="http://www.w3.org/2000/svg"
   xmlns:sodipodi="http://sodipodi.sourceforge.net/DTD/sodipodi-0.dtd"
   xmlns:inkscape="http://www.inkscape.org/namespaces/inkscape"
   width="987.97894"
   height="997.0191"
   id="svg2"
   sodipodi:version="0.32"
   inkscape:version="0.48.3.1 r9886"
   sodipodi:docname="view-mode.svg"
   version="1.0"
   inkscape:output_extension="org.inkscape.output.svg.inkscape">
  <defs
     id="defs4" />
  <sodipodi:namedview
     id="base"
     pagecolor="#ffffff"
     bordercolor="#666666"
     borderopacity="1.0"
     inkscape:pageopacity="0.0"
     inkscape:pageshadow="2"
     inkscape:zoom="0.45254834"
     inkscape:cx="564.78072"
     inkscape:cy="242.38832"
     inkscape:document-units="px"
     inkscape:current-layer="layer1"
     inkscape:window-width="1487"
     inkscape:window-height="1021"
     inkscape:window-x="0"
     inkscape:window-y="28"
     showgrid="false"
     inkscape:window-maximized="0"
     fit-margin-top="0"
     fit-margin-left="0"
     fit-margin-right="0"
     fit-margin-bottom="0" />
  <metadata
     id="metadata7">
    <rdf:RDF>
      <cc:Work
         rdf:about="">
        <dc:format>image/svg+xml</dc:format>
        <dc:type
           rdf:resource="http://purl.org/dc/dcmitype/StillImage" />
        <dc:title></dc:title>
        <dc:creator>
          <cc:Agent>
            <dc:title />
          </cc:Agent>
        </dc:creator>
        <dc:subject>
          <rdf:Bag />
        </dc:subject>
        <cc:license
           rdf:resource="http://creativecommons.org/licenses/publicdomain/" />
        <dc:description />
        <dc:contributor>
          <cc:Agent>
            <dc:title />
          </cc:Agent>
        </dc:contributor>
      </cc:Work>
      <cc:License
         rdf:about="http://creativecommons.org/licenses/publicdomain/">
        <cc:permits
           rdf:resource="http://creativecommons.org/ns#Reproduction" />
        <cc:permits
           rdf:resource="http://creativecommons.org/ns#Distribution" />
        <cc:permits
           rdf:resource="http://creativecommons.org/ns#DerivativeWorks" />
      </cc:License>
    </rdf:RDF>
  </metadata>
  <g
     inkscape:label="Layer 1"
     inkscape:groupmode="layer"
     id="layer1"
     transform="translate(-374.21785,422.78273)">
    <g
       id="g7517"
       transform="matrix(1.0522388,0,0,-1.0522388,342.08792,391.39846)">
      <path
         id="path7519"
         d="m 500,435 c 19.333,0 37.667,-3.5 55,-10.5 17.333,-7 32.333,-16.667 45,-29 12.667,-12.333 22.667,-26.667 30,-43 7.333,-16.333 11,-33.833 11,-52.5 0,-18.667 -3.66699,-36.167 -11,-52.5 -7.33301,-16.333 -17.333,-30.667 -30,-43 -12.667,-12.333 -27.667,-22 -45,-29 -17.334,-7 -35.668,-10.5 -55,-10.5 -19.333,0 -37.667,3.5 -55,10.5 -17.333,7 -32.333,16.667 -45,29 -12.667,12.333 -22.667,26.667 -30,43 -7.33301,16.333 -11,33.833 -11,52.5 0,18.667 3.66699,36.167 11,52.5 7.33301,16.334 17.333,30.667 30,43 12.667,12.333 27.667,22 45,29 17.334,7 35.668,10.5 55,10.5 z m 0,-346 c 30.667,0 59.334,5.5 86,16.5 26.667,11 50,26 70,45 20,19 35.833,41.333 47.5,67 11.667,25.667 17.5,53.167 17.5,82.5 0,29.333 -5.83301,56.833 -17.5,82.5 -11.66699,25.667 -27.5,48 -47.5,67 -20,19 -43.333,34 -70,45 -26.667,11 -55.333,16.5 -86,16.5 -30.668,0 -59.334,-5.5 -86,-16.5 -26.667,-11 -50,-26 -70,-45 -20,-19 -35.833,-41.333 -47.5,-67 C 284.833,356.833 279,329.333 279,300 c 0,-29.333 5.83301,-56.833 17.5,-82.5 11.66699,-25.667 27.5,-48 47.5,-67 20,-19 43.333,-34 70,-45 26.667,-11 55.333,-16.5 86,-16.5 z m 0,492 c 45.333,0 88.5,-5.33301 129.5,-16 41,-10.66699 78.833,-24.5 113.5,-41.5 34.667,-17 66,-36.167 94,-57.5 28,-21.333 51.833,-42.333 71.5,-63 19.667,-20.667 34.667,-40.167 45,-58.5 C 963.833,326.167 969,311.333 969,300 969,288.667 963.83301,273.833 953.5,255.5 943.167,237.167 928.167,217.667 908.5,197 888.833,176.333 865,155.333 837,134 809,112.667 777.667,93.5 743,76.5 708.333,59.5 670.5,45.6667 629.5,35 588.5,24.3333 545.333,19 500,19 c -46,0 -89.333,5.3333 -130,16 -40.667,10.6667 -78.334,24.5 -113,41.5 -34.667,17 -66,36.167 -94,57.5 -28,21.333 -51.833,42.333 -71.5,63 -19.6667,20.667 -34.6667,40.167 -45,58.5 C 36.1667,273.834 31,288.667 31,300 c 0,11.334 5.1667,26.167 15.5,44.5 10.3333,18.333 25.3333,37.833 45,58.5 19.667,20.667 43.5,41.667 71.5,63 28,21.333 59.333,40.5 94,57.5 34.667,17 72.333,30.833 113,41.5 40.667,10.667 84,16 130,16 z"
         inkscape:connector-curvature="0"
         style="fill:currentColor" />
    </g>
  </g>
</svg>
