<?xml version="1.0" encoding="UTF-8" standalone="no"?>
<!-- Created with Inkscape (http://www.inkscape.org/) -->

<svg
   xmlns:dc="http://purl.org/dc/elements/1.1/"
   xmlns:cc="http://creativecommons.org/ns#"
   xmlns:rdf="http://www.w3.org/1999/02/22-rdf-syntax-ns#"
   xmlns:svg="http://www.w3.org/2000/svg"
   xmlns="http://www.w3.org/2000/svg"
   xmlns:sodipodi="http://sodipodi.sourceforge.net/DTD/sodipodi-0.dtd"
   xmlns:inkscape="http://www.inkscape.org/namespaces/inkscape"
   width="512"
   height="512"
   id="svg2"
   sodipodi:version="0.32"
   inkscape:version="0.48.3.1 r9886"
   sodipodi:docname="file-edit-alt.svg"
   version="1.0"
   inkscape:output_extension="org.inkscape.output.svg.inkscape">
  <defs
     id="defs4" />
  <sodipodi:namedview
     id="base"
     pagecolor="#ffffff"
     bordercolor="#666666"
     borderopacity="1.0"
     inkscape:pageopacity="0.0"
     inkscape:pageshadow="2"
     inkscape:zoom="0.45254834"
     inkscape:cx="-141.08612"
     inkscape:cy="607.90701"
     inkscape:document-units="px"
     inkscape:current-layer="layer1"
     inkscape:window-width="1487"
     inkscape:window-height="1021"
     inkscape:window-x="0"
     inkscape:window-y="28"
     showgrid="false"
     inkscape:window-maximized="0"
     fit-margin-top="0"
     fit-margin-left="0"
     fit-margin-right="0"
     fit-margin-bottom="0" />
  <metadata
     id="metadata7">
    <rdf:RDF>
      <cc:Work
         rdf:about="">
        <dc:format>image/svg+xml</dc:format>
        <dc:type
           rdf:resource="http://purl.org/dc/dcmitype/StillImage" />
        <dc:title />
        <dc:creator>
          <cc:Agent>
            <dc:title />
          </cc:Agent>
        </dc:creator>
        <dc:subject>
          <rdf:Bag />
        </dc:subject>
        <cc:license
           rdf:resource="http://creativecommons.org/licenses/publicdomain/" />
        <dc:description />
        <dc:contributor>
          <cc:Agent>
            <dc:title />
          </cc:Agent>
        </dc:contributor>
      </cc:Work>
      <cc:License
         rdf:about="http://creativecommons.org/licenses/publicdomain/">
        <cc:permits
           rdf:resource="http://creativecommons.org/ns#Reproduction" />
        <cc:permits
           rdf:resource="http://creativecommons.org/ns#Distribution" />
        <cc:permits
           rdf:resource="http://creativecommons.org/ns#DerivativeWorks" />
      </cc:License>
    </rdf:RDF>
  </metadata>
  <g
     inkscape:label="Layer 1"
     inkscape:groupmode="layer"
     id="layer1"
     transform="translate(-374.21785,-62.236374)">
    <path
       style="fill:#000000;fill-opacity:1;stroke:none"
       d="m 630.21785,62.236374 c -141.38489,0 -256,114.615106 -256,255.999996 0,141.38489 114.61511,256 256,256 141.38489,0 256,-114.61511 256,-256 0,-141.38489 -114.61511,-255.999996 -256,-255.999996 z m -46.42756,97.199586 140.077,0.32422 c 5.15185,0.34026 8.57849,3.58324 8.64033,8.2999 l 0,64.08105 3.97163,-3.97163 c 2.40334,-2.19012 5.90704,-2.01383 7.97568,0 l 41.17528,41.49949 c 2.19008,2.40336 2.01382,5.907 0,7.97569 L 674.73254,388.54235 c -0.22147,0.22137 -0.88721,0.66519 -1.99392,1.32928 l -62.10334,20.0851 c -4.30437,0.8197 -7.56713,-3.81115 -6.30598,-7.47315 l 19.59878,-60.75785 c 0.22148,-0.88557 0.88722,-1.89228 1.99392,-2.99899 l 79.35157,-79.35157 0,-72.72137 -101.26849,0 0,54.12766 c 0,2.21373 -1.00672,3.3232 -2.99898,3.3232 l -54.77609,0 0,190.26545 159.04356,0 0,-42.50456 c 7.5249,-7.42729 14.85267,-14.20423 22.24114,-21.59271 1.77078,-1.77078 3.05109,-2.21484 3.82573,-1.32928 0.7747,0.88557 1.16718,2.11398 1.16718,3.66363 l 0,79.692 c -0.33599,5.33053 -3.66433,9.21925 -8.64033,9.28875 l -196.57143,0 c -5.22969,-0.37636 -8.243,-3.96719 -8.29989,-8.62411 l 0,-212.18237 0,-16.27559 0,-0.98885 c 0,-0.46617 0.25499,-0.57922 1.00506,-1.32928 l 63.78926,-62.75178 z m 54.40324,193.24823 -10.94225,34.20466 33.86424,-11.29888 -22.92199,-22.90578 z"
       id="path3044"
       inkscape:connector-curvature="0" />
  </g>
</svg>
