<?xml version="1.0" encoding="UTF-8" standalone="no"?>
<!-- Created with Inkscape (http://www.inkscape.org/) -->

<svg
   xmlns:dc="http://purl.org/dc/elements/1.1/"
   xmlns:cc="http://creativecommons.org/ns#"
   xmlns:rdf="http://www.w3.org/1999/02/22-rdf-syntax-ns#"
   xmlns:svg="http://www.w3.org/2000/svg"
   xmlns="http://www.w3.org/2000/svg"
   xmlns:sodipodi="http://sodipodi.sourceforge.net/DTD/sodipodi-0.dtd"
   xmlns:inkscape="http://www.inkscape.org/namespaces/inkscape"
   width="512"
   height="512"
   id="svg2"
   sodipodi:version="0.32"
   inkscape:version="0.48.3.1 r9886"
   sodipodi:docname="file-new-alt.svg"
   version="1.0"
   inkscape:output_extension="org.inkscape.output.svg.inkscape">
  <defs
     id="defs4" />
  <sodipodi:namedview
     id="base"
     pagecolor="#ffffff"
     bordercolor="#666666"
     borderopacity="1.0"
     inkscape:pageopacity="0.0"
     inkscape:pageshadow="2"
     inkscape:zoom="0.90509668"
     inkscape:cx="541.42526"
     inkscape:cy="60.689384"
     inkscape:document-units="px"
     inkscape:current-layer="layer1"
     inkscape:window-width="1920"
     inkscape:window-height="1025"
     inkscape:window-x="0"
     inkscape:window-y="27"
     showgrid="false"
     inkscape:window-maximized="1"
     fit-margin-top="0"
     fit-margin-left="0"
     fit-margin-right="0"
     fit-margin-bottom="0" />
  <metadata
     id="metadata7">
    <rdf:RDF>
      <cc:Work
         rdf:about="">
        <dc:format>image/svg+xml</dc:format>
        <dc:type
           rdf:resource="http://purl.org/dc/dcmitype/StillImage" />
        <dc:title />
        <dc:creator>
          <cc:Agent>
            <dc:title />
          </cc:Agent>
        </dc:creator>
        <dc:subject>
          <rdf:Bag />
        </dc:subject>
        <cc:license
           rdf:resource="http://creativecommons.org/licenses/publicdomain/" />
        <dc:description />
        <dc:contributor>
          <cc:Agent>
            <dc:title />
          </cc:Agent>
        </dc:contributor>
      </cc:Work>
      <cc:License
         rdf:about="http://creativecommons.org/licenses/publicdomain/">
        <cc:permits
           rdf:resource="http://creativecommons.org/ns#Reproduction" />
        <cc:permits
           rdf:resource="http://creativecommons.org/ns#Distribution" />
        <cc:permits
           rdf:resource="http://creativecommons.org/ns#DerivativeWorks" />
      </cc:License>
    </rdf:RDF>
  </metadata>
  <g
     inkscape:label="Layer 1"
     inkscape:groupmode="layer"
     id="layer1"
     transform="translate(-374.21785,-62.236374)">
    <path
       style="fill:#000000;fill-opacity:1;stroke:none"
       d="M 256 0 C 114.6151 3.7895613e-14 0 114.61511 0 256 C -3.7895613e-14 397.38489 114.6151 512 256 512 C 397.3849 512 512 397.38489 512 256 C 512 114.61511 397.3849 -7.5791225e-14 256 0 z M 198.09375 94.84375 L 335.84375 94.84375 C 340.08159 94.90192 343.59776 98.39107 344.03125 103.03125 L 344.03125 193.65625 L 317.40625 193.65625 L 317.40625 121.46875 L 218.09375 121.46875 L 218.09375 174.6875 C 218.09375 176.7355 217.07925 177.78125 215.03125 177.78125 L 161.25 177.78125 L 161.25 365.15625 L 278.5 365.15625 L 278.5 391.78125 L 142.8125 391.78125 C 138.57461 391.72309 135.05852 388.23394 134.625 383.59375 L 134.625 174.6875 L 134.625 157.8125 C 134.625 157.471 134.97375 156.96375 135.65625 156.28125 L 198.09375 94.84375 z M 312.3125 222.3125 L 351.71875 222.3125 C 354.44925 222.3125 355.8125 223.8655 355.8125 226.9375 L 355.8125 283.25 L 412.125 283.25 C 415.197 283.25 416.75 284.61326 416.75 287.34375 L 416.75 326.78125 C 416.75 329.51174 415.197 330.875 412.125 330.875 L 355.8125 330.875 L 355.8125 387.1875 C 355.8125 390.2595 354.44925 391.78125 351.71875 391.78125 L 312.3125 391.78125 C 309.582 391.78125 308.1875 390.2595 308.1875 387.1875 L 308.1875 330.875 L 251.375 330.875 C 248.6445 330.875 247.28125 329.51174 247.28125 326.78125 L 247.28125 287.34375 C 247.28125 284.61326 248.6445 283.25 251.375 283.25 L 308.1875 283.25 L 308.1875 226.9375 C 308.1875 223.8655 309.582 222.3125 312.3125 222.3125 z "
       transform="translate(374.21785,62.236374)"
       id="path3018" />
  </g>
</svg>
