<?xml version="1.0" encoding="UTF-8" standalone="no"?>
<!-- Created with Inkscape (http://www.inkscape.org/) -->

<svg
   xmlns:dc="http://purl.org/dc/elements/1.1/"
   xmlns:cc="http://creativecommons.org/ns#"
   xmlns:rdf="http://www.w3.org/1999/02/22-rdf-syntax-ns#"
   xmlns:svg="http://www.w3.org/2000/svg"
   xmlns="http://www.w3.org/2000/svg"
   xmlns:sodipodi="http://sodipodi.sourceforge.net/DTD/sodipodi-0.dtd"
   xmlns:inkscape="http://www.inkscape.org/namespaces/inkscape"
   width="987.97894"
   height="997.0191"
   id="svg2"
   sodipodi:version="0.32"
   inkscape:version="0.48.3.1 r9886"
   sodipodi:docname="file.svg"
   version="1.0"
   inkscape:output_extension="org.inkscape.output.svg.inkscape">
  <defs
     id="defs4" />
  <sodipodi:namedview
     id="base"
     pagecolor="#ffffff"
     bordercolor="#666666"
     borderopacity="1.0"
     inkscape:pageopacity="0.0"
     inkscape:pageshadow="2"
     inkscape:zoom="0.64"
     inkscape:cx="36.215379"
     inkscape:cy="425.62412"
     inkscape:document-units="px"
     inkscape:current-layer="layer1"
     inkscape:window-width="1920"
     inkscape:window-height="1025"
     inkscape:window-x="0"
     inkscape:window-y="27"
     showgrid="false"
     inkscape:window-maximized="1"
     fit-margin-top="0"
     fit-margin-left="0"
     fit-margin-right="0"
     fit-margin-bottom="0" />
  <metadata
     id="metadata7">
    <rdf:RDF>
      <cc:Work
         rdf:about="">
        <dc:format>image/svg+xml</dc:format>
        <dc:type
           rdf:resource="http://purl.org/dc/dcmitype/StillImage" />
        <dc:title></dc:title>
        <dc:creator>
          <cc:Agent>
            <dc:title />
          </cc:Agent>
        </dc:creator>
        <dc:subject>
          <rdf:Bag />
        </dc:subject>
        <cc:license
           rdf:resource="http://creativecommons.org/licenses/publicdomain/" />
        <dc:description />
        <dc:contributor>
          <cc:Agent>
            <dc:title />
          </cc:Agent>
        </dc:contributor>
      </cc:Work>
      <cc:License
         rdf:about="http://creativecommons.org/licenses/publicdomain/">
        <cc:permits
           rdf:resource="http://creativecommons.org/ns#Reproduction" />
        <cc:permits
           rdf:resource="http://creativecommons.org/ns#Distribution" />
        <cc:permits
           rdf:resource="http://creativecommons.org/ns#DerivativeWorks" />
      </cc:License>
    </rdf:RDF>
  </metadata>
  <g
     inkscape:label="Layer 1"
     inkscape:groupmode="layer"
     id="layer1"
     transform="translate(-374.21785,422.78273)">
    <g
       id="g3659"
       transform="matrix(0.987,0,0,-0.987,374.70732,371.82682)">
      <path
         id="path3661"
         d="m 500,-200 c -46,0 -90.333,6 -133,18 -42.667,12 -82.5,28.833 -119.5,50.5 -37,21.667 -70.667,47.6667 -101,78 -30.333,30.3333 -56.3333,64 -78,101 C 46.8333,84.5 30,124.333 18,167 6,209.667 0,254 0,300 c 0,46 6,90.333 18,133 12,42.667 28.8333,82.5 50.5,119.5 21.6667,37 47.667,70.667 78,101 30.333,30.333 64,56.333 101,78 37,21.667 76.833,38.5 119.5,50.5 42.667,12 87,18 133,18 68.667,0 133.5,-13.167 194.5,-39.5 61,-26.333 114,-62 159,-107 45,-45 80.667,-98 107,-159 26.333,-61 39.5,-125.833 39.5,-194.5 0,-46 -6,-90.333 -18,-133 -12,-42.667 -28.833,-82.5 -50.5,-119.5 -21.667,-37 -47.667,-70.6667 -78,-101 -30.333,-30.3333 -64,-56.333 -101,-78 -37,-21.667 -76.833,-38.5 -119.5,-50.5 -42.667,-12 -87,-18 -133,-18 z M 644,547 H 481 c -3.33301,0 -6.5,-1.5 -9.5,-4.5 -3,-3 -4.5,-6.16699 -4.5,-9.5 V 402 c 0,-5.33301 -1.66699,-9.83301 -5,-13.5 -3.33301,-3.66699 -7.66699,-5.5 -13,-5.5 H 317 c -4,0 -7.33301,-1.5 -10,-4.5 -2.66699,-3 -4,-6.16699 -4,-9.5 V 58 c 0,-9.3333 4.66699,-14 14,-14 h 327 c 9.33301,0 14,4.6667 14,14 v 475 c 0,3.33301 -1.33301,6.5 -4,9.5 -2.66699,3 -6,4.5 -10,4.5 z M 421,423 c 3.33301,0 5,1.66699 5,5 v 115 c 0,3.33301 -1.66699,5 -5,5 h -23 c -1.33301,0 -2.16699,-0.16699 -2.5,-0.5 -0.33301,-0.33301 -0.83301,-0.5 -1.5,-0.5 l -92,-91 c -1.33301,-1.33301 -2,-2.66699 -2,-4 v -24 c 0,-3.33301 1.66699,-5 5,-5 h 116 z"
         inkscape:connector-curvature="0"
         style="fill:currentColor" />
    </g>
  </g>
</svg>
