<?xml version="1.0" encoding="UTF-8" standalone="no"?>
<!-- Created with Inkscape (http://www.inkscape.org/) -->

<svg
   xmlns:dc="http://purl.org/dc/elements/1.1/"
   xmlns:cc="http://creativecommons.org/ns#"
   xmlns:rdf="http://www.w3.org/1999/02/22-rdf-syntax-ns#"
   xmlns:svg="http://www.w3.org/2000/svg"
   xmlns="http://www.w3.org/2000/svg"
   xmlns:sodipodi="http://sodipodi.sourceforge.net/DTD/sodipodi-0.dtd"
   xmlns:inkscape="http://www.inkscape.org/namespaces/inkscape"
   width="512"
   height="512"
   id="svg2"
   sodipodi:version="0.32"
   inkscape:version="0.48.3.1 r9886"
   sodipodi:docname="file-edit.svg"
   version="1.0"
   inkscape:output_extension="org.inkscape.output.svg.inkscape">
  <defs
     id="defs4" />
  <sodipodi:namedview
     id="base"
     pagecolor="#ffffff"
     bordercolor="#666666"
     borderopacity="1.0"
     inkscape:pageopacity="0.0"
     inkscape:pageshadow="2"
     inkscape:zoom="0.45254834"
     inkscape:cx="532.01031"
     inkscape:cy="540.11024"
     inkscape:document-units="px"
     inkscape:current-layer="layer1"
     inkscape:window-width="1487"
     inkscape:window-height="1021"
     inkscape:window-x="0"
     inkscape:window-y="28"
     showgrid="false"
     inkscape:window-maximized="0"
     fit-margin-top="0"
     fit-margin-left="0"
     fit-margin-right="0"
     fit-margin-bottom="0" />
  <metadata
     id="metadata7">
    <rdf:RDF>
      <cc:Work
         rdf:about="">
        <dc:format>image/svg+xml</dc:format>
        <dc:type
           rdf:resource="http://purl.org/dc/dcmitype/StillImage" />
        <dc:title />
        <dc:creator>
          <cc:Agent>
            <dc:title />
          </cc:Agent>
        </dc:creator>
        <dc:subject>
          <rdf:Bag />
        </dc:subject>
        <cc:license
           rdf:resource="http://creativecommons.org/licenses/publicdomain/" />
        <dc:description />
        <dc:contributor>
          <cc:Agent>
            <dc:title />
          </cc:Agent>
        </dc:contributor>
      </cc:Work>
      <cc:License
         rdf:about="http://creativecommons.org/licenses/publicdomain/">
        <cc:permits
           rdf:resource="http://creativecommons.org/ns#Reproduction" />
        <cc:permits
           rdf:resource="http://creativecommons.org/ns#Distribution" />
        <cc:permits
           rdf:resource="http://creativecommons.org/ns#DerivativeWorks" />
      </cc:License>
    </rdf:RDF>
  </metadata>
  <g
     inkscape:label="Layer 1"
     inkscape:groupmode="layer"
     id="layer1"
     transform="translate(-374.21785,-62.236374)">
    <g
       id="g4791"
       transform="matrix(0.56263736,0,0,-0.56263736,323.65085,495.46714)">
      <path
         id="path4793"
         d="M 569,119 500,188 467,85 z m 375,319 c 6.59586,-7.23807 6.06496,-17.76985 0,-24 L 610,80 c -0.66699,-0.666702 -2.66699,-2 -6,-4 L 417,15.5 C 404.03677,13.031362 394.20187,26.971385 398,38 l 59,183 c 0.66699,2.66701 2.66699,5.66701 6,9 l 239,239 0,219 -305,0 0,-163 c 0,-6.66699 -3,-10 -9,-10 l -165,0 0,-573 479,0 0,128 c 22.66233,22.368353 44.74855,42.74855 67,65 5.33301,5.33299 9.16699,6.66701 11.5,4 2.33301,-2.66701 3.5,-6.33299 3.5,-11 l 0,-240 c -1.01181,-16.05368 -11.0142,-27.7907 -26,-28 l -592,0 c -15.74999,1.13347 -24.82865,11.975 -25,26 l 0,639 0,49 0,3 c 0,1.40392 0.74105,1.74105 3,4 L 336.12838,770 758,769 c 15.51547,-1.02475 25.81387,-10.7951 26,-25 l 0,-193 12,12 c 7.23807,6.59586 17.76985,6.06496 24,0 z"
         inkscape:connector-curvature="0"
         style="fill:currentColor"
         sodipodi:nodetypes="cccccccccccscccsscccccssccccccccccccccc" />
    </g>
  </g>
</svg>
