<?xml version="1.0" encoding="UTF-8" standalone="no"?>
<!-- Created with Inkscape (http://www.inkscape.org/) -->

<svg
   xmlns:dc="http://purl.org/dc/elements/1.1/"
   xmlns:cc="http://creativecommons.org/ns#"
   xmlns:rdf="http://www.w3.org/1999/02/22-rdf-syntax-ns#"
   xmlns:svg="http://www.w3.org/2000/svg"
   xmlns="http://www.w3.org/2000/svg"
   xmlns:sodipodi="http://sodipodi.sourceforge.net/DTD/sodipodi-0.dtd"
   xmlns:inkscape="http://www.inkscape.org/namespaces/inkscape"
   width="987.97894"
   height="997.0191"
   id="svg2"
   sodipodi:version="0.32"
   inkscape:version="0.48.3.1 r9886"
   sodipodi:docname="file-new-alt.svg"
   version="1.0"
   inkscape:output_extension="org.inkscape.output.svg.inkscape">
  <defs
     id="defs4" />
  <sodipodi:namedview
     id="base"
     pagecolor="#ffffff"
     bordercolor="#666666"
     borderopacity="1.0"
     inkscape:pageopacity="0.0"
     inkscape:pageshadow="2"
     inkscape:zoom="0.45254834"
     inkscape:cx="184.71082"
     inkscape:cy="352.87375"
     inkscape:document-units="px"
     inkscape:current-layer="layer1"
     inkscape:window-width="1487"
     inkscape:window-height="1021"
     inkscape:window-x="0"
     inkscape:window-y="28"
     showgrid="false"
     inkscape:window-maximized="0"
     fit-margin-top="0"
     fit-margin-left="0"
     fit-margin-right="0"
     fit-margin-bottom="0" />
  <metadata
     id="metadata7">
    <rdf:RDF>
      <cc:Work
         rdf:about="">
        <dc:format>image/svg+xml</dc:format>
        <dc:type
           rdf:resource="http://purl.org/dc/dcmitype/StillImage" />
        <dc:title></dc:title>
        <dc:creator>
          <cc:Agent>
            <dc:title />
          </cc:Agent>
        </dc:creator>
        <dc:subject>
          <rdf:Bag />
        </dc:subject>
        <cc:license
           rdf:resource="http://creativecommons.org/licenses/publicdomain/" />
        <dc:description />
        <dc:contributor>
          <cc:Agent>
            <dc:title />
          </cc:Agent>
        </dc:contributor>
      </cc:Work>
      <cc:License
         rdf:about="http://creativecommons.org/licenses/publicdomain/">
        <cc:permits
           rdf:resource="http://creativecommons.org/ns#Reproduction" />
        <cc:permits
           rdf:resource="http://creativecommons.org/ns#Distribution" />
        <cc:permits
           rdf:resource="http://creativecommons.org/ns#DerivativeWorks" />
      </cc:License>
    </rdf:RDF>
  </metadata>
  <g
     inkscape:label="Layer 1"
     inkscape:groupmode="layer"
     id="layer1"
     transform="translate(-374.21785,422.78273)">
    <g
       id="g4791"
       transform="matrix(1.0846154,0,0,-1.0846154,277.09193,417.38067)">
      <path
         id="path4793"
         d="M 569,119 500,188 467,85 z m 375,319 c 3.33301,-3.33301 5,-7.33301 5,-12 0,-4.66699 -1.66699,-8.66699 -5,-12 L 610,80 c -0.66699,-0.666702 -2.66699,-2 -6,-4 L 419,16 c -0.67001,0 -1.33701,-0.1667 -2,-0.5 -0.66699,-0.3333 -1.66699,-0.5 -3,-0.5 -4.66699,0 -8.66699,1.6667 -12,5 -5.33301,4.6667 -6.66699,10.6667 -4,18 l 59,183 c 0.66699,2.66701 2.66699,5.66701 6,9 L 702,469 V 688 H 397 V 525 c 0,-6.66699 -3,-10 -9,-10 H 223 V -58 H 343 582 702 V 70 c 14.667,14 26.167,25.1667 34.5,33.5 8.33301,8.333 15.167,14.833 20.5,19.5 l 12,12 c 5.33301,5.33299 9.16699,6.66701 11.5,4 2.33301,-2.66701 3.5,-6.33299 3.5,-11 v -240 c 0,-8 -2.5,-14.667 -7.5,-20 -5,-5.33299 -11.167,-8 -18.5,-8 H 582 343 166 c -7.33299,0 -13.333,2.5 -18,7.5 -4.667,5 -7,11.167 -7,18.5 v 639 49 3 h 1 c 0,1.33301 0.66701,2.66699 2,4 l 188,185 v 3 h 6 c 0.66699,0.66699 1.33301,1 2,1 h 48 l 2,-1 h 368 c 7.33301,0 13.5,-2.33301 18.5,-7 5,-4.66699 7.5,-10.667 7.5,-18 V 551 l 12,12 c 3.33301,3.33301 7.33301,5 12,5 4.66699,0 8.66699,-1.66699 12,-5 z"
         inkscape:connector-curvature="0"
         style="fill:currentColor" />
    </g>
  </g>
</svg>
