<?xml version="1.0" encoding="UTF-8" standalone="no"?>
<!-- Created with Inkscape (http://www.inkscape.org/) -->

<svg
   xmlns:dc="http://purl.org/dc/elements/1.1/"
   xmlns:cc="http://creativecommons.org/ns#"
   xmlns:rdf="http://www.w3.org/1999/02/22-rdf-syntax-ns#"
   xmlns:svg="http://www.w3.org/2000/svg"
   xmlns="http://www.w3.org/2000/svg"
   xmlns:sodipodi="http://sodipodi.sourceforge.net/DTD/sodipodi-0.dtd"
   xmlns:inkscape="http://www.inkscape.org/namespaces/inkscape"
   width="512"
   height="512"
   id="svg2"
   sodipodi:version="0.32"
   inkscape:version="0.48.3.1 r9886"
   sodipodi:docname="film.svg"
   version="1.0"
   inkscape:output_extension="org.inkscape.output.svg.inkscape">
  <defs
     id="defs4" />
  <sodipodi:namedview
     id="base"
     pagecolor="#ffffff"
     bordercolor="#666666"
     borderopacity="1.0"
     inkscape:pageopacity="0.0"
     inkscape:pageshadow="2"
     inkscape:zoom="0.45254834"
     inkscape:cx="303.15191"
     inkscape:cy="525.50559"
     inkscape:document-units="px"
     inkscape:current-layer="layer1"
     inkscape:window-width="1487"
     inkscape:window-height="1021"
     inkscape:window-x="0"
     inkscape:window-y="28"
     showgrid="false"
     inkscape:window-maximized="0"
     fit-margin-top="0"
     fit-margin-left="0"
     fit-margin-right="0"
     fit-margin-bottom="0" />
  <metadata
     id="metadata7">
    <rdf:RDF>
      <cc:Work
         rdf:about="">
        <dc:format>image/svg+xml</dc:format>
        <dc:type
           rdf:resource="http://purl.org/dc/dcmitype/StillImage" />
        <dc:title />
        <dc:creator>
          <cc:Agent>
            <dc:title />
          </cc:Agent>
        </dc:creator>
        <dc:subject>
          <rdf:Bag />
        </dc:subject>
        <cc:license
           rdf:resource="http://creativecommons.org/licenses/publicdomain/" />
        <dc:description />
        <dc:contributor>
          <cc:Agent>
            <dc:title />
          </cc:Agent>
        </dc:contributor>
      </cc:Work>
      <cc:License
         rdf:about="http://creativecommons.org/licenses/publicdomain/">
        <cc:permits
           rdf:resource="http://creativecommons.org/ns#Reproduction" />
        <cc:permits
           rdf:resource="http://creativecommons.org/ns#Distribution" />
        <cc:permits
           rdf:resource="http://creativecommons.org/ns#DerivativeWorks" />
      </cc:License>
    </rdf:RDF>
  </metadata>
  <g
     inkscape:label="Layer 1"
     inkscape:groupmode="layer"
     id="layer1"
     transform="translate(-374.21785,-62.236374)">
    <path
       inkscape:connector-curvature="0"
       d="m 838.21782,62.236374 -415.99996,0 c -8.832,0 -16,7.168 -16,16 l 0,479.999996 c 0,8.848 7.168,16 16,16 l 415.99996,0 c 8.848,0 16.00002,-7.152 16.00002,-16 l 0,-479.999996 c 0,-8.832 -7.15202,-16 -16.00002,-16 z M 454.21786,510.23637 c -8.832,0 -16,-7.152 -16,-16 0,-8.848 7.168,-16 16,-16 8.832,0 16,7.152 16,16 0,8.848 -7.168,16 -16,16 z m 0,-64.00001 c -8.832,0 -16,-7.15199 -16,-16 0,-8.84799 7.168,-16 16,-16 8.832,0 16,7.15201 16,16 0,8.84801 -7.168,16 -16,16 z m 0,-64 c -8.832,0 -16,-7.15199 -16,-16 0,-8.84799 7.168,-16 16,-16 8.832,0 16,7.15201 16,16 0,8.84801 -7.168,16 -16,16 z m 0,-63.99999 c -8.832,0 -16,-7.168 -16,-16 0,-8.832 7.168,-16 16,-16 8.832,0 16,7.168 16,16 0,8.832 -7.168,16 -16,16 z m 0,-64 c -8.832,0 -16,-7.168 -16,-16 0,-8.832 7.168,-16 16,-16 8.832,0 16,7.168 16,16 0,8.832 -7.168,16 -16,16 z m 0,-64 c -8.832,0 -16,-7.168 -16,-16 0,-8.832 7.168,-16 16,-16 8.832,0 16,7.168 16,16 0,8.832 -7.168,16 -16,16 z m 0,-64 c -8.832,0 -16,-7.168 -16,-16 0,-8.832 7.168,-15.999996 16,-15.999996 8.832,0 16,7.167996 16,15.999996 0,8.832 -7.168,16 -16,16 z m 303.99998,400 c 0,8.848 -7.15197,16 -15.99997,16 l -224.00001,0 c -8.832,0 -16,-7.152 -16,-16 l 0,-160.00001 c 0,-8.84799 7.168,-16 16,-16 l 224.00001,0 c 8.848,0 15.99997,7.15201 15.99997,16 l 0,160.00001 z m 0,-224 c 0,8.832 -7.15197,16 -15.99997,16 l -224.00001,0 c -8.832,0 -16,-7.168 -16,-16 l 0,-192 c 0,-8.832 7.168,-15.999996 16,-15.999996 l 224.00001,0 c 8.848,0 15.99997,7.167996 15.99997,15.999996 l 0,192 z m 47.99998,208 c -8.848,0 -15.99998,-7.152 -15.99998,-16 0,-8.848 7.15198,-16 15.99998,-16 8.848,0 16.00002,7.152 16.00002,16 0,8.848 -7.15202,16 -16.00002,16 z m 0,-64.00001 c -8.848,0 -15.99998,-7.15199 -15.99998,-16 0,-8.84799 7.15198,-16 15.99998,-16 8.848,0 16.00002,7.15201 16.00002,16 0,8.84801 -7.15202,16 -16.00002,16 z m 0,-64 c -8.848,0 -15.99998,-7.15199 -15.99998,-16 0,-8.84799 7.15198,-16 15.99998,-16 8.848,0 16.00002,7.15201 16.00002,16 0,8.84801 -7.15202,16 -16.00002,16 z m 0,-63.99999 c -8.848,0 -15.99998,-7.168 -15.99998,-16 0,-8.832 7.15198,-16 15.99998,-16 8.848,0 16.00002,7.168 16.00002,16 0,8.832 -7.15202,16 -16.00002,16 z m 0,-64 c -8.848,0 -15.99998,-7.168 -15.99998,-16 0,-8.832 7.15198,-16 15.99998,-16 8.848,0 16.00002,7.168 16.00002,16 0,8.832 -7.15202,16 -16.00002,16 z m 0,-64 c -8.848,0 -15.99998,-7.168 -15.99998,-16 0,-8.832 7.15198,-16 15.99998,-16 8.848,0 16.00002,7.168 16.00002,16 0,8.832 -7.15202,16 -16.00002,16 z m 0,-64 c -8.848,0 -15.99998,-7.168 -15.99998,-16 0,-8.832 7.15198,-15.999996 15.99998,-15.999996 8.848,0 16.00002,7.167996 16.00002,15.999996 0,8.832 -7.15202,16 -16.00002,16 z"
       id="path4" />
  </g>
</svg>
