<?xml version="1.0" encoding="UTF-8" standalone="no"?>
<!-- Created with Inkscape (http://www.inkscape.org/) -->

<svg
   xmlns:dc="http://purl.org/dc/elements/1.1/"
   xmlns:cc="http://creativecommons.org/ns#"
   xmlns:rdf="http://www.w3.org/1999/02/22-rdf-syntax-ns#"
   xmlns:svg="http://www.w3.org/2000/svg"
   xmlns="http://www.w3.org/2000/svg"
   xmlns:sodipodi="http://sodipodi.sourceforge.net/DTD/sodipodi-0.dtd"
   xmlns:inkscape="http://www.inkscape.org/namespaces/inkscape"
   width="987.97894"
   height="997.0191"
   id="svg2"
   sodipodi:version="0.32"
   inkscape:version="0.48.3.1 r9886"
   sodipodi:docname="user.svg"
   version="1.0"
   inkscape:output_extension="org.inkscape.output.svg.inkscape">
  <defs
     id="defs4" />
  <sodipodi:namedview
     id="base"
     pagecolor="#ffffff"
     bordercolor="#666666"
     borderopacity="1.0"
     inkscape:pageopacity="0.0"
     inkscape:pageshadow="2"
     inkscape:zoom="0.45254834"
     inkscape:cx="566.10724"
     inkscape:cy="525.50559"
     inkscape:document-units="px"
     inkscape:current-layer="layer1"
     inkscape:window-width="1487"
     inkscape:window-height="1021"
     inkscape:window-x="0"
     inkscape:window-y="28"
     showgrid="false"
     inkscape:window-maximized="0"
     fit-margin-top="0"
     fit-margin-left="0"
     fit-margin-right="0"
     fit-margin-bottom="0" />
  <metadata
     id="metadata7">
    <rdf:RDF>
      <cc:Work
         rdf:about="">
        <dc:format>image/svg+xml</dc:format>
        <dc:type
           rdf:resource="http://purl.org/dc/dcmitype/StillImage" />
        <dc:title></dc:title>
        <dc:creator>
          <cc:Agent>
            <dc:title />
          </cc:Agent>
        </dc:creator>
        <dc:subject>
          <rdf:Bag />
        </dc:subject>
        <cc:license
           rdf:resource="http://creativecommons.org/licenses/publicdomain/" />
        <dc:description />
        <dc:contributor>
          <cc:Agent>
            <dc:title />
          </cc:Agent>
        </dc:contributor>
      </cc:Work>
      <cc:License
         rdf:about="http://creativecommons.org/licenses/publicdomain/">
        <cc:permits
           rdf:resource="http://creativecommons.org/ns#Reproduction" />
        <cc:permits
           rdf:resource="http://creativecommons.org/ns#Distribution" />
        <cc:permits
           rdf:resource="http://creativecommons.org/ns#DerivativeWorks" />
      </cc:License>
    </rdf:RDF>
  </metadata>
  <g
     inkscape:label="Layer 1"
     inkscape:groupmode="layer"
     id="layer1"
     transform="translate(-374.21785,422.78273)">
    <path
       inkscape:connector-curvature="0"
       d="m 1269.176,-417.77318 -801.93742,0 c -17.02575,0 -30.84375,13.818 -30.84375,30.84375 l 0,925.3125 c 0,17.05659 13.818,30.84375 30.84375,30.84375 l 801.93742,0 c 17.0566,0 30.8438,-13.78716 30.8438,-30.84375 l 0,-925.3125 c 0,-17.02575 -13.7872,-30.84375 -30.8438,-30.84375 z m -740.24992,863.625 c -17.02575,0 -30.84375,-13.78715 -30.84375,-30.84375 0,-17.05659 13.818,-30.84375 30.84375,-30.84375 17.02575,0 30.84375,13.78716 30.84375,30.84375 0,17.0566 -13.818,30.84375 -30.84375,30.84375 z m 0,-123.37501 c -17.02575,0 -30.84375,-13.78715 -30.84375,-30.84375 0,-17.05659 13.818,-30.84375 30.84375,-30.84375 17.02575,0 30.84375,13.78716 30.84375,30.84375 0,17.0566 -13.818,30.84375 -30.84375,30.84375 z m 0,-123.375 c -17.02575,0 -30.84375,-13.78715 -30.84375,-30.84375 0,-17.05659 13.818,-30.84375 30.84375,-30.84375 17.02575,0 30.84375,13.78716 30.84375,30.84375 0,17.0566 -13.818,30.84375 -30.84375,30.84375 z m 0,-123.374998 c -17.02575,0 -30.84375,-13.818 -30.84375,-30.84375 0,-17.02575 13.818,-30.84375 30.84375,-30.84375 17.02575,0 30.84375,13.818 30.84375,30.84375 0,17.02575 -13.818,30.84375 -30.84375,30.84375 z m 0,-123.37499 c -17.02575,0 -30.84375,-13.818 -30.84375,-30.84375 0,-17.02575 13.818,-30.843752 30.84375,-30.843752 17.02575,0 30.84375,13.818002 30.84375,30.843752 0,17.02575 -13.818,30.84375 -30.84375,30.84375 z m 0,-123.375002 c -17.02575,0 -30.84375,-13.818 -30.84375,-30.84375 0,-17.02575 13.818,-30.84375 30.84375,-30.84375 17.02575,0 30.84375,13.818 30.84375,30.84375 0,17.02575 -13.818,30.84375 -30.84375,30.84375 z m 0,-123.375 c -17.02575,0 -30.84375,-13.818 -30.84375,-30.84375 0,-17.02575 13.818,-30.84375 30.84375,-30.84375 17.02575,0 30.84375,13.818 30.84375,30.84375 0,17.02575 -13.818,30.84375 -30.84375,30.84375 z m 586.03122,771.09375 c 0,17.05659 -13.7871,30.84375 -30.8437,30.84375 l -431.81252,0 c -17.02575,0 -30.84375,-13.78716 -30.84375,-30.84375 l 0,-308.43751 c 0,-17.05659 13.818,-30.84375 30.84375,-30.84375 l 431.81252,0 c 17.0566,0 30.8437,13.78716 30.8437,30.84375 l 0,308.43751 z m 0,-431.812508 c 0,17.02575 -13.7871,30.84375 -30.8437,30.84375 l -431.81252,0 c -17.02575,0 -30.84375,-13.818 -30.84375,-30.84375 l 0,-370.124992 c 0,-17.02575 13.818,-30.84375 30.84375,-30.84375 l 431.81252,0 c 17.0566,0 30.8437,13.818 30.8437,30.84375 l 0,370.124992 z m 92.5312,400.968758 c -17.0566,0 -30.8437,-13.78715 -30.8437,-30.84375 0,-17.05659 13.7871,-30.84375 30.8437,-30.84375 17.0566,0 30.8438,13.78716 30.8438,30.84375 0,17.0566 -13.7872,30.84375 -30.8438,30.84375 z m 0,-123.37501 c -17.0566,0 -30.8437,-13.78715 -30.8437,-30.84375 0,-17.05659 13.7871,-30.84375 30.8437,-30.84375 17.0566,0 30.8438,13.78716 30.8438,30.84375 0,17.0566 -13.7872,30.84375 -30.8438,30.84375 z m 0,-123.375 c -17.0566,0 -30.8437,-13.78715 -30.8437,-30.84375 0,-17.05659 13.7871,-30.84375 30.8437,-30.84375 17.0566,0 30.8438,13.78716 30.8438,30.84375 0,17.0566 -13.7872,30.84375 -30.8438,30.84375 z m 0,-123.374998 c -17.0566,0 -30.8437,-13.818 -30.8437,-30.84375 0,-17.02575 13.7871,-30.84375 30.8437,-30.84375 17.0566,0 30.8438,13.818 30.8438,30.84375 0,17.02575 -13.7872,30.84375 -30.8438,30.84375 z m 0,-123.37499 c -17.0566,0 -30.8437,-13.818 -30.8437,-30.84375 0,-17.02575 13.7871,-30.843752 30.8437,-30.843752 17.0566,0 30.8438,13.818002 30.8438,30.843752 0,17.02575 -13.7872,30.84375 -30.8438,30.84375 z m 0,-123.375002 c -17.0566,0 -30.8437,-13.818 -30.8437,-30.84375 0,-17.02575 13.7871,-30.84375 30.8437,-30.84375 17.0566,0 30.8438,13.818 30.8438,30.84375 0,17.02575 -13.7872,30.84375 -30.8438,30.84375 z m 0,-123.375 c -17.0566,0 -30.8437,-13.818 -30.8437,-30.84375 0,-17.02575 13.7871,-30.84375 30.8437,-30.84375 17.0566,0 30.8438,13.818 30.8438,30.84375 0,17.02575 -13.7872,30.84375 -30.8438,30.84375 z"
       id="path4" />
  </g>
</svg>
