<?xml version="1.0" encoding="UTF-8" standalone="no"?>
<!-- Created with Inkscape (http://www.inkscape.org/) -->

<svg
   xmlns:dc="http://purl.org/dc/elements/1.1/"
   xmlns:cc="http://creativecommons.org/ns#"
   xmlns:rdf="http://www.w3.org/1999/02/22-rdf-syntax-ns#"
   xmlns:svg="http://www.w3.org/2000/svg"
   xmlns="http://www.w3.org/2000/svg"
   xmlns:sodipodi="http://sodipodi.sourceforge.net/DTD/sodipodi-0.dtd"
   xmlns:inkscape="http://www.inkscape.org/namespaces/inkscape"
   width="987.97894"
   height="997.0191"
   id="svg2"
   sodipodi:version="0.32"
   inkscape:version="0.48.3.1 r9886"
   sodipodi:docname="compass-alt.svg"
   version="1.0"
   inkscape:output_extension="org.inkscape.output.svg.inkscape">
  <defs
     id="defs4" />
  <sodipodi:namedview
     id="base"
     pagecolor="#ffffff"
     bordercolor="#666666"
     borderopacity="1.0"
     inkscape:pageopacity="0.0"
     inkscape:pageshadow="2"
     inkscape:zoom="0.45254834"
     inkscape:cx="564.78072"
     inkscape:cy="153.99997"
     inkscape:document-units="px"
     inkscape:current-layer="layer1"
     inkscape:window-width="1487"
     inkscape:window-height="1021"
     inkscape:window-x="0"
     inkscape:window-y="28"
     showgrid="false"
     inkscape:window-maximized="0"
     fit-margin-top="0"
     fit-margin-left="0"
     fit-margin-right="0"
     fit-margin-bottom="0" />
  <metadata
     id="metadata7">
    <rdf:RDF>
      <cc:Work
         rdf:about="">
        <dc:format>image/svg+xml</dc:format>
        <dc:type
           rdf:resource="http://purl.org/dc/dcmitype/StillImage" />
        <dc:title></dc:title>
        <dc:creator>
          <cc:Agent>
            <dc:title />
          </cc:Agent>
        </dc:creator>
        <dc:subject>
          <rdf:Bag />
        </dc:subject>
        <cc:license
           rdf:resource="http://creativecommons.org/licenses/publicdomain/" />
        <dc:description />
        <dc:contributor>
          <cc:Agent>
            <dc:title />
          </cc:Agent>
        </dc:contributor>
      </cc:Work>
      <cc:License
         rdf:about="http://creativecommons.org/licenses/publicdomain/">
        <cc:permits
           rdf:resource="http://creativecommons.org/ns#Reproduction" />
        <cc:permits
           rdf:resource="http://creativecommons.org/ns#Distribution" />
        <cc:permits
           rdf:resource="http://creativecommons.org/ns#DerivativeWorks" />
      </cc:License>
    </rdf:RDF>
  </metadata>
  <g
     inkscape:label="Layer 1"
     inkscape:groupmode="layer"
     id="layer1"
     transform="translate(-374.21785,422.78273)">
    <g
       id="g5649"
       transform="matrix(1.0408478,0,0,-1.0408478,347.78342,388.11931)">
      <path
         id="path5651"
         d="m 891,714 c 10,2.66699 18.5,2.66699 25.5,0 7,-2.66699 12.5,-6.83301 16.5,-12.5 4,-5.66699 7,-12.333 9,-20 2,-7.667 3,-15.167 3,-22.5 V 296 c 0,-23.333 -1.83301,-39.833 -5.5,-49.5 C 935.83301,236.83299 928.333,228 917,220 903.667,210.666 887.167,200.333 867.5,189 847.833,177.666 826,167.333 802,158 c -24,-9.333 -49.333,-16.833 -76,-22.5 -26.667,-5.667 -53.5,-7.667 -80.5,-6 -27,1.66701 -53.667,7.66701 -80,18 -26.333,10.33299 -50.833,26.833 -73.5,49.5 -27.333,27.333 -55.333,46.5 -84,57.5 -28.667,11 -56.667,16.833 -84,17.5 -27.333,0.667 -53.333,-2.5 -78,-9.5 -24.667,-7 -46.667,-14.833 -66,-23.5 v -351 c 0,-17.333 -6.16701,-32 -18.5,-44 -12.33299,-12 -27.167,-18 -44.5,-18 -17.3333,0 -32,6 -44,18 -12,12 -18,26.667 -18,44 v 364 199 208 c 0,4.672 7.3333,12.838 22,24.5 14.6667,11.672 34,23.839 58,36.5 24,12.667 51.333,24.167 82,34.5 30.667,10.333 62.167,16.667 94.5,19 32.334,2.33301 64.167,-0.66699 95.5,-9 31.334,-8.336 59.667,-25.169 85,-50.5 25.333,-25.336 51.833,-43.169 79.5,-53.5 27.667,-10.336 55.167,-15.669 82.5,-16 27.333,-0.33301 53.833,2.66699 79.5,9 25.667,6.33301 49,13.833 70,22.5 21,8.667 39.167,16.667 54.5,24 15.333,7.333 26.333,12 33,14 z"
         inkscape:connector-curvature="0"
         style="fill:currentColor" />
    </g>
  </g>
</svg>
