<?xml version="1.0" encoding="UTF-8" standalone="no"?>
<!-- Created with Inkscape (http://www.inkscape.org/) -->

<svg
   xmlns:dc="http://purl.org/dc/elements/1.1/"
   xmlns:cc="http://creativecommons.org/ns#"
   xmlns:rdf="http://www.w3.org/1999/02/22-rdf-syntax-ns#"
   xmlns:svg="http://www.w3.org/2000/svg"
   xmlns="http://www.w3.org/2000/svg"
   xmlns:sodipodi="http://sodipodi.sourceforge.net/DTD/sodipodi-0.dtd"
   xmlns:inkscape="http://www.inkscape.org/namespaces/inkscape"
   width="987.97894"
   height="997.0191"
   id="svg2"
   sodipodi:version="0.32"
   inkscape:version="0.48.3.1 r9886"
   sodipodi:docname="vimeo.svg"
   version="1.0"
   inkscape:output_extension="org.inkscape.output.svg.inkscape">
  <defs
     id="defs4" />
  <sodipodi:namedview
     id="base"
     pagecolor="#ffffff"
     bordercolor="#666666"
     borderopacity="1.0"
     inkscape:pageopacity="0.0"
     inkscape:pageshadow="2"
     inkscape:zoom="0.45254834"
     inkscape:cx="564.78072"
     inkscape:cy="242.38832"
     inkscape:document-units="px"
     inkscape:current-layer="layer1"
     inkscape:window-width="1487"
     inkscape:window-height="1021"
     inkscape:window-x="0"
     inkscape:window-y="28"
     showgrid="false"
     inkscape:window-maximized="0"
     fit-margin-top="0"
     fit-margin-left="0"
     fit-margin-right="0"
     fit-margin-bottom="0" />
  <metadata
     id="metadata7">
    <rdf:RDF>
      <cc:Work
         rdf:about="">
        <dc:format>image/svg+xml</dc:format>
        <dc:type
           rdf:resource="http://purl.org/dc/dcmitype/StillImage" />
        <dc:title></dc:title>
        <dc:creator>
          <cc:Agent>
            <dc:title />
          </cc:Agent>
        </dc:creator>
        <dc:subject>
          <rdf:Bag />
        </dc:subject>
        <cc:license
           rdf:resource="http://creativecommons.org/licenses/publicdomain/" />
        <dc:description />
        <dc:contributor>
          <cc:Agent>
            <dc:title />
          </cc:Agent>
        </dc:contributor>
      </cc:Work>
      <cc:License
         rdf:about="http://creativecommons.org/licenses/publicdomain/">
        <cc:permits
           rdf:resource="http://creativecommons.org/ns#Reproduction" />
        <cc:permits
           rdf:resource="http://creativecommons.org/ns#Distribution" />
        <cc:permits
           rdf:resource="http://creativecommons.org/ns#DerivativeWorks" />
      </cc:License>
    </rdf:RDF>
  </metadata>
  <g
     inkscape:label="Layer 1"
     inkscape:groupmode="layer"
     id="layer1"
     transform="translate(-374.21785,422.78273)">
    <g
       id="g6834"
       transform="matrix(1.0433404,0,0,-1.0433404,346.53712,388.72894)">
      <path
         id="path6836"
         d="m 485,300 c 0,24.667 -4.66699,47.833 -14,69.5 -9.33301,21.667 -22,40.5 -38,56.5 -16,16 -34.833,28.667 -56.5,38 -21.667,9.333 -44.834,14 -69.5,14 -24.667,0 -47.834,-4.66699 -69.5,-14 -21.667,-9.33301 -40.5,-22 -56.5,-38 -16,-16 -28.667,-34.833 -38,-56.5 -9.333,-21.667 -14,-44.834 -14,-69.5 0,-24.667 4.66701,-47.833 14,-69.5 9.33299,-21.667 22,-40.5 38,-56.5 16,-16 34.833,-28.667 56.5,-38 21.667,-9.333 44.833,-14 69.5,-14 24.667,0 47.833,4.667 69.5,14 21.667,9.33299 40.5,22 56.5,38 16,16 28.667,34.833 38,56.5 9.333,21.667 14,44.833 14,69.5 z m 386,0 c 0,24.667 -4.66699,47.833 -14,69.5 -9.33301,21.667 -22,40.5 -38,56.5 -16,16 -34.833,28.667 -56.5,38 -21.667,9.333 -44.833,14 -69.5,14 -24.667,0 -47.833,-4.66699 -69.5,-14 -21.667,-9.33301 -40.5,-22 -56.5,-38 -16,-16 -28.667,-34.833 -38,-56.5 -9.333,-21.667 -14,-44.834 -14,-69.5 0,-24.667 4.66699,-47.833 14,-69.5 9.33301,-21.667 22,-40.5 38,-56.5 16,-16 34.833,-28.667 56.5,-38 21.668,-9.333 44.835,-14 69.5,-14 24.669,0 47.836,4.667 69.5,14 21.667,9.33299 40.5,22 56.5,38 16,16 28.667,34.833 38,56.5 9.333,21.667 14,44.833 14,69.5 z m 74,473 c 6.68103,0 12.348,-2.16699 17,-6.5 4.66699,-4.33301 7,-9.83301 7,-16.5 v -900 c 0,-6.66701 -2.33301,-12.167 -7,-16.5 -4.66699,-4.333 -10.333,-6.5 -17,-6.5 H 55 c -6.6667,0 -12.3333,2.16701 -17,6.5 -4.6667,4.33299 -7,9.83299 -7,16.5 v 900 c 0,6.66699 2.3333,12.167 7,16.5 4.6667,4.333 10.3334,6.5 17,6.5 h 890 v 0 z"
         inkscape:connector-curvature="0"
         style="fill:currentColor" />
    </g>
  </g>
</svg>
