<?xml version="1.0" encoding="UTF-8" standalone="no"?>
<!-- Created with Inkscape (http://www.inkscape.org/) -->

<svg
   xmlns:dc="http://purl.org/dc/elements/1.1/"
   xmlns:cc="http://creativecommons.org/ns#"
   xmlns:rdf="http://www.w3.org/1999/02/22-rdf-syntax-ns#"
   xmlns:svg="http://www.w3.org/2000/svg"
   xmlns="http://www.w3.org/2000/svg"
   xmlns:sodipodi="http://sodipodi.sourceforge.net/DTD/sodipodi-0.dtd"
   xmlns:inkscape="http://www.inkscape.org/namespaces/inkscape"
   width="987.97894"
   height="997.0191"
   id="svg2"
   sodipodi:version="0.32"
   inkscape:version="0.48.3.1 r9886"
   sodipodi:docname="instagram.svg"
   version="1.0"
   inkscape:output_extension="org.inkscape.output.svg.inkscape">
  <defs
     id="defs4" />
  <sodipodi:namedview
     id="base"
     pagecolor="#ffffff"
     bordercolor="#666666"
     borderopacity="1.0"
     inkscape:pageopacity="0.0"
     inkscape:pageshadow="2"
     inkscape:zoom="0.45254834"
     inkscape:cx="388.00402"
     inkscape:cy="242.38832"
     inkscape:document-units="px"
     inkscape:current-layer="layer1"
     inkscape:window-width="1487"
     inkscape:window-height="1021"
     inkscape:window-x="0"
     inkscape:window-y="28"
     showgrid="false"
     inkscape:window-maximized="0"
     fit-margin-top="0"
     fit-margin-left="0"
     fit-margin-right="0"
     fit-margin-bottom="0" />
  <metadata
     id="metadata7">
    <rdf:RDF>
      <cc:Work
         rdf:about="">
        <dc:format>image/svg+xml</dc:format>
        <dc:type
           rdf:resource="http://purl.org/dc/dcmitype/StillImage" />
        <dc:title></dc:title>
        <dc:creator>
          <cc:Agent>
            <dc:title />
          </cc:Agent>
        </dc:creator>
        <dc:subject>
          <rdf:Bag />
        </dc:subject>
        <cc:license
           rdf:resource="http://creativecommons.org/licenses/publicdomain/" />
        <dc:description />
        <dc:contributor>
          <cc:Agent>
            <dc:title />
          </cc:Agent>
        </dc:contributor>
      </cc:Work>
      <cc:License
         rdf:about="http://creativecommons.org/licenses/publicdomain/">
        <cc:permits
           rdf:resource="http://creativecommons.org/ns#Reproduction" />
        <cc:permits
           rdf:resource="http://creativecommons.org/ns#Distribution" />
        <cc:permits
           rdf:resource="http://creativecommons.org/ns#DerivativeWorks" />
      </cc:License>
    </rdf:RDF>
  </metadata>
  <g
     inkscape:label="Layer 1"
     inkscape:groupmode="layer"
     id="layer1"
     transform="translate(-374.21785,422.78273)">
    <g
       id="g7061"
       transform="matrix(1.0433404,0,0,-1.0433404,346.53712,388.72894)">
      <path
         id="path7063"
         d="m 412,526 c 20,-23.333 31.833,-49.5 35.5,-78.5 3.667,-29 -0.16699,-56.5 -11.5,-82.5 15.333,-20.667 28.333,-38 39,-52 10.667,-14 16.667,-21.333 18,-22 2,-3.33301 5.33301,-5 10,-5 4.66699,0 8.66699,2 12,6 l 350,481 h 80 c 6.68103,0 12.348,-2.16699 17,-6.5 4.66699,-4.33301 7,-9.83301 7,-16.5 V 551 L 512,166 c -2,-2 -4.66699,-3 -8,-3 h -3 c -2,0 -4,1 -6,3 L 350,283 c -17.333,-6.66699 -35.667,-10 -55,-10 -21.333,0 -42.167,4.5 -62.5,13.5 -20.334,9 -38.167,22.167 -53.5,39.5 -14,16 -23.833,33.667 -29.5,53 -5.667,19.333 -7.83299,38.833 -6.5,58.5 1.33299,19.667 6.5,38.5 15.5,56.5 9,18 21.5,34 37.5,48 14.667,12.667 30.5,22 47.5,28 17,6 34.5,9 52.5,9 21.334,0 42.167,-4.5 62.5,-13.5 20.334,-9 38.167,-22.167 53.5,-39.5 z M 756,261 c 9.33301,8.66699 14,19 14,31 0,12 -4.33301,22.333 -13,31 l 212,179 v -652 c 0,-6.66701 -2.33301,-12.167 -7,-16.5 -4.66699,-4.333 -10.333,-6.5 -17,-6.5 H 55 c -6.6667,0 -12.3333,2.16701 -17,6.5 -4.6667,4.33299 -7,9.83299 -7,16.5 v 900 c 0,6.66699 2.3333,12.167 7,16.5 4.6667,4.333 10.3334,6.5 17,6.5 H 819 L 603,477 539,541 c -9.33301,9.33301 -20,14 -32,14 -12,0 -22.667,-4.66699 -32,-14 l -16,-16 c -2.66699,4 -5.5,8.16699 -8.5,12.5 -3,4.33301 -6.16699,8.5 -9.5,12.5 -18,21.333 -39.667,37.833 -65,49.5 -25.333,11.667 -52,17.5 -80,17.5 -23.333,0 -45.5,-4 -66.5,-12 -21,-8 -40.167,-19.333 -57.5,-34 -20,-17.333 -35.5,-37.333 -46.5,-60 -11,-22.667 -17.5,-46.167 -19.5,-70.5 -2,-24.333 0.667,-48.5 8,-72.5 7.333,-24 19.667,-46 37,-66 16.667,-19.333 36.333,-34.833 59,-46.5 22.667,-11.667 46.667,-18.167 72,-19.5 L 475,43 c 9.33301,-9.3333 20,-14 32,-14 12,0 22.667,4.6667 32,14 l 217,218 v 0 z"
         inkscape:connector-curvature="0"
         style="fill:currentColor" />
    </g>
  </g>
</svg>
