<?xml version="1.0" encoding="UTF-8" standalone="no"?>
<!-- Created with Inkscape (http://www.inkscape.org/) -->

<svg
   xmlns:dc="http://purl.org/dc/elements/1.1/"
   xmlns:cc="http://creativecommons.org/ns#"
   xmlns:rdf="http://www.w3.org/1999/02/22-rdf-syntax-ns#"
   xmlns:svg="http://www.w3.org/2000/svg"
   xmlns="http://www.w3.org/2000/svg"
   xmlns:sodipodi="http://sodipodi.sourceforge.net/DTD/sodipodi-0.dtd"
   xmlns:inkscape="http://www.inkscape.org/namespaces/inkscape"
   width="987.97894"
   height="997.0191"
   id="svg2"
   sodipodi:version="0.32"
   inkscape:version="0.48.3.1 r9886"
   sodipodi:docname="pinterest.svg"
   version="1.0"
   inkscape:output_extension="org.inkscape.output.svg.inkscape">
  <defs
     id="defs4" />
  <sodipodi:namedview
     id="base"
     pagecolor="#ffffff"
     bordercolor="#666666"
     borderopacity="1.0"
     inkscape:pageopacity="0.0"
     inkscape:pageshadow="2"
     inkscape:zoom="0.45254834"
     inkscape:cx="-53.937716"
     inkscape:cy="242.38832"
     inkscape:document-units="px"
     inkscape:current-layer="layer1"
     inkscape:window-width="1487"
     inkscape:window-height="1021"
     inkscape:window-x="0"
     inkscape:window-y="28"
     showgrid="false"
     inkscape:window-maximized="0"
     fit-margin-top="0"
     fit-margin-left="0"
     fit-margin-right="0"
     fit-margin-bottom="0" />
  <metadata
     id="metadata7">
    <rdf:RDF>
      <cc:Work
         rdf:about="">
        <dc:format>image/svg+xml</dc:format>
        <dc:type
           rdf:resource="http://purl.org/dc/dcmitype/StillImage" />
        <dc:title></dc:title>
        <dc:creator>
          <cc:Agent>
            <dc:title />
          </cc:Agent>
        </dc:creator>
        <dc:subject>
          <rdf:Bag />
        </dc:subject>
        <cc:license
           rdf:resource="http://creativecommons.org/licenses/publicdomain/" />
        <dc:description />
        <dc:contributor>
          <cc:Agent>
            <dc:title />
          </cc:Agent>
        </dc:contributor>
      </cc:Work>
      <cc:License
         rdf:about="http://creativecommons.org/licenses/publicdomain/">
        <cc:permits
           rdf:resource="http://creativecommons.org/ns#Reproduction" />
        <cc:permits
           rdf:resource="http://creativecommons.org/ns#Distribution" />
        <cc:permits
           rdf:resource="http://creativecommons.org/ns#DerivativeWorks" />
      </cc:License>
    </rdf:RDF>
  </metadata>
  <g
     inkscape:label="Layer 1"
     inkscape:groupmode="layer"
     id="layer1"
     transform="translate(-374.21785,422.78273)">
    <g
       id="g6459"
       transform="matrix(1.1267123,0,0,-1.1267123,304.28782,413.74051)">
      <path
         id="path6461"
         d="m 500,738 c 60.667,0 117.5,-11.5 170.5,-34.5 53,-23 99.333,-54.333 139,-94 39.667,-39.667 71,-86 94,-139 23,-53 34.5,-109.833 34.5,-170.5 0,-60.667 -11.5,-117.5 -34.5,-170.5 -23,-53 -54.333,-99.3333 -94,-139 -39.667,-39.6667 -86,-71 -139,-94 -53,-23 -109.833,-34.5 -170.5,-34.5 -60.667,0 -117.5,11.5 -170.5,34.5 -53,23 -99.333,54.3333 -139,94 -39.667,39.6667 -70.833,86 -93.5,139 -22.6667,53 -34,109.833 -34,170.5 0,60.667 11.3333,117.5 34,170.5 22.667,53 53.833,99.333 93.5,139 39.667,39.667 86,71 139,94 53,23 109.833,34.5 170.5,34.5 z m 0,-48 C 446,690 395.333,679.833 348,659.5 300.667,639.165 259.333,611.332 224,576 188.667,540.667 160.833,499.333 140.5,452 120.167,404.667 110,354 110,300 c 0,-54 10.167,-104.667 30.5,-152 20.333,-47.333 48.167,-88.6667 83.5,-124 35.334,-35.3333 76.667,-63.1667 124,-83.5 47.333,-20.3333 98,-30.5 152,-30.5 54,0 104.667,10.1667 152,30.5 47.333,20.3333 88.667,48.1667 124,83.5 35.333,35.3333 63.167,76.667 83.5,124 20.333,47.333 30.5,98 30.5,152 0,54 -10.167,104.667 -30.5,152 -20.336,47.333 -48.17,88.667 -83.5,124 -35.335,35.333 -76.668,63.167 -124,83.5 C 604.667,679.833 554,690 500,690 z M 612,228 c 42,14.667 63,42.333 63,83 0,21.334 -3.5,38.167 -10.5,50.5 -7,12.333 -18.167,22.5 -33.5,30.5 -7.33301,4 -16,6.33301 -26,7 -10,0.66699 -20.667,0.83301 -32,0.5 -11.333,-0.33301 -23.333,-1 -36,-2 -12.667,-1 -25.333,-1.5 -38,-1.5 -12.667,0 -25.334,0.5 -38,1.5 -12.667,1 -24.667,1.66699 -36,2 -11.333,0.33301 -22,0.16699 -32,-0.5 -10,-0.66699 -18.667,-3 -26,-7 -15.333,-8 -26.333,-18.167 -33,-30.5 -6.667,-12.333 -10,-29.167 -10,-50.5 0,-40.667 21,-68.333 63,-83 7.33301,-2 15.333,-4 24,-6 7.33301,-1.334 16.5,-2.66701 27.5,-4 11,-1.33299 23.833,-2 38.5,-2 h 44 c 14,0 26.667,0.66701 38,2 11.333,1.33299 21,2.66701 29,4 9.33301,2 17.333,4 24,6 z m 120,145 c 0,-21.333 -2.33301,-41.5 -7,-60.5 -4.66699,-19 -13.333,-36.167 -26,-51.5 -12.667,-15.333 -30.167,-28 -52.5,-38 -22.333,-10 -50.833,-16.333 -85.5,-19 5.33301,-2.66701 12.167,-6 20.5,-10 8.333,-4 15.5,-11.667 21.5,-23 3.33301,-7.33299 5.5,-18 6.5,-32 1,-14 1.5,-28.333 1.5,-43 0,-14.6667 -0.16699,-28.1667 -0.5,-40.5 -0.33301,-12.3333 0.16699,-19.8333 1.5,-22.5 2.66699,-5.3333 6.5,-10 11.5,-14 5,-4 9.16699,-7 12.5,-9 3.33301,-2 4.33301,-4.5 3,-7.5 -1.33301,-3 -6,-4.83333 -14,-5.5 -4,0 -9,0.66667 -15,2 -6,1.33333 -11.667,3.66667 -17,7 -5.33301,3.33333 -9.83301,7.5 -13.5,12.5 -3.66699,5 -5.5,11.5 -5.5,19.5 v 82 c 0,9.33299 -2.16699,16 -6.5,20 -4.33301,4 -8.83301,6.66701 -13.5,8 V 40 c 0,-19.3333 2.33301,-32 7,-38 2,-2.66667 3.83301,-5.5 5.5,-8.5 1.66699,-3 2.66699,-5.5 3,-7.5 0.33301,-2 -0.83301,-3.1667 -3.5,-3.5 -2.66699,-0.3333 -7.66699,0.5 -15,2.5 -14,3.3333 -24,11 -30,23 -6,12 -9,24.6667 -9,38 V 152 H 490 V 46 c 0,-13.3333 -2.83301,-26 -8.5,-38 -5.668,-12 -15.835,-19.6667 -30.5,-23 -7.33301,-2 -12.167,-2.8333 -14.5,-2.5 -2.333,0.3333 -3.5,1.5 -3.5,3.5 0,2 1,4.5 3,7.5 2,3 4,5.83333 6,8.5 1.33301,2.66667 2.83301,7.33333 4.5,14 1.66699,6.6667 2.5,14.6667 2.5,24 v 108 c -4.66699,-1.33299 -9,-4 -13,-8 -4,-4 -6,-10.667 -6,-20 V 38 c 0,-8 -1.83301,-14.5 -5.5,-19.5 -3.66699,-5 -8.16699,-9.16667 -13.5,-12.5 -5.33301,-3.33333 -11,-5.66667 -17,-7 -6,-1.33333 -11,-2 -15,-2 -8,0.66667 -12.667,2.5 -14,5.5 -1.333,3 -0.33301,5.5 3,7.5 3.33301,2 7.5,5 12.5,9 5,4 8.83301,8.6667 11.5,14 1.33301,3.3333 1.83301,12.1667 1.5,26.5 -0.33301,14.3334 -0.5,30.1667 -0.5,47.5 -5.33301,-2 -12.333,-3.333 -21,-4 -8.668,-0.667 -18.335,0 -29,2 -18,3.333 -31.667,9.167 -41,17.5 -9.33301,8.33299 -18.333,21.5 -27,39.5 -4.668,8.66701 -9.83401,15.834 -15.5,21.5 -5.66701,5.66701 -10.667,10.167 -15,13.5 -4.334,3.33299 -7.668,6.16701 -10,8.5 -2.33299,2.33299 -2.5,4.5 -0.5,6.5 4,4.66701 9.5,6.66701 16.5,6 7,-0.66701 11.167,-1.66701 12.5,-3 8,-3.33299 16,-10.333 24,-21 8,-10.667 16.333,-19.667 25,-27 4,-3.334 9,-6.66701 15,-10 6,-3.33501 12.667,-5.668 20,-7 7.33301,-1.33299 15.333,-1.33299 24,0 8.667,1.33299 17.333,5 26,11 2,8.66701 5.16699,15.5 9.5,20.5 4.33301,5 9,9 14,12 5,3 9.66699,5.33299 14,7 4.33301,1.66701 7.83301,3.16701 10.5,4.5 -36.667,2.66701 -66.667,8.834 -90,18.5 -23.333,9.66701 -41.833,22 -55.5,37 -13.667,15 -23,32.167 -28,51.5 -5,19.334 -7.5,39.667 -7.5,61 0,22 3.33301,41.667 10,59 6.66699,17.334 16,32.668 28,46 -5.33301,16 -7.16699,32.833 -5.5,50.5 1.66699,17.667 5.16699,33.5 10.5,47.5 25.333,-1.33801 46.5,-6.67102 63.5,-16 17,-9.33301 28.833,-17 35.5,-23 28.667,8 58.333,12 89,12 h 7 c 28.667,0 56.334,-3.33301 83,-10 7.33301,6 19.333,13.333 36,22 16.669,8.66699 37.336,13.667 62,15 5.33301,-13.333 8.83301,-28.333 10.5,-45 1.66699,-16.667 0.5,-32.667 -3.5,-48 13.333,-13.333 23.667,-29.167 31,-47.5 7.333,-18.333 11,-39.167 11,-62.5 z m -234,23 h 1 1 -2 z m 129,-78 c 0,-9.33301 -2.5,-17.333 -7.5,-24 -5,-6.667 -11.167,-10 -18.5,-10 -7.333,0 -13.333,3.33301 -18,10 -4.667,6.66699 -7,14.667 -7,24 0,9.333 2.33301,17.333 7,24 4.66699,6.667 10.667,10 18,10 7.333,0 13.5,-3.33301 18.5,-10 5,-6.66699 7.5,-14.667 7.5,-24 z m -196,0 c 0,-9.33301 -2.5,-17.333 -7.5,-24 -5,-6.667 -11.167,-10 -18.5,-10 -7.333,0 -13.333,3.33301 -18,10 -4.667,6.66699 -7,14.667 -7,24 0,9.333 2.33301,17.333 7,24 4.66699,6.667 10.667,10 18,10 7.333,0 13.5,-3.33301 18.5,-10 5,-6.66699 7.5,-14.667 7.5,-24 z"
         inkscape:connector-curvature="0"
         style="fill:currentColor" />
    </g>
  </g>
</svg>
