<?xml version="1.0" encoding="UTF-8" standalone="no"?>
<!-- Created with Inkscape (http://www.inkscape.org/) -->

<svg
   xmlns:dc="http://purl.org/dc/elements/1.1/"
   xmlns:cc="http://creativecommons.org/ns#"
   xmlns:rdf="http://www.w3.org/1999/02/22-rdf-syntax-ns#"
   xmlns:svg="http://www.w3.org/2000/svg"
   xmlns="http://www.w3.org/2000/svg"
   xmlns:sodipodi="http://sodipodi.sourceforge.net/DTD/sodipodi-0.dtd"
   xmlns:inkscape="http://www.inkscape.org/namespaces/inkscape"
   width="512"
   height="512"
   id="svg2"
   sodipodi:version="0.32"
   inkscape:version="0.48.3.1 r9886"
   sodipodi:docname="github.svg"
   version="1.0"
   inkscape:output_extension="org.inkscape.output.svg.inkscape">
  <defs
     id="defs4" />
  <sodipodi:namedview
     id="base"
     pagecolor="#ffffff"
     bordercolor="#666666"
     borderopacity="1.0"
     inkscape:pageopacity="0.0"
     inkscape:pageshadow="2"
     inkscape:zoom="0.90509668"
     inkscape:cx="135.27383"
     inkscape:cy="113.72424"
     inkscape:document-units="px"
     inkscape:current-layer="layer1"
     inkscape:window-width="1487"
     inkscape:window-height="1021"
     inkscape:window-x="0"
     inkscape:window-y="28"
     showgrid="false"
     inkscape:window-maximized="0"
     fit-margin-top="0"
     fit-margin-left="0"
     fit-margin-right="0"
     fit-margin-bottom="0" />
  <metadata
     id="metadata7">
    <rdf:RDF>
      <cc:Work
         rdf:about="">
        <dc:format>image/svg+xml</dc:format>
        <dc:type
           rdf:resource="http://purl.org/dc/dcmitype/StillImage" />
        <dc:title />
        <dc:creator>
          <cc:Agent>
            <dc:title />
          </cc:Agent>
        </dc:creator>
        <dc:subject>
          <rdf:Bag />
        </dc:subject>
        <cc:license
           rdf:resource="http://creativecommons.org/licenses/publicdomain/" />
        <dc:description />
        <dc:contributor>
          <cc:Agent>
            <dc:title />
          </cc:Agent>
        </dc:contributor>
      </cc:Work>
      <cc:License
         rdf:about="http://creativecommons.org/licenses/publicdomain/">
        <cc:permits
           rdf:resource="http://creativecommons.org/ns#Reproduction" />
        <cc:permits
           rdf:resource="http://creativecommons.org/ns#Distribution" />
        <cc:permits
           rdf:resource="http://creativecommons.org/ns#DerivativeWorks" />
      </cc:License>
    </rdf:RDF>
  </metadata>
  <g
     inkscape:label="Layer 1"
     inkscape:groupmode="layer"
     id="layer1"
     transform="translate(-374.21785,-62.236374)">
    <path
       id="path3121"
       style="fill:#000000;fill-opacity:1;stroke:none"
       d="m 704.01688,307.69026 c 0,10.90723 -6.61609,19.74928 -14.77744,19.74928 -8.16134,0 -14.77742,-8.84205 -14.77742,-19.74928 0,-10.90722 6.61608,-19.74927 14.77742,-19.74927 8.16135,0 14.77744,8.84205 14.77744,19.74927 z m -114.62864,0 c 0,10.90723 -6.61609,19.74928 -14.77743,19.74928 -8.16135,0 -14.77742,-8.84205 -14.77742,-19.74928 0,-10.90722 6.61607,-19.74927 14.77742,-19.74927 8.16134,0 14.77743,8.84205 14.77743,19.74927 z M 630.21785,62.236374 c -141.38489,0 -256,114.615106 -256,255.999996 0,141.38489 114.61511,256 256,256 141.38491,0 256,-114.61511 256,-256 0,-141.38489 -114.61509,-255.999996 -256,-255.999996 z m 0,27.875 c 125.98997,0 228.12501,102.135036 228.12501,228.124996 0,125.98996 -102.13504,228.12501 -228.12501,228.12501 -125.98996,0 -228.125,-102.13505 -228.125,-228.12501 0,-125.98996 102.13504,-228.124996 228.125,-228.124996 z M 516.9991,156.92386 c -6.49703,18.88425 -8.7494,39.38044 -2.9375,57.28126 -7.0217,7.79222 -12.47385,16.74371 -16.375,26.875 -10.39833,32.86479 -7.8586,74.84793 14.90625,100.25001 7.99714,8.76711 18.84686,15.97487 32.50001,21.62499 13.65312,5.64955 31.20082,9.2537 52.65625,10.8125 -14.40024,6.72895 -24.55144,10.84041 -28.09375,25.71875 -16.06269,10.73327 -35.59528,8.17205 -49.75001,-3.5 -11.18603,-8.16736 -16.25346,-22.68318 -28.65624,-28.0625 -0.78,-0.7791 -3.21651,-1.36015 -7.3125,-1.74999 -4.09601,-0.38987 -7.31569,0.77223 -9.65625,3.5 -1.1703,1.16894 -1.08389,2.41768 0.28124,3.78124 9.38942,7.63642 18.42628,15.72994 23.71875,25.4375 5.07143,10.52055 10.32012,18.22332 15.78125,23.09375 15.1497,10.23707 35.46734,15.56314 53.25001,9.06251 -2.07369,12.51382 3.52076,32.05528 -0.59375,43.24999 -1.56057,3.11718 -3.79304,5.8496 -6.71875,8.1875 -2.60763,2.54375 -10.69214,5.72602 -9.0625,9.625 0.78,1.75342 3.50636,2.8291 8.18749,3.21875 10.30458,-0.26302 20.56265,-4.4291 26.625,-12.5625 2.14573,-2.92236 3.21876,-6.73045 3.21876,-11.40625 l 0,-47.90625 c 0,-5.4549 1.15943,-9.34962 3.5,-11.6875 2.34056,-2.3379 4.89415,-3.90839 7.625,-4.6875 l 0,63.125 c 0,5.45508 -0.49333,10.13473 -1.46876,14.03126 -0.97542,3.89649 -1.84499,6.62889 -2.625,8.1875 -1.79076,3.00338 -5.21428,5.77492 -5.28125,9.34373 0,1.16896 0.69737,1.83646 2.06251,2.03126 10.24825,-0.44461 22.13896,-6.45652 26.3125,-14.90624 3.316,-7.0137 4.96875,-14.39454 4.96875,-22.18751 l 0,-61.96875 12.875,0 0,61.96875 c 0,7.79297 1.77038,15.17381 5.28124,22.18751 3.51087,7.0137 9.37051,11.52051 17.5625,13.46874 4.29085,1.16894 7.18944,1.63232 8.75001,1.4375 1.56057,-0.1948 2.25736,-0.8623 2.0625,-2.03126 -0.93969,-3.54032 -2.89746,-6.56974 -4.96875,-9.34373 -2.73085,-3.50686 -4.09375,-10.91893 -4.09375,-22.21876 l 0,-63.125 c 2.73085,0.77911 5.37082,2.3496 7.90624,4.6875 2.53544,2.33788 3.78126,6.2326 3.78126,11.6875 l 0,47.90625 c 0,4.6758 1.07302,8.48389 3.21874,11.40625 6.5211,8.29279 16.34816,12.49979 26.62501,12.5625 4.68114,-0.38965 7.4075,-1.46533 8.18749,-3.21875 0.78001,-1.75342 0.20029,-3.20605 -1.74999,-4.37499 -1.95029,-1.16896 -4.38678,-2.91211 -7.3125,-5.25001 -2.92571,-2.3379 -5.15818,-5.07032 -6.71875,-8.1875 -1.75119,-20.09999 -0.0447,-41.64627 -1.46876,-61.96875 -2.81133,-22.17774 -11.34755,-29.47398 -28.37499,-37.96874 20.28515,-1.55879 36.96325,-5.28026 50.03125,-11.12501 39.06464,-18.98057 49.86678,-48.32322 50.03124,-87.65625 -0.61609,-25.31405 -7.92336,-47.39659 -24.59375,-64.31249 2.34058,-8.96177 3.03794,-18.28981 2.0625,-28.03126 -0.97541,-9.74144 -3.03566,-18.51968 -6.15624,-26.31251 -14.43197,0.77913 -26.52752,3.68436 -36.28125,8.75001 -9.75258,5.06564 -16.77164,9.36815 -21.06251,12.875 -34.56641,-7.84751 -71.57016,-7.8948 -104.71874,1.15625 -16.96219,-13.87283 -37.98379,-21.60156 -57.93751,-22.78126 z m 60.5,103.06251 c 1.2082,-3.9e-4 2.42534,-0.008 3.62501,0 1.60913,0.0118 3.24839,0.0452 4.90624,0.0938 6.63143,0.19463 13.6505,0.57177 21.06251,1.15625 15.24684,1.15054 30.31785,1.09455 44.46875,0 7.41199,-0.58448 14.46232,-0.96162 21.09374,-1.15625 11.61887,0.0208 24.05977,-0.88481 33.9375,4.375 8.972,4.6758 15.49776,10.63541 19.59375,17.84375 4.09601,7.20832 6.12501,17.0308 6.12501,29.5 0,23.76883 -12.26775,39.95874 -36.84375,48.53125 -39.3247,9.80933 -91.40003,10.92771 -131.65626,0 -24.576,-8.57251 -36.875,-24.76242 -36.875,-48.53125 0.593,-22.80418 6.3652,-37.34038 25.15626,-47.34375 8.3294,-4.05406 16.94895,-4.46604 25.40624,-4.46876 z"
       inkscape:connector-curvature="0" />
  </g>
</svg>
