<?xml version="1.0" encoding="UTF-8" standalone="no"?>
<!-- Creator: CorelDRAW -->

<svg
   xmlns:dc="http://purl.org/dc/elements/1.1/"
   xmlns:cc="http://creativecommons.org/ns#"
   xmlns:rdf="http://www.w3.org/1999/02/22-rdf-syntax-ns#"
   xmlns:svg="http://www.w3.org/2000/svg"
   xmlns="http://www.w3.org/2000/svg"
   xmlns:sodipodi="http://sodipodi.sourceforge.net/DTD/sodipodi-0.dtd"
   xmlns:inkscape="http://www.inkscape.org/namespaces/inkscape"
   xml:space="preserve"
   width="924.46204"
   height="1000"
   style="fill-rule:evenodd"
   viewBox="0 0 260.90373 282.22221"
   id="svg2"
   version="1.1"
   inkscape:version="0.48.3.1 r9886"
   sodipodi:docname="github-text.svg"><metadata
   id="metadata34"><rdf:RDF><cc:Work
       rdf:about=""><dc:format>image/svg+xml</dc:format><dc:type
         rdf:resource="http://purl.org/dc/dcmitype/StillImage" /></cc:Work></rdf:RDF></metadata><sodipodi:namedview
   pagecolor="#ffffff"
   bordercolor="#666666"
   borderopacity="1"
   objecttolerance="10"
   gridtolerance="10"
   guidetolerance="10"
   inkscape:pageopacity="0"
   inkscape:pageshadow="2"
   inkscape:window-width="1212"
   inkscape:window-height="671"
   id="namedview32"
   showgrid="false"
   fit-margin-top="0"
   fit-margin-left="0"
   fit-margin-right="0"
   fit-margin-bottom="0"
   inkscape:zoom="0.524"
   inkscape:cx="462.23102"
   inkscape:cy="499.99998"
   inkscape:window-x="0"
   inkscape:window-y="24"
   inkscape:window-maximized="0"
   inkscape:current-layer="svg2" />
 <defs
   id="defs4">
  <style
   type="text/css"
   id="style6">
   
    .fil0 {fill:black;fill-rule:nonzero}
   
  </style>
 
  
  
 
   
   
   
   
   
   
   
   
  </defs>
 <path
   id="_153577136"
   class="fil0"
   d="m 81.82529,75.9594 c 9.880371,0 21.30413,-2.4699 34.27406,-7.41048 l 0,31.80337 c -2.88247,1.02865 -6.9987,2.16105 -12.35146,3.3972 1.64633,4.73389 2.47029,9.15975 2.47029,13.27677 0,13.17463 -3.9622,24.64946 -11.887409,34.42768 -7.925604,9.77742 -18.167482,15.59504 -30.724435,17.44567 -8.232446,1.23574 -12.349866,5.662 -12.349866,13.27797 0,2.67618 1.337893,5.35236 4.014076,8.02735 3.499348,3.91233 8.645025,6.38342 15.43783,7.41207 29.438014,4.52761 44.154834,16.77612 44.154834,36.74316 0,31.9087 -19.040528,47.86206 -57.122372,47.86206 -15.644918,0 -28.511506,-2.77873 -38.596571,-8.33739 C 6.3802251,266.88614 0,255.87297 0,240.84452 0,223.55368 9.5719338,211.71774 28.714604,205.33711 l 0,-0.61767 c -6.997898,-4.32251 -10.496847,-10.90982 -10.496847,-19.76234 0,-11.52789 3.293457,-18.73368 9.880771,-21.61296 l 0,-0.61847 c -6.587314,-2.264 -12.454806,-7.41207 -17.600883,-15.43943 -5.7637494,-8.64502 -8.6454245,-17.90852 -8.6454245,-27.78969 0,-14.82175 5.24982,-27.17162 15.7470655,-37.05279 10.08746,-9.26349 22.129686,-13.89484 36.127477,-13.89484 10.086661,0 19.451906,2.47029 28.098527,7.41048 z m 1.234548,162.41563 0,0 c 0,-10.49884 -8.645026,-15.74747 -25.937471,-15.74747 -16.673974,0 -25.010562,5.45492 -25.010562,16.36554 0,10.70274 9.058004,16.05511 27.172018,16.05511 15.85081,0 23.776015,-5.55627 23.776015,-16.67318 z m -47.550833,-118.57004 0,0 c 0,14.20448 6.484767,21.30652 19.452305,21.30652 12.556954,0 18.835031,-7.20578 18.835031,-21.61496 0,-5.96964 -1.440837,-11.11532 -4.322512,-15.43942 -3.499348,-4.7339 -8.336588,-7.10204 -14.512519,-7.10204 -12.967538,0 -19.452305,7.61756 -19.452305,22.8499 z"
   inkscape:connector-curvature="0"
   style="fill:#000000;fill-rule:nonzero" /><path
   id="_153577064"
   class="fil0"
   d="m 148.8408,46.00705 c -5.96964,0 -11.06345,-2.2632 -15.28421,-6.7928 -4.21957,-4.52841 -6.32995,-9.87958 -6.32995,-16.05551 0,-6.38182 2.11038,-11.83593 6.32995,-16.3655305 4.22076,-4.52841 9.31457,-6.79320995263508 15.28421,-6.79320995263508 5.76415,0 10.7562,2.26479995263508 14.97577,6.79320995263508 4.22037,4.5296005 6.32995,9.9837105 6.32995,16.3655305 0,6.17593 -2.10958,11.5271 -6.32995,16.05551 -4.21957,4.5296 -9.21162,6.7928 -14.97577,6.7928 z"
   inkscape:connector-curvature="0"
   style="fill:#000000;fill-rule:nonzero" /><path
   id="_153576992"
   class="fil0"
   d="m 131.24151,207.18814 c 0.41138,-4.11543 0.61608,-11.11372 0.61608,-20.99569 l 0,-96.03057 c 0,-9.67368 -0.2047,-16.36474 -0.61608,-20.06958 l 34.89173,0 c -0.41258,3.91153 -0.61847,10.3959 -0.61847,19.4535 l 0,94.79323 c 0,10.49924 0.20589,18.11561 0.61847,22.84911 l -34.89173,0 z"
   inkscape:connector-curvature="0"
   style="fill:#000000;fill-rule:nonzero" /><path
   id="_153576920"
   class="fil0"
   d="m 230.02567,70.0923 26.86238,0 0,29.95075 c -1.02865,0 -2.93274,-0.10215 -5.71227,-0.30844 -2.77873,-0.20549 -5.40304,-0.30923 -7.87373,-0.30923 l -13.27638,0 0,57.432 c 0,13.7927 4.52801,20.68805 13.58561,20.68805 6.38182,0 12.14437,-1.74808 17.29245,-5.24862 l 0,30.87645 c -7.61677,4.11862 -16.77772,6.17633 -27.48245,6.17633 -15.02685,0 -25.42115,-5.35156 -31.1853,-16.0551 -4.32251,-8.02935 -6.48517,-20.68725 -6.48517,-37.98089 l 0,-55.27055 0.30924,0 0,-0.61767 -4.63175,-0.30764 c -2.67618,0 -6.17553,0.30764 -10.49804,0.92531 l 0,-29.95075 15.12979,0 0,-12.04222 c 0,-5.76415 -0.30924,-10.3959 -0.92611,-13.89525 l 35.81744,0 c -0.61687,3.91153 -0.92571,8.33739 -0.92571,13.27678 l 0,12.66069 z"
   inkscape:connector-curvature="0"
   style="fill:#000000;fill-rule:nonzero" />
</svg>