<?xml version="1.0" encoding="UTF-8" standalone="no"?>
<!-- Created with Inkscape (http://www.inkscape.org/) -->

<svg
   xmlns:dc="http://purl.org/dc/elements/1.1/"
   xmlns:cc="http://creativecommons.org/ns#"
   xmlns:rdf="http://www.w3.org/1999/02/22-rdf-syntax-ns#"
   xmlns:svg="http://www.w3.org/2000/svg"
   xmlns="http://www.w3.org/2000/svg"
   xmlns:sodipodi="http://sodipodi.sourceforge.net/DTD/sodipodi-0.dtd"
   xmlns:inkscape="http://www.inkscape.org/namespaces/inkscape"
   width="987.97894"
   height="997.0191"
   id="svg2"
   sodipodi:version="0.32"
   inkscape:version="0.48.3.1 r9886"
   sodipodi:docname="globe.svg"
   version="1.0"
   inkscape:output_extension="org.inkscape.output.svg.inkscape">
  <defs
     id="defs4" />
  <sodipodi:namedview
     id="base"
     pagecolor="#ffffff"
     bordercolor="#666666"
     borderopacity="1.0"
     inkscape:pageopacity="0.0"
     inkscape:pageshadow="2"
     inkscape:zoom="0.64"
     inkscape:cx="536.21538"
     inkscape:cy="425.62412"
     inkscape:document-units="px"
     inkscape:current-layer="layer1"
     inkscape:window-width="1920"
     inkscape:window-height="1025"
     inkscape:window-x="0"
     inkscape:window-y="27"
     showgrid="false"
     inkscape:window-maximized="1"
     fit-margin-top="0"
     fit-margin-left="0"
     fit-margin-right="0"
     fit-margin-bottom="0" />
  <metadata
     id="metadata7">
    <rdf:RDF>
      <cc:Work
         rdf:about="">
        <dc:format>image/svg+xml</dc:format>
        <dc:type
           rdf:resource="http://purl.org/dc/dcmitype/StillImage" />
        <dc:title></dc:title>
        <dc:creator>
          <cc:Agent>
            <dc:title />
          </cc:Agent>
        </dc:creator>
        <dc:subject>
          <rdf:Bag />
        </dc:subject>
        <cc:license
           rdf:resource="http://creativecommons.org/licenses/publicdomain/" />
        <dc:description />
        <dc:contributor>
          <cc:Agent>
            <dc:title />
          </cc:Agent>
        </dc:contributor>
      </cc:Work>
      <cc:License
         rdf:about="http://creativecommons.org/licenses/publicdomain/">
        <cc:permits
           rdf:resource="http://creativecommons.org/ns#Reproduction" />
        <cc:permits
           rdf:resource="http://creativecommons.org/ns#Distribution" />
        <cc:permits
           rdf:resource="http://creativecommons.org/ns#DerivativeWorks" />
      </cc:License>
    </rdf:RDF>
  </metadata>
  <g
     inkscape:label="Layer 1"
     inkscape:groupmode="layer"
     id="layer1"
     transform="translate(-374.21785,422.78273)">
    <g
       id="g3791"
       transform="matrix(0.987,0,0,-0.987,374.70732,371.82682)">
      <path
         id="path3793"
         d="m 871,290 v 7 c 0,58.667 -12,112.667 -36,162 -24,49.333 -56.667,91.333 -98,126 -11.333,-1.33301 -23.333,-2.83301 -36,-4.5 -12.667,-1.66699 -25,-4.33301 -37,-8 -12,-3.66699 -22.833,-8 -32.5,-13 -9.667,-5 -16.833,-11.5 -21.5,-19.5 -8,-12.667 -13.5,-23.333 -16.5,-32 -3,-8.667 -5,-16.167 -6,-22.5 -1,-6.333 -1.5,-11.5 -1.5,-15.5 0,-4 -1,-8 -3,-12 -2,-4 -4.5,-7.16699 -7.5,-9.5 -3,-2.33301 -5.5,-4.83301 -7.5,-7.5 -2,-2.67001 -3,-6.33701 -3,-11 0,-4.66699 2,-11 6,-19 3.33301,-6 5,-12 5,-18 4.67603,0 9.34198,0.33301 14,1 4,0.66699 8.16699,1.5 12.5,2.5 4.33301,1 8.16699,3.16699 11.5,6.5 l 70,-6 c 5.33301,6.66699 11.667,11.333 19,14 3.33301,1.33301 7,2.33301 11,3 3.33301,-0.67899 7.33301,-2.34601 12,-5 4,-2.66699 8.5,-6.66699 13.5,-12 5,-5.33301 10.833,-13.667 17.5,-25 l -29,-20 c -6.66699,2 -14.667,6 -24,12 -4.66699,2.66699 -9.66699,6 -15,10 -5.33301,2.66699 -12.833,4.16699 -22.5,4.5 -9.667,0.33301 -19.667,0 -30,-1 -10.333,-1 -20.833,-2.33301 -31.5,-4 -10.667,-1.67801 -19.667,-2.845 -27,-3.5 -0.66699,-2.66901 -2,-5.336 -4,-8 -1.35101,-2 -3.18402,-4 -5.5,-6 -2.35101,-2 -5.18402,-3.33301 -8.5,-4 -0.66699,-2 -1,-5.33301 -1,-10 0,-2 -0.33301,-4 -1,-6 -13.333,-19.333 -18,-41 -14,-65 3.33301,-17.334 10.167,-30.667 20.5,-40 10.333,-9.333 22.5,-14 36.5,-14 h 2 c 1.33301,0 2.66699,0.16701 4,0.5 1.33301,0.33299 3,0.5 5,0.5 14.669,0 24.836,-0.83299 30.5,-2.5 5.677,-1.66701 8.84302,-2.83299 9.5,-3.5 -3.336,-8.66701 -4.66901,-15.5 -4,-20.5 0.68597,-5 2.35303,-10.167 5,-15.5 l 3,-6 c 3.33301,-7.334 4.83301,-14.667 4.5,-22 -0.33801,-7.33299 -1.172,-15 -2.5,-23 0,-4.667 -0.33301,-8.334 -1,-11 -0.66699,-9.333 0.66699,-18.3333 4,-27 l 10,-26 c 1.33301,-3.3333 2.66699,-6.3333 4,-9 1.33301,-2.6667 2.66699,-5.6667 4,-9 0,-0.666698 0.16699,-1.1667 0.5,-1.5 0.33301,-0.333599 0.5,-1.167 0.5,-2.5 2,-5.3333 4.5,-11.1667 7.5,-17.5 3,-6.3333 7.5,-10.1667 13.5,-11.5 13.333,-2 29,6.3333 47,25 13.333,15.3333 21.333,32 24,50 0.67798,6.6667 3.34497,14 8,22 4,8 7,16.333 9,25 1.33301,4 1.33301,8.33299 0,13 8.66699,15.333 13,28.333 13,39 0,6.66701 0.33301,11.667 1,15 l 3.5,3.5 3.5,3.5 c 5.33301,4 10,8.66701 14,14 1.33301,4 2.33301,7.66701 3,11 0.66699,3.33299 1.16699,6.66701 1.5,10 0.33301,3.33299 -0.16699,6.66701 -1.5,10 -0.66699,1.33299 -2.33301,2.66701 -5,4 l -17,6 c 2.66699,6 6,10.333 10,13 4,2.667 7.66699,4.66699 11,6 4,1.33301 8.33301,1.33301 13,0 z M 536,98 c 2,6 3.83301,15.833 5.5,29.5 1.66699,13.667 2.5,27.167 2.5,40.5 0,6.66701 -2.66699,12.667 -8,18 -5.33698,5.33299 -12.171,10.667 -20.5,16 -8.33301,5.33299 -17.5,11.5 -27.5,18.5 -10,7 -20,15.833 -30,26.5 -10,10.667 -20.333,18.167 -31,22.5 -10.667,4.333 -21.5,6.83301 -32.5,7.5 -11,0.66699 -21.333,0.33301 -31,-1 -9.667,-1.33301 -18.5,-2 -26.5,-2 -1.33301,0 -2.33301,0.16699 -3,0.5 -0.66699,0.33301 -1.66699,0.5 -3,0.5 -2.672,4 -5.33801,6.33301 -8,7 -2,0.66699 -3.66699,1.66699 -5,3 l -1,1 v 1 c 0,1.33301 1,3 3,5 2,2.66699 2.33301,5.66699 1,9 -2.672,2.66699 -5.33801,4 -8,4 -3.33301,0 -6.66699,-0.33301 -10,-1 -0.66699,3.33801 -1.66699,6.67099 -3,10 -1.33301,3.336 -2.5,7.16901 -3.5,11.5 -1,4.33301 -1.83301,9.5 -2.5,15.5 9.33301,-8 17.5,-13.833 24.5,-17.5 7,-3.667 12.833,-6.16699 17.5,-7.5 5.336,-2 9.66901,-2.66699 13,-2 7.33301,2 11.5,8.16699 12.5,18.5 1,10.33301 0.5,24.833 -1.5,43.5 2,2.66699 3.33301,5.33301 4,8 2.66699,11.333 6.16699,18.833 10.5,22.5 4.33301,3.667 6.5,5.83301 6.5,6.5 2,0 3,0.66699 3,2 2.66699,2 8.33301,3.66699 17,5 3.33301,0.66699 6.5,1.33301 9.5,2 3,0.66699 6.16699,1.66699 9.5,3 5.33701,2.66699 6.67001,6.33301 4,11 -0.66699,0 -1,0.16699 -1,0.5 0,0.33301 -0.33301,0.5 -1,0.5 2.66699,1.33301 5.16699,2.83301 7.5,4.5 2.34,1.66699 4.173,3.16699 5.5,4.5 3.33301,3.34 6.33301,6.67401 9,10 2.66699,3.33301 5.16699,6.83301 7.5,10.5 2.33301,3.66699 4.5,7.16699 6.5,10.5 -3.33301,5.33701 -7.33301,10.17 -12,14.5 -4.66699,4.33301 -8.66699,7.83301 -12,10.5 -4.66699,2.66699 -9,5 -13,7 -4.66699,6.66699 -11,8.66699 -19,6 -4,0 -7.33301,1 -10,3 -1.33301,0.66699 -2.66699,1.66699 -4,3 -6,4 -10,6.33301 -12,7 -3.33301,1.33301 -7.66699,2.66699 -13,4 -9.33301,6 -18.167,13 -26.5,21 -8.333,8 -14.833,16.667 -19.5,26 -3.33301,7.33301 -9.66699,12.167 -19,14.5 -9.33301,2.333 -19.333,2.83301 -30,1.5 -37.333,-28.667 -68.5,-63.333 -93.5,-104 -25,-40.667 -41.167,-85.334 -48.5,-134 6.66701,-9.33301 14.167,-17.667 22.5,-25 8.333,-7.333 16.667,-13.667 25,-19 8.333,-5.333 16.333,-10 24,-14 7.667,-4 13.833,-7 18.5,-9 11.333,-5.33301 24,-9.66699 38,-13 14,-3.33301 27.333,-8 40,-14 l 5,-5 7,-6 c 1.33301,-1.33299 3,-2.83299 5,-4.5 2,-1.66701 4,-3.5 6,-5.5 1.33301,-1.341 2.5,-2.174 3.5,-2.5 1,-0.341 2.16699,-1.174 3.5,-2.5 0,-3.33299 -0.66699,-8.33299 -2,-15 -1.33301,-6.66701 -1.66699,-16.667 -1,-30 0.66699,-15.333 4,-28.5 10,-39.5 6,-11 12,-21.167 18,-30.5 l 6,-9 c 3.33301,-5.333 6,-10 8,-14 2,-4 2.33301,-8.3333 1,-13 -0.66699,-4 -1.66699,-11.5 -3,-22.5 -1.33301,-11 -2.83301,-23.3333 -4.5,-37 C 354.83301,12.8333 353,-1.3333 351,-16 c -2,-14.6667 -3.33301,-27.6667 -4,-39 6,-2.6667 11.167,-5.3333 15.5,-8 4.33301,-2.6667 9,-5.1667 14,-7.5 5,-2.3333 11,-4.5 18,-6.5 7,-2 16.5,-3.3333 28.5,-4 2.66699,4.6667 5.33301,10.6667 8,18 2.66699,5.3333 5.83301,12.1667 9.5,20.5 3.66699,8.3333 8.16699,17.5 13.5,27.5 0,10 1.5,18.6667 4.5,26 3,7.3333 6.16699,13.3333 9.5,18 4,5.3333 8.66699,10 14,14 13.335,9.3333 25.169,19.3333 35.5,30 10.333,10.6667 16.5,19 18.5,25 z m -40,574 c -40.667,0 -79.334,-6 -116,-18 18,-9.33301 38.5,-17.833 61.5,-25.5 23,-7.667 45.833,-11.5 68.5,-11.5 3.33301,0 6.66699,0.16699 10,0.5 3.33301,0.33301 6.66699,0.83301 10,1.5 5.33301,0.68597 10.5,2.35199 15.5,5 5,2.66699 10.167,5.66699 15.5,9 3.33301,2 6.66699,3.83301 10,5.5 3.33301,1.66699 6.66699,3.16699 10,4.5 8.66699,3.33301 17.667,4.5 27,3.5 9.333,-1 19,-2.5 29,-4.5 5.33301,-1.33301 9.66699,-2.33301 13,-3 -23.333,10.672 -47.833,18.838 -73.5,24.5 -25.667,5.66699 -52.5,8.5 -80.5,8.5 z m 4,128 c 68.667,0 133.5,-13.167 194.5,-39.5 61,-26.333 114,-62 159,-107 45,-45 80.667,-98 107,-159 26.333,-61 39.5,-125.833 39.5,-194.5 0,-46 -6,-90.333 -18,-133 -12,-42.667 -28.833,-82.5 -50.5,-119.5 -21.667,-37 -47.667,-70.6667 -78,-101 -30.333,-30.3333 -64,-56.333 -101,-78 -37,-21.667 -76.833,-38.5 -119.5,-50.5 -42.667,-12 -87,-18 -133,-18 -46,0 -90.333,6 -133,18 -42.667,12 -82.5,28.833 -119.5,50.5 -37,21.667 -70.667,47.6667 -101,78 -30.333,30.3333 -56.3333,64 -78,101 C 46.8333,84.5 30,124.333 18,167 6,209.667 0,254 0,300 c 0,46 6,90.333 18,133 12,42.667 28.8333,82.5 50.5,119.5 21.6667,37 47.667,70.667 78,101 30.333,30.333 64,56.333 101,78 37,21.667 76.833,38.5 119.5,50.5 42.667,12 87,18 133,18 z"
         inkscape:connector-curvature="0"
         style="fill:currentColor" />
    </g>
  </g>
</svg>
