<?xml version="1.0" encoding="UTF-8" standalone="no"?>
<!-- Created with Inkscape (http://www.inkscape.org/) -->

<svg
   xmlns:dc="http://purl.org/dc/elements/1.1/"
   xmlns:cc="http://creativecommons.org/ns#"
   xmlns:rdf="http://www.w3.org/1999/02/22-rdf-syntax-ns#"
   xmlns:svg="http://www.w3.org/2000/svg"
   xmlns="http://www.w3.org/2000/svg"
   xmlns:sodipodi="http://sodipodi.sourceforge.net/DTD/sodipodi-0.dtd"
   xmlns:inkscape="http://www.inkscape.org/namespaces/inkscape"
   width="987.97894"
   height="997.0191"
   id="svg2"
   sodipodi:version="0.32"
   inkscape:version="0.48.3.1 r9886"
   sodipodi:docname="wrench-alt.svg"
   version="1.0"
   inkscape:output_extension="org.inkscape.output.svg.inkscape">
  <defs
     id="defs4" />
  <sodipodi:namedview
     id="base"
     pagecolor="#ffffff"
     bordercolor="#666666"
     borderopacity="1.0"
     inkscape:pageopacity="0.0"
     inkscape:pageshadow="2"
     inkscape:zoom="0.64"
     inkscape:cx="-26.284622"
     inkscape:cy="425.62412"
     inkscape:document-units="px"
     inkscape:current-layer="layer1"
     inkscape:window-width="1920"
     inkscape:window-height="1025"
     inkscape:window-x="0"
     inkscape:window-y="27"
     showgrid="false"
     inkscape:window-maximized="1"
     fit-margin-top="0"
     fit-margin-left="0"
     fit-margin-right="0"
     fit-margin-bottom="0" />
  <metadata
     id="metadata7">
    <rdf:RDF>
      <cc:Work
         rdf:about="">
        <dc:format>image/svg+xml</dc:format>
        <dc:type
           rdf:resource="http://purl.org/dc/dcmitype/StillImage" />
        <dc:title></dc:title>
        <dc:creator>
          <cc:Agent>
            <dc:title />
          </cc:Agent>
        </dc:creator>
        <dc:subject>
          <rdf:Bag />
        </dc:subject>
        <cc:license
           rdf:resource="http://creativecommons.org/licenses/publicdomain/" />
        <dc:description />
        <dc:contributor>
          <cc:Agent>
            <dc:title />
          </cc:Agent>
        </dc:contributor>
      </cc:Work>
      <cc:License
         rdf:about="http://creativecommons.org/licenses/publicdomain/">
        <cc:permits
           rdf:resource="http://creativecommons.org/ns#Reproduction" />
        <cc:permits
           rdf:resource="http://creativecommons.org/ns#Distribution" />
        <cc:permits
           rdf:resource="http://creativecommons.org/ns#DerivativeWorks" />
      </cc:License>
    </rdf:RDF>
  </metadata>
  <g
     inkscape:label="Layer 1"
     inkscape:groupmode="layer"
     id="layer1"
     transform="translate(-374.21785,422.78273)">
    <g
       id="g3758"
       transform="matrix(1.0367647,0,0,-1.0367647,349.82497,386.75623)">
      <path
         id="path3760"
         d="m 768,51 c 32,34 56.167,72.167 72.5,114.5 16.333,42.333 25.167,86.167 26.5,131.5 l -36,-22 c -4.66699,0.66699 -8.66699,1 -12,1 -7.33301,0 -11,-2.33301 -11,-7 l 15,-6 c 2.69202,-1.33301 4.35901,-2.66699 5,-4 2,-6 0.66699,-13 -4,-21 l -8,-12 c -2,-2.66701 -4,-5 -6,-7 l -7,-7 -7,-7 c 0,-2 -0.16699,-4.16701 -0.5,-6.5 -0.33301,-2.33299 -0.5,-4.83299 -0.5,-7.5 0,-5.334 -1.16699,-11.167 -3.5,-17.5 -2.33899,-6.33299 -5.17297,-12.833 -8.5,-19.5 v -13 c -1.33301,-4.66701 -2.83301,-8.83299 -4.5,-12.5 -1.66699,-3.667 -3.16699,-7.5 -4.5,-11.5 -1.33301,-3.333 -2.83301,-6.667 -4.5,-10 -1.66699,-3.333 -2.83301,-7 -3.5,-11 -2,-17.3333 -9.66699,-33.3333 -23,-48 -18,-18 -33,-26 -45,-24 -6,1.3333 -10.5,5 -13.5,11 -3,6 -5.16699,11.6667 -6.5,17 -0.66699,0.666698 -1,2 -1,4 l -4,8 -4,9 c -3.336,8 -6.66901,16.1667 -10,24.5 -3.33301,8.333 -4.33301,17.167 -3,26.5 0,1.333 0.16699,3 0.5,5 0.33301,2 0.5,4 0.5,6 1.33301,7.33299 2.16699,14.5 2.5,21.5 0.33301,7 -1.16699,14.167 -4.5,21.5 l -3,6 c -2.66699,5.33299 -4.5,10.333 -5.5,15 -1,4.667 0.16699,11 3.5,19 0,0.66701 -2.83301,1.66701 -8.5,3 -5.66699,1.33299 -15.5,2 -29.5,2 h -8 -3 c -28.667,0 -46.667,17.333 -54,52 -4,22 0.33301,43 13,63 0.66699,1.33301 1,3 1,5 0,4.66699 0.33301,8 1,10 3.33301,0.66699 5.83301,1.83301 7.5,3.5 1.66699,1.66699 3.16699,3.5 4.5,5.5 l 4,8 c 7.33301,0.66699 16,1.83301 26,3.5 10,1.66699 20.333,3 31,4 10.667,1 20.5,1.33301 29.5,1 9,-0.33301 16.167,-1.83301 21.5,-4.5 4.677,-3.33301 9.34399,-6.33301 14,-9 9.33301,-6 17.333,-10 24,-12 l 28,19 c -6,10.667 -11.667,18.667 -17,24 -5.34399,5.33301 -9.67798,9.33301 -13,12 -4,2.66699 -7.66699,4.33301 -11,5 -4,-0.66699 -7.66699,-1.66699 -11,-3 -6.66699,-2 -13,-6.66699 -19,-14 l -66,6 c -3.33301,-3.33301 -7.33301,-5.5 -12,-6.5 -4.66699,-1 -8.66699,-1.83301 -12,-2.5 -4.66699,-0.66699 -9,-1 -13,-1 -1.33301,6.66699 -3,12.333 -5,17 -4,8 -6.16699,14.167 -6.5,18.5 -0.33301,4.333 0.5,7.83301 2.5,10.5 2,2.66699 4.5,5 7.5,7 3,2 5.5,5 7.5,9 2,4 3.16699,8 3.5,12 0.33301,4 1,9 2,15 1,6 3,13.167 6,21.5 3,8.333 8.16699,18.5 15.5,30.5 4.66699,8 12,14.667 22,20 10,5.333 21,9.66699 33,13 12,3.33301 24.333,5.83301 37,7.5 12.667,1.66699 24.667,2.83398 36,3.5 -23.333,20 -47.333,36.667 -72,50 -5.33301,0 -10.5,0.5 -15.5,1.5 -5,1 -9.83301,2.16699 -14.5,3.5 -9.33801,2 -18.671,3.5 -28,4.5 -9.33301,1 -18.333,-0.16699 -27,-3.5 -3.33301,-1.33301 -6.5,-2.83301 -9.5,-4.5 -3,-1.66699 -6.16699,-3.5 -9.5,-5.5 -4.66699,-3.34302 -9.5,-6.17603 -14.5,-8.5 -5,-2.33301 -10.167,-3.83301 -15.5,-4.5 -3.33301,-0.66699 -6.5,-1.16699 -9.5,-1.5 -3,-0.33301 -6.16699,-0.5 -9.5,-0.5 -23.333,0 -46.833,4.16699 -70.5,12.5 -23.667,8.33301 -44.167,17.167 -61.5,26.5 -40,-13.335 -77,-33.668 -111,-61 11.333,1.33301 22.833,1.5 34.5,0.5 11.667,-1 19.5,-6.16699 23.5,-15.5 4,-8.66699 10,-16.833 18,-24.5 8,-7.667 16.667,-14.5 26,-20.5 2.66699,-1.33301 6.66699,-2.33301 12,-3 1.33301,-0.66699 5,-3.33301 11,-8 0.66699,0 1.33301,-0.33301 2,-1 0.66699,-0.66699 1.66699,-1.33301 3,-2 l 9,-3 c 8,2.66699 14.333,1 19,-5 4,-2 8,-4.33301 12,-7 3.33701,-2.66699 7.17001,-6 11.5,-10 4.33701,-4 8.17001,-8.66699 11.5,-14 -4,-6.668 -8.66699,-13.335 -14,-20 l -8,-10 c -1.33301,-1.33301 -3,-2.66699 -5,-4 -2,-1.33301 -4.33301,-2.66699 -7,-4 0,-0.66699 0.16699,-1 0.5,-1 0.33301,0 0.5,-0.33301 0.5,-1 2.66699,-4 1.66699,-7.33301 -3,-10 -5.33301,-2.66699 -11.333,-4 -18,-4 l -10,-2 -7,-4 c 0,-0.668 -1,-1.33499 -3,-2 -2.66699,-0.67899 -5,-2.34601 -7,-5 -4,-4 -7,-11.333 -9,-22 -0.66699,-2.668 -2,-5.33499 -4,-8 2,-17.333 2.5,-32.667 1.5,-46 -1,-13.333 -5.16699,-20.667 -12.5,-22 -3.33301,-0.66699 -7.33301,0 -12,2 -4.668,1.33301 -10.335,3.83301 -17,7.5 -6.66699,3.66699 -14.667,9.16699 -24,16.5 0.66699,-3.33301 1.5,-6.5 2.5,-9.5 1,-3 2.16699,-5.83301 3.5,-8.5 1.33301,-2.66699 2.33301,-5.66699 3,-9 2,0 3.83301,0.16699 5.5,0.5 1.66699,0.33301 3.16699,0.5 4.5,0.5 3.33801,0 5.672,-1.33301 7,-4 1.33301,-3.33301 1,-6 -1,-8 l -2.5,-5 -0.5,-2 6,-3 c 4,-2.66699 6.66699,-5 8,-7 1.33301,0 2.33301,-0.16699 3,-0.5 0.66699,-0.33301 1.66699,-0.5 3,-0.5 7.33301,0 15.833,0.5 25.5,1.5 9.667,1 19.667,1.16699 30,0.5 10.335,-0.66699 20.668,-3 31,-7 10.335,-4 20.168,-11.333 29.5,-22 9.33301,-10 19,-18.333 29,-25 10,-6.667 19,-12.5 27,-17.5 8,-5 14.5,-10 19.5,-15 5,-5 7.5,-10.833 7.5,-17.5 0,-13.333 -0.83301,-26.5 -2.5,-39.5 C 542.83301,123.5 541,114.333 539,109 537.66699,103 532,94.8333 522,84.5 512,74.1667 500.333,64.6667 487,56 482.33301,52 478,47.3333 474,42 470.66699,37.3333 467.5,31.5 464.5,24.5 461.5,17.5 460,9 460,-1 c -5.33301,-8.66667 -9.66699,-16.6667 -13,-24 -3.33301,-7.3333 -6.33301,-13.6666 -9,-19 -2.67001,-6.6667 -5.33701,-12.3333 -8,-17 63.333,-12 124.833,-8 184.5,12 C 674.167,-29 725.334,4.3333 768,51 z M 361,-40 c 0.66699,10.6667 1.66699,23 3,37 1.336,14 2.66901,27.8333 4,41.5 1.33301,13.6667 2.5,25.8333 3.5,36.5 1,10.6667 1.83301,18 2.5,22 0.66699,7.333 -2.33301,16 -9,26 l -6,9 c -5.33301,8.66701 -10.833,18.334 -16.5,29 -5.672,10.667 -8.83801,23.334 -9.5,38 -0.66699,13.333 -0.5,23 0.5,29 1,6 1.5,10.667 1.5,14 -1.33301,1.33299 -2.5,2.33299 -3.5,3 -1,0.668 -2.16699,1.334 -3.5,2 -4.66901,4.66701 -8.336,8 -11,10 -4.66901,4.66699 -8.336,8 -11,10 -12,6 -24.667,10.5 -38,13.5 -13.334,3 -25.667,7.16699 -37,12.5 -4.66701,2 -11,5 -19,9 -8,4 -16.333,9 -25,15 -8.667,6 -17.333,13 -26,21 -8.667,8 -16,17 -22,27 -5.33701,-34 -6.17101,-68.167 -2.5,-102.5 C 140.16701,228.167 148.667,194.333 162,161 180.667,115 207.167,74.6667 241.5,40 275.834,5.3333 315.667,-21.3333 361,-40 z m 139,816 c 65.333,0 127,-12.5 185,-37.5 58,-25 108.5,-59 151.5,-102 43,-43 77,-93.5 102,-151.5 25,-58 37.5,-119.667 37.5,-185 0,-65.333 -12.5,-127 -37.5,-185 -25,-58 -59,-108.5 -102,-151.5 -43,-43 -93.5,-77 -151.5,-102 -58,-25 -119.667,-37.5 -185,-37.5 -65.333,0 -127,12.5 -185,37.5 -58,25 -108.5,59 -151.5,102 -43,43 -77,93.5 -102,151.5 -25,58 -37.5,119.667 -37.5,185 0,65.333 12.5,127 37.5,185 25,58 59,108.5 102,151.5 43,43 93.5,77 151.5,102 58,25 119.667,37.5 185,37.5 z"
         inkscape:connector-curvature="0"
         style="fill:currentColor" />
    </g>
  </g>
</svg>
