<?xml version="1.0" encoding="UTF-8" standalone="no"?>
<!-- Created with Inkscape (http://www.inkscape.org/) -->

<svg
   xmlns:dc="http://purl.org/dc/elements/1.1/"
   xmlns:cc="http://creativecommons.org/ns#"
   xmlns:rdf="http://www.w3.org/1999/02/22-rdf-syntax-ns#"
   xmlns:svg="http://www.w3.org/2000/svg"
   xmlns="http://www.w3.org/2000/svg"
   xmlns:sodipodi="http://sodipodi.sourceforge.net/DTD/sodipodi-0.dtd"
   xmlns:inkscape="http://www.inkscape.org/namespaces/inkscape"
   width="987.97894"
   height="997.0191"
   id="svg2"
   sodipodi:version="0.32"
   inkscape:version="0.48.3.1 r9886"
   sodipodi:docname="graph.svg"
   version="1.0"
   inkscape:output_extension="org.inkscape.output.svg.inkscape">
  <defs
     id="defs4" />
  <sodipodi:namedview
     id="base"
     pagecolor="#ffffff"
     bordercolor="#666666"
     borderopacity="1.0"
     inkscape:pageopacity="0.0"
     inkscape:pageshadow="2"
     inkscape:zoom="0.45254834"
     inkscape:cx="211.22733"
     inkscape:cy="242.38832"
     inkscape:document-units="px"
     inkscape:current-layer="layer1"
     inkscape:window-width="1487"
     inkscape:window-height="1021"
     inkscape:window-x="0"
     inkscape:window-y="28"
     showgrid="false"
     inkscape:window-maximized="0"
     fit-margin-top="0"
     fit-margin-left="0"
     fit-margin-right="0"
     fit-margin-bottom="0" />
  <metadata
     id="metadata7">
    <rdf:RDF>
      <cc:Work
         rdf:about="">
        <dc:format>image/svg+xml</dc:format>
        <dc:type
           rdf:resource="http://purl.org/dc/dcmitype/StillImage" />
        <dc:title></dc:title>
        <dc:creator>
          <cc:Agent>
            <dc:title />
          </cc:Agent>
        </dc:creator>
        <dc:subject>
          <rdf:Bag />
        </dc:subject>
        <cc:license
           rdf:resource="http://creativecommons.org/licenses/publicdomain/" />
        <dc:description />
        <dc:contributor>
          <cc:Agent>
            <dc:title />
          </cc:Agent>
        </dc:contributor>
      </cc:Work>
      <cc:License
         rdf:about="http://creativecommons.org/licenses/publicdomain/">
        <cc:permits
           rdf:resource="http://creativecommons.org/ns#Reproduction" />
        <cc:permits
           rdf:resource="http://creativecommons.org/ns#Distribution" />
        <cc:permits
           rdf:resource="http://creativecommons.org/ns#DerivativeWorks" />
      </cc:License>
    </rdf:RDF>
  </metadata>
  <g
     inkscape:label="Layer 1"
     inkscape:groupmode="layer"
     id="layer1"
     transform="translate(-374.21785,422.78273)">
    <g
       id="g5286"
       transform="matrix(0.987,0,0,-0.987,374.70732,371.82682)">
      <path
         id="path5288"
         d="m 500,-200 c -46,0 -90.333,6 -133,18 -42.667,12 -82.5,28.833 -119.5,50.5 -37,21.667 -70.667,47.6667 -101,78 -30.333,30.3333 -56.3333,64 -78,101 C 46.8333,84.5 30,124.333 18,167 6,209.667 0,254 0,300 c 0,46 6,90.333 18,133 12,42.667 28.8333,82.5 50.5,119.5 21.6667,37 47.667,70.667 78,101 30.333,30.333 64,56.333 101,78 37,21.667 76.833,38.5 119.5,50.5 42.667,12 87,18 133,18 68.667,0 133.5,-13.167 194.5,-39.5 61,-26.333 114,-62 159,-107 45,-45 80.667,-98 107,-159 26.333,-61 39.5,-125.833 39.5,-194.5 0,-46 -6,-90.333 -18,-133 -12,-42.667 -28.833,-82.5 -50.5,-119.5 -21.667,-37 -47.667,-70.6667 -78,-101 -30.333,-30.3333 -64,-56.333 -101,-78 -37,-21.667 -76.833,-38.5 -119.5,-50.5 -42.667,-12 -87,-18 -133,-18 z m -58,390 c 8,1.33299 14,5 18,11 l 54,85 38,-80 c 4,-8.66701 11,-13 21,-13 10,-1.33299 17.333,2.66701 22,12 l 94,165 c 3.33301,5.33301 4,11.333 2,18 -2,6.667 -5.66699,11.667 -11,15 -6,3.33301 -12.167,4 -18.5,2 -6.34302,-2 -11.177,-5.66699 -14.5,-11 l -71,-125 -37,78 c -3.33301,8 -10,12.667 -20,14 -10,0 -17.333,-4 -22,-12 l -62,-96 -28,28 c -4.66699,4.66699 -10,7 -16,7 -6,0 -11.667,-1.66699 -17,-5 l -58,-49 c -5.33301,-4 -8.33301,-9.33299 -9,-16 -0.66699,-6.66701 1.33301,-12.667 6,-18 4,-5.33299 9.33301,-8.33299 16,-9 6.66699,-0.66701 12.667,1.33299 18,6 l 41,34 34,-34 c 6,-4.66701 11.667,-7 17,-7 h 3 z M 740,91 c 9.33301,0 17.333,3.3333 24,10 6.66699,6.667 10,14.667 10,24 v 350 c 0,9.33301 -3.33301,17.333 -10,24 -6.66699,6.667 -14.667,10 -24,10 H 255 c -9.33299,0 -17.333,-3.33301 -24,-10 -6.667,-6.66699 -10,-14.667 -10,-24 V 125 c 0,-9.333 3.33299,-17.333 10,-24 6.66701,-6.6667 14.667,-10 24,-10 h 485 z m -34,68 H 289 V 441 H 706 V 159 z"
         inkscape:connector-curvature="0"
         style="fill:currentColor" />
    </g>
  </g>
</svg>
