<?xml version="1.0" encoding="UTF-8" standalone="no"?>
<!-- Created with Inkscape (http://www.inkscape.org/) -->

<svg
   xmlns:dc="http://purl.org/dc/elements/1.1/"
   xmlns:cc="http://creativecommons.org/ns#"
   xmlns:rdf="http://www.w3.org/1999/02/22-rdf-syntax-ns#"
   xmlns:svg="http://www.w3.org/2000/svg"
   xmlns="http://www.w3.org/2000/svg"
   xmlns:sodipodi="http://sodipodi.sourceforge.net/DTD/sodipodi-0.dtd"
   xmlns:inkscape="http://www.inkscape.org/namespaces/inkscape"
   width="512"
   height="512"
   id="svg2"
   sodipodi:version="0.32"
   inkscape:version="0.48.3.1 r9886"
   sodipodi:docname="graph-alt.svg"
   version="1.0"
   inkscape:output_extension="org.inkscape.output.svg.inkscape">
  <defs
     id="defs4" />
  <sodipodi:namedview
     id="base"
     pagecolor="#ffffff"
     bordercolor="#666666"
     borderopacity="1.0"
     inkscape:pageopacity="0.0"
     inkscape:pageshadow="2"
     inkscape:zoom="0.45254834"
     inkscape:cx="-51.728004"
     inkscape:cy="242.38832"
     inkscape:document-units="px"
     inkscape:current-layer="layer1"
     inkscape:window-width="1487"
     inkscape:window-height="1021"
     inkscape:window-x="0"
     inkscape:window-y="28"
     showgrid="false"
     inkscape:window-maximized="0"
     fit-margin-top="0"
     fit-margin-left="0"
     fit-margin-right="0"
     fit-margin-bottom="0" />
  <metadata
     id="metadata7">
    <rdf:RDF>
      <cc:Work
         rdf:about="">
        <dc:format>image/svg+xml</dc:format>
        <dc:type
           rdf:resource="http://purl.org/dc/dcmitype/StillImage" />
        <dc:title />
        <dc:creator>
          <cc:Agent>
            <dc:title />
          </cc:Agent>
        </dc:creator>
        <dc:subject>
          <rdf:Bag />
        </dc:subject>
        <cc:license
           rdf:resource="http://creativecommons.org/licenses/publicdomain/" />
        <dc:description />
        <dc:contributor>
          <cc:Agent>
            <dc:title />
          </cc:Agent>
        </dc:contributor>
      </cc:Work>
      <cc:License
         rdf:about="http://creativecommons.org/licenses/publicdomain/">
        <cc:permits
           rdf:resource="http://creativecommons.org/ns#Reproduction" />
        <cc:permits
           rdf:resource="http://creativecommons.org/ns#Distribution" />
        <cc:permits
           rdf:resource="http://creativecommons.org/ns#DerivativeWorks" />
      </cc:License>
    </rdf:RDF>
  </metadata>
  <g
     inkscape:label="Layer 1"
     inkscape:groupmode="layer"
     id="layer1"
     transform="translate(-374.21785,-62.236374)">
    <path
       style="fill:#000000;fill-opacity:1;stroke:none"
       d="m 630.21785,62.236374 c -141.38489,0 -256,114.615106 -256,255.999996 0,141.38489 114.61511,256 256,256 141.38489,0 256,-114.61511 256,-256 0,-141.38489 -114.61511,-255.999996 -256,-255.999996 z M 504.82778,210.0621 l 250.76393,0 c 10.38478,0.81173 17.36544,8.39296 17.49139,17.76698 l 0,180.81458 c -0.48389,10.04233 -8.44357,17.65663 -17.49139,17.78319 l -250.76393,0 c -10.38468,-0.81172 -17.34922,-8.40917 -17.47518,-17.78319 l 0,-180.81458 c 0.48351,-10.04261 8.42735,-17.64042 17.47518,-17.76698 z m 17.79939,35.25836 0,145.83182 215.18136,0 0,-145.83182 -215.18136,0 z M 717.691,263.91418 c 8.31348,0.0203 15.44296,9.80184 11.50963,18.46403 l -48.5998,85.05775 c -5.63637,8.98602 -18.27157,7.19823 -22.24114,-0.87538 l -19.55015,-41.2077 -28.15805,43.86627 c -4.63919,6.39436 -14.3981,7.41836 -19.27457,2.07497 l -17.49139,-17.49139 -21.33333,17.49139 c -12.71038,10.484 -24.47855,-11.09583 -16,-19.25836 l 29.92502,-24.89969 c 5.58991,-3.7208 12.45316,-3.44439 16.9078,0.89159 l 14.50862,14.52482 32.01621,-49.79939 c 5.21832,-8.16002 18.40377,-5.60298 21.93313,1.47517 l 18.96656,39.71632 36.45796,-64.01621 c 3.18223,-4.28826 6.91336,-6.02277 10.4235,-6.01419 z"
       id="path3871"
       inkscape:connector-curvature="0" />
  </g>
</svg>
