<?xml version="1.0" encoding="UTF-8" standalone="no"?>
<!-- Created with Inkscape (http://www.inkscape.org/) -->

<svg
   xmlns:dc="http://purl.org/dc/elements/1.1/"
   xmlns:cc="http://creativecommons.org/ns#"
   xmlns:rdf="http://www.w3.org/1999/02/22-rdf-syntax-ns#"
   xmlns:svg="http://www.w3.org/2000/svg"
   xmlns="http://www.w3.org/2000/svg"
   xmlns:sodipodi="http://sodipodi.sourceforge.net/DTD/sodipodi-0.dtd"
   xmlns:inkscape="http://www.inkscape.org/namespaces/inkscape"
   width="512"
   height="512"
   id="svg2"
   sodipodi:version="0.32"
   inkscape:version="0.48.3.1 r9886"
   sodipodi:docname="graph.svg"
   version="1.0"
   inkscape:output_extension="org.inkscape.output.svg.inkscape">
  <defs
     id="defs4" />
  <sodipodi:namedview
     id="base"
     pagecolor="#ffffff"
     bordercolor="#666666"
     borderopacity="1.0"
     inkscape:pageopacity="0.0"
     inkscape:pageshadow="2"
     inkscape:zoom="0.45254834"
     inkscape:cx="-368.19138"
     inkscape:cy="242.38832"
     inkscape:document-units="px"
     inkscape:current-layer="layer1"
     inkscape:window-width="1487"
     inkscape:window-height="1021"
     inkscape:window-x="0"
     inkscape:window-y="28"
     showgrid="false"
     inkscape:window-maximized="0"
     fit-margin-top="0"
     fit-margin-left="0"
     fit-margin-right="0"
     fit-margin-bottom="0" />
  <metadata
     id="metadata7">
    <rdf:RDF>
      <cc:Work
         rdf:about="">
        <dc:format>image/svg+xml</dc:format>
        <dc:type
           rdf:resource="http://purl.org/dc/dcmitype/StillImage" />
        <dc:title />
        <dc:creator>
          <cc:Agent>
            <dc:title />
          </cc:Agent>
        </dc:creator>
        <dc:subject>
          <rdf:Bag />
        </dc:subject>
        <cc:license
           rdf:resource="http://creativecommons.org/licenses/publicdomain/" />
        <dc:description />
        <dc:contributor>
          <cc:Agent>
            <dc:title />
          </cc:Agent>
        </dc:contributor>
      </cc:Work>
      <cc:License
         rdf:about="http://creativecommons.org/licenses/publicdomain/">
        <cc:permits
           rdf:resource="http://creativecommons.org/ns#Reproduction" />
        <cc:permits
           rdf:resource="http://creativecommons.org/ns#Distribution" />
        <cc:permits
           rdf:resource="http://creativecommons.org/ns#DerivativeWorks" />
      </cc:License>
    </rdf:RDF>
  </metadata>
  <g
     inkscape:label="Layer 1"
     inkscape:groupmode="layer"
     id="layer1"
     transform="translate(-374.21785,-62.236374)">
    <path
       id="path3860"
       style="fill:currentColor"
       d="m 560.63561,413.30375 -31.33609,-31.33609 -38.24066,31.33609 c -22.77572,18.78625 -43.87322,-19.8964 -28.6805,-34.52282 l 53.64315,-44.6141 c 10.01654,-6.66728 22.2916,-6.17627 30.27386,1.59336 l 26.02489,26.02489 57.36099,-89.22821 c 9.35072,-14.62192 32.97866,-10.02774 39.30291,2.6556 l 33.9917,71.17012 65.32777,-114.72198 c 19.20768,-25.88331 49.32697,0.23166 39.30293,22.30705 l -87.10375,152.43153 c -10.09979,16.10202 -32.72094,12.87372 -39.83401,-1.59336 l -35.05394,-73.82573 -50.45643,78.60581 c -8.31295,11.45804 -25.78468,13.29265 -34.52282,3.71784 z m -155.0824,-288.9235 c -16.21276,0.22677 -30.46895,13.85877 -31.33536,31.85411 l 0,323.98782 c 0.22568,16.79729 12.72708,30.41579 31.33536,31.87031 l 449.32926,0 c 16.21281,-0.22678 30.4683,-13.87549 31.33538,-31.87031 l 0,-323.98782 c -0.22565,-16.79729 -12.72701,-30.39958 -31.33538,-31.85411 l -449.32926,0 z m 31.87031,63.18946 385.58863,0 0,261.31711 -385.58863,0 0,-261.31711 z"
       inkscape:connector-curvature="0" />
  </g>
</svg>
