<?xml version="1.0" encoding="UTF-8" standalone="no"?>
<!-- Created with Inkscape (http://www.inkscape.org/) -->

<svg
   xmlns:dc="http://purl.org/dc/elements/1.1/"
   xmlns:cc="http://creativecommons.org/ns#"
   xmlns:rdf="http://www.w3.org/1999/02/22-rdf-syntax-ns#"
   xmlns:svg="http://www.w3.org/2000/svg"
   xmlns="http://www.w3.org/2000/svg"
   xmlns:sodipodi="http://sodipodi.sourceforge.net/DTD/sodipodi-0.dtd"
   xmlns:inkscape="http://www.inkscape.org/namespaces/inkscape"
   width="987.97894"
   height="997.0191"
   id="svg2"
   sodipodi:version="0.32"
   inkscape:version="0.48.3.1 r9886"
   sodipodi:docname="quotes-alt.svg"
   version="1.0"
   inkscape:output_extension="org.inkscape.output.svg.inkscape">
  <defs
     id="defs4" />
  <sodipodi:namedview
     id="base"
     pagecolor="#ffffff"
     bordercolor="#666666"
     borderopacity="1.0"
     inkscape:pageopacity="0.0"
     inkscape:pageshadow="2"
     inkscape:zoom="0.64"
     inkscape:cx="286.21538"
     inkscape:cy="425.62412"
     inkscape:document-units="px"
     inkscape:current-layer="layer1"
     inkscape:window-width="1920"
     inkscape:window-height="1025"
     inkscape:window-x="0"
     inkscape:window-y="27"
     showgrid="false"
     inkscape:window-maximized="1"
     fit-margin-top="0"
     fit-margin-left="0"
     fit-margin-right="0"
     fit-margin-bottom="0" />
  <metadata
     id="metadata7">
    <rdf:RDF>
      <cc:Work
         rdf:about="">
        <dc:format>image/svg+xml</dc:format>
        <dc:type
           rdf:resource="http://purl.org/dc/dcmitype/StillImage" />
        <dc:title></dc:title>
        <dc:creator>
          <cc:Agent>
            <dc:title />
          </cc:Agent>
        </dc:creator>
        <dc:subject>
          <rdf:Bag />
        </dc:subject>
        <cc:license
           rdf:resource="http://creativecommons.org/licenses/publicdomain/" />
        <dc:description />
        <dc:contributor>
          <cc:Agent>
            <dc:title />
          </cc:Agent>
        </dc:contributor>
      </cc:Work>
      <cc:License
         rdf:about="http://creativecommons.org/licenses/publicdomain/">
        <cc:permits
           rdf:resource="http://creativecommons.org/ns#Reproduction" />
        <cc:permits
           rdf:resource="http://creativecommons.org/ns#Distribution" />
        <cc:permits
           rdf:resource="http://creativecommons.org/ns#DerivativeWorks" />
      </cc:License>
    </rdf:RDF>
  </metadata>
  <g
     inkscape:label="Layer 1"
     inkscape:groupmode="layer"
     id="layer1"
     transform="translate(-374.21785,422.78273)">
    <g
       id="g3956"
       transform="matrix(1.0882029,0,0,-1.0882029,324.64997,402.18769)">
      <path
         id="path3958"
         d="m 755,211 c 13.333,-6.66701 20,-18 20,-34 V 48 25 c 0,-10 -3,-18.6667 -9,-26 -6,-7.3333 -13.667,-11 -23,-11 H 252 c -8.66701,0 -16,3.66666 -22,11 -6,7.33333 -9,16 -9,26 v 23 129 c 0,16 6.66701,27.333 20,34 l 138,64 54,25 c -25.333,15.333 -44.667,37.333 -58,66 -12.667,25.333 -19,52.333 -19,81 0,8.66699 0.66699,17 2,25 1.33301,8 3,15.667 5,23 9.33401,34 26.167,62 50.5,84 24.333,22 52.5,33 84.5,33 32.667,0 61.334,-11.333 86,-34 24.669,-22.667 41.336,-51.333 50,-86 3.33301,-16.667 5,-31.667 5,-45 0,-26.667 -5.33301,-52.334 -16,-77 -13.336,-30 -32.669,-52.667 -58,-68 l 57,-27 133,-64 v 0 z M 221,253 C 206.333,246.33299 194.833,236.167 186.5,222.5 178.167,208.833 174,193.667 174,177 V 48 H 71 c -7.3333,0 -13.3333,2.8333 -18,8.5 -4.6667,5.6667 -7,12.8333 -7,21.5 v 122 c 0,14.667 5.3333,24 16,28 l 155,72 c -18.667,11.333 -33.667,27.5 -45,48.5 -11.333,21 -17,44.5 -17,70.5 0,18 3,35.167 9,51.5 6,16.333 14.167,30.5 24.5,42.5 10.333,12 22.333,21.5 36,28.5 13.667,7 28.5,10.5 44.5,10.5 10.667,0 20.667,-1.66699 30,-5 9.33301,-3.34198 18.333,-7.67499 27,-13 -11.333,-28 -17,-57 -17,-87 0,-23.333 3.33301,-45.833 10,-67.5 6.66699,-21.667 16,-41.167 28,-58.5 -7.33301,-8 -15,-14.333 -23,-19 z m 716,-25 c 10.667,-5.334 16,-14.667 16,-28 V 78 C 953,69.3333 950.66699,62.1667 946,56.5 941.33301,50.8333 935.333,48 928,48 H 822 v 129 c 0,16.667 -4.16699,31.834 -12.5,45.5 -8.33301,13.667 -19.5,23.834 -33.5,30.5 l -99,47 c -9.33301,5.33301 -18.333,13 -27,23 11.333,17.333 20.167,36.5 26.5,57.5 6.333,21 9.5,43.167 9.5,66.5 0,15.333 -1.33301,30 -4,44 -2.66699,14 -6.66699,27.667 -12,41 8.66699,6 18,10.833 28,14.5 10,3.667 20.333,5.5 31,5.5 16,0 31,-3.5 45,-10.5 14,-7 26.167,-16.5 36.5,-28.5 10.333,-12 18.5,-26.167 24.5,-42.5 6,-16.333 9,-33.5 9,-51.5 0,-25.333 -5.66699,-48.5 -17,-69.5 -11.336,-21 -25.67,-37.167 -43,-48.5 l 153,-73 v 0 z"
         inkscape:connector-curvature="0"
         style="fill:currentColor" />
    </g>
  </g>
</svg>
