<?xml version="1.0" encoding="UTF-8" standalone="no"?>
<!-- Created with Inkscape (http://www.inkscape.org/) -->

<svg
   xmlns:dc="http://purl.org/dc/elements/1.1/"
   xmlns:cc="http://creativecommons.org/ns#"
   xmlns:rdf="http://www.w3.org/1999/02/22-rdf-syntax-ns#"
   xmlns:svg="http://www.w3.org/2000/svg"
   xmlns="http://www.w3.org/2000/svg"
   xmlns:sodipodi="http://sodipodi.sourceforge.net/DTD/sodipodi-0.dtd"
   xmlns:inkscape="http://www.inkscape.org/namespaces/inkscape"
   width="512"
   height="512"
   id="svg2"
   sodipodi:version="0.32"
   inkscape:version="0.48.3.1 r9886"
   sodipodi:docname="group-alt.svg"
   version="1.0"
   inkscape:output_extension="org.inkscape.output.svg.inkscape">
  <defs
     id="defs4" />
  <sodipodi:namedview
     id="base"
     pagecolor="#ffffff"
     bordercolor="#666666"
     borderopacity="1.0"
     inkscape:pageopacity="0.0"
     inkscape:pageshadow="2"
     inkscape:zoom="0.64"
     inkscape:cx="-43.501607"
     inkscape:cy="497.29681"
     inkscape:document-units="px"
     inkscape:current-layer="layer1"
     inkscape:window-width="1920"
     inkscape:window-height="1025"
     inkscape:window-x="0"
     inkscape:window-y="27"
     showgrid="false"
     inkscape:window-maximized="1"
     fit-margin-top="0"
     fit-margin-left="0"
     fit-margin-right="0"
     fit-margin-bottom="0" />
  <metadata
     id="metadata7">
    <rdf:RDF>
      <cc:Work
         rdf:about="">
        <dc:format>image/svg+xml</dc:format>
        <dc:type
           rdf:resource="http://purl.org/dc/dcmitype/StillImage" />
        <dc:title />
        <dc:creator>
          <cc:Agent>
            <dc:title />
          </cc:Agent>
        </dc:creator>
        <dc:subject>
          <rdf:Bag />
        </dc:subject>
        <cc:license
           rdf:resource="http://creativecommons.org/licenses/publicdomain/" />
        <dc:description />
        <dc:contributor>
          <cc:Agent>
            <dc:title />
          </cc:Agent>
        </dc:contributor>
      </cc:Work>
      <cc:License
         rdf:about="http://creativecommons.org/licenses/publicdomain/">
        <cc:permits
           rdf:resource="http://creativecommons.org/ns#Reproduction" />
        <cc:permits
           rdf:resource="http://creativecommons.org/ns#Distribution" />
        <cc:permits
           rdf:resource="http://creativecommons.org/ns#DerivativeWorks" />
      </cc:License>
    </rdf:RDF>
  </metadata>
  <g
     inkscape:label="Layer 1"
     inkscape:groupmode="layer"
     id="layer1"
     transform="translate(-374.21785,-62.236374)">
    <path
       style="fill:#000000;fill-opacity:1;stroke:none"
       d="m 630.21785,62.236374 c -141.38489,0 -256,114.615106 -256,255.999996 0,141.38489 114.61511,256 256,256 141.38489,0 256,-114.61511 256,-256 0,-141.38489 -114.61511,-255.999996 -256,-255.999996 z m -0.51874,142.346496 c 23.61297,0.31045 43.17127,19.53338 49.6697,44.02837 2.47728,9.99442 2.75693,20.13378 0.25937,30.71935 -3.76609,14.90276 -11.30583,29.46051 -25.35359,38.40325 l 20.47416,9.72644 48.64843,23.55421 c 4.77851,2.048 7.16515,6.14374 7.16515,12.28774 l 0,47.09219 c 0,9.71222 0.77124,18.08737 -11.26647,21.51166 l -179.19351,0 c -11.5771,-0.16681 -12.05647,-11.89277 -11.78521,-21.51166 l 0,-47.09219 c 0,-6.144 2.56389,-10.41698 7.68389,-12.80649 l 50.17224,-23.03546 19.4691,-9.22391 c -8.8745,-5.8025 -15.87291,-13.81674 -20.99291,-24.05674 -6.14817,-13.51801 -8.58591,-31.06719 -4.10132,-47.10841 5.66951,-21.7439 23.42591,-41.2793 49.15097,-42.48835 z m -83.45289,21.49545 c 7.5095,0 14.33016,2.22511 20.47416,6.66261 -1.70394,4.77798 -3.14691,9.81689 -4.34448,15.10841 -1.1945,5.28998 -1.79939,10.8287 -1.79939,16.63222 0,8.5335 1.19308,16.72498 3.58258,24.57548 2.38848,7.85049 5.80717,15.02615 10.24518,21.51165 -2.048,2.7305 -4.77292,5.11715 -8.18642,7.16515 l -37.90071,17.41033 c -5.12,2.7305 -9.21574,6.56012 -12.28774,11.50963 -3.072,4.9495 -4.60385,10.50443 -4.60385,16.64843 l 0,47.09219 -37.36575,0 c -5.42084,-0.0847 -9.08172,-5.54759 -9.22392,-11.25025 l 0,-44.54711 c 0,-5.12 1.87064,-8.5387 5.62513,-10.24519 l 56.83485,-26.1155 c -14.68432,-9.02683 -21.76894,-25.34172 -22.51671,-43.50963 0.25878,-22.38359 14.92979,-46.78868 41.46707,-48.64842 z m 167.92705,0 c 23.59059,0.37293 40.63078,23.76195 41.48328,48.64842 -0.12958,16.46729 -6.55757,32.36824 -21.51165,43.0071 l 55.81358,26.61803 c 3.75451,2.048 5.62512,5.4667 5.62512,10.24519 l 0,44.54711 c -0.0563,5.28699 -2.9101,10.71036 -9.2077,11.25025 l -38.40324,0 0,-47.09219 c 0,-6.144 -1.53185,-11.69893 -4.60385,-16.64843 -3.072,-4.94951 -7.16774,-8.77913 -12.28774,-11.50963 -15.9163,-7.39773 -34.19584,-12.70783 -46.08713,-25.09422 8.8745,-13.65299 13.30902,-28.84289 13.30902,-45.56839 0,-10.58151 -1.87063,-20.9981 -5.62513,-31.2381 6.16583,-4.07144 13.46461,-7.05051 21.49544,-7.16514 z"
       id="path3891"
       inkscape:connector-curvature="0" />
  </g>
</svg>
