<?xml version="1.0" encoding="UTF-8" standalone="no"?>
<!-- Created with Inkscape (http://www.inkscape.org/) -->

<svg
   xmlns:dc="http://purl.org/dc/elements/1.1/"
   xmlns:cc="http://creativecommons.org/ns#"
   xmlns:rdf="http://www.w3.org/1999/02/22-rdf-syntax-ns#"
   xmlns:svg="http://www.w3.org/2000/svg"
   xmlns="http://www.w3.org/2000/svg"
   xmlns:sodipodi="http://sodipodi.sourceforge.net/DTD/sodipodi-0.dtd"
   xmlns:inkscape="http://www.inkscape.org/namespaces/inkscape"
   width="987.97894"
   height="997.0191"
   id="svg2"
   sodipodi:version="0.32"
   inkscape:version="0.48.3.1 r9886"
   sodipodi:docname="network.svg"
   version="1.0"
   inkscape:output_extension="org.inkscape.output.svg.inkscape">
  <defs
     id="defs4" />
  <sodipodi:namedview
     id="base"
     pagecolor="#ffffff"
     bordercolor="#666666"
     borderopacity="1.0"
     inkscape:pageopacity="0.0"
     inkscape:pageshadow="2"
     inkscape:zoom="0.45254834"
     inkscape:cx="122.83898"
     inkscape:cy="419.16502"
     inkscape:document-units="px"
     inkscape:current-layer="layer1"
     inkscape:window-width="1487"
     inkscape:window-height="1021"
     inkscape:window-x="0"
     inkscape:window-y="28"
     showgrid="false"
     inkscape:window-maximized="0"
     fit-margin-top="0"
     fit-margin-left="0"
     fit-margin-right="0"
     fit-margin-bottom="0" />
  <metadata
     id="metadata7">
    <rdf:RDF>
      <cc:Work
         rdf:about="">
        <dc:format>image/svg+xml</dc:format>
        <dc:type
           rdf:resource="http://purl.org/dc/dcmitype/StillImage" />
        <dc:title></dc:title>
        <dc:creator>
          <cc:Agent>
            <dc:title />
          </cc:Agent>
        </dc:creator>
        <dc:subject>
          <rdf:Bag />
        </dc:subject>
        <cc:license
           rdf:resource="http://creativecommons.org/licenses/publicdomain/" />
        <dc:description />
        <dc:contributor>
          <cc:Agent>
            <dc:title />
          </cc:Agent>
        </dc:contributor>
      </cc:Work>
      <cc:License
         rdf:about="http://creativecommons.org/licenses/publicdomain/">
        <cc:permits
           rdf:resource="http://creativecommons.org/ns#Reproduction" />
        <cc:permits
           rdf:resource="http://creativecommons.org/ns#Distribution" />
        <cc:permits
           rdf:resource="http://creativecommons.org/ns#DerivativeWorks" />
      </cc:License>
    </rdf:RDF>
  </metadata>
  <g
     inkscape:label="Layer 1"
     inkscape:groupmode="layer"
     id="layer1"
     transform="translate(-374.21785,422.78273)">
    <g
       id="g8111"
       transform="matrix(1.0541613,0,0,-1.0541613,338.64391,361.40453)">
      <path
         id="path8113"
         d="m 541,427 c -9.33301,0 -16,3.66699 -20,11 L 415,604 c -3.33301,5.33301 -4.33301,11.333 -3,18 1.34,6.66699 4.673,11.667 10,15 5.33701,3.33301 11.17,4.33301 17.5,3 6.33301,-1.35303 11.167,-4.68597 14.5,-10 L 560,463 c 3.33301,-5.33301 4.33301,-11.333 3,-18 -1.33398,-6.66699 -4.66803,-11.667 -10,-15 -4,-2 -8,-3 -12,-3 z m 425,-20 c 4,-6 5.33301,-12.667 4,-20 -1.33301,-6 -5.5,-13 -12.5,-21 -7,-8 -19.167,-16.667 -36.5,-26 -17.333,1.33899 -33.833,3.172 -49.5,5.5 -15.667,2.33301 -29.5,4.5 -41.5,6.5 -14,2.66699 -27,5.33301 -39,8 -1.35699,-6.66699 -3.19098,-13.667 -5.5,-21 -2.34497,-7.33301 -5.17902,-15 -8.5,-23 -30.667,6 -57.167,14.833 -79.5,26.5 -22.333,11.667 -41,23.5 -56,35.5 -15,12 -26.667,23.167 -35,33.5 -8.33301,10.335 -13.5,17.168 -15.5,20.5 l 128,131 23,83 49,-60 c 15.333,-3.33301 28,-6.33301 38,-9 10,-2.66699 18,-5 24,-7 7.33301,-2.66699 12.667,-5 16,-7 7.33301,-4.66699 13,-12 17,-22 4,-10 7.33301,-20.5 10,-31.5 2.66699,-11 5,-21.167 7,-30.5 2,-9.333 4.66699,-16 8,-20 7.33301,-7.33301 15.333,-14 24,-20 8.667,-6 19,-16.667 31,-32 z M 489,237 c -2.66699,-51.333 -3.66699,-87.333 -3,-108 -8.66699,0.66701 -18,1.66701 -28,3 -10,1.33299 -19.5,2.5 -28.5,3.5 -9,1 -16.667,2 -23,3 -6.333,1 -10.5,1.5 -12.5,1.5 -17.333,2 -23.667,-5.66701 -19,-23 l 42,-169 c 2.66699,-11.3333 0.83301,-21.8333 -5.5,-31.5 -6.33301,-9.6667 -15.167,-16.1667 -26.5,-19.5 -1.33301,0 -3,-0.167 -5,-0.5 -2,-0.333 -3.66699,-0.5 -5,-0.5 -10,0 -18.833,3 -26.5,9 -7.66901,6 -12.836,13.6667 -15.5,23 l -54,212 c -1.33301,7.33299 -5.5,10.833 -12.5,10.5 -7,-0.333 -11.5,-3.83299 -13.5,-10.5 L 203,-71 c -2.66701,-10 -8,-18 -16,-24 -8,-6 -16.667,-9 -26,-9 -4.66701,0 -8,0.333 -10,1 -12,3.3333 -21.167,9.8333 -27.5,19.5 -6.333,9.6667 -8.167,20.1667 -5.5,31.5 l 61,250 5,151 c -25.333,6 -47.167,14.333 -65.5,25 -18.333,10.667 -33.3333,21.5 -45,32.5 -11.6667,11 -20.3333,20.5 -26,28.5 -5.6667,8 -8.8333,12.667 -9.5,14 -4,7.33301 -4.8333,14.833 -2.5,22.5 2.3333,7.667 7.1667,13.5 14.5,17.5 7.3333,4 15,5 23,3 8,-2 14.3333,-6.66699 19,-14 0,-0.66699 1.5,-3.16699 4.5,-7.5 3,-4.33301 7.667,-9.5 14,-15.5 6.333,-6 14.167,-12.5 23.5,-19.5 9.33299,-7 20.667,-13.167 34,-18.5 3.33299,-1.33301 7.33299,-2.33301 12,-3 8,-2 19.333,-3 34,-3 h 298 c -6.67099,-28.667 -11.837,-58.5 -15.5,-89.5 -3.66699,-31 -6.16699,-59.167 -7.5,-84.5 z m 70,157 c 6,-8 14.333,-17.667 25,-29 10.667,-11.333 24.167,-23 40.5,-35 16.333,-12 35.667,-23.333 58,-34 22.333,-10.667 48.167,-19 77.5,-25 -2.66699,-7.33301 -5.16699,-14.333 -7.5,-21 -2.35602,-6.66701 -5.19,-13.333 -8.5,-20 -2,-5.33299 -4.5,-12.5 -7.5,-21.5 -3,-9 -2.16699,-22.167 2.5,-39.5 2,-8.66701 5.66699,-22.333 11,-41 4,-16 9.83301,-38.3333 17.5,-67 7.67297,-28.6667 17.839,-66 30.5,-112 3.33301,-11.3333 1.83301,-22 -4.5,-32 -6.33899,-10 -15.173,-16.3333 -26.5,-19 -2,-0.667 -3.83301,-1.167 -5.5,-1.5 -1.66699,-0.333 -3.5,-0.5 -5.5,-0.5 -9.33301,0 -18,3 -26,9 -8,6 -13.333,13.6667 -16,23 L 671,92 c -3.33301,6 -6.83301,10 -10.5,12 -3.66699,2 -7.83301,3.333 -12.5,4 -5.33301,1.333 -10.333,1 -15,-1 -4.667,-2 -8,-7 -10,-15 L 584,-71 c -2.66699,-10 -8,-18 -16,-24 -8,-6 -16.667,-9 -26,-9 -1.33301,0 -3,0.167 -5,0.5 -2,0.333 -3.66699,0.5 -5,0.5 -11.333,3.3333 -20.333,9.8333 -27,19.5 -6.68201,9.6667 -8.349,20.1667 -5,31.5 l 37,152 c 0.66699,5.333 0.33301,10.667 -1,16 0,10 0.16699,25.5 0.5,46.5 0.33301,21 1.16699,44.5 2.5,70.5 1.33301,26 3.66699,53.167 7,81.5 3.33301,28.333 7.66699,54.833 13,79.5 z"
         inkscape:connector-curvature="0"
         style="fill:currentColor" />
    </g>
  </g>
</svg>
