<?xml version="1.0" encoding="UTF-8" standalone="no"?>
<!-- Created with Inkscape (http://www.inkscape.org/) -->

<svg
   xmlns:dc="http://purl.org/dc/elements/1.1/"
   xmlns:cc="http://creativecommons.org/ns#"
   xmlns:rdf="http://www.w3.org/1999/02/22-rdf-syntax-ns#"
   xmlns:svg="http://www.w3.org/2000/svg"
   xmlns="http://www.w3.org/2000/svg"
   xmlns:sodipodi="http://sodipodi.sourceforge.net/DTD/sodipodi-0.dtd"
   xmlns:inkscape="http://www.inkscape.org/namespaces/inkscape"
   width="987.97894"
   height="997.0191"
   id="svg2"
   sodipodi:version="0.32"
   inkscape:version="0.48.3.1 r9886"
   sodipodi:docname="list-alt.svg"
   version="1.0"
   inkscape:output_extension="org.inkscape.output.svg.inkscape">
  <defs
     id="defs4" />
  <sodipodi:namedview
     id="base"
     pagecolor="#ffffff"
     bordercolor="#666666"
     borderopacity="1.0"
     inkscape:pageopacity="0.0"
     inkscape:pageshadow="2"
     inkscape:zoom="0.32"
     inkscape:cx="13.928917"
     inkscape:cy="310.07594"
     inkscape:document-units="px"
     inkscape:current-layer="layer1"
     inkscape:window-width="1487"
     inkscape:window-height="1021"
     inkscape:window-x="0"
     inkscape:window-y="28"
     showgrid="false"
     inkscape:window-maximized="0"
     fit-margin-top="0"
     fit-margin-left="0"
     fit-margin-right="0"
     fit-margin-bottom="0" />
  <metadata
     id="metadata7">
    <rdf:RDF>
      <cc:Work
         rdf:about="">
        <dc:format>image/svg+xml</dc:format>
        <dc:type
           rdf:resource="http://purl.org/dc/dcmitype/StillImage" />
        <dc:title></dc:title>
        <dc:creator>
          <cc:Agent>
            <dc:title />
          </cc:Agent>
        </dc:creator>
        <dc:subject>
          <rdf:Bag />
        </dc:subject>
        <cc:license
           rdf:resource="http://creativecommons.org/licenses/publicdomain/" />
        <dc:description />
        <dc:contributor>
          <cc:Agent>
            <dc:title />
          </cc:Agent>
        </dc:contributor>
      </cc:Work>
      <cc:License
         rdf:about="http://creativecommons.org/licenses/publicdomain/">
        <cc:permits
           rdf:resource="http://creativecommons.org/ns#Reproduction" />
        <cc:permits
           rdf:resource="http://creativecommons.org/ns#Distribution" />
        <cc:permits
           rdf:resource="http://creativecommons.org/ns#DerivativeWorks" />
      </cc:License>
    </rdf:RDF>
  </metadata>
  <g
     inkscape:label="Layer 1"
     inkscape:groupmode="layer"
     id="layer1"
     transform="translate(-374.21785,422.78273)">
    <path
       inkscape:connector-curvature="0"
       d="m 1300.0197,415.00805 c -34.0515,0 -61.6875,-27.636 -61.6875,-61.6875 l 0,-61.68749 0,-185.06248 c 0,-204.401523 -165.7235,-370.12497 -370.12495,-370.12497 -204.40151,0 -370.12496,165.723447 -370.12496,370.12497 l 0,185.06248 0,61.68749 c 0,34.0515 -27.636,61.6875 -61.6875,61.6875 -34.05149,0 -61.68749,-27.636 -61.68749,-61.6875 l 0,-61.68749 0,-185.06248 c 0,-272.5662 220.9646,-493.49996 493.49995,-493.49996 272.53535,0 493.50005,220.93376 493.50005,493.49996 l 0,185.06248 0,61.68749 c 0,34.0515 -27.6361,61.6875 -61.6876,61.6875 z m -709.40617,-246.74998 61.68749,0 c 17.02575,0 30.84375,13.78716 30.84375,30.84375 l 0,308.43746 c 0,17.0566 -13.818,30.84375 -30.84375,30.84375 l -61.68749,0 c -17.02575,0 -30.84375,-13.78715 -30.84375,-30.84375 l 0,-308.43746 c 0,-17.05659 13.818,-30.84375 30.84375,-30.84375 z m 493.49987,0 61.6875,0 c 17.0566,0 30.8438,13.78716 30.8438,30.84375 l 0,308.43746 c 0,17.0566 -13.7872,30.84375 -30.8438,30.84375 l -61.6875,0 c -17.0566,0 -30.8437,-13.78715 -30.8437,-30.84375 l 0,-308.43746 c 0,-17.05659 13.7871,-30.84375 30.8437,-30.84375 z"
       id="path4" />
  </g>
</svg>
