<?xml version="1.0" encoding="UTF-8" standalone="no"?>
<!-- Created with Inkscape (http://www.inkscape.org/) -->

<svg
   xmlns:dc="http://purl.org/dc/elements/1.1/"
   xmlns:cc="http://creativecommons.org/ns#"
   xmlns:rdf="http://www.w3.org/1999/02/22-rdf-syntax-ns#"
   xmlns:svg="http://www.w3.org/2000/svg"
   xmlns="http://www.w3.org/2000/svg"
   xmlns:sodipodi="http://sodipodi.sourceforge.net/DTD/sodipodi-0.dtd"
   xmlns:inkscape="http://www.inkscape.org/namespaces/inkscape"
   width="987.97894"
   height="997.0191"
   id="svg2"
   sodipodi:version="0.32"
   inkscape:version="0.48.3.1 r9886"
   sodipodi:docname="settings-alt.svg"
   version="1.0"
   inkscape:output_extension="org.inkscape.output.svg.inkscape">
  <defs
     id="defs4" />
  <sodipodi:namedview
     id="base"
     pagecolor="#ffffff"
     bordercolor="#666666"
     borderopacity="1.0"
     inkscape:pageopacity="0.0"
     inkscape:pageshadow="2"
     inkscape:zoom="0.45254834"
     inkscape:cx="-16.570519"
     inkscape:cy="162.13852"
     inkscape:document-units="px"
     inkscape:current-layer="layer1"
     inkscape:window-width="1920"
     inkscape:window-height="1025"
     inkscape:window-x="0"
     inkscape:window-y="27"
     showgrid="false"
     inkscape:window-maximized="1"
     fit-margin-top="0"
     fit-margin-left="0"
     fit-margin-right="0"
     fit-margin-bottom="0" />
  <metadata
     id="metadata7">
    <rdf:RDF>
      <cc:Work
         rdf:about="">
        <dc:format>image/svg+xml</dc:format>
        <dc:type
           rdf:resource="http://purl.org/dc/dcmitype/StillImage" />
        <dc:title></dc:title>
        <dc:creator>
          <cc:Agent>
            <dc:title />
          </cc:Agent>
        </dc:creator>
        <dc:subject>
          <rdf:Bag />
        </dc:subject>
        <cc:license
           rdf:resource="http://creativecommons.org/licenses/publicdomain/" />
        <dc:description />
        <dc:contributor>
          <cc:Agent>
            <dc:title />
          </cc:Agent>
        </dc:contributor>
      </cc:Work>
      <cc:License
         rdf:about="http://creativecommons.org/licenses/publicdomain/">
        <cc:permits
           rdf:resource="http://creativecommons.org/ns#Reproduction" />
        <cc:permits
           rdf:resource="http://creativecommons.org/ns#Distribution" />
        <cc:permits
           rdf:resource="http://creativecommons.org/ns#DerivativeWorks" />
      </cc:License>
    </rdf:RDF>
  </metadata>
  <g
     inkscape:label="Layer 1"
     inkscape:groupmode="layer"
     id="layer1"
     transform="translate(-374.21785,422.78273)">
    <g
       id="g3070"
       transform="matrix(1.0477707,0,0,-1.0477707,344.32197,390.05803)">
      <path
         id="path3072"
         d="m 708,731 c 36,0 69.833,-6.83301 101.5,-20.5 C 841.167,696.83301 869,678 893,654 c 24,-24 43,-52 57,-84 14,-32 21,-66 21,-102 0,-39.333 -4.16699,-74.833 -12.5,-106.5 C 950.16498,329.833 939.332,301 926,275 912.667,249 898,225.5 882,204.5 866,183.5 850.333,163.667 835,145 L 822,130 C 810,115.333 794.333,99 775,81 755.667,63 735,44.6667 713,26 691,7.3333 668.833,-10.8333 646.5,-28.5 c -22.333,-17.6667 -42.833,-33.3333 -61.5,-47 -18.667,-13.6667 -34.167,-25 -46.5,-34 -12.337,-9 -19.171,-14.167 -20.5,-15.5 -5.33698,-4 -11.337,-6 -18,-6 -7.33301,0 -13.333,2 -18,6 -2,1.333 -9,6.5 -21,15.5 -12,9 -27.333,20.3333 -46,34 -18.667,13.6667 -39.167,29.3333 -61.5,47 C 331.167,-10.8333 309,7.3333 287,26 c -22,18.6667 -42.667,37 -62,55 -19.333,18 -35,34.333 -47,49 l -13,15 c -15.333,18.667 -31,38.5 -47,59.5 C 102,225.5 87.3333,249 74,275 60.6667,301 49.8333,329.833 41.5,361.5 33.1667,393.167 29,428.667 29,468 c 0,36 7,70 21,102 14,32 33,60 57,84 24,24 51.833,42.833 83.5,56.5 31.667,13.667 65.5,20.5 101.5,20.5 42,0 81,-9.16699 117,-27.5 36,-18.33301 66.333,-43.5 91,-75.5 24.667,32 55,57.167 91,75.5 36,18.333 75,27.5 117,27.5 z"
         inkscape:connector-curvature="0"
         style="fill:currentColor" />
    </g>
  </g>
</svg>
