<?xml version="1.0" encoding="UTF-8" standalone="no"?>
<!-- Created with Inkscape (http://www.inkscape.org/) -->

<svg
   xmlns:dc="http://purl.org/dc/elements/1.1/"
   xmlns:cc="http://creativecommons.org/ns#"
   xmlns:rdf="http://www.w3.org/1999/02/22-rdf-syntax-ns#"
   xmlns:svg="http://www.w3.org/2000/svg"
   xmlns="http://www.w3.org/2000/svg"
   xmlns:sodipodi="http://sodipodi.sourceforge.net/DTD/sodipodi-0.dtd"
   xmlns:inkscape="http://www.inkscape.org/namespaces/inkscape"
   width="987.97894"
   height="997.0191"
   id="svg2"
   sodipodi:version="0.32"
   inkscape:version="0.48.3.1 r9886"
   sodipodi:docname="heart-alt.svg"
   version="1.0"
   inkscape:output_extension="org.inkscape.output.svg.inkscape">
  <defs
     id="defs4" />
  <sodipodi:namedview
     id="base"
     pagecolor="#ffffff"
     bordercolor="#666666"
     borderopacity="1.0"
     inkscape:pageopacity="0.0"
     inkscape:pageshadow="2"
     inkscape:zoom="0.64"
     inkscape:cx="617.60115"
     inkscape:cy="440.01122"
     inkscape:document-units="px"
     inkscape:current-layer="layer1"
     inkscape:window-width="1920"
     inkscape:window-height="1025"
     inkscape:window-x="0"
     inkscape:window-y="27"
     showgrid="false"
     inkscape:window-maximized="1"
     fit-margin-top="0"
     fit-margin-left="0"
     fit-margin-right="0"
     fit-margin-bottom="0" />
  <metadata
     id="metadata7">
    <rdf:RDF>
      <cc:Work
         rdf:about="">
        <dc:format>image/svg+xml</dc:format>
        <dc:type
           rdf:resource="http://purl.org/dc/dcmitype/StillImage" />
        <dc:title />
        <dc:creator>
          <cc:Agent>
            <dc:title />
          </cc:Agent>
        </dc:creator>
        <dc:subject>
          <rdf:Bag />
        </dc:subject>
        <cc:license
           rdf:resource="http://creativecommons.org/licenses/publicdomain/" />
        <dc:description />
        <dc:contributor>
          <cc:Agent>
            <dc:title />
          </cc:Agent>
        </dc:contributor>
      </cc:Work>
      <cc:License
         rdf:about="http://creativecommons.org/licenses/publicdomain/">
        <cc:permits
           rdf:resource="http://creativecommons.org/ns#Reproduction" />
        <cc:permits
           rdf:resource="http://creativecommons.org/ns#Distribution" />
        <cc:permits
           rdf:resource="http://creativecommons.org/ns#DerivativeWorks" />
      </cc:License>
    </rdf:RDF>
  </metadata>
  <g
     inkscape:label="Layer 1"
     inkscape:groupmode="layer"
     id="layer1"
     transform="translate(-374.21785,422.78273)">
    <path
       style="fill:#000000;fill-opacity:1;stroke:none"
       d="M 494 5 C 221.44747 5 0.5 225.94747 0.5 498.5 C 0.5 771.05253 221.44747 992 494 992 C 766.55253 992 987.5 771.05253 987.5 498.5 C 987.5 225.94747 766.55253 5 494 5 z M 603.21875 287.53125 C 661.85934 286.61455 714.89178 318.49551 740.03125 372.84375 C 763.28565 444.69465 743.8244 517.78819 702.8125 572.875 C 675.7418 610.23097 643.38884 642.4459 610.3125 670.59375 C 579.88181 698.92001 511.77042 754.9743 493.71875 756.53125 C 477.76412 753.48103 459.85408 735.41098 447.1875 726.125 C 376.01261 672.01982 299.41141 606.25188 260.5625 534.3125 C 227.99083 465.24767 227.93148 379.79422 278.625 326.84375 C 344.3574 267.58487 443.44611 279.18349 493.71875 341.09375 C 507.21991 323.57898 523.82713 309.78433 543.53125 299.75 C 563.5006 291.77904 583.67189 287.83682 603.21875 287.53125 z "
       transform="translate(374.21785,-422.78273)"
       id="path3157" />
  </g>
</svg>
