<svg width="196.2787" height="200.00002"
 viewBox="0 0 196.2787 200.00002"
 xmlns="http://www.w3.org/2000/svg">
 <metadata id="metadata3018">image/svg+xml</metadata>
 <g>
  <title>Layer 1</title>
  <g id="layer1">
   <path fill="#020202" id="path10" d="m70.908875,5.456726c-6.202003,-1.410217 -11.278721,-0.84613 -16.634598,1.974304c-5.922832,3.666504 -9.307312,9.307312 -10.71751,17.201538c-1.410194,8.17627 0,16.073364 4.230598,23.96759l1.974289,2.817566l-6.768959,-2.256348c-8.458324,-1.974243 -16.355429,-0.84613 -24.249666,3.38446c-8.176274,4.230591 -13.252988,10.150574 -16.637466,18.329712c-3.102442,7.897095 -2.817526,15.509338 1.12816,22.557434c1.692233,3.102417 4.230589,5.637939 6.48403,7.330139c3.384479,3.384521 7.61508,5.358765 12.688913,6.202026l1.974281,0.564087l-4.2306,3.666504c-3.948553,3.38446 -6.201993,7.612183 -7.612189,11.842773c-1.410196,5.076721 -0.846124,10.150574 1.97427,14.945251c1.410209,2.253418 2.817525,4.227722 5.073844,5.637878c2.256321,1.974304 5.076714,3.384521 8.458313,3.663635c6.20487,1.410278 12.688913,1.410278 19.737032,-0.848938l-5.076714,8.458313l-1.410198,3.669373c-2.817524,9.0224 -1.974281,16.919495 2.256306,25.092957c1.974285,3.102295 4.230606,5.925659 6.486927,8.458252c3.384468,3.102417 7.61219,5.07666 12.688908,6.486938c8.458313,2.253418 16.919502,1.974243 25.095779,-2.253418c7.89711,-4.233521 12.970955,-10.999634 15.509308,-19.460693l0.282036,-1.692383c5.355881,5.925781 10.432594,9.87146 16.073395,11.281616c5.637917,1.692261 11.278717,1.410278 16.355423,-1.974243c4.794678,-2.820435 8.17627,-7.61499 9.868515,-13.535034c1.410202,-6.204895 1.410202,-12.406921 0,-19.455017c2.81752,1.974304 5.637924,3.378723 9.0224,4.227722c9.022385,2.820435 16.916626,2.535522 24.813736,-1.6922c7.615082,-4.227722 12.688919,-10.999573 15.227264,-19.739929c2.256317,-8.458313 1.692245,-16.631714 -2.538345,-24.528809l-1.410202,-2.256348c-2.256317,-3.38446 -4.509766,-6.768921 -7.894241,-9.0224c-2.817505,-1.974243 -6.201996,-3.38446 -9.304428,-4.794678c8.74324,-4.230591 14.945221,-10.150513 17.765625,-17.765625c1.974274,-6.204834 1.410187,-11.278687 -1.410202,-16.355408l0,-0.564087c-3.381592,-5.640808 -7.894241,-9.307312 -14.942352,-11.278687c-4.230591,-0.84613 -9.025269,-0.84613 -13.252991,-0.564087l-9.304428,1.974243l3.102448,-7.048096c2.820389,-9.0224 1.974274,-17.765625 -2.820419,-25.941895l-0.8461,-1.410217c-4.230606,-7.050964 -10.432587,-11.278687 -18.890915,-13.535034c-8.740356,-2.256287 -16.916626,-1.410156 -24.813751,2.820435c-7.894218,4.227722 -13.535019,10.7146 -16.070503,19.175842l0,0.564026l-0.282051,1.974304l-1.128159,-1.974304l-2.820389,-5.076721c-4.515518,-7.039429 -10.156296,-11.27002 -17.204422,-13.244324l0,0zm71.905762,16.919495c1.410187,2.817566 2.256302,6.202026 2.256302,9.86853l-0.846115,6.201965c-1.128159,3.102478 -2.538361,5.922852 -4.230606,8.458313l-25.377808,31.021545c-2.538368,-1.974304 -5.358757,-3.384521 -8.179161,-4.794739l-2.81752,-31.861816l-0.282036,-11.278687l0.282036,-2.817566c1.410194,-5.637878 5.355881,-9.868469 10.432594,-12.688904c5.073845,-2.817505 10.71463,-3.38446 16.070511,-1.410217c5.922836,1.407349 10.153442,4.509766 12.691803,9.301575l0,0zm-87.415085,5.640808c0.282051,-5.076721 2.256321,-8.458313 5.63792,-10.432617c1.692249,-1.410156 4.230602,-1.410156 6.484035,-0.282043c5.076721,1.410217 9.304443,5.076721 12.688927,12.124878c1.410187,2.820374 2.820389,5.637878 3.38446,9.0224l5.637917,33.274902l-4.230591,1.410217l-25.095791,-27.352112l-1.410191,-2.817505c-2.250557,-5.07959 -3.660759,-9.871399 -3.096687,-14.94812l0,0zm-15.227264,32.98999l7.615074,3.102478l24.813744,18.047668c-2.256317,2.817505 -3.663635,5.637878 -4.50975,8.458313l-40.605103,5.076721l-2.820393,-0.564087c-5.076712,-0.84613 -8.458313,-3.102478 -10.714631,-7.330139c-2.256319,-4.230652 -2.256319,-8.458313 -0.564085,-12.688965c1.974282,-5.358704 5.637919,-9.589355 10.996678,-11.842773c5.073835,-2.823242 10.14768,-3.669373 15.788465,-2.259216l0,0zm26.788025,45.960999l1.974281,5.640808l0.846115,1.974243c-4.230598,3.663696 -7.333035,7.048157 -10.714638,10.150574l-8.461189,7.050964l-2.256321,1.410217c-5.358749,2.535522 -9.868507,3.384521 -14.663181,2.817505c-4.2306,-0.281982 -7.61508,-1.6922 -9.025276,-4.227722l-0.846123,-3.102417l0.564085,-2.535461c1.410196,-4.233459 5.076714,-8.458313 11.563631,-11.56366c3.381603,-1.410217 6.201992,-2.820374 8.458317,-3.38446l22.560299,-4.230591l0,0zm87.976257,-45.678955c5.076721,-2.256287 9.868515,-2.820374 14.945236,-2.256287c4.794678,0.564087 8.179153,2.817505 9.8685,6.201965l1.128159,3.663696l-0.564072,2.820374c-1.974274,5.076721 -6.20488,9.0224 -13.252991,12.124817c-2.817505,1.410217 -5.919952,1.974304 -9.304428,2.535461l-34.682259,4.230591l-0.564079,-1.974243l-0.564079,-0.843262l1.128159,-1.410156l28.480247,-23.685608l3.381607,-1.407349l0,0zm-71.902863,26.788025c3.381599,-3.102417 7.894241,-5.073792 13.252991,-5.073792c5.076714,0 9.868507,1.974243 12.970955,5.073792c3.948547,3.948547 5.640785,8.179199 5.640785,13.252991c0,5.073853 -1.692238,9.86853 -5.640785,13.252991c-3.666519,3.663696 -7.894241,5.637939 -12.970955,5.637939c-5.358749,0 -9.871391,-1.974243 -13.252991,-5.637939c-3.666519,-3.38446 -5.637917,-8.179138 -5.637917,-13.252991c0,-5.073792 1.971397,-9.304443 5.637917,-13.252991l0,0zm6.484032,40.887146c0.564079,9.589355 1.41021,19.739868 2.820396,30.736572l0,11.281616l-0.282028,2.820435c-1.974289,5.070923 -5.358757,9.301514 -10.432602,11.557739c-5.073837,2.820435 -10.432587,3.384521 -15.509315,1.974365c-5.637901,-1.404419 -9.868504,-4.78894 -12.124825,-9.301514c-1.410198,-2.820435 -2.538357,-6.204956 -2.538357,-9.589417l1.410198,-6.481079c0.564079,-2.820435 1.974281,-5.643738 4.230598,-7.897095l23.685577,-28.201172c2.820396,1.407288 5.637924,2.817505 8.740356,3.099548l0,0zm21.714195,-3.666504l11.842789,12.124817l7.330154,9.0224l1.410187,2.820374c2.538376,4.794739 3.948563,9.307312 3.384491,14.666138c-0.564087,5.07666 -2.256317,8.740295 -5.637924,10.150452c-1.974266,1.410278 -4.230591,1.410278 -6.484032,1.125366c-5.358757,-1.404419 -9.589348,-5.637939 -12.688919,-12.406921l-3.384468,-9.301514l-4.230591,-24.534607l4.79467,-1.692261l3.663643,-1.974243l0,0zm12.688904,-17.483582l31.864746,-2.817505l11.278702,-0.282104l2.820404,0.282104c4.230576,1.410156 8.179153,3.948547 10.432587,8.176208c2.81752,3.102478 4.227722,7.3302 4.227722,12.124878l-0.843246,5.637878c-1.410202,5.643738 -4.794678,9.87146 -9.589355,12.124878c-5.076721,2.820374 -10.150543,3.38446 -15.791351,1.410217c-3.384476,-0.843262 -5.637909,-2.253479 -7.615067,-4.506897l-29.608414,-24.534607l1.974274,-4.227722l0.848999,-3.387329l0,0z"/>
  </g>
 </g>
</svg>
