<?xml version="1.0" encoding="UTF-8" standalone="no"?>
<!-- Created with Inkscape (http://www.inkscape.org/) -->

<svg
   xmlns:dc="http://purl.org/dc/elements/1.1/"
   xmlns:cc="http://creativecommons.org/ns#"
   xmlns:rdf="http://www.w3.org/1999/02/22-rdf-syntax-ns#"
   xmlns:svg="http://www.w3.org/2000/svg"
   xmlns="http://www.w3.org/2000/svg"
   xmlns:sodipodi="http://sodipodi.sourceforge.net/DTD/sodipodi-0.dtd"
   xmlns:inkscape="http://www.inkscape.org/namespaces/inkscape"
   width="987.97894"
   height="997.0191"
   id="svg2"
   sodipodi:version="0.32"
   inkscape:version="0.48.3.1 r9886"
   sodipodi:docname="graph-alt.svg"
   version="1.0"
   inkscape:output_extension="org.inkscape.output.svg.inkscape">
  <defs
     id="defs4" />
  <sodipodi:namedview
     id="base"
     pagecolor="#ffffff"
     bordercolor="#666666"
     borderopacity="1.0"
     inkscape:pageopacity="0.0"
     inkscape:pageshadow="2"
     inkscape:zoom="0.45254834"
     inkscape:cx="211.22733"
     inkscape:cy="242.38832"
     inkscape:document-units="px"
     inkscape:current-layer="layer1"
     inkscape:window-width="1487"
     inkscape:window-height="1021"
     inkscape:window-x="0"
     inkscape:window-y="28"
     showgrid="false"
     inkscape:window-maximized="0"
     fit-margin-top="0"
     fit-margin-left="0"
     fit-margin-right="0"
     fit-margin-bottom="0" />
  <metadata
     id="metadata7">
    <rdf:RDF>
      <cc:Work
         rdf:about="">
        <dc:format>image/svg+xml</dc:format>
        <dc:type
           rdf:resource="http://purl.org/dc/dcmitype/StillImage" />
        <dc:title></dc:title>
        <dc:creator>
          <cc:Agent>
            <dc:title />
          </cc:Agent>
        </dc:creator>
        <dc:subject>
          <rdf:Bag />
        </dc:subject>
        <cc:license
           rdf:resource="http://creativecommons.org/licenses/publicdomain/" />
        <dc:description />
        <dc:contributor>
          <cc:Agent>
            <dc:title />
          </cc:Agent>
        </dc:contributor>
      </cc:Work>
      <cc:License
         rdf:about="http://creativecommons.org/licenses/publicdomain/">
        <cc:permits
           rdf:resource="http://creativecommons.org/ns#Reproduction" />
        <cc:permits
           rdf:resource="http://creativecommons.org/ns#Distribution" />
        <cc:permits
           rdf:resource="http://creativecommons.org/ns#DerivativeWorks" />
      </cc:License>
    </rdf:RDF>
  </metadata>
  <g
     inkscape:label="Layer 1"
     inkscape:groupmode="layer"
     id="layer1"
     transform="translate(-374.21785,422.78273)">
    <g
       id="g5319"
       transform="matrix(1.0601504,0,0,-1.0601504,332.77848,403.84337)">
      <path
         id="path5321"
         d="m 603,-91 c 4,0 7.5,-1.5 10.5,-4.5 3,-3 4.5,-6.5 4.5,-10.5 v -34 c 0,-4.66701 -1.5,-8.5 -4.5,-11.5 -3,-3 -6.5,-4.5 -10.5,-4.5 H 408 c -10.667,0 -16,5.33299 -16,16 v 34 c 0,4 1.5,7.5 4.5,10.5 3,3 6.83301,4.5 11.5,4.5 h 195 z m 0,97 c 4,0 7.5,-1.5 10.5,-4.5 3,-3 4.5,-6.83333 4.5,-11.5 v -34 c 0,-4 -1.5,-7.5 -4.5,-10.5 -3,-3 -6.5,-4.5 -10.5,-4.5 H 408 c -4.66699,0 -8.5,1.5 -11.5,4.5 -3,3 -4.5,6.5 -4.5,10.5 v 34 c 0,10.6667 5.33301,16 16,16 h 195 z m 201,310 v 0 l 83,-13 c 8.66699,-1.33301 15.667,-5.16699 21,-11.5 5.333,-6.33301 7.33301,-13.167 6,-20.5 -1.33301,-8 -5.33301,-14.167 -12,-18.5 -6.66699,-4.33299 -14.667,-5.83299 -24,-4.5 l -83,13 c -9.33301,1.33301 -16.5,5.33301 -21.5,12 -5,6.66699 -6.83301,13.667 -5.5,21 1.33301,7.33401 5.33301,13.167 12,17.5 6.66699,4.333 14.667,5.83301 24,4.5 z m -9,189 v 0 l 77,34 c 8,4 15.833,4.83301 23.5,2.5 7.66699,-2.34198 13.167,-7.17499 16.5,-14.5 3.33301,-7.33698 3.33301,-14.671 0,-22 -3.33301,-7.33301 -9.33301,-12.667 -18,-16 l -77,-35 c -8,-3.33301 -15.833,-3.83301 -23.5,-1.5 -7.66699,2.33701 -13.167,7.17001 -16.5,14.5 -3.33301,7.33701 -3.16699,14.67 0.5,22 3.66699,7.33701 9.5,12.67 17.5,16 z M 665,633 v 0 l 46,71 c 5.33301,7.33301 11.833,12.167 19.5,14.5 7.67798,2.33301 14.845,1.5 21.5,-2.5 6.66699,-4.66699 10.5,-11 11.5,-19 1,-8 -0.83301,-15.667 -5.5,-23 l -46,-71 c -5.33301,-7.34198 -11.833,-12.176 -19.5,-14.5 -7.66699,-2.33301 -14.833,-1.5 -21.5,2.5 -6.667,4 -10.667,10.167 -12,18.5 -1.333,8.333 0.66699,16.167 6,23.5 z M 207,316 c 8.66701,1.33301 16.5,-0.16699 23.5,-4.5 7,-4.33301 11.167,-10.167 12.5,-17.5 1.333,-7.333 -0.66701,-14.333 -6,-21 -5.334,-6.66699 -12.667,-10.667 -22,-12 l -83,-13 c -8.667,-1.33299 -16.5,0.16701 -23.5,4.5 -7,4.33301 -11.1667,10.5 -12.5,18.5 -1.3333,7.33499 0.666702,14.169 6,20.5 5.333,6.336 12.667,10.169 22,11.5 l 83,13 v 0 z m 9,189 c 8,-3.33301 13.833,-8.66699 17.5,-16 3.674,-7.33301 3.841,-14.667 0.5,-22 -3.33299,-7.33301 -9,-12.167 -17,-14.5 -8,-2.333 -16,-1.83301 -24,1.5 l -77,35 c -8,3.33701 -13.833,8.67001 -17.5,16 -3.6681,7.33301 -3.8348,14.667 -0.5,22 3.333,7.33301 8.833,12.167 16.5,14.5 7.667,2.333 15.833,1.5 24.5,-2.5 l 77,-34 v 0 z m 129,128 c 5.33301,-7.33801 7.33301,-15.171 6,-23.5 -1.33301,-8.33301 -5.33301,-14.5 -12,-18.5 -6,-4 -13,-4.83301 -21,-2.5 -8,2.33301 -14.333,7.16699 -19,14.5 l -46,71 c -5.33299,7.33301 -7.33299,15 -6,23 1.33299,8 5.33299,14.333 12,19 6,4 13,4.83301 21,2.5 8,-2.34399 14.333,-7.17798 19,-14.5 l 46,-71 v 0 z m 189,26 c 0,-9.33301 -2.66699,-17 -8,-23 -5.33301,-6 -12,-9 -20,-9 -7.33301,0 -13.667,3 -19,9 -5.333,6 -8,13.667 -8,23 v 84 c 0,9.33301 2.66699,17 8,23 5.33401,6 11.667,9 19,9 8,0 14.667,-3 20,-9 5.333,-6 8,-13.667 8,-23 v -84 0 z M 728,390 c 0,-1.33301 -0.16699,-2.33301 -0.5,-3 -0.33301,-0.66699 -0.5,-1.66699 -0.5,-3 v -3 c 0,-12 -1.66699,-25.333 -5,-40 -4.66699,-25.333 -13.5,-51.5 -26.5,-78.5 C 682.5,235.5 668.333,206.667 653,176 643,156 636,137.833 632,121.5 628,105.167 624.83301,91 622.5,79 620.16699,67 617.66699,57.5 615,50.5 612.33301,43.5 607.33301,39.3333 600,38 H 410 c -7.33301,1.3333 -12.333,5.5 -15,12.5 -2.667,7 -5.16699,16.5 -7.5,28.5 -2.33301,12 -5.5,26.167 -9.5,42.5 -4,16.333 -11,34.5 -21,54.5 -15.333,30.667 -29.5,59.5 -42.5,86.5 -13,27 -21.833,53.167 -26.5,78.5 -1.33301,6.66699 -2.33301,13.333 -3,20 l -2,20 v 9 c 0,32 5.5,60 16.5,84 11,24.001 26.333,44.334 46,61 19.667,16.667 43,29.167 70,37.5 27,8.333 56.5,12.5 88.5,12.5 h 1 1 c 32,0 61.5,-4.16699 88.5,-12.5 27,-8.33301 50.333,-20.833 70,-37.5 19.667,-16.667 35.167,-37 46.5,-61 11.333,-24 17,-52 17,-84 z"
         inkscape:connector-curvature="0"
         style="fill:currentColor" />
    </g>
  </g>
</svg>
