<?xml version="1.0" encoding="UTF-8" standalone="no"?>
<!-- Created with Inkscape (http://www.inkscape.org/) -->

<svg
   xmlns:dc="http://purl.org/dc/elements/1.1/"
   xmlns:cc="http://creativecommons.org/ns#"
   xmlns:rdf="http://www.w3.org/1999/02/22-rdf-syntax-ns#"
   xmlns:svg="http://www.w3.org/2000/svg"
   xmlns="http://www.w3.org/2000/svg"
   xmlns:sodipodi="http://sodipodi.sourceforge.net/DTD/sodipodi-0.dtd"
   xmlns:inkscape="http://www.inkscape.org/namespaces/inkscape"
   width="987.97894"
   height="997.0191"
   id="svg2"
   sodipodi:version="0.32"
   inkscape:version="0.48.3.1 r9886"
   sodipodi:docname="idea.svg"
   version="1.0"
   inkscape:output_extension="org.inkscape.output.svg.inkscape">
  <defs
     id="defs4" />
  <sodipodi:namedview
     id="base"
     pagecolor="#ffffff"
     bordercolor="#666666"
     borderopacity="1.0"
     inkscape:pageopacity="0.0"
     inkscape:pageshadow="2"
     inkscape:zoom="0.45254834"
     inkscape:cx="211.22733"
     inkscape:cy="242.38832"
     inkscape:document-units="px"
     inkscape:current-layer="layer1"
     inkscape:window-width="1487"
     inkscape:window-height="1021"
     inkscape:window-x="0"
     inkscape:window-y="28"
     showgrid="false"
     inkscape:window-maximized="0"
     fit-margin-top="0"
     fit-margin-left="0"
     fit-margin-right="0"
     fit-margin-bottom="0" />
  <metadata
     id="metadata7">
    <rdf:RDF>
      <cc:Work
         rdf:about="">
        <dc:format>image/svg+xml</dc:format>
        <dc:type
           rdf:resource="http://purl.org/dc/dcmitype/StillImage" />
        <dc:title></dc:title>
        <dc:creator>
          <cc:Agent>
            <dc:title />
          </cc:Agent>
        </dc:creator>
        <dc:subject>
          <rdf:Bag />
        </dc:subject>
        <cc:license
           rdf:resource="http://creativecommons.org/licenses/publicdomain/" />
        <dc:description />
        <dc:contributor>
          <cc:Agent>
            <dc:title />
          </cc:Agent>
        </dc:contributor>
      </cc:Work>
      <cc:License
         rdf:about="http://creativecommons.org/licenses/publicdomain/">
        <cc:permits
           rdf:resource="http://creativecommons.org/ns#Reproduction" />
        <cc:permits
           rdf:resource="http://creativecommons.org/ns#Distribution" />
        <cc:permits
           rdf:resource="http://creativecommons.org/ns#DerivativeWorks" />
      </cc:License>
    </rdf:RDF>
  </metadata>
  <g
     inkscape:label="Layer 1"
     inkscape:groupmode="layer"
     id="layer1"
     transform="translate(-374.21785,422.78273)">
    <g
       id="g5352"
       transform="matrix(0.987,0,0,-0.987,374.70732,371.82682)">
      <path
         id="path5354"
         d="m 762,420 c 5.33301,2.66699 9.16699,6.5 11.5,11.5 2.33301,5 2.5,9.83301 0.5,14.5 -2,4.66699 -5.83301,7.83301 -11.5,9.5 -5.66699,1.66699 -11.167,1.16699 -16.5,-1.5 l -51,-23 c -5.33301,-2.67001 -9.33301,-6.33701 -12,-11 -2.66699,-4.66699 -2.66699,-9.66699 0,-15 2,-4.673 5.66699,-7.83899 11,-9.5 5.33301,-1.66699 10.667,-1.16699 16,1.5 l 52,23 v 0 z M 751,258 c 6,-0.66699 11.167,0.5 15.5,3.5 4.333,3 7.16699,7.16699 8.5,12.5 1.33301,5.33301 0,10 -4,14 -4,4 -8.66699,6.33301 -14,7 l -56,9 c -6,1.33301 -11.333,0.5 -16,-2.5 -4.667,-3 -7.66699,-7.16699 -9,-12.5 -0.66699,-5.33301 0.83301,-10 4.5,-14 3.66699,-4 8.5,-6.66699 14.5,-8 l 56,-9 v 0 z m -81,286 c 6.66101,12 5.328,21.667 -4,29 -4.66699,2.66699 -9.66699,3.33398 -15,2 -5.34302,-1.33801 -9.67603,-4.67102 -13,-10 l -30,-48 c -3.33801,-5.33301 -4.67102,-10.5 -4,-15.5 0.66699,-5 3,-9.16699 7,-12.5 4.66699,-3.33301 9.66699,-4.16699 15,-2.5 5.33301,1.66699 9.66699,5.16699 13,10.5 l 31,47 v 0 z M 650,354 c 0,21.333 -3.83301,40.167 -11.5,56.5 -7.66699,16.333 -18.167,30 -31.5,41 -13.336,11 -29.169,19.333 -47.5,25 -18.335,5.66699 -38.169,8.5 -59.5,8.5 h -1 C 456.333,485 420.833,473.833 392.5,451.5 364.167,429.167 350,396.667 350,354 v -4 c 0,-0.672 0.33301,-1.33899 1,-2 0,-4.66699 0.33301,-9.16699 1,-13.5 0.66699,-4.33301 1.33301,-8.83301 2,-13.5 3.33301,-17.333 9.33301,-35 18,-53 8.66699,-18 18,-37.333 28,-58 6.66699,-14 11.333,-26.5 14,-37.5 2.667,-11 4.83301,-20.5 6.5,-28.5 1.66699,-8 3.33301,-14.333 5,-19 1.66699,-4.667 5.16699,-7.334 10.5,-8 h 128 c 4.66699,0.667 8,3.333 10,8 2,4.66701 3.66699,11 5,19 1.33301,8 3.33301,17.5 6,28.5 2.67603,11 7.34198,23.5 14,37.5 10.671,20.667 20.338,40 29,58 8.66699,18 14.667,35.667 18,53 0.68597,4.66699 1.35303,9.16699 2,13.5 0.66699,4.33301 1,8.83301 1,13.5 v 2 c 0,0.66699 0.16699,1.33301 0.5,2 0.33301,0.66699 0.5,1.33301 0.5,2 z M 576,85 c 0,6.6667 -3.33301,10 -10,10 H 434 c -6.66699,0 -10,-3.3333 -10,-10 V 62 c 0,-6.6667 3.33301,-10 10,-10 h 132 c 6.66699,0 10,3.3333 10,10 v 23 z m 0,-65 c 0,7.3333 -3.33301,11 -10,11 H 434 c -6.66699,0 -10,-3.6667 -10,-11 V -3 c 0,-6.66666 3.33301,-10 10,-10 h 132 c 6.66699,0 10,3.33333 10,10 V 20 z M 334,573 c -4,-3.34198 -6.5,-7.67499 -7.5,-13 -1,-5.33502 0.16699,-10.669 3.5,-16 l 31,-47 c 3.336,-5.33301 7.66901,-8.83301 13,-10.5 5.33301,-1.65201 10.333,-0.819 15,2.5 4,3.33301 6.33301,7.5 7,12.5 0.66699,5 -0.66699,10.167 -4,15.5 l -30,48 c -3.33301,5.33301 -7.66699,8.66699 -13,10 -5.33301,1.33301 -10.333,0.66699 -15,-2 z M 305,267 c 6,1.33301 10.833,4 14.5,8 3.667,4 5.16699,8.66699 4.5,14 -1.33301,5.33301 -4.33301,9.5 -9,12.5 -4.66699,3 -10,3.83301 -16,2.5 l -56,-9 c -5.33299,-0.66699 -10,-3 -14,-7 -4,-4 -5.33299,-8.66699 -4,-14 1.33299,-5.33301 4.16701,-9.5 8.5,-12.5 4.33299,-3 9.5,-4.16699 15.5,-3.5 l 56,9 v 0 z m -79,179 c -2,-4.66699 -1.83299,-9.5 0.5,-14.5 2.33299,-5 6.16701,-8.83301 11.5,-11.5 l 52,-23 c 5.336,-2.66699 10.669,-3.16699 16,-1.5 5.33301,1.66699 9,4.83301 11,9.5 2.66699,5.33301 2.66699,10.333 0,15 -2.66699,4.667 -6.66699,8.33301 -12,11 l -51,23 c -5.33299,2.66699 -10.833,3.16699 -16.5,1.5 -5.66701,-1.668 -9.5,-4.83499 -11.5,-9.5 z m 256,89 c 0,-6 1.83301,-11.167 5.5,-15.5 3.66699,-4.333 8.16699,-6.5 13.5,-6.5 5.33701,0 9.67099,2.16699 13,6.5 3.33301,4.33301 5,9.5 5,15.5 v 56 c 0,6 -1.66699,11.167 -5,15.5 -3.33301,4.333 -7.66699,6.5 -13,6.5 -5.33301,0 -9.83301,-2.16699 -13.5,-6.5 C 483.83301,602.16699 482,597 482,591 v -56 z m 18,265 c 68.667,0 133.5,-13.167 194.5,-39.5 61,-26.333 114,-62 159,-107 45,-45 80.667,-98 107,-159 26.333,-61 39.5,-125.833 39.5,-194.5 0,-46 -6,-90.333 -18,-133 -12,-42.667 -28.833,-82.5 -50.5,-119.5 -21.667,-37 -47.667,-70.6667 -78,-101 -30.333,-30.3333 -64,-56.333 -101,-78 -37,-21.667 -76.833,-38.5 -119.5,-50.5 -42.667,-12 -87,-18 -133,-18 -46,0 -90.333,6 -133,18 -42.667,12 -82.5,28.833 -119.5,50.5 -37,21.667 -70.667,47.6667 -101,78 -30.333,30.3333 -56.3333,64 -78,101 C 46.8333,84.5 30,124.333 18,167 6,209.667 0,254 0,300 c 0,46 6,90.333 18,133 12,42.667 28.8333,82.5 50.5,119.5 21.6667,37 47.667,70.667 78,101 30.333,30.333 64,56.333 101,78 37,21.667 76.833,38.5 119.5,50.5 42.667,12 87,18 133,18 z"
         inkscape:connector-curvature="0"
         style="fill:currentColor" />
    </g>
  </g>
</svg>
