<?xml version="1.0" encoding="UTF-8" standalone="no"?>
<!-- Created with Inkscape (http://www.inkscape.org/) -->

<svg
   xmlns:dc="http://purl.org/dc/elements/1.1/"
   xmlns:cc="http://creativecommons.org/ns#"
   xmlns:rdf="http://www.w3.org/1999/02/22-rdf-syntax-ns#"
   xmlns:svg="http://www.w3.org/2000/svg"
   xmlns="http://www.w3.org/2000/svg"
   xmlns:sodipodi="http://sodipodi.sourceforge.net/DTD/sodipodi-0.dtd"
   xmlns:inkscape="http://www.inkscape.org/namespaces/inkscape"
   width="512"
   height="512"
   id="svg2"
   sodipodi:version="0.32"
   inkscape:version="0.48.3.1 r9886"
   sodipodi:docname="inbox.svg"
   version="1.0"
   inkscape:output_extension="org.inkscape.output.svg.inkscape">
  <defs
     id="defs4" />
  <sodipodi:namedview
     id="base"
     pagecolor="#ffffff"
     bordercolor="#666666"
     borderopacity="1.0"
     inkscape:pageopacity="0.0"
     inkscape:pageshadow="2"
     inkscape:zoom="1.8101934"
     inkscape:cx="201.89664"
     inkscape:cy="466.06188"
     inkscape:document-units="px"
     inkscape:current-layer="layer1"
     inkscape:window-width="1487"
     inkscape:window-height="1021"
     inkscape:window-x="0"
     inkscape:window-y="28"
     showgrid="false"
     inkscape:window-maximized="0"
     fit-margin-top="0"
     fit-margin-left="0"
     fit-margin-right="0"
     fit-margin-bottom="0" />
  <metadata
     id="metadata7">
    <rdf:RDF>
      <cc:Work
         rdf:about="">
        <dc:format>image/svg+xml</dc:format>
        <dc:type
           rdf:resource="http://purl.org/dc/dcmitype/StillImage" />
        <dc:title />
        <dc:creator>
          <cc:Agent>
            <dc:title />
          </cc:Agent>
        </dc:creator>
        <dc:subject>
          <rdf:Bag />
        </dc:subject>
        <cc:license
           rdf:resource="http://creativecommons.org/licenses/publicdomain/" />
        <dc:description />
        <dc:contributor>
          <cc:Agent>
            <dc:title />
          </cc:Agent>
        </dc:contributor>
      </cc:Work>
      <cc:License
         rdf:about="http://creativecommons.org/licenses/publicdomain/">
        <cc:permits
           rdf:resource="http://creativecommons.org/ns#Reproduction" />
        <cc:permits
           rdf:resource="http://creativecommons.org/ns#Distribution" />
        <cc:permits
           rdf:resource="http://creativecommons.org/ns#DerivativeWorks" />
      </cc:License>
    </rdf:RDF>
  </metadata>
  <g
     inkscape:label="Layer 1"
     inkscape:groupmode="layer"
     id="layer1"
     transform="translate(-374.21785,-62.236374)">
    <path
       style="fill:currentColor"
       inkscape:connector-curvature="0"
       d="m 534.47385,198.42837 c -3.87345,-6.21249 1.14384,-13.70794 7.168,-13.824 l 41.472,0 0,-111.616 c 0.23128,-4.990374 4.37929,-8.138656 8.704,-8.192 l 76.8,0 c 5.8025,0 8.704,2.730501 8.704,8.192 l 0,111.616 41.472,0 c 7.38102,0.37625 10.78795,8.79883 7.168,13.824 l -88.576,124.416 c -3.75892,4.86002 -10.7057,4.21856 -13.824,0 z m 320,126.976 c 19.01119,1.43153 31.51583,15.08145 31.744,32.256 l 0,182.272 c -1.38076,18.94748 -14.55734,31.51559 -31.744,31.744 l -448.512,0 c -18.94749,-1.38072 -31.51559,-14.55736 -31.744,-31.744 l 0,-182.272 c 1.37415,-18.89718 14.48804,-32.02029 31.744,-32.256 l 113.664,0 c 15.00111,0.78414 26.61349,9.38341 30.72,22.528 14.4551,36.26333 43.90496,57.96597 79.872,58.368 39.12205,-2.33877 68.63638,-24.37356 80.384,-58.368 5.0757,-13.90344 16.57538,-22.37137 30.208,-22.528 z"
       id="path5953"
       sodipodi:nodetypes="cccccssccccccccccccsccccccc" />
  </g>
</svg>
