<?xml version="1.0" encoding="UTF-8" standalone="no"?>
<!-- Created with Inkscape (http://www.inkscape.org/) -->

<svg
   xmlns:dc="http://purl.org/dc/elements/1.1/"
   xmlns:cc="http://creativecommons.org/ns#"
   xmlns:rdf="http://www.w3.org/1999/02/22-rdf-syntax-ns#"
   xmlns:svg="http://www.w3.org/2000/svg"
   xmlns="http://www.w3.org/2000/svg"
   xmlns:sodipodi="http://sodipodi.sourceforge.net/DTD/sodipodi-0.dtd"
   xmlns:inkscape="http://www.inkscape.org/namespaces/inkscape"
   width="987.97894"
   height="997.0191"
   id="svg2"
   sodipodi:version="0.32"
   inkscape:version="0.48.3.1 r9886"
   sodipodi:docname="icon-list.svg"
   version="1.0"
   inkscape:output_extension="org.inkscape.output.svg.inkscape">
  <defs
     id="defs4" />
  <sodipodi:namedview
     id="base"
     pagecolor="#ffffff"
     bordercolor="#666666"
     borderopacity="1.0"
     inkscape:pageopacity="0.0"
     inkscape:pageshadow="2"
     inkscape:zoom="0.45254834"
     inkscape:cx="631.96262"
     inkscape:cy="378.42105"
     inkscape:document-units="px"
     inkscape:current-layer="text10546"
     inkscape:window-width="1487"
     inkscape:window-height="1021"
     inkscape:window-x="0"
     inkscape:window-y="28"
     showgrid="false"
     inkscape:window-maximized="0"
     fit-margin-top="0"
     fit-margin-left="0"
     fit-margin-right="0"
     fit-margin-bottom="0" />
  <metadata
     id="metadata7">
    <rdf:RDF>
      <cc:Work
         rdf:about="">
        <dc:format>image/svg+xml</dc:format>
        <dc:type
           rdf:resource="http://purl.org/dc/dcmitype/StillImage" />
        <dc:title></dc:title>
        <dc:creator>
          <cc:Agent>
            <dc:title />
          </cc:Agent>
        </dc:creator>
        <dc:subject>
          <rdf:Bag />
        </dc:subject>
        <cc:license
           rdf:resource="http://creativecommons.org/licenses/publicdomain/" />
        <dc:description />
        <dc:contributor>
          <cc:Agent>
            <dc:title />
          </cc:Agent>
        </dc:contributor>
      </cc:Work>
      <cc:License
         rdf:about="http://creativecommons.org/licenses/publicdomain/">
        <cc:permits
           rdf:resource="http://creativecommons.org/ns#Reproduction" />
        <cc:permits
           rdf:resource="http://creativecommons.org/ns#Distribution" />
        <cc:permits
           rdf:resource="http://creativecommons.org/ns#DerivativeWorks" />
      </cc:License>
    </rdf:RDF>
  </metadata>
  <g
     inkscape:label="Layer 1"
     inkscape:groupmode="layer"
     id="layer1"
     transform="translate(-374.21785,422.78273)">
    <g
       style="font-size:1353.90222168px;font-style:italic;font-variant:normal;font-weight:normal;font-stretch:normal;line-height:125%;letter-spacing:0px;word-spacing:0px;fill:#000000;fill-opacity:1;stroke:none;font-family:Serif;-inkscape-font-specification:Serif Italic"
       id="text10546">
      <path
         style="fill:currentColor"
         d="M 374.70732,82.153301 V 41.98781 q 0,-20.886056 20.88606,-20.886056 h 114.06999 v -82.473141 q 0,-16.601736 8.83641,-19.814976 8.83641,-3.213239 20.61828,9.104178 L 654.25914,43.058889 q 8.56864,8.568639 9.10418,19.279436 0,9.639718 -9.10418,18.743896 L 539.11806,196.2233 q -12.31741,12.31741 -20.88605,9.10417 -8.56864,-3.21324 -8.56864,-20.88605 V 103.03936 H 395.59338 q -20.88606,0 -20.88606,-20.886059 z"
         id="path10886" />
      <path
         style="fill:currentColor"
         d="m 724.68263,466.13539 v -780.81714 q 0,-20.88606 20.88605,-20.88606 h 40.70103 q 20.88606,0 20.88606,20.88606 v 780.81714 q 0,20.88606 -20.88606,20.88606 h -40.70103 q -20.88605,0 -20.88605,-20.88606 z"
         id="path10884"
         inkscape:connector-curvature="0" />
      <path
         style="fill:currentColor"
         d="m 868.47509,445.24934 v -61.58709 q 0,-16.60173 12.04965,-28.38361 12.04964,-11.78188 29.18692,-11.78188 h 411.29464 q 16.6017,0 28.6514,12.04965 12.0496,12.04965 12.0496,28.11584 v 61.58709 q 0,17.67282 -12.0496,29.72246 -12.0497,12.04965 -28.6514,12.04965 H 909.71166 q -17.67282,0 -29.45469,-12.04965 -11.78188,-12.04964 -11.78188,-29.72246 z"
         id="path10882"
         inkscape:connector-curvature="0" />
      <path
         style="fill:currentColor"
         d="m 868.47509,219.25153 v -61.05155 q 0,-17.67281 12.04965,-29.72246 12.04964,-12.04965 29.18692,-12.04965 h 329.35704 q 16.6017,0 28.6514,12.04965 12.0496,12.04965 12.0496,29.72246 v 61.05155 q 0,17.67282 -12.0496,29.72246 -12.0497,12.04965 -28.6514,12.04965 H 909.71166 q -17.67282,0 -29.45469,-12.04965 -11.78188,-12.04964 -11.78188,-29.72246 z"
         id="path10880"
         inkscape:connector-curvature="0" />
      <path
         style="fill:currentColor"
         d="M 868.47509,-6.7462736 V -67.79782 q 0,-17.672816 12.04965,-29.722463 12.04964,-12.049647 29.18692,-12.049647 h 370.05804 q 17.6728,0 29.4547,12.049647 11.7819,12.049647 11.7819,29.722463 v 61.0515464 q 0,17.6728166 -12.0497,29.1869236 -12.0496,11.514108 -29.1869,11.514108 H 909.71166 q -17.67282,0 -29.45469,-11.514108 -11.78188,-11.514107 -11.78188,-29.1869236 z"
         id="path10878"
         inkscape:connector-curvature="0" />
      <path
         style="fill:currentColor"
         d="m 868.47508,-232.2086 v -62.65816 q 0,-16.60174 12.04965,-28.65139 12.04964,-12.04965 29.18692,-12.04965 h 287.58495 q 17.6728,0 29.7224,12.04965 12.0497,12.04965 12.0497,28.65139 v 62.65816 q 0,16.60174 -12.0497,28.38361 -12.0496,11.78188 -29.7224,11.78188 H 909.71165 q -17.67282,0 -29.45469,-12.04965 -11.78188,-12.04964 -11.78188,-28.11584 z"
         id="path10865"
         inkscape:connector-curvature="0" />
    </g>
  </g>
</svg>
