<?xml version="1.0" encoding="UTF-8" standalone="no"?>
<!-- Created with Inkscape (http://www.inkscape.org/) -->

<svg
   xmlns:dc="http://purl.org/dc/elements/1.1/"
   xmlns:cc="http://creativecommons.org/ns#"
   xmlns:rdf="http://www.w3.org/1999/02/22-rdf-syntax-ns#"
   xmlns:svg="http://www.w3.org/2000/svg"
   xmlns="http://www.w3.org/2000/svg"
   xmlns:sodipodi="http://sodipodi.sourceforge.net/DTD/sodipodi-0.dtd"
   xmlns:inkscape="http://www.inkscape.org/namespaces/inkscape"
   width="987.97894"
   height="997.0191"
   id="svg2"
   sodipodi:version="0.32"
   inkscape:version="0.48.3.1 r9886"
   sodipodi:docname="indent-left.svg"
   version="1.0"
   inkscape:output_extension="org.inkscape.output.svg.inkscape">
  <defs
     id="defs4" />
  <sodipodi:namedview
     id="base"
     pagecolor="#ffffff"
     bordercolor="#666666"
     borderopacity="1.0"
     inkscape:pageopacity="0.0"
     inkscape:pageshadow="2"
     inkscape:zoom="0.45254834"
     inkscape:cx="543.57428"
     inkscape:cy="378.42105"
     inkscape:document-units="px"
     inkscape:current-layer="text10546"
     inkscape:window-width="1487"
     inkscape:window-height="1021"
     inkscape:window-x="0"
     inkscape:window-y="28"
     showgrid="false"
     inkscape:window-maximized="0"
     fit-margin-top="0"
     fit-margin-left="0"
     fit-margin-right="0"
     fit-margin-bottom="0" />
  <metadata
     id="metadata7">
    <rdf:RDF>
      <cc:Work
         rdf:about="">
        <dc:format>image/svg+xml</dc:format>
        <dc:type
           rdf:resource="http://purl.org/dc/dcmitype/StillImage" />
        <dc:title></dc:title>
        <dc:creator>
          <cc:Agent>
            <dc:title />
          </cc:Agent>
        </dc:creator>
        <dc:subject>
          <rdf:Bag />
        </dc:subject>
        <cc:license
           rdf:resource="http://creativecommons.org/licenses/publicdomain/" />
        <dc:description />
        <dc:contributor>
          <cc:Agent>
            <dc:title />
          </cc:Agent>
        </dc:contributor>
      </cc:Work>
      <cc:License
         rdf:about="http://creativecommons.org/licenses/publicdomain/">
        <cc:permits
           rdf:resource="http://creativecommons.org/ns#Reproduction" />
        <cc:permits
           rdf:resource="http://creativecommons.org/ns#Distribution" />
        <cc:permits
           rdf:resource="http://creativecommons.org/ns#DerivativeWorks" />
      </cc:License>
    </rdf:RDF>
  </metadata>
  <g
     inkscape:label="Layer 1"
     inkscape:groupmode="layer"
     id="layer1"
     transform="translate(-374.21785,422.78273)">
    <g
       style="font-size:1353.90222168px;font-style:italic;font-variant:normal;font-weight:normal;font-stretch:normal;line-height:125%;letter-spacing:0px;word-spacing:0px;fill:#000000;fill-opacity:1;stroke:none;font-family:Serif;-inkscape-font-specification:Serif Italic"
       id="text10546">
      <path
         style="fill:currentColor"
         d="m 374.70732,445.24934 v -61.58709 q 0,-16.60173 12.04965,-28.38361 12.04964,-11.78188 28.65138,-11.78188 h 411.29463 q 17.67281,0 29.72246,12.04965 12.04965,12.04965 12.04965,28.11584 v 61.58709 q 0,17.67282 -12.04965,29.72246 -12.04965,12.04965 -29.72246,12.04965 H 415.40835 q -16.60174,0 -28.65138,-12.04965 -12.04965,-12.04964 -12.04965,-29.72246 z"
         id="path10938" />
      <path
         style="fill:currentColor"
         d="m 374.70732,219.25151 v -61.05155 q 0,-17.67281 12.04965,-29.72246 12.04964,-12.04965 28.65138,-12.04965 h 328.82149 q 17.67281,0 29.72246,12.04965 12.04965,12.04965 12.04965,29.72246 v 61.05155 q 0,17.67282 -12.04965,29.72246 -12.04965,12.04965 -29.72246,12.04965 H 415.40835 q -16.60174,0 -28.65138,-12.04965 -12.04965,-12.04964 -12.04965,-29.72246 z"
         id="path10936" />
      <path
         style="fill:currentColor"
         d="M 374.70732,-6.7463194 V -67.797866 q 0,-17.672816 12.04965,-29.722463 12.04964,-12.049651 28.65138,-12.049651 h 370.5936 q 16.60173,0 28.65138,12.049651 12.04965,12.049647 12.04965,29.722463 v 61.0515466 q 0,17.6728164 -12.04965,29.1869234 -12.04965,11.514108 -28.65138,11.514108 h -370.5936 q -16.60174,0 -28.65138,-11.514108 -12.04965,-11.514107 -12.04965,-29.1869234 z"
         id="path10934" />
      <path
         style="fill:currentColor"
         d="m 374.70732,-232.20861 v -62.65816 q 0,-16.60174 12.04965,-28.65139 12.04964,-12.04965 28.65138,-12.04965 h 288.12046 q 16.60173,0 28.65138,12.04965 12.04965,12.04965 12.04965,28.65139 v 62.65816 q 0,16.60174 -12.04965,28.38361 -12.04965,11.78188 -28.65138,11.78188 H 415.40835 q -16.60174,0 -28.65138,-12.04965 -12.04965,-12.04964 -12.04965,-28.11584 z"
         id="path10932" />
      <path
         style="fill:currentColor"
         d="m 929.79445,466.13539 v -780.81714 q 0,-20.88606 20.88606,-20.88606 h 40.70105 q 8.5686,0 14.72734,6.15871 6.1587,6.15871 6.1587,14.72735 v 780.81714 q 0,8.56864 -6.1587,14.72735 -6.15874,6.15871 -14.72734,6.15871 h -40.70105 q -20.88606,0 -20.88606,-20.88606 z"
         id="path10930"
         inkscape:connector-curvature="0" />
      <path
         style="fill:currentColor"
         d="m 1073.5869,89.115319 q 0,-8.568638 7.4975,-18.743896 l 116.2122,-115.141074 q 12.3174,-12.317417 20.3505,-9.104178 8.0331,3.213239 8.0331,20.886056 v 81.402061 h 115.1411 q 8.5686,0 14.7273,5.890939 6.1587,5.890939 6.1587,14.995117 v 40.165486 q 0,8.56864 -5.8909,14.72735 -5.891,6.15871 -14.9951,6.15871 h -115.1411 v 82.47314 q 0,16.60174 -8.0331,20.35052 -8.0331,3.74878 -20.3505,-8.0331 l -116.2122,-116.7477 q -7.4975,-9.639713 -7.4975,-19.279431 z"
         id="path10917"
         inkscape:connector-curvature="0" />
    </g>
  </g>
</svg>
