<?xml version="1.0" encoding="UTF-8" standalone="no"?>
<!-- Created with Inkscape (http://www.inkscape.org/) -->

<svg
   xmlns:dc="http://purl.org/dc/elements/1.1/"
   xmlns:cc="http://creativecommons.org/ns#"
   xmlns:rdf="http://www.w3.org/1999/02/22-rdf-syntax-ns#"
   xmlns:svg="http://www.w3.org/2000/svg"
   xmlns="http://www.w3.org/2000/svg"
   xmlns:sodipodi="http://sodipodi.sourceforge.net/DTD/sodipodi-0.dtd"
   xmlns:inkscape="http://www.inkscape.org/namespaces/inkscape"
   width="987.97894"
   height="997.0191"
   id="svg2"
   sodipodi:version="0.32"
   inkscape:version="0.48.3.1 r9886"
   sodipodi:docname="skype.svg"
   version="1.0"
   inkscape:output_extension="org.inkscape.output.svg.inkscape">
  <defs
     id="defs4" />
  <sodipodi:namedview
     id="base"
     pagecolor="#ffffff"
     bordercolor="#666666"
     borderopacity="1.0"
     inkscape:pageopacity="0.0"
     inkscape:pageshadow="2"
     inkscape:zoom="0.45254834"
     inkscape:cx="388.00402"
     inkscape:cy="242.38832"
     inkscape:document-units="px"
     inkscape:current-layer="layer1"
     inkscape:window-width="1487"
     inkscape:window-height="1021"
     inkscape:window-x="0"
     inkscape:window-y="28"
     showgrid="false"
     inkscape:window-maximized="0"
     fit-margin-top="0"
     fit-margin-left="0"
     fit-margin-right="0"
     fit-margin-bottom="0" />
  <metadata
     id="metadata7">
    <rdf:RDF>
      <cc:Work
         rdf:about="">
        <dc:format>image/svg+xml</dc:format>
        <dc:type
           rdf:resource="http://purl.org/dc/dcmitype/StillImage" />
        <dc:title></dc:title>
        <dc:creator>
          <cc:Agent>
            <dc:title />
          </cc:Agent>
        </dc:creator>
        <dc:subject>
          <rdf:Bag />
        </dc:subject>
        <cc:license
           rdf:resource="http://creativecommons.org/licenses/publicdomain/" />
        <dc:description />
        <dc:contributor>
          <cc:Agent>
            <dc:title />
          </cc:Agent>
        </dc:contributor>
      </cc:Work>
      <cc:License
         rdf:about="http://creativecommons.org/licenses/publicdomain/">
        <cc:permits
           rdf:resource="http://creativecommons.org/ns#Reproduction" />
        <cc:permits
           rdf:resource="http://creativecommons.org/ns#Distribution" />
        <cc:permits
           rdf:resource="http://creativecommons.org/ns#DerivativeWorks" />
      </cc:License>
    </rdf:RDF>
  </metadata>
  <g
     inkscape:label="Layer 1"
     inkscape:groupmode="layer"
     id="layer1"
     transform="translate(-374.21785,422.78273)">
    <g
       id="g7010"
       transform="matrix(1.0433404,0,0,-1.0433404,346.53712,388.72894)">
      <path
         id="path7012"
         d="m 925,676 c 0,15.333 -5.33301,28.5 -16,39.5 -10.66699,11 -23.667,16.5 -39,16.5 h -90 c -15.333,0 -28.333,-5.5 -39,-16.5 -10.667,-11 -16,-24.167 -16,-39.5 v -76 c 0,-15.333 5.33301,-28.333 16,-39 10.66699,-10.667 23.667,-16 39,-16 h 90 c 15.333,0 28.333,5.33301 39,16 10.667,10.66699 16,23.667 16,39 v 76 z M 277,732 H 245 V 545 h 32 v 55 76 56 z m -55,0 H 189 V 545 h 33 v 187 z m -56,0 H 134 V 545 h 32 v 187 z m -56,-5 C 100.667,723 92.8333,716.333 86.5,707 80.1667,697.66101 77,687.328 77,676 V 545 h 33 v 182 z m 835,46 c 6.68103,0 12.348,-2.16699 17,-6.5 4.66699,-4.33301 7,-9.83301 7,-16.5 V 503 H 678 c -21.333,28 -48,50.167 -80,66.5 C 566,585.833 531,594 493,594 455,594 420,585.83301 388,569.5 356,553.16699 329.333,531 308,503 H 31 v 247 c 0,6.66699 2.3333,12.167 7,16.5 4.6667,4.333 10.3334,6.5 17,6.5 h 890 v 0 z M 493,525 c -22.668,0 -43.834,-4.33301 -63.5,-13 -19.667,-8.66699 -37,-20.5 -52,-35.5 -15,-15 -26.833,-32.333 -35.5,-52 -8.667,-19.667 -13,-40.834 -13,-63.5 0,-22.667 4.33301,-44 13,-64 8.66699,-20 20.5,-37.333 35.5,-52 15,-14.667 32.333,-26.333 52,-35 19.667,-8.667 40.833,-13 63.5,-13 22.667,0 44,4.33299 64,13 20,8.66701 37.333,20.333 52,35 14.671,14.667 26.338,32 35,52 8.66699,20 13,41.333 13,64 0,22.667 -4.33301,43.833 -13,63.5 -8.66699,19.667 -20.333,37 -35,52 -14.667,15 -32,26.833 -52,35.5 -20,8.667 -41.333,13 -64,13 z m 0,-370 c -28.667,0 -55.5,5.33299 -80.5,16 -25,10.66701 -46.833,25.334 -65.5,44 -18.667,18.667 -33.334,40.5 -44,65.5 -10.667,25 -16,51.833 -16,80.5 0,28.667 5.33301,55.5 16,80.5 10.66699,25 25.333,46.833 44,65.5 18.667,18.669 40.5,33.335 65.5,44 25,10.667 51.833,16 80.5,16 28.667,0 55.5,-5.33301 80.5,-16 25,-10.66699 46.833,-25.333 65.5,-44 18.669,-18.667 33.336,-40.5 44,-65.5 10.667,-25 16,-51.833 16,-80.5 0,-28.667 -5.33301,-55.5 -16,-80.5 -10.66699,-25 -25.333,-46.833 -44,-65.5 -18.667,-18.667 -40.5,-33.333 -65.5,-44 -25,-10.667 -51.833,-16 -80.5,-16 z m 234,206 c 0,37.333 -8.33301,72 -25,104 h 267 v -615 c 0,-6.66701 -2.33301,-12.167 -7,-16.5 -4.66699,-4.333 -10.333,-6.5 -17,-6.5 H 55 c -6.6667,0 -12.3333,2.16701 -17,6.5 -4.6667,4.33299 -7,9.83299 -7,16.5 v 615 h 253 c -7.33301,-15.333 -13.167,-31.833 -17.5,-49.5 -4.333,-17.667 -6.5,-35.834 -6.5,-54.5 0,-32 6.16699,-62.333 18.5,-91 12.333,-28.667 29,-53.5 50,-74.5 21,-21 45.667,-37.667 74,-50 C 430.833,133.167 461,127 493,127 c 32,0 62.333,6.16701 91,18.5 28.667,12.33299 53.5,29 74.5,50 21,21 37.667,45.833 50,74.5 12.333,28.667 18.5,59 18.5,91 z"
         inkscape:connector-curvature="0"
         style="fill:currentColor" />
    </g>
  </g>
</svg>
