<svg width="1000" height="1000" xmlns="http://www.w3.org/2000/svg">
 <g>
  <title>Layer 1</title>
  <g>
   <path d="m603.57495,510.85428c0,-54.04355 -44.17151,-98.0202 -98.46289,-98.0202c-54.28479,0 -98.45517,43.97665 -98.45517,98.0202c0,54.05783 44.17038,98.02567 98.45517,98.02567c54.29138,0 98.46289,-43.96783 98.46289,-98.02567z"/>
   <path d="m749.85504,0.6018h-499.71266c-137.67686,0 -249.68614,111.52179 -249.68614,248.597v69.26573h367.41293c38.76901,-27.49554 86.1181,-43.73865 137.24289,-43.73865c51.12372,0 98.48047,16.2431 137.25061,43.73865h186.30695h170.87042v-69.26573c0,-137.07631 -112.00922,-248.597 -249.685,-248.597zm101.11951,236.43547c0,15.19147 -12.48022,27.62163 -27.74268,27.62163h-85.72046c-15.26135,0 -27.74268,-12.43126 -27.74268,-27.62163v-85.35208c0,-15.19037 12.48132,-27.62164 27.74268,-27.62164h85.72046c15.26245,0 27.74268,12.43017 27.74268,27.62164v85.35208l0,0z"/>
   <path d="m742.28717,510.85428c0,130.21475 -106.40198,236.13284 -237.17618,236.13284c-130.77753,0 -237.16956,-105.91809 -237.16956,-236.13284c0,-35.84848 8.10974,-69.84473 22.5318,-100.31763h-290.01701v340.2634c0,137.08508 112.00927,248.59698 249.68614,248.59698h499.71378c137.67578,0 249.68506,-111.51306 249.68506,-248.59698v-340.2634h-279.78589c14.42212,30.4729 22.53186,64.47021 22.53186,100.31763z"/>
  </g>
 </g>
</svg>
