<?xml version="1.0" encoding="UTF-8" standalone="no"?>
<!-- Created with Inkscape (http://www.inkscape.org/) -->

<svg
   xmlns:dc="http://purl.org/dc/elements/1.1/"
   xmlns:cc="http://creativecommons.org/ns#"
   xmlns:rdf="http://www.w3.org/1999/02/22-rdf-syntax-ns#"
   xmlns:svg="http://www.w3.org/2000/svg"
   xmlns="http://www.w3.org/2000/svg"
   xmlns:sodipodi="http://sodipodi.sourceforge.net/DTD/sodipodi-0.dtd"
   xmlns:inkscape="http://www.inkscape.org/namespaces/inkscape"
   width="987.97894"
   height="997.0191"
   id="svg2"
   sodipodi:version="0.32"
   inkscape:version="0.48.3.1 r9886"
   sodipodi:docname="braille.svg"
   version="1.0"
   inkscape:output_extension="org.inkscape.output.svg.inkscape">
  <defs
     id="defs4" />
  <sodipodi:namedview
     id="base"
     pagecolor="#ffffff"
     bordercolor="#666666"
     borderopacity="1.0"
     inkscape:pageopacity="0.0"
     inkscape:pageshadow="2"
     inkscape:zoom="0.45254834"
     inkscape:cx="122.83898"
     inkscape:cy="330.77667"
     inkscape:document-units="px"
     inkscape:current-layer="layer1"
     inkscape:window-width="1487"
     inkscape:window-height="1021"
     inkscape:window-x="0"
     inkscape:window-y="28"
     showgrid="false"
     inkscape:window-maximized="0"
     fit-margin-top="0"
     fit-margin-left="0"
     fit-margin-right="0"
     fit-margin-bottom="0" />
  <metadata
     id="metadata7">
    <rdf:RDF>
      <cc:Work
         rdf:about="">
        <dc:format>image/svg+xml</dc:format>
        <dc:type
           rdf:resource="http://purl.org/dc/dcmitype/StillImage" />
        <dc:title></dc:title>
        <dc:creator>
          <cc:Agent>
            <dc:title />
          </cc:Agent>
        </dc:creator>
        <dc:subject>
          <rdf:Bag />
        </dc:subject>
        <cc:license
           rdf:resource="http://creativecommons.org/licenses/publicdomain/" />
        <dc:description />
        <dc:contributor>
          <cc:Agent>
            <dc:title />
          </cc:Agent>
        </dc:contributor>
      </cc:Work>
      <cc:License
         rdf:about="http://creativecommons.org/licenses/publicdomain/">
        <cc:permits
           rdf:resource="http://creativecommons.org/ns#Reproduction" />
        <cc:permits
           rdf:resource="http://creativecommons.org/ns#Distribution" />
        <cc:permits
           rdf:resource="http://creativecommons.org/ns#DerivativeWorks" />
      </cc:License>
    </rdf:RDF>
  </metadata>
  <g
     inkscape:label="Layer 1"
     inkscape:groupmode="layer"
     id="layer1"
     transform="translate(-374.21785,422.78273)">
    <g
       id="g7847"
       transform="matrix(1.128,0,0,-1.128,307.02732,413.56282)">
      <path
         id="path7849"
         d="m 685,452 c 0,9.33301 -3.5,17.5 -10.5,24.5 -7,7 -15.5,10.5 -25.5,10.5 H 346 c -10,0 -18.5,-3.5 -25.5,-10.5 -7,-7 -10.5,-15.167 -10.5,-24.5 V 148 c 0,-10 3.5,-18.5 10.5,-25.5 7,-7 15.5,-10.5 25.5,-10.5 h 303 c 10,0 18.5,3.5 25.5,10.5 7,7 10.5,15.5 10.5,25.5 V 452 z M 497,737 c 60.667,0 117.5,-11.5 170.5,-34.5 53,-23 99.333,-54.167 139,-93.5 39.667,-39.333 71,-85.5 94,-138.5 23,-53 34.5,-109.833 34.5,-170.5 0,-60.667 -11.5,-117.5 -34.5,-170.5 -23,-53 -54.333,-99.3333 -94,-139 -39.667,-39.6667 -86,-71 -139,-94 -53,-23 -109.833,-34.5 -170.5,-34.5 -60,0 -116.667,11.5 -170,34.5 -53.333,23 -99.667,54.3333 -139,94 -39.333,39.6667 -70.5,86 -93.5,139 -23,53 -34.5,109.833 -34.5,170.5 0,60.667 11.5,117.5 34.5,170.5 23,53 54.167,99.167 93.5,138.5 39.333,39.333 85.667,70.5 139,93.5 53.333,23 110,34.5 170,34.5 z M 598,418 c 5.33301,0 9.66699,-1.66699 13,-5 3.33301,-3.33301 5,-7.66699 5,-13 V 200 c 0,-5.334 -1.66699,-9.66701 -5,-13 -3.34302,-3.33299 -7.67603,-5 -13,-5 H 397 c -5.33301,0 -9.66699,1.66701 -13,5 -3.33301,3.33299 -5,7.66701 -5,13 v 200 c 0,5.336 1.66699,9.67001 5,13 3.336,3.33301 7.67001,5 13,5 h 201 v 0 z"
         inkscape:connector-curvature="0"
         style="fill:currentColor" />
    </g>
  </g>
</svg>
