<?xml version="1.0" encoding="UTF-8" standalone="no"?>
<!-- Created with Inkscape (http://www.inkscape.org/) -->

<svg
   xmlns:dc="http://purl.org/dc/elements/1.1/"
   xmlns:cc="http://creativecommons.org/ns#"
   xmlns:rdf="http://www.w3.org/1999/02/22-rdf-syntax-ns#"
   xmlns:svg="http://www.w3.org/2000/svg"
   xmlns="http://www.w3.org/2000/svg"
   xmlns:sodipodi="http://sodipodi.sourceforge.net/DTD/sodipodi-0.dtd"
   xmlns:inkscape="http://www.inkscape.org/namespaces/inkscape"
   id="svg1903"
   height="1000.2804"
   width="667.37451"
   version="1.0"
   inkscape:version="0.49+devel r"
   sodipodi:docname="Jabber-bulb2.svg">
  <defs
     id="defs77" />
  <sodipodi:namedview
     pagecolor="#ffffff"
     bordercolor="#666666"
     borderopacity="1"
     objecttolerance="10"
     gridtolerance="10"
     guidetolerance="10"
     inkscape:pageopacity="0"
     inkscape:pageshadow="2"
     inkscape:window-width="1366"
     inkscape:window-height="768"
     id="namedview75"
     showgrid="false"
     fit-margin-top="0"
     fit-margin-left="0"
     fit-margin-right="0"
     fit-margin-bottom="0"
     inkscape:zoom="0.29735839"
     inkscape:cx="-244.14533"
     inkscape:cy="658.95138"
     inkscape:window-x="0"
     inkscape:window-y="0"
     inkscape:window-maximized="0"
     inkscape:current-layer="svg1903" />
  <metadata
     id="metadata74">
    <rdf:RDF>
      <cc:Work
         rdf:about="">
        <dc:format>image/svg+xml</dc:format>
        <dc:type
           rdf:resource="http://purl.org/dc/dcmitype/StillImage" />
        <dc:title></dc:title>
      </cc:Work>
    </rdf:RDF>
  </metadata>
  <g
     id="g79"
     transform="matrix(1.5064784,0,0,1.5064784,2.1864804e-5,-0.01971417)">
    <path
       style="fill:#000000"
       d="m 155.01,324.74 c 0,-9.6823 -1.7884,-20.252 -7.4133,-28.371 -11.278,-16.274 -35.488,-21.451 -52.34,-11.195 -8.518,5.1875 -13.255,14.244 -15.926,23.542 -5.3022,18.463 -2.8709,39.533 0.83706,58.075 1.1851,5.9301 2.4091,11.869 4.0726,17.69 0.60088,2.1 0.87906,5.1513 2.2449,6.8981 2.3838,3.0541 8.2036,3.9386 11.772,3.3378 10.707,-1.7996 8.0562,-19.429 7.6918,-26.925 -0.85402,-17.559 -6.0282,-34.602 -1.0154,-52.067 2.1226,-7.3904 6.223,-15.701 13.687,-18.911 6.7376,-2.9011 13.536,0.64808 16.204,7.2291 4.3199,10.656 3.2406,22.958 5.9501,34.045 0.92079,3.7689 1.9334,7.5016 3.6331,11.015 0.49239,1.0152 1.1712,3.1264 2.5982,2.9984 3.469,-0.31708 8.4012,-6.1053 11.002,-8.2526 8.4012,-6.9426 17.033,-14.377 26.706,-19.515 4.5511,-2.4171 12.04,-6.3306 16.688,-2.2196 1.1848,1.0486 2.139,2.3003 2.9874,3.627 5.4635,8.5586 0.0389,15.226 -3.5132,23.364 -4.5984,10.533 -9.3105,20.961 -15.973,30.374 -5.7278,8.0941 -13.556,15.19 -18.132,24.032 -2.946,5.6937 -4.6123,11.933 -3.3938,18.358 0.98756,5.1958 5.0157,8.3333 10.315,7.115 3.9669,-0.91232 6.6542,-4.3113 8.9158,-7.4488 4.0309,-5.5963 7.7752,-11.404 11.781,-17.023 7.7502,-10.867 16.894,-21.028 23.412,-32.71 7.8559,-14.083 11.645,-30.018 11.636,-46.059 -0.005,-13.109 -4.7594,-33.144 -20.029,-35.892 -2.8734,-0.51457 -6.159,-0.23364 -9.0132,0.26424 -3.5466,0.61749 -7.1073,1.7718 -10.348,3.3406 -8.6821,4.2 -16.19,10.472 -22.641,17.604 -4.025,4.4448 -7.6303,10.036 -12.407,13.685"
       id="path26"
       inkscape:connector-curvature="0" />
    <path
       style="fill:#000000"
       d="m 140.66,0.46423 c -12.04,1.5827 -24.28,1.4186 -36.38,3.2877 -23.184,3.5798 -45.386,10.781 -67.098,19.468 -7.906,3.162 -15.706,6.686 -23.367,10.394 -2.851,1.38 -7.1995,2.484 -9.4918,4.698 -1.1931,1.154 -1.0707,3.858 -1.2156,5.401 -0.4031,4.342 -0.9456,8.679 -1.3659,13.018 -1.6216,16.744 -2.7649,33.995 -0.367,50.729 0.77613,5.4072 2.4564,15.215 9.1022,16.252 10.22,1.5994 18.16,-10.976 23.175,-17.921 11.714,-16.218 25.042,-31.319 44.254,-38.57 22.614,-8.537 48.514,-10.548 72.434,-12.189 67.129,-4.6006 140.49,7.6602 189.94,57.104 7.0325,7.0316 13.689,14.494 19.35,22.697 22.141,32.059 33.849,68.513 39.488,106.8 2.6511,17.977 4.4621,36.168 0.36164,54.069 -7.116,31.058 -25.774,58.091 -47.213,81.105 -14.674,15.752 -31.187,29.99 -48.373,42.932 -9.5946,7.2235 -20.355,13.351 -29.376,21.248 -10.39,9.0954 -19.033,20.477 -25.601,32.613 -17.676,32.677 -22.416,71.996 -17.217,108.47 1.0654,7.4766 2.028,14.989 3.7221,22.363 0.5063,2.2057 0.59532,5.9969 2.0224,7.7993 2.6706,3.3712 9.959,5.2264 14.04,5.4239 4.2562,0.20583 7.0881,-3.0652 8.1313,-6.8814 1.7859,-6.5392 0.71771,-13.782 -0.31713,-20.36 -2.1198,-13.473 -4.0615,-27.042 -3.4606,-40.718 1.1072,-25.253 10.871,-48.784 28.375,-67.087 17.801,-18.614 41.844,-29.347 62.074,-44.94 40.771,-31.425 77.296,-73.823 91.322,-124.28 5.0129,-18.043 6.6736,-37.163 4.3842,-55.738 -2.8931,-23.495 -11.486,-46.963 -19.581,-69.089 -24.67,-67.43 -67,-131.57 -134.21,-162.42 -26.67,-12.245 -54.57,-17.819 -83.45,-21.841 -13.55,-1.8861 -27.09,-3.0432 -40.72,-3.6412 -7.58,-0.33099 -15.82,-1.171 -23.37,-0.17801"
       id="path28"
       inkscape:connector-curvature="0" />
    <path
       style="fill:#000000"
       d="m 35.51,437.03 c -13.1,1.8747 -16.908,12.375 -14.488,24.221 3.099,15.159 15.022,26.722 26.836,35.828 30.269,23.331 69.365,35.942 107.48,34.273 14.874,-0.65086 31.079,-3.1097 44.729,-9.4209 7.319,-3.3823 14.975,-15.568 5.0073,-20.783 -1.3659,-0.71484 -3.1516,-1.1571 -4.6735,-1.4074 -4.3533,-0.71206 -9.2274,1.1404 -13.353,2.3253 -7.2745,2.0889 -14.543,4.2278 -22.032,5.4294 -22.374,3.5937 -46.568,-1.5187 -65.092,-14.775 -14.983,-10.72 -27.095,-24.86 -38.529,-39.15 -6.999,-8.74 -13.325,-18.34 -25.904,-16.54"
       id="path30"
       inkscape:connector-curvature="0" />
    <path
       style="fill:#000000"
       d="m 18.485,511.12 c -3.3326,0.43947 -7.1549,0.3143 -10.009,2.4088 -5.9531,4.3697 0.60366,13.159 3.736,17.142 9.0824,11.54 21.042,21.12 32.976,29.564 33.271,23.534 70.959,37.111 111.49,39.889 11.653,0.79828 23.523,-0.0306 35.048,-1.9498 4.2142,-0.70372 9.4582,-1.0208 13.353,-2.8399 11.021,-5.1541 7.8334,-25.973 -2.0029,-30.602 -4.2952,-2.0194 -11.186,0.64809 -15.69,1.2739 -10.652,1.4853 -21.334,1.6355 -32.047,1.374 -28.077,-0.68702 -57.987,-9.3346 -82.451,-22.981 -9.6168,-5.3683 -18.449,-11.899 -26.706,-19.167 -5.0212,-4.4198 -10.179,-11.652 -16.691,-13.885 -3.0322,-1.0403 -7.8618,-0.6453 -11.016,-0.23086"
       id="path32"
       inkscape:connector-curvature="0" />
    <path
       style="fill:#000000"
       d="m 25.161,573.54 c -4.7455,0.53126 -8.323,3.0068 -11.444,6.5281 -2.1504,2.4254 -4.1922,4.6173 -5.4274,7.6769 -6.8099,16.845 11.344,32.746 23.882,40.701 13.953,8.8507 29.198,15.412 44.729,20.939 35.029,12.467 76.114,20.447 112.49,9.3013 10.813,-3.31 21.501,-9.3625 29.362,-17.543 4.4284,-4.6089 7.469,-11.588 -0.65373,-14.539 -4.8126,-1.7468 -10.657,2.7008 -15.022,4.4587 -10.304,4.1555 -20.986,7.3097 -32.047,8.6476 -14.568,1.7662 -27.685,-1.4408 -41.725,-4.9538 -11.993,-2.9984 -24.121,-5.9969 -35.716,-10.319 -9.8922,-3.6882 -19.718,-8.0691 -28.374,-14.194 -2.5871,-1.8302 -5.6861,-3.4602 -7.8058,-5.8439 -6.9296,-7.7965 -12.137,-16.92 -19.567,-24.335 -3.2102,-3.2043 -7.7722,-7.0761 -12.685,-6.5281"
       id="path34"
       inkscape:connector-curvature="0" />
  </g>
</svg>
