<?xml version="1.0" encoding="UTF-8" standalone="no"?>
<!-- Created with Inkscape (http://www.inkscape.org/) -->

<svg
   xmlns:dc="http://purl.org/dc/elements/1.1/"
   xmlns:cc="http://creativecommons.org/ns#"
   xmlns:rdf="http://www.w3.org/1999/02/22-rdf-syntax-ns#"
   xmlns:svg="http://www.w3.org/2000/svg"
   xmlns="http://www.w3.org/2000/svg"
   xmlns:sodipodi="http://sodipodi.sourceforge.net/DTD/sodipodi-0.dtd"
   xmlns:inkscape="http://www.inkscape.org/namespaces/inkscape"
   width="512"
   height="512"
   id="svg2"
   sodipodi:version="0.32"
   inkscape:version="0.48.3.1 r9886"
   sodipodi:docname="laptop-alt.svg"
   version="1.0"
   inkscape:output_extension="org.inkscape.output.svg.inkscape">
  <defs
     id="defs4" />
  <sodipodi:namedview
     id="base"
     pagecolor="#ffffff"
     bordercolor="#666666"
     borderopacity="1.0"
     inkscape:pageopacity="0.0"
     inkscape:pageshadow="2"
     inkscape:zoom="1"
     inkscape:cx="256"
     inkscape:cy="256"
     inkscape:document-units="px"
     inkscape:current-layer="layer1"
     inkscape:window-width="1920"
     inkscape:window-height="1025"
     inkscape:window-x="0"
     inkscape:window-y="27"
     showgrid="false"
     inkscape:window-maximized="1"
     fit-margin-top="0"
     fit-margin-left="0"
     fit-margin-right="0"
     fit-margin-bottom="0" />
  <metadata
     id="metadata7">
    <rdf:RDF>
      <cc:Work
         rdf:about="">
        <dc:format>image/svg+xml</dc:format>
        <dc:type
           rdf:resource="http://purl.org/dc/dcmitype/StillImage" />
        <dc:title />
        <dc:creator>
          <cc:Agent>
            <dc:title />
          </cc:Agent>
        </dc:creator>
        <dc:subject>
          <rdf:Bag />
        </dc:subject>
        <cc:license
           rdf:resource="http://creativecommons.org/licenses/publicdomain/" />
        <dc:description />
        <dc:contributor>
          <cc:Agent>
            <dc:title />
          </cc:Agent>
        </dc:contributor>
      </cc:Work>
      <cc:License
         rdf:about="http://creativecommons.org/licenses/publicdomain/">
        <cc:permits
           rdf:resource="http://creativecommons.org/ns#Reproduction" />
        <cc:permits
           rdf:resource="http://creativecommons.org/ns#Distribution" />
        <cc:permits
           rdf:resource="http://creativecommons.org/ns#DerivativeWorks" />
      </cc:License>
    </rdf:RDF>
  </metadata>
  <g
     inkscape:label="Layer 1"
     inkscape:groupmode="layer"
     id="layer1"
     transform="translate(-374.21785,-62.236374)">
    <path
       style="fill:#000000;fill-opacity:1;stroke:none"
       d="M 256 0 C 114.6151 7.5791225e-14 0 114.6151 0 256 C 0 397.3849 114.6151 512 256 512 C 397.3849 512 512 397.3849 512 256 C 512 114.6151 397.3849 -5.6843419e-14 256 0 z M 146.9375 144.375 L 365.0625 144.375 C 372.63873 144.4795 379.49207 150.72078 379.90625 159.21875 L 379.90625 292.875 C 379.80264 300.5443 373.68544 307.72425 365.0625 308.21875 L 146.9375 308.21875 C 139.15308 308.10777 132.10908 301.48501 131.59375 292.875 L 131.59375 159.21875 C 131.70345 151.53212 138.44638 144.82356 146.9375 144.375 z M 161.78125 174.59375 L 161.78125 278.03125 L 349.6875 278.03125 L 349.6875 174.59375 L 161.78125 174.59375 z M 107 322.0625 L 405 322.0625 C 407.048 322.0625 408.839 322.80775 410.375 324.34375 C 411.911 325.87975 412.6875 327.67075 412.6875 329.71875 L 412.6875 347.65625 C 412.6875 349.70425 411.8315 351.57475 410.125 353.28125 L 398.84375 364.53125 C 397.13725 366.2379 395.26675 367.09375 393.21875 367.09375 L 117.75 367.09375 C 115.702 367.09375 113.83149 366.2379 112.125 364.53125 L 101.375 352.78125 C 100.00949 351.75725 99.3125 350.04575 99.3125 347.65625 L 99.3125 329.71875 C 99.3125 327.67075 100.089 325.87975 101.625 324.34375 C 103.161 322.80775 104.952 322.0625 107 322.0625 z M 228.875 331.78125 C 227.851 331.78125 227.3125 333.14451 227.3125 335.875 L 227.3125 353.28125 C 227.3125 356.01175 227.851 357.375 228.875 357.375 L 283.125 357.375 C 283.8075 357.375 284.15625 356.01175 284.15625 353.28125 L 284.15625 335.875 C 284.15625 333.14451 283.8075 331.78125 283.125 331.78125 L 228.875 331.78125 z "
       transform="translate(374.21785,62.236374)"
       id="path3065" />
  </g>
</svg>
