<?xml version="1.0" encoding="UTF-8" standalone="no"?>
<!-- Created with Inkscape (http://www.inkscape.org/) -->

<svg
   xmlns:dc="http://purl.org/dc/elements/1.1/"
   xmlns:cc="http://creativecommons.org/ns#"
   xmlns:rdf="http://www.w3.org/1999/02/22-rdf-syntax-ns#"
   xmlns:svg="http://www.w3.org/2000/svg"
   xmlns="http://www.w3.org/2000/svg"
   xmlns:sodipodi="http://sodipodi.sourceforge.net/DTD/sodipodi-0.dtd"
   xmlns:inkscape="http://www.inkscape.org/namespaces/inkscape"
   width="987.97894"
   height="997.0191"
   id="svg2"
   sodipodi:version="0.32"
   inkscape:version="0.48.3.1 r9886"
   sodipodi:docname="refresh-dual.svg"
   version="1.0"
   inkscape:output_extension="org.inkscape.output.svg.inkscape">
  <defs
     id="defs4" />
  <sodipodi:namedview
     id="base"
     pagecolor="#ffffff"
     bordercolor="#666666"
     borderopacity="1.0"
     inkscape:pageopacity="0.0"
     inkscape:pageshadow="2"
     inkscape:zoom="0.32"
     inkscape:cx="-111.07108"
     inkscape:cy="310.07594"
     inkscape:document-units="px"
     inkscape:current-layer="layer1"
     inkscape:window-width="1487"
     inkscape:window-height="1021"
     inkscape:window-x="0"
     inkscape:window-y="28"
     showgrid="false"
     inkscape:window-maximized="0"
     fit-margin-top="0"
     fit-margin-left="0"
     fit-margin-right="0"
     fit-margin-bottom="0" />
  <metadata
     id="metadata7">
    <rdf:RDF>
      <cc:Work
         rdf:about="">
        <dc:format>image/svg+xml</dc:format>
        <dc:type
           rdf:resource="http://purl.org/dc/dcmitype/StillImage" />
        <dc:title></dc:title>
        <dc:creator>
          <cc:Agent>
            <dc:title />
          </cc:Agent>
        </dc:creator>
        <dc:subject>
          <rdf:Bag />
        </dc:subject>
        <cc:license
           rdf:resource="http://creativecommons.org/licenses/publicdomain/" />
        <dc:description />
        <dc:contributor>
          <cc:Agent>
            <dc:title />
          </cc:Agent>
        </dc:contributor>
      </cc:Work>
      <cc:License
         rdf:about="http://creativecommons.org/licenses/publicdomain/">
        <cc:permits
           rdf:resource="http://creativecommons.org/ns#Reproduction" />
        <cc:permits
           rdf:resource="http://creativecommons.org/ns#Distribution" />
        <cc:permits
           rdf:resource="http://creativecommons.org/ns#DerivativeWorks" />
      </cc:License>
    </rdf:RDF>
  </metadata>
  <g
     inkscape:label="Layer 1"
     inkscape:groupmode="layer"
     id="layer1"
     transform="translate(-374.21785,422.78273)">
    <path
       inkscape:connector-curvature="0"
       d="m 1153.9906,569.22682 -571.56657,0 c -35.08783,0 -63.50738,-28.35604 -63.50738,-63.38036 l 0,-765.16872 c 0,-34.99256 28.41955,-63.34861 63.50738,-63.34861 l 158.76846,0 0,66.01592 -127.01477,0 c -17.52803,0 -31.75369,14.16215 -31.75369,31.69019 l 0,699.12103 c 0,17.55979 14.22566,31.69019 31.75369,31.69019 l 508.05908,0 c 17.5599,0 31.7538,-14.1304 31.7538,-31.69019 l 0,-699.12103 c 0,-17.52804 -14.1939,-31.69019 -31.7538,-31.69019 l -127.0148,0 0,-66.01592 158.7686,0 c 35.0561,0 63.5074,28.3878 63.5074,63.34861 l 0,765.16872 c 0,35.02432 -28.4513,63.38036 -63.5074,63.38036 z m -412.79811,-635.772409 349.29061,0 0,31.69018 -349.29061,0 0,-31.69018 z m 0,95.07055 349.29061,0 0,31.69018 -349.29061,0 0,-31.69018 z m 0,95.102299 349.29061,0 0,31.69019 -349.29061,0 0,-31.69019 z m 0,95.07056 349.29061,0 0,31.69018 -349.29061,0 0,-31.69018 z m 349.29061,221.76778 -349.29061,0 0,-31.62667 349.29061,0 0,31.62667 z m -349.29061,-126.69723 349.29061,0 0,31.69019 -349.29061,0 0,-31.69019 z m -95.26107,-380.949039 31.75369,0 0,31.69019 -31.75369,0 0,-31.69019 z m 0,95.07055 31.75369,0 0,31.69019 -31.75369,0 0,-31.69019 z m 0,95.038799 31.75369,0 0,31.69019 -31.75369,0 0,-31.69019 z m 0,95.07055 31.75369,0 0,31.69019 -31.75369,0 0,-31.69019 z m 31.75369,221.86305 -31.75369,0 0,-31.69018 31.75369,0 0,31.69018 z m -31.75369,-126.76073 31.75369,0 0,31.69018 -31.75369,0 0,-31.69018 z m 412.79798,-536.12934 c 17.5598,0 31.7537,14.1939 31.7537,31.72194 0,17.49629 0,61.37989 0,61.37989 l -444.55168,0 c 0,0 0,-43.8836 0,-61.37989 0,-17.52804 14.1939,-31.72194 31.75369,-31.72194 l 95.26107,0 c 0,0 0.38105,-45.05849 0.38105,-96.56297 0,-53.47322 41.2798,-98.18242 94.88007,-98.18242 53.6002,0 96.3089,46.99547 96.3089,98.49995 0,55.4737 -1.0479,96.24544 -1.0479,96.24544 l 95.2611,0 z m -190.5221,-99.64308 c -17.5598,0 -31.7537,14.16215 -31.7537,31.65843 0,17.52804 14.1939,31.69018 31.7537,31.69018 17.5597,0 31.7536,-14.16214 31.7536,-31.69018 0,-17.49628 -14.1939,-31.65843 -31.7536,-31.65843 z"
       id="path4" />
  </g>
</svg>
