<?xml version="1.0" encoding="UTF-8" standalone="no"?>
<!-- Created with Inkscape (http://www.inkscape.org/) -->

<svg
   xmlns:dc="http://purl.org/dc/elements/1.1/"
   xmlns:cc="http://creativecommons.org/ns#"
   xmlns:rdf="http://www.w3.org/1999/02/22-rdf-syntax-ns#"
   xmlns:svg="http://www.w3.org/2000/svg"
   xmlns="http://www.w3.org/2000/svg"
   xmlns:sodipodi="http://sodipodi.sourceforge.net/DTD/sodipodi-0.dtd"
   xmlns:inkscape="http://www.inkscape.org/namespaces/inkscape"
   width="512"
   height="512"
   id="svg2"
   sodipodi:version="0.32"
   inkscape:version="0.48.3.1 r9886"
   sodipodi:docname="list-alt.svg"
   version="1.0"
   inkscape:output_extension="org.inkscape.output.svg.inkscape">
  <defs
     id="defs4" />
  <sodipodi:namedview
     id="base"
     pagecolor="#ffffff"
     bordercolor="#666666"
     borderopacity="1.0"
     inkscape:pageopacity="0.0"
     inkscape:pageshadow="2"
     inkscape:zoom="0.32"
     inkscape:cx="-481.97069"
     inkscape:cy="310.36565"
     inkscape:document-units="px"
     inkscape:current-layer="layer1"
     inkscape:window-width="1487"
     inkscape:window-height="1021"
     inkscape:window-x="0"
     inkscape:window-y="28"
     showgrid="false"
     inkscape:window-maximized="0"
     fit-margin-top="0"
     fit-margin-left="0"
     fit-margin-right="0"
     fit-margin-bottom="0" />
  <metadata
     id="metadata7">
    <rdf:RDF>
      <cc:Work
         rdf:about="">
        <dc:format>image/svg+xml</dc:format>
        <dc:type
           rdf:resource="http://purl.org/dc/dcmitype/StillImage" />
        <dc:title />
        <dc:creator>
          <cc:Agent>
            <dc:title />
          </cc:Agent>
        </dc:creator>
        <dc:subject>
          <rdf:Bag />
        </dc:subject>
        <cc:license
           rdf:resource="http://creativecommons.org/licenses/publicdomain/" />
        <dc:description />
        <dc:contributor>
          <cc:Agent>
            <dc:title />
          </cc:Agent>
        </dc:contributor>
      </cc:Work>
      <cc:License
         rdf:about="http://creativecommons.org/licenses/publicdomain/">
        <cc:permits
           rdf:resource="http://creativecommons.org/ns#Reproduction" />
        <cc:permits
           rdf:resource="http://creativecommons.org/ns#Distribution" />
        <cc:permits
           rdf:resource="http://creativecommons.org/ns#DerivativeWorks" />
      </cc:License>
    </rdf:RDF>
  </metadata>
  <g
     inkscape:label="Layer 1"
     inkscape:groupmode="layer"
     id="layer1"
     transform="translate(-374.21785,-62.236374)">
    <path
       inkscape:connector-curvature="0"
       d="m 778.46611,574.23637 -296.49654,0 c -18.20159,0 -32.94404,-14.70952 -32.94404,-32.87816 l 0,-396.92643 c 0,-18.15217 14.74246,-32.86169 32.94404,-32.86169 l 82.36013,0 0,34.24534 -65.8881,0 c -9.09256,0 -16.47203,7.34653 -16.47203,16.43909 l 0,362.6646 c 0,9.10903 7.37947,16.43909 16.47203,16.43909 l 263.55243,0 c 9.10908,0 16.47208,-7.33006 16.47208,-16.43909 l 0,-362.6646 c 0,-9.09256 -7.363,-16.43909 -16.47208,-16.43909 l -65.88813,0 0,-34.24534 82.36021,0 c 18.18513,0 32.94406,14.72599 32.94406,32.86169 l 0,396.92643 c 0,18.16864 -14.75892,32.87816 -32.94406,32.87816 z M 564.3297,244.43346 l 181.1923,0 0,16.43908 -181.1923,0 0,-16.43908 z m 0,49.31724 181.1923,0 0,16.43908 -181.1923,0 0,-16.43908 z m 0,49.33372 181.1923,0 0,16.43909 -181.1923,0 0,-16.43909 z m 0,49.31725 181.1923,0 0,16.43908 -181.1923,0 0,-16.43908 z m 181.1923,115.04063 -181.1923,0 0,-16.40613 181.1923,0 0,16.40613 z m -181.1923,-65.72338 181.1923,0 0,16.43908 -181.1923,0 0,-16.43908 z m -49.41607,-197.6149 16.47202,0 0,16.43908 -16.47202,0 0,-16.43908 z m 0,49.31724 16.47202,0 0,16.43909 -16.47202,0 0,-16.43909 z m 0,49.30078 16.47202,0 0,16.43908 -16.47202,0 0,-16.43908 z m 0,49.31724 16.47202,0 0,16.43909 -16.47202,0 0,-16.43909 z m 16.47202,115.09005 -16.47202,0 0,-16.43908 16.47202,0 0,16.43908 z m -16.47202,-65.75632 16.47202,0 0,16.43908 -16.47202,0 0,-16.43908 z m 214.13634,-278.1137 c 9.10903,0 16.47203,7.36299 16.47203,16.45555 0,9.07609 0,31.84043 0,31.84043 l -230.60837,0 c 0,0 0,-22.76434 0,-31.84043 0,-9.09256 7.36299,-16.45555 16.47202,-16.45555 l 49.41608,0 c 0,0 0.19767,-23.37381 0.19767,-50.09143 0,-27.738892 21.41363,-50.931506 49.21843,-50.931506 27.80477,0 49.95963,24.378602 49.95963,51.096226 0,28.77663 -0.54359,49.92671 -0.54359,49.92671 l 49.4161,0 z m -98.83214,-51.68922 c -9.10903,0 -16.47203,7.34653 -16.47203,16.42261 0,9.09256 7.363,16.43908 16.47203,16.43908 9.10899,0 16.47198,-7.34652 16.47198,-16.43908 0,-9.07608 -7.36299,-16.42261 -16.47198,-16.42261 z"
       id="path4" />
  </g>
</svg>
