<?xml version="1.0" encoding="UTF-8" standalone="no"?>
<!-- Created with Inkscape (http://www.inkscape.org/) -->

<svg
   xmlns:dc="http://purl.org/dc/elements/1.1/"
   xmlns:cc="http://creativecommons.org/ns#"
   xmlns:rdf="http://www.w3.org/1999/02/22-rdf-syntax-ns#"
   xmlns:svg="http://www.w3.org/2000/svg"
   xmlns="http://www.w3.org/2000/svg"
   xmlns:sodipodi="http://sodipodi.sourceforge.net/DTD/sodipodi-0.dtd"
   xmlns:inkscape="http://www.inkscape.org/namespaces/inkscape"
   width="987.97894"
   height="997.0191"
   id="svg2"
   sodipodi:version="0.32"
   inkscape:version="0.48.3.1 r9886"
   sodipodi:docname="flag-alt.svg"
   version="1.0"
   inkscape:output_extension="org.inkscape.output.svg.inkscape">
  <defs
     id="defs4" />
  <sodipodi:namedview
     id="base"
     pagecolor="#ffffff"
     bordercolor="#666666"
     borderopacity="1.0"
     inkscape:pageopacity="0.0"
     inkscape:pageshadow="2"
     inkscape:zoom="0.45254834"
     inkscape:cx="564.78072"
     inkscape:cy="153.99997"
     inkscape:document-units="px"
     inkscape:current-layer="layer1"
     inkscape:window-width="1487"
     inkscape:window-height="1021"
     inkscape:window-x="0"
     inkscape:window-y="28"
     showgrid="false"
     inkscape:window-maximized="0"
     fit-margin-top="0"
     fit-margin-left="0"
     fit-margin-right="0"
     fit-margin-bottom="0" />
  <metadata
     id="metadata7">
    <rdf:RDF>
      <cc:Work
         rdf:about="">
        <dc:format>image/svg+xml</dc:format>
        <dc:type
           rdf:resource="http://purl.org/dc/dcmitype/StillImage" />
        <dc:title></dc:title>
        <dc:creator>
          <cc:Agent>
            <dc:title />
          </cc:Agent>
        </dc:creator>
        <dc:subject>
          <rdf:Bag />
        </dc:subject>
        <cc:license
           rdf:resource="http://creativecommons.org/licenses/publicdomain/" />
        <dc:description />
        <dc:contributor>
          <cc:Agent>
            <dc:title />
          </cc:Agent>
        </dc:contributor>
      </cc:Work>
      <cc:License
         rdf:about="http://creativecommons.org/licenses/publicdomain/">
        <cc:permits
           rdf:resource="http://creativecommons.org/ns#Reproduction" />
        <cc:permits
           rdf:resource="http://creativecommons.org/ns#Distribution" />
        <cc:permits
           rdf:resource="http://creativecommons.org/ns#DerivativeWorks" />
      </cc:License>
    </rdf:RDF>
  </metadata>
  <g
     inkscape:label="Layer 1"
     inkscape:groupmode="layer"
     id="layer1"
     transform="translate(-374.21785,422.78273)">
    <g
       id="g5715"
       transform="matrix(1.0658747,0,0,-1.0658747,329.9406,394.42336)">
      <path
         id="path5717"
         d="m 854,410 h 1 c -0.66699,-1.33301 -1,-4 -1,-8 v -5 c -0.66699,-10 -1.66699,-20.167 -3,-30.5 -1.33301,-10.333 -3,-20.5 -5,-30.5 -2.66699,-13.333 -9.5,-32.333 -20.5,-57 -11,-24.667 -24.667,-52 -41,-82 C 768.167,167 750.667,136 732,104 713.333,72 695.333,42.3333 678,15 660.667,-12.3333 645.167,-35.8333 631.5,-55.5 617.833,-75.1667 608.333,-88 603,-94 c -8.66699,-8.667 -18,-17.167 -28,-25.5 -10,-8.333 -19.667,-15.833 -29,-22.5 -9.333,-6.667 -17.833,-12 -25.5,-16 -7.667,-4 -12.833,-6 -15.5,-6 -3.33301,0 -8.66699,2 -16,6 -7.33301,4 -15.833,9.5 -25.5,16.5 -9.667,7 -19.5,14.667 -29.5,23 -10,8.333 -19,16.5 -27,24.5 -5.33301,5.3333 -14.667,17.8333 -28,37.5 -13.333,19.6667 -28.667,43.1667 -46,70.5 -17.333,27.3333 -35.5,57 -54.5,89 -19,32 -36.5,63.167 -52.5,93.5 -16,30.333 -29.833,57.833 -41.5,82.5 -11.667,24.667 -18.5,43.667 -20.5,57 -2,10 -3.66701,20.167 -5,30.5 -1.33299,10.333 -2.33299,20.5 -3,30.5 v 5 c 0,1.33499 -0.16701,2.668 -0.5,4 -0.33299,1.33401 -0.5,2.66699 -0.5,4 v 1 c 0,48 9.16701,93.333 27.5,136 18.33299,42.667 43.167,79.834 74.5,111.5 31.333,31.667 68.333,56.834 111,75.5 42.667,18.667 88,28 136,28 h 1 1 c 48,0 93.333,-9.33301 136,-28 42.667,-18.66699 79.667,-43.833 111,-75.5 31.333,-31.667 56.167,-68.833 74.5,-111.5 18.333,-42.667 27.5,-88 27.5,-136 -0.66699,0 -1,-0.33301 -1,-1 z m -209,5 c 0,19.334 -3.66699,37.668 -11,55 -7.33301,17.333 -17.333,32.333 -30,45 -12.667,12.667 -27.667,22.667 -45,30 -17.335,7.33301 -35.669,11 -55,11 -19.333,0 -37.667,-3.66699 -55,-11 -17.333,-7.33301 -32.333,-17.333 -45,-30 -12.667,-12.667 -22.667,-27.667 -30,-45 -7.333,-17.333 -11,-35.667 -11,-55 0,-19.333 3.66699,-37.667 11,-55 7.33301,-17.333 17.333,-32.5 30,-45.5 12.667,-13 27.667,-23.167 45,-30.5 17.334,-7.33301 35.668,-11 55,-11 19.333,0 37.667,3.66699 55,11 17.333,7.33301 32.333,17.5 45,30.5 12.667,13 22.667,28.167 30,45.5 7.33301,17.334 11,35.667 11,55 z"
         inkscape:connector-curvature="0"
         style="fill:currentColor" />
    </g>
  </g>
</svg>
