<?xml version="1.0" encoding="UTF-8" standalone="no"?>
<!-- Created with Inkscape (http://www.inkscape.org/) -->

<svg
   xmlns:dc="http://purl.org/dc/elements/1.1/"
   xmlns:cc="http://creativecommons.org/ns#"
   xmlns:rdf="http://www.w3.org/1999/02/22-rdf-syntax-ns#"
   xmlns:svg="http://www.w3.org/2000/svg"
   xmlns="http://www.w3.org/2000/svg"
   xmlns:sodipodi="http://sodipodi.sourceforge.net/DTD/sodipodi-0.dtd"
   xmlns:inkscape="http://www.inkscape.org/namespaces/inkscape"
   width="987.97894"
   height="997.0191"
   id="svg2"
   sodipodi:version="0.32"
   inkscape:version="0.48.3.1 r9886"
   sodipodi:docname="location.svg"
   version="1.0"
   inkscape:output_extension="org.inkscape.output.svg.inkscape">
  <defs
     id="defs4" />
  <sodipodi:namedview
     id="base"
     pagecolor="#ffffff"
     bordercolor="#666666"
     borderopacity="1.0"
     inkscape:pageopacity="0.0"
     inkscape:pageshadow="2"
     inkscape:zoom="0.45254834"
     inkscape:cx="564.78072"
     inkscape:cy="153.99997"
     inkscape:document-units="px"
     inkscape:current-layer="layer1"
     inkscape:window-width="1487"
     inkscape:window-height="1021"
     inkscape:window-x="0"
     inkscape:window-y="28"
     showgrid="false"
     inkscape:window-maximized="0"
     fit-margin-top="0"
     fit-margin-left="0"
     fit-margin-right="0"
     fit-margin-bottom="0" />
  <metadata
     id="metadata7">
    <rdf:RDF>
      <cc:Work
         rdf:about="">
        <dc:format>image/svg+xml</dc:format>
        <dc:type
           rdf:resource="http://purl.org/dc/dcmitype/StillImage" />
        <dc:title></dc:title>
        <dc:creator>
          <cc:Agent>
            <dc:title />
          </cc:Agent>
        </dc:creator>
        <dc:subject>
          <rdf:Bag />
        </dc:subject>
        <cc:license
           rdf:resource="http://creativecommons.org/licenses/publicdomain/" />
        <dc:description />
        <dc:contributor>
          <cc:Agent>
            <dc:title />
          </cc:Agent>
        </dc:contributor>
      </cc:Work>
      <cc:License
         rdf:about="http://creativecommons.org/licenses/publicdomain/">
        <cc:permits
           rdf:resource="http://creativecommons.org/ns#Reproduction" />
        <cc:permits
           rdf:resource="http://creativecommons.org/ns#Distribution" />
        <cc:permits
           rdf:resource="http://creativecommons.org/ns#DerivativeWorks" />
      </cc:License>
    </rdf:RDF>
  </metadata>
  <g
     inkscape:label="Layer 1"
     inkscape:groupmode="layer"
     id="layer1"
     transform="translate(-374.21785,422.78273)">
    <g
       id="g5748"
       transform="matrix(0.987,0,0,-0.987,370.75932,371.82682)">
      <path
         id="path5750"
         d="m 503,464 c 27.333,0 50.5,-9.5 69.5,-28.5 19,-19 28.5,-42.167 28.5,-69.5 0,-27.333 -9.5,-50.5 -28.5,-69.5 -19,-19 -42.167,-28.5 -69.5,-28.5 -27.333,0 -50.5,9.5 -69.5,28.5 -19,19 -28.5,42.167 -28.5,69.5 0,27.333 9.5,50.5 28.5,69.5 19,19 42.167,28.5 69.5,28.5 z M 747,364 c 0,33.334 -6.33301,64.667 -19,94 -12.66699,29.333 -30,55 -52,77 -22,22 -47.667,39.5 -77,52.5 -29.334,13 -60.668,19.5 -94,19.5 h -1 -1 c -33.333,0 -64.667,-6.5 -94,-19.5 -29.333,-13 -55,-30.5 -77,-52.5 -22,-22 -39.333,-47.667 -52,-77 -12.667,-29.333 -19,-60.667 -19,-94 v -1 -6 c 0,-1.33301 0.33301,-2.33301 1,-3 0,-13.333 1.66699,-27.667 5,-43 1.33301,-9.33301 6,-22.667 14,-40 8,-17.333 17.667,-36.333 29,-57 11.333,-20.667 23.5,-42.167 36.5,-64.5 13,-22.333 25.5,-43 37.5,-62 12,-19 22.667,-35.3333 32,-49 9.33301,-13.6667 16,-22.5 20,-26.5 5.33301,-5.33333 11.5,-11 18.5,-17 7,-6 13.833,-11.3333 20.5,-16 6.667,-4.6667 12.667,-8.3333 18,-11 5.33301,-2.6667 9,-4 11,-4 2,0 5.5,1.3333 10.5,4 5,2.6667 10.833,6.1667 17.5,10.5 6.667,4.3333 13.5,9.5 20.5,15.5 7,6 13.5,12 19.5,18 4,4 10.667,12.8333 20,26.5 9.33301,13.6667 20,30.1667 32,49.5 12,19.333 24.5,40 37.5,62 13,22 25.167,43.5 36.5,64.5 11.333,21 20.833,40 28.5,57 7.667,17 12.5,30.167 14.5,39.5 1.33301,7.33301 2.33301,14.5 3,21.5 0.68903,7 1.35602,14.167 2,21.5 v 3 c 0,1.33301 0.16699,2.33301 0.5,3 0.33301,0.66699 0.5,1.66699 0.5,3 v 1 z M 504,800 c 68.667,0 133.5,-13.167 194.5,-39.5 61,-26.333 114,-62 159,-107 45,-45 80.667,-98 107,-159 26.333,-61 39.5,-125.833 39.5,-194.5 0,-46 -6,-90.333 -18,-133 -12,-42.667 -28.833,-82.5 -50.5,-119.5 -21.667,-37 -47.667,-70.6667 -78,-101 -30.333,-30.3333 -64,-56.333 -101,-78 -37,-21.667 -76.833,-38.5 -119.5,-50.5 -42.667,-12 -87,-18 -133,-18 -46,0 -90.333,6 -133,18 -42.667,12 -82.5,28.833 -119.5,50.5 -37,21.667 -70.667,47.6667 -101,78 -30.333,30.3333 -56.3333,64 -78,101 C 50.8333,84.5 34,124.333 22,167 10,209.667 4,254 4,300 c 0,46 6,90.333 18,133 12,42.667 28.8333,82.5 50.5,119.5 21.6667,37 47.667,70.667 78,101 30.333,30.333 64,56.333 101,78 37,21.667 76.833,38.5 119.5,50.5 42.667,12 87,18 133,18 z"
         inkscape:connector-curvature="0"
         style="fill:currentColor" />
    </g>
  </g>
</svg>
