<?xml version="1.0" encoding="UTF-8" standalone="no"?>
<!-- Created with Inkscape (http://www.inkscape.org/) -->

<svg
   xmlns:dc="http://purl.org/dc/elements/1.1/"
   xmlns:cc="http://creativecommons.org/ns#"
   xmlns:rdf="http://www.w3.org/1999/02/22-rdf-syntax-ns#"
   xmlns:svg="http://www.w3.org/2000/svg"
   xmlns="http://www.w3.org/2000/svg"
   xmlns:sodipodi="http://sodipodi.sourceforge.net/DTD/sodipodi-0.dtd"
   xmlns:inkscape="http://www.inkscape.org/namespaces/inkscape"
   width="512"
   height="512"
   id="svg2"
   sodipodi:version="0.32"
   inkscape:version="0.48.3.1 r9886"
   sodipodi:docname="lock.svg"
   version="1.0"
   inkscape:output_extension="org.inkscape.output.svg.inkscape">
  <defs
     id="defs4" />
  <sodipodi:namedview
     id="base"
     pagecolor="#ffffff"
     bordercolor="#666666"
     borderopacity="1.0"
     inkscape:pageopacity="0.0"
     inkscape:pageshadow="2"
     inkscape:zoom="0.45254834"
     inkscape:cx="-78.244514"
     inkscape:cy="352.87375"
     inkscape:document-units="px"
     inkscape:current-layer="layer1"
     inkscape:window-width="1487"
     inkscape:window-height="1021"
     inkscape:window-x="0"
     inkscape:window-y="28"
     showgrid="false"
     inkscape:window-maximized="0"
     fit-margin-top="0"
     fit-margin-left="0"
     fit-margin-right="0"
     fit-margin-bottom="0" />
  <metadata
     id="metadata7">
    <rdf:RDF>
      <cc:Work
         rdf:about="">
        <dc:format>image/svg+xml</dc:format>
        <dc:type
           rdf:resource="http://purl.org/dc/dcmitype/StillImage" />
        <dc:title />
        <dc:creator>
          <cc:Agent>
            <dc:title />
          </cc:Agent>
        </dc:creator>
        <dc:subject>
          <rdf:Bag />
        </dc:subject>
        <cc:license
           rdf:resource="http://creativecommons.org/licenses/publicdomain/" />
        <dc:description />
        <dc:contributor>
          <cc:Agent>
            <dc:title />
          </cc:Agent>
        </dc:contributor>
      </cc:Work>
      <cc:License
         rdf:about="http://creativecommons.org/licenses/publicdomain/">
        <cc:permits
           rdf:resource="http://creativecommons.org/ns#Reproduction" />
        <cc:permits
           rdf:resource="http://creativecommons.org/ns#Distribution" />
        <cc:permits
           rdf:resource="http://creativecommons.org/ns#DerivativeWorks" />
      </cc:License>
    </rdf:RDF>
  </metadata>
  <g
     inkscape:label="Layer 1"
     inkscape:groupmode="layer"
     id="layer1"
     transform="translate(-374.21785,-62.236374)">
    <g
       id="g4857"
       transform="matrix(1.0882029,0,0,-1.0882029,324.10587,407.08461)">
      <path
         id="path4859"
         d="m 218.01374,117.1807 120.86727,0 0,52.91185 0,0.51874 c -0.54192,16.73286 -6.60069,31.83904 -18.15603,42.53698 -12.64601,10.99396 -27.00727,17.00714 -42.53698,17.11854 -16.9647,-0.51855 -31.46605,-6.71947 -42.53698,-17.63728 -11.58653,-12.30001 -17.52561,-26.97002 -17.63728,-42.53698 z m 261.96554,0 c 9.6875,-0.67455 15.9704,-7.45637 16.08105,-16.08106 l 0,-238.62208 c -0.67454,-9.6875 -7.45637,-15.9704 -16.08105,-16.08105 l -397.357637,0 c -9.6875,0.67454 -15.9704,7.45637 -16.08105,16.08105 l 0,238.62208 c 0.67455,9.6875 7.45637,15.9704 16.08105,16.08106 16.42689,0 32.853767,0 49.280657,0 -0.59367,36.75256 -1.52213,79.13288 11.41236,109.97365 24.85258,54.89 78.14813,89.35142 134.87334,89.74265 60.4453,-0.94948 112.12504,-37.61587 134.87335,-89.74265 7.78115,-18.15603 11.9311,-36.8308 11.9311,-57.0618 0,-17.63729 0,-35.27457 0,-52.91185 18.32894,0 36.65789,0 54.98683,0 z"
         inkscape:connector-curvature="0"
         style="fill:currentColor"
         sodipodi:nodetypes="ccccccccccccccccccccccccc" />
    </g>
  </g>
</svg>
