<?xml version="1.0" encoding="UTF-8" standalone="no"?>
<!-- Created with Inkscape (http://www.inkscape.org/) -->

<svg
   xmlns:dc="http://purl.org/dc/elements/1.1/"
   xmlns:cc="http://creativecommons.org/ns#"
   xmlns:rdf="http://www.w3.org/1999/02/22-rdf-syntax-ns#"
   xmlns:svg="http://www.w3.org/2000/svg"
   xmlns="http://www.w3.org/2000/svg"
   xmlns:sodipodi="http://sodipodi.sourceforge.net/DTD/sodipodi-0.dtd"
   xmlns:inkscape="http://www.inkscape.org/namespaces/inkscape"
   width="987.97894"
   height="997.0191"
   id="svg2"
   sodipodi:version="0.32"
   inkscape:version="0.48.3.1 r9886"
   sodipodi:docname="folder.svg"
   version="1.0"
   inkscape:output_extension="org.inkscape.output.svg.inkscape">
  <defs
     id="defs4" />
  <sodipodi:namedview
     id="base"
     pagecolor="#ffffff"
     bordercolor="#666666"
     borderopacity="1.0"
     inkscape:pageopacity="0.0"
     inkscape:pageshadow="2"
     inkscape:zoom="0.64"
     inkscape:cx="161.21538"
     inkscape:cy="300.62411"
     inkscape:document-units="px"
     inkscape:current-layer="layer1"
     inkscape:window-width="1920"
     inkscape:window-height="1025"
     inkscape:window-x="0"
     inkscape:window-y="27"
     showgrid="false"
     inkscape:window-maximized="1"
     fit-margin-top="0"
     fit-margin-left="0"
     fit-margin-right="0"
     fit-margin-bottom="0" />
  <metadata
     id="metadata7">
    <rdf:RDF>
      <cc:Work
         rdf:about="">
        <dc:format>image/svg+xml</dc:format>
        <dc:type
           rdf:resource="http://purl.org/dc/dcmitype/StillImage" />
        <dc:title></dc:title>
        <dc:creator>
          <cc:Agent>
            <dc:title />
          </cc:Agent>
        </dc:creator>
        <dc:subject>
          <rdf:Bag />
        </dc:subject>
        <cc:license
           rdf:resource="http://creativecommons.org/licenses/publicdomain/" />
        <dc:description />
        <dc:contributor>
          <cc:Agent>
            <dc:title />
          </cc:Agent>
        </dc:contributor>
      </cc:Work>
      <cc:License
         rdf:about="http://creativecommons.org/licenses/publicdomain/">
        <cc:permits
           rdf:resource="http://creativecommons.org/ns#Reproduction" />
        <cc:permits
           rdf:resource="http://creativecommons.org/ns#Distribution" />
        <cc:permits
           rdf:resource="http://creativecommons.org/ns#DerivativeWorks" />
      </cc:License>
    </rdf:RDF>
  </metadata>
  <g
     inkscape:label="Layer 1"
     inkscape:groupmode="layer"
     id="layer1"
     transform="translate(-374.21785,422.78273)">
    <g
       id="g3527"
       transform="matrix(0.987,0,0,-0.987,374.70732,371.82682)">
      <path
         id="path3529"
         d="m 500,-200 c -46,0 -90.333,6 -133,18 -42.667,12 -82.5,28.833 -119.5,50.5 -37,21.667 -70.667,47.6667 -101,78 -30.333,30.3333 -56.3333,64 -78,101 C 46.8333,84.5 30,124.333 18,167 6,209.667 0,254 0,300 c 0,46 6,90.333 18,133 12,42.667 28.8333,82.5 50.5,119.5 21.6667,37 47.667,70.667 78,101 30.333,30.333 64,56.333 101,78 37,21.667 76.833,38.5 119.5,50.5 42.667,12 87,18 133,18 68.667,0 133.5,-13.167 194.5,-39.5 61,-26.333 114,-62 159,-107 45,-45 80.667,-98 107,-159 26.333,-61 39.5,-125.833 39.5,-194.5 0,-46 -6,-90.333 -18,-133 -12,-42.667 -28.833,-82.5 -50.5,-119.5 -21.667,-37 -47.667,-70.6667 -78,-101 -30.333,-30.3333 -64,-56.333 -101,-78 -37,-21.667 -76.833,-38.5 -119.5,-50.5 -42.667,-12 -87,-18 -133,-18 z M 741,506 H 267 c -4.66699,0 -8.66699,-1.5 -12,-4.5 -3.33299,-3 -5,-7.16699 -5,-12.5 v -53 c 0,-2.66699 1,-4 3,-4 l 249,-142 2,-1 c 1.33301,0 2.33301,0.33301 3,1 l 241,142 c 1.33301,0.66699 2.33301,1 3,1 0.66699,0 1.66699,0.33301 3,1 2.66699,0 4,1.33301 4,4 v 51 c 0,5.33301 -1.66699,9.5 -5,12.5 -3.33301,3 -7.33301,4.5 -12,4.5 z M 401,293 c 0.66699,0.66699 1,1.66699 1,3 0,2 -0.66699,3 -2,3 l -143,82 c -2,0.66699 -3.66701,0.66699 -5,0 -1.33299,0 -2,-1 -2,-3 V 163 c 0,-2 1,-3.33299 3,-4 h 2 c 1.33301,0 2,0.33299 2,1 z m 174,-16 c -0.66699,2 -2.33301,2.33301 -5,1 l -55,-32 c -6.66699,-4 -13.667,-4 -21,0 l -48,27 c -2,1.33301 -3.66699,1.33301 -5,0 L 258,103 c -0.66699,-0.667 -1,-2 -1,-4 0,-0.666702 0.66699,-1.6667 2,-3 4,-1.3333 6.66699,-2 8,-2 h 469 c 1.33301,0 2.66699,0.666702 4,2 0,2.6667 -0.33301,4.333 -1,5 z m 180,108 h -4 L 615,304 c -1.33301,0 -2,-1 -2,-3 -0.66699,-0.66699 -0.33301,-1.66699 1,-3 L 750,151 c 1.33301,-1.33299 2.33301,-2 3,-2 h 2 c 2,2 3,3.33299 3,4 v 228 c 0,1.33899 -1,2.673 -3,4 z"
         inkscape:connector-curvature="0"
         style="fill:currentColor" />
    </g>
  </g>
</svg>
