<?xml version="1.0" encoding="UTF-8" standalone="no"?>
<!-- Created with Inkscape (http://www.inkscape.org/) -->

<svg
   xmlns:dc="http://purl.org/dc/elements/1.1/"
   xmlns:cc="http://creativecommons.org/ns#"
   xmlns:rdf="http://www.w3.org/1999/02/22-rdf-syntax-ns#"
   xmlns:svg="http://www.w3.org/2000/svg"
   xmlns="http://www.w3.org/2000/svg"
   xmlns:sodipodi="http://sodipodi.sourceforge.net/DTD/sodipodi-0.dtd"
   xmlns:inkscape="http://www.inkscape.org/namespaces/inkscape"
   width="987.97894"
   height="997.0191"
   id="svg2"
   sodipodi:version="0.32"
   inkscape:version="0.48.3.1 r9886"
   sodipodi:docname="remove-alt.svg"
   version="1.0"
   inkscape:output_extension="org.inkscape.output.svg.inkscape">
  <defs
     id="defs4" />
  <sodipodi:namedview
     id="base"
     pagecolor="#ffffff"
     bordercolor="#666666"
     borderopacity="1.0"
     inkscape:pageopacity="0.0"
     inkscape:pageshadow="2"
     inkscape:zoom="0.64"
     inkscape:cx="161.21538"
     inkscape:cy="300.62411"
     inkscape:document-units="px"
     inkscape:current-layer="layer1"
     inkscape:window-width="1920"
     inkscape:window-height="1025"
     inkscape:window-x="0"
     inkscape:window-y="27"
     showgrid="false"
     inkscape:window-maximized="1"
     fit-margin-top="0"
     fit-margin-left="0"
     fit-margin-right="0"
     fit-margin-bottom="0" />
  <metadata
     id="metadata7">
    <rdf:RDF>
      <cc:Work
         rdf:about="">
        <dc:format>image/svg+xml</dc:format>
        <dc:type
           rdf:resource="http://purl.org/dc/dcmitype/StillImage" />
        <dc:title></dc:title>
        <dc:creator>
          <cc:Agent>
            <dc:title />
          </cc:Agent>
        </dc:creator>
        <dc:subject>
          <rdf:Bag />
        </dc:subject>
        <cc:license
           rdf:resource="http://creativecommons.org/licenses/publicdomain/" />
        <dc:description />
        <dc:contributor>
          <cc:Agent>
            <dc:title />
          </cc:Agent>
        </dc:contributor>
      </cc:Work>
      <cc:License
         rdf:about="http://creativecommons.org/licenses/publicdomain/">
        <cc:permits
           rdf:resource="http://creativecommons.org/ns#Reproduction" />
        <cc:permits
           rdf:resource="http://creativecommons.org/ns#Distribution" />
        <cc:permits
           rdf:resource="http://creativecommons.org/ns#DerivativeWorks" />
      </cc:License>
    </rdf:RDF>
  </metadata>
  <g
     inkscape:label="Layer 1"
     inkscape:groupmode="layer"
     id="layer1"
     transform="translate(-374.21785,422.78273)">
    <g
       id="g3494"
       transform="matrix(1.0477707,0,0,-1.0477707,340.13089,390.05803)">
      <path
         id="path3496"
         d="m 46,40 c -0.666698,-1.3333 -2.3333,-2 -5,-2 h -3 c -3.3333,2 -5,4.3333 -5,7 v 399 c 0,3.34 1.3333,5.67401 4,7 2.6667,0.66699 5.3334,0.66699 8,0 L 311,299 c 2.66699,-1.33301 4,-3.33301 4,-6 0,-3.33301 -1,-5.33301 -3,-6 z M 940,-70 c 2,-2.6665 2.66699,-5.3332 2,-8 -2,-3.3333 -4.66699,-5 -8,-5 H 64 c -4.6667,0 -9.6667,1.6667 -15,5 -2.6667,1.3333 -4,3.3333 -4,6 0,2.6667 1,4.6667 3,6 l 339,315 c 2.66699,2.66701 5.66699,3 9,1 l 90,-51 c 12.667,-7.33299 25.667,-7.33299 39,0 l 102,60 c 4,2.66699 7,2.33301 9,-1 z m 31,527 c 2.66699,-1.33301 4,-3.66699 4,-7 V 28 c 0,-3.3333 -1.66699,-5.6667 -5,-7 -0.66699,-0.6667 -1.66699,-1 -3,-1 -2,0 -4,1 -6,3 L 708,296 c -2,2 -2.66699,4 -2,6 0,2.66699 1,4.66699 3,6 l 254,149 c 2,2 4.66699,2 8,0 z m -28,226 c 9.33301,0 17,-3 23,-9 6,-6 9,-13.333 9,-22 v -96 c 0,-4.66699 -2.33301,-7 -7,-7 -4,-0.66699 -7.66699,-2.33301 -11,-5 L 509,281 c -0.66699,-0.66699 -2,-1 -4,-1 -2,0 -3.33301,0.33301 -4,1 L 39,544 c -4,2.67102 -6,5.33801 -6,8 v 100 c 0,8.66699 3,16 9,22 6,6 13.3333,9 22,9 h 879 v 0 z"
         inkscape:connector-curvature="0"
         style="fill:currentColor" />
    </g>
  </g>
</svg>
