<?xml version="1.0" encoding="UTF-8" standalone="no"?>
<!-- Created with Inkscape (http://www.inkscape.org/) -->

<svg
   xmlns:dc="http://purl.org/dc/elements/1.1/"
   xmlns:cc="http://creativecommons.org/ns#"
   xmlns:rdf="http://www.w3.org/1999/02/22-rdf-syntax-ns#"
   xmlns:svg="http://www.w3.org/2000/svg"
   xmlns="http://www.w3.org/2000/svg"
   xmlns:sodipodi="http://sodipodi.sourceforge.net/DTD/sodipodi-0.dtd"
   xmlns:inkscape="http://www.inkscape.org/namespaces/inkscape"
   width="987.97894"
   height="997.0191"
   id="svg2"
   sodipodi:version="0.32"
   inkscape:version="0.48.3.1 r9886"
   sodipodi:docname="hearing-impaired.svg"
   version="1.0"
   inkscape:output_extension="org.inkscape.output.svg.inkscape">
  <defs
     id="defs4" />
  <sodipodi:namedview
     id="base"
     pagecolor="#ffffff"
     bordercolor="#666666"
     borderopacity="1.0"
     inkscape:pageopacity="0.0"
     inkscape:pageshadow="2"
     inkscape:zoom="0.45254834"
     inkscape:cx="122.83898"
     inkscape:cy="330.77667"
     inkscape:document-units="px"
     inkscape:current-layer="layer1"
     inkscape:window-width="1487"
     inkscape:window-height="1021"
     inkscape:window-x="0"
     inkscape:window-y="28"
     showgrid="false"
     inkscape:window-maximized="0"
     fit-margin-top="0"
     fit-margin-left="0"
     fit-margin-right="0"
     fit-margin-bottom="0" />
  <metadata
     id="metadata7">
    <rdf:RDF>
      <cc:Work
         rdf:about="">
        <dc:format>image/svg+xml</dc:format>
        <dc:type
           rdf:resource="http://purl.org/dc/dcmitype/StillImage" />
        <dc:title></dc:title>
        <dc:creator>
          <cc:Agent>
            <dc:title />
          </cc:Agent>
        </dc:creator>
        <dc:subject>
          <rdf:Bag />
        </dc:subject>
        <cc:license
           rdf:resource="http://creativecommons.org/licenses/publicdomain/" />
        <dc:description />
        <dc:contributor>
          <cc:Agent>
            <dc:title />
          </cc:Agent>
        </dc:contributor>
      </cc:Work>
      <cc:License
         rdf:about="http://creativecommons.org/licenses/publicdomain/">
        <cc:permits
           rdf:resource="http://creativecommons.org/ns#Reproduction" />
        <cc:permits
           rdf:resource="http://creativecommons.org/ns#Distribution" />
        <cc:permits
           rdf:resource="http://creativecommons.org/ns#DerivativeWorks" />
      </cc:License>
    </rdf:RDF>
  </metadata>
  <g
     inkscape:label="Layer 1"
     inkscape:groupmode="layer"
     id="layer1"
     transform="translate(-374.21785,422.78273)">
    <g
       id="g8012"
       transform="matrix(1.3055556,0,0,-1.3055556,237.62397,472.61572)">
      <path
         id="path8014"
         d="m 379,35 c 22.667,0 43.833,4.3333 63.5,13 19.667,8.6667 36.833,20.3333 51.5,35 14.667,14.6667 26.167,31.833 34.5,51.5 8.33301,19.667 12.5,40.833 12.5,63.5 0,22 -4.16699,42.833 -12.5,62.5 -8.33301,19.667 -19.833,36.833 -34.5,51.5 -14.668,14.667 -31.834,26.333 -51.5,35 -19.667,8.66699 -40.834,13 -63.5,13 -22,0 -42.833,-4.33301 -62.5,-13 -19.667,-8.668 -36.833,-20.335 -51.5,-35 -14.667,-14.667 -26.333,-31.834 -35,-51.5 -8.66701,-19.667 -13,-40.5 -13,-62.5 0,-22.667 4.33299,-43.833 13,-63.5 C 238.66701,114.833 250.334,97.6666 265,83 279.667,68.3333 296.833,56.6667 316.5,48 336.167,39.3333 357,35 379,35 z m 479,517 -1,1 V 414 c 0,-14 -5,-26 -15,-36 -10,-10 -22.333,-15 -37,-15 -14,0 -26.667,5 -38,15 -10,10 -15,22 -15,36 v 87 L 603,352 c 15.333,-22 27.167,-46 35.5,-72 8.333,-26 12.5,-53.333 12.5,-82 0,-37.333 -7.16699,-72.5 -21.5,-105.5 C 615.16699,59.5 595.667,30.6667 571,6 546.333,-18.6667 517.5,-38.1667 484.5,-52.5 451.5,-66.8333 416.333,-74 379,-74 c -37.333,0 -72.5,7.1667 -105.5,21.5 -33,14.3333 -61.833,33.8333 -86.5,58.5 -24.667,24.6667 -44,53.5 -58,86.5 -14,33 -21,68.167 -21,105.5 0,37.333 7,72.5 21,105.5 14,33 33.333,61.667 58,86 24.667,24.334 53.5,43.667 86.5,58 33,14.333 68.167,21.5 105.5,21.5 28,0 54.333,-3.83301 79,-11.5 24.667,-7.66699 47.667,-18.5 69,-32.5 l -1,1 152,151 h -88 c -14.667,0 -26.667,5.33301 -36,16 -5.34198,4.66699 -9.17499,10.167 -11.5,16.5 -2.33301,6.33301 -3.5,13.167 -3.5,20.5 0,14.667 5,27 15,37 8.66699,10 20.667,15 36,15 h 128 33 107 V 552 z"
         inkscape:connector-curvature="0"
         style="fill:currentColor" />
    </g>
  </g>
</svg>
