<?xml version="1.0" encoding="UTF-8" standalone="no"?>
<!-- Created with Inkscape (http://www.inkscape.org/) -->

<svg
   xmlns:dc="http://purl.org/dc/elements/1.1/"
   xmlns:cc="http://creativecommons.org/ns#"
   xmlns:rdf="http://www.w3.org/1999/02/22-rdf-syntax-ns#"
   xmlns:svg="http://www.w3.org/2000/svg"
   xmlns="http://www.w3.org/2000/svg"
   xmlns:sodipodi="http://sodipodi.sourceforge.net/DTD/sodipodi-0.dtd"
   xmlns:inkscape="http://www.inkscape.org/namespaces/inkscape"
   width="512"
   height="512"
   id="svg2"
   sodipodi:version="0.32"
   inkscape:version="0.48.3.1 r9886"
   sodipodi:docname="mic-alt.svg"
   version="1.0"
   inkscape:output_extension="org.inkscape.output.svg.inkscape">
  <defs
     id="defs4" />
  <sodipodi:namedview
     id="base"
     pagecolor="#ffffff"
     bordercolor="#666666"
     borderopacity="1.0"
     inkscape:pageopacity="0.0"
     inkscape:pageshadow="2"
     inkscape:zoom="0.45254834"
     inkscape:cx="-250.42477"
     inkscape:cy="74.672585"
     inkscape:document-units="px"
     inkscape:current-layer="layer1"
     inkscape:window-width="1487"
     inkscape:window-height="1021"
     inkscape:window-x="0"
     inkscape:window-y="28"
     showgrid="false"
     inkscape:window-maximized="0"
     fit-margin-top="0"
     fit-margin-left="0"
     fit-margin-right="0"
     fit-margin-bottom="0" />
  <metadata
     id="metadata7">
    <rdf:RDF>
      <cc:Work
         rdf:about="">
        <dc:format>image/svg+xml</dc:format>
        <dc:type
           rdf:resource="http://purl.org/dc/dcmitype/StillImage" />
        <dc:title />
        <dc:creator>
          <cc:Agent>
            <dc:title />
          </cc:Agent>
        </dc:creator>
        <dc:subject>
          <rdf:Bag />
        </dc:subject>
        <cc:license
           rdf:resource="http://creativecommons.org/licenses/publicdomain/" />
        <dc:description />
        <dc:contributor>
          <cc:Agent>
            <dc:title />
          </cc:Agent>
        </dc:contributor>
      </cc:Work>
      <cc:License
         rdf:about="http://creativecommons.org/licenses/publicdomain/">
        <cc:permits
           rdf:resource="http://creativecommons.org/ns#Reproduction" />
        <cc:permits
           rdf:resource="http://creativecommons.org/ns#Distribution" />
        <cc:permits
           rdf:resource="http://creativecommons.org/ns#DerivativeWorks" />
      </cc:License>
    </rdf:RDF>
  </metadata>
  <g
     inkscape:label="Layer 1"
     inkscape:groupmode="layer"
     id="layer1"
     transform="translate(-374.21785,-62.236374)">
    <path
       style="fill:#000000;fill-opacity:1;stroke:none"
       d="M 256 0 C 114.6151 0 0 114.6151 0 256 C 0 397.3849 114.6151 512 256 512 C 397.3849 512 512 397.3849 512 256 C 512 114.6151 397.3849 -7.5791225e-14 256 0 z M 238.9375 98.6875 C 241.9427 98.694004 244.80666 99.243503 247.03125 100.59375 C 248.22575 101.78825 248.84375 105.13225 248.84375 110.59375 L 248.84375 139.25 C 249.60323 143.27026 251.58054 146.08096 256 146.4375 C 259.6694 146.38434 262.39646 143.13874 263.15625 139.25 L 263.15625 110.59375 C 263.15625 105.81525 263.69475 102.661 264.71875 101.125 C 268.08614 96.28409 282.72047 100.13636 287.5 102.90625 C 288.6945 103.93025 289.28125 106.49775 289.28125 110.59375 L 289.28125 139.25 C 290.04073 143.27026 292.01804 146.08096 296.4375 146.4375 C 300.1069 146.38434 302.86521 143.13874 303.625 139.25 L 303.625 116.21875 C 303.625 111.78125 304.6395 109.5625 306.6875 109.5625 C 314.23719 109.61101 323.42973 117.32953 326.65625 124.40625 L 326.65625 294.90625 C 326.65625 296.27124 325.452 298.41099 323.0625 301.3125 C 308.75232 318.29257 278.40715 320.10164 257.53125 321.03125 C 235.57195 320.95914 207.76292 317.44905 189.4375 301.3125 C 186.707 298.41099 185.34375 296.27176 185.34375 294.90625 L 185.34375 124.40625 C 185.5995 118.02524 198.71826 109.88966 204.8125 109.0625 C 207.202 108.721 208.375 110.75 208.375 115.1875 L 208.375 139.25 C 209.13448 143.27026 211.14304 146.08096 215.5625 146.4375 C 219.2319 146.38434 221.95896 143.13874 222.71875 139.25 L 222.71875 110.59375 C 222.71875 105.81525 223.49525 103.00975 225.03125 102.15625 C 228.54111 100.21597 233.92883 98.676661 238.9375 98.6875 z M 160.78125 230.40625 C 166.04222 230.48182 171.09288 234.79367 171.53125 240.625 L 171.53125 308.21875 C 178.85249 322.15186 205.76275 328.99872 219.65625 332.8125 C 244.87816 338.35503 269.89227 337.1526 295.9375 332.8125 C 311.2597 329.19226 330.76665 323.4982 340.46875 308.75 L 340.46875 240.625 C 340.55134 235.32479 345.4947 230.77522 351.21875 230.40625 C 356.40434 230.48083 361.1205 234.89042 361.46875 240.625 L 361.46875 309.25 C 361.46875 313.0045 360.0265 317.17325 357.125 321.78125 C 348.84815 334.63747 333.89616 341.90337 319.5 347.90625 C 309.9425 351.49025 298.4995 354.13725 285.1875 355.84375 L 285.1875 391.6875 L 315.90625 391.6875 C 319.31975 391.6875 321.03125 393.39915 321.03125 396.8125 L 321.03125 408.0625 C 321.03125 411.47584 319.31975 413.1875 315.90625 413.1875 L 196.09375 413.1875 C 192.68025 413.1875 190.96875 411.47584 190.96875 408.0625 L 190.96875 396.8125 C 190.96875 393.39915 192.68025 391.6875 196.09375 391.6875 L 226.8125 391.6875 L 226.8125 354.8125 C 214.183 353.106 203.08875 350.459 193.53125 346.875 C 180.15694 341.80411 165.41585 334.04906 155.40625 321.53125 C 152.16375 317.09375 150.53125 313.00449 150.53125 309.25 L 150.53125 240.625 C 150.60583 235.43941 155.04667 230.7545 160.78125 230.40625 z "
       transform="translate(374.21785,62.236374)"
       id="path3019" />
  </g>
</svg>
