<?xml version="1.0" encoding="UTF-8" standalone="no"?>
<!-- Created with Inkscape (http://www.inkscape.org/) -->

<svg
   xmlns:dc="http://purl.org/dc/elements/1.1/"
   xmlns:cc="http://creativecommons.org/ns#"
   xmlns:rdf="http://www.w3.org/1999/02/22-rdf-syntax-ns#"
   xmlns:svg="http://www.w3.org/2000/svg"
   xmlns="http://www.w3.org/2000/svg"
   xmlns:sodipodi="http://sodipodi.sourceforge.net/DTD/sodipodi-0.dtd"
   xmlns:inkscape="http://www.inkscape.org/namespaces/inkscape"
   width="987.97894"
   height="997.0191"
   id="svg2"
   sodipodi:version="0.32"
   inkscape:version="0.48.3.1 r9886"
   sodipodi:docname="mic.svg"
   version="1.0"
   inkscape:output_extension="org.inkscape.output.svg.inkscape">
  <defs
     id="defs4" />
  <sodipodi:namedview
     id="base"
     pagecolor="#ffffff"
     bordercolor="#666666"
     borderopacity="1.0"
     inkscape:pageopacity="0.0"
     inkscape:pageshadow="2"
     inkscape:zoom="0.45254834"
     inkscape:cx="211.22733"
     inkscape:cy="242.38832"
     inkscape:document-units="px"
     inkscape:current-layer="layer1"
     inkscape:window-width="1487"
     inkscape:window-height="1021"
     inkscape:window-x="0"
     inkscape:window-y="28"
     showgrid="false"
     inkscape:window-maximized="0"
     fit-margin-top="0"
     fit-margin-left="0"
     fit-margin-right="0"
     fit-margin-bottom="0" />
  <metadata
     id="metadata7">
    <rdf:RDF>
      <cc:Work
         rdf:about="">
        <dc:format>image/svg+xml</dc:format>
        <dc:type
           rdf:resource="http://purl.org/dc/dcmitype/StillImage" />
        <dc:title></dc:title>
        <dc:creator>
          <cc:Agent>
            <dc:title />
          </cc:Agent>
        </dc:creator>
        <dc:subject>
          <rdf:Bag />
        </dc:subject>
        <cc:license
           rdf:resource="http://creativecommons.org/licenses/publicdomain/" />
        <dc:description />
        <dc:contributor>
          <cc:Agent>
            <dc:title />
          </cc:Agent>
        </dc:contributor>
      </cc:Work>
      <cc:License
         rdf:about="http://creativecommons.org/licenses/publicdomain/">
        <cc:permits
           rdf:resource="http://creativecommons.org/ns#Reproduction" />
        <cc:permits
           rdf:resource="http://creativecommons.org/ns#Distribution" />
        <cc:permits
           rdf:resource="http://creativecommons.org/ns#DerivativeWorks" />
      </cc:License>
    </rdf:RDF>
  </metadata>
  <g
     inkscape:label="Layer 1"
     inkscape:groupmode="layer"
     id="layer1"
     transform="translate(-374.21785,422.78273)">
    <g
       id="g5418"
       transform="matrix(0.987,0,0,-0.987,374.70732,371.82682)">
      <path
         id="path5420"
         d="m 706,330 c 0,5.33301 -2,10 -6,14 -4,4 -8.66699,6 -14,6 -5.34399,0 -10.177,-2 -14.5,-6 -4.33301,-4 -6.5,-8.66699 -6.5,-14 V 197 c -1.33301,-2.66701 -4.83301,-7 -10.5,-13 -5.66699,-6 -14.833,-12 -27.5,-18 -12.667,-6 -29,-11.333 -49,-16 -20,-4.667 -44.667,-7 -74,-7 -29.333,0 -54.333,2.33299 -75,7 -20.667,4.66701 -37.834,10.167 -51.5,16.5 -13.668,6.33299 -23.835,12.5 -30.5,18.5 -6.66699,6 -10.667,10.333 -12,13 v 132 c 0,5.33301 -2.16699,10 -6.5,14 -4.33301,4 -9.16699,6 -14.5,6 -5.33301,0 -10,-2 -14,-6 -4,-4 -6,-8.66699 -6,-14 V 196 c 0,-7.33299 3.16699,-15.333 9.5,-24 6.33499,-8.66701 15.668,-17.333 28,-26 12.333,-8.66701 27.833,-16.5 46.5,-23.5 18.667,-7 40.333,-12.167 65,-15.5 V 35 h -60 c -6.66699,0 -10,-3.3333 -10,-10 V 3 c 0,-6.66667 3.33301,-10 10,-10 h 234 c 6.66699,0 10,3.33333 10,10 v 22 c 0,6.6667 -3.33301,10 -10,10 h -60 v 70 c 26,3.333 48.333,8.5 67,15.5 18.667,7 34.167,15 46.5,24 12.333,9 21.333,18 27,27 5.667,9 8.5,17.167 8.5,24.5 V 330 z M 362,224 c 0,-2.66701 2.66699,-6.83299 8,-12.5 5.33499,-5.66701 13.668,-11.333 25,-17 11.333,-5.66701 25.833,-10.667 43.5,-15 17.667,-4.333 39.167,-6.5 64.5,-6.5 25.333,0 46.667,2.16701 64,6.5 17.333,4.33299 31.167,9.33299 41.5,15 10.333,5.66701 17.833,11.334 22.5,17 4.66699,5.66701 7,9.834 7,12.5 v 94 85 154 c 0,2 -2.33301,5.66699 -7,11 -4.66699,5.33301 -12.333,10.667 -23,16 -2,1.33301 -5,2 -9,2 -4,0 -6,-4.33301 -6,-13 v -45 c 0,-1.33301 -1,-4 -3,-8 -2,-4 -5.66699,-6 -11,-6 -5.33301,0 -9,2 -11,6 -2,4 -3,6.66699 -3,8 v 56 c 0,8 -1.16699,13 -3.5,15 -2.34998,2 -4.18402,3 -5.5,3 -4.66699,1.33301 -9.5,2.33301 -14.5,3 -5,0.66699 -10.167,1 -15.5,1 -4,0.66699 -7,-0.5 -9,-3.5 -2,-3 -3,-9.16699 -3,-18.5 v -56 c 0,-1.33301 -1,-4 -3,-8 -2,-4 -5.66699,-6 -11,-6 -5.33301,0 -9,2 -11,6 -2,4 -3,6.66699 -3,8 v 56 c 0,10.667 -1.16699,17.167 -3.5,19.5 -2.33301,2.333 -5.16699,3.5 -8.5,3.5 -5.33301,0 -10.167,-0.33301 -14.5,-1 -4.333,-0.66699 -8.5,-1.33301 -12.5,-2 -2,-0.66699 -4.5,-1.83301 -7.5,-3.5 -3,-1.66699 -4.5,-7.16699 -4.5,-16.5 v -56 c 0,-1.33301 -1,-4 -3,-8 -2,-4 -5.66699,-6 -11,-6 -5.33301,0 -9,2 -11,6 -2,4 -3,6.66699 -3,8 v 47 c 0,8.66699 -2.33301,12.667 -7,12 -4.67001,-0.66699 -8.336,-1.66699 -11,-3 -9.33301,-5.33398 -16.167,-10.667 -20.5,-16 -4.333,-5.333 -6.5,-9 -6.5,-11 V 403 318 224 z m 138,576 c 68.667,0 133.5,-13.167 194.5,-39.5 61,-26.333 114,-62 159,-107 45,-45 80.667,-98 107,-159 26.333,-61 39.5,-125.833 39.5,-194.5 0,-46 -6,-90.333 -18,-133 -12,-42.667 -28.833,-82.5 -50.5,-119.5 -21.667,-37 -47.667,-70.6667 -78,-101 -30.333,-30.3333 -64,-56.333 -101,-78 -37,-21.667 -76.833,-38.5 -119.5,-50.5 -42.667,-12 -87,-18 -133,-18 -46,0 -90.333,6 -133,18 -42.667,12 -82.5,28.833 -119.5,50.5 -37,21.667 -70.667,47.6667 -101,78 -30.333,30.3333 -56.3333,64 -78,101 C 46.8333,84.5 30,124.333 18,167 6,209.667 0,254 0,300 c 0,46 6,90.333 18,133 12,42.667 28.8333,82.5 50.5,119.5 21.6667,37 47.667,70.667 78,101 30.333,30.333 64,56.333 101,78 37,21.667 76.833,38.5 119.5,50.5 42.667,12 87,18 133,18 z"
         inkscape:connector-curvature="0"
         style="fill:currentColor" />
    </g>
  </g>
</svg>
