<?xml version="1.0" encoding="UTF-8" standalone="no"?>
<!-- Created with Inkscape (http://www.inkscape.org/) -->

<svg
   xmlns:dc="http://purl.org/dc/elements/1.1/"
   xmlns:cc="http://creativecommons.org/ns#"
   xmlns:rdf="http://www.w3.org/1999/02/22-rdf-syntax-ns#"
   xmlns:svg="http://www.w3.org/2000/svg"
   xmlns="http://www.w3.org/2000/svg"
   xmlns:sodipodi="http://sodipodi.sourceforge.net/DTD/sodipodi-0.dtd"
   xmlns:inkscape="http://www.inkscape.org/namespaces/inkscape"
   width="987.97894"
   height="997.0191"
   id="svg2"
   sodipodi:version="0.32"
   inkscape:version="0.48.3.1 r9886"
   sodipodi:docname="idea-alt.svg"
   version="1.0"
   inkscape:output_extension="org.inkscape.output.svg.inkscape">
  <defs
     id="defs4" />
  <sodipodi:namedview
     id="base"
     pagecolor="#ffffff"
     bordercolor="#666666"
     borderopacity="1.0"
     inkscape:pageopacity="0.0"
     inkscape:pageshadow="2"
     inkscape:zoom="0.45254834"
     inkscape:cx="211.22733"
     inkscape:cy="242.38832"
     inkscape:document-units="px"
     inkscape:current-layer="layer1"
     inkscape:window-width="1487"
     inkscape:window-height="1021"
     inkscape:window-x="0"
     inkscape:window-y="28"
     showgrid="false"
     inkscape:window-maximized="0"
     fit-margin-top="0"
     fit-margin-left="0"
     fit-margin-right="0"
     fit-margin-bottom="0" />
  <metadata
     id="metadata7">
    <rdf:RDF>
      <cc:Work
         rdf:about="">
        <dc:format>image/svg+xml</dc:format>
        <dc:type
           rdf:resource="http://purl.org/dc/dcmitype/StillImage" />
        <dc:title></dc:title>
        <dc:creator>
          <cc:Agent>
            <dc:title />
          </cc:Agent>
        </dc:creator>
        <dc:subject>
          <rdf:Bag />
        </dc:subject>
        <cc:license
           rdf:resource="http://creativecommons.org/licenses/publicdomain/" />
        <dc:description />
        <dc:contributor>
          <cc:Agent>
            <dc:title />
          </cc:Agent>
        </dc:contributor>
      </cc:Work>
      <cc:License
         rdf:about="http://creativecommons.org/licenses/publicdomain/">
        <cc:permits
           rdf:resource="http://creativecommons.org/ns#Reproduction" />
        <cc:permits
           rdf:resource="http://creativecommons.org/ns#Distribution" />
        <cc:permits
           rdf:resource="http://creativecommons.org/ns#DerivativeWorks" />
      </cc:License>
    </rdf:RDF>
  </metadata>
  <g
     inkscape:label="Layer 1"
     inkscape:groupmode="layer"
     id="layer1"
     transform="translate(-374.21785,422.78273)">
    <g
       id="g5385"
       transform="matrix(1.0775109,0,0,-1.0775109,329.45187,398.98009)">
      <path
         id="path5387"
         d="m 638,708 c 0,6 0.83301,10.5 2.5,13.5 1.68597,3 3.85303,4.66699 6.5,5 2.68701,0.33301 5.35303,0.16699 8,-0.5 2.66699,-0.66699 4.66699,-1.33301 6,-2 15.333,-8.66699 26.5,-16.833 33.5,-24.5 7,-7.667 10.5,-13.167 10.5,-16.5 V 453 327 187 c 0,-4 -3.33301,-10.167 -10,-18.5 -6.66699,-8.334 -17.833,-16.667 -33.5,-25 -15.667,-8.333 -36.333,-15.833 -62,-22.5 -25.667,-6.667 -57.167,-10 -94.5,-10 -38,0 -70.167,3.333 -96.5,10 -26.333,6.667 -48,14.167 -65,22.5 -17,8.333 -29.333,16.667 -37,25 C 298.833,176.833 295,183 295,187 v 140 126 230 c 0,3.33301 3.16699,8.83301 9.5,16.5 6.33301,7.672 16.5,15.839 30.5,24.5 2,0.66699 4.5,1.66699 7.5,3 3,1.33301 6,1.66699 9,1 3,-0.66699 5.5,-2.33301 7.5,-5 2,-2.66699 3,-7 3,-13 v -71 c 0,-2 1.5,-5.83301 4.5,-11.5 3,-5.66699 8.16699,-8.5 15.5,-8.5 7.33401,0 12.667,2.83301 16,8.5 3.333,5.66699 5,9.5 5,11.5 v 85 c 0,13.333 2.16699,21.333 6.5,24 4.336,2.69 8.17001,4.35602 11.5,5 6.66699,1.33301 13,2.5 19,3.5 6,1 13,1.5 21,1.5 4.66699,0 8.83301,-1.83301 12.5,-5.5 3.66699,-3.66699 5.5,-13.167 5.5,-28.5 v -85 c 0,-2 1.66699,-5.83301 5,-11.5 3.33701,-5.66699 8.67001,-8.5 16,-8.5 7.33301,0 12.667,2.83301 16,8.5 3.333,5.66699 5,9.5 5,11.5 v 85 c 0,14 1.5,23.167 4.5,27.5 3,4.333 7.16699,6.16699 12.5,5.5 8.66699,-0.66699 16.667,-1.5 24,-2.5 7.333,-1 14.667,-2.16699 22,-3.5 2,-0.66699 4.66699,-2.5 8,-5.5 3.33301,-3 5,-10.167 5,-21.5 v -85 c 0,-2 1.5,-5.83301 4.5,-11.5 3,-5.66699 8.16699,-8.5 15.5,-8.5 7.33301,0 12.667,2.83301 16,8.5 3.333,5.66699 5,9.5 5,11.5 v 69 0 z M 506,5 c 53.333,0 99,5 137,15 38,10 69.167,22.1667 93.5,36.5 24.333,14.3333 42.167,29.5 53.5,45.5 11.333,16 17,30 17,42 v 201 c 0,8.66699 -2.83301,15.833 -8.5,21.5 -5.66699,5.667 -12.833,8.5 -21.5,8.5 -8.667,0 -15.833,-2.83301 -21.5,-8.5 C 749.83301,360.832 747,353.665 747,345 V 147 c -2,-4 -7.5,-10.5 -16.5,-19.5 -9,-9 -22.833,-18 -41.5,-27 -18.667,-9 -43,-17 -73,-24 C 586,69.5 549.333,66 506,66 c -43.333,0 -80.5,3.5 -111.5,10.5 -31,7 -56.667,15.1667 -77,24.5 -20.333,9.333 -35.667,18.5 -46,27.5 -10.333,9 -16.5,15.5 -18.5,19.5 v 197 c 0,8.66699 -2.83299,15.833 -8.5,21.5 -5.66701,5.667 -12.833,8.5 -21.5,8.5 -8.667,0 -15.833,-2.83301 -21.5,-8.5 C 195.83299,360.832 193,353.665 193,345 V 144 c 0,-12.667 6.5,-27 19.5,-43 13,-16 32.667,-31.1667 59,-45.5 26.333,-14.3333 59,-26.3333 98,-36 C 408.5,9.83333 454,5 506,5 z m 79,38 V -95 h 89 c 10,0 15,-5 15,-15 v -33 c 0,-4 -1.33301,-7.5 -4,-10.5 -2.66699,-3 -6.33301,-4.5 -11,-4.5 H 326 c -4,0 -7.5,1.5 -10.5,4.5 -3,3 -4.5,6.5 -4.5,10.5 v 33 c 0,4.667 1.5,8.333 4.5,11 3,2.6667 6.5,4 10.5,4 h 90 V 43 h 169 z"
         inkscape:connector-curvature="0"
         style="fill:currentColor" />
    </g>
  </g>
</svg>
