<?xml version="1.0" encoding="UTF-8" standalone="no"?>
<!-- Created with Inkscape (http://www.inkscape.org/) -->

<svg
   xmlns:dc="http://purl.org/dc/elements/1.1/"
   xmlns:cc="http://creativecommons.org/ns#"
   xmlns:rdf="http://www.w3.org/1999/02/22-rdf-syntax-ns#"
   xmlns:svg="http://www.w3.org/2000/svg"
   xmlns="http://www.w3.org/2000/svg"
   xmlns:sodipodi="http://sodipodi.sourceforge.net/DTD/sodipodi-0.dtd"
   xmlns:inkscape="http://www.inkscape.org/namespaces/inkscape"
   width="987.97894"
   height="997.0191"
   id="svg2"
   sodipodi:version="0.32"
   inkscape:version="0.48.3.1 r9886"
   sodipodi:docname="check.svg"
   version="1.0"
   inkscape:output_extension="org.inkscape.output.svg.inkscape">
  <defs
     id="defs4" />
  <sodipodi:namedview
     id="base"
     pagecolor="#ffffff"
     bordercolor="#666666"
     borderopacity="1.0"
     inkscape:pageopacity="0.0"
     inkscape:pageshadow="2"
     inkscape:zoom="0.32"
     inkscape:cx="273.34921"
     inkscape:cy="311.91384"
     inkscape:document-units="px"
     inkscape:current-layer="text10546"
     inkscape:window-width="1487"
     inkscape:window-height="1021"
     inkscape:window-x="0"
     inkscape:window-y="28"
     showgrid="false"
     inkscape:window-maximized="0"
     fit-margin-top="0"
     fit-margin-left="0"
     fit-margin-right="0"
     fit-margin-bottom="0" />
  <metadata
     id="metadata7">
    <rdf:RDF>
      <cc:Work
         rdf:about="">
        <dc:format>image/svg+xml</dc:format>
        <dc:type
           rdf:resource="http://purl.org/dc/dcmitype/StillImage" />
        <dc:title></dc:title>
        <dc:creator>
          <cc:Agent>
            <dc:title />
          </cc:Agent>
        </dc:creator>
        <dc:subject>
          <rdf:Bag />
        </dc:subject>
        <cc:license
           rdf:resource="http://creativecommons.org/licenses/publicdomain/" />
        <dc:description />
        <dc:contributor>
          <cc:Agent>
            <dc:title />
          </cc:Agent>
        </dc:contributor>
      </cc:Work>
      <cc:License
         rdf:about="http://creativecommons.org/licenses/publicdomain/">
        <cc:permits
           rdf:resource="http://creativecommons.org/ns#Reproduction" />
        <cc:permits
           rdf:resource="http://creativecommons.org/ns#Distribution" />
        <cc:permits
           rdf:resource="http://creativecommons.org/ns#DerivativeWorks" />
      </cc:License>
    </rdf:RDF>
  </metadata>
  <g
     inkscape:label="Layer 1"
     inkscape:groupmode="layer"
     id="layer1"
     transform="translate(-374.21785,422.78273)">
    <g
       style="font-size:1353.90222168px;font-style:italic;font-variant:normal;font-weight:normal;font-stretch:normal;line-height:125%;letter-spacing:0px;word-spacing:0px;fill:#000000;fill-opacity:1;stroke:none;font-family:Serif;-inkscape-font-specification:Serif Italic"
       id="text10546">
      <g
         id="g11289"
         transform="matrix(0.61803381,0,0,-0.61764706,374.70732,550.07976)">
        <path
           id="path11291"
           d="m 0,768 q 0,25 18,43 l 256,256 q 27,27 45.5,19.5 Q 338,1079 338,1040 V 870 h 360 v 359 H 526 q -37,0 -45,18.5 -8,18.5 19,44.5 l 256,256 q 18,18 43,19 25,0 43,-19 l 256,-256 q 27,-27 19.5,-45 -7.5,-18 -46.5,-18 H 899 V 870 h 361 v 170 q 0,39 18,46.5 18,7.5 45,-19.5 l 256,-256 q 18,-18 18,-43 0,-25 -18,-43 L 1323,469 q -27,-27 -45,-19.5 -18,7.5 -18,46.5 V 672 H 899 V 307 h 172 q 39,0 47,-18.5 8,-18.5 -20,-44.5 L 842,-12 q -18,-18 -43,-19 -25,0 -43,19 L 500,244 q -27,27 -20,45 7,18 46,18 H 698 V 672 H 338 V 496 Q 338,457 319.5,449.5 301,442 274,469 L 18,725 Q 0,743 0,768 z"
           inkscape:connector-curvature="0"
           style="fill:currentColor" />
      </g>
    </g>
  </g>
</svg>
