<?xml version="1.0" encoding="UTF-8" standalone="no"?>
<!-- Created with Inkscape (http://www.inkscape.org/) -->

<svg
   xmlns:dc="http://purl.org/dc/elements/1.1/"
   xmlns:cc="http://creativecommons.org/ns#"
   xmlns:rdf="http://www.w3.org/1999/02/22-rdf-syntax-ns#"
   xmlns:svg="http://www.w3.org/2000/svg"
   xmlns="http://www.w3.org/2000/svg"
   xmlns:sodipodi="http://sodipodi.sourceforge.net/DTD/sodipodi-0.dtd"
   xmlns:inkscape="http://www.inkscape.org/namespaces/inkscape"
   width="987.97894"
   height="997.0191"
   id="svg2"
   sodipodi:version="0.32"
   inkscape:version="0.48.3.1 r9886"
   sodipodi:docname="female.svg"
   version="1.0"
   inkscape:output_extension="org.inkscape.output.svg.inkscape">
  <defs
     id="defs4" />
  <sodipodi:namedview
     id="base"
     pagecolor="#ffffff"
     bordercolor="#666666"
     borderopacity="1.0"
     inkscape:pageopacity="0.0"
     inkscape:pageshadow="2"
     inkscape:zoom="0.45254834"
     inkscape:cx="211.22733"
     inkscape:cy="419.16502"
     inkscape:document-units="px"
     inkscape:current-layer="layer1"
     inkscape:window-width="1487"
     inkscape:window-height="1021"
     inkscape:window-x="0"
     inkscape:window-y="28"
     showgrid="false"
     inkscape:window-maximized="0"
     fit-margin-top="0"
     fit-margin-left="0"
     fit-margin-right="0"
     fit-margin-bottom="0" />
  <metadata
     id="metadata7">
    <rdf:RDF>
      <cc:Work
         rdf:about="">
        <dc:format>image/svg+xml</dc:format>
        <dc:type
           rdf:resource="http://purl.org/dc/dcmitype/StillImage" />
        <dc:title></dc:title>
        <dc:creator>
          <cc:Agent>
            <dc:title />
          </cc:Agent>
        </dc:creator>
        <dc:subject>
          <rdf:Bag />
        </dc:subject>
        <cc:license
           rdf:resource="http://creativecommons.org/licenses/publicdomain/" />
        <dc:description />
        <dc:contributor>
          <cc:Agent>
            <dc:title />
          </cc:Agent>
        </dc:contributor>
      </cc:Work>
      <cc:License
         rdf:about="http://creativecommons.org/licenses/publicdomain/">
        <cc:permits
           rdf:resource="http://creativecommons.org/ns#Reproduction" />
        <cc:permits
           rdf:resource="http://creativecommons.org/ns#Distribution" />
        <cc:permits
           rdf:resource="http://creativecommons.org/ns#DerivativeWorks" />
      </cc:License>
    </rdf:RDF>
  </metadata>
  <g
     inkscape:label="Layer 1"
     inkscape:groupmode="layer"
     id="layer1"
     transform="translate(-374.21785,422.78273)">
    <g
       id="g8078"
       transform="matrix(1.128,0,0,-1.128,304.20732,397.77082)">
      <path
         id="path8080"
         d="m 450,70 c -52,4.6667 -98.5,13.6667 -139.5,27 -41,13.333 -77.167,29 -108.5,47 -31.333,18 -58.333,37.5 -81,58.5 -22.6667,21 -41.6667,41.5 -57,61.5 -0.666698,3.33301 -1,6.83301 -1,10.5 v 10.5 2 c 17.3333,1.33301 39.833,3.83301 67.5,7.5 27.667,3.66699 57.167,9.66699 88.5,18 31.333,8.33499 63.5,19.168 96.5,32.5 33,13.333 63.833,30.333 92.5,51 6,-2.673 12.167,-4.83899 18.5,-6.5 6.33499,-1.66699 13.168,-2.5 20.5,-2.5 7.33301,0 14.5,1 21.5,3 7,2 13.833,4.66699 20.5,8 20,-20.667 43.333,-41 70,-61 17.333,-13.333 35.167,-24.333 53.5,-33 18.333,-8.667 37.167,-16 56.5,-22 7.33301,-18.667 19,-33 35,-43 -19.333,-48 -46.333,-90.333 -81,-127 -7.33801,5.334 -15.671,9.667 -25,13 -9.33301,3.33299 -19,5 -29,5 -20.667,0 -38.667,-5.833 -54,-17.5 C 499.667,100.833 488.333,86.3333 481,69 H 465.5 z M 444,8 C 450,7.33333 456,6.83333 462,6.5 468,6.16667 474,6 480,6 428.667,-21.3333 381.167,-38.6667 337.5,-46 293.833,-53.3333 256,-56 224,-54 190.667,-26.6667 162,4.5 138,39.5 114,74.5 95.3333,113 82,155 c 19.333,-17.333 41.167,-34 65.5,-50 24.333,-16 51.333,-30.5 81,-43.5 C 258.167,48.5 291,37.3333 327,28 363,18.6667 402,12 444,8 z m 125,-66 c 22.667,0 42.5,7.3333 59.5,22 17,14.6667 27.833,32.6667 32.5,54 56.667,11.3333 105.167,27.3333 145.5,48 40.333,20.6667 74.5,42.667 102.5,66 -15.333,-41.3333 -36.5,-79.5 -63.5,-114.5 -27,-35 -58.333,-65 -94,-90 -35.667,-25 -74.833,-44.5 -117.5,-58.5 -42.667,-14 -87.333,-21 -134,-21 -32.667,0 -64,3.33299 -94,10 -30,6.66701 -59,16.333 -87,29 30,4 61.833,11.333 95.5,22 33.667,10.6667 68.5,26.3333 104.5,47 15.333,-9.3333 32,-14 50,-14 z m 264,320 c 19.333,1.33301 37.667,2.83301 55,4.5 17.333,1.66699 33.667,3.83301 49,6.5 0,-4 -0.16699,-8.16699 -0.5,-12.5 -0.33301,-4.33301 -0.5,-8.83299 -0.5,-13.5 -8,-10.667 -19,-23.167 -33,-37.5 -14,-14.333 -31.333,-29 -52,-44 -20.667,-15 -44.667,-29.5 -72,-43.5 -27.333,-14 -58.333,-25.6667 -93,-35 17.333,20.667 32.5,42.5 45.5,65.5 13,23 24.167,46.833 33.5,71.5 14,1.33299 26.833,5.33299 38.5,12 11.667,6.66701 21.5,15.334 29.5,26 z m 16,64 c -1.33301,14.667 -5.83301,28 -13.5,40 -7.66699,12 -17.167,21.667 -28.5,29 4,34.667 6.16699,68.833 6.5,102.5 0.33301,33.667 -0.83301,65.5 -3.5,95.5 34,-34 61.667,-72.667 83,-116 21.333,-43.333 35,-90 41,-140 -25.334,-5.33301 -53.667,-9 -85,-11 z M 353,481 c 0,-7.33301 0.83301,-14.333 2.5,-21 1.66699,-6.667 3.83301,-13 6.5,-19 -24,-16 -49.667,-29.5 -77,-40.5 -27.333,-11 -54.167,-20 -80.5,-27 -26.333,-7 -51.5,-12.333 -75.5,-16 -24,-3.667 -44.3333,-6.16699 -61,-7.5 6,40 17,78 33,114 16,36 36.167,68.833 60.5,98.5 24.333,29.667 52.333,55.834 84,78.5 31.667,22.667 65.833,40.667 102.5,54 1.33899,-17.333 4.172,-38.333 8.5,-63 4.33499,-24.667 13.168,-52 26.5,-82 -9.33301,-8.66699 -16.667,-19 -22,-31 -5.333,-12 -8,-24.667 -8,-38 z m 187,0 c 0,11.335 -2,22.669 -6,34 32,38 56.167,73.333 72.5,106 16.333,32.667 27.5,58.667 33.5,78 37.333,-12.667 71,-29 101,-49 4.66699,-34 7.66699,-71.667 9,-113 1.33301,-41.333 -0.33301,-84 -5,-128 -17.333,-2 -33,-8.5 -47,-19.5 -14,-11 -24,-24.5 -30,-40.5 -12.667,4.66699 -24.833,10 -36.5,16 -11.667,6 -23.167,13.333 -34.5,22 -12.667,9.33499 -24.333,18.668 -35,28 -10.667,9.33499 -20.667,18.668 -30,28 5.33301,12.667 8,25.333 8,38 z m -93,94 c -2.66699,0 -4.66699,-0.33301 -6,-1 -13.333,31.333 -21.833,59 -25.5,83 -3.667,24 -5.5,42.667 -5.5,56 14.667,3.33301 29.5,5.83301 44.5,7.5 15,1.66699 30.167,2.5 45.5,2.5 26,0 52.333,-2.66699 79,-8 -5.33801,-16 -14.671,-37.333 -28,-64 -13.334,-26.667 -32.668,-56 -58,-88 -7.33301,3.33301 -14.833,6.16699 -22.5,8.5 -7.667,2.33301 -15.5,3.5 -23.5,3.5 z"
         inkscape:connector-curvature="0"
         style="fill:currentColor" />
    </g>
  </g>
</svg>
