<svg width="579.27435" height="1000"
 viewBox="0 0 579.27435 1000"
 xmlns="http://www.w3.org/2000/svg">
 <metadata id="metadata3116">image/svg+xml</metadata>
 <g>
  <title>Layer 1</title>
  <g id="layer1">
   <path fill="#000000" fill-rule="nonzero" id="path50" d="m289.64966,151.20648c58.90942,0 106.80963,47.98485 106.80963,106.89258c0,58.88336 -47.90021,106.81769 -106.80963,106.81769c-58.92078,0 -106.85999,-47.93433 -106.85999,-106.81769c0,-58.90773 47.93921,-106.89258 106.85999,-106.89258zm0,364.92328c142.3313,0 258.05682,-115.7189 258.05682,-258.0307c0,-142.32312 -115.72546,-258.09906 -258.05682,-258.09906c-142.33618,0 -258.11212,115.77594 -258.11212,258.09906c0,142.3118 115.77594,258.0307 258.11212,258.0307"/>
   <path fill="#000000" fill-rule="nonzero" id="path52" d="m394.03699,726.64124c52.5379,-11.97461 103.19879,-32.76099 149.84064,-62.06262c35.35583,-22.24481 46.03137,-68.9502 23.77515,-104.26678c-22.28076,-35.37531 -68.91608,-46.0379 -104.29773,-23.75714c-105.67169,66.46924 -241.82855,66.42523 -347.46765,0c-35.37524,-22.28076 -82.04803,-11.61816 -104.24725,23.75714c-22.26276,35.36713 -11.62463,82.02197 23.66107,104.26678c46.67432,29.2821 97.34192,50.07501 149.86511,62.04962l-144.25049,144.30756c-29.5296,29.54419 -29.5296,77.38733 0.00702,106.93164c14.80383,14.7453 34.11523,22.1228 53.47229,22.1228c19.33746,0 38.71887,-7.3775 53.47717,-22.14233l141.7204,-141.79089l141.85925,141.79089c29.50513,29.53613 77.33691,29.53613 106.89417,0c29.5426,-29.52478 29.5426,-77.43134 0,-106.91211l-144.30914,-144.29456"/>
  </g>
 </g>
</svg>
