<svg width="1000" height="1000"
 viewBox="0 0 1000 1000"
 xmlns="http://www.w3.org/2000/svg">
 <metadata id="metadata3116">image/svg+xml</metadata>
 <g>
  <title>Layer 1</title>
  <g id="layer1">
   <path fill="#000000" id="path3193" d="m140.71875,0c-77.94977,0 -140.71875,62.76901 -140.71875,140.71875l0,718.5625c0,77.94977 62.76898,140.71875 140.71875,140.71875l718.56256,0c77.94971,0 140.71875,-62.76898 140.71875,-140.71875l0,-718.5625c0,-77.94977 -62.76904,-140.71875 -140.71875,-140.71875l-718.56256,0z"/>
   <path fill="#ffffff" id="path3191" d="m522.40631,102.1875c113.48376,0 205.75,92.3042 205.75,205.78125c0,113.46802 -92.26624,205.71875 -205.75,205.71875c-113.48743,0 -205.81256,-92.25073 -205.81256,-205.71875c0,-113.47705 92.32513,-205.78125 205.81256,-205.78125z"/>
   <path fill="#ffffff" id="rect3151" d="m349.84375,520.71875c11.60638,-0.37952 23.42297,2.58813 34,9.25c84.22815,52.96216 192.80829,52.99725 277.06256,0c28.21045,-17.76489 65.39124,-9.23669 83.15625,18.96875c17.74524,28.15863 9.22107,65.38879 -18.96875,83.125c-37.18848,23.36279 -77.57922,39.92114 -119.46875,49.46875l115.0625,115.0625c23.55481,23.50562 23.55481,61.70935 0,85.25c-23.56665,23.54974 -61.69373,23.54974 -85.21875,0l-113.125,-113.0625l-113.00006,113.0625c-11.76709,11.77228 -27.20691,17.65625 -42.625,17.65625c-15.43378,0 -30.82159,-5.89954 -42.625,-17.65625c-23.55054,-23.55627 -23.54449,-61.69385 0,-85.25l115,-115.0625c-41.87781,-9.54761 -82.28558,-26.12152 -119.5,-49.46875c-28.13403,-17.73621 -36.5943,-54.92609 -18.84375,-83.125c11.06244,-17.62842 29.74976,-27.58618 49.09375,-28.21875z"/>
   <path fill="#000000" id="path3189" d="m520.21881,222.75c-45.96826,1.16982 -83.03131,38.98431 -83.03131,85.21875c0,46.94888 38.24011,85.15625 85.21881,85.15625c46.96973,0 85.15625,-38.20737 85.15625,-85.15625c0,-46.96829 -38.18652,-85.21875 -85.15625,-85.21875c-0.73413,0 -1.45789,-0.0186 -2.1875,0z"/>
  </g>
 </g>
</svg>
