<?xml version="1.0" encoding="UTF-8" standalone="no"?>
<!-- Created with Inkscape (http://www.inkscape.org/) -->

<svg
   xmlns:dc="http://purl.org/dc/elements/1.1/"
   xmlns:cc="http://creativecommons.org/ns#"
   xmlns:rdf="http://www.w3.org/1999/02/22-rdf-syntax-ns#"
   xmlns:svg="http://www.w3.org/2000/svg"
   xmlns="http://www.w3.org/2000/svg"
   xmlns:sodipodi="http://sodipodi.sourceforge.net/DTD/sodipodi-0.dtd"
   xmlns:inkscape="http://www.inkscape.org/namespaces/inkscape"
   width="987.97894"
   height="997.0191"
   id="svg2"
   sodipodi:version="0.32"
   inkscape:version="0.48.3.1 r9886"
   sodipodi:docname="off.svg"
   version="1.0"
   inkscape:output_extension="org.inkscape.output.svg.inkscape">
  <defs
     id="defs4" />
  <sodipodi:namedview
     id="base"
     pagecolor="#ffffff"
     bordercolor="#666666"
     borderopacity="1.0"
     inkscape:pageopacity="0.0"
     inkscape:pageshadow="2"
     inkscape:zoom="0.32"
     inkscape:cx="-111.07108"
     inkscape:cy="310.07594"
     inkscape:document-units="px"
     inkscape:current-layer="layer1"
     inkscape:window-width="1487"
     inkscape:window-height="1021"
     inkscape:window-x="0"
     inkscape:window-y="28"
     showgrid="false"
     inkscape:window-maximized="0"
     fit-margin-top="0"
     fit-margin-left="0"
     fit-margin-right="0"
     fit-margin-bottom="0" />
  <metadata
     id="metadata7">
    <rdf:RDF>
      <cc:Work
         rdf:about="">
        <dc:format>image/svg+xml</dc:format>
        <dc:type
           rdf:resource="http://purl.org/dc/dcmitype/StillImage" />
        <dc:title></dc:title>
        <dc:creator>
          <cc:Agent>
            <dc:title />
          </cc:Agent>
        </dc:creator>
        <dc:subject>
          <rdf:Bag />
        </dc:subject>
        <cc:license
           rdf:resource="http://creativecommons.org/licenses/publicdomain/" />
        <dc:description />
        <dc:contributor>
          <cc:Agent>
            <dc:title />
          </cc:Agent>
        </dc:contributor>
      </cc:Work>
      <cc:License
         rdf:about="http://creativecommons.org/licenses/publicdomain/">
        <cc:permits
           rdf:resource="http://creativecommons.org/ns#Reproduction" />
        <cc:permits
           rdf:resource="http://creativecommons.org/ns#Distribution" />
        <cc:permits
           rdf:resource="http://creativecommons.org/ns#DerivativeWorks" />
      </cc:License>
    </rdf:RDF>
  </metadata>
  <g
     inkscape:label="Layer 1"
     inkscape:groupmode="layer"
     id="layer1"
     transform="translate(-374.21785,422.78273)">
    <path
       inkscape:connector-curvature="0"
       d="m 1361.7073,75.726817 c 0,272.553003 -220.947,493.500003 -493.49998,493.500003 -272.553,0 -493.5,-220.947 -493.5,-493.500003 0,-120.132 43.2165,-229.935737 114.5625,-315.487487 19.715,-21.46158 33.56578,-36.30518 61.6875,-37.0125 38.916,0 64.59766,37.79431 70.5,70.5 4.01451,22.24498 -25.39209,57.6177 -28.16475,61.6875 -48.46875,60.347987 -77.58525,136.875737 -77.58525,220.312487 0,194.685753 157.81425,352.500003 352.5,352.500003 194.68578,0 352.49998,-157.81425 352.49998,-352.500003 0,-83.43675 -29.1165,-159.9645 -77.5852,-220.312487 -8.339,-12.06872 -27.8219,-43.87606 -28.1648,-61.6875 0,-38.916 31.584,-70.5 70.5,-70.5 29.0777,1.94065 39.9215,14.63194 61.7228,37.0125 71.2755,85.55175 114.5272,195.355487 114.5272,315.487487 z m -458.24998,70.500003 -70.5,0 c -19.49325,0 -35.25,-15.75675 -35.25,-35.25 l 0,-493.49999 c 0,-19.458 15.75675,-35.25 35.25,-35.25 l 70.5,0 c 19.49325,0 35.25,15.792 35.25,35.25 l 0,493.49999 c 0,19.49325 -15.75675,35.25 -35.25,35.25 z"
       id="path4"
       sodipodi:nodetypes="sssccacsssccccssssssssss" />
  </g>
</svg>
