<?xml version="1.0" encoding="UTF-8" standalone="no"?>
<!-- Created with Inkscape (http://www.inkscape.org/) -->

<svg
   xmlns:dc="http://purl.org/dc/elements/1.1/"
   xmlns:cc="http://creativecommons.org/ns#"
   xmlns:rdf="http://www.w3.org/1999/02/22-rdf-syntax-ns#"
   xmlns:svg="http://www.w3.org/2000/svg"
   xmlns="http://www.w3.org/2000/svg"
   xmlns:sodipodi="http://sodipodi.sourceforge.net/DTD/sodipodi-0.dtd"
   xmlns:inkscape="http://www.inkscape.org/namespaces/inkscape"
   width="987.97894"
   height="997.0191"
   id="svg2"
   sodipodi:version="0.32"
   inkscape:version="0.48.3.1 r9886"
   sodipodi:docname="paper-clip.svg"
   version="1.0"
   inkscape:output_extension="org.inkscape.output.svg.inkscape">
  <defs
     id="defs4" />
  <sodipodi:namedview
     id="base"
     pagecolor="#ffffff"
     bordercolor="#666666"
     borderopacity="1.0"
     inkscape:pageopacity="0.0"
     inkscape:pageshadow="2"
     inkscape:zoom="0.45254834"
     inkscape:cx="96.322475"
     inkscape:cy="352.87375"
     inkscape:document-units="px"
     inkscape:current-layer="layer1"
     inkscape:window-width="1487"
     inkscape:window-height="1021"
     inkscape:window-x="0"
     inkscape:window-y="28"
     showgrid="false"
     inkscape:window-maximized="0"
     fit-margin-top="0"
     fit-margin-left="0"
     fit-margin-right="0"
     fit-margin-bottom="0" />
  <metadata
     id="metadata7">
    <rdf:RDF>
      <cc:Work
         rdf:about="">
        <dc:format>image/svg+xml</dc:format>
        <dc:type
           rdf:resource="http://purl.org/dc/dcmitype/StillImage" />
        <dc:title></dc:title>
        <dc:creator>
          <cc:Agent>
            <dc:title />
          </cc:Agent>
        </dc:creator>
        <dc:subject>
          <rdf:Bag />
        </dc:subject>
        <cc:license
           rdf:resource="http://creativecommons.org/licenses/publicdomain/" />
        <dc:description />
        <dc:contributor>
          <cc:Agent>
            <dc:title />
          </cc:Agent>
        </dc:contributor>
      </cc:Work>
      <cc:License
         rdf:about="http://creativecommons.org/licenses/publicdomain/">
        <cc:permits
           rdf:resource="http://creativecommons.org/ns#Reproduction" />
        <cc:permits
           rdf:resource="http://creativecommons.org/ns#Distribution" />
        <cc:permits
           rdf:resource="http://creativecommons.org/ns#DerivativeWorks" />
      </cc:License>
    </rdf:RDF>
  </metadata>
  <g
     inkscape:label="Layer 1"
     inkscape:groupmode="layer"
     id="layer1"
     transform="translate(-374.21785,422.78273)">
    <g
       id="g5088"
       transform="matrix(0.987,0,0,-0.987,374.70732,371.82682)">
      <path
         id="path5090"
         d="m 500,-200 c -46,0 -90.333,6 -133,18 -42.667,12 -82.5,28.833 -119.5,50.5 -37,21.667 -70.667,47.6667 -101,78 -30.333,30.3333 -56.3333,64 -78,101 C 46.8333,84.5 30,124.333 18,167 6,209.667 0,254 0,300 c 0,46 6,90.333 18,133 12,42.667 28.8333,82.5 50.5,119.5 21.6667,37 47.667,70.667 78,101 30.333,30.333 64,56.333 101,78 37,21.667 76.833,38.5 119.5,50.5 42.667,12 87,18 133,18 68.667,0 133.5,-13.167 194.5,-39.5 61,-26.333 114,-62 159,-107 45,-45 80.667,-98 107,-159 26.333,-61 39.5,-125.833 39.5,-194.5 0,-46 -6,-90.333 -18,-133 -12,-42.667 -28.833,-82.5 -50.5,-119.5 -21.667,-37 -47.667,-70.6667 -78,-101 -30.333,-30.3333 -64,-56.333 -101,-78 -37,-21.667 -76.833,-38.5 -119.5,-50.5 -42.667,-12 -87,-18 -133,-18 z M 357,-3 c 27.334,4 53.667,18.6667 79,44 l 26,26 50.5,50.5 62.5,62.5 62,62 50,49.5 26,25.5 c 30,31.333 49,62 57,92 2.69,8.66699 4.35699,18.5 5,29.5 0.66699,11 -0.33301,22.667 -3,35 -2.66699,12.335 -7.66699,25.169 -15,38.5 -7.33301,13.333 -18,27 -32,41 -36,36 -74.5,53 -115.5,51 C 568.5,602 528,581.333 488,542 L 233,286 c -5.33299,-5.33301 -8,-12.167 -8,-20.5 0,-8.333 2.66701,-15.167 8,-20.5 6,-6 13.167,-9 21.5,-9 8.33499,0 15.169,3 20.5,9 l 255,255 c 18.667,18.667 35.667,31.167 51,37.5 15.333,6.333 29.333,8.83301 42,7.5 12.667,-1.33301 24,-5.33301 34,-12 10,-6.66699 18.667,-13.667 26,-21 28.667,-28.667 38.667,-58 30,-88 -4.66699,-19.333 -18.667,-41 -42,-65 L 645.5,333.5 596,284 533.5,222 470.5,159.5 420,109 394,83 C 377.333,66.3333 362.333,57 349,55 c -2.66699,0 -7.5,0.5 -14.5,1.5 -7,1 -15.833,6.5 -26.5,16.5 -16,16 -23,31.667 -21,47 0.66699,8.66701 3.5,16.5 8.5,23.5 5,7 10.167,13.167 15.5,18.5 l 233,233 c 8,8 14.833,13.833 20.5,17.5 5.667,3.667 10.167,6 13.5,7 3.333,1 5.83301,1 7.5,0 1.67102,-1 2.83801,-1.83301 3.5,-2.5 0.66699,-1.33301 1.5,-2.83301 2.5,-4.5 1,-1.66699 1,-4.16699 0,-7.5 -1,-3.33301 -3.33301,-7.66699 -7,-13 -3.66699,-5.33301 -9.5,-12 -17.5,-20 L 353,158 394,116 609,330 c 15.333,15.333 26.333,29.5 33,42.5 6.667,13 10.167,24.833 10.5,35.5 0.333,10.667 -1.66699,20.167 -6,28.5 -4.33301,8.333 -9.5,15.5 -15.5,21.5 -5.33301,4.66699 -11.833,9.33301 -19.5,14 -7.667,4.66699 -17,7.16699 -28,7.5 -11,0.33301 -23.333,-2.66699 -37,-9 C 532.833,464.16699 518,453 502,437 L 269,204 c -24,-24 -37.667,-50 -41,-78 -1.33299,-11.333 0.16701,-25.333 4.5,-42 4.33299,-16.6667 15.833,-34.3333 34.5,-53 13.333,-14 26.667,-23.3333 40,-28 13.334,-4.66667 25.667,-7 37,-7 6,0 10.333,0.33333 13,1 z"
         inkscape:connector-curvature="0"
         style="fill:currentColor" />
    </g>
  </g>
</svg>
