<?xml version="1.0" encoding="UTF-8" standalone="no"?>
<!-- Created with Inkscape (http://www.inkscape.org/) -->

<svg
   xmlns:dc="http://purl.org/dc/elements/1.1/"
   xmlns:cc="http://creativecommons.org/ns#"
   xmlns:rdf="http://www.w3.org/1999/02/22-rdf-syntax-ns#"
   xmlns:svg="http://www.w3.org/2000/svg"
   xmlns="http://www.w3.org/2000/svg"
   xmlns:sodipodi="http://sodipodi.sourceforge.net/DTD/sodipodi-0.dtd"
   xmlns:inkscape="http://www.inkscape.org/namespaces/inkscape"
   width="987.97894"
   height="997.0191"
   id="svg2"
   sodipodi:version="0.32"
   inkscape:version="0.48.3.1 r9886"
   sodipodi:docname="refresh-alt.svg"
   version="1.0"
   inkscape:output_extension="org.inkscape.output.svg.inkscape">
  <defs
     id="defs4" />
  <sodipodi:namedview
     id="base"
     pagecolor="#ffffff"
     bordercolor="#666666"
     borderopacity="1.0"
     inkscape:pageopacity="0.0"
     inkscape:pageshadow="2"
     inkscape:zoom="0.45254834"
     inkscape:cx="96.322475"
     inkscape:cy="352.87375"
     inkscape:document-units="px"
     inkscape:current-layer="layer1"
     inkscape:window-width="1487"
     inkscape:window-height="1021"
     inkscape:window-x="0"
     inkscape:window-y="28"
     showgrid="false"
     inkscape:window-maximized="0"
     fit-margin-top="0"
     fit-margin-left="0"
     fit-margin-right="0"
     fit-margin-bottom="0" />
  <metadata
     id="metadata7">
    <rdf:RDF>
      <cc:Work
         rdf:about="">
        <dc:format>image/svg+xml</dc:format>
        <dc:type
           rdf:resource="http://purl.org/dc/dcmitype/StillImage" />
        <dc:title></dc:title>
        <dc:creator>
          <cc:Agent>
            <dc:title />
          </cc:Agent>
        </dc:creator>
        <dc:subject>
          <rdf:Bag />
        </dc:subject>
        <cc:license
           rdf:resource="http://creativecommons.org/licenses/publicdomain/" />
        <dc:description />
        <dc:contributor>
          <cc:Agent>
            <dc:title />
          </cc:Agent>
        </dc:contributor>
      </cc:Work>
      <cc:License
         rdf:about="http://creativecommons.org/licenses/publicdomain/">
        <cc:permits
           rdf:resource="http://creativecommons.org/ns#Reproduction" />
        <cc:permits
           rdf:resource="http://creativecommons.org/ns#Distribution" />
        <cc:permits
           rdf:resource="http://creativecommons.org/ns#DerivativeWorks" />
      </cc:License>
    </rdf:RDF>
  </metadata>
  <g
     inkscape:label="Layer 1"
     inkscape:groupmode="layer"
     id="layer1"
     transform="translate(-374.21785,422.78273)">
    <g
       id="g5055"
       transform="matrix(1.0225036,0,0,-1.0225036,354.16443,382.10864)">
      <path
         id="path5057"
         d="m 255,-183 c -17.334,0 -36.667,3.83299 -58,11.5 -21.333,7.66701 -43,22.5 -65,44.5 -14.667,14.667 -26.167,29 -34.5,43 -8.3333,14 -14.6667,27.5 -19,40.5 -4.3333,13 -7,25.1667 -8,36.5 -1,11.3333 -0.833298,21.6667 0.5,31 4.6667,42.6667 26.3333,83.667 65,123 l 370,370 c 26,26 49.667,43.833 71,53.5 21.333,9.67603 40.5,14.342 57.5,14 17,-0.33301 31.833,-4 44.5,-11 12.667,-7 23,-14.5 31,-22.5 10,-10 18.333,-21.5 25,-34.5 6.68903,-13 9.85602,-28 9.5,-45 -0.34497,-17 -5.67798,-35.667 -16,-56 C 718.167,395.167 700.667,372.667 676,348 L 335,7 269,74 609,414 c 13.333,13.334 22.833,24.167 28.5,32.5 5.68597,8.33701 9.35303,15.17 11,20.5 1.66699,5.33301 1.66699,9.33301 0,12 -1.66699,2.66699 -3.16699,4.66699 -4.5,6 -1.33301,0.66699 -3.33301,1.83301 -6,3.5 -2.66699,1.66699 -6.66699,1.83301 -12,0.5 -5.33301,-1.33301 -12.333,-4.83301 -21,-10.5 -8.66699,-5.668 -19.333,-14.835 -32,-27.5 L 203,81 C 195,73 186.833,63 178.5,51 170.167,39 165.333,26.3333 164,13 c -2.66701,-22.6667 8.66701,-47.3333 34,-74 16.667,-16 30.667,-24.8333 42,-26.5 11.333,-1.6667 19,-2.1667 23,-1.5 22.667,3.3333 46.667,18 72,44 l 439,439 c 36,35.334 58.667,69.667 68,103 12.663,47.333 -3.66998,93.667 -49,139 -12,12 -25.833,23.167 -41.5,33.5 C 735.833,679.833 718,686 698,688 678,690 655.833,686 631.5,676 607.166,666 580.332,646.333 551,617 L 146,212 c -9.33299,-9.33299 -20.5,-14 -33.5,-14 -13,0 -24.1667,4.66701 -33.5,14 -9.3333,9.33299 -14,20.333 -14,33 0,12.667 4.6667,23.667 14,33 l 405,405 c 63.333,62.667 127.5,95.667 192.5,99 65,3.333 126.167,-23.333 183.5,-80 22,-22 38.833,-43.667 50.5,-65 11.674,-21.333 19.84,-41.833 24.5,-61.5 4.69501,-19.667 6.362,-38.333 5,-56 C 938.66699,501.833 936,486 932,472 918,422.667 887.333,374.333 840,327 L 401,-112 c -40.667,-40.667 -82.334,-64 -125,-70 -3.33301,0 -6.83301,-0.16701 -10.5,-0.5 -3.66699,-0.33299 -7.16699,-0.5 -10.5,-0.5 z"
         inkscape:connector-curvature="0"
         style="fill:currentColor" />
    </g>
  </g>
</svg>
