<?xml version="1.0" encoding="UTF-8" standalone="no"?>
<!-- Created with Inkscape (http://www.inkscape.org/) -->

<svg
   xmlns:dc="http://purl.org/dc/elements/1.1/"
   xmlns:cc="http://creativecommons.org/ns#"
   xmlns:rdf="http://www.w3.org/1999/02/22-rdf-syntax-ns#"
   xmlns:svg="http://www.w3.org/2000/svg"
   xmlns="http://www.w3.org/2000/svg"
   xmlns:sodipodi="http://sodipodi.sourceforge.net/DTD/sodipodi-0.dtd"
   xmlns:inkscape="http://www.inkscape.org/namespaces/inkscape"
   width="512"
   height="512"
   id="svg2"
   sodipodi:version="0.32"
   inkscape:version="0.48.3.1 r9886"
   sodipodi:docname="paper-clip.svg"
   version="1.0"
   inkscape:output_extension="org.inkscape.output.svg.inkscape">
  <defs
     id="defs4" />
  <sodipodi:namedview
     id="base"
     pagecolor="#ffffff"
     bordercolor="#666666"
     borderopacity="1.0"
     inkscape:pageopacity="0.0"
     inkscape:pageshadow="2"
     inkscape:zoom="0.45254834"
     inkscape:cx="-166.63286"
     inkscape:cy="352.87375"
     inkscape:document-units="px"
     inkscape:current-layer="layer1"
     inkscape:window-width="1487"
     inkscape:window-height="1021"
     inkscape:window-x="0"
     inkscape:window-y="28"
     showgrid="false"
     inkscape:window-maximized="0"
     fit-margin-top="0"
     fit-margin-left="0"
     fit-margin-right="0"
     fit-margin-bottom="0" />
  <metadata
     id="metadata7">
    <rdf:RDF>
      <cc:Work
         rdf:about="">
        <dc:format>image/svg+xml</dc:format>
        <dc:type
           rdf:resource="http://purl.org/dc/dcmitype/StillImage" />
        <dc:title />
        <dc:creator>
          <cc:Agent>
            <dc:title />
          </cc:Agent>
        </dc:creator>
        <dc:subject>
          <rdf:Bag />
        </dc:subject>
        <cc:license
           rdf:resource="http://creativecommons.org/licenses/publicdomain/" />
        <dc:description />
        <dc:contributor>
          <cc:Agent>
            <dc:title />
          </cc:Agent>
        </dc:contributor>
      </cc:Work>
      <cc:License
         rdf:about="http://creativecommons.org/licenses/publicdomain/">
        <cc:permits
           rdf:resource="http://creativecommons.org/ns#Reproduction" />
        <cc:permits
           rdf:resource="http://creativecommons.org/ns#Distribution" />
        <cc:permits
           rdf:resource="http://creativecommons.org/ns#DerivativeWorks" />
      </cc:License>
    </rdf:RDF>
  </metadata>
  <g
     inkscape:label="Layer 1"
     inkscape:groupmode="layer"
     id="layer1"
     transform="translate(-374.21785,-62.236374)">
    <g
       id="g5055"
       transform="matrix(0.53041727,0,0,-0.53041727,-36.868442,481.82554)" />
    <path
       style="fill:currentColor"
       d="m 576.26677,536.35147 c 87.9243,-87.43636 156.70117,-157.33048 233.20257,-232.36071 25.25659,-26.37883 41.25247,-52.19697 47.98753,-77.45357 5.25051,-18.18792 5.26327,-37.37924 1.68379,-54.30169 -6.2449,-26.63888 -22.39007,-49.60964 -39.56868,-66.92998 C 789.26407,74.997604 756.85141,60.685534 722.33411,62.369303 687.81674,64.053077 653.72034,81.452347 620.04488,114.56627 L 405.36379,330.08925 c -8.82389,10.42492 -8.69278,25.56027 0,34.51735 11.10557,9.63309 26.17534,10.0312 35.35924,0 L 655.40412,149.92551 c 22.02891,-20.94398 48.24318,-40.68909 78.29545,-37.8849 45.78862,6.42818 86.22484,62.47083 75.76977,101.86829 -13.25701,34.95396 -31.53297,50.89639 -56.82732,76.19073 -76.94543,76.74881 -136.94151,136.09963 -211.73449,210.8926 -14.03172,14.03147 -26.66002,21.88906 -37.88489,23.57283 -2.24531,0 -6.31415,-0.42094 -12.20736,-1.26283 -5.8932,-0.84189 -13.32959,-5.47226 -22.30999,-13.89113 -13.47019,-13.47018 -19.3634,-26.66003 -17.67962,-39.56867 1.86839,-15.06154 10.39539,-25.47906 20.20528,-35.35924 L 667.19053,238.32361 c 6.73509,-6.7351 12.4877,-11.64582 17.25867,-14.73302 6.07264,-3.66515 14.53257,-9.81121 20.62625,-3.78849 5.19693,7.57533 0.39077,14.92757 -3.78849,21.04717 -3.0872,4.48979 -7.99793,10.10264 -14.73305,16.83773 l -180.16372,180.16374 34.51734,35.35923 181.00562,-180.16373 c 12.90867,-12.90865 22.16944,-24.83566 27.78225,-35.78018 5.61286,-10.94453 8.55942,-20.90657 8.8398,-29.88698 -0.0907,-17.2912 -6.85774,-30.70766 -18.10052,-42.09433 -11.65539,-10.31766 -25.81289,-17.56167 -39.98964,-18.10056 -9.26076,-0.28036 -19.64373,2.2453 -31.14979,7.57697 -11.50607,5.33168 -23.99378,14.73302 -37.46396,28.20321 L 435.67171,399.12395 c -20.20528,20.20528 -31.71135,42.09433 -34.51736,65.66716 -2.21307,33.04741 12.68649,59.57465 32.83358,79.97923 18.93728,18.83441 39.39689,29.26688 64.82527,29.46603 30.57415,-1.22405 60.63548,-21.36179 77.45357,-37.8849 z"
       id="path5090"
       inkscape:connector-curvature="0"
       sodipodi:nodetypes="cccccsccccccccccscccscccscccscccssscccc" />
  </g>
</svg>
