<?xml version="1.0" encoding="UTF-8" standalone="no"?>
<!-- Created with Inkscape (http://www.inkscape.org/) -->

<svg
   xmlns:dc="http://purl.org/dc/elements/1.1/"
   xmlns:cc="http://creativecommons.org/ns#"
   xmlns:rdf="http://www.w3.org/1999/02/22-rdf-syntax-ns#"
   xmlns:svg="http://www.w3.org/2000/svg"
   xmlns="http://www.w3.org/2000/svg"
   xmlns:sodipodi="http://sodipodi.sourceforge.net/DTD/sodipodi-0.dtd"
   xmlns:inkscape="http://www.inkscape.org/namespaces/inkscape"
   width="987.97894"
   height="997.0191"
   id="svg2"
   sodipodi:version="0.32"
   inkscape:version="0.48.3.1 r9886"
   sodipodi:docname="github.svg"
   version="1.0"
   inkscape:output_extension="org.inkscape.output.svg.inkscape">
  <defs
     id="defs4" />
  <sodipodi:namedview
     id="base"
     pagecolor="#ffffff"
     bordercolor="#666666"
     borderopacity="1.0"
     inkscape:pageopacity="0.0"
     inkscape:pageshadow="2"
     inkscape:zoom="0.45254834"
     inkscape:cx="653.16907"
     inkscape:cy="242.38832"
     inkscape:document-units="px"
     inkscape:current-layer="layer1"
     inkscape:window-width="1487"
     inkscape:window-height="1021"
     inkscape:window-x="0"
     inkscape:window-y="28"
     showgrid="false"
     inkscape:window-maximized="0"
     fit-margin-top="0"
     fit-margin-left="0"
     fit-margin-right="0"
     fit-margin-bottom="0" />
  <metadata
     id="metadata7">
    <rdf:RDF>
      <cc:Work
         rdf:about="">
        <dc:format>image/svg+xml</dc:format>
        <dc:type
           rdf:resource="http://purl.org/dc/dcmitype/StillImage" />
        <dc:title></dc:title>
        <dc:creator>
          <cc:Agent>
            <dc:title />
          </cc:Agent>
        </dc:creator>
        <dc:subject>
          <rdf:Bag />
        </dc:subject>
        <cc:license
           rdf:resource="http://creativecommons.org/licenses/publicdomain/" />
        <dc:description />
        <dc:contributor>
          <cc:Agent>
            <dc:title />
          </cc:Agent>
        </dc:contributor>
      </cc:Work>
      <cc:License
         rdf:about="http://creativecommons.org/licenses/publicdomain/">
        <cc:permits
           rdf:resource="http://creativecommons.org/ns#Reproduction" />
        <cc:permits
           rdf:resource="http://creativecommons.org/ns#Distribution" />
        <cc:permits
           rdf:resource="http://creativecommons.org/ns#DerivativeWorks" />
      </cc:License>
    </rdf:RDF>
  </metadata>
  <g
     inkscape:label="Layer 1"
     inkscape:groupmode="layer"
     id="layer1"
     transform="translate(-374.21785,422.78273)">
    <g
       id="g6497"
       transform="matrix(1.316,0,0,-1.316,210.20732,478.42282)">
      <path
         id="path6499"
         d="M 848,393 C 848,351.667 840,314.167 824,280.5 808,246.833 785.167,218 755.5,194 725.833,170 690,151.5 648,138.5 606,125.5 559,118.667 507,118 V 73 c 0,-28 -7.66699,-53.8333 -23,-77.5 -15.33301,-23.6667 -35.667,-41.1667 -61,-52.5 -6.66699,-3.3333 -14.667,-6.1666 -24,-8.5 -9.33301,-2.3333 -19.667,-3.5 -31,-3.5 -10,0 -20.833,1.3333 -32.5,4 -11.667,2.6666 -24.167,7.3333 -37.5,14 V 79 c 10.667,-8 20.833,-13 30.5,-15 9.667,-2 18.333,-1.8333 26,0.5 7.66699,2.3335 13.833,6.6668 18.5,13 4.66699,6.3334 7,14.1667 7,23.5 V 462 H 507 V 237 c 10,0 22.5,0.66701 37.5,2 15,1.33299 30.667,3.83299 47,7.5 16.333,3.66701 32.667,9 49,16 16.333,7 31,16.333 44,28 13,11.667 23.667,25.833 32,42.5 8.333,16.667 12.5,36.667 12.5,60 0,31.334 -6.66699,57.668 -20,79 -13.333,21.334 -30.833,38.668 -52.5,52 -21.667,13.333 -46.167,23 -73.5,29 -27.333,6 -55,9 -83,9 -28.667,0 -56.667,-3.33301 -84,-10 -27.333,-6.66699 -51.833,-16.833 -73.5,-30.5 -21.667,-13.667 -39,-31.167 -52,-52.5 -13,-21.333 -19.5,-46.667 -19.5,-76 0,-9.33301 1,-19.333 3,-30 2,-10.667 4.66699,-21 8,-31 3.336,-10 7.16901,-19.167 11.5,-27.5 4.33301,-8.33301 8.83301,-14.5 13.5,-18.5 l -81,-87 c -12,11.333 -22.667,25 -32,41 -9.333,16 -17,32.667 -23,50 -6,17.333 -10.667,35 -14,53 -3.333,18 -5,34.667 -5,50 0,42.667 8.5,81.667 25.5,117 17,35.333 40.833,65.667 71.5,91 30.667,25.333 67.333,45 110,59 42.667,14 89.667,21 141,21 52,0 99.333,-7 142,-21 42.667,-14 79.334,-33.5 110,-58.5 30.67,-25 54.336,-55.333 71,-91 16.667,-35.667 25,-74.834 25,-117.5 z"
         inkscape:connector-curvature="0"
         style="fill:currentColor" />
    </g>
  </g>
</svg>
