<?xml version="1.0" encoding="UTF-8" standalone="no"?>
<!-- Created with Inkscape (http://www.inkscape.org/) -->

<svg
   xmlns:dc="http://purl.org/dc/elements/1.1/"
   xmlns:cc="http://creativecommons.org/ns#"
   xmlns:rdf="http://www.w3.org/1999/02/22-rdf-syntax-ns#"
   xmlns:svg="http://www.w3.org/2000/svg"
   xmlns="http://www.w3.org/2000/svg"
   xmlns:sodipodi="http://sodipodi.sourceforge.net/DTD/sodipodi-0.dtd"
   xmlns:inkscape="http://www.inkscape.org/namespaces/inkscape"
   width="987.97894"
   height="997.0191"
   id="svg2"
   sodipodi:version="0.32"
   inkscape:version="0.48.3.1 r9886"
   sodipodi:docname="asl.svg"
   version="1.0"
   inkscape:output_extension="org.inkscape.output.svg.inkscape">
  <defs
     id="defs4" />
  <sodipodi:namedview
     id="base"
     pagecolor="#ffffff"
     bordercolor="#666666"
     borderopacity="1.0"
     inkscape:pageopacity="0.0"
     inkscape:pageshadow="2"
     inkscape:zoom="0.45254834"
     inkscape:cx="564.78072"
     inkscape:cy="242.38832"
     inkscape:document-units="px"
     inkscape:current-layer="layer1"
     inkscape:window-width="1487"
     inkscape:window-height="1021"
     inkscape:window-x="0"
     inkscape:window-y="28"
     showgrid="false"
     inkscape:window-maximized="0"
     fit-margin-top="0"
     fit-margin-left="0"
     fit-margin-right="0"
     fit-margin-bottom="0" />
  <metadata
     id="metadata7">
    <rdf:RDF>
      <cc:Work
         rdf:about="">
        <dc:format>image/svg+xml</dc:format>
        <dc:type
           rdf:resource="http://purl.org/dc/dcmitype/StillImage" />
        <dc:title></dc:title>
        <dc:creator>
          <cc:Agent>
            <dc:title />
          </cc:Agent>
        </dc:creator>
        <dc:subject>
          <rdf:Bag />
        </dc:subject>
        <cc:license
           rdf:resource="http://creativecommons.org/licenses/publicdomain/" />
        <dc:description />
        <dc:contributor>
          <cc:Agent>
            <dc:title />
          </cc:Agent>
        </dc:contributor>
      </cc:Work>
      <cc:License
         rdf:about="http://creativecommons.org/licenses/publicdomain/">
        <cc:permits
           rdf:resource="http://creativecommons.org/ns#Reproduction" />
        <cc:permits
           rdf:resource="http://creativecommons.org/ns#Distribution" />
        <cc:permits
           rdf:resource="http://creativecommons.org/ns#DerivativeWorks" />
      </cc:License>
    </rdf:RDF>
  </metadata>
  <g
     inkscape:label="Layer 1"
     inkscape:groupmode="layer"
     id="layer1"
     transform="translate(-374.21785,422.78273)">
    <g
       id="g7583"
       transform="matrix(1.0324268,0,0,-1.0324268,347.86421,376.16302)">
      <path
         id="path7585"
         d="m 598,675 c 0,-13.335 -2.5,-25.668 -7.5,-37 -5,-11.338 -11.667,-21.171 -20,-29.5 -8.33301,-8.33301 -18.333,-15 -30,-20 -11.667,-5 -23.833,-7.5 -36.5,-7.5 -13.333,0 -25.667,2.5 -37,7.5 -11.333,5 -21.167,11.667 -29.5,20 -8.333,8.333 -15,18.167 -20,29.5 -5,11.333 -7.5,23.667 -7.5,37 0,12.672 2.5,24.839 7.5,36.5 5,11.667 11.667,21.667 20,30 8.33499,8.33301 18.168,15 29.5,20 11.335,5 23.669,7.5 37,7.5 26,0 48.167,-9.16699 66.5,-27.5 C 588.833,723.16699 598,701 598,675 z m 1,-122 c 14.667,0 28.167,-2.83301 40.5,-8.5 12.333,-5.66699 22.833,-13.333 31.5,-23 8.672,-9.66699 15.339,-20.5 20,-32.5 4.66699,-12 7,-24.333 7,-37 V 183 c 0,-9.33299 -3,-16.5 -9,-21.5 -6,-5 -12.5,-7.5 -19.5,-7.5 -7,0 -13.5,2.5 -19.5,7.5 -6,5 -9,12.167 -9,21.5 v 243 11 c 0,4 -2.16699,6.5 -6.5,7.5 -4.33301,1 -7.83301,1.5 -10.5,1.5 -2.66699,0 -6,-0.66699 -10,-2 -4,-1.33301 -6,-3.66699 -6,-7 v -583 c 0,-12 -4.16699,-21.833 -12.5,-29.5 -8.33301,-7.667 -18.5,-11.5 -30.5,-11.5 -11.333,0 -21.333,4.16701 -30,12.5 -8.667,8.33299 -13,18.167 -13,29.5 V 82 212 c 0,6 -2.33301,9.83299 -7,11.5 -4.66699,1.66701 -8,2.5 -10,2.5 -2.67099,0 -6.83701,-0.83299 -12.5,-2.5 -5.66699,-1.66701 -8.5,-5.83299 -8.5,-12.5 l 1,-129 v -227 c 0,-11.333 -4.33301,-21.166 -13,-29.5 -8.66699,-8.33299 -18.667,-12.5 -30,-12.5 -12,0 -22.167,3.83299 -30.5,11.5 -8.333,7.66701 -12.5,17.5 -12.5,29.5 l -1,583 c 0,3.34 -1.83301,5.673 -5.5,7 -3.673,1.33301 -6.83899,2 -9.5,2 -2.66699,0 -6,-0.5 -10,-1.5 -4,-1 -6,-3.5 -6,-7.5 V 426 183 c 0,-9.33299 -3,-16.5 -9,-21.5 -6,-5 -12.5,-7.5 -19.5,-7.5 -7,0 -13.5,2.5 -19.5,7.5 -6,5 -9,12.167 -9,21.5 v 269 c 0,12.667 1.66699,25 5,37 3.33301,12 8.5,22.833 15.5,32.5 7,9.67102 15.833,17.337 26.5,23 10.667,5.66699 23.667,8.5 39,8.5 h 96 2 1 104 v 0 z"
         inkscape:connector-curvature="0"
         style="fill:currentColor" />
    </g>
  </g>
</svg>
