<?xml version="1.0" encoding="UTF-8" standalone="no"?>
<!-- Created with Inkscape (http://www.inkscape.org/) -->

<svg
   xmlns:dc="http://purl.org/dc/elements/1.1/"
   xmlns:cc="http://creativecommons.org/ns#"
   xmlns:rdf="http://www.w3.org/1999/02/22-rdf-syntax-ns#"
   xmlns:svg="http://www.w3.org/2000/svg"
   xmlns="http://www.w3.org/2000/svg"
   xmlns:sodipodi="http://sodipodi.sourceforge.net/DTD/sodipodi-0.dtd"
   xmlns:inkscape="http://www.inkscape.org/namespaces/inkscape"
   width="987.97894"
   height="997.0191"
   id="svg2"
   sodipodi:version="0.32"
   inkscape:version="0.48.3.1 r9886"
   sodipodi:docname="laptop-alt.svg"
   version="1.0"
   inkscape:output_extension="org.inkscape.output.svg.inkscape">
  <defs
     id="defs4" />
  <sodipodi:namedview
     id="base"
     pagecolor="#ffffff"
     bordercolor="#666666"
     borderopacity="1.0"
     inkscape:pageopacity="0.0"
     inkscape:pageshadow="2"
     inkscape:zoom="0.64"
     inkscape:cx="98.715379"
     inkscape:cy="425.62412"
     inkscape:document-units="px"
     inkscape:current-layer="layer1"
     inkscape:window-width="1920"
     inkscape:window-height="1025"
     inkscape:window-x="0"
     inkscape:window-y="27"
     showgrid="false"
     inkscape:window-maximized="1"
     fit-margin-top="0"
     fit-margin-left="0"
     fit-margin-right="0"
     fit-margin-bottom="0" />
  <metadata
     id="metadata7">
    <rdf:RDF>
      <cc:Work
         rdf:about="">
        <dc:format>image/svg+xml</dc:format>
        <dc:type
           rdf:resource="http://purl.org/dc/dcmitype/StillImage" />
        <dc:title></dc:title>
        <dc:creator>
          <cc:Agent>
            <dc:title />
          </cc:Agent>
        </dc:creator>
        <dc:subject>
          <rdf:Bag />
        </dc:subject>
        <cc:license
           rdf:resource="http://creativecommons.org/licenses/publicdomain/" />
        <dc:description />
        <dc:contributor>
          <cc:Agent>
            <dc:title />
          </cc:Agent>
        </dc:contributor>
      </cc:Work>
      <cc:License
         rdf:about="http://creativecommons.org/licenses/publicdomain/">
        <cc:permits
           rdf:resource="http://creativecommons.org/ns#Reproduction" />
        <cc:permits
           rdf:resource="http://creativecommons.org/ns#Distribution" />
        <cc:permits
           rdf:resource="http://creativecommons.org/ns#DerivativeWorks" />
      </cc:License>
    </rdf:RDF>
  </metadata>
  <g
     inkscape:label="Layer 1"
     inkscape:groupmode="layer"
     id="layer1"
     transform="translate(-374.21785,422.78273)">
    <g
       id="g4154"
       transform="matrix(1.0448683,0,0,-1.0448683,341.44569,406.95007)">
      <path
         id="path4156"
         d="M 976,44 C 978,28.6667 973.33301,15.3333 962,4 L 829,-128 c -6,-6.66701 -13.833,-12.333 -23.5,-17 -9.667,-4.667 -19.167,-7.66701 -28.5,-9 -0.66699,0 -2.66699,-0.16701 -6,-0.5 -3.34497,-0.33299 -7.67798,-0.5 -13,-0.5 -12.667,0 -33.167,2.16701 -61.5,6.5 -28.333,4.33299 -63,15 -104,32 -41,17 -87.5,42.5 -139.5,76.5 -52,34 -107.333,80.6667 -166,140 -46.667,46 -85.333,90 -116,132 -30.667,42 -55.333,80.833 -74,116.5 -18.6667,35.667 -32.6667,68 -42,97 -9.3334,29 -15.6667,54 -19,75 -3.3333,21 -4.6667,37.5 -4,49.5 0.666698,12 1,18.667 1,20 1.3333,9.33301 4.3333,18.833 9,28.5 4.6667,9.667 10.3334,17.5 17,23.5 l 133,133 c 9.33299,9.33301 20,14 32,14 8.66701,0 16.334,-2.5 23,-7.5 6.66701,-5 12.333,-11.167 17,-18.5 L 371,560 c 6,-10.667 7.66699,-22.333 5,-35 -2.66901,-12.667 -8.336,-23.333 -17,-32 l -49,-49 c -1.33301,-1.33301 -2.5,-3.5 -3.5,-6.5 -1,-3 -1.5,-5.5 -1.5,-7.5 2.66699,-14 8.66699,-30 18,-48 8,-16 20.333,-35.5 37,-58.5 16.667,-23 40.333,-49.5 71,-79.5 30,-30.667 56.667,-54.5 80,-71.5 23.333,-17 42.833,-29.5 58.5,-37.5 15.667,-8 27.667,-12.833 36,-14.5 L 618,118 c 1.33301,0 3.5,0.5 6.5,1.5 3,1 5.16699,2.167 6.5,3.5 l 57,58 c 12,10.667 26,16 42,16 11.333,0 20.333,-2 27,-6 h 1 L 951,77 c 14,-8.6667 22.333,-19.6667 25,-33 z"
         inkscape:connector-curvature="0"
         style="fill:currentColor" />
    </g>
  </g>
</svg>
