<?xml version="1.0" encoding="UTF-8" standalone="no"?>
<!-- Created with Inkscape (http://www.inkscape.org/) -->

<svg
   xmlns:dc="http://purl.org/dc/elements/1.1/"
   xmlns:cc="http://creativecommons.org/ns#"
   xmlns:rdf="http://www.w3.org/1999/02/22-rdf-syntax-ns#"
   xmlns:svg="http://www.w3.org/2000/svg"
   xmlns="http://www.w3.org/2000/svg"
   xmlns:sodipodi="http://sodipodi.sourceforge.net/DTD/sodipodi-0.dtd"
   xmlns:inkscape="http://www.inkscape.org/namespaces/inkscape"
   width="987.97894"
   height="997.0191"
   id="svg2"
   sodipodi:version="0.32"
   inkscape:version="0.48.3.1 r9886"
   sodipodi:docname="phone-alt.svg"
   version="1.0"
   inkscape:output_extension="org.inkscape.output.svg.inkscape">
  <defs
     id="defs4" />
  <sodipodi:namedview
     id="base"
     pagecolor="#ffffff"
     bordercolor="#666666"
     borderopacity="1.0"
     inkscape:pageopacity="0.0"
     inkscape:pageshadow="2"
     inkscape:zoom="0.45254834"
     inkscape:cx="1068.5943"
     inkscape:cy="176.09706"
     inkscape:document-units="px"
     inkscape:current-layer="layer1"
     inkscape:window-width="1920"
     inkscape:window-height="1025"
     inkscape:window-x="0"
     inkscape:window-y="27"
     showgrid="false"
     inkscape:window-maximized="1"
     fit-margin-top="0"
     fit-margin-left="0"
     fit-margin-right="0"
     fit-margin-bottom="0" />
  <metadata
     id="metadata7">
    <rdf:RDF>
      <cc:Work
         rdf:about="">
        <dc:format>image/svg+xml</dc:format>
        <dc:type
           rdf:resource="http://purl.org/dc/dcmitype/StillImage" />
        <dc:title></dc:title>
        <dc:creator>
          <cc:Agent>
            <dc:title />
          </cc:Agent>
        </dc:creator>
        <dc:subject>
          <rdf:Bag />
        </dc:subject>
        <cc:license
           rdf:resource="http://creativecommons.org/licenses/publicdomain/" />
        <dc:description />
        <dc:contributor>
          <cc:Agent>
            <dc:title />
          </cc:Agent>
        </dc:contributor>
      </cc:Work>
      <cc:License
         rdf:about="http://creativecommons.org/licenses/publicdomain/">
        <cc:permits
           rdf:resource="http://creativecommons.org/ns#Reproduction" />
        <cc:permits
           rdf:resource="http://creativecommons.org/ns#Distribution" />
        <cc:permits
           rdf:resource="http://creativecommons.org/ns#DerivativeWorks" />
      </cc:License>
    </rdf:RDF>
  </metadata>
  <g
     inkscape:label="Layer 1"
     inkscape:groupmode="layer"
     id="layer1"
     transform="translate(-374.21785,422.78273)">
    <path
       style="fill:currentColor"
       inkscape:connector-curvature="0"
       d="m 1146.5413,246.47782 c 7.2377,-7.23766 9.87,-15.13367 7.896,-23.688 -0.6583,-3.948 -2.3027,-7.56734 -4.935,-10.857 -2.6323,-3.28966 -5.5933,-6.25066 -8.883,-8.883 l -116.466,-68.103 -0.987,-0.987 c -3.948,-1.974 -9.2117,-2.961 -15.792,-2.961 -10.5283,0 -18.75297,3.28966 -24.67497,9.87 l -34.545,34.545 c -1.974,1.974 -4.60632,2.961 -7.896,2.961 -7.896,-1.31566 -17.43733,-4.935 -28.623,-10.857 -9.21264,-5.26366 -20.89282,-12.66617 -35.0385,-22.2075 -14.14667,-9.54134 -30.43217,-23.52416 -48.8565,-41.9475 -13.15967,-13.817998 -25.33333,-27.635998 -36.519,-41.453998 -9.21168,-11.187645 -17.766,-23.360316 -25.662,-36.519 -7.896,-13.159671 -12.17267,-24.675 -12.831,-34.545 0,-3.289681 0.987,-5.922 2.961,-7.896 l 29.61,-29.61 c 5.27058,-5.263681 8.56025,-11.679171 9.87,-19.2465 1.31568,-7.567319 0.32868,-14.640171 -2.961,-21.2205 l -64.155,-120.414002 c -5.26368,-10.52833 -13.15967,-15.792 -23.688,-15.792 -6.58132,0 -13.16165,2.63232 -19.74,7.896 l -78.96,79.947 c -3.948,3.28968 -7.4025,8.06082 -10.3635,14.3115 -2.961,6.25068 -4.77016,12.00883 -5.4285,17.2725 v 24.675002 l 12.831,61.194 44.9085,91.791 94.2585,115.478998 c 35.532,35.532 68.76133,63.49667 99.687,83.895 30.92567,20.39803 58.7265,35.69653 83.4015,45.8955 24.675,10.19897 45.56683,16.61447 62.6745,19.2465 17.10767,2.63203 29.28127,3.948 36.51897,3.948 3.2897,0 5.922,-0.16453 7.896,-0.4935 1.974,-0.32897 3.2897,-0.4935 3.948,-0.4935 5.2637,-0.65803 10.857,-2.4675 16.779,-5.4285 5.922,-2.961 10.857,-6.4155 14.805,-10.3635 l 78.96,-78.96 v 0 z m -278.33397,-664.251 c 67.77433,0 131.7645,12.99583 191.97147,38.9865 60.207,25.99067 112.518,61.194 156.933,105.609 44.415,44.415 79.6183,96.726 105.609,156.933 25.9907,60.207002 38.9865,124.197173 38.9865,191.971502 0,45.401998 -5.922,89.158668 -17.766,131.270998 -11.844,42.11233 -28.4582,81.4275 -49.8435,117.9465 -21.3853,36.519 -47.0473,69.74803 -76.986,99.687 -29.9387,29.93897 -63.168,55.60067 -99.687,76.986 -36.519,21.38533 -75.8342,37.9995 -117.94647,49.8435 -42.11233,11.844 -85.869,17.766 -131.271,17.766 -45.402,0 -89.15867,-5.922 -131.271,-17.766 -42.11233,-11.844 -81.4275,-28.45817 -117.9465,-49.8435 -36.519,-21.38533 -69.74833,-47.04703 -99.687,-76.986 -29.93867,-29.93897 -55.60097,-63.168 -76.986,-99.687 -21.38503,-36.519 -37.9995,-75.83417 -49.8435,-117.9465 -11.844,-42.11233 -17.766,-85.869 -17.766,-131.270998 0,-45.402 5.922,-89.158671 17.766,-131.271 11.844,-42.112329 28.45847,-81.427502 49.8435,-117.946502 21.38503,-36.519 47.04733,-69.74833 76.986,-99.687 29.93867,-29.93867 63.168,-55.60067 99.687,-76.986 36.519,-21.38533 75.83417,-37.9995 117.9465,-49.8435 42.11233,-11.844 85.869,-17.766 131.271,-17.766 z"
       id="path4189" />
  </g>
</svg>
