<?xml version="1.0" encoding="UTF-8" standalone="no"?>
<!-- Created with Inkscape (http://www.inkscape.org/) -->

<svg
   xmlns:dc="http://purl.org/dc/elements/1.1/"
   xmlns:cc="http://creativecommons.org/ns#"
   xmlns:rdf="http://www.w3.org/1999/02/22-rdf-syntax-ns#"
   xmlns:svg="http://www.w3.org/2000/svg"
   xmlns="http://www.w3.org/2000/svg"
   xmlns:sodipodi="http://sodipodi.sourceforge.net/DTD/sodipodi-0.dtd"
   xmlns:inkscape="http://www.inkscape.org/namespaces/inkscape"
   width="987.97894"
   height="997.0191"
   id="svg2"
   sodipodi:version="0.32"
   inkscape:version="0.48.3.1 r9886"
   sodipodi:docname="slideshare.svg"
   version="1.0"
   inkscape:output_extension="org.inkscape.output.svg.inkscape">
  <defs
     id="defs4" />
  <sodipodi:namedview
     id="base"
     pagecolor="#ffffff"
     bordercolor="#666666"
     borderopacity="1.0"
     inkscape:pageopacity="0.0"
     inkscape:pageshadow="2"
     inkscape:zoom="0.45254834"
     inkscape:cx="564.78072"
     inkscape:cy="242.38832"
     inkscape:document-units="px"
     inkscape:current-layer="layer1"
     inkscape:window-width="1487"
     inkscape:window-height="1021"
     inkscape:window-x="0"
     inkscape:window-y="28"
     showgrid="false"
     inkscape:window-maximized="0"
     fit-margin-top="0"
     fit-margin-left="0"
     fit-margin-right="0"
     fit-margin-bottom="0" />
  <metadata
     id="metadata7">
    <rdf:RDF>
      <cc:Work
         rdf:about="">
        <dc:format>image/svg+xml</dc:format>
        <dc:type
           rdf:resource="http://purl.org/dc/dcmitype/StillImage" />
        <dc:title></dc:title>
        <dc:creator>
          <cc:Agent>
            <dc:title />
          </cc:Agent>
        </dc:creator>
        <dc:subject>
          <rdf:Bag />
        </dc:subject>
        <cc:license
           rdf:resource="http://creativecommons.org/licenses/publicdomain/" />
        <dc:description />
        <dc:contributor>
          <cc:Agent>
            <dc:title />
          </cc:Agent>
        </dc:contributor>
      </cc:Work>
      <cc:License
         rdf:about="http://creativecommons.org/licenses/publicdomain/">
        <cc:permits
           rdf:resource="http://creativecommons.org/ns#Reproduction" />
        <cc:permits
           rdf:resource="http://creativecommons.org/ns#Distribution" />
        <cc:permits
           rdf:resource="http://creativecommons.org/ns#DerivativeWorks" />
      </cc:License>
    </rdf:RDF>
  </metadata>
  <g
     inkscape:label="Layer 1"
     inkscape:groupmode="layer"
     id="layer1"
     transform="translate(-374.21785,422.78273)">
    <g
       id="g6900"
       transform="matrix(1.0477707,0,0,-1.0477707,344.32197,390.05803)">
      <path
         id="path6902"
         d="m 744,696 c 34.667,-21.333 66.167,-46.333 94.5,-75 28.333,-28.667 52.167,-60.167 71.5,-94.5 19.333,-34.333 34.333,-70.667 45,-109 10.667,-38.333 16,-77.833 16,-118.5 0,-53.333 -9,-104.333 -27,-153 H 744 v 550 0 z M 923,97 C 905,59.6667 882.667,25.8333 856,-4.5 829.333,-34.8333 799.667,-61.3333 767,-84 734.333,-106.667 699,-124.833 661,-138.5 623,-152.167 583.667,-161 543,-165 h -86 c -52,4.66701 -102,17.667 -150,39 V 97 H 923 z M 29,299 c 0,44 6,86.5 18,127.5 12,41 29,79.5 51,115.5 22,36 48.833,68.5 80.5,97.5 31.667,29 67.167,53.5 106.5,73.5 0.66699,-0.66699 5.5,-5 14.5,-13 9,-8 20,-17.667 33,-29 13,-11.338 26.833,-23.672 41.5,-37 14.667,-13.333 28.5,-25.833 41.5,-37.5 13,-11.667 24,-21.5 33,-29.5 9,-8 14.167,-12.667 15.5,-14 -1.33301,-1.33801 -12.333,-11.171 -33,-29.5 -20.667,-18.333 -46.167,-41.167 -76.5,-68.5 -30.333,-27.333 -63,-56.667 -98,-88 C 221.5,335.667 188.667,306.167 158,278.5 127.333,250.833 101.5,227.667 80.5,209 59.5,190.333 48,180 46,178 34.6667,219.333 29,259.667 29,299 z M 257,-99 C 213,-72.3333 174.5,-39.8333 141.5,-1.5 108.5,36.8333 82.3333,79.6667 63,127 c 0.666698,0.667 5.6667,5.16701 15,13.5 9.3334,8.33299 20.6668,18.667 34,31 13.333,12.333 28,25.5 44,39.5 16,14 31,27.5 45,40.5 14,13 26.167,24 36.5,33 10.333,9 16.833,14.833 19.5,17.5 v -401 0 z m 437,511 c -2.66699,2.66699 -13,12.167 -31,28.5 -18,16.334 -40,36.168 -66,59.5 -26,23.333 -53.833,48.333 -83.5,75 -29.668,26.667 -57.334,51.5 -83,74.5 -25.667,23 -47.5,42.5 -65.5,58.5 -18,16 -28,25 -30,27 27.334,9.33301 54.667,16.667 82,22 27.333,5.333 55,8 83,8 68,0 132.667,-14 194,-42 V 412 z"
         inkscape:connector-curvature="0"
         style="fill:currentColor" />
    </g>
  </g>
</svg>
