<?xml version="1.0" encoding="UTF-8" standalone="no"?>
<!-- Created with Inkscape (http://www.inkscape.org/) -->

<svg
   xmlns:dc="http://purl.org/dc/elements/1.1/"
   xmlns:cc="http://creativecommons.org/ns#"
   xmlns:rdf="http://www.w3.org/1999/02/22-rdf-syntax-ns#"
   xmlns:svg="http://www.w3.org/2000/svg"
   xmlns="http://www.w3.org/2000/svg"
   xmlns:sodipodi="http://sodipodi.sourceforge.net/DTD/sodipodi-0.dtd"
   xmlns:inkscape="http://www.inkscape.org/namespaces/inkscape"
   width="512"
   height="512"
   id="svg2"
   sodipodi:version="0.32"
   inkscape:version="0.48.3.1 r9886"
   sodipodi:docname="plus-alt.svg"
   version="1.0"
   inkscape:output_extension="org.inkscape.output.svg.inkscape">
  <defs
     id="defs4" />
  <sodipodi:namedview
     id="base"
     pagecolor="#ffffff"
     bordercolor="#666666"
     borderopacity="1.0"
     inkscape:pageopacity="0.0"
     inkscape:pageshadow="2"
     inkscape:zoom="1.28"
     inkscape:cx="406.32856"
     inkscape:cy="335.54659"
     inkscape:document-units="px"
     inkscape:current-layer="layer1"
     inkscape:window-width="1920"
     inkscape:window-height="1025"
     inkscape:window-x="0"
     inkscape:window-y="27"
     showgrid="false"
     inkscape:window-maximized="1"
     fit-margin-top="0"
     fit-margin-left="0"
     fit-margin-right="0"
     fit-margin-bottom="0" />
  <metadata
     id="metadata7">
    <rdf:RDF>
      <cc:Work
         rdf:about="">
        <dc:format>image/svg+xml</dc:format>
        <dc:type
           rdf:resource="http://purl.org/dc/dcmitype/StillImage" />
        <dc:title />
        <dc:creator>
          <cc:Agent>
            <dc:title />
          </cc:Agent>
        </dc:creator>
        <dc:subject>
          <rdf:Bag />
        </dc:subject>
        <cc:license
           rdf:resource="http://creativecommons.org/licenses/publicdomain/" />
        <dc:description />
        <dc:contributor>
          <cc:Agent>
            <dc:title />
          </cc:Agent>
        </dc:contributor>
      </cc:Work>
      <cc:License
         rdf:about="http://creativecommons.org/licenses/publicdomain/">
        <cc:permits
           rdf:resource="http://creativecommons.org/ns#Reproduction" />
        <cc:permits
           rdf:resource="http://creativecommons.org/ns#Distribution" />
        <cc:permits
           rdf:resource="http://creativecommons.org/ns#DerivativeWorks" />
      </cc:License>
    </rdf:RDF>
  </metadata>
  <g
     inkscape:label="Layer 1"
     inkscape:groupmode="layer"
     id="layer1"
     transform="translate(-374.21785,-62.236374)">
    <path
       style="fill:#000000;fill-opacity:1;stroke:none"
       d="M 256 0 C 114.61511 3.7895613e-14 0 114.6151 0 256 C 3.7895613e-14 397.3849 114.61511 512 256 512 C 397.38489 512 512 397.3849 512 256 C 512 114.6151 397.38489 -4.9737992e-14 256 0 z M 223.75 117.1875 L 288.25 117.1875 C 290.22595 117.1875 291.9029 117.8687 293.28125 119.25 C 294.66257 120.63132 295.375 122.30798 295.375 124.28125 L 295.375 216.625 L 387.71875 216.625 C 389.69617 216.625 391.37311 217.33743 392.75 218.71875 C 394.13131 220.10096 394.8125 221.77792 394.8125 223.75 L 394.8125 288.25 C 394.8125 290.22327 394.13131 291.89994 392.75 293.28125 C 391.36868 294.66257 389.69202 295.375 387.71875 295.375 L 295.375 295.375 L 295.375 387.71875 C 295.375 389.69203 294.66257 391.36869 293.28125 392.75 C 291.89994 394.13132 290.22328 394.8125 288.25 394.8125 L 223.75 394.8125 C 221.77584 394.8125 220.09918 394.13132 218.71875 392.75 C 217.33744 391.36898 216.625 389.69203 216.625 387.71875 L 216.625 295.375 L 124.28125 295.375 C 122.30807 295.375 120.63123 294.66257 119.25 293.28125 C 117.86876 291.89993 117.1875 290.22297 117.1875 288.25 L 117.1875 223.75 C 117.1875 221.77674 117.86876 220.10007 119.25 218.71875 C 120.63123 217.33743 122.3081 216.625 124.28125 216.625 L 216.625 216.625 L 216.625 124.28125 C 216.625 122.30474 217.33744 120.62777 218.71875 119.25 C 220.10007 117.8687 221.77673 117.1875 223.75 117.1875 z "
       transform="translate(374.21785,62.236374)"
       id="path3150" />
  </g>
</svg>
