<?xml version="1.0" encoding="UTF-8" standalone="no"?>
<!-- Created with Inkscape (http://www.inkscape.org/) -->

<svg
   xmlns:dc="http://purl.org/dc/elements/1.1/"
   xmlns:cc="http://creativecommons.org/ns#"
   xmlns:rdf="http://www.w3.org/1999/02/22-rdf-syntax-ns#"
   xmlns:svg="http://www.w3.org/2000/svg"
   xmlns="http://www.w3.org/2000/svg"
   xmlns:sodipodi="http://sodipodi.sourceforge.net/DTD/sodipodi-0.dtd"
   xmlns:inkscape="http://www.inkscape.org/namespaces/inkscape"
   width="512"
   height="512"
   id="svg2"
   sodipodi:version="0.32"
   inkscape:version="0.48.3.1 r9886"
   sodipodi:docname="plus.svg"
   version="1.0"
   inkscape:output_extension="org.inkscape.output.svg.inkscape">
  <defs
     id="defs4" />
  <sodipodi:namedview
     id="base"
     pagecolor="#ffffff"
     bordercolor="#666666"
     borderopacity="1.0"
     inkscape:pageopacity="0.0"
     inkscape:pageshadow="2"
     inkscape:zoom="0.64"
     inkscape:cx="-24.72212"
     inkscape:cy="363.12411"
     inkscape:document-units="px"
     inkscape:current-layer="layer1"
     inkscape:window-width="1920"
     inkscape:window-height="1025"
     inkscape:window-x="0"
     inkscape:window-y="27"
     showgrid="false"
     inkscape:window-maximized="1"
     fit-margin-top="0"
     fit-margin-left="0"
     fit-margin-right="0"
     fit-margin-bottom="0" />
  <metadata
     id="metadata7">
    <rdf:RDF>
      <cc:Work
         rdf:about="">
        <dc:format>image/svg+xml</dc:format>
        <dc:type
           rdf:resource="http://purl.org/dc/dcmitype/StillImage" />
        <dc:title />
        <dc:creator>
          <cc:Agent>
            <dc:title />
          </cc:Agent>
        </dc:creator>
        <dc:subject>
          <rdf:Bag />
        </dc:subject>
        <cc:license
           rdf:resource="http://creativecommons.org/licenses/publicdomain/" />
        <dc:description />
        <dc:contributor>
          <cc:Agent>
            <dc:title />
          </cc:Agent>
        </dc:contributor>
      </cc:Work>
      <cc:License
         rdf:about="http://creativecommons.org/licenses/publicdomain/">
        <cc:permits
           rdf:resource="http://creativecommons.org/ns#Reproduction" />
        <cc:permits
           rdf:resource="http://creativecommons.org/ns#Distribution" />
        <cc:permits
           rdf:resource="http://creativecommons.org/ns#DerivativeWorks" />
      </cc:License>
    </rdf:RDF>
  </metadata>
  <g
     inkscape:label="Layer 1"
     inkscape:groupmode="layer"
     id="layer1"
     transform="translate(-374.21785,-62.236374)">
    <g
       id="g3230"
       transform="matrix(1.0522388,0,0,-1.0522388,342.08792,391.39846)">
      <path
         id="path3232"
         d="m 504.66654,138.52284 c 3.46575,0 6.40545,-1.21023 8.81865,-3.63121 2.42097,-2.42253 3.6312,-5.36225 3.6312,-8.81864 V 12.986867 c 0,-3.4584689 -1.21023,-6.3976649 -3.6312,-8.8186419 -2.42097,-2.4209767 -5.36018,-3.6312057 -8.81865,-3.6312057 H 342.81852 V -161.311 c 0,-3.45847 -1.21023,-6.39767 -3.63121,-8.81864 -2.42097,-2.42098 -5.36017,-3.63121 -8.81864,-3.63121 H 217.28255 c -3.46002,0 -6.39922,1.21022 -8.81864,3.63121 -2.42097,2.42045 -3.63121,5.36017 -3.63121,8.81864 V 0.5370194 H 42.984677 c -3.458308,0 -6.397821,1.2102238 -8.818642,3.6312057 -2.420821,2.420982 -3.631206,5.360697 -3.631206,8.8186419 V 126.07299 c 0,3.45846 1.210385,6.39767 3.631206,8.81864 2.420821,2.42098 5.360386,3.63121 8.818642,3.63121 H 204.8327 v 161.84802 c 0,3.46416 1.21024,6.4039 3.63121,8.81865 2.42097,2.42097 5.36018,3.6312 8.81864,3.6312 h 113.08612 c 3.46315,0 6.40285,-1.21023 8.81864,-3.6312 2.42098,-2.42097 3.63121,-5.36018 3.63121,-8.81865 V 138.52284 h 161.84802 v 0 z"
         inkscape:connector-curvature="0"
         style="fill:currentColor" />
    </g>
  </g>
</svg>
