<?xml version="1.0" encoding="UTF-8" standalone="no"?>
<!-- Created with Inkscape (http://www.inkscape.org/) -->

<svg
   xmlns:dc="http://purl.org/dc/elements/1.1/"
   xmlns:cc="http://creativecommons.org/ns#"
   xmlns:rdf="http://www.w3.org/1999/02/22-rdf-syntax-ns#"
   xmlns:svg="http://www.w3.org/2000/svg"
   xmlns="http://www.w3.org/2000/svg"
   xmlns:sodipodi="http://sodipodi.sourceforge.net/DTD/sodipodi-0.dtd"
   xmlns:inkscape="http://www.inkscape.org/namespaces/inkscape"
   width="987.97894"
   height="997.0191"
   id="svg2"
   sodipodi:version="0.32"
   inkscape:version="0.48.3.1 r9886"
   sodipodi:docname="person.svg"
   version="1.0"
   inkscape:output_extension="org.inkscape.output.svg.inkscape">
  <defs
     id="defs4" />
  <sodipodi:namedview
     id="base"
     pagecolor="#ffffff"
     bordercolor="#666666"
     borderopacity="1.0"
     inkscape:pageopacity="0.0"
     inkscape:pageshadow="2"
     inkscape:zoom="0.45254834"
     inkscape:cx="564.78072"
     inkscape:cy="242.38832"
     inkscape:document-units="px"
     inkscape:current-layer="layer1"
     inkscape:window-width="1487"
     inkscape:window-height="1021"
     inkscape:window-x="0"
     inkscape:window-y="28"
     showgrid="false"
     inkscape:window-maximized="0"
     fit-margin-top="0"
     fit-margin-left="0"
     fit-margin-right="0"
     fit-margin-bottom="0" />
  <metadata
     id="metadata7">
    <rdf:RDF>
      <cc:Work
         rdf:about="">
        <dc:format>image/svg+xml</dc:format>
        <dc:type
           rdf:resource="http://purl.org/dc/dcmitype/StillImage" />
        <dc:title></dc:title>
        <dc:creator>
          <cc:Agent>
            <dc:title />
          </cc:Agent>
        </dc:creator>
        <dc:subject>
          <rdf:Bag />
        </dc:subject>
        <cc:license
           rdf:resource="http://creativecommons.org/licenses/publicdomain/" />
        <dc:description />
        <dc:contributor>
          <cc:Agent>
            <dc:title />
          </cc:Agent>
        </dc:contributor>
      </cc:Work>
      <cc:License
         rdf:about="http://creativecommons.org/licenses/publicdomain/">
        <cc:permits
           rdf:resource="http://creativecommons.org/ns#Reproduction" />
        <cc:permits
           rdf:resource="http://creativecommons.org/ns#Distribution" />
        <cc:permits
           rdf:resource="http://creativecommons.org/ns#DerivativeWorks" />
      </cc:License>
    </rdf:RDF>
  </metadata>
  <g
     inkscape:label="Layer 1"
     inkscape:groupmode="layer"
     id="layer1"
     transform="translate(-374.21785,422.78273)">
    <g
       id="g7616"
       transform="matrix(1.0798232,0,0,-1.0798232,340.3088,399.69457)">
      <path
         id="path7618"
         d="m 562,-64 c 0,-12.6667 -2.33301,-24.6667 -7,-36 -4.66699,-11.333 -11.333,-21.167 -20,-29.5 -8.66699,-8.33299 -18.667,-15 -30,-20 -11.333,-5 -23.333,-7.5 -36,-7.5 -12.667,0 -24.667,2.5 -36,7.5 -11.333,5 -21.167,11.667 -29.5,20 -8.33301,8.333 -14.833,18.167 -19.5,29.5 -4.66699,11.3333 -7,23.3333 -7,36 0,12.6667 2.33301,24.6667 7,36 4.66699,11.3333 11.167,21.1667 19.5,29.5 8.33401,8.33333 18.167,15 29.5,20 11.333,5 23.333,7.5 36,7.5 12.667,0 24.667,-2.5 36,-7.5 11.333,-5 21.333,-11.6667 30,-20 8.67102,-8.33333 15.338,-18.1667 20,-29.5 4.66699,-11.3333 7,-23.3333 7,-36 z M 476,70 h -8 c -21.333,2.6667 -38.833,12.3333 -52.5,29 -13.667,16.667 -19.5,35.667 -17.5,57 4,36.667 13.167,72.167 27.5,106.5 14.333,34.333 32.833,64.833 55.5,91.5 7.33301,9.33301 15.333,17.833 24,25.5 8.67102,7.66699 17.337,15.167 26,22.5 22,18.667 38.833,35.333 50.5,50 11.667,14.667 17.5,32.667 17.5,54 0,18.667 -3.83301,34 -11.5,46 -7.66699,12 -17,21.5 -28,28.5 -11,7 -22.5,12 -34.5,15 -12,3 -22.667,4.5 -32,4.5 h -2 c -18.667,0 -34,-2.5 -46,-7.5 -12,-5 -22.167,-12 -30.5,-21 -8.333,-9 -15.333,-19.833 -21,-32.5 -5.667,-12.667 -11.5,-26.333 -17.5,-41 -8,-20.667 -17.667,-35.167 -29,-43.5 -11.333,-8.333 -22.667,-13.167 -34,-14.5 -12.667,-2.66699 -25.667,-1.66699 -39,3 -13.333,5.33301 -24,13 -32,23 -7.33299,8.66699 -13,19.833 -17,33.5 -4,13.667 -2.66701,30.5 4,50.5 4,12.669 11,30.836 21,54.5 10,23.667 25.167,46.833 45.5,69.5 20.333,22.669 46.5,42.336 78.5,59 32,16.667 72,24.667 120,24 32,-0.66699 63.5,-6.5 94.5,-17.5 31,-11 58.833,-27.167 83.5,-48.5 24.667,-21.333 44.667,-47.5 60,-78.5 15.333,-31 23,-66.5 23,-106.5 0,-29.333 -4,-55.333 -12,-78 -8,-22.667 -18.167,-43 -30.5,-61 -12.336,-18 -25.669,-33.667 -40,-47 -14.333,-13.333 -27.5,-25.333 -39.5,-36 -6.66699,-6 -13,-11.5 -19,-16.5 -6,-5 -10.667,-9.83301 -14,-14.5 C 588,238.333 577.833,221.167 569.5,201.5 561.167,181.833 556,161.333 554,140 552,119.333 543.5,102.5 528.5,89.5 513.5,76.5 496,70 476,70 z"
         inkscape:connector-curvature="0"
         style="fill:currentColor" />
    </g>
  </g>
</svg>
