<?xml version="1.0" encoding="UTF-8" standalone="no"?>
<!-- Created with Inkscape (http://www.inkscape.org/) -->

<svg
   xmlns:dc="http://purl.org/dc/elements/1.1/"
   xmlns:cc="http://creativecommons.org/ns#"
   xmlns:rdf="http://www.w3.org/1999/02/22-rdf-syntax-ns#"
   xmlns:svg="http://www.w3.org/2000/svg"
   xmlns="http://www.w3.org/2000/svg"
   xmlns:sodipodi="http://sodipodi.sourceforge.net/DTD/sodipodi-0.dtd"
   xmlns:inkscape="http://www.inkscape.org/namespaces/inkscape"
   width="987.97894"
   height="997.0191"
   id="svg2"
   sodipodi:version="0.32"
   inkscape:version="0.48.3.1 r9886"
   sodipodi:docname="behance.svg"
   version="1.0"
   inkscape:output_extension="org.inkscape.output.svg.inkscape">
  <defs
     id="defs4" />
  <sodipodi:namedview
     id="base"
     pagecolor="#ffffff"
     bordercolor="#666666"
     borderopacity="1.0"
     inkscape:pageopacity="0.0"
     inkscape:pageshadow="2"
     inkscape:zoom="0.45254834"
     inkscape:cx="653.16907"
     inkscape:cy="242.38832"
     inkscape:document-units="px"
     inkscape:current-layer="layer1"
     inkscape:window-width="1487"
     inkscape:window-height="1021"
     inkscape:window-x="0"
     inkscape:window-y="28"
     showgrid="false"
     inkscape:window-maximized="0"
     fit-margin-top="0"
     fit-margin-left="0"
     fit-margin-right="0"
     fit-margin-bottom="0" />
  <metadata
     id="metadata7">
    <rdf:RDF>
      <cc:Work
         rdf:about="">
        <dc:format>image/svg+xml</dc:format>
        <dc:type
           rdf:resource="http://purl.org/dc/dcmitype/StillImage" />
        <dc:title></dc:title>
        <dc:creator>
          <cc:Agent>
            <dc:title />
          </cc:Agent>
        </dc:creator>
        <dc:subject>
          <rdf:Bag />
        </dc:subject>
        <cc:license
           rdf:resource="http://creativecommons.org/licenses/publicdomain/" />
        <dc:description />
        <dc:contributor>
          <cc:Agent>
            <dc:title />
          </cc:Agent>
        </dc:contributor>
      </cc:Work>
      <cc:License
         rdf:about="http://creativecommons.org/licenses/publicdomain/">
        <cc:permits
           rdf:resource="http://creativecommons.org/ns#Reproduction" />
        <cc:permits
           rdf:resource="http://creativecommons.org/ns#Distribution" />
        <cc:permits
           rdf:resource="http://creativecommons.org/ns#DerivativeWorks" />
      </cc:License>
    </rdf:RDF>
  </metadata>
  <g
     inkscape:label="Layer 1"
     inkscape:groupmode="layer"
     id="layer1"
     transform="translate(-374.21785,422.78273)">
    <g
       id="g6673"
       transform="matrix(1.0367647,0,0,-1.0367647,349.82497,386.75623)">
      <path
         id="path6675"
         d="m 633,78 c 3.33301,3.3333 7.5,5 12.5,5 5,0 9.16699,-1.6667 12.5,-5 3.33301,-3.3333 5,-7.3333 5,-12 0,-4.6667 -1.66699,-8.6667 -5,-12 -0.66699,-0.666698 -4.16699,-3.6667 -10.5,-9 -6.33301,-5.3334 -16,-11.1667 -29,-17.5 C 605.5,21.1667 589,15.3333 569,10 549,4.66667 525.333,2 498,2 c -27.333,0 -50.667,2.66667 -70,8 -19.333,5.3333 -35.333,11.1667 -48,17.5 -12.668,6.3333 -21.835,12.1667 -27.5,17.5 -5.672,5.3333 -8.83899,8.3333 -9.5,9 -3.33301,4 -4.83301,8.3333 -4.5,13 0.33301,4.6667 2.5,8.6667 6.5,12 3.33301,3.3336 7.33301,4.667 12,4 4.66699,-0.666702 8.66699,-2.6667 12,-6 l 7.5,-6.5 23,-14 39.5,-13.5 59,-6 60.5,6.5 42,14 24.5,14 z m 109,534 v 0 l 5,-1 c 4.66699,-1.33301 9,-0.83301 13,1.5 4,2.33301 6.66699,6.16699 8,11.5 1.33301,4.67603 0.66699,8.84302 -2,12.5 -2.66699,3.66699 -6.33301,6.16699 -11,7.5 l -7,2 c -4,-11.338 -6,-22.671 -6,-34 z M 499,455 h -12 c 2,-4.67401 5,-7.34 9,-8 1.33301,-0.66699 3.33301,-1 6,-1 6,0 10.667,3 14,9 h -17 z m -12,0 v 0 h 12 17 l 2,2 5,15 h -24 -12 l -1,-3 c -2,-4.67001 -1.66699,-9.33701 1,-14 z m 12,17 h -12 l 77,218 184,-44 c -4,-11.338 -6,-22.671 -6,-34 L 586,649 523,472 H 499 z M 645,169 c -19.333,0 -35.5,6.5 -48.5,19.5 -13,13 -19.5,28.833 -19.5,47.5 0,18.667 6.5,34.5 19.5,47.5 13,13 29.167,19.5 48.5,19.5 18.667,0 34.5,-6.5 47.5,-19.5 13,-13 19.5,-28.833 19.5,-47.5 0,-18.667 -6.5,-34.5 -19.5,-47.5 -13,-13 -28.833,-19.5 -47.5,-19.5 z m -214,67 c 0,-18.667 -6.66699,-34.5 -20,-47.5 -13.33301,-13 -29.333,-19.5 -48,-19.5 -18.667,0 -34.5,6.5 -47.5,19.5 -13,13 -19.5,28.833 -19.5,47.5 0,18.667 6.5,34.5 19.5,47.5 13,13 28.833,19.5 47.5,19.5 18.667,0 34.667,-6.5 48,-19.5 13.333,-13 20,-28.833 20,-47.5 z m 358,152 c 1.33301,1.345 2.33301,2.17899 3,2.5 0.69098,0.345 1.35797,1.17899 2,2.5 5.33301,-3.33301 10.333,-6.83301 15,-10.5 4.66803,-3.66699 9.33502,-7.16699 14,-10.5 -4,-2.66699 -7.33301,-5.33401 -10,-8 z M 903,245 c 4,2 7.66699,4.66701 11,8 2.66699,-5.33299 4.66699,-11 6,-17 l 4,-18 c -0.66699,-0.66701 -1.33301,-1.16701 -2,-1.5 -0.66699,-0.33299 -1.33301,-0.83299 -2,-1.5 l -17,30 v 0 z m -37,175 c 15.333,0 29.667,-2.83301 43,-8.5 13.333,-5.66699 25,-13.5 35,-23.5 10,-10 17.833,-21.667 23.5,-35 5.667,-13.333 8.5,-27.333 8.5,-42 0,-19.333 -4.66699,-37.167 -14,-53.5 C 952.66699,241.167 940,228 924,218 l -4,18 -6,17 c 8.66699,7.33301 15.5,16 20.5,26 5,10 7.5,20.667 7.5,32 0,20.667 -7.33301,38.333 -22,53 -14.66699,14.667 -32.667,22 -54,22 -15.34,0 -29.673,-4.66699 -43,-14 -4.66699,3.33301 -9.33301,6.83301 -14,10.5 -4.66699,3.66699 -9.66699,7.16699 -15,10.5 21.333,18 45.333,27 72,27 z M 187,364 c -2,1.33301 -3.83299,2.83301 -5.5,4.5 -1.66701,1.66699 -3.5,3.16699 -5.5,4.5 10,7.33301 19.667,14 29,20 1.33299,-0.67899 3.33299,-2.345 6,-5 l -24,-24 v 0 z M 80,215 97,245 c -2.6667,1.33299 -5,2.83299 -7,4.5 -2,1.66701 -4,3.16701 -6,4.5 -2,-5.33299 -3.8333,-11 -5.5,-17 -1.6667,-6 -3.1667,-12 -4.5,-18 1.3333,-1.33501 3.3333,-2.668 6,-4 z m -22,96 c 0,-22 8.6667,-41 26,-57 -2,-5.33299 -3.8333,-11 -5.5,-17 -1.6667,-6 -3.1667,-12 -4.5,-18 -15.3333,10 -27.5,23 -36.5,39 -9,16 -13.5,33.667 -13.5,53 0,14.667 2.8333,28.667 8.5,42 5.6667,13.333 13.5,25 23.5,35 10,10 21.5,17.833 34.5,23.5 13,5.667 27.167,8.5 42.5,8.5 28,0 52,-9 72,-27 -9.33299,-6 -19,-12.667 -29,-20 -14,8.66699 -28.333,13 -43,13 -20.667,0 -38.3334,-7.33301 -53,-22 C 65.3333,349.333 58,331.666 58,311 z m 773,356 c -15.333,0 -28.333,-5.33301 -39,-16 -10.667,-10.66699 -16,-23.667 -16,-39 0,-15.333 5.33301,-28.333 16,-39 10.66699,-10.667 23.667,-16 39,-16 15.333,0 28.333,5.33301 39,16 10.667,10.66699 16,23.667 16,39 0,15.333 -5.33301,28.333 -16,39 -10.66699,10.667 -23.667,16 -39,16 z m 0,-144 c -24.667,0 -45.667,8.66699 -63,26 -17.333,17.33301 -26,38.333 -26,63 l 5,-1 c 4.66699,-1.33301 9,-0.83301 13,1.5 4,2.33301 6.66699,6.16699 8,11.5 1.33301,4.67603 0.66699,8.84302 -2,12.5 -2.66699,3.66699 -6.33301,6.16699 -11,7.5 l -7,2 c 7.33301,16.667 18.333,30.167 33,40.5 14.67,10.333 31.336,15.5 50,15.5 25.333,0 46.667,-8.66699 64,-26 17.333,-17.336 26,-38.669 26,-64 0,-24.667 -8.66699,-45.667 -26,-63 -17.337,-17.333 -38.67,-26 -64,-26 z m 93,-305 c 2,-11.333 3,-22.333 3,-33 C 927,145.667 915.833,108.5 893.5,73.5 871.167,38.5 840.5,8 801.5,-18 762.5,-44 717,-64.5 665,-79.5 613,-94.5 557.667,-102 499,-102 c -59.333,0 -114.833,7.5 -166.5,22.5 -51.667,15 -97,35.5 -136,61.5 -39,26 -69.667,56.5 -92,91.5 C 82.1667,108.5 71,145.667 71,185 c 0,6 0.333298,11.833 1,17.5 0.666702,5.667 1.3333,11.167 2,16.5 1.3333,-1.33501 3.3333,-2.668 6,-4 l 17,30 c -2.6667,1.33299 -5,2.83299 -7,4.5 -2,1.66701 -4,3.16701 -6,4.5 17.333,45.333 48,85 92,119 2,-1.33301 3.83299,-2.83301 5.5,-4.5 1.66701,-1.66699 3.5,-3.16699 5.5,-4.5 l 24,24 c -2.66701,2.66699 -4.66701,4.33301 -6,5 37.333,23.333 80,42 128,56 48,14 99.333,21.667 154,23 l -1,-3 c -2,-4.67001 -1.66699,-9.33701 1,-14 C 431.667,453.66699 379.833,445.83301 331.5,431.5 283.167,417.16699 241,397.833 205,373.5 169,349.167 140.5,320.833 119.5,288.5 98.5,256.167 88,221.667 88,185 c 0,-37.333 10.8333,-72.333 32.5,-105 21.667,-32.6667 51,-61.3333 88,-86 37,-24.6667 80.5,-44 130.5,-58 50,-14 103.333,-21 160,-21 56.667,0 110,7 160,21 50,14 93.5,33.3333 130.5,58 37,24.6667 66.333,53.3333 88,86 21.667,32.667 32.5,67.667 32.5,105 0,36.667 -10.333,71 -31,103 -20.667,32 -48.667,60.167 -84,84.5 -35.333,24.333 -77,43.833 -125,58.5 -48,14.667 -99.333,22.667 -154,24 l 2,2 5,15 c 52.667,-2 102,-10 148,-24 46,-14 87,-32.333 123,-55 -0.66699,-1.33301 -1.33301,-2.16699 -2,-2.5 -0.66699,-0.33301 -1.66699,-1.16699 -3,-2.5 l 24,-24 c 2.66699,2.66699 6,5.33301 10,8 44.667,-34.667 75,-74.333 91,-119 -3.33301,-3.33299 -7,-6 -11,-8 l 17,-30 c 0.69501,0.66701 1.36102,1.16701 2,1.5 0.69501,0.33299 1.362,0.83299 2,1.5 z m -31,-33 c 0,34.667 -10.333,67.5 -31,98.5 -20.667,31 -48.833,57.833 -84.5,80.5 -35.667,22.667 -77.5,40.667 -125.5,54 -48,13.333 -99,20 -153,20 -54,0 -105,-6.66699 -153,-20 -48,-13.33301 -89.667,-31.333 -125,-54 -35.333,-22.667 -63.333,-49.5 -84,-80.5 -20.667,-31 -31,-63.833 -31,-98.5 0,-34.667 10.333,-67.333 31,-98 20.667,-30.6667 48.667,-57.3333 84,-80 35.333,-22.6667 77,-40.6667 125,-54 48,-13.3333 99,-20 153,-20 54,0 105,6.6667 153,20 48,13.3333 89.833,31.3333 125.5,54 35.668,22.6667 63.835,49.3333 84.5,80 20.667,30.667 31,63.333 31,98 z M 502,446 c 6,0 10.667,3 14,9 54.667,-1.33301 106,-9.33301 154,-24 48,-14.66699 89.667,-34.167 125,-58.5 35.333,-24.333 63.333,-52.5 84,-84.5 20.667,-32 31,-66.333 31,-103 0,-37.333 -10.833,-72.333 -32.5,-105 -21.667,-32.6667 -51,-61.3333 -88,-86 C 752.5,-30.6667 709,-50 659,-64 609,-78 555.667,-85 499,-85 c -56.667,0 -110,7 -160,21 -50,14 -93.5,33.3333 -130.5,58 -37,24.6667 -66.333,53.3333 -88,86 C 98.8333,112.667 88,147.667 88,185 c 0,36.667 10.5,71.167 31.5,103.5 21,32.334 49.5,60.667 85.5,85 36,24.334 78.167,43.667 126.5,58 48.334,14.335 100.167,22.168 155.5,23.5 2,-4.67401 5,-7.34 9,-8 1.33301,-0.66699 3.33301,-1 6,-1 z m 329,111 c -15.333,0 -28.333,5.33301 -39,16 -10.667,10.66699 -16,23.667 -16,39 0,15.333 5.33301,28.333 16,39 10.66699,10.667 23.667,16 39,16 15.333,0 28.333,-5.33301 39,-16 10.667,-10.66699 16,-23.667 16,-39 0,-15.333 -5.33301,-28.333 -16,-39 -10.66699,-10.667 -23.667,-16 -39,-16 z m 83,-304 c -16,44.667 -46.333,84.333 -91,119 13.333,9.33301 27.667,14 43,14 21.333,0 39.333,-7.33301 54,-22 14.667,-14.66699 22,-32.334 22,-53 0,-11.333 -2.5,-22 -7.5,-32 -5,-10 -11.833,-18.667 -20.5,-26 z M 58,311 c 0,20.667 7.3333,38.333 22,53 14.6667,14.667 32.333,22 53,22 14.667,0 29,-4.33301 43,-13 -44,-34 -74.667,-73.667 -92,-119 -17.3333,16 -26,35 -26,57 z"
         inkscape:connector-curvature="0"
         style="fill:currentColor" />
    </g>
  </g>
</svg>
