<?xml version="1.0" encoding="UTF-8" standalone="no"?>
<!-- Created with Inkscape (http://www.inkscape.org/) -->

<svg
   xmlns:dc="http://purl.org/dc/elements/1.1/"
   xmlns:cc="http://creativecommons.org/ns#"
   xmlns:rdf="http://www.w3.org/1999/02/22-rdf-syntax-ns#"
   xmlns:svg="http://www.w3.org/2000/svg"
   xmlns="http://www.w3.org/2000/svg"
   xmlns:sodipodi="http://sodipodi.sourceforge.net/DTD/sodipodi-0.dtd"
   xmlns:inkscape="http://www.inkscape.org/namespaces/inkscape"
   width="987.97894"
   height="997.0191"
   id="svg2"
   sodipodi:version="0.32"
   inkscape:version="0.48.3.1 r9886"
   sodipodi:docname="unlock-alt.svg"
   version="1.0"
   inkscape:output_extension="org.inkscape.output.svg.inkscape">
  <defs
     id="defs4" />
  <sodipodi:namedview
     id="base"
     pagecolor="#ffffff"
     bordercolor="#666666"
     borderopacity="1.0"
     inkscape:pageopacity="0.0"
     inkscape:pageshadow="2"
     inkscape:zoom="0.45254834"
     inkscape:cx="184.71082"
     inkscape:cy="352.87375"
     inkscape:document-units="px"
     inkscape:current-layer="layer1"
     inkscape:window-width="1487"
     inkscape:window-height="1021"
     inkscape:window-x="0"
     inkscape:window-y="28"
     showgrid="false"
     inkscape:window-maximized="0"
     fit-margin-top="0"
     fit-margin-left="0"
     fit-margin-right="0"
     fit-margin-bottom="0" />
  <metadata
     id="metadata7">
    <rdf:RDF>
      <cc:Work
         rdf:about="">
        <dc:format>image/svg+xml</dc:format>
        <dc:type
           rdf:resource="http://purl.org/dc/dcmitype/StillImage" />
        <dc:title></dc:title>
        <dc:creator>
          <cc:Agent>
            <dc:title />
          </cc:Agent>
        </dc:creator>
        <dc:subject>
          <rdf:Bag />
        </dc:subject>
        <cc:license
           rdf:resource="http://creativecommons.org/licenses/publicdomain/" />
        <dc:description />
        <dc:contributor>
          <cc:Agent>
            <dc:title />
          </cc:Agent>
        </dc:contributor>
      </cc:Work>
      <cc:License
         rdf:about="http://creativecommons.org/licenses/publicdomain/">
        <cc:permits
           rdf:resource="http://creativecommons.org/ns#Reproduction" />
        <cc:permits
           rdf:resource="http://creativecommons.org/ns#Distribution" />
        <cc:permits
           rdf:resource="http://creativecommons.org/ns#DerivativeWorks" />
      </cc:License>
    </rdf:RDF>
  </metadata>
  <g
     inkscape:label="Layer 1"
     inkscape:groupmode="layer"
     id="layer1"
     transform="translate(-374.21785,422.78273)">
    <g
       id="g4989"
       transform="matrix(1.0522388,0,0,-1.0522388,353.13643,391.39846)">
      <path
         id="path4991"
         d="m 948,321 c 0,-6.66699 -2.66699,-12 -8,-16 -6,-4 -12.333,-5 -19,-3 L 585,417 c -8,2.66699 -12.667,8 -14,16 -1.31598,8 1.35101,14.333 8,19 l 79,56 13,10 c -23.333,18.667 -49.5,33.167 -78.5,43.5 -29,10.333 -59.833,15.5 -92.5,15.5 -38,0 -73.833,-7.33301 -107.5,-22 -33.667,-14.66699 -63,-34.5 -88,-59.5 -25,-25 -44.833,-54.333 -59.5,-88 C 230.333,373.833 223,338 223,300 c 0,-38 7.33299,-73.833 22,-107.5 14.667,-33.667 34.5,-63 59.5,-88 25,-25 54.333,-44.8333 88,-59.5 C 426.167,30.3333 462,23 500,23 c 46.668,0 90.334,10.6667 131,32 40.667,21.3334 73.667,51.333 99,90 4,6 9.5,9.66701 16.5,11 7,1.33299 13.167,0 18.5,-4 L 883,70 c 4.66699,-2.6667 7.66699,-7.6667 9,-15 2,-5.3333 1,-11 -3,-17 -22,-32.6667 -47.333,-61.8333 -76,-87.5 -28.667,-25.6666 -59.667,-47.3333 -93,-65 -33.335,-17.667 -68.668,-31.167 -106,-40.5 -37.333,-9.33299 -75.333,-14 -114,-14 -64.667,0 -125.5,12.333 -182.5,37 -57,24.667 -106.667,58.1667 -149,100.5 -42.333,42.3333 -75.8334,92 -100.5,149 -24.6667,57 -37,117.833 -37,182.5 0,64.667 12.3333,125.5 37,182.5 24.6667,57 58.167,106.667 100.5,149 42.333,42.333 92,75.833 149,100.5 57,24.667 117.833,37 182.5,37 64.667,0 125.167,-12.333 181.5,-37 56.333,-24.667 105.833,-58.333 148.5,-101 l 6,5 79,56 c 6,4.68799 13,5.35498 21,2 7.33301,-4.66699 11,-10.667 11,-18 z"
         inkscape:connector-curvature="0"
         style="fill:currentColor" />
    </g>
  </g>
</svg>
