<?xml version="1.0" encoding="UTF-8" standalone="no"?>
<!-- Created with Inkscape (http://www.inkscape.org/) -->

<svg
   xmlns:dc="http://purl.org/dc/elements/1.1/"
   xmlns:cc="http://creativecommons.org/ns#"
   xmlns:rdf="http://www.w3.org/1999/02/22-rdf-syntax-ns#"
   xmlns:svg="http://www.w3.org/2000/svg"
   xmlns="http://www.w3.org/2000/svg"
   xmlns:sodipodi="http://sodipodi.sourceforge.net/DTD/sodipodi-0.dtd"
   xmlns:inkscape="http://www.inkscape.org/namespaces/inkscape"
   width="512"
   height="512"
   id="svg2"
   version="1.1"
   inkscape:version="0.48.3.1 r9886"
   sodipodi:docname="remove-circle.svg">
  <defs
     id="defs4" />
  <sodipodi:namedview
     id="base"
     pagecolor="#ffffff"
     bordercolor="#666666"
     borderopacity="1.0"
     inkscape:pageopacity="0.0"
     inkscape:pageshadow="2"
     inkscape:zoom="0.35"
     inkscape:cx="35"
     inkscape:cy="520"
     inkscape:document-units="px"
     inkscape:current-layer="layer1"
     showgrid="false"
     inkscape:window-width="1920"
     inkscape:window-height="1025"
     inkscape:window-x="0"
     inkscape:window-y="27"
     inkscape:window-maximized="1" />
  <metadata
     id="metadata7">
    <rdf:RDF>
      <cc:Work
         rdf:about="">
        <dc:format>image/svg+xml</dc:format>
        <dc:type
           rdf:resource="http://purl.org/dc/dcmitype/StillImage" />
      </cc:Work>
    </rdf:RDF>
  </metadata>
  <g
     inkscape:label="Layer 1"
     inkscape:groupmode="layer"
     id="layer1"
     transform="translate(0,-540.36218)">
    <path
       style="fill:currentColor"
       d="M 256 0 C 114.6156 0 0 114.61564 0 256 C 0 397.38436 114.6156 512 256 512 C 397.3843 512 512 397.38436 512 256 C 512 114.61564 397.3843 0 256 0 z M 256 55.625 C 366.6643 55.625 456.34375 145.36348 456.34375 256 C 456.34375 366.63657 366.6643 456.34375 256 456.34375 C 145.3356 456.34375 55.65625 366.63657 55.65625 256 C 55.65635 145.36348 145.3356 55.625 256 55.625 z M 185.625 132.84375 C 183.64909 132.84375 181.94567 133.55599 180.5625 134.9375 L 134.9375 180.8125 C 133.55442 181.99657 132.84375 183.67306 132.84375 185.84375 C 132.84375 187.81729 133.55442 189.40968 134.9375 190.59375 L 200.125 256 L 134.625 321.40625 C 133.43951 322.59031 132.84375 324.1828 132.84375 326.15625 C 132.84375 328.32703 133.43951 330.00344 134.625 331.1875 L 180.5625 377.0625 C 182.34073 378.44401 184.04445 379.15625 185.625 379.15625 C 187.40324 379.15625 188.96058 378.44401 190.34375 377.0625 L 255.84375 311.65625 L 321.34375 377.0625 C 323.12199 378.44401 324.79444 379.15625 326.375 379.15625 C 328.15323 379.15625 329.74183 378.44401 331.125 377.0625 L 377.0625 331.1875 C 378.44567 329.80608 379.15625 328.18726 379.15625 326.3125 C 379.15625 324.43774 378.44567 322.78767 377.0625 321.40625 L 311.5625 256 L 377.0625 190.59375 C 378.44567 189.21224 379.15625 187.56217 379.15625 185.6875 C 379.15625 183.81282 378.44567 182.19401 377.0625 180.8125 L 331.125 134.9375 C 329.74183 133.55599 328.12693 132.84375 326.25 132.84375 C 324.37307 132.84375 322.72692 133.55599 321.34375 134.9375 L 255.84375 200.34375 L 190.34375 134.9375 C 189.15826 133.55599 187.60092 132.84375 185.625 132.84375 z "
       transform="translate(0,540.36218)"
       id="path3430" />
  </g>
</svg>
