<?xml version="1.0" encoding="UTF-8" standalone="no"?>
<!-- Created with Inkscape (http://www.inkscape.org/) -->

<svg
   xmlns:dc="http://purl.org/dc/elements/1.1/"
   xmlns:cc="http://creativecommons.org/ns#"
   xmlns:rdf="http://www.w3.org/1999/02/22-rdf-syntax-ns#"
   xmlns:svg="http://www.w3.org/2000/svg"
   xmlns="http://www.w3.org/2000/svg"
   xmlns:sodipodi="http://sodipodi.sourceforge.net/DTD/sodipodi-0.dtd"
   xmlns:inkscape="http://www.inkscape.org/namespaces/inkscape"
   width="512"
   height="512"
   id="svg2"
   version="1.1"
   inkscape:version="0.48.3.1 r9886"
   sodipodi:docname="New document 1">
  <defs
     id="defs4" />
  <sodipodi:namedview
     id="base"
     pagecolor="#ffffff"
     bordercolor="#666666"
     borderopacity="1.0"
     inkscape:pageopacity="0.0"
     inkscape:pageshadow="2"
     inkscape:zoom="0.35"
     inkscape:cx="35"
     inkscape:cy="520"
     inkscape:document-units="px"
     inkscape:current-layer="layer1"
     showgrid="false"
     inkscape:window-width="1920"
     inkscape:window-height="1025"
     inkscape:window-x="0"
     inkscape:window-y="27"
     inkscape:window-maximized="1" />
  <metadata
     id="metadata7">
    <rdf:RDF>
      <cc:Work
         rdf:about="">
        <dc:format>image/svg+xml</dc:format>
        <dc:type
           rdf:resource="http://purl.org/dc/dcmitype/StillImage" />
        <dc:title></dc:title>
      </cc:Work>
    </rdf:RDF>
  </metadata>
  <g
     inkscape:label="Layer 1"
     inkscape:groupmode="layer"
     id="layer1"
     transform="translate(0,-540.36218)">
    <g
       transform="matrix(0.48102679,0,0,0.48102679,-47.151671,643.28196)"
       id="layer1-4"
       inkscape:label="Layer 1">
      <g
         transform="matrix(0.61612515,0,0,-0.61538462,318.76659,502.85176)"
         id="g3428">
        <path
           style="fill:currentColor"
           inkscape:connector-curvature="0"
           d="m 914,79 c 4.66699,-4.6667 7,-10.1667 7,-16.5 0,-6.3333 -2.33301,-11.8333 -7,-16.5 L 759,-109 c -4.66699,-4.667 -10,-7 -16,-7 -5.33301,0 -11,2.333 -17,7 L 505,112 284,-109 c -4.66699,-4.667 -10,-7 -16,-7 -5.33301,0 -11,2.333 -17,7 L 96,46 c -4,4 -6,9.6667 -6,17 0,6.6667 2,12 6,16 L 317,300 97,521 c -4.6667,4 -7,9.33301 -7,16 0,7.33301 2.3333,13 7,17 l 154,155 c 4.66701,4.66699 10.333,7 17,7 6.667,0 12,-2.33301 16,-7 L 505,488 726,709 c 4.66699,4.66699 10.167,7 16.5,7 6.333,0 11.833,-2.33301 16.5,-7 L 914,554 c 4.66699,-4.66699 7,-10.167 7,-16.5 0,-6.333 -2.33301,-11.833 -7,-16.5 L 693,300 914,79 v 0 z"
           id="path3430" />
      </g>
    </g>
    <path
       d="m 256,540.3622 c -141.3844,0 -256,114.61564 -256,256 0,141.38436 114.6156,256 256,256 141.3843,0 256,-114.61564 256,-256 0,-141.38436 -114.6157,-256 -256,-256 z m 0,55.625 c 110.6643,0 200.3438,89.73848 200.3438,200.375 0,110.63657 -89.6795,200.34377 -200.3438,200.34377 -110.6644,0 -200.3438,-89.7072 -200.3438,-200.34377 1e-4,-110.63652 89.6794,-200.375 200.3438,-200.375 z"
       id="path3016"
       inkscape:connector-curvature="0" />
  </g>
</svg>
