<?xml version="1.0" encoding="UTF-8" standalone="no"?>
<!-- Created with Inkscape (http://www.inkscape.org/) -->

<svg
   xmlns:dc="http://purl.org/dc/elements/1.1/"
   xmlns:cc="http://creativecommons.org/ns#"
   xmlns:rdf="http://www.w3.org/1999/02/22-rdf-syntax-ns#"
   xmlns:svg="http://www.w3.org/2000/svg"
   xmlns="http://www.w3.org/2000/svg"
   xmlns:sodipodi="http://sodipodi.sourceforge.net/DTD/sodipodi-0.dtd"
   xmlns:inkscape="http://www.inkscape.org/namespaces/inkscape"
   width="512"
   height="512"
   id="svg2"
   sodipodi:version="0.32"
   inkscape:version="0.48.3.1 r9886"
   sodipodi:docname="refresh.svg"
   version="1.0"
   inkscape:output_extension="org.inkscape.output.svg.inkscape">
  <defs
     id="defs4" />
  <sodipodi:namedview
     id="base"
     pagecolor="#ffffff"
     bordercolor="#666666"
     borderopacity="1.0"
     inkscape:pageopacity="0.0"
     inkscape:pageshadow="2"
     inkscape:zoom="0.32"
     inkscape:cx="485.74817"
     inkscape:cy="-160.81078"
     inkscape:document-units="px"
     inkscape:current-layer="layer1"
     inkscape:window-width="1487"
     inkscape:window-height="1021"
     inkscape:window-x="0"
     inkscape:window-y="28"
     showgrid="false"
     inkscape:window-maximized="0"
     fit-margin-top="0"
     fit-margin-left="0"
     fit-margin-right="0"
     fit-margin-bottom="0" />
  <metadata
     id="metadata7">
    <rdf:RDF>
      <cc:Work
         rdf:about="">
        <dc:format>image/svg+xml</dc:format>
        <dc:type
           rdf:resource="http://purl.org/dc/dcmitype/StillImage" />
        <dc:title />
        <dc:creator>
          <cc:Agent>
            <dc:title />
          </cc:Agent>
        </dc:creator>
        <dc:subject>
          <rdf:Bag />
        </dc:subject>
        <cc:license
           rdf:resource="http://creativecommons.org/licenses/publicdomain/" />
        <dc:description />
        <dc:contributor>
          <cc:Agent>
            <dc:title />
          </cc:Agent>
        </dc:contributor>
      </cc:Work>
      <cc:License
         rdf:about="http://creativecommons.org/licenses/publicdomain/">
        <cc:permits
           rdf:resource="http://creativecommons.org/ns#Reproduction" />
        <cc:permits
           rdf:resource="http://creativecommons.org/ns#Distribution" />
        <cc:permits
           rdf:resource="http://creativecommons.org/ns#DerivativeWorks" />
      </cc:License>
    </rdf:RDF>
  </metadata>
  <g
     inkscape:label="Layer 1"
     inkscape:groupmode="layer"
     id="layer1"
     transform="translate(-374.21785,-62.236374)">
    <g
       id="g4989"
       transform="matrix(1.0522388,0,0,-1.0522388,353.13643,391.39846)">
      <path
         id="path4991"
         d="m 501.16958,80.423545 c -0.63824,-7.849681 -7.4714,-11.707744 -14.00608,-9.85613 L 312.86562,130.22294 c -8.61141,3.7078 -9.55332,13.46632 -3.11246,18.15603 l 40.98075,29.04965 6.74367,5.18743 c -26.98107,20.47683 -57.56607,30.41749 -88.70517,30.60588 -79.93705,-1.65943 -143.12833,-67.33045 -143.692,-143.692002 1.65942,-79.937077 67.33044,-143.128313 143.692,-143.691997 49.43378,1.344855 94.11393,25.591609 119.31105,63.286728 4.66786,6.0201756 12.44749,7.7791524 18.15602,3.6312054 l 61.21176,-42.5369814 c 5.33657,-4.164771 6.29399,-11.697275 3.11246,-16.599797 C 424.05251,-134.13452 347.72689,-173.39689 268.77241,-173.76085 132.88216,-171.14436 26.427163,-60.067738 25.481631,69.529928 28.098126,205.42018 139.17481,311.8752 268.77241,312.82071 c 66.52436,-1.35067 127.57396,-28.58914 171.18541,-71.58662 l 3.11246,2.59371 40.98075,29.04965 c 7.774,4.8775 16.45042,-0.5277 16.5998,-8.2999 z"
         inkscape:connector-curvature="0"
         style="fill:currentColor"
         sodipodi:nodetypes="ccccccccccccccccccccc" />
    </g>
  </g>
</svg>
