<?xml version="1.0" encoding="UTF-8" standalone="no"?>
<!-- Created with Inkscape (http://www.inkscape.org/) -->

<svg
   xmlns:dc="http://purl.org/dc/elements/1.1/"
   xmlns:cc="http://creativecommons.org/ns#"
   xmlns:rdf="http://www.w3.org/1999/02/22-rdf-syntax-ns#"
   xmlns:svg="http://www.w3.org/2000/svg"
   xmlns="http://www.w3.org/2000/svg"
   xmlns:sodipodi="http://sodipodi.sourceforge.net/DTD/sodipodi-0.dtd"
   xmlns:inkscape="http://www.inkscape.org/namespaces/inkscape"
   width="987.97894"
   height="997.0191"
   id="svg2"
   sodipodi:version="0.32"
   inkscape:version="0.48.3.1 r9886"
   sodipodi:docname="thumbs-down.svg"
   version="1.0"
   inkscape:output_extension="org.inkscape.output.svg.inkscape">
  <defs
     id="defs4" />
  <sodipodi:namedview
     id="base"
     pagecolor="#ffffff"
     bordercolor="#666666"
     borderopacity="1.0"
     inkscape:pageopacity="0.0"
     inkscape:pageshadow="2"
     inkscape:zoom="0.45254834"
     inkscape:cx="299.61567"
     inkscape:cy="242.38832"
     inkscape:document-units="px"
     inkscape:current-layer="layer1"
     inkscape:window-width="1487"
     inkscape:window-height="1021"
     inkscape:window-x="0"
     inkscape:window-y="28"
     showgrid="false"
     inkscape:window-maximized="0"
     fit-margin-top="0"
     fit-margin-left="0"
     fit-margin-right="0"
     fit-margin-bottom="0" />
  <metadata
     id="metadata7">
    <rdf:RDF>
      <cc:Work
         rdf:about="">
        <dc:format>image/svg+xml</dc:format>
        <dc:type
           rdf:resource="http://purl.org/dc/dcmitype/StillImage" />
        <dc:title></dc:title>
        <dc:creator>
          <cc:Agent>
            <dc:title />
          </cc:Agent>
        </dc:creator>
        <dc:subject>
          <rdf:Bag />
        </dc:subject>
        <cc:license
           rdf:resource="http://creativecommons.org/licenses/publicdomain/" />
        <dc:description />
        <dc:contributor>
          <cc:Agent>
            <dc:title />
          </cc:Agent>
        </dc:contributor>
      </cc:Work>
      <cc:License
         rdf:about="http://creativecommons.org/licenses/publicdomain/">
        <cc:permits
           rdf:resource="http://creativecommons.org/ns#Reproduction" />
        <cc:permits
           rdf:resource="http://creativecommons.org/ns#Distribution" />
        <cc:permits
           rdf:resource="http://creativecommons.org/ns#DerivativeWorks" />
      </cc:License>
    </rdf:RDF>
  </metadata>
  <g
     inkscape:label="Layer 1"
     inkscape:groupmode="layer"
     id="layer1"
     transform="translate(-374.21785,422.78273)">
    <g
       id="g6281"
       transform="matrix(1.0798687,0,0,-1.0798687,328.27297,399.68743)">
      <path
         id="path6283"
         d="m 130,757 c 76,0 149.167,-9.83301 219.5,-29.5 C 419.834,707.833 485.667,680 547,644 608.333,608 664.167,564.833 714.5,514.5 764.833,464.167 808,408.333 844,347 880,285.667 907.833,219.833 927.5,149.5 947.167,79.1667 957,6 957,-70 c 0,-24 -8.5,-44.5 -25.5,-61.5 -17,-17 -37.5,-25.5 -61.5,-25.5 -24,0 -44.5,8.5 -61.5,25.5 -17,17 -25.5,37.5 -25.5,61.5 0,60 -7.83301,117.833 -23.5,173.5 -15.667,55.667 -37.667,107.667 -66,156 -28.333,48.333 -62.333,92.333 -102,132 -39.667,39.667 -83.667,73.667 -132,102 -48.333,28.333 -100.333,50.333 -156,66 C 247.833,575.167 190,583 130,583 106,583 85.5,591.5 68.5,608.5 51.5,625.5 43,646 43,670 c 0,24 8.5,44.5 25.5,61.5 17,17 37.5,25.5 61.5,25.5 z m 0,-329 c 68.667,0 133.167,-13.167 193.5,-39.5 60.333,-26.333 113,-62 158,-107 45,-45 80.667,-97.667 107,-158 C 614.833,63.1667 628,-1.333 628,-70 c 0,-24 -8.5,-44.5 -25.5,-61.5 -17,-17 -37.5,-25.5 -61.5,-25.5 -24,0 -44.5,8.5 -61.5,25.5 -17,17 -25.5,37.5 -25.5,61.5 0,44.6667 -8.5,86.6667 -25.5,126 -17,39.3333 -40.167,73.667 -69.5,103 -29.333,29.333 -63.667,52.5 -103,69.5 -39.333,17 -81.333,25.5 -126,25.5 -24,0 -44.5,8.5 -61.5,25.5 -17,17 -25.5,37.5 -25.5,61.5 0,24 8.5,44.5 25.5,61.5 17,17 37.5,25.5 61.5,25.5 z M 290,-29 c 0,-17.3333 -3.16699,-33.3333 -9.5,-48 -6.33301,-14.6667 -15,-27.5 -26,-38.5 -11,-11 -24,-19.667 -39,-26 -15,-6.333 -30.833,-9.5 -47.5,-9.5 -17.333,0 -33.333,3.16701 -48,9.5 -14.667,6.33299 -27.5,15 -38.5,26 -11,11 -19.6667,23.8333 -26,38.5 -6.3333,14.6667 -9.5,30.6667 -9.5,48 0,16.6667 3.1667,32.5 9.5,47.5 6.3333,15 15,28 26,39 11,11 23.833,19.6667 38.5,26 14.667,6.3333 30.667,9.5 48,9.5 16.667,0 32.5,-3.1667 47.5,-9.5 15,-6.3333 28,-15 39,-26 11,-11 19.667,-24 26,-39 6.333,-15 9.5,-30.8333 9.5,-47.5 z"
         inkscape:connector-curvature="0"
         style="fill:currentColor" />
    </g>
  </g>
</svg>
