<?xml version="1.0" encoding="UTF-8" standalone="no"?>
<!-- Created with Inkscape (http://www.inkscape.org/) -->

<svg
   xmlns:dc="http://purl.org/dc/elements/1.1/"
   xmlns:cc="http://creativecommons.org/ns#"
   xmlns:rdf="http://www.w3.org/1999/02/22-rdf-syntax-ns#"
   xmlns:svg="http://www.w3.org/2000/svg"
   xmlns="http://www.w3.org/2000/svg"
   xmlns:sodipodi="http://sodipodi.sourceforge.net/DTD/sodipodi-0.dtd"
   xmlns:inkscape="http://www.inkscape.org/namespaces/inkscape"
   width="512"
   height="512"
   id="svg2"
   sodipodi:version="0.32"
   inkscape:version="0.48.3.1 r9886"
   sodipodi:docname="screen.svg"
   version="1.0"
   inkscape:output_extension="org.inkscape.output.svg.inkscape">
  <defs
     id="defs4" />
  <sodipodi:namedview
     id="base"
     pagecolor="#ffffff"
     bordercolor="#666666"
     borderopacity="1.0"
     inkscape:pageopacity="0.0"
     inkscape:pageshadow="2"
     inkscape:zoom="0.64"
     inkscape:cx="100.27788"
     inkscape:cy="425.62412"
     inkscape:document-units="px"
     inkscape:current-layer="layer1"
     inkscape:window-width="1920"
     inkscape:window-height="1025"
     inkscape:window-x="0"
     inkscape:window-y="27"
     showgrid="false"
     inkscape:window-maximized="1"
     fit-margin-top="0"
     fit-margin-left="0"
     fit-margin-right="0"
     fit-margin-bottom="0" />
  <metadata
     id="metadata7">
    <rdf:RDF>
      <cc:Work
         rdf:about="">
        <dc:format>image/svg+xml</dc:format>
        <dc:type
           rdf:resource="http://purl.org/dc/dcmitype/StillImage" />
        <dc:title />
        <dc:creator>
          <cc:Agent>
            <dc:title />
          </cc:Agent>
        </dc:creator>
        <dc:subject>
          <rdf:Bag />
        </dc:subject>
        <cc:license
           rdf:resource="http://creativecommons.org/licenses/publicdomain/" />
        <dc:description />
        <dc:contributor>
          <cc:Agent>
            <dc:title />
          </cc:Agent>
        </dc:contributor>
      </cc:Work>
      <cc:License
         rdf:about="http://creativecommons.org/licenses/publicdomain/">
        <cc:permits
           rdf:resource="http://creativecommons.org/ns#Reproduction" />
        <cc:permits
           rdf:resource="http://creativecommons.org/ns#Distribution" />
        <cc:permits
           rdf:resource="http://creativecommons.org/ns#DerivativeWorks" />
      </cc:License>
    </rdf:RDF>
  </metadata>
  <g
     inkscape:label="Layer 1"
     inkscape:groupmode="layer"
     id="layer1"
     transform="translate(-374.21785,-62.236374)">
    <path
       style="fill:currentColor"
       inkscape:connector-curvature="0"
       d="m 823.51227,170.10153 h -386.5888 v 211.1281 h 386.5888 v -211.1281 z m 31.64041,-63.2809 c 8.82082,0 16.20394,3.06798 22.14833,9.2045 5.94439,6.13651 8.91684,13.61517 8.91684,22.43596 v 274.40899 c 0,8.82079 -2.97245,16.20394 -8.91684,22.14832 -5.94838,5.94455 -13.33156,8.91685 -22.14833,8.91685 H 696.95045 v 47.74832 h 36.81797 c 2.30115,0 4.3146,0.86292 6.04046,2.58876 1.72586,1.72584 2.58874,3.93107 2.58874,6.61573 v 20.13484 c 0,2.68466 -0.86288,4.79398 -2.58874,6.32808 -1.72586,1.53411 -3.73931,2.30113 -6.04046,2.30113 H 522.06505 c -2.30112,0 -4.31461,-0.76702 -6.04045,-2.30113 -1.72585,-1.53404 -2.58877,-3.64342 -2.58877,-6.32808 v -20.13484 c 0,-2.68466 0.86292,-4.88989 2.58877,-6.61573 1.72584,-1.72584 3.73933,-2.58876 6.04045,-2.58876 h 36.81797 v -47.74832 h -153.6 c -8.82095,0 -16.20377,-2.9723 -22.14831,-8.91685 -5.94456,-5.94438 -8.91686,-13.32753 -8.91686,-22.14832 V 138.46109 c 6e-5,-8.82079 2.9723,-16.29944 8.91686,-22.43596 5.9446,-6.13652 13.32741,-9.2045 22.14831,-9.2045 h 449.86966 v 0 z"
       id="path4024" />
  </g>
</svg>
