<?xml version="1.0" encoding="UTF-8" standalone="no"?>
<!-- Created with Inkscape (http://www.inkscape.org/) -->

<svg
   xmlns:dc="http://purl.org/dc/elements/1.1/"
   xmlns:cc="http://creativecommons.org/ns#"
   xmlns:rdf="http://www.w3.org/1999/02/22-rdf-syntax-ns#"
   xmlns:svg="http://www.w3.org/2000/svg"
   xmlns="http://www.w3.org/2000/svg"
   xmlns:sodipodi="http://sodipodi.sourceforge.net/DTD/sodipodi-0.dtd"
   xmlns:inkscape="http://www.inkscape.org/namespaces/inkscape"
   width="512"
   height="512"
   id="svg2"
   sodipodi:version="0.32"
   inkscape:version="0.48.3.1 r9886"
   sodipodi:docname="screen-alt.svg"
   version="1.0"
   inkscape:output_extension="org.inkscape.output.svg.inkscape">
  <defs
     id="defs4" />
  <sodipodi:namedview
     id="base"
     pagecolor="#ffffff"
     bordercolor="#666666"
     borderopacity="1.0"
     inkscape:pageopacity="0.0"
     inkscape:pageshadow="2"
     inkscape:zoom="0.64"
     inkscape:cx="37.77788"
     inkscape:cy="425.62412"
     inkscape:document-units="px"
     inkscape:current-layer="layer1"
     inkscape:window-width="1920"
     inkscape:window-height="1025"
     inkscape:window-x="0"
     inkscape:window-y="27"
     showgrid="false"
     inkscape:window-maximized="1"
     fit-margin-top="0"
     fit-margin-left="0"
     fit-margin-right="0"
     fit-margin-bottom="0" />
  <metadata
     id="metadata7">
    <rdf:RDF>
      <cc:Work
         rdf:about="">
        <dc:format>image/svg+xml</dc:format>
        <dc:type
           rdf:resource="http://purl.org/dc/dcmitype/StillImage" />
        <dc:title />
        <dc:creator>
          <cc:Agent>
            <dc:title />
          </cc:Agent>
        </dc:creator>
        <dc:subject>
          <rdf:Bag />
        </dc:subject>
        <cc:license
           rdf:resource="http://creativecommons.org/licenses/publicdomain/" />
        <dc:description />
        <dc:contributor>
          <cc:Agent>
            <dc:title />
          </cc:Agent>
        </dc:contributor>
      </cc:Work>
      <cc:License
         rdf:about="http://creativecommons.org/licenses/publicdomain/">
        <cc:permits
           rdf:resource="http://creativecommons.org/ns#Reproduction" />
        <cc:permits
           rdf:resource="http://creativecommons.org/ns#Distribution" />
        <cc:permits
           rdf:resource="http://creativecommons.org/ns#DerivativeWorks" />
      </cc:License>
    </rdf:RDF>
  </metadata>
  <g
     inkscape:label="Layer 1"
     inkscape:groupmode="layer"
     id="layer1"
     transform="translate(-374.21785,-62.236374)">
    <path
       style="fill:#000000;fill-opacity:1;stroke:none"
       d="m 630.21785,62.236374 c -141.3849,0 -256,114.615096 -256,255.999996 0,141.3849 114.6151,256 256,256 141.3849,0 256,-114.6151 256,-256 0,-141.3849 -114.6151,-255.999996 -256,-255.999996 z m -126.45998,143.124616 257.52381,0 c 5.04919,0 9.2741,1.75584 12.6768,5.26849 3.40265,3.51265 5.10638,7.80594 5.10638,12.85512 l 0,157.06585 c 0,5.04918 -1.70373,9.27413 -5.10638,12.6768 -3.40498,3.40277 -7.62989,5.10638 -12.6768,5.10638 l -90.5694,0 0,27.33131 21.07396,0 c 1.31722,0 2.48119,0.50348 3.4691,1.49139 0.98791,0.9879 1.47517,2.24035 1.47517,3.7771 l 0,11.52584 c 0,1.53674 -0.48726,2.75306 -1.47517,3.6312 -0.98791,0.87816 -2.15188,1.31307 -3.4691,1.31307 l -121.17528,0 c -1.3172,0 -2.46499,-0.43491 -3.45289,-1.31307 -0.9879,-0.87811 -1.49139,-2.09446 -1.49139,-3.6312 l 0,-11.52584 c 0,-1.53675 0.50349,-2.7892 1.49139,-3.7771 0.9879,-0.98791 2.13569,-1.49139 3.45289,-1.49139 l 21.07396,0 0,-27.33131 -87.92705,0 c -5.04927,0 -9.27404,-1.70361 -12.6768,-5.10638 -3.40277,-3.40267 -5.10638,-7.62762 -5.10638,-12.6768 l 0,-157.06585 c 4e-5,-5.04918 1.70361,-9.34247 5.10638,-12.85512 3.4028,-3.51265 7.62756,-5.26849 12.6768,-5.26849 z m 18.12361,36.231 0,120.85107 221.27659,0 0,-120.85107 -221.27659,0 z"
       id="path3125"
       inkscape:connector-curvature="0" />
  </g>
</svg>
