<?xml version="1.0" encoding="UTF-8" standalone="no"?>
<!-- Created with Inkscape (http://www.inkscape.org/) -->

<svg
   xmlns:dc="http://purl.org/dc/elements/1.1/"
   xmlns:cc="http://creativecommons.org/ns#"
   xmlns:rdf="http://www.w3.org/1999/02/22-rdf-syntax-ns#"
   xmlns:svg="http://www.w3.org/2000/svg"
   xmlns="http://www.w3.org/2000/svg"
   xmlns:sodipodi="http://sodipodi.sourceforge.net/DTD/sodipodi-0.dtd"
   xmlns:inkscape="http://www.inkscape.org/namespaces/inkscape"
   width="987.97894"
   height="997.0191"
   id="svg2"
   sodipodi:version="0.32"
   inkscape:version="0.48.3.1 r9886"
   sodipodi:docname="search.svg"
   version="1.0"
   inkscape:output_extension="org.inkscape.output.svg.inkscape">
  <defs
     id="defs4" />
  <sodipodi:namedview
     id="base"
     pagecolor="#ffffff"
     bordercolor="#666666"
     borderopacity="1.0"
     inkscape:pageopacity="0.0"
     inkscape:pageshadow="2"
     inkscape:zoom="0.45254834"
     inkscape:cx="299.61567"
     inkscape:cy="242.38832"
     inkscape:document-units="px"
     inkscape:current-layer="layer1"
     inkscape:window-width="1487"
     inkscape:window-height="1021"
     inkscape:window-x="0"
     inkscape:window-y="28"
     showgrid="false"
     inkscape:window-maximized="0"
     fit-margin-top="0"
     fit-margin-left="0"
     fit-margin-right="0"
     fit-margin-bottom="0" />
  <metadata
     id="metadata7">
    <rdf:RDF>
      <cc:Work
         rdf:about="">
        <dc:format>image/svg+xml</dc:format>
        <dc:type
           rdf:resource="http://purl.org/dc/dcmitype/StillImage" />
        <dc:title></dc:title>
        <dc:creator>
          <cc:Agent>
            <dc:title />
          </cc:Agent>
        </dc:creator>
        <dc:subject>
          <rdf:Bag />
        </dc:subject>
        <cc:license
           rdf:resource="http://creativecommons.org/licenses/publicdomain/" />
        <dc:description />
        <dc:contributor>
          <cc:Agent>
            <dc:title />
          </cc:Agent>
        </dc:contributor>
      </cc:Work>
      <cc:License
         rdf:about="http://creativecommons.org/licenses/publicdomain/">
        <cc:permits
           rdf:resource="http://creativecommons.org/ns#Reproduction" />
        <cc:permits
           rdf:resource="http://creativecommons.org/ns#Distribution" />
        <cc:permits
           rdf:resource="http://creativecommons.org/ns#DerivativeWorks" />
      </cc:License>
    </rdf:RDF>
  </metadata>
  <g
     inkscape:label="Layer 1"
     inkscape:groupmode="layer"
     id="layer1"
     transform="translate(-374.21785,422.78273)">
    <g
       id="g6182"
       transform="matrix(0.987,0,0,-0.987,374.70732,371.82682)">
      <path
         id="path6184"
         d="m 708,183 c 22.667,22.667 39.5,48.167 50.5,76.5 11,28.334 16.5,57.167 16.5,86.5 0,29.334 -5.5,58.167 -16.5,86.5 -11,28.333 -27.833,53.833 -50.5,76.5 -22.667,22.667 -48.167,39.5 -76.5,50.5 -28.334,11 -57.168,16.5 -86.5,16.5 -29.333,0 -58.167,-5.5 -86.5,-16.5 -28.333,-11 -53.833,-27.833 -76.5,-50.5 -19.333,-19.333 -34.5,-40.833 -45.5,-64.5 -11,-23.667 -17.833,-48.334 -20.5,-74 -2.66699,-25.667 -1.16699,-51.167 4.5,-76.5 5.66699,-25.333 15.5,-49 29.5,-71 L 250,123 c -12,-12 -18,-26.3333 -18,-43 0,-16.6667 6,-30.6667 18,-42 11.333,-12 25.5,-18 42.5,-18 17,0 31.167,6 42.5,18 l 104,104 c 22,-11.334 44.833,-19 68.5,-23 23.667,-4 47.334,-4.333 71,-1 23.667,3.333 46.667,10.5 69,21.5 22.333,11 42.5,25.5 60.5,43.5 z M 500,800 c 68.667,0 133.5,-13.167 194.5,-39.5 61,-26.333 114,-62 159,-107 45,-45 80.667,-98 107,-159 26.333,-61 39.5,-125.833 39.5,-194.5 0,-46 -6,-90.333 -18,-133 -12,-42.667 -28.833,-82.5 -50.5,-119.5 -21.667,-37 -47.667,-70.6667 -78,-101 -30.333,-30.3333 -64,-56.333 -101,-78 -37,-21.667 -76.833,-38.5 -119.5,-50.5 -42.667,-12 -87,-18 -133,-18 -46,0 -90.333,6 -133,18 -42.667,12 -82.5,28.833 -119.5,50.5 -37,21.667 -70.667,47.6667 -101,78 -30.333,30.3333 -56.3333,64 -78,101 C 46.8333,84.5 30,124.333 18,167 6,209.667 0,254 0,300 c 0,46 6,90.333 18,133 12,42.667 28.8333,82.5 50.5,119.5 21.6667,37 47.667,70.667 78,101 30.333,30.333 64,56.333 101,78 37,21.667 76.833,38.5 119.5,50.5 42.667,12 87,18 133,18 z M 454,437 c 12.667,12.667 26.833,22 42.5,28 15.669,6 31.835,9 48.5,9 16.669,0 32.836,-3 48.5,-9 15.669,-6 29.836,-15.333 42.5,-28 12.667,-12.667 22,-26.834 28,-42.5 6,-15.667 9,-31.667 9,-48 0,-16.333 -3,-32.333 -9,-48 -6,-15.668 -15.333,-29.834 -28,-42.5 -12.667,-12.667 -26.833,-22.167 -42.5,-28.5 -15.667,-6.333 -31.833,-9.5 -48.5,-9.5 -16.667,0 -32.833,3.16701 -48.5,9.5 -15.668,6.33299 -29.834,15.833 -42.5,28.5 -12.667,12.667 -22.167,26.833 -28.5,42.5 -6.333,15.667 -9.5,31.667 -9.5,48 0,16.333 3.16699,32.333 9.5,48 6.33301,15.667 15.833,29.833 28.5,42.5 z"
         inkscape:connector-curvature="0"
         style="fill:currentColor" />
    </g>
  </g>
</svg>
