<?xml version="1.0" encoding="UTF-8" standalone="no"?>
<!-- Created with Inkscape (http://www.inkscape.org/) -->

<svg
   xmlns:dc="http://purl.org/dc/elements/1.1/"
   xmlns:cc="http://creativecommons.org/ns#"
   xmlns:rdf="http://www.w3.org/1999/02/22-rdf-syntax-ns#"
   xmlns:svg="http://www.w3.org/2000/svg"
   xmlns="http://www.w3.org/2000/svg"
   xmlns:sodipodi="http://sodipodi.sourceforge.net/DTD/sodipodi-0.dtd"
   xmlns:inkscape="http://www.inkscape.org/namespaces/inkscape"
   width="512"
   height="512"
   id="svg2"
   sodipodi:version="0.32"
   inkscape:version="0.48.3.1 r9886"
   sodipodi:docname="search.svg"
   version="1.0"
   inkscape:output_extension="org.inkscape.output.svg.inkscape">
  <defs
     id="defs4" />
  <sodipodi:namedview
     id="base"
     pagecolor="#ffffff"
     bordercolor="#666666"
     borderopacity="1.0"
     inkscape:pageopacity="0.0"
     inkscape:pageshadow="2"
     inkscape:zoom="0.45254834"
     inkscape:cx="254.33599"
     inkscape:cy="196.47643"
     inkscape:document-units="px"
     inkscape:current-layer="layer1"
     inkscape:window-width="1487"
     inkscape:window-height="1021"
     inkscape:window-x="0"
     inkscape:window-y="28"
     showgrid="false"
     inkscape:window-maximized="0"
     fit-margin-top="0"
     fit-margin-left="0"
     fit-margin-right="0"
     fit-margin-bottom="0" />
  <metadata
     id="metadata7">
    <rdf:RDF>
      <cc:Work
         rdf:about="">
        <dc:format>image/svg+xml</dc:format>
        <dc:type
           rdf:resource="http://purl.org/dc/dcmitype/StillImage" />
        <dc:title />
        <dc:creator>
          <cc:Agent>
            <dc:title />
          </cc:Agent>
        </dc:creator>
        <dc:subject>
          <rdf:Bag />
        </dc:subject>
        <cc:license
           rdf:resource="http://creativecommons.org/licenses/publicdomain/" />
        <dc:description />
        <dc:contributor>
          <cc:Agent>
            <dc:title />
          </cc:Agent>
        </dc:contributor>
      </cc:Work>
      <cc:License
         rdf:about="http://creativecommons.org/licenses/publicdomain/">
        <cc:permits
           rdf:resource="http://creativecommons.org/ns#Reproduction" />
        <cc:permits
           rdf:resource="http://creativecommons.org/ns#Distribution" />
        <cc:permits
           rdf:resource="http://creativecommons.org/ns#DerivativeWorks" />
      </cc:License>
    </rdf:RDF>
  </metadata>
  <g
     inkscape:label="Layer 1"
     inkscape:groupmode="layer"
     id="layer1"
     transform="translate(-374.21785,-62.236374)">
    <path
       style="fill:#000000;fill-opacity:1;stroke:none"
       d="m 668.26835,62.236374 c -117.0843,0 -212.01077,94.910266 -212.01077,211.994566 0,41.60131 11.97913,80.40877 32.6831,113.15127 -0.15228,0.0663 -0.30121,0.12601 -0.4537,0.19445 l -92.24835,92.23214 c -21.53343,23.1165 -21.30861,56.75003 0,78.36167 23.11661,21.5335 56.74999,21.30862 78.36167,0 l 95.57013,-95.58633 c -0.0291,-0.13474 -0.0672,-0.26953 -0.0972,-0.4051 29.35728,15.37023 62.76261,24.06268 98.19514,24.06268 117.08432,0 211.99457,-94.92647 211.99457,-212.01078 0,-117.0843 -94.91025,-211.994566 -211.99457,-211.994566 z m 0,94.176596 c 65.06757,0 117.80177,52.75041 117.80177,117.81797 0,65.06757 -52.7342,117.81797 -117.80177,117.81797 -65.06756,0 -117.81797,-52.7504 -117.81797,-117.81797 0,-65.06756 52.75041,-117.81797 117.81797,-117.81797 z"
       id="path3130"
       inkscape:connector-curvature="0"
       sodipodi:nodetypes="sscccccccssssssss" />
    <g
       id="g6149"
       transform="matrix(1.0716612,0,0,-1.0716612,328.09008,395.61769)" />
  </g>
</svg>
