<?xml version="1.0" encoding="UTF-8" standalone="no"?>
<!-- Created with Inkscape (http://www.inkscape.org/) -->

<svg
   xmlns:dc="http://purl.org/dc/elements/1.1/"
   xmlns:cc="http://creativecommons.org/ns#"
   xmlns:rdf="http://www.w3.org/1999/02/22-rdf-syntax-ns#"
   xmlns:svg="http://www.w3.org/2000/svg"
   xmlns="http://www.w3.org/2000/svg"
   xmlns:sodipodi="http://sodipodi.sourceforge.net/DTD/sodipodi-0.dtd"
   xmlns:inkscape="http://www.inkscape.org/namespaces/inkscape"
   width="987.97894"
   height="997.0191"
   id="svg2"
   sodipodi:version="0.32"
   inkscape:version="0.48.3.1 r9886"
   sodipodi:docname="smiley-alt.svg"
   version="1.0"
   inkscape:output_extension="org.inkscape.output.svg.inkscape">
  <defs
     id="defs4" />
  <sodipodi:namedview
     id="base"
     pagecolor="#ffffff"
     bordercolor="#666666"
     borderopacity="1.0"
     inkscape:pageopacity="0.0"
     inkscape:pageshadow="2"
     inkscape:zoom="0.45254834"
     inkscape:cx="299.61567"
     inkscape:cy="242.38832"
     inkscape:document-units="px"
     inkscape:current-layer="layer1"
     inkscape:window-width="1487"
     inkscape:window-height="1021"
     inkscape:window-x="0"
     inkscape:window-y="28"
     showgrid="false"
     inkscape:window-maximized="0"
     fit-margin-top="0"
     fit-margin-left="0"
     fit-margin-right="0"
     fit-margin-bottom="0" />
  <metadata
     id="metadata7">
    <rdf:RDF>
      <cc:Work
         rdf:about="">
        <dc:format>image/svg+xml</dc:format>
        <dc:type
           rdf:resource="http://purl.org/dc/dcmitype/StillImage" />
        <dc:title></dc:title>
        <dc:creator>
          <cc:Agent>
            <dc:title />
          </cc:Agent>
        </dc:creator>
        <dc:subject>
          <rdf:Bag />
        </dc:subject>
        <cc:license
           rdf:resource="http://creativecommons.org/licenses/publicdomain/" />
        <dc:description />
        <dc:contributor>
          <cc:Agent>
            <dc:title />
          </cc:Agent>
        </dc:contributor>
      </cc:Work>
      <cc:License
         rdf:about="http://creativecommons.org/licenses/publicdomain/">
        <cc:permits
           rdf:resource="http://creativecommons.org/ns#Reproduction" />
        <cc:permits
           rdf:resource="http://creativecommons.org/ns#Distribution" />
        <cc:permits
           rdf:resource="http://creativecommons.org/ns#DerivativeWorks" />
      </cc:License>
    </rdf:RDF>
  </metadata>
  <g
     inkscape:label="Layer 1"
     inkscape:groupmode="layer"
     id="layer1"
     transform="translate(-374.21785,422.78273)">
    <g
       id="g6149"
       transform="matrix(1.0716612,0,0,-1.0716612,328.09008,395.61769)">
      <path
         id="path6151"
         d="m 722,228 c 20.667,20.667 36.167,44 46.5,70 10.333,26 15.5,52.5 15.5,79.5 0,27 -5.16699,53.667 -15.5,80 -10.33301,26.333 -25.833,49.833 -46.5,70.5 -20.667,20.667 -44,36 -70,46 -26,10 -52.667,15 -80,15 -27.333,0 -54,-5 -80,-15 -26,-10 -49.333,-25.333 -70,-46 -20.667,-20.667 -36.167,-44.167 -46.5,-70.5 -10.333,-26.333 -15.5,-53 -15.5,-80 0,-27 5.16699,-53.5 15.5,-79.5 10.33301,-26 25.833,-49.333 46.5,-70 20.667,-20.667 44,-36.167 70,-46.5 26,-10.333 52.667,-15.5 80,-15.5 27.333,0 54,5.16701 80,15.5 26,10.33299 49.333,25.833 70,46.5 z m 120,420 c 37.333,-37.333 65.333,-79.5 84,-126.5 18.667,-47 28,-94.833 28,-143.5 0,-48.667 -9.33301,-96.5 -28,-143.5 C 907.33301,187.5 879.333,145.333 842,108 812,78 778.667,54 742,36 705.333,18 667.333,6 628,0 588.667,-6 549.167,-5.66667 509.5,1 469.833,7.66667 432,20.3333 396,39 L 224,-133 c -10,-10 -21,-17.333 -33,-22 -12,-4.667 -24.5,-7 -37.5,-7 -13,0 -25.5,2.33299 -37.5,7 -12,4.66701 -23,12 -33,22 -10,10 -17.3333,21 -22,33 -4.6667,12 -7,24.5 -7,37.5 0,13 2.3333,25.5 7,37.5 4.6667,12 12,23 22,33 l 166,166 c -23.334,36.667 -39.667,76 -49,118 -9.333,42 -11.833,84 -7.5,126 4.333,42 15.667,82.833 34,122.5 18.333,39.667 43.5,75.5 75.5,107.5 37.333,36.668 79.5,64.335 126.5,83 47,18.667 94.834,28 143.5,28 48.667,0 96.5,-9.33301 143.5,-28 47,-18.66699 89.167,-46.333 126.5,-83 z"
         inkscape:connector-curvature="0"
         style="fill:currentColor" />
    </g>
  </g>
</svg>
