<?xml version="1.0" encoding="UTF-8" standalone="no"?>
<!-- Created with Inkscape (http://www.inkscape.org/) -->

<svg
   xmlns:dc="http://purl.org/dc/elements/1.1/"
   xmlns:cc="http://creativecommons.org/ns#"
   xmlns:rdf="http://www.w3.org/1999/02/22-rdf-syntax-ns#"
   xmlns:svg="http://www.w3.org/2000/svg"
   xmlns="http://www.w3.org/2000/svg"
   xmlns:sodipodi="http://sodipodi.sourceforge.net/DTD/sodipodi-0.dtd"
   xmlns:inkscape="http://www.inkscape.org/namespaces/inkscape"
   width="987.97894"
   height="997.0191"
   id="svg2"
   sodipodi:version="0.32"
   inkscape:version="0.48.3.1 r9886"
   sodipodi:docname="cog.svg"
   version="1.0"
   inkscape:output_extension="org.inkscape.output.svg.inkscape">
  <defs
     id="defs4" />
  <sodipodi:namedview
     id="base"
     pagecolor="#ffffff"
     bordercolor="#666666"
     borderopacity="1.0"
     inkscape:pageopacity="0.0"
     inkscape:pageshadow="2"
     inkscape:zoom="0.45254834"
     inkscape:cx="-16.570519"
     inkscape:cy="162.13852"
     inkscape:document-units="px"
     inkscape:current-layer="layer1"
     inkscape:window-width="1920"
     inkscape:window-height="1025"
     inkscape:window-x="0"
     inkscape:window-y="27"
     showgrid="false"
     inkscape:window-maximized="1"
     fit-margin-top="0"
     fit-margin-left="0"
     fit-margin-right="0"
     fit-margin-bottom="0" />
  <metadata
     id="metadata7">
    <rdf:RDF>
      <cc:Work
         rdf:about="">
        <dc:format>image/svg+xml</dc:format>
        <dc:type
           rdf:resource="http://purl.org/dc/dcmitype/StillImage" />
        <dc:title></dc:title>
        <dc:creator>
          <cc:Agent>
            <dc:title />
          </cc:Agent>
        </dc:creator>
        <dc:subject>
          <rdf:Bag />
        </dc:subject>
        <cc:license
           rdf:resource="http://creativecommons.org/licenses/publicdomain/" />
        <dc:description />
        <dc:contributor>
          <cc:Agent>
            <dc:title />
          </cc:Agent>
        </dc:contributor>
      </cc:Work>
      <cc:License
         rdf:about="http://creativecommons.org/licenses/publicdomain/">
        <cc:permits
           rdf:resource="http://creativecommons.org/ns#Reproduction" />
        <cc:permits
           rdf:resource="http://creativecommons.org/ns#Distribution" />
        <cc:permits
           rdf:resource="http://creativecommons.org/ns#DerivativeWorks" />
      </cc:License>
    </rdf:RDF>
  </metadata>
  <g
     inkscape:label="Layer 1"
     inkscape:groupmode="layer"
     id="layer1"
     transform="translate(-374.21785,422.78273)">
    <g
       id="g3037"
       transform="matrix(0.987,0,0,-0.987,374.70732,371.82682)">
      <path
         id="path3039"
         d="m 500,388 c 24.667,0 45.5,-8.5 62.5,-25.5 17,-17 25.5,-37.833 25.5,-62.5 0,-24.667 -8.5,-45.5 -25.5,-62.5 -17,-17 -37.833,-25.5 -62.5,-25.5 -24.667,0 -45.5,8.5 -62.5,25.5 -17,17 -25.5,37.833 -25.5,62.5 0,24.667 8.5,45.5 25.5,62.5 17,17 37.833,25.5 62.5,25.5 z m 299,-55 c 0,4 -1.5,7.5 -4.5,10.5 -3,3 -6.5,4.5 -10.5,4.5 l -76,8 c -2,9.33499 -4.83301,18.168 -8.5,26.5 -3.66699,8.33301 -7.83301,16.833 -12.5,25.5 l 48,59 c 6,7.33301 5.66699,14.333 -1,21 l -46,46 c -3.33301,3.33301 -7,5 -11,5 -4,0 -7.33301,-1.33301 -10,-4 l -59,-48 c -8.66699,4.66699 -17.167,8.83301 -25.5,12.5 -8.33801,3.66699 -17.171,6.5 -26.5,8.5 l -8,76 c 0,4 -1.5,7.5 -4.5,10.5 -3,3 -6.5,4.5 -10.5,4.5 h -66 c -4,0 -7.5,-1.5 -10.5,-4.5 -3,-3 -4.5,-6.5 -4.5,-10.5 l -8,-76 c -9.33301,-2 -18.167,-4.83301 -26.5,-8.5 -8.33301,-3.67001 -16.833,-7.83701 -25.5,-12.5 l -59,48 c -2.66699,2.66699 -6,4 -10,4 -4,0 -7.66699,-1.66699 -11,-5 l -46,-46 c -6.66699,-6.66699 -7,-13.667 -1,-21 l 48,-59 c -4.66901,-8.66699 -8.836,-17.167 -12.5,-25.5 -3.66699,-8.33301 -6.5,-17.167 -8.5,-26.5 l -76,-8 c -4,0 -7.5,-1.5 -10.5,-4.5 -3,-3 -4.5,-6.5 -4.5,-10.5 v -66 c 0,-4 1.5,-7.5 4.5,-10.5 3,-3 6.5,-4.5 10.5,-4.5 l 76,-8 c 2,-9.334 4.83301,-18.167 8.5,-26.5 3.66699,-8.333 7.83301,-16.833 12.5,-25.5 l -48,-59 c -6,-7.333 -5.66699,-14.333 1,-21 l 46,-46 c 3.33301,-3.3333 7,-5 11,-5 4,0 7.33301,1.3333 10,4 l 59,48 c 8.66699,-4.667 17.167,-8.834 25.5,-12.5 8.33499,-3.6667 17.168,-6.5 26.5,-8.5 l 8,-76 c 0,-4 1.5,-7.5 4.5,-10.5 3,-3 6.5,-4.5 10.5,-4.5 h 66 c 4,0 7.5,1.5 10.5,4.5 3,3 4.5,6.5 4.5,10.5 l 8,76 c 9.33301,2 18.167,4.8333 26.5,8.5 8.33301,3.667 16.833,7.833 25.5,12.5 l 59,-48 c 2.66699,-2.6667 6,-4 10,-4 4,0 7.66699,1.6667 11,5 l 46,46 c 6.66699,6.667 7,13.667 1,21 l -48,59 c 4.677,8.66701 8.84399,17.167 12.5,25.5 3.66699,8.33299 6.5,17.167 8.5,26.5 l 76,8 c 4,0 7.5,1.5 10.5,4.5 3,3 4.5,6.5 4.5,10.5 v 66 z M 500,800 c 68.667,0 133.5,-13.167 194.5,-39.5 61,-26.333 114,-62 159,-107 45,-45 80.667,-98 107,-159 26.333,-61 39.5,-125.833 39.5,-194.5 0,-46 -6,-90.333 -18,-133 -12,-42.667 -28.833,-82.5 -50.5,-119.5 -21.667,-37 -47.667,-70.6667 -78,-101 -30.333,-30.3333 -64,-56.333 -101,-78 -37,-21.667 -76.833,-38.5 -119.5,-50.5 -42.667,-12 -87,-18 -133,-18 -46,0 -90.333,6 -133,18 -42.667,12 -82.5,28.833 -119.5,50.5 -37,21.667 -70.667,47.6667 -101,78 -30.333,30.3333 -56.3333,64 -78,101 C 46.8333,84.5 30,124.333 18,167 6,209.667 0,254 0,300 c 0,46 6,90.333 18,133 12,42.667 28.8333,82.5 50.5,119.5 21.6667,37 47.667,70.667 78,101 30.333,30.333 64,56.333 101,78 37,21.667 76.833,38.5 119.5,50.5 42.667,12 87,18 133,18 z"
         inkscape:connector-curvature="0"
         style="fill:currentColor" />
    </g>
  </g>
</svg>
