<?xml version="1.0" encoding="UTF-8" standalone="no"?>
<!-- Created with Inkscape (http://www.inkscape.org/) -->

<svg
   xmlns:dc="http://purl.org/dc/elements/1.1/"
   xmlns:cc="http://creativecommons.org/ns#"
   xmlns:rdf="http://www.w3.org/1999/02/22-rdf-syntax-ns#"
   xmlns:svg="http://www.w3.org/2000/svg"
   xmlns="http://www.w3.org/2000/svg"
   xmlns:sodipodi="http://sodipodi.sourceforge.net/DTD/sodipodi-0.dtd"
   xmlns:inkscape="http://www.inkscape.org/namespaces/inkscape"
   width="987.97894"
   height="997.0191"
   id="svg2"
   sodipodi:version="0.32"
   inkscape:version="0.48.3.1 r9886"
   sodipodi:docname="skype.svg"
   version="1.0"
   inkscape:output_extension="org.inkscape.output.svg.inkscape">
  <defs
     id="defs4" />
  <sodipodi:namedview
     id="base"
     pagecolor="#ffffff"
     bordercolor="#666666"
     borderopacity="1.0"
     inkscape:pageopacity="0.0"
     inkscape:pageshadow="2"
     inkscape:zoom="0.45254834"
     inkscape:cx="388.00402"
     inkscape:cy="242.38832"
     inkscape:document-units="px"
     inkscape:current-layer="layer1"
     inkscape:window-width="1487"
     inkscape:window-height="1021"
     inkscape:window-x="0"
     inkscape:window-y="28"
     showgrid="false"
     inkscape:window-maximized="0"
     fit-margin-top="0"
     fit-margin-left="0"
     fit-margin-right="0"
     fit-margin-bottom="0" />
  <metadata
     id="metadata7">
    <rdf:RDF>
      <cc:Work
         rdf:about="">
        <dc:format>image/svg+xml</dc:format>
        <dc:type
           rdf:resource="http://purl.org/dc/dcmitype/StillImage" />
        <dc:title></dc:title>
        <dc:creator>
          <cc:Agent>
            <dc:title />
          </cc:Agent>
        </dc:creator>
        <dc:subject>
          <rdf:Bag />
        </dc:subject>
        <cc:license
           rdf:resource="http://creativecommons.org/licenses/publicdomain/" />
        <dc:description />
        <dc:contributor>
          <cc:Agent>
            <dc:title />
          </cc:Agent>
        </dc:contributor>
      </cc:Work>
      <cc:License
         rdf:about="http://creativecommons.org/licenses/publicdomain/">
        <cc:permits
           rdf:resource="http://creativecommons.org/ns#Reproduction" />
        <cc:permits
           rdf:resource="http://creativecommons.org/ns#Distribution" />
        <cc:permits
           rdf:resource="http://creativecommons.org/ns#DerivativeWorks" />
      </cc:License>
    </rdf:RDF>
  </metadata>
  <g
     inkscape:label="Layer 1"
     inkscape:groupmode="layer"
     id="layer1"
     transform="translate(-374.21785,422.78273)">
    <g
       id="g6951"
       transform="matrix(1.0544872,0,0,-1.0544872,340.96372,392.07298)">
      <path
         id="path6953"
         d="m 731,85 c 20,28.667 30,61.333 30,98 0,30 -5.66699,55.667 -17,77 -11.333,20.667 -28,38.333 -50,53 -10.667,6.66699 -22.167,12.833 -34.5,18.5 -12.333,5.667 -25.833,10.833 -40.5,15.5 -14.667,5.33301 -30.167,10 -46.5,14 -16.333,4 -33.5,8 -51.5,12 -26.667,6 -47,11 -61,15 -6,1.33899 -11.833,3.173 -17.5,5.5 -5.66699,2.33301 -11.5,4.83301 -17.5,7.5 -11.333,6 -20,12.667 -26,20 -6,8 -9,16.667 -9,26 0,16 9,30 27,42 18.667,12.667 44.333,19 77,19 33.333,0 57.667,-5.66699 73,-17 14.667,-12 28,-28.333 40,-49 9.33301,-16 18,-27.667 26,-35 8.66901,-8 21.336,-12 38,-12 17.333,0 32.333,6.33301 45,19 12,12.667 18,27 18,43 0,16 -4.66699,32.667 -14,50 -9.33398,17.333 -23.667,33.333 -43,48 -19.333,14.667 -43.333,26.667 -72,36 -30,9.33301 -64.333,14 -103,14 -50,0 -93,-7 -129,-21 -37.333,-13.333 -66,-33 -86,-59 -19.333,-26.667 -29,-56.334 -29,-89 0,-36 9.33301,-65.333 28,-88 19.333,-24 44.667,-42.667 76,-56 30,-12.667 68.333,-24 115,-34 17.334,-3.33501 32.668,-6.66901 46,-10 13.333,-3.33501 25,-6.66901 35,-10 18.669,-6 34.336,-14.667 47,-26 11.333,-11.333 17,-25.333 17,-42 0,-22 -11,-40.333 -33,-55 -22.667,-15.3333 -52.333,-23 -89,-23 -27.333,0 -48.333,4 -63,12 -16,7.333 -28.333,16.667 -37,28 -10,13.333 -18.667,28.333 -26,45 -7.33301,17.333 -15.667,30 -25,38 -10.667,8.66701 -23.667,13 -39,13 -18,0 -33.333,-5.66701 -46,-17 -12.667,-11.333 -19,-25 -19,-41 0,-26 9.66701,-52.667 29,-80 17.333,-26.6667 41.333,-48 72,-64 40.667,-22 93.333,-33 158,-33 53.333,0 99,8 137,24 38.667,16 68.667,38.6667 90,68 z m 204,116 c 17.333,-36 26,-74 26,-114 0,-35.3333 -6.66699,-68.5 -20,-99.5 -13.33301,-31 -31.5,-58 -54.5,-81 -23,-23 -50,-41.167 -81,-54.5 -31,-13.333 -64.167,-20 -99.5,-20 -22,0 -43.167,2.66701 -63.5,8 -20.336,5.33299 -39.169,12.667 -56.5,22 -13.333,-2 -26.833,-3.66701 -40.5,-5 -13.667,-1.33299 -27.167,-2 -40.5,-2 -60.667,0 -117.667,11.5 -171,34.5 C 280.667,-87.5 234,-56 194,-16 154,24 122.5,70.6667 99.5,124 76.5,177.333 65,234.333 65,295 c 0,30 3,59.667 9,89 -23.3333,37.333 -35,80.333 -35,129 0,35.333 6.6667,68.5 20,99.5 13.3333,31 31.5,58 54.5,81 23,23 50,41.167 81,54.5 31,13.333 64.167,20 99.5,20 25.333,0 49.333,-3.5 72,-10.5 22.667,-7 44,-16.5 64,-28.5 24,4 49,6 75,6 60.667,0 117.667,-11.5 171,-34.5 53.333,-23 100,-54.5 140,-94.5 40,-40 71.5,-86.667 94.5,-140 23,-53.333 34.5,-110.333 34.5,-171 0,-16 -0.83301,-31.833 -2.5,-47.5 -1.66699,-15.667 -4.16699,-31.167 -7.5,-46.5 z"
         inkscape:connector-curvature="0"
         style="fill:currentColor" />
    </g>
  </g>
</svg>
