<?xml version="1.0" encoding="UTF-8" standalone="no"?>
<!-- Created with Inkscape (http://www.inkscape.org/) -->

<svg
   xmlns:dc="http://purl.org/dc/elements/1.1/"
   xmlns:cc="http://creativecommons.org/ns#"
   xmlns:rdf="http://www.w3.org/1999/02/22-rdf-syntax-ns#"
   xmlns:svg="http://www.w3.org/2000/svg"
   xmlns="http://www.w3.org/2000/svg"
   xmlns:sodipodi="http://sodipodi.sourceforge.net/DTD/sodipodi-0.dtd"
   xmlns:inkscape="http://www.inkscape.org/namespaces/inkscape"
   width="512"
   height="512"
   id="svg2"
   sodipodi:version="0.32"
   inkscape:version="0.48.3.1 r9886"
   sodipodi:docname="slideshare.svg"
   version="1.0"
   inkscape:output_extension="org.inkscape.output.svg.inkscape">
  <defs
     id="defs4" />
  <sodipodi:namedview
     id="base"
     pagecolor="#ffffff"
     bordercolor="#666666"
     borderopacity="1.0"
     inkscape:pageopacity="0.0"
     inkscape:pageshadow="2"
     inkscape:zoom="0.90509668"
     inkscape:cx="272.6053"
     inkscape:cy="640.41156"
     inkscape:document-units="px"
     inkscape:current-layer="layer1"
     inkscape:window-width="1487"
     inkscape:window-height="1021"
     inkscape:window-x="0"
     inkscape:window-y="28"
     showgrid="false"
     inkscape:window-maximized="0"
     fit-margin-top="0"
     fit-margin-left="0"
     fit-margin-right="0"
     fit-margin-bottom="0" />
  <metadata
     id="metadata7">
    <rdf:RDF>
      <cc:Work
         rdf:about="">
        <dc:format>image/svg+xml</dc:format>
        <dc:type
           rdf:resource="http://purl.org/dc/dcmitype/StillImage" />
        <dc:title />
        <dc:creator>
          <cc:Agent>
            <dc:title />
          </cc:Agent>
        </dc:creator>
        <dc:subject>
          <rdf:Bag />
        </dc:subject>
        <cc:license
           rdf:resource="http://creativecommons.org/licenses/publicdomain/" />
        <dc:description />
        <dc:contributor>
          <cc:Agent>
            <dc:title />
          </cc:Agent>
        </dc:contributor>
      </cc:Work>
      <cc:License
         rdf:about="http://creativecommons.org/licenses/publicdomain/">
        <cc:permits
           rdf:resource="http://creativecommons.org/ns#Reproduction" />
        <cc:permits
           rdf:resource="http://creativecommons.org/ns#Distribution" />
        <cc:permits
           rdf:resource="http://creativecommons.org/ns#DerivativeWorks" />
      </cc:License>
    </rdf:RDF>
  </metadata>
  <g
     inkscape:label="Layer 1"
     inkscape:groupmode="layer"
     id="layer1"
     transform="translate(-374.21785,-62.236374)">
    <path
       style="fill:#000000;fill-opacity:1;stroke:none"
       d="m 413.89364,62.236374 c -3.62357,0 -6.7037,1.272898 -9.24012,3.809524 -2.53646,2.53662 -3.79331,5.805623 -3.79331,9.791287 l 0,233.710225 c -2.1741,-1.44957 -4.17004,-2.53383 -5.98176,-3.25836 -7.24698,-2.53662 -12.51191,-2.53662 -15.77305,0 -1.81174,1.44958 -2.44018,3.16192 -1.89666,5.15502 0.54352,1.9931 1.17197,3.72165 1.89666,5.17123 0.36237,1.08704 2.18566,4.43441 5.44681,10.05065 3.26114,5.61624 9.42148,12.23261 18.48024,19.84195 1.08705,1.08705 2.17131,2.07671 3.25836,2.98278 1.08705,0.90605 2.3601,1.91193 3.80952,2.99898 1.81173,1.44849 3.71307,2.89436 5.70618,4.34448 1.99256,1.44849 4.25568,2.89435 6.7923,4.34448 6.5223,4.34819 13.40567,8.51282 20.65248,12.49848 6.15976,3.62313 13.21556,7.52073 21.18744,11.68794 7.97187,4.16666 16.12815,8.06426 24.46201,11.68795 -5.43525,16.66826 -8.51562,31.97454 -9.24013,45.92502 -0.72451,13.95048 -0.53588,26.17678 0.55117,36.68491 1.44958,11.95753 3.97915,23.02136 7.60284,33.16717 5.07271,12.3199 11.23343,22.45585 18.48024,30.42756 7.24681,7.97187 14.68043,14.22664 22.28977,18.75582 7.60934,4.52918 15.12079,7.70414 22.54914,9.51571 7.42835,1.81156 13.68311,2.70719 18.75582,2.70719 5.07272,0 10.60482,-0.89563 16.58359,-2.70719 5.97877,-1.81157 11.49466,-4.62491 16.56737,-8.42959 5.07272,-3.80467 9.33192,-8.33034 12.77407,-13.5846 3.44214,-5.25425 5.17122,-11.50901 5.17122,-18.75582 l 0,-107.6231 c 1.81157,0.72451 3.79145,1.36934 5.96555,1.91286 2.1741,0.54353 4.1702,1.17214 5.98177,1.89666 2.1741,0.72468 4.35883,1.27492 6.53293,1.63728 l 0,100.53901 c 0,7.24681 1.71287,13.50158 5.15501,18.75583 3.43997,5.25425 7.69918,9.77992 12.77406,13.5846 5.07272,3.80467 10.60482,6.61802 16.58359,8.42958 5.97877,1.81156 11.49466,2.72341 16.56738,2.72341 5.07271,0 11.32746,-0.81725 18.75582,-2.44783 7.42836,-1.63057 14.956,-4.80497 22.56535,-9.5157 7.60935,-4.71073 15.02671,-10.96549 22.27356,-18.75583 7.24405,-7.79049 13.40423,-18.02092 18.48024,-30.70314 3.62363,-10.1458 6.16947,-21.19342 7.61905,-33.15096 1.08703,-10.50812 1.16546,-22.73442 0.25937,-36.6849 -0.90604,-13.95043 -3.8918,-29.27298 -8.96454,-45.94124 8.33222,-3.62368 16.39448,-7.50452 24.18643,-11.67173 7.78872,-4.1672 14.76668,-8.06426 20.92806,-11.68794 7.2468,-3.98567 14.31883,-8.1665 21.20365,-12.5147 8.69642,-4.71072 15.84679,-9.598 21.46302,-14.67071 5.61623,-5.07272 10.04783,-9.69298 13.30901,-13.86019 3.26114,-4.1672 5.54045,-7.7032 6.80851,-10.60182 1.26807,-2.89862 1.89666,-4.70607 1.89666,-5.4306 0.72453,-1.44795 1.35312,-3.16082 1.89666,-5.15501 0.54354,-1.99039 -0.0851,-3.71893 -1.89666,-5.17123 -1.63057,-1.26831 -3.75998,-1.89666 -6.38703,-1.89666 -2.62705,0 -5.74641,0.62835 -9.36981,1.89666 -1.08708,0.72452 -2.18749,1.35313 -3.27457,1.89666 -1.08702,0.54352 -2.34373,1.36077 -3.79331,2.44782 l 0,-233.159065 c 0,-3.985674 -1.27287,-7.254662 -3.80952,-9.791287 -2.53661,-2.536631 -5.80563,-3.809524 -9.79129,-3.809524 l -431.01115,0 z m 13.5846,27.18541 403.84195,0 0,235.882466 c -2.17411,1.44957 -4.4372,2.72248 -6.7923,3.80953 -2.3551,1.08704 -4.97978,2.5329 -7.87842,4.34447 -1.08708,0.36253 -2.07674,0.7236 -2.98278,1.08612 -0.90609,0.36253 -1.72329,0.7236 -2.44782,1.08612 l -357.64134,3.80953 c -1.81156,-0.72453 -3.44606,-1.44772 -4.89564,-2.17224 -1.44959,-0.72452 -3.08408,-1.44772 -4.89564,-2.17224 -2.89862,-1.81157 -5.69575,-3.44607 -8.41338,-4.89564 -2.71762,-1.44958 -5.35799,-2.72248 -7.89463,-3.80953 l 0,-236.968586 z M 560.95747,214.60111 c -33.31999,0 -60.32016,27.01638 -60.32016,60.33637 0,33.32 27.00017,60.32017 60.32016,60.32017 33.32,0 60.33638,-27.00017 60.33638,-60.32017 0,-33.31999 -27.01638,-60.33637 -60.33638,-60.33637 z m 142.99494,0 c -33.32,0 -60.32016,27.01638 -60.32016,60.33637 0,33.32 27.00016,60.32017 60.32016,60.32017 33.31999,0 60.33637,-27.00017 60.33637,-60.32017 0,-33.31999 -27.01638,-60.33637 -60.33637,-60.33637 z"
       id="path3256"
       inkscape:connector-curvature="0" />
    <path
       inkscape:connector-curvature="0"
       id="path3237"
       d="m 443.86021,141.73637 c -5.58808,-2.09554 -10.12849,-5.93772 -13.62102,-11.52547 2.09554,2.09554 4.19108,4.01609 6.28662,5.76274 2.09554,1.74664 4.54031,3.66719 7.3344,5.76273 z"
       style="fill:#000000" />
  </g>
</svg>
