<?xml version="1.0" encoding="UTF-8" standalone="no"?>
<!-- Created with Inkscape (http://www.inkscape.org/) -->

<svg
   xmlns:dc="http://purl.org/dc/elements/1.1/"
   xmlns:cc="http://creativecommons.org/ns#"
   xmlns:rdf="http://www.w3.org/1999/02/22-rdf-syntax-ns#"
   xmlns:svg="http://www.w3.org/2000/svg"
   xmlns="http://www.w3.org/2000/svg"
   xmlns:sodipodi="http://sodipodi.sourceforge.net/DTD/sodipodi-0.dtd"
   xmlns:inkscape="http://www.inkscape.org/namespaces/inkscape"
   width="987.97894"
   height="997.0191"
   id="svg2"
   sodipodi:version="0.32"
   inkscape:version="0.48.3.1 r9886"
   sodipodi:docname="flickr.svg"
   version="1.0"
   inkscape:output_extension="org.inkscape.output.svg.inkscape">
  <defs
     id="defs4" />
  <sodipodi:namedview
     id="base"
     pagecolor="#ffffff"
     bordercolor="#666666"
     borderopacity="1.0"
     inkscape:pageopacity="0.0"
     inkscape:pageshadow="2"
     inkscape:zoom="0.45254834"
     inkscape:cx="564.78072"
     inkscape:cy="242.38832"
     inkscape:document-units="px"
     inkscape:current-layer="layer1"
     inkscape:window-width="1487"
     inkscape:window-height="1021"
     inkscape:window-x="0"
     inkscape:window-y="28"
     showgrid="false"
     inkscape:window-maximized="0"
     fit-margin-top="0"
     fit-margin-left="0"
     fit-margin-right="0"
     fit-margin-bottom="0" />
  <metadata
     id="metadata7">
    <rdf:RDF>
      <cc:Work
         rdf:about="">
        <dc:format>image/svg+xml</dc:format>
        <dc:type
           rdf:resource="http://purl.org/dc/dcmitype/StillImage" />
        <dc:title></dc:title>
        <dc:creator>
          <cc:Agent>
            <dc:title />
          </cc:Agent>
        </dc:creator>
        <dc:subject>
          <rdf:Bag />
        </dc:subject>
        <cc:license
           rdf:resource="http://creativecommons.org/licenses/publicdomain/" />
        <dc:description />
        <dc:contributor>
          <cc:Agent>
            <dc:title />
          </cc:Agent>
        </dc:contributor>
      </cc:Work>
      <cc:License
         rdf:about="http://creativecommons.org/licenses/publicdomain/">
        <cc:permits
           rdf:resource="http://creativecommons.org/ns#Reproduction" />
        <cc:permits
           rdf:resource="http://creativecommons.org/ns#Distribution" />
        <cc:permits
           rdf:resource="http://creativecommons.org/ns#DerivativeWorks" />
      </cc:License>
    </rdf:RDF>
  </metadata>
  <g
     inkscape:label="Layer 1"
     inkscape:groupmode="layer"
     id="layer1"
     transform="translate(-374.21785,422.78273)">
    <g
       id="g6867"
       transform="matrix(1.0477707,0,0,-1.0477707,344.32199,390.05803)">
      <path
         id="path6869"
         d="m 372,491 c 15.334,0 29.667,-3 43,-9 13.333,-6 25,-14 35,-24 10,-10 18,-21.667 24,-35 6,-13.333 9,-27.667 9,-43 0,-15.333 -3,-29.667 -9,-43 -6,-13.333 -14,-25 -24,-35 -10,-10 -21.667,-18 -35,-24 -13.333,-6 -27.667,-9 -43,-9 -15.333,0 -29.667,3 -43,9 -13.333,6 -25,14 -35,24 -10,10 -18,21.667 -24,35 -6,13.334 -9,27.667 -9,43 0,15.334 3,29.667 9,43 6,13.333 14,25 24,35 10,10 21.667,18 35,24 13.334,6 27.667,9 43,9 z m 263,0 c 15.333,0 29.667,-3 43,-9 13.333,-6 25,-14 35,-24 10,-10 18,-21.667 24,-35 6,-13.333 9,-27.667 9,-43 0,-15.333 -3,-29.667 -9,-43 -6,-13.333 -14,-25 -24,-35 -10,-10 -21.667,-18 -35,-24 -13.336,-6 -27.669,-9 -43,-9 -15.338,0 -29.671,3 -43,9 -13.333,6 -25,14 -35,24 -10,10 -18,21.667 -24,35 -6,13.334 -9,27.667 -9,43 0,15.334 3,29.667 9,43 6,13.333 14,25 24,35 10,10 21.667,18 35,24 13.333,6 27.667,9 43,9 z M 667,137 C 653.667,124.333 639.167,113.5 623.5,104.5 607.833,95.5 589.333,91 568,91 c -20,0 -37,2 -51,6 -4,0.666702 -8,1.6667 -12,3 -3.33301,1.333 -7,2.5 -11,3.5 -4,1 -7.66699,2.167 -11,3.5 V -91 c 0,-13.333 -3.16699,-24.833 -9.5,-34.5 -6.33301,-9.66701 -14.167,-18 -23.5,-25 -9.333,-7 -19.5,-12.167 -30.5,-15.5 -11,-3.333 -21.167,-5 -30.5,-5 -9.333,0 -20.833,1.66701 -34.5,5 -13.667,3.33299 -27.5,9.16701 -41.5,17.5 -14,8.33299 -27.667,19.833 -41,34.5 -13.333,14.6667 -24.667,33.3333 -34,56 -6.66701,18.6667 -11.333,39 -14,61 -2,19.3333 -2.33299,41.8333 -1,67.5 1.33299,25.6667 7,53.833 17,84.5 -15.333,6.66701 -30.333,13.834 -45,21.5 -14.667,7.66701 -27.667,14.834 -39,21.5 -13.333,7.33299 -26,15 -38,23 -4.667,2.668 -8.834,5.33501 -12.5,8 -3.667,2.668 -7.1667,5.33501 -10.5,8 -2.6667,2 -5,3.83299 -7,5.5 -2,1.66701 -4,3.5 -6,5.5 -16.6667,14 -28,26.167 -34,36.5 -6,10.333 -9.3333,16.5 -10,18.5 -1.3333,2.66699 -2.5,5.83301 -3.5,9.5 -1,3.66699 0.166698,6.83301 3.5,9.5 6,4.66699 15.6667,4.66699 29,0 3.3333,-1.33301 7,-3.33301 11,-6 4.6667,-3.33301 10.6667,-7.5 18,-12.5 7.333,-5 17.667,-11.167 31,-18.5 4.66701,-2 9.5,-4.33301 14.5,-7 5,-2.66699 10.167,-5.66699 15.5,-9 3.33299,-1.33301 6.33299,-2.66699 9,-4 2.66701,-1.33301 5.66701,-2.66699 9,-4 10.667,-5.33299 22,-10 34,-14 10,-3.33299 21.333,-6.83299 34,-10.5 12.667,-3.66701 25.333,-6.5 38,-8.5 h 178 c 3.33301,0 7,-1.66701 11,-5 4,-3.33299 8.5,-7.5 13.5,-12.5 5,-5 10.167,-10.5 15.5,-16.5 5.333,-6 11.333,-11.333 18,-16 l 10,-6 11,-5 c 27.333,-9.33501 49.833,-11.168 67.5,-5.5 17.667,5.66701 30.5,14.167 38.5,25.5 9.33301,13.333 17.167,23.167 23.5,29.5 6.333,6.333 14.5,7.5 24.5,3.5 5.33301,-2 8.16699,-6.16701 8.5,-12.5 0.33301,-6.334 -1,-13.667 -4,-22 -3,-8.333 -7.16699,-16.833 -12.5,-25.5 -5.33301,-8.667 -11,-16.333 -17,-23 z m 295,188 c 3.33301,-2.672 4.5,-5.83801 3.5,-9.5 -1,-3.66901 -2.16699,-6.836 -3.5,-9.5 0,-1.33301 -1.16699,-4.66699 -3.5,-10 C 956.16699,290.66699 952,284.167 946,276.5 940,268.833 931.833,260.333 921.5,251 911.167,241.66701 898,232.667 882,224 869.333,216 856.333,208.333 843,201 831.664,194.33299 818.83,187.167 804.5,179.5 790.164,171.83299 775.33,164.667 760,158 769.33301,127.333 774.833,99.1666 776.5,73.5 778.16699,47.8333 778,25.3333 776,6 c -2.66699,-22 -7.33301,-42.3333 -14,-61 -9.33899,-23.3333 -20.672,-42.1667 -34,-56.5 -13.333,-14.333 -27,-25.833 -41,-34.5 -14,-8.667 -27.833,-14.5 -41.5,-17.5 -13.667,-3 -25.167,-4.5 -34.5,-4.5 -9.333,0 -19.5,1.66701 -30.5,5 -11,3.33299 -21.167,8.5 -30.5,15.5 -9.33698,7 -17.171,15.333 -23.5,25 -6.33301,9.667 -9.5,21.167 -9.5,34.5 V 97 c 7.33301,-1.3333 15.333,-2.6667 24,-4 8.667,-1.3333 17.667,-2 27,-2 21.333,0 39.833,4.5 55.5,13.5 15.667,9 30.167,19.833 43.5,32.5 6,6.66701 11.667,14.334 17,23 5.33301,8.66701 9.5,17.167 12.5,25.5 3,8.333 4.33301,15.667 4,22 -0.35498,6.33299 -3.18799,10.5 -8.5,12.5 -10,4 -18.167,2.83299 -24.5,-3.5 -6.33801,-6.334 -14.172,-16.167 -23.5,-29.5 -8,-11.333 -20.833,-19.833 -38.5,-25.5 -17.667,-5.667 -40.167,-3.83299 -67.5,5.5 -4,1.33299 -7.66699,3 -11,5 l -10,6 v 22 c 0,4.66701 0.66699,9.66701 2,15 0.66901,2.66701 1.33502,4.66701 2,6 3.33301,3.33299 7,5.66701 11,7 4,1.33299 7,2 9,2 h 178 c 13.333,2.66701 26.667,6.16701 40,10.5 13.333,4.33299 25.667,8.5 37,12.5 12.667,4.66699 25,9.66699 37,15 1.33301,0.66699 2.83301,1.33301 4.5,2 1.66699,0.66699 3.5,1.33301 5.5,2 5.33301,3.33301 10.167,6 14.5,8 4.333,2 8.5,4.33301 12.5,7 13.333,7.33301 23.667,13.333 31,18 7.333,4.667 13.667,8.66699 19,12 2.66699,2 5,3.5 7,4.5 2,1 4,2.16699 6,3.5 13.333,4.66699 23,4.66699 29,0 z M 127,285 V 721 H 870 V 287 c 13.333,7.33301 23.667,13.333 31,18 7.333,4.667 13.667,8.66699 19,12 v 429 c 0,7.33301 -2.33301,13.333 -7,18 -4.66699,4.667 -10.667,7 -18,7 H 102 c -6.6668,0 -12.3334,-2.33301 -17,-7 -4.6667,-4.66699 -7,-10.667 -7,-18 V 316 c 4.6667,-3.33301 10.6667,-7.5 18,-12.5 7.333,-5 17.667,-11.167 31,-18.5 z M 95,237 c -5.3333,2 -9.6667,5.66701 -13,11 2,-2 4,-3.83299 6,-5.5 2,-1.66701 4.3333,-3.5 7,-5.5 z m 186,-9 c -12.667,2 -25.333,4.83299 -38,8.5 -12.667,3.66701 -24,7.16701 -34,10.5 -12,4 -23.333,8.66701 -34,14 l 658,7 c -12,-5.33301 -24.333,-10.333 -37,-15 -11.339,-4 -23.673,-8.16701 -37,-12.5 -13.339,-4.33299 -26.672,-7.83299 -40,-10.5 H 541 c -2,0 -5,-0.66701 -9,-2 -4,-1.33501 -7.66699,-3.668 -11,-7 -0.66699,-1.33299 -1.33301,-3.33299 -2,-6 -1.33301,-5.33299 -2,-10.333 -2,-15 v -22 c -6.66699,4.66701 -12.667,10 -18,16 -5.333,6 -10.5,11.5 -15.5,16.5 -5,5 -9.5,9.16701 -13.5,12.5 -4,3.33299 -7.66699,5 -11,5 H 281 v 0 z"
         inkscape:connector-curvature="0"
         style="fill:currentColor" />
    </g>
  </g>
</svg>
