<?xml version="1.0" encoding="UTF-8" standalone="no"?>
<!-- Created with Inkscape (http://www.inkscape.org/) -->

<svg
   xmlns:dc="http://purl.org/dc/elements/1.1/"
   xmlns:cc="http://creativecommons.org/ns#"
   xmlns:rdf="http://www.w3.org/1999/02/22-rdf-syntax-ns#"
   xmlns:svg="http://www.w3.org/2000/svg"
   xmlns="http://www.w3.org/2000/svg"
   xmlns:sodipodi="http://sodipodi.sourceforge.net/DTD/sodipodi-0.dtd"
   xmlns:inkscape="http://www.inkscape.org/namespaces/inkscape"
   width="987.97894"
   height="997.0191"
   id="svg2"
   sodipodi:version="0.32"
   inkscape:version="0.48.3.1 r9886"
   sodipodi:docname="smiley.svg"
   version="1.0"
   inkscape:output_extension="org.inkscape.output.svg.inkscape">
  <defs
     id="defs4" />
  <sodipodi:namedview
     id="base"
     pagecolor="#ffffff"
     bordercolor="#666666"
     borderopacity="1.0"
     inkscape:pageopacity="0.0"
     inkscape:pageshadow="2"
     inkscape:zoom="0.45254834"
     inkscape:cx="299.61567"
     inkscape:cy="242.38832"
     inkscape:document-units="px"
     inkscape:current-layer="layer1"
     inkscape:window-width="1487"
     inkscape:window-height="1021"
     inkscape:window-x="0"
     inkscape:window-y="28"
     showgrid="false"
     inkscape:window-maximized="0"
     fit-margin-top="0"
     fit-margin-left="0"
     fit-margin-right="0"
     fit-margin-bottom="0" />
  <metadata
     id="metadata7">
    <rdf:RDF>
      <cc:Work
         rdf:about="">
        <dc:format>image/svg+xml</dc:format>
        <dc:type
           rdf:resource="http://purl.org/dc/dcmitype/StillImage" />
        <dc:title></dc:title>
        <dc:creator>
          <cc:Agent>
            <dc:title />
          </cc:Agent>
        </dc:creator>
        <dc:subject>
          <rdf:Bag />
        </dc:subject>
        <cc:license
           rdf:resource="http://creativecommons.org/licenses/publicdomain/" />
        <dc:description />
        <dc:contributor>
          <cc:Agent>
            <dc:title />
          </cc:Agent>
        </dc:contributor>
      </cc:Work>
      <cc:License
         rdf:about="http://creativecommons.org/licenses/publicdomain/">
        <cc:permits
           rdf:resource="http://creativecommons.org/ns#Reproduction" />
        <cc:permits
           rdf:resource="http://creativecommons.org/ns#Distribution" />
        <cc:permits
           rdf:resource="http://creativecommons.org/ns#DerivativeWorks" />
      </cc:License>
    </rdf:RDF>
  </metadata>
  <g
     inkscape:label="Layer 1"
     inkscape:groupmode="layer"
     id="layer1"
     transform="translate(-374.21785,422.78273)">
    <g
       id="g6116"
       transform="matrix(0.987,0,0,-0.987,374.70732,371.82682)">
      <path
         id="path6118"
         d="m 761,530 c 0,8.67499 -2.83301,15.842 -8.5,21.5 -5.66699,5.66699 -12.833,8.5 -21.5,8.5 H 271 c -8,0 -15,-2.83301 -21,-8.5 -6,-5.66699 -9,-12.833 -9,-21.5 V 70 c 0,-8 3,-15 9,-21 6,-6 13,-9 21,-9 h 460 c 8.672,0 15.839,3 21.5,9 5.66699,6 8.5,13 8.5,21 V 530 z M 500,800 c 68.667,0 133.5,-13.167 194.5,-39.5 61,-26.333 114,-62 159,-107 45,-45 80.667,-98 107,-159 26.333,-61 39.5,-125.833 39.5,-194.5 0,-46 -6,-90.333 -18,-133 -12,-42.667 -28.833,-82.5 -50.5,-119.5 -21.667,-37 -47.667,-70.6667 -78,-101 -30.333,-30.3333 -64,-56.333 -101,-78 -37,-21.667 -76.833,-38.5 -119.5,-50.5 -42.667,-12 -87,-18 -133,-18 -46,0 -90.333,6 -133,18 -42.667,12 -82.5,28.833 -119.5,50.5 -37,21.667 -70.667,47.6667 -101,78 -30.333,30.3333 -56.3333,64 -78,101 C 46.8333,84.5 30,124.333 18,167 6,209.667 0,254 0,300 c 0,46 6,90.333 18,133 12,42.667 28.8333,82.5 50.5,119.5 21.6667,37 47.667,70.667 78,101 30.333,30.333 64,56.333 101,78 37,21.667 76.833,38.5 119.5,50.5 42.667,12 87,18 133,18 z m 1,-695 c -24.667,0 -48,4.667 -70,14 -22,9.33299 -41.167,22.167 -57.5,38.5 -16.333,16.333 -29.167,35.333 -38.5,57 -9.333,21.667 -14,44.833 -14,69.5 h 361 c 0,-24.667 -4.83301,-47.833 -14.5,-69.5 -9.66699,-21.667 -22.667,-40.667 -39,-57 C 612.167,141.167 593,128.333 571,119 549,109.667 525.667,105 501,105 z m 85,244 c -15.333,0 -28.5,5.5 -39.5,16.5 -11,11 -16.5,24.167 -16.5,39.5 0,15.333 5.5,28.5 16.5,39.5 11,11 24.167,16.5 39.5,16.5 15.333,0 28.5,-5.5 39.5,-16.5 11,-11 16.5,-24.167 16.5,-39.5 0,-15.333 -5.5,-28.5 -16.5,-39.5 -11,-11 -24.167,-16.5 -39.5,-16.5 z m -175,0 c -15.333,0 -28.5,5.5 -39.5,16.5 -11,11 -16.5,24.167 -16.5,39.5 0,15.333 5.5,28.5 16.5,39.5 11,11 24.167,16.5 39.5,16.5 15.333,0 28.5,-5.5 39.5,-16.5 11,-11 16.5,-24.167 16.5,-39.5 0,-15.333 -5.5,-28.5 -16.5,-39.5 -11,-11 -24.167,-16.5 -39.5,-16.5 z"
         inkscape:connector-curvature="0"
         style="fill:currentColor" />
    </g>
  </g>
</svg>
