<?xml version="1.0" encoding="UTF-8" standalone="no"?>
<!-- Created with Inkscape (http://www.inkscape.org/) -->

<svg
   xmlns:dc="http://purl.org/dc/elements/1.1/"
   xmlns:cc="http://creativecommons.org/ns#"
   xmlns:rdf="http://www.w3.org/1999/02/22-rdf-syntax-ns#"
   xmlns:svg="http://www.w3.org/2000/svg"
   xmlns="http://www.w3.org/2000/svg"
   xmlns:sodipodi="http://sodipodi.sourceforge.net/DTD/sodipodi-0.dtd"
   xmlns:inkscape="http://www.inkscape.org/namespaces/inkscape"
   width="512"
   height="512"
   id="svg2"
   sodipodi:version="0.32"
   inkscape:version="0.48.3.1 r9886"
   sodipodi:docname="smiley-alt.svg"
   version="1.0"
   inkscape:output_extension="org.inkscape.output.svg.inkscape">
  <defs
     id="defs4" />
  <sodipodi:namedview
     id="base"
     pagecolor="#ffffff"
     bordercolor="#666666"
     borderopacity="1.0"
     inkscape:pageopacity="0.0"
     inkscape:pageshadow="2"
     inkscape:zoom="0.90509668"
     inkscape:cx="384.90434"
     inkscape:cy="1.9059946"
     inkscape:document-units="px"
     inkscape:current-layer="layer1"
     inkscape:window-width="1487"
     inkscape:window-height="1021"
     inkscape:window-x="0"
     inkscape:window-y="28"
     showgrid="false"
     inkscape:window-maximized="0"
     fit-margin-top="0"
     fit-margin-left="0"
     fit-margin-right="0"
     fit-margin-bottom="0" />
  <metadata
     id="metadata7">
    <rdf:RDF>
      <cc:Work
         rdf:about="">
        <dc:format>image/svg+xml</dc:format>
        <dc:type
           rdf:resource="http://purl.org/dc/dcmitype/StillImage" />
        <dc:title />
        <dc:creator>
          <cc:Agent>
            <dc:title />
          </cc:Agent>
        </dc:creator>
        <dc:subject>
          <rdf:Bag />
        </dc:subject>
        <cc:license
           rdf:resource="http://creativecommons.org/licenses/publicdomain/" />
        <dc:description />
        <dc:contributor>
          <cc:Agent>
            <dc:title />
          </cc:Agent>
        </dc:contributor>
      </cc:Work>
      <cc:License
         rdf:about="http://creativecommons.org/licenses/publicdomain/">
        <cc:permits
           rdf:resource="http://creativecommons.org/ns#Reproduction" />
        <cc:permits
           rdf:resource="http://creativecommons.org/ns#Distribution" />
        <cc:permits
           rdf:resource="http://creativecommons.org/ns#DerivativeWorks" />
      </cc:License>
    </rdf:RDF>
  </metadata>
  <g
     inkscape:label="Layer 1"
     inkscape:groupmode="layer"
     id="layer1"
     transform="translate(-374.21785,-62.236374)">
    <path
       style="fill:#000000;fill-opacity:1;stroke:none"
       d="M 256 0 C 114.61511 0 0 114.61511 0 256 C 0 397.38489 114.61511 512 256 512 C 397.38489 512 512 397.38489 512 256 C 512 114.61511 397.38489 0 256 0 z M 138.3125 123.1875 L 373.40625 123.1875 C 382.2208 123.55539 388.70506 130.46702 388.8125 138.34375 L 388.8125 373.65625 C 388.39892 382.53774 381.19542 388.71085 373.40625 388.8125 L 138.3125 388.8125 C 129.62376 388.39011 123.29296 381.38837 123.1875 373.65625 L 123.1875 138.34375 C 123.60809 129.65863 130.5795 123.29291 138.3125 123.1875 z M 210.03125 173.71875 C 194.19686 173.71875 181.34375 186.54061 181.34375 202.375 C 181.34375 218.20939 194.19686 231.0625 210.03125 231.0625 C 225.86564 231.0625 238.71875 218.20939 238.71875 202.375 C 238.71875 186.54061 225.86564 173.71875 210.03125 173.71875 z M 299.40625 173.71875 C 283.57186 173.71875 270.71875 186.54061 270.71875 202.375 C 270.71875 218.20939 283.57186 231.0625 299.40625 231.0625 C 315.24064 231.0625 328.0625 218.20939 328.0625 202.375 C 328.0625 186.54061 315.24064 173.71875 299.40625 173.71875 z M 163.71875 264 C 163.71875 314.96947 205.03053 356.28125 256 356.28125 C 306.96942 356.28125 348.28125 314.96947 348.28125 264 L 163.71875 264 z "
       transform="translate(374.21785,62.236374)"
       id="path3005" />
  </g>
</svg>
