<?xml version="1.0" encoding="UTF-8" standalone="no"?>
<!-- Created with Inkscape (http://www.inkscape.org/) -->

<svg
   xmlns:dc="http://purl.org/dc/elements/1.1/"
   xmlns:cc="http://creativecommons.org/ns#"
   xmlns:rdf="http://www.w3.org/1999/02/22-rdf-syntax-ns#"
   xmlns:svg="http://www.w3.org/2000/svg"
   xmlns="http://www.w3.org/2000/svg"
   xmlns:sodipodi="http://sodipodi.sourceforge.net/DTD/sodipodi-0.dtd"
   xmlns:inkscape="http://www.inkscape.org/namespaces/inkscape"
   width="512"
   height="512"
   id="svg2"
   sodipodi:version="0.32"
   inkscape:version="0.48.3.1 r9886"
   sodipodi:docname="smiley-alt.svg"
   version="1.0"
   inkscape:output_extension="org.inkscape.output.svg.inkscape">
  <defs
     id="defs4" />
  <sodipodi:namedview
     id="base"
     pagecolor="#ffffff"
     bordercolor="#666666"
     borderopacity="1.0"
     inkscape:pageopacity="0.0"
     inkscape:pageshadow="2"
     inkscape:zoom="0.45254834"
     inkscape:cx="36.660336"
     inkscape:cy="242.38832"
     inkscape:document-units="px"
     inkscape:current-layer="layer1"
     inkscape:window-width="1487"
     inkscape:window-height="1021"
     inkscape:window-x="0"
     inkscape:window-y="28"
     showgrid="false"
     inkscape:window-maximized="0"
     fit-margin-top="0"
     fit-margin-left="0"
     fit-margin-right="0"
     fit-margin-bottom="0" />
  <metadata
     id="metadata7">
    <rdf:RDF>
      <cc:Work
         rdf:about="">
        <dc:format>image/svg+xml</dc:format>
        <dc:type
           rdf:resource="http://purl.org/dc/dcmitype/StillImage" />
        <dc:title />
        <dc:creator>
          <cc:Agent>
            <dc:title />
          </cc:Agent>
        </dc:creator>
        <dc:subject>
          <rdf:Bag />
        </dc:subject>
        <cc:license
           rdf:resource="http://creativecommons.org/licenses/publicdomain/" />
        <dc:description />
        <dc:contributor>
          <cc:Agent>
            <dc:title />
          </cc:Agent>
        </dc:contributor>
      </cc:Work>
      <cc:License
         rdf:about="http://creativecommons.org/licenses/publicdomain/">
        <cc:permits
           rdf:resource="http://creativecommons.org/ns#Reproduction" />
        <cc:permits
           rdf:resource="http://creativecommons.org/ns#Distribution" />
        <cc:permits
           rdf:resource="http://creativecommons.org/ns#DerivativeWorks" />
      </cc:License>
    </rdf:RDF>
  </metadata>
  <g
     inkscape:label="Layer 1"
     inkscape:groupmode="layer"
     id="layer1"
     transform="translate(-374.21785,-62.236374)">
    <path
       style="fill:#000000;fill-opacity:1;stroke:none"
       d="m 630.21785,62.236374 c -141.38489,0 -256,114.615106 -256,255.999996 0,141.38489 114.61511,256 256,256 141.38489,0 256,-114.61511 256,-256 0,-141.38489 -114.61511,-255.999996 -256,-255.999996 z m -117.67376,123.201616 235.07194,0 c 4.3742,0 8.02685,1.47455 10.97467,4.42553 2.94781,2.95099 4.42553,6.52659 4.42553,10.7153 l 0,235.3151 c 0,4.18872 -1.47772,7.76431 -4.42553,10.7153 -2.94896,2.95097 -6.60135,4.42553 -10.97467,4.42553 l -235.07194,0 c -4.18413,0 -7.75117,-1.47456 -10.69909,-4.42553 -2.94791,-2.95098 -4.42553,-6.52658 -4.42553,-10.7153 l 0,-235.3151 c 0,-4.18871 1.47762,-7.76431 4.42553,-10.7153 2.94792,-2.95097 6.51496,-4.42553 10.69909,-4.42553 z m 71.7001,50.51267 c -15.83439,0 -28.6768,12.82619 -28.6768,28.66058 0,15.83439 12.84241,28.6768 28.6768,28.6768 15.83439,0 28.6768,-12.84241 28.6768,-28.6768 0,-15.83439 -12.84241,-28.66058 -28.6768,-28.66058 z m 89.36981,0 c -15.83439,0 -28.6768,12.82619 -28.6768,28.66058 0,15.83439 12.84241,28.6768 28.6768,28.6768 15.83439,0 28.66059,-12.84241 28.66059,-28.6768 0,-15.83439 -12.8262,-28.66058 -28.66059,-28.66058 z m -135.68389,90.2776 c 0,50.96947 41.31827,92.30396 92.28774,92.30396 50.96942,0 92.28774,-41.33449 92.28774,-92.30396 l -184.57548,0 z"
       id="path3230"
       inkscape:connector-curvature="0" />
  </g>
</svg>
