<?xml version="1.0" encoding="UTF-8" standalone="no"?>
<!-- Created with Inkscape (http://www.inkscape.org/) -->

<svg
   xmlns:dc="http://purl.org/dc/elements/1.1/"
   xmlns:cc="http://creativecommons.org/ns#"
   xmlns:rdf="http://www.w3.org/1999/02/22-rdf-syntax-ns#"
   xmlns:svg="http://www.w3.org/2000/svg"
   xmlns="http://www.w3.org/2000/svg"
   xmlns:sodipodi="http://sodipodi.sourceforge.net/DTD/sodipodi-0.dtd"
   xmlns:inkscape="http://www.inkscape.org/namespaces/inkscape"
   width="987.97894"
   height="997.0191"
   id="svg2"
   sodipodi:version="0.32"
   inkscape:version="0.48.3.1 r9886"
   sodipodi:docname="wheelchair.svg"
   version="1.0"
   inkscape:output_extension="org.inkscape.output.svg.inkscape">
  <defs
     id="defs4" />
  <sodipodi:namedview
     id="base"
     pagecolor="#ffffff"
     bordercolor="#666666"
     borderopacity="1.0"
     inkscape:pageopacity="0.0"
     inkscape:pageshadow="2"
     inkscape:zoom="0.45254834"
     inkscape:cx="653.16907"
     inkscape:cy="242.38832"
     inkscape:document-units="px"
     inkscape:current-layer="layer1"
     inkscape:window-width="1487"
     inkscape:window-height="1021"
     inkscape:window-x="0"
     inkscape:window-y="28"
     showgrid="false"
     inkscape:window-maximized="0"
     fit-margin-top="0"
     fit-margin-left="0"
     fit-margin-right="0"
     fit-margin-bottom="0" />
  <metadata
     id="metadata7">
    <rdf:RDF>
      <cc:Work
         rdf:about="">
        <dc:format>image/svg+xml</dc:format>
        <dc:type
           rdf:resource="http://purl.org/dc/dcmitype/StillImage" />
        <dc:title></dc:title>
        <dc:creator>
          <cc:Agent>
            <dc:title />
          </cc:Agent>
        </dc:creator>
        <dc:subject>
          <rdf:Bag />
        </dc:subject>
        <cc:license
           rdf:resource="http://creativecommons.org/licenses/publicdomain/" />
        <dc:description />
        <dc:contributor>
          <cc:Agent>
            <dc:title />
          </cc:Agent>
        </dc:contributor>
      </cc:Work>
      <cc:License
         rdf:about="http://creativecommons.org/licenses/publicdomain/">
        <cc:permits
           rdf:resource="http://creativecommons.org/ns#Reproduction" />
        <cc:permits
           rdf:resource="http://creativecommons.org/ns#Distribution" />
        <cc:permits
           rdf:resource="http://creativecommons.org/ns#DerivativeWorks" />
      </cc:License>
    </rdf:RDF>
  </metadata>
  <g
     inkscape:label="Layer 1"
     inkscape:groupmode="layer"
     id="layer1"
     transform="translate(-374.21785,422.78273)">
    <g
       id="g7385"
       transform="matrix(1.0533618,0,0,-1.0533618,346.26655,396.52341)">
      <path
         id="path7387"
         d="m 764,-102 c -10.667,0 -19.333,4 -26,12 -6.66699,7.3333 -9.66699,15.6666 -9,25 0.66699,9.3333 4.66699,17.3333 12,24 49.333,44 87.333,96 114,156 26.667,60 40,123 40,189 0,66.667 -13.333,130 -40,190 -26.667,60 -64.667,112 -114,156 -7.33301,6.66699 -11.333,14.667 -12,24 -0.667,9.333 2.33301,17.667 9,25 6.66699,7.333 14.667,11.333 24,12 9.333,0.667 17.667,-2.33301 25,-9 C 843.667,651.333 887.334,591.5 918,522.5 948.667,453.5 964,380.667 964,304 964,228 948.667,155.5 918,86.5 887.333,17.5 843.667,-42.333 787,-93 c -7.33301,-6 -15,-9 -23,-9 z M 691,20 c -9.33301,0 -17.333,3.3333 -24,10 -7.33301,7.3333 -11,15.6667 -11,25 0,9.3333 3.66699,17.3333 11,24 30,30.667 52.833,65.5 68.5,104.5 15.667,39 23.5,79.833 23.5,122.5 0,42.667 -7.83301,83.5 -23.5,122.5 -15.66699,39 -38.5,73.5 -68.5,103.5 -7.33301,7.33301 -11,15.667 -11,25 0,9.333 3.66699,17.667 11,25 7.33301,6.66699 15.667,10 25,10 9.333,0 17.333,-3.66699 24,-11 36.667,-37.333 64.667,-79.5 84,-126.5 19.333,-47 29,-96.5 29,-148.5 0,-52 -9.66699,-101.667 -29,-149 C 780.667,109.667 752.667,67.6667 716,31 708.66101,23.6667 700.328,20 691,20 z M 572,671 c 14,-6.66699 21,-17.667 21,-33 V -41 c 0,-7.3333 -1.83301,-13.8333 -5.5,-19.5 -3.66699,-5.6665 -8.83301,-9.8332 -15.5,-12.5 -5.34198,-2 -9.67499,-3 -13,-3 -10.667,0 -19,3.6667 -25,11 -0.66699,0.666702 -6.66699,6.3333 -18,17 -11.33301,10.6667 -27.333,24.1667 -48,40.5 -20.667,16.3333 -45.334,33.8333 -74,52.5 -28.667,18.6667 -60.5,36 -95.5,52 -35,16 -72.5,29.333 -112.5,40 -40,10.667 -81.333,16 -124,16 -10,0 -18.3333,3.5 -25,10.5 -6.6667,7 -10,15.167 -10,24.5 v 221 c 0,9.33301 3.3333,17.5 10,24.5 6.6667,7 15,10.5 25,10.5 42.667,0 84,5.33301 124,16 40,10.66699 77.5,24 112.5,40 35,16 66.833,33.5 95.5,52.5 28.667,19 53.333,36.5 74,52.5 20.667,16 36.667,29.5 48,40.5 11.333,11 17.333,16.833 18,17.5 10,10.687 22.667,13.354 38,8 z"
         inkscape:connector-curvature="0"
         style="fill:currentColor" />
    </g>
  </g>
</svg>
