<?xml version="1.0" encoding="UTF-8" standalone="no"?>
<!-- Created with Inkscape (http://www.inkscape.org/) -->

<svg
   xmlns:dc="http://purl.org/dc/elements/1.1/"
   xmlns:cc="http://creativecommons.org/ns#"
   xmlns:rdf="http://www.w3.org/1999/02/22-rdf-syntax-ns#"
   xmlns:svg="http://www.w3.org/2000/svg"
   xmlns="http://www.w3.org/2000/svg"
   xmlns:sodipodi="http://sodipodi.sourceforge.net/DTD/sodipodi-0.dtd"
   xmlns:inkscape="http://www.inkscape.org/namespaces/inkscape"
   width="512"
   height="512"
   id="svg2"
   sodipodi:version="0.32"
   inkscape:version="0.48.3.1 r9886"
   sodipodi:docname="star-empty.svg"
   version="1.0"
   inkscape:output_extension="org.inkscape.output.svg.inkscape">
  <defs
     id="defs4" />
  <sodipodi:namedview
     id="base"
     pagecolor="#ffffff"
     bordercolor="#666666"
     borderopacity="1.0"
     inkscape:pageopacity="0.0"
     inkscape:pageshadow="2"
     inkscape:zoom="0.45254834"
     inkscape:cx="286.38198"
     inkscape:cy="558.99369"
     inkscape:document-units="px"
     inkscape:current-layer="layer1"
     inkscape:window-width="1487"
     inkscape:window-height="1021"
     inkscape:window-x="0"
     inkscape:window-y="28"
     showgrid="false"
     inkscape:window-maximized="0"
     fit-margin-top="0"
     fit-margin-left="0"
     fit-margin-right="0"
     fit-margin-bottom="0" />
  <metadata
     id="metadata7">
    <rdf:RDF>
      <cc:Work
         rdf:about="">
        <dc:format>image/svg+xml</dc:format>
        <dc:type
           rdf:resource="http://purl.org/dc/dcmitype/StillImage" />
        <dc:title />
        <dc:creator>
          <cc:Agent>
            <dc:title />
          </cc:Agent>
        </dc:creator>
        <dc:subject>
          <rdf:Bag />
        </dc:subject>
        <cc:license
           rdf:resource="http://creativecommons.org/licenses/publicdomain/" />
        <dc:description />
        <dc:contributor>
          <cc:Agent>
            <dc:title />
          </cc:Agent>
        </dc:contributor>
      </cc:Work>
      <cc:License
         rdf:about="http://creativecommons.org/licenses/publicdomain/">
        <cc:permits
           rdf:resource="http://creativecommons.org/ns#Reproduction" />
        <cc:permits
           rdf:resource="http://creativecommons.org/ns#Distribution" />
        <cc:permits
           rdf:resource="http://creativecommons.org/ns#DerivativeWorks" />
      </cc:License>
    </rdf:RDF>
  </metadata>
  <g
     inkscape:label="Layer 1"
     inkscape:groupmode="layer"
     id="layer1"
     transform="translate(-374.21785,-62.236374)">
    <path
       style="font-size:medium;font-style:normal;font-variant:normal;font-weight:normal;font-stretch:normal;text-indent:0;text-align:start;text-decoration:none;line-height:normal;letter-spacing:normal;word-spacing:normal;text-transform:none;direction:ltr;block-progression:tb;writing-mode:lr-tb;text-anchor:start;baseline-shift:baseline;color:#000000;fill:#000000;fill-opacity:1;stroke:none;stroke-width:33.9072876;marker:none;visibility:visible;display:inline;overflow:visible;enable-background:accumulate;font-family:Sans;-inkscape-font-specification:Sans"
       d="m 630.225,71.32499 c -1.36043,0 -2.7627,0.08672 -4.19422,0.281701 -2.86306,0.389972 -5.81423,1.206655 -8.60755,2.535314 -1.39666,0.664329 -2.74703,1.471426 -4.03772,2.410113 -2.58139,1.877372 -4.73061,4.183508 -6.41653,6.698236 -0.84296,1.257363 -1.56692,2.565275 -2.19101,3.881221 -0.52962,1.116743 -0.9091,2.266198 -1.28331,3.380418 l -0.0626,-0.0313 -51.39488,144.606777 -149.7713,0 c -5.47004,0 -11.035,2.16793 -15.74399,5.50883 -1.17725,0.83523 -2.2941,1.72696 -3.34912,2.69182 -1.05502,0.96485 -2.0706,2.0046 -2.97351,3.06741 -1.80585,2.12564 -3.26986,4.40208 -4.28813,6.72954 l -0.3756,0.84511 -0.2817,0.9077 c -0.39804,1.27371 -0.67762,2.62182 -0.8451,4.00642 -0.83744,6.92298 1.12388,14.9239 5.03932,21.03371 1.51978,2.37153 3.35525,4.44806 5.41493,6.07224 l 0.1878,0.1565 116.74963,92.3355 -52.77208,148.33149 -0.1252,0.31301 -0.0938,0.313 c -1.19411,3.82113 -1.32294,8.25642 -0.56341,12.64526 0.25318,1.46295 0.58962,2.92031 1.03291,4.35073 0.44329,1.43042 0.97637,2.84413 1.59631,4.19422 1.52985,3.33173 3.64029,6.23848 6.10353,8.57625 l -0.0626,0.0626 c 0.28007,0.28007 0.64224,0.48437 0.93901,0.7512 0.25087,0.21302 0.46135,0.48973 0.7199,0.68861 l 0.0312,-0.0626 c 0.66386,0.54903 1.27822,1.14381 2.00321,1.62761 2.67479,1.78494 5.71077,3.10608 8.76405,3.88122 1.52663,0.38758 3.08237,0.65204 4.56982,0.75121 1.43748,0.0959 2.92108,0.055 4.41333,-0.0938 2.98449,-0.29787 6.01088,-1.06624 8.79534,-2.28491 1.12771,-0.49357 2.16211,-1.11716 3.19262,-1.75281 l 0.0312,0.0312 0.7199,-0.43821 139.1293,-83.07064 139.12925,83.07064 0.7199,0.43821 c 0.83343,0.52161 1.67733,1.01843 2.59792,1.4711 1.18039,0.58042 2.42876,1.10437 3.72472,1.53371 1.29596,0.42934 2.65735,0.76574 4.03772,1.00161 1.38037,0.23587 2.7919,0.3756 4.22552,0.3756 1.71496,0 3.46681,-0.21433 5.19583,-0.5947 1.72902,-0.38037 3.42986,-0.92756 5.07063,-1.62761 1.64077,-0.70005 3.21352,-1.54499 4.66372,-2.50402 0.82708,-0.54695 1.51465,-1.19972 2.25362,-1.81541 l 0.0312,0.0626 c 0.27002,-0.20772 0.48955,-0.49678 0.7512,-0.71991 0.28155,-0.25511 0.64348,-0.45568 0.9077,-0.7199 l -0.0626,-0.0626 c 2.46324,-2.33777 4.54239,-5.24452 6.07224,-8.57625 0.61993,-1.35009 1.18432,-2.7638 1.62761,-4.19422 0.44329,-1.43042 0.77973,-2.88778 1.0329,-4.35073 0.75954,-4.38884 0.6307,-8.82413 -0.5634,-12.64526 l -0.0938,-0.313 -0.1252,-0.31301 -52.77209,-148.33149 116.74963,-92.3355 0.0626,-0.0626 c 0.0403,-0.0312 0.0851,-0.0623 0.1252,-0.0938 0.9984,-0.78729 1.93951,-1.67647 2.81702,-2.66052 0.93277,-1.04602 1.81483,-2.18976 2.59791,-3.41171 2.34927,-3.66589 3.9668,-8.00602 4.72633,-12.39487 0.25317,-1.46296 0.41992,-2.93435 0.4695,-4.38203 0.0496,-1.44767 0.011,-2.87222 -0.1565,-4.25682 -0.16749,-1.3846 -0.44707,-2.73271 -0.84511,-4.00642 l -0.2817,-0.90775 -0.3756,-0.84511 c -0.50914,-1.16372 -1.12575,-2.31391 -1.84671,-3.44302 -0.72095,-1.12911 -1.5698,-2.2237 -2.47271,-3.28652 -0.90292,-1.06281 -1.8872,-2.10256 -2.94222,-3.06741 -2.11003,-1.92971 -4.47202,-3.62888 -7.01124,-4.97673 -1.26961,-0.67392 -2.5804,-1.24056 -3.91252,-1.72151 -1.33211,-0.48095 -2.70427,-0.87049 -4.06902,-1.1268 -1.36475,-0.25631 -2.73281,-0.37561 -4.10032,-0.37561 l -149.77131,0 -51.39487,-144.606777 -0.0626,0.0313 c -0.81518,-2.427192 -1.916,-4.937247 -3.47432,-7.261639 -1.68592,-2.514728 -3.83515,-4.820864 -6.41654,-6.698236 -1.29069,-0.938687 -2.64106,-1.745784 -4.03772,-2.410113 -1.39666,-0.664329 -2.84452,-1.211179 -4.28812,-1.627609 -1.44361,-0.416429 -2.8879,-0.712719 -4.31942,-0.907705 -1.43153,-0.194985 -2.8338,-0.281701 -4.19423,-0.281701 z m 0,45.22875 50.17417,141.19506 4.00642,11.29936 11.98797,0 145.82748,0 -114.18301,90.30098 -9.54655,7.54334 4.06902,11.45586 51.73918,145.42059 -135.37323,-80.87964 -8.70145,-5.19583 -8.70144,5.19583 -135.37323,80.87964 51.73918,-145.42059 4.06902,-11.45586 -9.54655,-7.54334 -114.18302,-90.30098 145.82749,0 11.95666,0 4.03772,-11.29936 50.17417,-141.19506 z"
       id="path3166"
       inkscape:connector-curvature="0" />
  </g>
</svg>
