<?xml version="1.0" encoding="UTF-8" standalone="no"?>
<!-- Created with Inkscape (http://www.inkscape.org/) -->

<svg
   xmlns:dc="http://purl.org/dc/elements/1.1/"
   xmlns:cc="http://creativecommons.org/ns#"
   xmlns:rdf="http://www.w3.org/1999/02/22-rdf-syntax-ns#"
   xmlns:svg="http://www.w3.org/2000/svg"
   xmlns="http://www.w3.org/2000/svg"
   xmlns:sodipodi="http://sodipodi.sourceforge.net/DTD/sodipodi-0.dtd"
   xmlns:inkscape="http://www.inkscape.org/namespaces/inkscape"
   width="512"
   height="512"
   id="svg2"
   sodipodi:version="0.32"
   inkscape:version="0.48.3.1 r9886"
   sodipodi:docname="star-alt.svg"
   version="1.0"
   inkscape:output_extension="org.inkscape.output.svg.inkscape">
  <defs
     id="defs4" />
  <sodipodi:namedview
     id="base"
     pagecolor="#ffffff"
     bordercolor="#666666"
     borderopacity="1.0"
     inkscape:pageopacity="0.0"
     inkscape:pageshadow="2"
     inkscape:zoom="0.90509668"
     inkscape:cx="635.48246"
     inkscape:cy="272.99877"
     inkscape:document-units="px"
     inkscape:current-layer="layer1"
     inkscape:window-width="1920"
     inkscape:window-height="1025"
     inkscape:window-x="0"
     inkscape:window-y="27"
     showgrid="false"
     inkscape:window-maximized="1"
     fit-margin-top="0"
     fit-margin-left="0"
     fit-margin-right="0"
     fit-margin-bottom="0" />
  <metadata
     id="metadata7">
    <rdf:RDF>
      <cc:Work
         rdf:about="">
        <dc:format>image/svg+xml</dc:format>
        <dc:type
           rdf:resource="http://purl.org/dc/dcmitype/StillImage" />
        <dc:title />
        <dc:creator>
          <cc:Agent>
            <dc:title />
          </cc:Agent>
        </dc:creator>
        <dc:subject>
          <rdf:Bag />
        </dc:subject>
        <cc:license
           rdf:resource="http://creativecommons.org/licenses/publicdomain/" />
        <dc:description />
        <dc:contributor>
          <cc:Agent>
            <dc:title />
          </cc:Agent>
        </dc:contributor>
      </cc:Work>
      <cc:License
         rdf:about="http://creativecommons.org/licenses/publicdomain/">
        <cc:permits
           rdf:resource="http://creativecommons.org/ns#Reproduction" />
        <cc:permits
           rdf:resource="http://creativecommons.org/ns#Distribution" />
        <cc:permits
           rdf:resource="http://creativecommons.org/ns#DerivativeWorks" />
      </cc:License>
    </rdf:RDF>
  </metadata>
  <g
     inkscape:label="Layer 1"
     inkscape:groupmode="layer"
     id="layer1"
     transform="translate(-374.21785,-62.236374)">
    <path
       style="fill:#000000;fill-opacity:1;stroke:none"
       d="m 630.21785,62.236374 c -141.3849,0 -256,114.615096 -256,255.999996 0,141.3849 114.6151,256 256,256 141.3849,0 256,-114.6151 256,-256 0,-141.3849 -114.6151,-255.999996 -256,-255.999996 z m 0.37285,118.792296 c 3.24786,0 5.35072,1.53083 6.30597,4.58764 l 32.38906,91.12057 94.57346,0 c 2.86574,0 4.96862,1.53083 6.30598,4.58764 0.95525,3.0568 0.18171,5.54643 -2.30193,7.45694 l -73.93718,58.45592 33.24822,93.4225 c 0.0597,0.19104 0.11584,0.3808 0.16211,0.56737 0.0463,0.18657 0.0806,0.36907 0.11348,0.55117 0.0328,0.18209 0.0616,0.37354 0.0811,0.55116 0.0194,0.17762 0.0265,0.3456 0.0324,0.51875 0.0179,0.51941 -0.0267,1.01227 -0.12968,1.49138 -0.0344,0.15971 -0.0657,0.3311 -0.11348,0.48633 -0.0478,0.15522 -0.10091,0.30314 -0.16211,0.4539 -0.18359,0.45225 -0.4412,0.88491 -0.74569,1.29686 -0.20299,0.27463 -0.42413,0.5376 -0.68085,0.79432 -0.12837,0.12836 -0.26347,0.24896 -0.40527,0.37285 -0.1418,0.12389 -0.29867,0.25344 -0.4539,0.37285 -0.14329,0.14328 -0.28843,0.27989 -0.43769,0.40526 -0.14926,0.12538 -0.29867,0.23296 -0.4539,0.34043 -0.31046,0.21493 -0.63831,0.39167 -0.97265,0.53495 -0.33434,0.14329 -0.67926,0.25258 -1.03748,0.32422 -0.35823,0.0716 -0.72023,0.11347 -1.10233,0.11347 -0.28657,0 -0.5726,-0.0333 -0.85917,-0.0811 -0.28658,-0.0478 -0.5726,-0.11521 -0.85917,-0.21074 -0.57315,-0.19105 -1.14518,-0.47707 -1.71834,-0.85917 l -86.84093,-51.87437 -86.82472,51.87437 c -0.28658,0.19105 -0.58711,0.36522 -0.8916,0.50253 -0.15224,0.0687 -0.31338,0.1231 -0.47011,0.17832 -0.15672,0.0552 -0.30891,0.10411 -0.47011,0.1459 -0.1612,0.0418 -0.32064,0.0851 -0.48632,0.11347 -0.33135,0.0567 -0.67201,0.0781 -1.02128,0.0811 -0.17463,0.002 -0.35584,-0.004 -0.53495,-0.0162 -0.35822,-0.0239 -0.69291,-0.0683 -1.02128,-0.14589 -0.65673,-0.15523 -1.26206,-0.42417 -1.79939,-0.79433 -0.13433,-0.0925 -0.26219,-0.18582 -0.38906,-0.29179 -0.12687,-0.10598 -0.25344,-0.22102 -0.37284,-0.34043 -0.15523,-0.1194 -0.2959,-0.24896 -0.43769,-0.37285 -0.42539,-0.37165 -0.79785,-0.75522 -1.10233,-1.16717 -0.1015,-0.13732 -0.18753,-0.27968 -0.27559,-0.42148 -0.0881,-0.14179 -0.16853,-0.29141 -0.24316,-0.43769 -0.14926,-0.29254 -0.27732,-0.58113 -0.37285,-0.89159 -0.0955,-0.31046 -0.16895,-0.64427 -0.21074,-0.97264 -0.0209,-0.16419 -0.0249,-0.31767 -0.0324,-0.48632 -0.007,-0.16866 -0.0222,-0.34561 -0.0162,-0.51875 0.006,-0.17314 0.0293,-0.34112 0.0486,-0.51874 0.0388,-0.35524 0.102,-0.72918 0.19453,-1.10233 0.0463,-0.18657 0.10241,-0.37633 0.16211,-0.56738 l 33.23202,-93.42252 -73.93719,-58.45592 c -1.08659,-0.83585 -1.84113,-1.78163 -2.2695,-2.83688 -0.0612,-0.15076 -0.11435,-0.29868 -0.16211,-0.4539 -0.0955,-0.31046 -0.16895,-0.64428 -0.21074,-0.97265 -0.0209,-0.16418 -0.0249,-0.31766 -0.0324,-0.48632 -0.0149,-0.33732 -0.006,-0.68225 0.0324,-1.03749 0.0388,-0.35523 0.10199,-0.72918 0.19453,-1.10233 0.0463,-0.18657 0.10241,-0.37633 0.16211,-0.56737 0.0836,-0.19105 0.16982,-0.37206 0.25937,-0.55117 0.0896,-0.17911 0.18006,-0.35157 0.27558,-0.51874 0.19105,-0.33434 0.40108,-0.65365 0.61601,-0.94023 0.10747,-0.14328 0.21078,-0.27392 0.32422,-0.40526 0.11343,-0.13135 0.23723,-0.25345 0.35663,-0.37285 0.35822,-0.35822 0.73901,-0.67326 1.15097,-0.92401 0.13731,-0.0836 0.27819,-0.15531 0.42147,-0.22695 0.42987,-0.21493 0.87811,-0.37886 1.36171,-0.48633 0.1612,-0.0358 0.33536,-0.0572 0.50253,-0.0811 0.16717,-0.0239 0.32939,-0.0529 0.50253,-0.0648 0.17314,-0.0119 0.35585,-0.0162 0.53496,-0.0162 l 94.57345,0 32.37285,-91.12056 c 0.0597,-0.19105 0.12587,-0.38827 0.19453,-0.56738 0.13731,-0.35822 0.29697,-0.6784 0.47011,-0.98886 0.17314,-0.31045 0.35842,-0.59647 0.56738,-0.85917 0.31344,-0.39404 0.67586,-0.7347 1.0699,-1.02127 0.13135,-0.0955 0.26497,-0.192 0.40527,-0.27558 0.42091,-0.25076 0.87641,-0.4403 1.37792,-0.58359 0.66867,-0.19105 1.4089,-0.29179 2.22087,-0.29179 z"
       id="path3102"
       inkscape:connector-curvature="0" />
  </g>
</svg>
