<?xml version="1.0" encoding="UTF-8" standalone="no"?>
<!-- Created with Inkscape (http://www.inkscape.org/) -->

<svg
   xmlns:dc="http://purl.org/dc/elements/1.1/"
   xmlns:cc="http://creativecommons.org/ns#"
   xmlns:rdf="http://www.w3.org/1999/02/22-rdf-syntax-ns#"
   xmlns:svg="http://www.w3.org/2000/svg"
   xmlns="http://www.w3.org/2000/svg"
   xmlns:sodipodi="http://sodipodi.sourceforge.net/DTD/sodipodi-0.dtd"
   xmlns:inkscape="http://www.inkscape.org/namespaces/inkscape"
   width="987.97894"
   height="997.0191"
   id="svg2"
   sodipodi:version="0.32"
   inkscape:version="0.48.3.1 r9886"
   sodipodi:docname="text-height.svg"
   version="1.0"
   inkscape:output_extension="org.inkscape.output.svg.inkscape">
  <defs
     id="defs4" />
  <sodipodi:namedview
     id="base"
     pagecolor="#ffffff"
     bordercolor="#666666"
     borderopacity="1.0"
     inkscape:pageopacity="0.0"
     inkscape:pageshadow="2"
     inkscape:zoom="0.45254834"
     inkscape:cx="245.74342"
     inkscape:cy="435.74142"
     inkscape:document-units="px"
     inkscape:current-layer="text10546"
     inkscape:window-width="1487"
     inkscape:window-height="1021"
     inkscape:window-x="0"
     inkscape:window-y="28"
     showgrid="false"
     inkscape:window-maximized="0"
     fit-margin-top="0"
     fit-margin-left="0"
     fit-margin-right="0"
     fit-margin-bottom="0" />
  <metadata
     id="metadata7">
    <rdf:RDF>
      <cc:Work
         rdf:about="">
        <dc:format>image/svg+xml</dc:format>
        <dc:type
           rdf:resource="http://purl.org/dc/dcmitype/StillImage" />
        <dc:title></dc:title>
        <dc:creator>
          <cc:Agent>
            <dc:title />
          </cc:Agent>
        </dc:creator>
        <dc:subject>
          <rdf:Bag />
        </dc:subject>
        <cc:license
           rdf:resource="http://creativecommons.org/licenses/publicdomain/" />
        <dc:description />
        <dc:contributor>
          <cc:Agent>
            <dc:title />
          </cc:Agent>
        </dc:contributor>
      </cc:Work>
      <cc:License
         rdf:about="http://creativecommons.org/licenses/publicdomain/">
        <cc:permits
           rdf:resource="http://creativecommons.org/ns#Reproduction" />
        <cc:permits
           rdf:resource="http://creativecommons.org/ns#Distribution" />
        <cc:permits
           rdf:resource="http://creativecommons.org/ns#DerivativeWorks" />
      </cc:License>
    </rdf:RDF>
  </metadata>
  <g
     inkscape:label="Layer 1"
     inkscape:groupmode="layer"
     id="layer1"
     transform="translate(-374.21785,422.78273)">
    <g
       style="font-size:1353.90222168px;font-style:italic;font-variant:normal;font-weight:normal;font-stretch:normal;line-height:125%;letter-spacing:0px;word-spacing:0px;fill:#000000;fill-opacity:1;stroke:none;font-family:Serif;-inkscape-font-specification:Serif Italic"
       id="text10546">
      <g
         id="g10625"
         transform="matrix(0.91300864,0,0,0.91300864,756.70184,6.5875811)">
        <path
           inkscape:connector-curvature="0"
           id="path10576"
           d="m 375.33818,-259.92772 q -3.12237,-8.43039 8.74263,-20.91987 l 114.90313,-115.5276 q 8.74264,-7.49369 20.60763,-7.49369 8.74264,0 19.35868,7.49369 l 114.90315,115.5276 q 11.24053,12.48948 8.11816,20.91987 -3.12237,8.43039 -21.2321,8.43039 h -73.6879 v 654.44831 h 73.6879 q 18.10973,0 21.2321,8.43038 3.12237,8.4304 -8.11816,19.67092 L 538.95025,547.82884 q -9.99158,7.49368 -20.60762,7.49368 -9.99158,0 -19.35869,-7.49368 L 384.08081,431.05228 q -11.24053,-11.24052 -8.11816,-19.67092 3.12237,-8.43038 19.35869,-8.43038 h 75.5613 v -654.44831 h -75.5613 q -16.86079,0 -19.98316,-8.43039 z"
           style="fill:currentColor" />
        <g
           transform="matrix(0.84842138,0,0,0.84842138,-1204.9559,65.846734)"
           id="text10591"
           style="font-style:normal;line-height:125%;fill:#000000;font-family:Serif;-inkscape-font-specification:Serif">
          <path
             inkscape:connector-curvature="0"
             id="path10596"
             d="m 1172.3549,505.14526 0,-70.07501 126.2673,0 0,-838.25587 -290.2164,0 0,154.03282 -81.31343,0 0,-232.70194 876.59883,0 0,232.70194 -81.3135,0 0,-154.03282 -290.2163,0 0,838.25587 126.2672,0 0,70.07501 -386.0737,0" />
        </g>
      </g>
    </g>
  </g>
</svg>
