<?xml version="1.0" encoding="UTF-8" standalone="no"?>
<!-- Created with Inkscape (http://www.inkscape.org/) -->

<svg
   xmlns:dc="http://purl.org/dc/elements/1.1/"
   xmlns:cc="http://creativecommons.org/ns#"
   xmlns:rdf="http://www.w3.org/1999/02/22-rdf-syntax-ns#"
   xmlns:svg="http://www.w3.org/2000/svg"
   xmlns="http://www.w3.org/2000/svg"
   xmlns:sodipodi="http://sodipodi.sourceforge.net/DTD/sodipodi-0.dtd"
   xmlns:inkscape="http://www.inkscape.org/namespaces/inkscape"
   width="512"
   height="512"
   id="svg2"
   sodipodi:version="0.32"
   inkscape:version="0.48.3.1 r9886"
   sodipodi:docname="text-height.svg"
   version="1.0"
   inkscape:output_extension="org.inkscape.output.svg.inkscape">
  <defs
     id="defs4" />
  <sodipodi:namedview
     id="base"
     pagecolor="#ffffff"
     bordercolor="#666666"
     borderopacity="1.0"
     inkscape:pageopacity="0.0"
     inkscape:pageshadow="2"
     inkscape:zoom="0.45254834"
     inkscape:cx="-17.211914"
     inkscape:cy="435.74142"
     inkscape:document-units="px"
     inkscape:current-layer="text10546"
     inkscape:window-width="1487"
     inkscape:window-height="1021"
     inkscape:window-x="0"
     inkscape:window-y="28"
     showgrid="false"
     inkscape:window-maximized="0"
     fit-margin-top="0"
     fit-margin-left="0"
     fit-margin-right="0"
     fit-margin-bottom="0" />
  <metadata
     id="metadata7">
    <rdf:RDF>
      <cc:Work
         rdf:about="">
        <dc:format>image/svg+xml</dc:format>
        <dc:type
           rdf:resource="http://purl.org/dc/dcmitype/StillImage" />
        <dc:title />
        <dc:creator>
          <cc:Agent>
            <dc:title />
          </cc:Agent>
        </dc:creator>
        <dc:subject>
          <rdf:Bag />
        </dc:subject>
        <cc:license
           rdf:resource="http://creativecommons.org/licenses/publicdomain/" />
        <dc:description />
        <dc:contributor>
          <cc:Agent>
            <dc:title />
          </cc:Agent>
        </dc:contributor>
      </cc:Work>
      <cc:License
         rdf:about="http://creativecommons.org/licenses/publicdomain/">
        <cc:permits
           rdf:resource="http://creativecommons.org/ns#Reproduction" />
        <cc:permits
           rdf:resource="http://creativecommons.org/ns#Distribution" />
        <cc:permits
           rdf:resource="http://creativecommons.org/ns#DerivativeWorks" />
      </cc:License>
    </rdf:RDF>
  </metadata>
  <g
     inkscape:label="Layer 1"
     inkscape:groupmode="layer"
     id="layer1"
     transform="translate(-374.21785,-62.236374)">
    <g
       style="font-size:1353.90222168px;font-style:italic;font-variant:normal;font-weight:normal;font-stretch:normal;line-height:125%;letter-spacing:0px;word-spacing:0px;fill:#000000;fill-opacity:1;stroke:none;font-family:Serif;-inkscape-font-specification:Serif Italic"
       id="text10546">
      <g
         style="font-style:normal;line-height:125%;fill:#000000;font-family:Serif;-inkscape-font-specification:Serif"
         id="text10591"
         transform="matrix(0.77461605,0,0,0.77461605,-343.43331,66.706218)">
        <path
           id="path10596"
           d="m 1053.6889,580.71591 0,-36.35096 65.5003,0 0,-434.83993 -150.54788,0 0,79.90355 -42.18083,0 0,-120.712658 454.73011,0 0,120.712658 -42.1809,0 0,-79.90355 -150.5479,0 0,434.83993 65.5003,0 0,36.35096 -200.2732,0 M 1411.764,119.48928 q -1.909,-5.15453 5.3455,-12.79088 l 70.2544,-70.636136 q 5.3453,-4.581814 12.5999,-4.581814 5.3454,0 11.8364,4.581814 l 70.2542,70.636136 q 6.8727,7.63635 4.9637,12.79088 -1.9091,5.15452 -12.9818,5.15452 h -45.0544 v 400.14423 h 45.0544 q 11.0727,0 12.9818,5.15452 1.909,5.15454 -4.9637,12.02724 l -70.2542,71.39978 q -6.1091,4.5818 -12.6001,4.5818 -6.1091,0 -11.8362,-4.5818 l -70.2544,-71.39978 q -6.8727,-6.8727 -4.9636,-12.02724 1.909,-5.15452 11.8363,-5.15452 h 46.1999 V 124.6438 h -46.1999 q -10.309,0 -12.2182,-5.15452 z"
           inkscape:connector-curvature="0" />
      </g>
    </g>
  </g>
</svg>
