<?xml version="1.0" encoding="UTF-8" standalone="no"?>
<!-- Created with Inkscape (http://www.inkscape.org/) -->

<svg
   xmlns:dc="http://purl.org/dc/elements/1.1/"
   xmlns:cc="http://creativecommons.org/ns#"
   xmlns:rdf="http://www.w3.org/1999/02/22-rdf-syntax-ns#"
   xmlns:svg="http://www.w3.org/2000/svg"
   xmlns="http://www.w3.org/2000/svg"
   xmlns:sodipodi="http://sodipodi.sourceforge.net/DTD/sodipodi-0.dtd"
   xmlns:inkscape="http://www.inkscape.org/namespaces/inkscape"
   width="987.97894"
   height="997.0191"
   id="svg2"
   sodipodi:version="0.32"
   inkscape:version="0.48.3.1 r9886"
   sodipodi:docname="search-alt.svg"
   version="1.0"
   inkscape:output_extension="org.inkscape.output.svg.inkscape">
  <defs
     id="defs4" />
  <sodipodi:namedview
     id="base"
     pagecolor="#ffffff"
     bordercolor="#666666"
     borderopacity="1.0"
     inkscape:pageopacity="0.0"
     inkscape:pageshadow="2"
     inkscape:zoom="0.45254834"
     inkscape:cx="299.61567"
     inkscape:cy="242.38832"
     inkscape:document-units="px"
     inkscape:current-layer="layer1"
     inkscape:window-width="1487"
     inkscape:window-height="1021"
     inkscape:window-x="0"
     inkscape:window-y="28"
     showgrid="false"
     inkscape:window-maximized="0"
     fit-margin-top="0"
     fit-margin-left="0"
     fit-margin-right="0"
     fit-margin-bottom="0" />
  <metadata
     id="metadata7">
    <rdf:RDF>
      <cc:Work
         rdf:about="">
        <dc:format>image/svg+xml</dc:format>
        <dc:type
           rdf:resource="http://purl.org/dc/dcmitype/StillImage" />
        <dc:title></dc:title>
        <dc:creator>
          <cc:Agent>
            <dc:title />
          </cc:Agent>
        </dc:creator>
        <dc:subject>
          <rdf:Bag />
        </dc:subject>
        <cc:license
           rdf:resource="http://creativecommons.org/licenses/publicdomain/" />
        <dc:description />
        <dc:contributor>
          <cc:Agent>
            <dc:title />
          </cc:Agent>
        </dc:contributor>
      </cc:Work>
      <cc:License
         rdf:about="http://creativecommons.org/licenses/publicdomain/">
        <cc:permits
           rdf:resource="http://creativecommons.org/ns#Reproduction" />
        <cc:permits
           rdf:resource="http://creativecommons.org/ns#Distribution" />
        <cc:permits
           rdf:resource="http://creativecommons.org/ns#DerivativeWorks" />
      </cc:License>
    </rdf:RDF>
  </metadata>
  <g
     inkscape:label="Layer 1"
     inkscape:groupmode="layer"
     id="layer1"
     transform="translate(-374.21785,422.78273)">
    <g
       id="g6215"
       transform="matrix(1.2266312,0,0,-1.2266312,257.73926,584.58397)">
      <path
         id="path6217"
         d="m 104,532 c 3.333,5.33301 7.833,9.16699 13.5,11.5 5.667,2.33301 11.5,3.5 17.5,3.5 h 200 c -2.66699,21.333 -5.5,39.667 -8.5,55 -3,15.333 -5.83301,28.667 -8.5,40 -3.33301,16 -2,31.167 4,45.5 6,14.333 13.667,27.167 23,38.5 9.333,11.333 18.833,20.833 28.5,28.5 9.66699,7.67798 16.5,12.845 20.5,15.5 9.33401,6.69 20.667,8.35699 34,5 11.335,-4 19.668,-12 25,-24 l 91,-204 h 92 c 11.333,0 20.833,-3.83301 28.5,-11.5 7.667,-7.66699 11.5,-17.167 11.5,-28.5 V 103 C 676,91.6667 672.16699,82.1667 664.5,74.5 656.83301,66.8333 647.333,63 636,63 H 266 c -4.66699,0 -12.333,1.3333 -23,4 -10.667,2.6667 -21.833,7.3333 -33.5,14 -11.667,6.6667 -23,15.6667 -34,27 -11,11.333 -18.833,26 -23.5,44 L 96,499 c -2,13.333 0.666702,24.333 8,33 z m 650,23 h 117 c 8,0 14.833,-2.66699 20.5,-8 5.667,-5.33301 8.5,-12 8.5,-20 V 81 C 900,73.6667 897.16699,67.1667 891.5,61.5 885.83301,55.8333 879,53 871,53 H 754 c -8,0 -14.833,2.8333 -20.5,8.5 -5.66699,5.6667 -8.5,12.1667 -8.5,19.5 v 446 c 0,8 2.83301,14.667 8.5,20 5.66699,5.333 12.5,8 20.5,8 z"
         inkscape:connector-curvature="0"
         style="fill:currentColor" />
    </g>
  </g>
</svg>
