<?xml version="1.0" encoding="UTF-8" standalone="no"?>
<!-- Created with Inkscape (http://www.inkscape.org/) -->

<svg
   xmlns:dc="http://purl.org/dc/elements/1.1/"
   xmlns:cc="http://creativecommons.org/ns#"
   xmlns:rdf="http://www.w3.org/1999/02/22-rdf-syntax-ns#"
   xmlns:svg="http://www.w3.org/2000/svg"
   xmlns="http://www.w3.org/2000/svg"
   xmlns:sodipodi="http://sodipodi.sourceforge.net/DTD/sodipodi-0.dtd"
   xmlns:inkscape="http://www.inkscape.org/namespaces/inkscape"
   width="512"
   height="512"
   id="svg2"
   sodipodi:version="0.32"
   inkscape:version="0.48.3.1 r9886"
   sodipodi:docname="thumbs-up.svg"
   version="1.0"
   inkscape:output_extension="org.inkscape.output.svg.inkscape">
  <defs
     id="defs4" />
  <sodipodi:namedview
     id="base"
     pagecolor="#ffffff"
     bordercolor="#666666"
     borderopacity="1.0"
     inkscape:pageopacity="0.0"
     inkscape:pageshadow="2"
     inkscape:zoom="0.45254834"
     inkscape:cx="427.51802"
     inkscape:cy="341.34816"
     inkscape:document-units="px"
     inkscape:current-layer="layer1"
     inkscape:window-width="1487"
     inkscape:window-height="1021"
     inkscape:window-x="0"
     inkscape:window-y="28"
     showgrid="false"
     inkscape:window-maximized="0"
     fit-margin-top="0"
     fit-margin-left="0"
     fit-margin-right="0"
     fit-margin-bottom="0" />
  <metadata
     id="metadata7">
    <rdf:RDF>
      <cc:Work
         rdf:about="">
        <dc:format>image/svg+xml</dc:format>
        <dc:type
           rdf:resource="http://purl.org/dc/dcmitype/StillImage" />
        <dc:title />
        <dc:creator>
          <cc:Agent>
            <dc:title />
          </cc:Agent>
        </dc:creator>
        <dc:subject>
          <rdf:Bag />
        </dc:subject>
        <cc:license
           rdf:resource="http://creativecommons.org/licenses/publicdomain/" />
        <dc:description />
        <dc:contributor>
          <cc:Agent>
            <dc:title />
          </cc:Agent>
        </dc:contributor>
      </cc:Work>
      <cc:License
         rdf:about="http://creativecommons.org/licenses/publicdomain/">
        <cc:permits
           rdf:resource="http://creativecommons.org/ns#Reproduction" />
        <cc:permits
           rdf:resource="http://creativecommons.org/ns#Distribution" />
        <cc:permits
           rdf:resource="http://creativecommons.org/ns#DerivativeWorks" />
      </cc:License>
    </rdf:RDF>
  </metadata>
  <g
     inkscape:label="Layer 1"
     inkscape:groupmode="layer"
     id="layer1"
     transform="translate(-374.21785,-62.236374)">
    <path
       sodipodi:nodetypes="cccccccccccccccccccccccc"
       style="fill:currentColor"
       inkscape:connector-curvature="0"
       d="m 399.15627,233.90568 127.33637,0 c -6.13851,-41.61523 -21.55197,-79.65934 6.36682,-113.96605 13.11771,-14.74759 32.65953,-36.016907 52.84459,-31.197412 7.21679,2.546725 12.52226,7.64018 15.91704,15.280362 l 57.93805,129.8831 58.57473,0 c 15.39598,1.09324 25.28625,11.5328 25.4673,25.46727 l 0,257.21946 c -1.09317,15.39599 -11.53291,25.28626 -25.4673,25.46727 l -235.57228,0 C 469.69928,541.07843 457.00952,536.49529 446.58907,530.59941 428.18064,519.43707 415.10893,504.54152 409.97986,485.395 L 374.32569,264.46641 c -1.19781,-17.48966 7.615,-30.4328 24.83058,-30.56073 z m 394.10606,-5.09346 74.49175,0 c 10.7983,0.7515 18.32902,7.91954 18.46377,17.82709 l 0,283.9601 c -0.88965,10.52033 -9.01111,17.69859 -18.46377,17.82709 l -74.49175,0 c -10.34605,-0.74968 -18.32171,-8.23502 -18.46377,-17.82709 l 0,-283.9601 c 0.82186,-10.94267 8.66205,-17.70167 18.46377,-17.82709 z"
       id="path6217" />
  </g>
</svg>
