<?xml version="1.0" encoding="UTF-8" standalone="no"?>
<!-- Created with Inkscape (http://www.inkscape.org/) -->

<svg
   xmlns:dc="http://purl.org/dc/elements/1.1/"
   xmlns:cc="http://creativecommons.org/ns#"
   xmlns:rdf="http://www.w3.org/1999/02/22-rdf-syntax-ns#"
   xmlns:svg="http://www.w3.org/2000/svg"
   xmlns="http://www.w3.org/2000/svg"
   xmlns:sodipodi="http://sodipodi.sourceforge.net/DTD/sodipodi-0.dtd"
   xmlns:inkscape="http://www.inkscape.org/namespaces/inkscape"
   width="987.97894"
   height="997.0191"
   id="svg2"
   sodipodi:version="0.32"
   inkscape:version="0.48.3.1 r9886"
   sodipodi:docname="chat.svg"
   version="1.0"
   inkscape:output_extension="org.inkscape.output.svg.inkscape">
  <defs
     id="defs4" />
  <sodipodi:namedview
     id="base"
     pagecolor="#ffffff"
     bordercolor="#666666"
     borderopacity="1.0"
     inkscape:pageopacity="0.0"
     inkscape:pageshadow="2"
     inkscape:zoom="0.45254834"
     inkscape:cx="299.61567"
     inkscape:cy="242.38832"
     inkscape:document-units="px"
     inkscape:current-layer="layer1"
     inkscape:window-width="1487"
     inkscape:window-height="1021"
     inkscape:window-x="0"
     inkscape:window-y="28"
     showgrid="false"
     inkscape:window-maximized="0"
     fit-margin-top="0"
     fit-margin-left="0"
     fit-margin-right="0"
     fit-margin-bottom="0" />
  <metadata
     id="metadata7">
    <rdf:RDF>
      <cc:Work
         rdf:about="">
        <dc:format>image/svg+xml</dc:format>
        <dc:type
           rdf:resource="http://purl.org/dc/dcmitype/StillImage" />
        <dc:title></dc:title>
        <dc:creator>
          <cc:Agent>
            <dc:title />
          </cc:Agent>
        </dc:creator>
        <dc:subject>
          <rdf:Bag />
        </dc:subject>
        <cc:license
           rdf:resource="http://creativecommons.org/licenses/publicdomain/" />
        <dc:description />
        <dc:contributor>
          <cc:Agent>
            <dc:title />
          </cc:Agent>
        </dc:contributor>
      </cc:Work>
      <cc:License
         rdf:about="http://creativecommons.org/licenses/publicdomain/">
        <cc:permits
           rdf:resource="http://creativecommons.org/ns#Reproduction" />
        <cc:permits
           rdf:resource="http://creativecommons.org/ns#Distribution" />
        <cc:permits
           rdf:resource="http://creativecommons.org/ns#DerivativeWorks" />
      </cc:License>
    </rdf:RDF>
  </metadata>
  <g
     inkscape:label="Layer 1"
     inkscape:groupmode="layer"
     id="layer1"
     transform="translate(-374.21785,422.78273)">
    <g
       id="g7160"
       transform="matrix(1.0822368,0,0,-1.0822368,327.08892,400.39786)">
      <path
         id="path7162"
         d="m 877,170 c 8.66699,-4.66701 15.5,-11.333 20.5,-20 5,-8.667 7.5,-18.667 7.5,-30 v -222 c 0,-15.333 -4.33301,-28.167 -13,-38.5 -8.66699,-10.333 -19.667,-15.5 -33,-15.5 H 141 c -13.333,0 -24.333,5.16701 -33,15.5 -8.6667,10.333 -13,23.167 -13,38.5 v 222 c 0,11.333 2.5,21.5 7.5,30.5 5,9 12.167,15.5 21.5,19.5 l 281,131 c -34,20 -61.167,48.833 -81.5,86.5 -20.333,37.667 -30.5,80.167 -30.5,127.5 0,33.333 5.33301,64.667 16,94 10.66699,29.333 25.333,54.833 44,76.5 18.667,21.669 40.667,38.836 66,51.5 25.333,12.667 52.333,19 81,19 28.667,0 55.667,-6.33301 81,-19 25.333,-12.66699 47.333,-29.833 66,-51.5 18.669,-21.667 33.336,-47.167 44,-76.5 10.667,-29.334 16,-60.668 16,-94 0,-46 -10,-87.833 -30,-125.5 C 657,351.833 630.667,322.666 598,302 L 877,170 v 0 z"
         inkscape:connector-curvature="0"
         style="fill:currentColor" />
    </g>
  </g>
</svg>
