<?xml version="1.0" encoding="UTF-8" standalone="no"?>
<!-- Created with Inkscape (http://www.inkscape.org/) -->

<svg
   xmlns:dc="http://purl.org/dc/elements/1.1/"
   xmlns:cc="http://creativecommons.org/ns#"
   xmlns:rdf="http://www.w3.org/1999/02/22-rdf-syntax-ns#"
   xmlns:svg="http://www.w3.org/2000/svg"
   xmlns="http://www.w3.org/2000/svg"
   xmlns:sodipodi="http://sodipodi.sourceforge.net/DTD/sodipodi-0.dtd"
   xmlns:inkscape="http://www.inkscape.org/namespaces/inkscape"
   width="512"
   height="512"
   id="svg2"
   sodipodi:version="0.32"
   inkscape:version="0.48.3.1 r9886"
   sodipodi:docname="trash-alt.svg"
   version="1.0"
   inkscape:output_extension="org.inkscape.output.svg.inkscape">
  <defs
     id="defs4" />
  <sodipodi:namedview
     id="base"
     pagecolor="#ffffff"
     bordercolor="#666666"
     borderopacity="1.0"
     inkscape:pageopacity="0.0"
     inkscape:pageshadow="2"
     inkscape:zoom="1.28"
     inkscape:cx="465.45334"
     inkscape:cy="326.92663"
     inkscape:document-units="px"
     inkscape:current-layer="layer1"
     inkscape:window-width="1487"
     inkscape:window-height="1021"
     inkscape:window-x="0"
     inkscape:window-y="28"
     showgrid="false"
     inkscape:window-maximized="0"
     fit-margin-top="0"
     fit-margin-left="0"
     fit-margin-right="0"
     fit-margin-bottom="0" />
  <metadata
     id="metadata7">
    <rdf:RDF>
      <cc:Work
         rdf:about="">
        <dc:format>image/svg+xml</dc:format>
        <dc:type
           rdf:resource="http://purl.org/dc/dcmitype/StillImage" />
        <dc:title />
        <dc:creator>
          <cc:Agent>
            <dc:title />
          </cc:Agent>
        </dc:creator>
        <dc:subject>
          <rdf:Bag />
        </dc:subject>
        <cc:license
           rdf:resource="http://creativecommons.org/licenses/publicdomain/" />
        <dc:description />
        <dc:contributor>
          <cc:Agent>
            <dc:title />
          </cc:Agent>
        </dc:contributor>
      </cc:Work>
      <cc:License
         rdf:about="http://creativecommons.org/licenses/publicdomain/">
        <cc:permits
           rdf:resource="http://creativecommons.org/ns#Reproduction" />
        <cc:permits
           rdf:resource="http://creativecommons.org/ns#Distribution" />
        <cc:permits
           rdf:resource="http://creativecommons.org/ns#DerivativeWorks" />
      </cc:License>
    </rdf:RDF>
  </metadata>
  <g
     inkscape:label="Layer 1"
     inkscape:groupmode="layer"
     id="layer1"
     transform="translate(-374.21785,-62.236374)">
    <path
       style="fill:#000000;fill-opacity:1;stroke:none"
       d="M 256 0 C 114.6151 0 0 114.61511 0 256 C 0 397.38489 114.6151 512 256 512 C 397.3849 512 512 397.38489 512 256 C 512 114.61511 397.3849 0 256 0 z M 227.40625 102.09375 L 284.59375 102.09375 C 289.97014 102.43403 293.84155 106.95823 293.90625 111.71875 L 293.90625 124 L 373.34375 124 C 378.87408 124.26981 382.93298 128.72695 383 133.65625 L 383 161.59375 C 382.73015 167.12408 378.27306 171.15175 373.34375 171.21875 L 138.625 171.21875 C 133.09466 170.94893 129.067 166.52305 129 161.59375 L 129 133.65625 C 129.26981 128.12592 133.6957 124.06699 138.625 124 L 218.09375 124 L 218.09375 111.71875 C 218.37282 106.42398 222.54893 102.16568 227.40625 102.09375 z M 151.59375 188.84375 L 360.40625 188.84375 C 365.93658 189.11357 369.96423 193.53945 370.03125 198.46875 L 370.03125 400.28125 C 369.7614 405.81158 365.33556 409.87051 360.40625 409.9375 L 151.59375 409.9375 C 146.06342 409.66769 142.03575 405.21055 141.96875 400.28125 L 141.96875 198.46875 C 142.23856 192.93841 146.66445 188.91075 151.59375 188.84375 z "
       transform="translate(374.21785,62.236374)"
       id="path2987" />
  </g>
</svg>
