<?xml version="1.0" encoding="UTF-8" standalone="no"?>
<!-- Created with Inkscape (http://www.inkscape.org/) -->

<svg
   xmlns:dc="http://purl.org/dc/elements/1.1/"
   xmlns:cc="http://creativecommons.org/ns#"
   xmlns:rdf="http://www.w3.org/1999/02/22-rdf-syntax-ns#"
   xmlns:svg="http://www.w3.org/2000/svg"
   xmlns="http://www.w3.org/2000/svg"
   xmlns:sodipodi="http://sodipodi.sourceforge.net/DTD/sodipodi-0.dtd"
   xmlns:inkscape="http://www.inkscape.org/namespaces/inkscape"
   width="987.97894"
   height="997.0191"
   id="svg2"
   sodipodi:version="0.32"
   inkscape:version="0.48.3.1 r9886"
   sodipodi:docname="arrow-down-alt.svg"
   version="1.0"
   inkscape:output_extension="org.inkscape.output.svg.inkscape">
  <defs
     id="defs4" />
  <sodipodi:namedview
     id="base"
     pagecolor="#ffffff"
     bordercolor="#666666"
     borderopacity="1.0"
     inkscape:pageopacity="0.0"
     inkscape:pageshadow="2"
     inkscape:zoom="0.45254834"
     inkscape:cx="273.09917"
     inkscape:cy="352.87375"
     inkscape:document-units="px"
     inkscape:current-layer="layer1"
     inkscape:window-width="1487"
     inkscape:window-height="1021"
     inkscape:window-x="0"
     inkscape:window-y="28"
     showgrid="false"
     inkscape:window-maximized="0"
     fit-margin-top="0"
     fit-margin-left="0"
     fit-margin-right="0"
     fit-margin-bottom="0" />
  <metadata
     id="metadata7">
    <rdf:RDF>
      <cc:Work
         rdf:about="">
        <dc:format>image/svg+xml</dc:format>
        <dc:type
           rdf:resource="http://purl.org/dc/dcmitype/StillImage" />
        <dc:title></dc:title>
        <dc:creator>
          <cc:Agent>
            <dc:title />
          </cc:Agent>
        </dc:creator>
        <dc:subject>
          <rdf:Bag />
        </dc:subject>
        <cc:license
           rdf:resource="http://creativecommons.org/licenses/publicdomain/" />
        <dc:description />
        <dc:contributor>
          <cc:Agent>
            <dc:title />
          </cc:Agent>
        </dc:contributor>
      </cc:Work>
      <cc:License
         rdf:about="http://creativecommons.org/licenses/publicdomain/">
        <cc:permits
           rdf:resource="http://creativecommons.org/ns#Reproduction" />
        <cc:permits
           rdf:resource="http://creativecommons.org/ns#Distribution" />
        <cc:permits
           rdf:resource="http://creativecommons.org/ns#DerivativeWorks" />
      </cc:License>
    </rdf:RDF>
  </metadata>
  <g
     inkscape:label="Layer 1"
     inkscape:groupmode="layer"
     id="layer1"
     transform="translate(-374.21785,422.78273)">
    <g
       id="g4640"
       transform="matrix(1.0658747,0,0,-1.0658747,335.26997,395.48923)">
      <path
         id="path4642"
         d="m 853,697 c 8,0 14.833,-2.83301 20.5,-8.5 5.667,-5.66699 8.5,-12.5 8.5,-20.5 v -84 c 0,-8 -2.83301,-14.833 -8.5,-20.5 C 867.83301,557.833 861,555 853,555 H 147 c -8,0 -14.833,2.83301 -20.5,8.5 -5.667,5.66699 -8.5,12.5 -8.5,20.5 v 84 c 0,8 2.833,14.833 8.5,20.5 5.66701,5.66699 12.5,8.5 20.5,8.5 h 239 v 37 c 0,8 2.83301,14.833 8.5,20.5 5.66699,5.667 12.167,8.5 19.5,8.5 h 172 c 7.33301,0 13.833,-2.83301 19.5,-8.5 5.667,-5.66699 8.5,-12.5 8.5,-20.5 v -37 h 239 v 0 z M 814,502 c 8,0 14.833,-2.83301 20.5,-8.5 5.667,-5.66699 8.5,-12.5 8.5,-20.5 v -607 c 0,-8 -2.83301,-14.833 -8.5,-20.5 -5.66699,-5.667 -12.5,-8.5 -20.5,-8.5 H 186 c -8,0 -14.833,2.83299 -20.5,8.5 -5.667,5.66701 -8.5,12.5 -8.5,20.5 v 607 c 0,8 2.83299,14.833 8.5,20.5 5.66701,5.667 12.5,8.5 20.5,8.5 h 628 v 0 z"
         inkscape:connector-curvature="0"
         style="fill:currentColor" />
    </g>
  </g>
</svg>
