<?xml version="1.0" encoding="UTF-8" standalone="no"?>
<!-- Created with Inkscape (http://www.inkscape.org/) -->

<svg
   xmlns:dc="http://purl.org/dc/elements/1.1/"
   xmlns:cc="http://creativecommons.org/ns#"
   xmlns:rdf="http://www.w3.org/1999/02/22-rdf-syntax-ns#"
   xmlns:svg="http://www.w3.org/2000/svg"
   xmlns="http://www.w3.org/2000/svg"
   xmlns:sodipodi="http://sodipodi.sourceforge.net/DTD/sodipodi-0.dtd"
   xmlns:inkscape="http://www.inkscape.org/namespaces/inkscape"
   width="987.97894"
   height="997.0191"
   id="svg2"
   sodipodi:version="0.32"
   inkscape:version="0.48.3.1 r9886"
   sodipodi:docname="torso.svg"
   version="1.0"
   inkscape:output_extension="org.inkscape.output.svg.inkscape">
  <defs
     id="defs4" />
  <sodipodi:namedview
     id="base"
     pagecolor="#ffffff"
     bordercolor="#666666"
     borderopacity="1.0"
     inkscape:pageopacity="0.0"
     inkscape:pageshadow="2"
     inkscape:zoom="0.45254834"
     inkscape:cx="299.61567"
     inkscape:cy="242.38832"
     inkscape:document-units="px"
     inkscape:current-layer="layer1"
     inkscape:window-width="1487"
     inkscape:window-height="1021"
     inkscape:window-x="0"
     inkscape:window-y="28"
     showgrid="false"
     inkscape:window-maximized="0"
     fit-margin-top="0"
     fit-margin-left="0"
     fit-margin-right="0"
     fit-margin-bottom="0" />
  <metadata
     id="metadata7">
    <rdf:RDF>
      <cc:Work
         rdf:about="">
        <dc:format>image/svg+xml</dc:format>
        <dc:type
           rdf:resource="http://purl.org/dc/dcmitype/StillImage" />
        <dc:title></dc:title>
        <dc:creator>
          <cc:Agent>
            <dc:title />
          </cc:Agent>
        </dc:creator>
        <dc:subject>
          <rdf:Bag />
        </dc:subject>
        <cc:license
           rdf:resource="http://creativecommons.org/licenses/publicdomain/" />
        <dc:description />
        <dc:contributor>
          <cc:Agent>
            <dc:title />
          </cc:Agent>
        </dc:contributor>
      </cc:Work>
      <cc:License
         rdf:about="http://creativecommons.org/licenses/publicdomain/">
        <cc:permits
           rdf:resource="http://creativecommons.org/ns#Reproduction" />
        <cc:permits
           rdf:resource="http://creativecommons.org/ns#Distribution" />
        <cc:permits
           rdf:resource="http://creativecommons.org/ns#DerivativeWorks" />
      </cc:License>
    </rdf:RDF>
  </metadata>
  <g
     inkscape:label="Layer 1"
     inkscape:groupmode="layer"
     id="layer1"
     transform="translate(-374.21785,422.78273)">
    <g
       id="g7193"
       transform="matrix(1.0433404,0,0,-1.0433404,346.53712,388.72894)">
      <path
         id="path7195"
         d="m 969,750 v -900 c 0,-6.66701 -2.33301,-12.167 -7,-16.5 -4.66699,-4.333 -10.333,-6.5 -17,-6.5 H 55 c -6.6667,0 -12.3333,2.16701 -17,6.5 -4.6667,4.33299 -7,9.83299 -7,16.5 v 900 c 0,6.66699 2.3333,12.167 7,16.5 4.6667,4.333 10.3334,6.5 17,6.5 h 890 c 6.68103,0 12.348,-2.16699 17,-6.5 4.66699,-4.33301 7,-9.83301 7,-16.5 z M 605,80 c -8.66699,0 -17.667,1.1667 -27,3.5 -9.33301,2.3337 -17.833,5.167 -25.5,8.5 -7.66699,3.3333 -14,7 -19,11 -5,4 -7.5,7.667 -7.5,11 v 136 106 h 153 v 28 78 H 526 v 160 h -88 c -2,-40.667 -13,-75.667 -33,-105 -9.33301,-13.333 -19.333,-24.333 -30,-33 -18,-14.667 -38,-22 -60,-22 H 302 V 356 h 73 V 328 94 c 0,-24.6667 5,-44.6667 15,-60 10,-15.3333 22.5,-27.1667 37.5,-35.5 15,-8.3333 31.167,-13.8333 48.5,-16.5 17.334,-2.6667 33.668,-4 49,-4 h 40 c 23.333,0 42.5,0.5 57.5,1.5 15,1 27.167,2.5 36.5,4.5 9.333,2 16.833,4.1667 22.5,6.5 5.66699,2.33333 11.167,4.83333 16.5,7.5 v 113 1 -1 C 684.667,102.333 670,95 654,89 638,83 621.667,80 605,80 z"
         inkscape:connector-curvature="0"
         style="fill:currentColor" />
    </g>
  </g>
</svg>
