<?xml version="1.0" encoding="UTF-8" standalone="no"?>
<!-- Created with Inkscape (http://www.inkscape.org/) -->

<svg
   xmlns:dc="http://purl.org/dc/elements/1.1/"
   xmlns:cc="http://creativecommons.org/ns#"
   xmlns:rdf="http://www.w3.org/1999/02/22-rdf-syntax-ns#"
   xmlns:svg="http://www.w3.org/2000/svg"
   xmlns="http://www.w3.org/2000/svg"
   xmlns:sodipodi="http://sodipodi.sourceforge.net/DTD/sodipodi-0.dtd"
   xmlns:inkscape="http://www.inkscape.org/namespaces/inkscape"
   width="987.97894"
   height="997.0191"
   id="svg2"
   sodipodi:version="0.32"
   inkscape:version="0.48.3.1 r9886"
   sodipodi:docname="facebook-rect.svg"
   version="1.0"
   inkscape:output_extension="org.inkscape.output.svg.inkscape">
  <defs
     id="defs4" />
  <sodipodi:namedview
     id="base"
     pagecolor="#ffffff"
     bordercolor="#666666"
     borderopacity="1.0"
     inkscape:pageopacity="0.0"
     inkscape:pageshadow="2"
     inkscape:zoom="0.45254834"
     inkscape:cx="211.22733"
     inkscape:cy="242.38832"
     inkscape:document-units="px"
     inkscape:current-layer="layer1"
     inkscape:window-width="1487"
     inkscape:window-height="1021"
     inkscape:window-x="0"
     inkscape:window-y="28"
     showgrid="false"
     inkscape:window-maximized="0"
     fit-margin-top="0"
     fit-margin-left="0"
     fit-margin-right="0"
     fit-margin-bottom="0" />
  <metadata
     id="metadata7">
    <rdf:RDF>
      <cc:Work
         rdf:about="">
        <dc:format>image/svg+xml</dc:format>
        <dc:type
           rdf:resource="http://purl.org/dc/dcmitype/StillImage" />
        <dc:title></dc:title>
        <dc:creator>
          <cc:Agent>
            <dc:title />
          </cc:Agent>
        </dc:creator>
        <dc:subject>
          <rdf:Bag />
        </dc:subject>
        <cc:license
           rdf:resource="http://creativecommons.org/licenses/publicdomain/" />
        <dc:description />
        <dc:contributor>
          <cc:Agent>
            <dc:title />
          </cc:Agent>
        </dc:contributor>
      </cc:Work>
      <cc:License
         rdf:about="http://creativecommons.org/licenses/publicdomain/">
        <cc:permits
           rdf:resource="http://creativecommons.org/ns#Reproduction" />
        <cc:permits
           rdf:resource="http://creativecommons.org/ns#Distribution" />
        <cc:permits
           rdf:resource="http://creativecommons.org/ns#DerivativeWorks" />
      </cc:License>
    </rdf:RDF>
  </metadata>
  <g
     inkscape:label="Layer 1"
     inkscape:groupmode="layer"
     id="layer1"
     transform="translate(-374.21785,422.78273)">
    <g
       id="g6380"
       transform="matrix(1.1003344,0,0,-1.1003344,292.18226,416.14745)">
      <path
         id="path6382"
         d="M 972,595 C 966,582.333 954.833,566.333 938.5,547 922.167,527.667 902,510.667 878,496 c 0.66699,-5.33301 1.16699,-10.333 1.5,-15 0.33301,-4.667 0.5,-9.66699 0.5,-15 0,-28 -3.16699,-58.667 -9.5,-92 C 864.15997,340.667 854.327,306.833 841,272.5 827.664,238.167 810.83,204.167 790.5,170.5 770.167,136.833 746,105.667 718,77 690,48.3333 658.167,23 622.5,1 586.833,-21 547,-37.3333 503,-48 451.667,-59.3333 400.333,-65 349,-65 c -22,0 -44.833,1.1667 -68.5,3.5 -23.667,2.3333 -47.333,6.6667 -71,13 -23.667,6.3333 -47,14.8333 -70,25.5 C 116.5,-12.3333 95,1.3333 75,18 127,10.6667 176.167,14.8333 222.5,30.5 268.833,46.1667 311,68.3333 349,97 c -8.66699,0 -20.167,0.833298 -34.5,2.5 -14.333,1.667 -29.667,6.667 -46,15 -16.333,8.333 -32.833,21.167 -49.5,38.5 -16.667,17.333 -31.333,41.667 -44,73 4,-1.34 9.5,-2.174 16.5,-2.5 7,-0.327 14.5,-0.16 22.5,0.5 8,0.66701 15.833,1.5 23.5,2.5 7.667,1 14.5,2.16701 20.5,3.5 -34.667,10.667 -61.833,24.834 -81.5,42.5 -19.667,17.667 -34.167,35.833 -43.5,54.5 -9.333,18.667 -15.167,36.333 -17.5,53 -2.333,16.667 -3.5,29.667 -3.5,39 8.667,-5.33301 21.333,-11 38,-17 16.667,-6 31.667,-8.66699 45,-8 -27.333,22.667 -47.167,45.167 -59.5,67.5 -12.333,22.333 -19.667,44 -22,65 -2.333,21 -1.167,41.5 3.5,61.5 4.667,20 11,39.333 19,58 36.667,-41.333 73.167,-74.833 109.5,-100.5 36.333,-25.667 71,-45.5 104,-59.5 33,-14 63.833,-23.333 92.5,-28 28.667,-4.667 53.667,-7 75,-7 -4,26.667 -4.16699,52 -0.5,76 3.67102,24 11.337,46 23,66 11.667,20 27.167,37.167 46.5,51.5 19.333,14.333 42.333,25.167 69,32.5 32.667,9.33301 64,9 94,-1 30,-10 55.667,-27.333 77,-52 9.33301,0.66699 24,3.66699 44,9 20,5.33301 45,17 75,35 -2,-6.66699 -5.16699,-14.833 -9.5,-24.5 -4.33301,-9.667 -9.83301,-19.5 -16.5,-29.5 -6.66699,-10 -14.667,-19.667 -24,-29 -9.333,-9.333 -20,-17 -32,-23 10,2 21,4.33301 33,7 10,2.66699 21.667,6.16699 35,10.5 13.333,4.33301 27,9.5 41,15.5 z"
         inkscape:connector-curvature="0"
         style="fill:currentColor" />
    </g>
  </g>
</svg>
