<?xml version="1.0" encoding="UTF-8" standalone="no"?>
<!-- Created with Inkscape (http://www.inkscape.org/) -->

<svg
   xmlns:dc="http://purl.org/dc/elements/1.1/"
   xmlns:cc="http://creativecommons.org/ns#"
   xmlns:rdf="http://www.w3.org/1999/02/22-rdf-syntax-ns#"
   xmlns:svg="http://www.w3.org/2000/svg"
   xmlns="http://www.w3.org/2000/svg"
   xmlns:sodipodi="http://sodipodi.sourceforge.net/DTD/sodipodi-0.dtd"
   xmlns:inkscape="http://www.inkscape.org/namespaces/inkscape"
   width="987.97894"
   height="997.0191"
   id="svg2"
   sodipodi:version="0.32"
   inkscape:version="0.48.3.1 r9886"
   sodipodi:docname="guidedog.svg"
   version="1.0"
   inkscape:output_extension="org.inkscape.output.svg.inkscape">
  <defs
     id="defs4" />
  <sodipodi:namedview
     id="base"
     pagecolor="#ffffff"
     bordercolor="#666666"
     borderopacity="1.0"
     inkscape:pageopacity="0.0"
     inkscape:pageshadow="2"
     inkscape:zoom="0.45254834"
     inkscape:cx="564.78072"
     inkscape:cy="419.16502"
     inkscape:document-units="px"
     inkscape:current-layer="layer1"
     inkscape:window-width="1487"
     inkscape:window-height="1021"
     inkscape:window-x="0"
     inkscape:window-y="28"
     showgrid="false"
     inkscape:window-maximized="0"
     fit-margin-top="0"
     fit-margin-left="0"
     fit-margin-right="0"
     fit-margin-bottom="0" />
  <metadata
     id="metadata7">
    <rdf:RDF>
      <cc:Work
         rdf:about="">
        <dc:format>image/svg+xml</dc:format>
        <dc:type
           rdf:resource="http://purl.org/dc/dcmitype/StillImage" />
        <dc:title></dc:title>
        <dc:creator>
          <cc:Agent>
            <dc:title />
          </cc:Agent>
        </dc:creator>
        <dc:subject>
          <rdf:Bag />
        </dc:subject>
        <cc:license
           rdf:resource="http://creativecommons.org/licenses/publicdomain/" />
        <dc:description />
        <dc:contributor>
          <cc:Agent>
            <dc:title />
          </cc:Agent>
        </dc:contributor>
      </cc:Work>
      <cc:License
         rdf:about="http://creativecommons.org/licenses/publicdomain/">
        <cc:permits
           rdf:resource="http://creativecommons.org/ns#Reproduction" />
        <cc:permits
           rdf:resource="http://creativecommons.org/ns#Distribution" />
        <cc:permits
           rdf:resource="http://creativecommons.org/ns#DerivativeWorks" />
      </cc:License>
    </rdf:RDF>
  </metadata>
  <g
     inkscape:label="Layer 1"
     inkscape:groupmode="layer"
     id="layer1"
     transform="translate(-374.21785,422.78273)">
    <g
       id="g8163"
       transform="matrix(1.0522388,0,0,-1.0522388,342.08792,391.39846)">
      <path
         id="path8165"
         d="m 500,-169 c -64.667,0 -125.5,12.333 -182.5,37 -57,24.667 -106.667,58.1667 -149,100.5 -42.333,42.3333 -75.8334,92 -100.5,149 -24.6667,57 -37,117.833 -37,182.5 0,64.667 12.3333,125.333 37,182 24.6667,56.668 58.167,106.334 100.5,149 42.333,42.668 92,76.335 149,101 57,24.667 117.833,37 182.5,37 64.667,0 125.334,-12.333 182,-37 56.667,-24.667 106.333,-58.333 149,-101 42.668,-42.667 76.335,-92.333 101,-149 24.667,-56.667 37,-117.334 37,-182 0,-64.667 -12.333,-125.5 -37,-182.5 -24.667,-57 -58.333,-106.667 -101,-149 -42.667,-42.333 -92.333,-75.833 -149,-100.5 -56.667,-24.667 -117.333,-37 -182,-37 z m 0,875 C 444,706 391.333,695.333 342,674 292.667,652.667 249.667,623.667 213,587 176.333,550.333 147.333,507.333 126,458 104.667,408.667 94,356 94,300 c 0,-56 10.667,-108.667 32,-158 21.333,-49.3333 50.333,-92.3333 87,-129 36.667,-36.6667 79.667,-65.6667 129,-87 49.333,-21.3333 102,-32 158,-32 56,0 108.667,10.6667 158,32 49.333,21.3333 92.333,50.3333 129,87 36.667,36.6667 65.667,79.6667 87,129 21.333,49.333 32,102 32,158 0,56 -10.667,108.667 -32,158 -21.333,49.333 -50.333,92.333 -87,129 -36.667,36.667 -79.667,65.667 -129,87 -49.333,21.333 -102,32 -158,32 z m 69,-123 c 0,-19.335 -6.66699,-35.669 -20,-49 -13.335,-13.333 -29.669,-20 -49,-20 -19.333,0 -35.5,6.66699 -48.5,20 -13,13.33301 -19.5,29.667 -19.5,49 0,19.333 6.5,35.667 19.5,49 13,13.333 29.167,20 48.5,20 19.333,0 35.667,-6.66699 49,-20 13.333,-13.336 20,-29.669 20,-49 z M 752,346 c 6.66699,-5.33301 10.167,-12.333 10.5,-21 0.33301,-8.668 -2.16699,-16.335 -7.5,-23 -5.33301,-6.66699 -12.5,-10.167 -21.5,-10.5 -9,-0.333 -16.5,2.16699 -22.5,7.5 -2.66699,2 -8.66699,7.16699 -18,15.5 -9.33301,8.33401 -20,17.667 -32,28 -12,10.333 -24.333,20.833 -37,31.5 -12.667,10.667 -23.333,20 -32,28 v -1 c -6,5.33301 -11,8 -15,8 -4,0 -6,-4.66699 -6,-14 l 1,-59 c 0,-24.667 0.83301,-43.834 2.5,-57.5 C 576.16699,264.833 577,257 577,255 L 622,-1 c 2,-11.3333 0,-21 -6,-29 -5.33801,-8.6667 -13.671,-14 -25,-16 -1.35101,-0.666698 -3.685,-1 -7,-1 -9.33801,0 -17.671,3 -25,9 -7.34198,6 -11.675,13.6667 -13,23 l -2.5,14.5 -6,36.5 -8,47.5 -8.5,48.5 -7.5,40.5 -4.5,22.5 c -0.66699,2.668 -1,4.83501 -1,6.5 0,1.66701 -0.33301,3.5 -1,5.5 -1.33301,6.66701 -3.66699,10.167 -7,10.5 -3.33301,0.333 -5.66699,-3.16701 -7,-10.5 -0.66699,-2 -1,-3.83299 -1,-5.5 0,-1.66701 -0.33301,-3.83299 -1,-6.5 L 486.5,172.5 479,132 470.5,83.5 462.5,36 456.5,-0.5 454,-15 c -2,-10 -7.33301,-18.1667 -16,-24.5 -8.66699,-6.3333 -18.334,-8.5 -29,-6.5 -11.333,2 -19.667,7.3333 -25,16 -6,8 -8,17.6667 -6,29 l 45,257 c 0.66699,1.33301 1.66699,8.83301 3,22.5 1.33301,13.66699 2,32.833 2,57.5 v 58 c 0,9.336 -1.83301,14.17 -5.5,14.5 -3.66699,0.33301 -8.5,-2.16699 -14.5,-7.5 -8.668,-7.33301 -19.335,-16.333 -32,-27 -12.667,-10.667 -25,-21.167 -37,-31.5 -12,-10.333 -22.667,-19.667 -32,-28 -9.333,-8.333 -15.333,-13.5 -18,-15.5 -6,-5.33301 -13.5,-7.66699 -22.5,-7 -9,0.66699 -16.167,4 -21.5,10 -5.33299,6.66699 -8,14.333 -8,23 1.33299,8.66699 5,15.667 11,21 l 99,86 c 3.336,3.33301 7.16901,7 11.5,11 4.33301,4 8.83301,8 13.5,12 6.66699,6 12.833,11.667 18.5,17 5.667,5.333 10.167,9.33301 13.5,12 7.33499,4.66699 14.168,7.83301 20.5,9.5 6.33499,1.66699 14.168,2.5 23.5,2.5 h 104 c 9.33301,0 17.167,-0.83301 23.5,-2.5 6.333,-1.66699 13.167,-5.16699 20.5,-10.5 3.33301,-2 7.83301,-5.66699 13.5,-11 5.67603,-5.33301 11.843,-11 18.5,-17 4.66699,-4 9.16699,-8 13.5,-12 4.33301,-4 8.16699,-7.66699 11.5,-11 z"
         inkscape:connector-curvature="0"
         style="fill:currentColor" />
    </g>
  </g>
</svg>
