<?xml version="1.0" encoding="UTF-8" standalone="no"?>
<!-- Created with Inkscape (http://www.inkscape.org/) -->

<svg
   xmlns:dc="http://purl.org/dc/elements/1.1/"
   xmlns:cc="http://creativecommons.org/ns#"
   xmlns:rdf="http://www.w3.org/1999/02/22-rdf-syntax-ns#"
   xmlns:svg="http://www.w3.org/2000/svg"
   xmlns="http://www.w3.org/2000/svg"
   xmlns:sodipodi="http://sodipodi.sourceforge.net/DTD/sodipodi-0.dtd"
   xmlns:inkscape="http://www.inkscape.org/namespaces/inkscape"
   width="512"
   height="512"
   id="svg2"
   sodipodi:version="0.32"
   inkscape:version="0.48.3.1 r9886"
   sodipodi:docname="unlock.svg"
   version="1.0"
   inkscape:output_extension="org.inkscape.output.svg.inkscape">
  <defs
     id="defs4" />
  <sodipodi:namedview
     id="base"
     pagecolor="#ffffff"
     bordercolor="#666666"
     borderopacity="1.0"
     inkscape:pageopacity="0.0"
     inkscape:pageshadow="2"
     inkscape:zoom="0.45254834"
     inkscape:cx="-23.788774"
     inkscape:cy="453.31941"
     inkscape:document-units="px"
     inkscape:current-layer="layer1"
     inkscape:window-width="1487"
     inkscape:window-height="1021"
     inkscape:window-x="0"
     inkscape:window-y="28"
     showgrid="false"
     inkscape:window-maximized="0"
     fit-margin-top="0"
     fit-margin-left="0"
     fit-margin-right="0"
     fit-margin-bottom="0" />
  <metadata
     id="metadata7">
    <rdf:RDF>
      <cc:Work
         rdf:about="">
        <dc:format>image/svg+xml</dc:format>
        <dc:type
           rdf:resource="http://purl.org/dc/dcmitype/StillImage" />
        <dc:title />
        <dc:creator>
          <cc:Agent>
            <dc:title />
          </cc:Agent>
        </dc:creator>
        <dc:subject>
          <rdf:Bag />
        </dc:subject>
        <cc:license
           rdf:resource="http://creativecommons.org/licenses/publicdomain/" />
        <dc:description />
        <dc:contributor>
          <cc:Agent>
            <dc:title />
          </cc:Agent>
        </dc:contributor>
      </cc:Work>
      <cc:License
         rdf:about="http://creativecommons.org/licenses/publicdomain/">
        <cc:permits
           rdf:resource="http://creativecommons.org/ns#Reproduction" />
        <cc:permits
           rdf:resource="http://creativecommons.org/ns#Distribution" />
        <cc:permits
           rdf:resource="http://creativecommons.org/ns#DerivativeWorks" />
      </cc:License>
    </rdf:RDF>
  </metadata>
  <g
     inkscape:label="Layer 1"
     inkscape:groupmode="layer"
     id="layer1"
     transform="translate(-374.21785,-62.236374)">
    <path
       sodipodi:nodetypes="cccccccccccscccccsscccccccc"
       style="fill:currentColor"
       inkscape:connector-curvature="0"
       d="m 839.72212,288.69791 c 10.12167,0.73754 16.83525,7.77648 16.95727,16.95726 l 0,251.62393 c -0.69268,10.48261 -7.4624,16.83811 -16.95727,16.95727 l -419.00854,0 C 410.2033,573.50716 403.87289,566.709 403.75632,557.2791 l 0,-251.62393 c 0.73754,-10.12165 7.77649,-16.83525 16.95726,-16.95726 20.42165,0 40.84331,0 61.26496,0 l 0,-71.65813 c 1.08918,-42.25527 17.90394,-81.49336 45.40171,-109.4017 13.85736,-13.857366 30.17682,-24.888886 48.95727,-33.094015 18.78099,-8.205129 38.92895,-12.307691 60.44444,-12.307691 41.8573,0.852285 80.23181,17.871798 108.03418,44.581186 29.35021,29.82103 45.28933,69.22925 46.22224,107.48719 0.28287,8.8744 -4.99285,15.76856 -12.03423,15.86324 l -0.54696,0 -65.64104,0 c -3.64693,0 -6.65549,-1.27617 -9.02567,-3.82906 -2.37014,-2.55288 -3.55552,-5.65224 -3.55552,-9.29915 -0.55543,-17.82059 -7.00415,-33.09319 -18.5983,-44.8547 -12.98903,-12.20227 -28.43948,-18.48053 -44.8547,-18.59828 -17.8206,0.55542 -33.0932,7.00413 -44.8547,18.59828 -12.20228,12.98904 -18.48054,28.43948 -18.59829,44.8547 l 0,71.65813 c 88.79772,0 177.59544,0 266.39315,0 z"
       id="path4925" />
  </g>
</svg>
