<?xml version="1.0" encoding="UTF-8" standalone="no"?>
<!-- Created with Inkscape (http://www.inkscape.org/) -->

<svg
   xmlns:dc="http://purl.org/dc/elements/1.1/"
   xmlns:cc="http://creativecommons.org/ns#"
   xmlns:rdf="http://www.w3.org/1999/02/22-rdf-syntax-ns#"
   xmlns:svg="http://www.w3.org/2000/svg"
   xmlns="http://www.w3.org/2000/svg"
   xmlns:sodipodi="http://sodipodi.sourceforge.net/DTD/sodipodi-0.dtd"
   xmlns:inkscape="http://www.inkscape.org/namespaces/inkscape"
   width="987.97894"
   height="997.0191"
   id="svg2"
   sodipodi:version="0.32"
   inkscape:version="0.48.3.1 r9886"
   sodipodi:docname="lock-alt.svg"
   version="1.0"
   inkscape:output_extension="org.inkscape.output.svg.inkscape">
  <defs
     id="defs4" />
  <sodipodi:namedview
     id="base"
     pagecolor="#ffffff"
     bordercolor="#666666"
     borderopacity="1.0"
     inkscape:pageopacity="0.0"
     inkscape:pageshadow="2"
     inkscape:zoom="0.45254834"
     inkscape:cx="184.71082"
     inkscape:cy="352.87375"
     inkscape:document-units="px"
     inkscape:current-layer="layer1"
     inkscape:window-width="1487"
     inkscape:window-height="1021"
     inkscape:window-x="0"
     inkscape:window-y="28"
     showgrid="false"
     inkscape:window-maximized="0"
     fit-margin-top="0"
     fit-margin-left="0"
     fit-margin-right="0"
     fit-margin-bottom="0" />
  <metadata
     id="metadata7">
    <rdf:RDF>
      <cc:Work
         rdf:about="">
        <dc:format>image/svg+xml</dc:format>
        <dc:type
           rdf:resource="http://purl.org/dc/dcmitype/StillImage" />
        <dc:title></dc:title>
        <dc:creator>
          <cc:Agent>
            <dc:title />
          </cc:Agent>
        </dc:creator>
        <dc:subject>
          <rdf:Bag />
        </dc:subject>
        <cc:license
           rdf:resource="http://creativecommons.org/licenses/publicdomain/" />
        <dc:description />
        <dc:contributor>
          <cc:Agent>
            <dc:title />
          </cc:Agent>
        </dc:contributor>
      </cc:Work>
      <cc:License
         rdf:about="http://creativecommons.org/licenses/publicdomain/">
        <cc:permits
           rdf:resource="http://creativecommons.org/ns#Reproduction" />
        <cc:permits
           rdf:resource="http://creativecommons.org/ns#Distribution" />
        <cc:permits
           rdf:resource="http://creativecommons.org/ns#DerivativeWorks" />
      </cc:License>
    </rdf:RDF>
  </metadata>
  <g
     inkscape:label="Layer 1"
     inkscape:groupmode="layer"
     id="layer1"
     transform="translate(-374.21785,422.78273)">
    <g
       id="g4923"
       transform="matrix(1.0544872,0,0,-1.0544872,340.96372,394.18196)">
      <path
         id="path4925"
         d="m 883,356 c 8.66699,0 16,-3 22,-9 6,-6 9,-13.333 9,-22 v -460 c 0,-9.33299 -3,-16.833 -9,-22.5 -6,-5.667 -13.333,-8.5 -22,-8.5 H 117 c -8.667,0 -16,2.83299 -22,8.5 -6,5.66701 -9,13.167 -9,22.5 v 460 c 0,8.66699 3,16 9,22 6,6 13.333,9 22,9 h 44 68 v 131 c 0,38.667 7.5,75.334 22.5,110 15,34.667 35.167,64.667 60.5,90 25.333,25.333 55.167,45.5 89.5,60.5 34.334,15 71.167,22.5 110.5,22.5 38.668,0 74.834,-7.33301 108.5,-22 33.668,-14.667 63.335,-34.5 89,-59.5 25.667,-25 46,-54.333 61,-88 15,-33.667 22.833,-69.833 23.5,-108.5 0.66699,-0.68201 1,-2.34799 1,-5 0,-6.67001 -2.16699,-12.337 -6.5,-17 -4.33301,-4.66699 -9.83301,-7 -16.5,-7 h -1 -120 c -6.66699,0 -12.167,2.33301 -16.5,7 -4.333,4.66699 -6.5,10.333 -6.5,17 0,16 -3,31 -9,45 -6,14 -14.333,26.333 -25,37 -10.667,10.667 -23,19 -37,25 -14,6 -29,9 -45,9 -16,0 -31,-3 -45,-9 -14,-6 -26.333,-14.333 -37,-25 -10.667,-10.667 -19,-23 -25,-37 -6,-14 -9,-29 -9,-45 V 356 h 286 157 44 v 0 z"
         inkscape:connector-curvature="0"
         style="fill:currentColor" />
    </g>
  </g>
</svg>
