<?xml version="1.0" encoding="UTF-8" standalone="no"?>
<!-- Created with Inkscape (http://www.inkscape.org/) -->

<svg
   xmlns:dc="http://purl.org/dc/elements/1.1/"
   xmlns:cc="http://creativecommons.org/ns#"
   xmlns:rdf="http://www.w3.org/1999/02/22-rdf-syntax-ns#"
   xmlns:svg="http://www.w3.org/2000/svg"
   xmlns="http://www.w3.org/2000/svg"
   xmlns:sodipodi="http://sodipodi.sourceforge.net/DTD/sodipodi-0.dtd"
   xmlns:inkscape="http://www.inkscape.org/namespaces/inkscape"
   width="987.97894"
   height="997.0191"
   id="svg2"
   sodipodi:version="0.32"
   inkscape:version="0.48.3.1 r9886"
   sodipodi:docname="tumblr.svg"
   version="1.0"
   inkscape:output_extension="org.inkscape.output.svg.inkscape">
  <defs
     id="defs4" />
  <sodipodi:namedview
     id="base"
     pagecolor="#ffffff"
     bordercolor="#666666"
     borderopacity="1.0"
     inkscape:pageopacity="0.0"
     inkscape:pageshadow="2"
     inkscape:zoom="0.45254834"
     inkscape:cx="299.61567"
     inkscape:cy="242.38832"
     inkscape:document-units="px"
     inkscape:current-layer="layer1"
     inkscape:window-width="1487"
     inkscape:window-height="1021"
     inkscape:window-x="0"
     inkscape:window-y="28"
     showgrid="false"
     inkscape:window-maximized="0"
     fit-margin-top="0"
     fit-margin-left="0"
     fit-margin-right="0"
     fit-margin-bottom="0" />
  <metadata
     id="metadata7">
    <rdf:RDF>
      <cc:Work
         rdf:about="">
        <dc:format>image/svg+xml</dc:format>
        <dc:type
           rdf:resource="http://purl.org/dc/dcmitype/StillImage" />
        <dc:title></dc:title>
        <dc:creator>
          <cc:Agent>
            <dc:title />
          </cc:Agent>
        </dc:creator>
        <dc:subject>
          <rdf:Bag />
        </dc:subject>
        <cc:license
           rdf:resource="http://creativecommons.org/licenses/publicdomain/" />
        <dc:description />
        <dc:contributor>
          <cc:Agent>
            <dc:title />
          </cc:Agent>
        </dc:contributor>
      </cc:Work>
      <cc:License
         rdf:about="http://creativecommons.org/licenses/publicdomain/">
        <cc:permits
           rdf:resource="http://creativecommons.org/ns#Reproduction" />
        <cc:permits
           rdf:resource="http://creativecommons.org/ns#Distribution" />
        <cc:permits
           rdf:resource="http://creativecommons.org/ns#DerivativeWorks" />
      </cc:License>
    </rdf:RDF>
  </metadata>
  <g
     inkscape:label="Layer 1"
     inkscape:groupmode="layer"
     id="layer1"
     transform="translate(-374.21785,422.78273)">
    <g
       id="g7239"
       transform="matrix(1.089404,0,0,-1.089404,319.14771,402.54802)">
      <path
         id="path7241"
         d="M 720,223 V 489 L 581,424 v -1 61 c 0,7.33701 -2.66699,13.67 -8,19 -5.33801,5.33301 -11.671,8 -19,8 H 318 c -7.33301,0 -13.5,-2.66699 -18.5,-8 -5,-5.33301 -7.5,-11.667 -7.5,-19 V 227 c 0,-7.334 2.5,-13.667 7.5,-19 5,-5.333 11.167,-8 18.5,-8 h 236 c 7.33301,0 13.667,2.66701 19,8 5.333,5.33299 8,11.667 8,19 v 62 z M 504,752 c 62.667,0 121.5,-10.5 176.5,-31.5 55,-21 103,-49.5 144,-85.5 41,-36 73.333,-78.333 97,-127 23.667,-48.667 35.5,-100.334 35.5,-155 0,-55.333 -11.833,-107.333 -35.5,-156 -23.667,-48.667 -56,-91 -97,-127 -41,-36 -89,-64.5 -144,-85.5 -55,-21 -113.833,-31.5 -176.5,-31.5 -45.333,0 -90,6 -134,18 L 165,-149 c -4,-2 -8,-3 -12,-3 -6.66701,0 -12,2 -16,6 -8.66701,8.66701 -10.333,18 -5,28 L 219,42 C 165.667,80 124.333,126.167 95,180.5 65.6667,234.833 51,292.333 51,353 c 0,54.667 11.8333,106.333 35.5,155 23.667,48.667 56,91 97,127 41,36 89,64.5 144,85.5 55,21 113.833,31.5 176.5,31.5 z"
         inkscape:connector-curvature="0"
         style="fill:currentColor" />
    </g>
  </g>
</svg>
