<?xml version="1.0" encoding="UTF-8" standalone="no"?>
<!-- Created with Inkscape (http://www.inkscape.org/) -->

<svg
   xmlns:dc="http://purl.org/dc/elements/1.1/"
   xmlns:cc="http://creativecommons.org/ns#"
   xmlns:rdf="http://www.w3.org/1999/02/22-rdf-syntax-ns#"
   xmlns:svg="http://www.w3.org/2000/svg"
   xmlns="http://www.w3.org/2000/svg"
   xmlns:sodipodi="http://sodipodi.sourceforge.net/DTD/sodipodi-0.dtd"
   xmlns:inkscape="http://www.inkscape.org/namespaces/inkscape"
   width="512"
   height="512"
   id="svg2"
   sodipodi:version="0.32"
   inkscape:version="0.48.3.1 r9886"
   sodipodi:docname="view-mode.svg"
   version="1.0"
   inkscape:output_extension="org.inkscape.output.svg.inkscape">
  <defs
     id="defs4" />
  <sodipodi:namedview
     id="base"
     pagecolor="#ffffff"
     bordercolor="#666666"
     borderopacity="1.0"
     inkscape:pageopacity="0.0"
     inkscape:pageshadow="2"
     inkscape:zoom="0.45254834"
     inkscape:cx="301.82539"
     inkscape:cy="242.38832"
     inkscape:document-units="px"
     inkscape:current-layer="layer1"
     inkscape:window-width="1487"
     inkscape:window-height="1021"
     inkscape:window-x="0"
     inkscape:window-y="28"
     showgrid="false"
     inkscape:window-maximized="0"
     fit-margin-top="0"
     fit-margin-left="0"
     fit-margin-right="0"
     fit-margin-bottom="0" />
  <metadata
     id="metadata7">
    <rdf:RDF>
      <cc:Work
         rdf:about="">
        <dc:format>image/svg+xml</dc:format>
        <dc:type
           rdf:resource="http://purl.org/dc/dcmitype/StillImage" />
        <dc:title />
        <dc:creator>
          <cc:Agent>
            <dc:title />
          </cc:Agent>
        </dc:creator>
        <dc:subject>
          <rdf:Bag />
        </dc:subject>
        <cc:license
           rdf:resource="http://creativecommons.org/licenses/publicdomain/" />
        <dc:description />
        <dc:contributor>
          <cc:Agent>
            <dc:title />
          </cc:Agent>
        </dc:contributor>
      </cc:Work>
      <cc:License
         rdf:about="http://creativecommons.org/licenses/publicdomain/">
        <cc:permits
           rdf:resource="http://creativecommons.org/ns#Reproduction" />
        <cc:permits
           rdf:resource="http://creativecommons.org/ns#Distribution" />
        <cc:permits
           rdf:resource="http://creativecommons.org/ns#DerivativeWorks" />
      </cc:License>
    </rdf:RDF>
  </metadata>
  <g
     inkscape:label="Layer 1"
     inkscape:groupmode="layer"
     id="layer1"
     transform="translate(-374.21785,-62.236374)">
    <path
       style="fill:currentColor"
       inkscape:connector-curvature="0"
       d="m 825.59382,83.497877 c 5.74638,-4.980359 12.06733,-7.470256 18.96299,-7.470256 7.2829,0 13.41196,2.489897 18.38832,7.470256 5.36308,5.363078 8.04488,11.684058 8.04488,18.962963 0,6.89562 -2.6818,13.02525 -8.04488,18.38833 L 444.61065,538.60899 c -5.36306,5.36306 -11.68405,7.94892 -18.96296,7.75757 -7.2789,-0.19135 -13.40796,-2.77721 -18.38833,-7.75757 -4.98036,-4.9802 -7.47025,-11.1096 -7.47025,-18.38833 0,-7.66179 2.48989,-13.79125 7.47025,-18.38833 z M 631.36711,204.74591 c 5.36307,0 9.0028,2.29854 10.91808,6.89563 1.91526,4.2138 1.14926,8.42817 -2.29854,12.64197 l -97.11337,97.11335 c -3.06452,2.29855 -5.74635,3.44782 -8.04489,3.44782 h -0.57464 c -3.06454,0 -5.74635,-1.14927 -8.04489,-3.44782 -2.29854,-2.29854 -3.44782,-4.98035 -3.44782,-8.04489 v -97.11335 c 0,-3.06454 1.14928,-5.74636 3.44782,-8.0449 2.29854,-2.29854 4.98035,-3.44781 8.04489,-3.44781 h 97.11336 v 0 z m -141.93491,0 c 3.06455,0 5.74636,1.14927 8.0449,3.44781 2.29854,2.29854 3.44781,4.98036 3.44781,8.0449 v 97.11335 c 0,3.06454 -1.14927,5.74635 -3.44781,8.04489 -2.29854,2.29855 -4.98035,3.44782 -8.0449,3.44782 h -97.11336 c -3.0647,0 -5.74635,-1.14927 -8.04489,-3.44782 -2.29854,-2.29854 -3.44781,-4.98035 -3.44781,-8.04489 v -97.11335 c 0,-3.06454 1.14927,-5.74636 3.44781,-8.0449 2.29854,-2.29854 4.98019,-3.44781 8.04489,-3.44781 h 97.11336 v 0 z M 631.36711,62.236374 c 3.06453,0 5.74636,1.149271 8.0449,3.447809 2.29854,2.298543 3.44781,4.98036 3.44781,8.044895 v 97.113352 c 0,3.06454 -1.14927,5.74636 -3.44781,8.04489 -2.29854,2.29855 -4.98037,3.44782 -8.0449,3.44782 h -97.11335 c -3.06454,0 -5.74635,-1.14927 -8.04489,-3.44782 -2.29854,-2.29853 -3.44782,-4.98035 -3.44782,-8.04489 V 73.729078 c 0,-3.064535 1.14928,-5.746352 3.44782,-8.044895 2.29854,-2.298538 4.98035,-3.447809 8.04489,-3.447809 h 97.11336 v 0 z m -141.93491,0 c 3.06455,0 5.74636,1.149271 8.0449,3.447809 2.29854,2.298543 3.44781,4.98036 3.44781,8.044895 v 97.113352 c 0,3.06454 -1.14927,5.74636 -3.44781,8.04489 -2.29854,2.29855 -4.98035,3.44782 -8.0449,3.44782 h -97.11336 c -3.0647,0 -5.74635,-1.14927 -8.04489,-3.44782 -2.29854,-2.29853 -3.44781,-4.98035 -3.44781,-8.04489 V 73.729078 c 0,-3.064535 1.14927,-5.746352 3.44781,-8.044895 2.29854,-2.298538 4.98019,-3.447809 8.04489,-3.447809 h 97.11336 v 0 z M 870.99,317.94905 c 2.29856,0 4.30979,0.86196 6.03368,2.58586 1.72388,1.72391 2.58587,3.73513 2.58587,6.03367 v 53.44108 c 0,2.29854 -0.86199,4.30976 -2.58587,6.03367 -1.72389,1.7239 -3.73511,2.58586 -6.03368,2.58586 H 654.35252 c -4.2138,0 -6.89562,-1.91525 -8.04489,-5.74635 -0.76599,-1.53256 -0.95791,-3.1605 -0.57463,-4.88441 0.38327,-1.7239 1.14927,-3.16049 2.29854,-4.30976 l 54.59036,-53.44108 c 2.29855,-1.53254 4.40569,-2.29854 6.32099,-2.29854 h 162.04712 v 0 z m 0,183.88328 c 2.29856,0 4.30979,0.86195 6.03368,2.58586 1.72388,1.72391 2.58587,3.73513 2.58587,6.03367 v 55.16498 c 0,2.29854 -0.86199,4.30977 -2.58587,6.03367 -1.72389,1.72391 -3.73511,2.58586 -6.03368,2.58586 H 638.26274 c -2.68183,0 -4.78845,-0.86195 -6.321,-2.58586 -1.53254,-1.7239 -2.29854,-3.73513 -2.29854,-6.03367 v -55.16498 c 0,-2.29854 0.766,-4.30976 2.29854,-6.03367 1.53715,-1.72391 3.64376,-2.58586 6.321,-2.58586 H 870.99 v 0 z m 1.72389,-91.94164 c 1.54867,0 3.08124,0.86196 4.59712,2.58586 1.53251,1.72391 2.29854,3.73513 2.29854,6.03367 v 53.44108 c 0,2.29854 -0.86199,4.30976 -2.58587,6.03367 -1.72389,1.7239 -3.73511,2.58585 -6.03368,2.58585 H 638.26274 c -2.68183,0 -4.78845,-0.86195 -6.321,-2.58585 -1.53254,-1.72391 -2.29854,-3.73513 -2.29854,-6.03367 v -53.44108 c 0,-2.29854 0.86195,-4.30976 2.58586,-6.03367 1.72392,-1.7239 4.1184,-2.58586 7.18295,-2.58586 h 233.30188 v 0 z"
       id="path7486" />
  </g>
</svg>
