<svg width="1000" height="1000"
 viewBox="0 0 1000 1000"
 xmlns="http://www.w3.org/2000/svg">
 <metadata id="metadata7">image/svg+xml</metadata>
 <g>
  <title>Layer 1</title>
  <g id="layer1">
   <path fill="#000000" d="m192.91219,0l614.17558,0c106.87341,0 192.91223,86.03884 192.91223,192.91219l0,614.17564c0,106.87335 -86.03882,192.91217 -192.91217,192.91217l-614.17561,0c-106.87338,0 -192.91222,-86.03882 -192.91222,-192.91217l0,-614.17564c0,-106.87335 86.03883,-192.91219 192.91219,-192.91219z" id="rect3005"/>
   <g fill="#ffffff" id="g2987">
    <path fill="#ffffff" d="m823.05981,339.79141q-4.81036,104.22415 -145.91382,285.41385q-145.91382,189.20691 -246.93109,189.20691q-62.53448,0 -105.82761,-115.4483l-57.72412,-211.65518q-32.06898,-115.4483 -68.9483,-115.4483q-8.01724,0 -56.1207,33.67242l-33.67242,-43.29309q52.9138,-46.50003 104.22416,-93.00003q70.55174,-60.93103 105.82759,-64.13794q83.37933,-8.01724 102.6207,113.84485q20.84485,131.48279 28.86209,163.55176q24.05173,109.03448 52.91379,109.03448q22.44827,0 67.34482,-70.55176q44.89661,-70.5517 48.10345,-107.43103q6.41382,-60.93103 -48.10345,-60.93103q-25.65515,0 -52.91376,11.22412q52.91376,-171.56897 202.03448,-166.75864q110.63794,3.20691 104.22418,142.70691z" id="path2989"/>
   </g>
  </g>
 </g>
</svg>
