<?xml version="1.0" encoding="UTF-8" standalone="no"?>
<!-- Created with Inkscape (http://www.inkscape.org/) -->

<svg
   xmlns:dc="http://purl.org/dc/elements/1.1/"
   xmlns:cc="http://creativecommons.org/ns#"
   xmlns:rdf="http://www.w3.org/1999/02/22-rdf-syntax-ns#"
   xmlns:svg="http://www.w3.org/2000/svg"
   xmlns="http://www.w3.org/2000/svg"
   xmlns:sodipodi="http://sodipodi.sourceforge.net/DTD/sodipodi-0.dtd"
   xmlns:inkscape="http://www.inkscape.org/namespaces/inkscape"
   width="987.97894"
   height="997.0191"
   id="svg2"
   sodipodi:version="0.32"
   inkscape:version="0.48.3.1 r9886"
   sodipodi:docname="youtube.svg"
   version="1.0"
   inkscape:output_extension="org.inkscape.output.svg.inkscape">
  <defs
     id="defs4" />
  <sodipodi:namedview
     id="base"
     pagecolor="#ffffff"
     bordercolor="#666666"
     borderopacity="1.0"
     inkscape:pageopacity="0.0"
     inkscape:pageshadow="2"
     inkscape:zoom="0.45254834"
     inkscape:cx="653.16907"
     inkscape:cy="242.38832"
     inkscape:document-units="px"
     inkscape:current-layer="layer1"
     inkscape:window-width="1487"
     inkscape:window-height="1021"
     inkscape:window-x="0"
     inkscape:window-y="28"
     showgrid="false"
     inkscape:window-maximized="0"
     fit-margin-top="0"
     fit-margin-left="0"
     fit-margin-right="0"
     fit-margin-bottom="0" />
  <metadata
     id="metadata7">
    <rdf:RDF>
      <cc:Work
         rdf:about="">
        <dc:format>image/svg+xml</dc:format>
        <dc:type
           rdf:resource="http://purl.org/dc/dcmitype/StillImage" />
        <dc:title></dc:title>
        <dc:creator>
          <cc:Agent>
            <dc:title />
          </cc:Agent>
        </dc:creator>
        <dc:subject>
          <rdf:Bag />
        </dc:subject>
        <cc:license
           rdf:resource="http://creativecommons.org/licenses/publicdomain/" />
        <dc:description />
        <dc:contributor>
          <cc:Agent>
            <dc:title />
          </cc:Agent>
        </dc:contributor>
      </cc:Work>
      <cc:License
         rdf:about="http://creativecommons.org/licenses/publicdomain/">
        <cc:permits
           rdf:resource="http://creativecommons.org/ns#Reproduction" />
        <cc:permits
           rdf:resource="http://creativecommons.org/ns#Distribution" />
        <cc:permits
           rdf:resource="http://creativecommons.org/ns#DerivativeWorks" />
      </cc:License>
    </rdf:RDF>
  </metadata>
  <g
     inkscape:label="Layer 1"
     inkscape:groupmode="layer"
     id="layer1"
     transform="translate(-374.21785,422.78273)">
    <g
       id="g6787"
       transform="matrix(1.0433404,0,0,-1.0433404,346.53712,388.72894)">
      <path
         id="path6789"
         d="m 790,446 c 4,21.333 3.33301,40.333 -2,57 -1.34497,3.33301 -2.67902,6.5 -4,9.5 -1.33301,3 -3.33301,6.16699 -6,9.5 -6,7.33301 -13.167,13 -21.5,17 -8.333,4 -17.333,6.83301 -27,8.5 -9.667,1.66699 -19.5,2.33301 -29.5,2 -10,-0.34998 -19.333,-1.18298 -28,-2.5 -6.66699,-1.33301 -16.833,-4.83301 -30.5,-10.5 -13.667,-5.66699 -28.167,-14.333 -43.5,-26 C 582.664,498.833 567.831,484.333 553.5,467 539.167,449.667 528,428.667 520,404 h 14 c 17.333,1.33301 31.5,-0.16699 42.5,-4.5 11,-4.33301 18.167,-13.167 21.5,-26.5 2.685,-7.33301 3.35199,-19 2,-35 -1.33301,-13.333 -4.83301,-26.833 -10.5,-40.5 -5.66699,-13.667 -12.167,-27.167 -19.5,-40.5 -4,-8 -9,-17 -15,-27 -6,-10 -12.667,-18.333 -20,-25 -7.33698,-6.66701 -15.671,-10.5 -25,-11.5 -9.33301,-1 -19,4.16701 -29,15.5 -2,2 -4,4.33299 -6,7 l -6,8 c -6,10.667 -10.667,22.333 -14,35 -3.33301,12.667 -6,25.833 -8,39.5 -2,13.667 -3.5,27 -4.5,40 -1,13 -2.5,25.167 -4.5,36.5 -2.67001,14 -5.33701,29.333 -8,46 -2.67001,16.667 -6.33701,32.333 -11,47 l -2,6 -2,6 c -5.33301,11.334 -11.833,21.667 -19.5,31 -7.667,9.333 -16.167,15.667 -25.5,19 -12,3.33301 -24.667,3.16699 -38,-0.5 -13.333,-3.66699 -24.333,-8.16699 -33,-13.5 -28,-16.667 -53.5,-35.667 -76.5,-57 -23,-21.333 -46.5,-41.667 -70.5,-61 v -4 c 3.33299,-3.33301 6,-7 8,-11 2.66701,-3.33301 5.16701,-6.5 7.5,-9.5 2.33299,-3 5.83299,-4.83301 10.5,-5.5 8,-1.33301 16,-0.66699 24,2 8,2.66699 15.833,5 23.5,7 7.667,2 14.834,2.33301 21.5,1 6.668,-1.33301 12.668,-6.66699 18,-16 1.33701,-2.66699 2.67099,-5.16699 4,-7.5 1.33701,-2.33301 2.67099,-5.16699 4,-8.5 -0.66699,0.66699 -1,1.33301 -1,2 0,-0.672 0.33301,-1.33899 1,-2 4,-9.33301 7.16699,-18.833 9.5,-28.5 2.336,-9.66699 5.16901,-19.167 8.5,-28.5 6,-16.667 11.333,-33.667 16,-51 4.66699,-17.334 9.33301,-35.667 14,-55 5.336,-20.667 11.169,-43.333 17.5,-68 6.33499,-24.6667 15.168,-47 26.5,-67 6,-11.3333 12.833,-21 20.5,-29 7.667,-8 16.5,-14 26.5,-18 6.66699,-3.33333 14.333,-4.83333 23,-4.5 8.667,0.33333 17.167,1.5 25.5,3.5 8.333,2 16.333,4.5 24,7.5 7.667,3 14.167,6.1667 19.5,9.5 29.333,17.3333 55.333,37.8333 78,61.5 22.667,23.667 43.667,48.167 63,73.5 22.667,30 42.667,60.333 60,91 17.333,30.667 32,59.5 44,86.5 12,27 21.333,50.833 28,71.5 6.667,20.667 11,35.667 13,45 z m 155,327 c 6.68103,0 12.348,-2.16699 17,-6.5 4.66699,-4.33301 7,-9.83301 7,-16.5 v -900 c 0,-6.66701 -2.33301,-12.167 -7,-16.5 -4.66699,-4.333 -10.333,-6.5 -17,-6.5 H 55 c -6.6667,0 -12.3333,2.16701 -17,6.5 -4.6667,4.33299 -7,9.83299 -7,16.5 v 900 c 0,6.66699 2.3333,12.167 7,16.5 4.6667,4.333 10.3334,6.5 17,6.5 h 890 v 0 z"
         inkscape:connector-curvature="0"
         style="fill:currentColor" />
    </g>
  </g>
</svg>
