<svg width="1000.125px" height="1000.125px"
 viewBox="0 0 1000 1000"
 xmlns="http://www.w3.org/2000/svg">
 <metadata id="metadata3094">image/svg+xml</metadata>
 <g>
  <title>Layer 1</title>
  <g id="layer1">
   <path fill="#000000" stroke="#000000" stroke-width="0" id="path3140" d="m196.01367,0.06256c-107.76517,0 -195.95114,88.186 -195.95114,195.95116l0,608.09761c0,107.7652 88.18597,195.95117 195.95114,195.95117l608.09766,0c107.76526,0 195.95117,-88.18597 195.95117,-195.95117l0,-608.09761c0,-107.76515 -88.18591,-195.95116 -195.95117,-195.95116l-608.09766,0z"/>
   <path fill="#ffffff" stroke="#000000" stroke-width="0" id="path3138" d="m754.8175,613.05524l0,0c0,-37.90802 -10.37,-68.10199 -31.12402,-90.52698c-20.72296,-22.39899 -48.36298,-37.11002 -82.81299,-44.42603l0,-2.92596c23.94202,-10.10901 42.776,-25.72403 56.34399,-46.97931c13.70001,-21.25513 20.48303,-45.46301 20.48303,-72.70361c0,-23.56949 -5.00104,-44.31909 -14.87,-62.35529c-9.87,-17.9299 -24.84705,-32.40143 -44.79803,-43.14871c-18.43597,-9.9761 -38.28101,-16.5201 -59.40302,-19.5791c-21.12195,-3.21899 -52.21997,-4.735 -93.18695,-4.735l-197.28101,0l0,558.40501l223.51099,0c38.78601,0 70.65497,-3.48505 95.74097,-10.508c25.24506,-7.05005 48.28302,-18.70105 69.27203,-35.19501c17.79602,-13.83301 31.86902,-31.12402 42.375,-52.11298c10.51001,-20.98901 15.75,-45.46301 15.75,-73.20905l0,0z"/>
   <path fill="#000000" stroke="#000000" stroke-width="0" id="path3136" d="m575.2002,383.63843l0,0c0,-9.07132 -2.28778,-18.30228 -6.91656,-27.77261c-4.60217,-9.47037 -11.75818,-16.3869 -21.6275,-20.61664c-9.20435,-4.09674 -20.08466,-6.2515 -32.7738,-6.65051c-12.6626,-0.40012 -31.49689,-0.53204 -56.44971,-0.53204l-9.73633,0l0,118.16656l17.66376,0c23.94189,0 40.83429,-0.24048 50.43762,-0.74484c9.60333,-0.50439 19.60577,-3.08585 29.8476,-7.82104c11.11969,-5.2406 18.94067,-12.5296 23.1438,-21.76053c4.22974,-9.33734 6.41113,-20.11118 6.41113,-32.26834z"/>
   <path fill="#000000" stroke="#000000" stroke-width="0" id="path22" d="m610.39478,610.47461l0,0c0,-17.29138 -3.43164,-30.7254 -10.4812,-40.46179c-7.02301,-9.84277 -17.53082,-17.13177 -31.49695,-22.13293c-8.45947,-3.32532 -20.21759,-5.13422 -35.06158,-5.50665c-14.84393,-0.37244 -34.82214,-0.50439 -59.80151,-0.50439l-25.85724,0l0,139.79413l7.55499,0c36.49811,0 61.71686,-0.26599 75.65637,-0.77252c13.93951,-0.50439 28.30469,-3.83075 42.74963,-10.10883c12.8222,-5.50659 22.02655,-13.56708 27.93219,-24.20789c5.87909,-10.61426 8.8053,-22.66504 8.8053,-36.09912z"/>
  </g>
 </g>
</svg>
