<?xml version="1.0" encoding="UTF-8" standalone="no"?>
<!-- Created with Inkscape (http://www.inkscape.org/) -->

<svg
   xmlns:dc="http://purl.org/dc/elements/1.1/"
   xmlns:cc="http://creativecommons.org/ns#"
   xmlns:rdf="http://www.w3.org/1999/02/22-rdf-syntax-ns#"
   xmlns:svg="http://www.w3.org/2000/svg"
   xmlns="http://www.w3.org/2000/svg"
   xmlns:sodipodi="http://sodipodi.sourceforge.net/DTD/sodipodi-0.dtd"
   xmlns:inkscape="http://www.inkscape.org/namespaces/inkscape"
   width="987.97894"
   height="997.0191"
   id="svg2"
   sodipodi:version="0.32"
   inkscape:version="0.48.3.1 r9886"
   sodipodi:docname="volume-down.svg"
   version="1.0"
   inkscape:output_extension="org.inkscape.output.svg.inkscape">
  <defs
     id="defs4" />
  <sodipodi:namedview
     id="base"
     pagecolor="#ffffff"
     bordercolor="#666666"
     borderopacity="1.0"
     inkscape:pageopacity="0.0"
     inkscape:pageshadow="2"
     inkscape:zoom="0.32"
     inkscape:cx="-111.07108"
     inkscape:cy="435.07594"
     inkscape:document-units="px"
     inkscape:current-layer="layer1"
     inkscape:window-width="1487"
     inkscape:window-height="1021"
     inkscape:window-x="0"
     inkscape:window-y="28"
     showgrid="false"
     inkscape:window-maximized="0"
     fit-margin-top="0"
     fit-margin-left="0"
     fit-margin-right="0"
     fit-margin-bottom="0" />
  <metadata
     id="metadata7">
    <rdf:RDF>
      <cc:Work
         rdf:about="">
        <dc:format>image/svg+xml</dc:format>
        <dc:type
           rdf:resource="http://purl.org/dc/dcmitype/StillImage" />
        <dc:title></dc:title>
        <dc:creator>
          <cc:Agent>
            <dc:title />
          </cc:Agent>
        </dc:creator>
        <dc:subject>
          <rdf:Bag />
        </dc:subject>
        <cc:license
           rdf:resource="http://creativecommons.org/licenses/publicdomain/" />
        <dc:description />
        <dc:contributor>
          <cc:Agent>
            <dc:title />
          </cc:Agent>
        </dc:contributor>
      </cc:Work>
      <cc:License
         rdf:about="http://creativecommons.org/licenses/publicdomain/">
        <cc:permits
           rdf:resource="http://creativecommons.org/ns#Reproduction" />
        <cc:permits
           rdf:resource="http://creativecommons.org/ns#Distribution" />
        <cc:permits
           rdf:resource="http://creativecommons.org/ns#DerivativeWorks" />
      </cc:License>
    </rdf:RDF>
  </metadata>
  <g
     inkscape:label="Layer 1"
     inkscape:groupmode="layer"
     id="layer1"
     transform="translate(-374.21785,422.78273)">
    <g
       id="g9198"
       transform="matrix(0.86395747,0,0,0.86395747,50.909545,10.302067)">
      <g
         transform="matrix(2.0350515,0,0,-2.0350515,364.04259,905.01031)"
         id="g9007">
        <path
           style="fill:currentColor"
           inkscape:connector-curvature="0"
           d="M 5,509 H 120 L 293,650 V 165 L 120,306 H 5 v 203 z"
           id="path9009" />
      </g>
      <g
         transform="matrix(0.35336973,0,0,-0.35336973,992.53957,181.73774)"
         id="g9025">
        <path
           style="fill:currentColor"
           inkscape:connector-curvature="0"
           d="m 914,79 q 7,-7 7,-16.5 Q 921,53 914,46 L 759,-109 q -7,-7 -16,-7 -8,0 -17,7 L 505,112 284,-109 q -7,-7 -16,-7 -8,0 -17,7 L 96,46 q -6,6 -6,17 0,10 6,16 L 317,300 97,521 q -7,6 -7,16 0,11 7,17 l 154,155 q 7,7 17,7 10,0 16,-7 L 505,488 726,709 q 7,7 16.5,7 9.5,0 16.5,-7 L 914,554 q 7,-7 7,-16.5 0,-9.5 -7,-16.5 L 693,300 z"
           id="path9027" />
      </g>
    </g>
  </g>
</svg>
