<?xml version="1.0" encoding="UTF-8" standalone="no"?>
<!-- Created with Inkscape (http://www.inkscape.org/) -->

<svg
   xmlns:dc="http://purl.org/dc/elements/1.1/"
   xmlns:cc="http://creativecommons.org/ns#"
   xmlns:rdf="http://www.w3.org/1999/02/22-rdf-syntax-ns#"
   xmlns:svg="http://www.w3.org/2000/svg"
   xmlns="http://www.w3.org/2000/svg"
   xmlns:sodipodi="http://sodipodi.sourceforge.net/DTD/sodipodi-0.dtd"
   xmlns:inkscape="http://www.inkscape.org/namespaces/inkscape"
   width="512"
   height="512"
   id="svg2"
   version="1.1"
   inkscape:version="0.48.3.1 r9886"
   sodipodi:docname="eye-close.svg">
  <defs
     id="defs4" />
  <sodipodi:namedview
     id="base"
     pagecolor="#ffffff"
     bordercolor="#666666"
     borderopacity="1.0"
     inkscape:pageopacity="0.0"
     inkscape:pageshadow="2"
     inkscape:zoom="1.4"
     inkscape:cx="430.75729"
     inkscape:cy="241.77044"
     inkscape:document-units="px"
     inkscape:current-layer="layer1"
     showgrid="false"
     inkscape:window-width="1920"
     inkscape:window-height="1025"
     inkscape:window-x="0"
     inkscape:window-y="27"
     inkscape:window-maximized="1" />
  <metadata
     id="metadata7">
    <rdf:RDF>
      <cc:Work
         rdf:about="">
        <dc:format>image/svg+xml</dc:format>
        <dc:type
           rdf:resource="http://purl.org/dc/dcmitype/StillImage" />
        <dc:title></dc:title>
      </cc:Work>
    </rdf:RDF>
  </metadata>
  <g
     inkscape:label="Layer 1"
     inkscape:groupmode="layer"
     id="layer1"
     transform="translate(0,-540.36218)">
    <path
       inkscape:connector-curvature="0"
       d="M 506.04843,955.631 313.28732,579.34772 c -28.33182,-45.79848 -92.15232,-42.21042 -114.9273,0 L 5.5989238,955.631 c -20.1170548,47.791 17.4507092,89.9973 57.4636632,90.7627 l 385.506123,0 c 45.9231,-2.0752 77.04162,-50.56844 57.47972,-90.7627 z m -218.12737,12.37032 c 0,8.67019 -7.18094,15.67845 -16.06476,15.67845 l -32.12952,0 c -8.88381,0 -16.06477,-7.00827 -16.06477,-15.67845 l 0,-31.35693 c 0,-8.6702 7.18096,-15.67848 16.06477,-15.67848 l 32.12952,0 c 8.88382,0 16.06476,7.00828 16.06476,15.67848 z m 0,-125.42776 c 0,8.67019 -7.18094,15.67847 -16.06476,15.67847 l -32.12952,0 c -8.88381,0 -16.06477,-7.00828 -16.06477,-15.67847 l 0,-156.78471 c 0,-8.65452 7.18096,-15.67848 16.06477,-15.67848 l 32.12952,0 c 8.88382,0 16.06476,7.02396 16.06476,15.67848 z"
       id="path4"
       sodipodi:nodetypes="cccccccssssssssssssssssss" />
  </g>
</svg>
