<?xml version="1.0" encoding="UTF-8" standalone="no"?>
<!-- Created with Inkscape (http://www.inkscape.org/) -->

<svg
   xmlns:dc="http://purl.org/dc/elements/1.1/"
   xmlns:cc="http://creativecommons.org/ns#"
   xmlns:rdf="http://www.w3.org/1999/02/22-rdf-syntax-ns#"
   xmlns:svg="http://www.w3.org/2000/svg"
   xmlns="http://www.w3.org/2000/svg"
   xmlns:sodipodi="http://sodipodi.sourceforge.net/DTD/sodipodi-0.dtd"
   xmlns:inkscape="http://www.inkscape.org/namespaces/inkscape"
   width="987.97894"
   height="997.0191"
   id="svg2"
   sodipodi:version="0.32"
   inkscape:version="0.48.3.1 r9886"
   sodipodi:docname="file-alt.svg"
   version="1.0"
   inkscape:output_extension="org.inkscape.output.svg.inkscape">
  <defs
     id="defs4" />
  <sodipodi:namedview
     id="base"
     pagecolor="#ffffff"
     bordercolor="#666666"
     borderopacity="1.0"
     inkscape:pageopacity="0.0"
     inkscape:pageshadow="2"
     inkscape:zoom="0.64"
     inkscape:cx="36.215379"
     inkscape:cy="425.62412"
     inkscape:document-units="px"
     inkscape:current-layer="layer1"
     inkscape:window-width="1920"
     inkscape:window-height="1025"
     inkscape:window-x="0"
     inkscape:window-y="27"
     showgrid="false"
     inkscape:window-maximized="1"
     fit-margin-top="0"
     fit-margin-left="0"
     fit-margin-right="0"
     fit-margin-bottom="0" />
  <metadata
     id="metadata7">
    <rdf:RDF>
      <cc:Work
         rdf:about="">
        <dc:format>image/svg+xml</dc:format>
        <dc:type
           rdf:resource="http://purl.org/dc/dcmitype/StillImage" />
        <dc:title></dc:title>
        <dc:creator>
          <cc:Agent>
            <dc:title />
          </cc:Agent>
        </dc:creator>
        <dc:subject>
          <rdf:Bag />
        </dc:subject>
        <cc:license
           rdf:resource="http://creativecommons.org/licenses/publicdomain/" />
        <dc:description />
        <dc:contributor>
          <cc:Agent>
            <dc:title />
          </cc:Agent>
        </dc:contributor>
      </cc:Work>
      <cc:License
         rdf:about="http://creativecommons.org/licenses/publicdomain/">
        <cc:permits
           rdf:resource="http://creativecommons.org/ns#Reproduction" />
        <cc:permits
           rdf:resource="http://creativecommons.org/ns#Distribution" />
        <cc:permits
           rdf:resource="http://creativecommons.org/ns#DerivativeWorks" />
      </cc:License>
    </rdf:RDF>
  </metadata>
  <g
     inkscape:label="Layer 1"
     inkscape:groupmode="layer"
     id="layer1"
     transform="translate(-374.21785,422.78273)">
    <g
       id="g3692"
       transform="matrix(1.1488086,0,0,-1.1488086,294.27934,414.01898)">
      <path
         id="path3694"
         d="m 184,-21 c 9.33299,-9.3333 20.167,-14 32.5,-14 12.333,0 23.167,4.6667 32.5,14 9.33301,9.3333 14,20.1667 14,32.5 0,12.3333 -4.66699,23.1667 -14,32.5 -9.334,9.3333 -20.167,14 -32.5,14 -12.334,0 -23.167,-4.6667 -32.5,-14 -9.333,-9.3333 -14,-20.1667 -14,-32.5 0,-12.3333 4.66701,-23.1667 14,-32.5 z M 852,316 C 826.667,290 798.167,270 766.5,256 734.833,242 703,235 671,235 c -21.333,0 -43.333,5 -66,15 L 336,-56 c -1.33301,-2 -5,-6.8333 -11,-14.5 -6,-7.6666 -13.833,-15.8333 -23.5,-24.5 -9.66699,-8.667 -21,-16.833 -34,-24.5 -13,-7.667 -27.5,-12.5 -43.5,-14.5 -37.333,-5.33299 -73.333,8.667 -108,42 l -1,1 h -1 c 0,0.666702 -0.167,1 -0.5,1 -0.333,0 -0.5,0.333298 -0.5,1 -32.6667,35.3333 -46.6667,71.3333 -42,108 2,16 6.8333,30.5 14.5,43.5 7.6667,13 15.833,24.3333 24.5,34 8.667,9.667 16.833,17.5 24.5,23.5 7.66701,6 12.5,9.66701 14.5,11 l 306,269 c -10,22.667 -15,44.667 -15,66 0,32 7,63.833 21,95.5 14,31.667 34,60.167 60,85.5 25.333,25.333 53.333,44.667 84,58 30.667,13.333 61.667,19.667 93,19 3.33301,0 6,-0.66699 8,-2 2,-1.33301 6,-5 12,-11 l 13,-13 c 6.66699,-7.33301 6.66699,-14.333 0,-21 l -31,-31 -33,-33 -17,-20.5 -5.5,-16 L 644,556 v -13 c 0,-9.33301 3.16699,-20 9.5,-32 6.33301,-12 15.5,-24 27.5,-36 11.333,-11.333 23,-20.167 35,-26.5 12,-6.333 22.667,-9.5 32,-9.5 h 13 c 8.66699,0 15.5,0.16699 20.5,0.5 5,0.34 10.333,2.173 16,5.5 5.66699,3.33301 12.5,9 20.5,17 l 33,33 31,31 c 6.66699,6.66699 13.667,6.66699 21,0 l 13,-13 c 6,-6 9.66699,-10 11,-12 1.33301,-2 2,-4.66699 2,-8 0.65301,-31.333 -5.68103,-62.333 -19,-93 -13.337,-30.667 -32.67,-58.667 -58,-84 z"
         inkscape:connector-curvature="0"
         style="fill:currentColor" />
    </g>
  </g>
</svg>
