<svg width="580.64099" height="1000"
 viewBox="0 0 580.64099 1000"
 xmlns="http://www.w3.org/2000/svg">
 <metadata id="metadata3061">image/svg+xml</metadata>
 <g>
  <title>Layer 1</title>
  <g id="layer1">
   <path fill="#000000" fill-rule="nonzero" d="m456.10202,544.01239l-67.96185,0c-106.74149,0 -210.25494,-63.9978 -210.25494,-224.00562c0,-166.69339 97.03574,-234.67937 195.69632,-234.67937l82.52048,0l0,458.68498zm106.74149,-544.01237l-184.40906,0c-181.12689,0 -334.79391,113.33371 -334.79391,333.34227c0,132.00153 74.42876,229.32916 207.01611,277.32971l-247.42061,368.00732c-8.0809,12.00916 0,21.32068 12.90127,21.32068l114.83323,0c9.70573,0 16.18347,-2.66162 19.41148,-9.31152l224.81357,-361.35748l80.90643,0l0,361.35748c0,3.98816 4.85287,9.31152 11.27646,9.31152l100.31787,0c9.70575,0 12.94464,-3.99695 12.94464,-10.63806l0,-976.01754c0,-9.35623 -6.47766,-13.3444 -17.79749,-13.3444" id="path3934"/>
  </g>
 </g>
</svg>
