<svg width="1000" height="1000"
 viewBox="0 0 1000 1000"
 xmlns="http://www.w3.org/2000/svg">
 <metadata id="metadata3061">image/svg+xmlimage/svg+xml</metadata>
 <g>
  <title>Layer 1</title>
  <path fill="#000000" id="rect3013" d="m177.188,0c-98.1556,0 -177.188,79.0324 -177.188,177.188l0,645.62401c0,98.15601 79.0324,177.18799 177.188,177.18799l475.179,0l347.633,-499.86899l-347.633,-500.13101l-475.179,0z"/>
  <path fill="#ffffff" fill-rule="nonzero" d="m556.19299,182.554c6.93201,0 10.89801,2.54199 10.89801,8.507l0,622.24899c0,4.23401 -1.98303,6.78198 -7.92603,6.78198l-61.42697,0c-3.93402,0 -6.905,-3.39398 -6.905,-5.93597l0,-230.38l-49.54102,0l-137.66,230.38c-1.97598,4.23901 -5.94299,5.93597 -11.88599,5.93597l-70.315,0c-7.89999,0 -12.84801,-5.93597 -7.89999,-13.59296l151.50198,-234.61902c-81.18698,-30.60199 -126.76199,-92.65201 -126.76199,-176.80801c0,-140.26399 94.095,-212.519 205.004,-212.519l112.918,0m-65.35999,346.82903l0,-292.42902l-50.53,0c-60.41202,0 -119.83002,43.34399 -119.83002,149.617c0,102.01099 63.384,142.81201 128.745,142.81201l41.61502,0l0,0z" id="path3934"/>
 </g>
</svg>
