<?xml version="1.0" standalone="no"?>
<!DOCTYPE svg PUBLIC "-//W3C//DTD SVG 1.1//EN" "http://www.w3.org/Graphics/SVG/1.1/DTD/svg11.dtd" >
<svg xmlns="http://www.w3.org/2000/svg">
<metadata></metadata>
<defs>
<font id="elusivewebiconsmedium" horiz-adv-x="2048" >
<font-face units-per-em="2048" ascent="1638" descent="-410" />
<missing-glyph horiz-adv-x="500" />
<glyph />
<glyph />
<glyph unicode="&#xd;" horiz-adv-x="681" />
<glyph unicode="&#x2000;" horiz-adv-x="997" />
<glyph unicode="&#x2001;" horiz-adv-x="1995" />
<glyph unicode="&#x2002;" horiz-adv-x="997" />
<glyph unicode="&#x2003;" horiz-adv-x="1995" />
<glyph unicode="&#x2004;" horiz-adv-x="665" />
<glyph unicode="&#x2005;" horiz-adv-x="498" />
<glyph unicode="&#x2006;" horiz-adv-x="332" />
<glyph unicode="&#x2007;" horiz-adv-x="332" />
<glyph unicode="&#x2008;" horiz-adv-x="249" />
<glyph unicode="&#x2009;" horiz-adv-x="399" />
<glyph unicode="&#x200a;" horiz-adv-x="110" />
<glyph unicode="&#x202f;" horiz-adv-x="399" />
<glyph unicode="&#x205f;" horiz-adv-x="498" />
<glyph unicode="&#xe000;" horiz-adv-x="1024" d="M0 0z" />
<glyph unicode="&#xf000;" d="M47 508v213q0 20 13.5 34.5t33.5 16.5l248 25q25 88 72 170l-158 192q-14 16 -13 35.5t15 34.5l152 151q14 14 36 15q16 0 33 -13l193 -157q82 47 170 71l24 248q2 20 16.5 33.5t35.5 13.5h212q20 0 35 -13t17 -34l24 -248q88 -25 170 -71l193 157q14 12 33 13 q23 0 36 -15l152 -151q14 -14 15 -33.5t-13 -36.5l-158 -192q47 -82 72 -170l248 -25q20 -2 33.5 -16.5t13.5 -34.5v-213q0 -20 -13.5 -34.5t-33.5 -16.5l-248 -25q-25 -88 -72 -170l158 -192q14 -16 13 -36t-15 -34l-152 -152q-14 -14 -36 -14q-18 0 -33 12l-193 158 q-82 -47 -170 -72l-24 -247q-2 -20 -16.5 -33.5t-35.5 -13.5h-212q-20 0 -35 13t-17 34l-24 247q-88 25 -170 72l-193 -158q-16 -12 -33 -12q-23 0 -36 14l-152 152q-14 14 -15 33.5t13 36.5l158 192q-47 82 -72 170l-248 25q-20 2 -33.5 16t-13.5 35zM735 614.5 q0 -59.5 22.5 -112.5t61.5 -92t92.5 -61.5t112.5 -22.5t112.5 22.5t92.5 61.5t61.5 92t22.5 112.5t-22.5 112.5t-61.5 92t-92.5 61.5t-112.5 22.5t-112.5 -22.5t-92.5 -61.5t-61.5 -92t-22.5 -112.5z" />
<glyph unicode="&#xf001;" d="M0 614.5q0 141.5 37 272.5t103.5 244.5t159.5 207t207 160t245 103t272 36.5q211 0 398.5 -80.5t325.5 -219t219 -326t81 -398.5q0 -141 -37 -272t-103.5 -244.5t-159.5 -207t-207 -160t-245 -103.5t-272 -37t-272 37t-245 103.5t-207 160t-159.5 207t-103.5 244.5 t-37 272.5zM412 547q0 -12 9 -21.5t21 -9.5l156 -16q6 -29 17.5 -54.5t25.5 -52.5l-98 -121q-18 -23 2 -43l94 -94q10 -10 22.5 -10t20.5 8l121 98q27 -14 52.5 -25t53.5 -18l17 -155q0 -12 9 -21.5t21 -9.5h136q12 0 21 9t9 22l17 155q29 6 54.5 17.5t51.5 25.5l121 -98 q8 -8 20.5 -8t22.5 10l94 94q20 20 2 43l-98 121q14 27 25.5 52.5t17.5 54.5l156 16q12 0 21 9.5t9 21.5v135q0 12 -9 21.5t-21 9.5l-156 16q-6 29 -17.5 54.5t-25.5 52.5l98 120q18 23 -2 43l-94 95q-10 10 -22.5 10t-20.5 -8l-121 -99q-27 14 -52.5 25.5t-53.5 17.5 l-17 156q0 12 -9 21.5t-21 9.5h-136q-12 0 -21 -9.5t-9 -21.5l-17 -156q-29 -6 -54.5 -17t-51.5 -26l-121 99q-8 8 -20.5 8t-22.5 -10l-94 -95q-20 -20 -2 -43l98 -120q-14 -27 -25.5 -52.5t-17.5 -54.5l-156 -16q-12 0 -21 -9.5t-9 -21.5v-135zM844 614.5q0 75.5 52 128 t128 52.5t128 -52.5t52 -128t-52 -128t-128 -52.5t-128 52.5t-52 128z" />
<glyph unicode="&#xf002;" d="M59 958q0 111 43 209.5t117 172t171 115.5t208 42q129 0 239.5 -56.5t186.5 -154.5q76 98 186.5 154.5t239.5 56.5q111 0 208 -42t171 -115.5t117 -172t43 -209.5q0 -121 -26 -218t-67 -177t-90 -145l-96 -121l-27 -31q-37 -45 -96 -100l-127 -113l-137 -110l-125 -99 l-96 -69q-37 -27 -41 -31q-16 -12 -37 -12q-23 0 -37 12q-6 4 -43 31l-94 69l-125 99l-137 110l-127 113q-59 55 -96 100l-27 31l-96 121q-49 66 -90 145.5t-67 177t-26 217.5z" />
<glyph unicode="&#xf003;" d="M0 614.5q0 141.5 37 272.5t103.5 244.5t159.5 207t207 160t245 103t272 36.5q211 0 398.5 -80.5t325.5 -219t219 -326t81 -398.5q0 -141 -37 -272t-103.5 -244.5t-159.5 -207t-207 -160t-245 -103.5t-272 -37t-272 37t-245 103.5t-207 160t-159.5 207t-103.5 244.5 t-37 272.5zM489 758q0 -66 14.5 -119t37 -97t49.5 -81l53 -68l16 -18q31 -37 86 -86l113 -92l98 -78q43 -31 48 -33q8 -6 20 -6q10 0 20 6q4 2 48 33l98 78l113 92q55 49 86 86l16 18l53 68q27 37 49.5 81t37 97t14.5 119q0 61 -25 115.5t-64.5 95.5t-94 64.5t-115.5 23.5 q-72 0 -133.5 -31t-102.5 -86q-41 55 -102.5 86t-133.5 31q-61 0 -115.5 -23.5t-94 -64.5t-64.5 -95.5t-25 -115.5z" />
<glyph unicode="&#xf004;" d="M27 858q14 33 45 33h676l231 651q10 33 45 33t45 -33l231 -651h676q31 0 45 -33q10 -33 -16 -53l-528 -418l237 -668q10 -33 -16 -53q-12 -12 -29 -12q-12 0 -24 8l-621 371l-621 -371q-12 -8 -27.5 -7t-25.5 11q-27 20 -16 53l237 668l-528 418q-27 20 -16 53zM27 858 q-10 -33 16 -53l528 -418l-237 -668q-10 -33 16 -53q10 -10 25.5 -11t27.5 7l621 371l621 -371q12 -8 24 -8q16 0 29 12q27 20 16 53l-237 668l528 418q26 20 16 53q-14 33 -45 33h-676l-231 651q-10 33 -45 33t-45 -33l-231 -651h-676q-31 0 -45 -33z" />
<glyph unicode="&#xf005;" d="M0 614.5q0 141.5 37 272.5t103.5 244.5t159.5 207t207 160t245 103t272 36.5q211 0 398.5 -80.5t325.5 -219t219 -326t81 -398.5q0 -141 -37 -272t-103.5 -244.5t-159.5 -207t-207 -160t-245 -103.5t-272 -37t-272 37t-245 103.5t-207 160t-159.5 207t-103.5 244.5 t-37 272.5zM467.5 764q-6.5 -16 7.5 -31l295 -233l-133 -375q-4 -20 10 -29q12 -12 31 -2l346 207l346 -209q4 -2 14.5 -2t16.5 6q14 12 8 29l-131 375l295 233q14 13 8 29q-8 18 -25 18h-378l-127 365q-8 18 -27 18q-16 0 -25 -18l-129 -365h-378q-18 0 -24.5 -16z" />
<glyph unicode="&#xf006;" d="M63 391v447q0 20 14.5 34.5t35.5 14.5h639v639q0 20 14 34.5t35 14.5h446q20 0 34.5 -14.5t14.5 -34.5v-639h639q20 0 35 -14.5t15 -34.5v-447q0 -20 -14.5 -34.5t-35.5 -14.5h-639v-639q0 -20 -14 -34.5t-35 -14.5h-446q-20 0 -34.5 14.5t-14.5 34.5v639h-639 q-20 0 -35 14.5t-15 34.5z" />
<glyph unicode="&#xf007;" d="M0 614.5q0 141.5 37 272.5t103.5 244.5t159.5 207t207 160t245 103t272 36.5q211 0 398.5 -80.5t325.5 -219t219 -326t81 -398.5q0 -141 -37 -272t-103.5 -244.5t-159.5 -207t-207 -160t-245 -103.5t-272 -37t-272 37t-245 103.5t-207 160t-159.5 207t-103.5 244.5 t-37 272.5zM469 485q0 -29 27 -28h370v-371q0 -27 29 -27h258q29 0 29 27v371h370q27 0 27 28v258q0 29 -27 29h-370v371q0 27 -29 26h-258q-29 0 -29 -26v-371h-370q-27 0 -27 -29v-258z" />
<glyph unicode="&#xf008;" d="M63 391v447q0 20 14.5 34.5t35.5 14.5h1822q20 0 33.5 -14.5t13.5 -34.5v-447q0 -20 -13 -34.5t-34 -14.5h-1822q-20 0 -35 14.5t-15 34.5z" />
<glyph unicode="&#xf009;" d="M0 614.5q0 141.5 37 272.5t103.5 244.5t159.5 207t207 160t245 103t272 36.5q211 0 398.5 -80.5t325.5 -219t219 -326t81 -398.5q0 -141 -37 -272t-103.5 -244.5t-159.5 -207t-207 -160t-245 -103.5t-272 -37t-272 37t-245 103.5t-207 160t-159.5 207t-103.5 244.5 t-37 272.5zM440 477q0 -10 8.5 -19t20.5 -9h1110q12 0 20.5 9t8.5 19v275q0 10 -8.5 19t-20.5 9h-1110q-12 0 -20.5 -9t-8.5 -19v-275z" />
<glyph unicode="&#xf00a;" d="M31 438q0 17 14 35l256 256q35 31 70 0l307 -309l999 1001q18 14 35 14.5t35 -14.5l256 -256q14 -14 14 -33.5t-14 -33.5l-1290 -1291q-12 -14 -33 -14h-2h-2q-18 0 -33 14l-598 596q-14 18 -14 35z" />
<glyph unicode="&#xf00b;" d="M0 614.5q0 141.5 37 272.5t103.5 244.5t159.5 207t207 160t245 103t272 36.5q211 0 398.5 -80.5t325.5 -219t219 -326t81 -398.5q0 -141 -37 -272t-103.5 -244.5t-159.5 -207t-207 -160t-245 -103.5t-272 -37t-272 37t-245 103.5t-207 160t-159.5 207t-103.5 244.5 t-37 272.5zM387 436q0 -12 8 -20l383 -383q10 -10 23 -10h2q14 0 20 10l830 827q10 10 10 22.5t-10 20.5l-164 166q-8 8 -22.5 8t-22.5 -8l-643 -643l-197 199q-23 18 -45 0l-164 -166q-8 -8 -8 -23z" />
<glyph unicode="&#xf00c;" d="M184 129q0 20 13 33l452 452l-450 453q-14 12 -15 33q0 23 15 35l315 317q14 14 34.5 14t33.5 -14l452 -453l453 453q14 14 33.5 14t33.5 -14l318 -317q14 -14 14 -34t-14 -34l-453 -453l453 -452q14 -14 14 -33.5t-14 -34.5l-318 -317q-14 -14 -32 -15q-16 0 -35 15 l-453 452l-452 -452q-14 -14 -33 -15q-16 0 -35 15l-317 317q-12 12 -13 35z" />
<glyph unicode="&#xf00d;" d="M0 614.5q0 141.5 37 272.5t103.5 244.5t159.5 207t207 160t245 103t272 36.5q211 0 398.5 -80.5t325.5 -219t219 -326t81 -398.5q0 -141 -37 -272t-103.5 -244.5t-159.5 -207t-207 -160t-245 -103.5t-272 -37t-272 37t-245 103.5t-207 160t-159.5 207t-103.5 244.5 t-37 272.5zM494 305q0 -14 10 -20l201 -203q12 -8 20 -8q10 0 23 8l286 289l289 -289q6 -8 20.5 -8t22.5 8l201 203q10 8 10 20.5t-10 22.5l-287 286l287 287q10 10 10 22.5t-10 20.5l-201 203q-10 8 -22.5 8t-20.5 -8l-289 -289l-286 289q-10 8 -22.5 8t-20.5 -8l-201 -203 q-10 -6 -10 -20q0 -12 10 -23l287 -287l-287 -286q-10 -10 -10 -23z" />
<glyph unicode="&#xf00e;" d="M68 92v817q0 10 8 15q8 2 16 0l545 -312q8 -4 8 -12q0 -10 -6 -12l-545 -506q-2 -4 -10 -4h-6q-10 6 -10 14zM68 1130v205q0 27 18 45.5t45 18.5h1800q29 0 47.5 -18.5t18.5 -45.5v-196q0 -14 -15 -15q-12 -2 -22 -10l-918 -539q-2 -2 -8 -2t-8 2l-946 539q-12 8 -12 16z M92 -147.5q0 8.5 6 12.5l695 645q8 8 18 2l184 -104q39 -23 80 0l209 122q12 8 19 -2l622 -671q6 -8 4 -17q-6 -10 -16 -10h-1782q-14 0 -31 10q-8 4 -8 12.5zM1446 618q0 8 6 13l520 305q7 6 17 0q8 -4 8 -14v-865q0 -10 -10 -14q-2 -2 -7 -2q-6 0 -12 6l-518 559 q-6 6 -4 12z" />
<glyph unicode="&#xf00f;" d="M0 614.5q0 141.5 37 272.5t103.5 244.5t159.5 207t207 160t245 103t272 36.5q211 0 398.5 -80.5t325.5 -219t219 -326t81 -398.5q0 -141 -37 -272t-103.5 -244.5t-159.5 -207t-207 -160t-245 -103.5t-272 -37t-272 37t-245 103.5t-207 160t-159.5 207t-103.5 244.5 t-37 272.5zM512 334q0 -6 6 -8h4q4 0 4 2l295 272q2 2 2 6q0 6 -4 6l-293 168q-6 2 -10 0q-4 0 -4 -6v-440zM512 893q0 -8 6 -8l510 -291l4 -2q4 0 6 2l494 291q4 2 6 2t6 2q8 0 8 8v104q0 16 -10 25.5t-24 9.5h-971q-14 0 -24.5 -9t-10.5 -26v-108zM526 203q0 -2 4 -6 q12 -4 17 -4h960q4 0 9 4q0 8 -3 10l-335 360q-2 6 -11 2l-112 -65q-20 -12 -43 0l-99 55q-6 4 -10 0l-375 -348q-2 -2 -2 -8zM1255 616q-2 -2 2 -6l279 -301q4 -4 6 -4h4q6 6 6 8v467q0 4 -6 8h-8l-278 -165q-4 0 -5 -7z" />
<glyph unicode="&#xf010;" d="M274 -223v1032q0 12 9.5 20.5t21.5 8.5h1438q12 0 21.5 -8.5t9.5 -20.5v-1032q0 -12 -9.5 -21.5t-21.5 -9.5h-1438q-12 0 -21.5 9t-9.5 22zM274 971v303q0 12 9.5 20.5t21.5 8.5h156v-72q0 -29 8 -56.5t27.5 -50t51.5 -37t77 -14.5t76.5 14.5t52 37t29 50t8.5 56.5v72 h469v-72q0 -29 8 -56.5t27.5 -50t51 -37t76.5 -14.5t77 14.5t52.5 37t28.5 50t8 56.5v72h154q12 0 21.5 -8.5t9.5 -20.5v-303q0 -12 -9.5 -20.5t-21.5 -8.5h-1438q-12 0 -21.5 8t-9.5 21zM557 1231v72v71q0 35 15.5 48.5t52.5 13.5q39 0 54 -13.5t15 -48.5v-71v-72 q0 -33 -15 -47.5t-54 -14.5q-37 0 -52.5 14.5t-15.5 47.5zM618 6q-4 -10 9 -14q33 -14 71.5 -20.5t75.5 -6.5q117 0 187.5 53.5t70.5 143.5q0 66 -37 98.5t-77 48.5q98 45 98 140q0 63 -55.5 101t-147.5 38q-102 0 -170 -31q-10 -8 -8 -16l14 -101q0 -8 6 -10q6 -6 15 -2 q57 31 112 31q51 0 59.5 -15.5t8.5 -25.5q0 -16 -18.5 -36t-92.5 -24q-14 0 -14 -14v-102q0 -14 14 -15q86 -4 110.5 -21.5t24.5 -51.5q0 -27 -24.5 -43.5t-63.5 -16.5q-37 0 -68.5 6t-66.5 19q-6 2 -12 0q-6 -4 -6 -10zM1135 475l14 -100q0 -4 2 -6t4 -7q6 -4 14 0l80 31 v-405q0 -14 15 -15h122q16 0 17 15v577q0 14 -17 15h-61q-4 0 -6 -2l-176 -86q-8 -6 -8 -17zM1356 1231v72v71q0 35 15 48.5t52 13.5q39 0 54.5 -13.5t15.5 -48.5v-71v-72q0 -33 -15.5 -47.5t-54.5 -14.5q-37 0 -52 14.5t-15 47.5z" />
<glyph unicode="&#xf011;" d="M0 614.5q0 141.5 37 272.5t103.5 244.5t159.5 207t207 160t245 103t272 36.5q211 0 398.5 -80.5t325.5 -219t219 -326t81 -398.5q0 -141 -37 -272t-103.5 -244.5t-159.5 -207t-207 -160t-245 -103.5t-272 -37t-272 37t-245 103.5t-207 160t-159.5 207t-103.5 244.5 t-37 272.5zM551 123q0 -18 18 -19h910q18 0 18 19v653q0 18 -18 19h-910q-18 0 -18 -19v-653zM551 879q0 -18 18 -19h910q18 0 18 19v190q0 18 -18 18h-97v-45q0 -35 -23.5 -66.5t-80.5 -31.5q-59 0 -81.5 32t-22.5 66v45h-297v-45q0 -35 -23 -66.5t-82 -31.5t-81.5 32 t-22.5 66v45h-99q-18 0 -18 -18v-190zM729 1042q0 -39 43 -38.5t43 38.5v45v48q0 39 -43 39t-43 -39v-48v-45zM768 268l8 64q0 4 4 8h8q45 -16 86 -16q25 0 40.5 11t15.5 27q0 20 -16.5 30.5t-69.5 15.5q-8 0 -8 10v63q0 6 8 11q47 4 58 15t11 21q0 8 -5 16.5t-38 8.5 q-31 0 -69 -16q-6 -2 -10 0q-4 0 -5 6l-8 63q-2 4 4 10q47 20 109 21q57 0 92 -24.5t35 -63.5q-1 -59 -62 -90q27 -10 49.5 -30.5t22.5 -61.5q0 -57 -44 -91t-118 -34q-49 0 -92 16q-8 4 -6 10zM1094 565q0 6 6 10l110 54q2 2 4 2h39q10 0 11 -10v-365q0 -8 -11 -8h-77 q-8 0 -9 8v256l-51 -18q-4 -2 -5 -1t-3 1q-4 4 -4 8zM1233 1042q0 -39 45 -38q43 0 43 38v45v48q0 39 -43 39q-45 0 -45 -39v-48v-45z" />
<glyph unicode="&#xf012;" d="M346 1075v86q0 6 6 13l328 321q6 6 12 6h82q16 0 17 -18v-408q0 -16 -17 -16h-412q-16 0 -16 16zM354 -240v1104q0 20 14.5 34.5t37.5 14.5h466q29 0 48.5 19.5t19.5 48.5v465q0 23 14.5 36t34.5 13h578q20 0 34.5 -13.5t14.5 -35.5v-1686q0 -20 -14.5 -34.5t-34.5 -14.5 h-1161q-23 0 -37.5 14.5t-14.5 34.5z" />
<glyph unicode="&#xf013;" d="M0 614.5q0 141.5 37 272.5t103.5 244.5t159.5 207t207 160t245 103t272 36.5q211 0 398.5 -80.5t325.5 -219t219 -326t81 -398.5q0 -141 -37 -272t-103.5 -244.5t-159.5 -207t-207 -160t-245 -103.5t-272 -37t-272 37t-245 103.5t-207 160t-159.5 207t-103.5 244.5 t-37 272.5zM614 877q0 -10 11 -11h237q10 0 10 11v235q0 10 -10 10h-47q-4 0 -5 -1t-3 -1l-189 -186q-4 -4 -4 -8v-49zM621 119q0 -29 28 -29h670q29 0 29 29v973q0 10 -8.5 19t-20.5 9h-334q-10 0 -19.5 -9t-9.5 -19v-269q0 -16 -10 -27.5t-26 -11.5h-271q-12 0 -20 -9 t-8 -19v-637z" />
<glyph unicode="&#xf014;" d="M145 39q6 49 30 89t50.5 69.5t50 48t29.5 22.5l627 551q-31 70 -31 135q0 98 43 195.5t123 175.5q78 78 172 119t191 39q10 0 16 -4t24 -23l27 -26q20 -23 0 -44l-63 -63l-68 -68l-35 -43l-12 -32v-41v-27q0 -29 19.5 -65.5t56.5 -73.5q35 -35 71.5 -54.5t65.5 -19.5h27 q27 0 42 1t32.5 11.5t41.5 34.5l68 68l63 63q20 20 43 0l27 -26q18 -18 22.5 -24.5t4.5 -16.5q2 -96 -39 -190.5t-119 -172.5q-78 -80 -175 -123t-196 -43q-66 0 -135 31l-551 -627q-4 -6 -22.5 -29.5t-48 -50t-69.5 -50t-89 -29.5q-115 -16 -221 86l-2 2h-3q0 2 -1 2t-1 2 q-100 109 -86 221zM348 23.5q0 -37.5 29 -66.5t66.5 -29t66.5 29t29 66.5t-29 66.5t-66.5 29t-66.5 -29t-29 -66.5z" />
<glyph unicode="&#xf015;" d="M0 614.5q0 141.5 37 272.5t103.5 244.5t159.5 207t207 160t245 103t272 36.5q211 0 398.5 -80.5t325.5 -219t219 -326t81 -398.5q0 -141 -37 -272t-103.5 -244.5t-159.5 -207t-207 -160t-245 -103.5t-272 -37t-272 37t-245 103.5t-207 160t-159.5 207t-103.5 244.5 t-37 272.5zM475 252q-8 -70 53 -139q2 0 2 -2q2 0 2 -2q70 -61 140 -54q31 4 55.5 18.5t42.5 31t29.5 32t15.5 19.5l344 391q47 -20 84 -21q61 0 122 28t110 77q47 47 72.5 107.5t25.5 119.5q0 6 -3 10t-16 15l-16 16q-12 14 -27 0q-10 -10 -19 -20.5t-19 -18.5 q-27 -29 -42.5 -43t-26.5 -21.5t-20 -7.5h-26h-19q-16 0 -38.5 11.5t-45 34t-35 46t-12.5 40.5v18v25l9 20l20 29l43 41q8 10 18.5 19t20.5 20q14 14 0 26l-16 17q-10 12 -14.5 15t-10.5 3q-59 0 -119.5 -25.5t-107.5 -72.5q-49 -49 -77 -109.5t-28 -122.5q0 -37 21 -84 l-392 -344q-4 -4 -19 -15t-31.5 -29.5t-31 -43t-18.5 -55.5zM602 242q0 25 16 41q18 18 43 18t41 -18q18 -16 18.5 -41t-18.5 -43q-16 -16 -40.5 -16.5t-43.5 16.5q-16 18 -16 43z" />
<glyph unicode="&#xf016;" d="M49 614.5q0 200.5 77 378.5t209 310.5t310 209t379 76.5t379 -76.5t310 -209t209 -310.5t77 -378.5t-77 -379t-209 -310.5t-310 -208.5t-379 -76.5t-379 76.5t-310 208.5t-209 310.5t-77 379zM280 538q11 -106 52 -208q57 -141 162.5 -248t244.5 -164q2 33 6 76l9 84 l8 76q2 33 4 45q2 23 -18 53l-13 18q-16 27 -33.5 59.5t-19.5 78.5q-2 41 1 59t3 29q-4 4 -7 6t-7 4q-14 14 -23 20q-14 14 -22 21q-37 18 -78 27.5t-76 25.5q-14 6 -38.5 18.5t-51.5 31t-53.5 43t-44.5 55.5q-16 -104 -5 -210zM555 1200q35 4 71 1t48 -32q12 -27 36.5 -50 t53.5 -42q8 -4 24 -6q4 -2 23 -16q2 0 4 -2t6 -4l19 -7q25 8 39 -10q12 -6 24 -14q10 -8 23.5 -20.5t23.5 -28.5q-12 -20 -28 -41l-17 -21q-4 -4 -10 -8t-14 -8q0 -2 1 -2t1 -2q8 -12 -6 -21q-16 -8 -37 -8l-21 -4l-14 -8q0 -2 -6 -4q-8 -2 -15 -11q-12 -12 -18 -45 q-2 -8 -8 -16q6 -53 3 -94t-26 -45q-10 -2 -24 4q-14 4 -35 15.5t-49 33.5q2 -10 5 -19.5t7 -17.5t6 -18q6 0 11.5 1t9.5 1q10 0 14 -8q4 -10 -2 -17l-6 -10v-4l12 -6q12 -8 16 -15q4 0 6.5 -1t6.5 -1q23 0 52.5 3t61 1t63.5 -14t60 -45q29 -31 60 -51l55 -37 q25 -14 40 -29.5t15 -36.5q0 -41 -5 -80.5t-11 -56.5q-4 -18 -35 -50t-72 -58q-14 -12 -26 -29q-10 -14 -19.5 -35.5t-9.5 -52.5q-16 -27 -26.5 -49.5t-18.5 -38.5q-8 -20 -16 -35q195 -37 378 24.5t314 204.5q98 104 148.5 234.5t54.5 269.5l-74 -45q-14 2 -25 2 q-23 0 -22 -14l31 -12q8 -4 10 -9q6 -18 -8 -43l-17 -24q-6 -8 -12 -14l-14 -15l-15 -14q0 -6 -1 -13.5t-1 -15.5q0 -16 -7 -35.5t-17 -40.5v-26q-4 -14 -9.5 -25.5t-9.5 -23.5q-4 -10 -9 -20.5t-7 -22.5q-6 -53 -47 -99q-55 -55 -92 -49q-18 4 -27.5 22.5t-13.5 34.5 q-2 2 -3 9l-8 16l-8 19l-20 51q-10 25 -7 53q0 4 1.5 10t1.5 12q4 23 5 44.5t-10 44.5l-6 12q-8 16 -11 30.5t7 38.5q0 2 -17.5 6.5t-60.5 4.5h-16h-6q-88 0 -111 106q-12 68 27 129q2 4 2 10q0 14 2 21q10 2 15 7t10 11l8 17q23 2 53.5 7t63 8t60.5 2t44 -9q14 -10 29 -18 q29 -18 49 -25l57 39q-18 33 -34.5 49t-26.5 25q-12 8 -23 10q-12 -2 -22 -6q-20 -6 -39 -29l-135 12q-10 -10 -25 -12l-25 -6q-14 -2 -26 -2q-4 20 -10 35q-12 25 -13.5 38t4.5 21t15.5 14.5t15.5 18.5t7 24.5t4 31t12.5 44t31.5 62.5q14 25 45 41t68 26t76 15.5t73 7.5 q-72 61 -147 102q-16 0 -31.5 3t-29.5 7q-29 6 -57.5 9.5t-55.5 -7.5q-10 -4 -21 -10l-18 -10q-14 -10 -29.5 -17.5t-31.5 -9.5q-10 -2 -19.5 -3t-19.5 -1q-72 0 -144.5 25.5t-126.5 54.5q-123 -41 -227 -125z" />
<glyph unicode="&#xf017;" d="M0 614.5q0 141.5 37 272.5t103.5 244.5t159.5 207t207 160t245 103t272 36.5q211 0 398.5 -80.5t325.5 -219t219 -326t81 -398.5q0 -141 -37 -272t-103.5 -244.5t-159.5 -207t-207 -160t-245 -103.5t-272 -37t-272 37t-245 103.5t-207 160t-159.5 207t-103.5 244.5 t-37 272.5zM258 731q20 -29 46 -51.5t51.5 -38.5t49 -28.5t37.5 -18.5q35 -16 78 -26.5t82 -28.5l10 -11l15 -12q4 -4 10 -9t12 -11q4 -4 7 -5.5t8 -5.5q0 -10 -4.5 -30.5t-2.5 -61.5q2 -47 20.5 -80.5t37.5 -62.5l12 -19q10 -16 16.5 -28.5t1.5 -26.5q-2 -12 -6 -45 l-10 -78q-4 -41 -10 -86t-8 -80q18 -8 31.5 -16t28.5 -15.5t36.5 -13.5t58.5 -8q8 14 17 37q8 16 19 42t28 56q0 31 9 53.5t19 36.5q12 16 29 29q41 29 73 61.5t38 51t11 60.5t5 83q0 20 -16.5 36.5t-40.5 33.5l-58 37q-31 23 -61.5 55.5t-63 45.5t-66.5 15t-63.5 -2 t-54.5 -4q-4 0 -6 1t-6 1q-8 12 -16 15q-6 2 -11 6l-2 2v2q0 4 6 10q6 8 2 18q-8 8 -16 9q-10 0 -20 -2q-2 10 -6.5 20t-7.5 23.5t-5 31.5q29 -25 50.5 -36t35.5 -15q16 -6 27 -4q23 6 25.5 38t-3.5 89q6 8 8 16q8 35 21.5 46.5t13.5 13.5q6 0 6 4q8 6 35 10q10 2 19.5 4 t19.5 6q16 8 8 23q-2 0 -2 1t-2 1q8 4 15.5 9t11.5 9q10 10 18.5 20.5t16.5 20.5l12 23q-10 16 -24.5 29.5t-24.5 21.5q-14 8 -27 14q-14 20 -39 13q-12 0 -20 6q-4 2 -8 6q-18 12 -25 14q-10 4 -27 9q-29 18 -54 42.5t-40 53.5q-10 23 -38.5 30t-61.5 3 q-115 -88 -191.5 -213t-99.5 -275zM778 1339q55 -29 126 -52t140 -23q10 0 20.5 1t20.5 3q16 2 32 10t32 18q10 6 20.5 11.5t20.5 9.5q27 10 55.5 7t59.5 -9q16 -4 26 -6q-72 33 -150.5 50t-164.5 17q-125 0 -238 -37zM1114 555q10 -53 42 -82t75 -29h4q4 0 8 1t10 1 q45 0 62.5 -5t19.5 -7q-10 -27 -8 -42t10 -32l6 -12q10 -23 9.5 -45t-4.5 -47q0 -14 -2 -23q-2 -29 8 -55l20 -53q4 -10 8 -18.5t9 -18.5q0 -2 1 -3t1 -5q6 -16 15 -35.5t28 -24.5q41 -6 96 52q41 47 49 102q2 20 16 45q12 25 19 51q4 12 0 27q27 47 26 80q0 20 3 31l6 6 l8 8q16 12 29 29q4 12 6 22t3 20.5t-3 20.5q-2 4 -11 8l-34 13q8 18 20 26t23 12q12 4 26 0l66 21v14q0 180 -74 332t-201 258q-35 -4 -73.5 -9t-75.5 -16.5t-66.5 -27t-44.5 -39.5q-25 -39 -34 -65.5t-12 -46t-3 -32t-6 -24.5t-15.5 -19.5t-15.5 -15.5t-6 -22.5t12 -38.5 q10 -18 11 -37q14 0 28 2q12 2 25.5 5t23.5 13l144 -12q16 20 39 29q10 4 22 6q10 -2 25 -10q12 -8 27.5 -24.5t35.5 -51.5l-59 -41q-20 6 -49 24q-14 8 -31 21q-16 8 -46 9t-61.5 -2t-64.5 -8t-55 -7q-2 -8 -8 -17q-4 -6 -11.5 -12t-17.5 -8q-2 -6 -2 -21q0 -6 -2 -12 q-41 -59 -29 -133z" />
<glyph unicode="&#xf018;" d="M154 -281v1164q0 31 24 49l803 643q16 14 38.5 14t41.5 -14l829 -643q25 -16 25 -49v-1164q0 -27 -18.5 -45t-45.5 -18h-477q-27 0 -45 18.5t-18 44.5v713h-551v-713q0 -27 -18.5 -45t-45.5 -18h-479q-27 0 -45 18.5t-18 44.5z" />
<glyph unicode="&#xf019;" d="M0 614.5q0 141.5 37 272.5t103.5 244.5t159.5 207t207 160t245 103t272 36.5q211 0 398.5 -80.5t325.5 -219t219 -326t81 -398.5q0 -141 -37 -272t-103.5 -244.5t-159.5 -207t-207 -160t-245 -103.5t-272 -37t-272 37t-245 103.5t-207 160t-159.5 207t-103.5 244.5 t-37 272.5zM537 209q0 -16 10 -26.5t24 -10.5h271q16 0 26.5 10.5t10.5 26.5v403h311v-403q0 -16 10 -26.5t27 -10.5h270q16 0 26.5 10.5t10.5 26.5v657q0 18 -14 29l-471 365q-20 16 -45 0l-455 -365q-12 -10 -12 -29v-657z" />
<glyph unicode="&#xf01a;" d="M66 -223v684q0 406 198.5 618.5t597.5 233.5q20 2 36.5 -10.5t21.5 -32.5l55 -252q6 -23 -8 -43q-16 -23 -39 -25q-350 -49 -355 -327h211q23 0 39.5 -16.5t16.5 -39.5v-790q0 -25 -16.5 -41.5t-39.5 -16.5h-661q-23 0 -40 16.5t-17 41.5zM1087 -223v684q0 406 199 618.5 t598 233.5q20 2 36.5 -10.5t21.5 -32.5l55 -252q6 -23 -8.5 -43.5t-38.5 -24.5q-350 -49 -355 -327h211q23 0 39.5 -16.5t16.5 -39.5v-790q0 -25 -16.5 -41.5t-39.5 -16.5h-661q-23 0 -40.5 16.5t-17.5 41.5z" />
<glyph unicode="&#xf01b;" d="M0 614.5q0 141.5 37 272.5t103.5 244.5t159.5 207t207 160t245 103t272 36.5q211 0 398.5 -80.5t325.5 -219t219 -326t81 -398.5q0 -141 -37 -272t-103.5 -244.5t-159.5 -207t-207 -160t-245 -103.5t-272 -37t-272 37t-245 103.5t-207 160t-159.5 207t-103.5 244.5 t-37 272.5zM459 215q0 -33 33 -33h393q33 0 33 33v471q0 33 -33 33h-125q0 164 211 194q12 1 22 15q8 10 4 24l-32 150q-4 12 -13.5 20t-21.5 6q-471 -25 -471 -505v-408zM1065 215q0 -14 10 -23.5t25 -9.5h391q14 0 24.5 9.5t10.5 23.5v471q0 14 -10.5 23.5t-24.5 9.5h-125 q4 164 211 194q14 1 22 15q10 10 7 24l-33 150q-4 12 -13.5 20t-21.5 6q-473 -25 -473 -505v-408z" />
<glyph unicode="&#xf01c;" d="M94 160v250q0 45 33 57l317 147q-57 35 -92 99.5t-35 144.5q0 55 18.5 105.5t50.5 87t74 58t91 21.5q33 0 61.5 -10t55.5 -26q-35 -86 -35 -179q0 -72 20.5 -138t57.5 -120q-23 -25 -47 -39l-211 -100q-45 -20 -71 -62t-26 -94v-264h-211q-23 0 -37 17.5t-14 44.5z M453 51v47v264q0 49 41 70l282 131l111 51q-78 47 -119 136q-39 78 -39 165q0 27 4 51.5t10 47.5q29 104 104 171.5t173 67.5q100 0 176 -69.5t102 -175.5q10 -51 11 -93q0 -82 -33 -157q-41 -92 -119 -140l117 -55l272 -131q41 -20 41 -70v-264v-47q0 -31 -18.5 -53.5 t-46.5 -22.5h-1006q-27 0 -45 22.5t-18 53.5zM1331 662q35 53 54.5 117.5t19.5 135.5q0 47 -8 90.5t-25 84.5q27 18 57.5 29t63.5 11q49 0 92 -21.5t75 -58t50.5 -87t18.5 -105.5q0 -78 -35 -142.5t-88 -99.5l313 -149q33 -16 33 -57v-250q0 -27 -14.5 -44.5t-36.5 -17.5 h-218v264q0 51 -25.5 93.5t-68.5 62.5l-203 96q-29 16 -55 48z" />
<glyph unicode="&#xf01d;" d="M0 614.5q0 141.5 37 272.5t103.5 244.5t159.5 207t207 160t245 103t272 36.5q211 0 398.5 -80.5t325.5 -219t219 -326t81 -398.5q0 -141 -37 -272t-103.5 -244.5t-159.5 -207t-207 -160t-245 -103.5t-272 -37t-272 37t-245 103.5t-207 160t-159.5 207t-103.5 244.5 t-37 272.5zM362 291q0 -18 10.5 -31.5t26.5 -13.5h150v188q0 37 18.5 66.5t48.5 46.5l152 69q20 12 33 29q-27 39 -41.5 86t-14.5 98q0 35 7.5 67t17.5 60q-37 27 -82 27q-70 0 -118 -57.5t-48 -137.5q0 -57 24.5 -103t65.5 -71l-227 -104q-23 -10 -23 -41v-178zM616 213 q0 -23 13.5 -38t34.5 -15h716q18 0 31.5 15t13.5 38v33v188q0 37 -28 49l-195 95l-82 38q27 16 48.5 42t35.5 59q10 25 17.5 53.5t7.5 58.5q0 16 -2 32t-6 32q-18 78 -72.5 127t-126.5 49t-125 -48t-72 -122q-10 -37 -10 -70q0 -61 27 -118q31 -61 84 -97l-78 -36l-201 -93 q-31 -14 -31 -51v-188v-33zM1243 647q10 -10 19.5 -18t19.5 -15l145 -67q31 -16 49.5 -46t18.5 -67v-188h154q16 0 26.5 13t10.5 32v178q0 29 -23 41l-223 106q39 25 62.5 70t23.5 102q0 80 -48 137.5t-118 57.5q-25 0 -46.5 -8t-39.5 -21q23 -61 22 -125q0 -100 -53 -182z " />
<glyph unicode="&#xf01e;" d="M121 279v976q0 47 31.5 80t78.5 33h1602q47 0 79 -32.5t32 -80.5v-976q0 -47 -32 -79t-79 -32h-563v-170h131q12 0 21.5 -9t9.5 -24v-71q0 -14 -9.5 -22.5t-21.5 -8.5h-754q-12 0 -21.5 8t-9.5 23v71q0 14 9.5 23.5t21.5 9.5h131v170h-547q-47 0 -78.5 31.5t-31.5 79.5z M344 391h1376v752h-1376v-752z" />
<glyph unicode="&#xf01f;" d="M0 614.5q0 141.5 37 272.5t103.5 244.5t159.5 207t207 160t245 103t272 36.5q211 0 398.5 -80.5t325.5 -219t219 -326t81 -398.5q0 -141 -37 -272t-103.5 -244.5t-159.5 -207t-207 -160t-245 -103.5t-272 -37t-272 37t-245 103.5t-207 160t-159.5 207t-103.5 244.5 t-37 272.5zM446 367q0 -29 21.5 -50.5t50.5 -21.5h350v-109h-82q-20 0 -20 -20v-45q0 -20 20 -21h482q20 0 20 21v45q0 20 -20 20h-82v109h360q29 0 50.5 21.5t21.5 50.5v626q0 31 -21.5 51.5t-50.5 20.5h-1028q-29 0 -50.5 -20.5t-21.5 -51.5v-626zM590 438v484h885v-484 h-885z" />
<glyph unicode="&#xf020;" d="M27 29v116q0 20 14 34t35 14h1896q20 0 33.5 -13.5t13.5 -34.5v-116q0 -20 -12 -33l-74 -74q-12 -14 -35 -14h-1755q-23 0 -34 14l-70 74q-12 14 -12 33zM233 379v850q0 41 28 68.5t69 27.5h1388q41 0 69 -27.5t28 -68.5v-850q0 -41 -28 -68.5t-69 -27.5h-1388 q-41 0 -69 27.5t-28 68.5zM426 475h1196v658h-1196v-658zM842 -6q0 -10 2 -17.5t6 -7.5h346q4 0 6 7.5t2 17.5v112q0 10 -2 17.5t-6 7.5h-346q-4 0 -6 -7t-2 -18v-112z" />
<glyph unicode="&#xf021;" d="M0 614.5q0 141.5 37 272.5t103.5 244.5t159.5 207t207 160t245 103t272 36.5q211 0 398.5 -80.5t325.5 -219t219 -326t81 -398.5q0 -141 -37 -272t-103.5 -244.5t-159.5 -207t-207 -160t-245 -103.5t-272 -37t-272 37t-245 103.5t-207 160t-159.5 207t-103.5 244.5 t-37 272.5zM397 248q0 -14 9 -21l43 -47q10 -10 22 -10h1102q12 0 22 10l45 45q10 10 11 23v71q0 12 -9.5 21.5t-21.5 9.5h-1192q-12 0 -21.5 -9t-9.5 -22v-71zM526 467q0 -25 18.5 -43t43.5 -18h872q25 0 42.5 18t17.5 43v534q0 25 -17.5 42.5t-42.5 17.5h-872 q-25 0 -43.5 -17.5t-18.5 -42.5v-534zM647 526v414h752v-414h-752zM909 225v70q0 16 6 16h218q4 0 4 -16v-70q0 -16 -4 -16h-218q-6 0 -6 16z" />
<glyph unicode="&#xf022;" d="M65.5 1167q2.5 37 2.5 41q4 29 18 58.5t35 48.5l272 272q29 29 66 29q27 0 47 -15.5t35 -37.5l219 -416q18 -33 10 -72t-35 -65l-100 -101q-4 -4 -7 -13t-3 -15q8 -43 37 -99q25 -49 75.5 -119.5t145.5 -162.5q92 -94 163.5 -146.5t119.5 -77t75 -30.5l25 -4q4 0 13 3 t13 7l117 119q37 33 86 32q35 0 55 -12h2l396 -233q43 -27 51 -68q6 -47 -29 -82l-272 -270q-18 -20 -48 -34.5t-59 -18.5q-2 0 -12 -1t-27 -1q-39 0 -126 13t-213 65.5t-285.5 157t-339.5 286.5q-143 141 -237.5 270t-152 238.5t-86 198.5t-39 153.5t-8 101.5z" />
<glyph unicode="&#xf023;" d="M0 614.5q0 141.5 37 272.5t103.5 244.5t159.5 207t207 160t245 103t272 36.5q211 0 398.5 -80.5t325.5 -219t219 -326t81 -398.5q0 -141 -37 -272t-103.5 -244.5t-159.5 -207t-207 -160t-245 -103.5t-272 -37t-272 37t-245 103.5t-207 160t-159.5 207t-103.5 244.5 t-37 272.5zM446 936l27 -127l92 -191l197 -239q111 -111 207 -174.5t173 -95t130 -40t76 -8.5q10 0 16 1t8 1q16 2 34.5 11.5t31.5 21.5l164 164q23 23 16 49q-2 12 -10.5 22.5t-18.5 18.5l-241 142l-2 2q-12 6 -33 6q-33 0 -51 -21l-72 -71q-6 -6 -16 -7q-25 4 -60 23 q-29 16 -73 46t-101 87q-41 43 -76 86q-29 35 -53.5 76t-26.5 72q0 10 7 16l61 61q16 16 20.5 40t-6.5 44l-133 250q-16 33 -49 33q-20 0 -41 -16l-164 -166q-12 -10 -21 -29.5t-12 -36.5v-51z" />
<glyph unicode="&#xf024;" d="M37 475q0 104 36 196.5t99.5 160t146 107.5t179.5 40q49 0 96 -12q86 123 212 190.5t267 67.5q100 0 193.5 -35t170 -97.5t132 -149.5t84.5 -191q72 8 137 -15.5t114.5 -72t78 -116t28.5 -145.5q0 -115 -63 -208q-18 -29 -52 -29h-1728q-37 0 -53 31q-78 127 -78 278z " />
<glyph unicode="&#xf025;" d="M0 614.5q0 141.5 37 272.5t103.5 244.5t159.5 207t207 160t245 103t272 36.5q211 0 398.5 -80.5t325.5 -219t219 -326t81 -398.5q0 -141 -37 -272t-103.5 -244.5t-159.5 -207t-207 -160t-245 -103.5t-272 -37t-272 37t-245 103.5t-207 160t-159.5 207t-103.5 244.5 t-37 272.5zM356 547q0 -106 52 -189q12 -20 36 -20h1170q23 0 35 18q43 61 43 142q0 51 -19.5 97t-53.5 79t-77 49t-92 10q-18 70 -56 129.5t-90.5 101.5t-115 65.5t-131.5 23.5q-96 0 -180 -45t-144 -129q-31 8 -65 8q-66 0 -122.5 -26.5t-98 -73t-66.5 -109t-25 -131.5z " />
<glyph unicode="&#xf026;" d="M66 614q0 199 75.5 375t206.5 308.5t307 208t377 75.5q199 0 375 -75.5t308 -208t208 -308.5t76 -375q0 -201 -76 -376t-208 -307t-308 -207.5t-375 -75.5q-201 0 -377 75.5t-307 207.5t-206.5 307.5t-75.5 375.5zM322 614.5q0 -147.5 56 -276.5t152.5 -225.5 t225.5 -152.5t276.5 -56t276.5 56t225 152.5t152.5 225.5t56.5 276.5t-56.5 276.5t-152.5 225t-225 152.5t-276.5 56.5t-276.5 -56.5t-225.5 -152.5t-152.5 -225t-56 -276.5zM526 471v287q0 20 14.5 34.5t34.5 14.5h914q20 0 33.5 -14.5t13.5 -34.5v-287q0 -20 -13.5 -34.5 t-33.5 -14.5h-914q-20 0 -34.5 14.5t-14.5 34.5z" />
<glyph unicode="&#xf027;" d="M0 614.5q0 141.5 37 272.5t103.5 244.5t159.5 207t207 160t245 103t272 36.5q211 0 398.5 -80.5t325.5 -219t219 -326t81 -398.5q0 -141 -37 -272t-103.5 -244.5t-159.5 -207t-207 -160t-245 -103.5t-272 -37t-272 37t-245 103.5t-207 160t-159.5 207t-103.5 244.5 t-37 272.5zM360 422q0 -27 18.5 -45.5t45.5 -18.5h1216q27 0 45.5 18.5t18.5 45.5v385q0 27 -18.5 45t-45.5 18h-1216q-27 0 -45.5 -18t-18.5 -45v-385z" />
<glyph unicode="&#xf028;" d="M49 342v573q0 29 18.5 47.5t47.5 18.5h831v309q0 39 35 57.5t66 -6.5l927 -657q27 -20 27 -51v-2q0 -31 -27 -51l-927 -664q-31 -20 -66 -4t-35 57v310h-831q-29 0 -47.5 18t-18.5 45z" />
<glyph unicode="&#xf029;" d="M0 614.5q0 141.5 37 272.5t103.5 244.5t159.5 207t207 160t245 103t272 36.5q211 0 398.5 -80.5t325.5 -219t219 -326t81 -398.5q0 -141 -37 -272t-103.5 -244.5t-159.5 -207t-207 -160t-245 -103.5t-272 -37t-272 37t-245 103.5t-207 160t-159.5 207t-103.5 244.5 t-37 272.5zM473 457q0 -16 10.5 -26.5t26.5 -10.5h500v-187q0 -25 20 -34q20 -8 41 4l555 397q16 10 16 30.5t-16 31.5l-555 395q-20 12 -41 4q-20 -14 -20 -35v-186h-500q-16 0 -26.5 -11.5t-10.5 -27.5v-344z" />
<glyph unicode="&#xf02a;" d="M49 627q0 33 27 53l925 661q33 23 68 7q35 -20 35 -58v-309h831q27 0 45.5 -18.5t18.5 -47.5v-573q0 -27 -18.5 -45t-45.5 -18h-831v-310q0 -41 -35 -57t-68 4l-925 659q-27 20 -27 52z" />
<glyph unicode="&#xf02b;" d="M0 614.5q0 141.5 37 272.5t103.5 244.5t159.5 207t207 160t245 103t272 36.5q211 0 398.5 -80.5t325.5 -219t219 -326t81 -398.5q0 -141 -37 -272t-103.5 -244.5t-159.5 -207t-207 -160t-245 -103.5t-272 -37t-272 37t-245 103.5t-207 160t-159.5 207t-103.5 244.5 t-37 272.5zM403.5 628.5q-0.5 -22.5 14.5 -30.5l557 -395q20 -14 39 -4q20 10 20 34v187h500q16 0 27.5 10t11.5 27v344q0 39 -39 39h-500v186q0 20 -20 35q-20 10 -39 -4l-557 -398q-14 -8 -14.5 -30.5z" />
<glyph unicode="&#xf02c;" d="M307 586q-20 35 4 65l660 926q16 29 51 29t51 -27l664 -928q25 -31 4 -65q-16 -35 -55 -35h-312v-832q0 -29 -18.5 -47t-44.5 -18h-574q-27 0 -45 18.5t-18 46.5v832h-312q-39 0 -55 35z" />
<glyph unicode="&#xf02d;" d="M0 614.5q0 141.5 37 272.5t103.5 244.5t159.5 207t207 160t245 103t272 36.5q211 0 398.5 -80.5t325.5 -219t219 -326t81 -398.5q0 -141 -37 -272t-103.5 -244.5t-159.5 -207t-207 -160t-245 -103.5t-272 -37t-272 37t-245 103.5t-207 160t-159.5 207t-103.5 244.5 t-37 272.5zM594 641q10 -23 35 -23h184v-497q0 -16 11.5 -27.5t27.5 -11.5h344q16 0 27.5 11t11.5 28v497h186q23 0 33 23q10 21 -2 39l-397 555q-12 16 -33 16q-18 0 -31 -16l-395 -555q-12 -18 -2 -39z" />
<glyph unicode="&#xf02e;" d="M315 674q16 35 56 35h311v831q0 29 18.5 47.5t44.5 18.5h574q27 0 45 -18.5t18 -47.5v-831h312q39 0 55 -35q20 -35 -4 -66l-660 -927q-16 -27 -51 -27t-51 27l-664 927q-25 31 -4 66z" />
<glyph unicode="&#xf02f;" d="M0 614.5q0 141.5 37 272.5t103.5 244.5t159.5 207t207 160t245 103t272 36.5q211 0 398.5 -80.5t325.5 -219t219 -326t81 -398.5q0 -141 -37 -272t-103.5 -244.5t-159.5 -207t-207 -160t-245 -103.5t-272 -37t-272 37t-245 103.5t-207 160t-159.5 207t-103.5 244.5 t-37 272.5zM602 618q-10 -22 2 -38l397 -557q12 -16 33 -17q18 0 31 17l395 557q12 16 2 38q-10 20 -35 21h-184v500q0 16 -11 27.5t-28 11.5h-344q-16 0 -27.5 -11.5t-11.5 -27.5v-500h-186q-23 0 -33 -21z" />
<glyph unicode="&#xf030;" d="M242 1196v172q0 25 17 42t42 17h490v76q0 25 17 42.5t40 17.5h352q23 0 40 -17.5t17 -42.5v-76h490q25 0 42 -17t17 -42v-172q0 -25 -17 -42t-42 -17h-1446q-25 0 -42 17t-17 42zM322 -274v1243q0 25 17 42t42 17h1286q25 0 42 -17.5t17 -41.5v-1243q0 -25 -17 -42.5 t-42 -17.5h-1286q-25 0 -42 17.5t-17 42.5z" />
<glyph unicode="&#xf031;" d="M0 614.5q0 141.5 37 272.5t103.5 244.5t159.5 207t207 160t245 103t272 36.5q211 0 398.5 -80.5t325.5 -219t219 -326t81 -398.5q0 -141 -37 -272t-103.5 -244.5t-159.5 -207t-207 -160t-245 -103.5t-272 -37t-272 37t-245 103.5t-207 160t-159.5 207t-103.5 244.5 t-37 272.5zM516 1010q0 -16 11.5 -27.5t27.5 -11.5h938q39 0 39 39v110q0 39 -39 39h-315v49q0 16 -11.5 27.5t-27.5 11.5h-228q-16 0 -27.5 -11t-11.5 -28v-49h-317q-16 0 -27.5 -11t-11.5 -28v-110zM567 55q0 -16 11.5 -27.5t27.5 -11.5h836q39 0 39 39v807 q0 16 -11.5 26.5t-27.5 10.5h-836q-16 0 -27.5 -10t-11.5 -27v-807z" />
<glyph unicode="&#xf032;" d="M215 -233v1308v101v6h2q0 4 4 8l385 379v6h12q2 2 5 2h98l4 -2h754q23 0 37 -14.5t14 -36.5v-570h-166v455h-625v-334q0 -20 -18 -20h-340v-1174h737v-168h-852q-23 0 -37 15.5t-14 38.5zM924 121v248q0 27 26 26h355v355q0 27 26 26h248q27 0 27 -26v-355h352 q27 0 27 -26v-248q0 -27 -27 -27h-352v-354q0 -27 -27 -27h-248q-27 0 -26 27v354h-355q-27 0 -26 27z" />
<glyph unicode="&#xf033;" d="M0 614.5q0 141.5 37 272.5t103.5 244.5t159.5 207t207 160t245 103t272 36.5q211 0 398.5 -80.5t325.5 -219t219 -326t81 -398.5q0 -141 -37 -272t-103.5 -244.5t-159.5 -207t-207 -160t-245 -103.5t-272 -37t-272 37t-245 103.5t-207 160t-159.5 207t-103.5 244.5 t-37 272.5zM537 84q0 -12 9 -22.5t23 -10.5h543v107h-469v749h215q12 0 12 13v213h398v-289h106v362q0 12 -9.5 22.5t-23.5 10.5h-481h-2h-61h-4h-9v-6l-243 -240q-4 -4 -4 -6v-4v-63v-836zM987 311q0 -16 17 -16h227v-225q0 -18 16 -19h158q16 0 16 19v225h226q18 0 18 16 v158q0 16 -18 16h-226v226q0 18 -16 18h-158q-16 0 -16 -18v-226h-227q-16 0 -17 -16v-158z" />
<glyph unicode="&#xf034;" d="M289 -233v1308v101v6h2q0 4 4 8l385 379v6h12q2 2 4 2h99l4 -2h753q23 0 38.5 -14.5t15.5 -36.5v-396l24 25q10 10 24.5 10t24.5 -10l254 -256q10 -10 10.5 -24.5t-10.5 -24.5l-684 -684q-2 -2 -12 -8l-379 -123q-2 0 -4 -1t-6 -1q-14 0 -25 10q-16 14 -8 37l121 375 q2 8 12 18l490 490v448h-625v-334q0 -20 -18 -20h-338v-1174h245h490h246v262l69 70q27 25 43 39l25 24q16 16 23.5 8t7.5 -22v-491q0 -25 -15.5 -41.5t-38.5 -16.5h-360h-490h-362q-23 0 -37 15.5t-14 38.5zM956 174l209 70l-141 141z" />
<glyph unicode="&#xf035;" d="M0 614.5q0 141.5 37 272.5t103.5 244.5t159.5 207t207 160t245 103t272 36.5q211 0 398.5 -80.5t325.5 -219t219 -326t81 -398.5q0 -141 -37 -272t-103.5 -244.5t-159.5 -207t-207 -160t-245 -103.5t-272 -37t-272 37t-245 103.5t-207 160t-159.5 207t-103.5 244.5 t-37 272.5zM580 74q0 -33 32 -33h234h319h236q33 0 33 35v319q0 10 -4.5 15.5t-14.5 -4.5l-16 -17q-10 -10 -27.5 -25.5t-46.5 -44.5v-169h-160h-319h-160v761h221q12 0 13 13v217h405v-291l-319 -320q-2 -2 -7 -10l-79 -244q-4 -12 6 -22q6 -8 16 -8q2 0 3 1t3 1l246 80 q4 0 10 6l443 442q8 8 8 16.5t-8 16.5l-164 166q-18 14 -33 0l-16 -17v259q0 33 -33 32h-492l-2 2h-63q-2 0 -2 -2h-8v-4l-252 -246q0 -2 -2 -4v-4v-67v-850zM1012 340l45 135l92 -92z" />
<glyph unicode="&#xf036;" d="M176 -242v942q0 27 18.5 45.5t45.5 18.5h90h104v209q0 119 46 225.5t124 184t183.5 123.5t224 46t225 -46t184.5 -123.5t124 -184t46 -225.5v-2v-207h127h90q27 0 45.5 -18.5t18.5 -45.5v-942q0 -27 -18.5 -45t-45.5 -18h-1568q-27 0 -45.5 18.5t-18.5 44.5zM774 764h477 v209v2q0 49 -19.5 92t-52 75t-75.5 50t-92 18t-92 -18t-76 -51t-51.5 -76t-18.5 -92v-209z" />
<glyph unicode="&#xf037;" d="M0 614.5q0 141.5 37 272.5t103.5 244.5t159.5 207t207 160t245 103t272 36.5q211 0 398.5 -80.5t325.5 -219t219 -326t81 -398.5q0 -141 -37 -272t-103.5 -244.5t-159.5 -207t-207 -160t-245 -103.5t-272 -37t-272 37t-245 103.5t-207 160t-159.5 207t-103.5 244.5 t-37 272.5zM537 201q0 -16 10 -27.5t26 -11.5h920q16 0 27.5 11t11.5 28v553q0 16 -11.5 26.5t-27.5 10.5h-53h-74v120v2q0 70 -26.5 131.5t-72.5 107.5t-108.5 72.5t-132.5 26.5t-131 -26.5t-107.5 -72.5t-73 -107.5t-26.5 -131.5v-122h-61h-54q-16 0 -26 -10.5t-10 -26.5 v-553zM887 791v122q0 57 41 98.5t98 41.5q59 0 99 -41t42 -99v-122h-280z" />
<glyph unicode="&#xf038;" d="M176 -276v942q0 27 18.5 45t45.5 18h90h139v268q0 119 46 225.5t124 184.5t183.5 124t226.5 46q119 0 222 -45t182 -122t125 -180.5t48 -221.5q2 -2 2 -11q0 -20 -13 -34.5t-34 -14.5h-2h-246q-20 0 -33.5 14.5t-13.5 34.5q0 49 -18.5 92.5t-51 76t-75.5 51t-92.5 18.5 t-92.5 -18.5t-75.5 -51t-51 -75.5t-18.5 -93v-268h586h321h90q27 0 45.5 -18.5t18.5 -44.5v-942q0 -29 -18.5 -46.5t-45.5 -17.5h-1568q-27 0 -45.5 17.5t-18.5 46.5z" />
<glyph unicode="&#xf039;" d="M0 614.5q0 141.5 37 272.5t103.5 244.5t159.5 207t207 160t245 103t272 36.5q211 0 398.5 -80.5t325.5 -219t219 -326t81 -398.5q0 -141 -37 -272t-103.5 -244.5t-159.5 -207t-207 -160t-245 -103.5t-272 -37t-272 37t-245 103.5t-207 160t-159.5 207t-103.5 244.5 t-37 272.5zM524 188q0 -16 11.5 -27t27.5 -11h920q16 0 26.5 11t10.5 27v553q0 16 -10.5 26.5t-26.5 10.5h-53h-189h-344v158q0 57 40 98t99.5 41t99.5 -41t40 -98q0 -29 28 -29h144h2q27 0 26 29v6q-2 70 -28.5 130.5t-72.5 105.5t-107.5 71.5t-131 26.5t-132 -26.5 t-108.5 -73t-73 -108.5t-27 -132v-158h-80h-53q-16 0 -27.5 -10t-11.5 -27v-553z" />
<glyph unicode="&#xf03a;" d="M63 614.5q0 198.5 76 373.5t206 305t305 206t374 76t372 -76t304 -207l12 11l162 114q18 14 43 4q23 -14 22 -37l3 -727q0 -20 -17 -32q-18 -12 -39 -7l-688 236q-25 8 -29 32.5t17 39.5l162 114l26 21q-72 57 -161 89t-189 32q-117 0 -220.5 -45t-180 -122 t-121.5 -180.5t-45 -220t45 -220t121.5 -180.5t180 -122t220.5 -45q143 0 268 65.5t203 184.5q12 18 33.5 22.5t38.5 -8.5l241 -168q14 -8 19 -30q6 -16 -6 -35q-68 -100 -156 -179t-190.5 -133.5t-217 -83t-233.5 -28.5q-199 0 -374 75.5t-305 206t-206 305.5t-76 373.5z " />
<glyph unicode="&#xf03b;" d="M0 614.5q0 141.5 37 272.5t103.5 244.5t159.5 207t207 160t245 103t272 36.5q211 0 398.5 -80.5t325.5 -219t219 -326t81 -398.5q0 -141 -37 -272t-103.5 -244.5t-159.5 -207t-207 -160t-245 -103.5t-272 -37t-272 37t-245 103.5t-207 160t-159.5 207t-103.5 244.5 t-37 272.5zM422 614.5q0 -122.5 47 -232.5t128 -190.5t190.5 -128t232.5 -47.5q150 0 280 71t216 194q6 10 4 22q-4 12 -13 19l-149 104q-10 8 -23.5 5t-21.5 -13q-49 -74 -127 -115t-166 -41q-74 0 -138.5 27.5t-112.5 76t-75.5 112t-27.5 137t27.5 138t75.5 112.5 t112.5 76t138.5 28q61 0 116.5 -20.5t100.5 -55.5l-16 -12l-101 -72q-12 -10 -10 -24.5t16 -20.5l430 -146q10 -6 23 3q10 10 10 20v453q0 14 -14 22q-10 8 -27 0l-100 -74l-8 -4q-82 80 -189.5 127t-230.5 47t-232.5 -47t-190.5 -128t-128 -190.5t-47 -232z" />
<glyph unicode="&#xf03c;" d="M133 502q0 39 29 67l829 830q195 193 394.5 203t375.5 -164q68 -68 104 -133.5t50 -126t10 -114.5t-16 -97q-43 -152 -189 -297l-899 -899q-125 -125 -256 -144q-10 0 -21.5 -1t-21.5 -1q-53 0 -118.5 23.5t-133.5 91.5q-45 45 -70.5 88t-39 83t-16.5 74.5t1 63.5 q14 131 134 252l757 758q80 80 145.5 109.5t118 28.5t91.5 -22.5t63 -46.5q31 -31 51.5 -70.5t19.5 -92t-33 -115t-108 -137.5l-698 -699l-135 138l696 696q41 41 58.5 66.5t22.5 42t0 24.5t-9 12q-4 2 -12.5 7.5t-24.5 1t-43 -21.5t-65 -56l-758 -758q-25 -25 -50.5 -61.5 t-29.5 -77.5q-8 -70 70 -152q51 -49 85.5 -54t47.5 -3q70 10 147 90l899 899q111 109 139 211q39 145 -100 285q-37 37 -85 68.5t-109.5 37.5t-136 -24.5t-165.5 -120.5l-829 -830q-29 -29 -69 -28.5t-68.5 29t-28.5 67.5z" />
<glyph unicode="&#xf03d;" d="M0 614.5q0 141.5 37 272.5t103.5 244.5t159.5 207t207 160t245 103t272 36.5q211 0 398.5 -80.5t325.5 -219t219 -326t81 -398.5q0 -141 -37 -272t-103.5 -244.5t-159.5 -207t-207 -160t-245 -103.5t-272 -37t-272 37t-245 103.5t-207 160t-159.5 207t-103.5 244.5 t-37 272.5zM461 544q0 -26 16 -42q18 -18 44 -18.5t42 18.5l522 522q57 57 104.5 76.5t86.5 15.5t69.5 -24.5t53.5 -42.5q88 -88 61 -181q-14 -59 -86 -133l-51 -51l-102 -102l-127 -127l-131 -127l-103 -105l-53 -53q-51 -51 -92 -57q-8 0 -29.5 3t-54.5 34q-49 49 -43 96 q2 27 17.5 48t31.5 38l477 477q25 25 42.5 36t27.5 14t15 0t7 -5q2 -4 5 -9t0 -15.5t-14 -27t-36 -40.5l-438 -438l84 -86l440 438q47 47 67.5 87t21.5 72.5t-12 58.5t-32 44q-16 14 -39.5 28.5t-57.5 15.5t-76 -18.5t-91 -68.5l-477 -477q-74 -74 -84 -160q-4 -35 9 -86 t71 -109q41 -43 82 -57t76 -14q18 0 26 2q84 12 162 90l53 53l103 105l129 127l127 127l102 102l53 51q92 96 117 189q8 27 10 60.5t-6 71.5t-30.5 79t-65.5 84q-111 111 -237 104.5t-249 -127.5l-522 -524q-16 -16 -16 -42z" />
<glyph unicode="&#xf03e;" d="M47 -4v1237q0 51 36 86t85 35h1712q49 0 85 -35t36 -86v-1237q0 -51 -36 -86t-85 -35h-1712q-49 0 -85 35t-36 86zM287 115h1474v999h-1474v-999zM805 274v334v332l287 -166l288 -166l-288 -168z" />
<glyph unicode="&#xf03f;" d="M0 614.5q0 141.5 37 272.5t103.5 244.5t159.5 207t207 160t245 103t272 36.5q211 0 398.5 -80.5t325.5 -219t219 -326t81 -398.5q0 -141 -37 -272t-103.5 -244.5t-159.5 -207t-207 -160t-245 -103.5t-272 -37t-272 37t-245 103.5t-207 160t-159.5 207t-103.5 244.5 t-37 272.5zM410 223q0 -31 22.5 -52t52.5 -21h1069q33 0 54.5 21.5t21.5 51.5v774q0 31 -21.5 53.5t-54.5 22.5h-1069q-31 0 -53 -22.5t-22 -53.5v-774zM559 299v623h922v-623h-922zM883 397l180 105l180 104l-180 105l-180 104v-209v-209z" />
<glyph unicode="&#xf040;" d="M113 -143v1515q0 47 31.5 80t78.5 33h1602q47 0 78.5 -33t31.5 -80v-1515q0 -47 -31.5 -80t-78.5 -33h-1602q-47 0 -78.5 33t-31.5 80zM336 309h1376v951h-1376v-951z" />
<glyph unicode="&#xf041;" d="M0 614.5q0 141.5 37 272.5t103.5 244.5t159.5 207t207 160t245 103t272 36.5q211 0 398.5 -80.5t325.5 -219t219 -326t81 -398.5q0 -141 -37 -272t-103.5 -244.5t-159.5 -207t-207 -160t-245 -103.5t-272 -37t-272 37t-245 103.5t-207 160t-159.5 207t-103.5 244.5 t-37 272.5zM477 164q0 -29 19.5 -47.5t48.5 -18.5h950q29 0 48.5 18.5t19.5 47.5v901q0 29 -19.5 47t-48.5 18h-950q-29 0 -48.5 -18t-19.5 -47v-901zM610 434v563h820v-563h-820z" />
<glyph unicode="&#xf042;" d="M37 -10v1249q0 51 36 87t85 36h1732q49 0 85 -36t36 -87v-1249q0 -51 -36 -87t-85 -36h-1732q-49 0 -85 36t-36 87zM281 111h1486v1007h-1486v-1007zM345 322.5q3 35.5 32 58.5l207 172q27 20 60.5 18t55.5 -24l101 -101l221 345q14 20 34.5 31.5t45.5 8.5q51 -4 72 -51 l131 -274l251 442q18 33 53.5 42t65.5 -9q31 -16 40 -51t-7 -68l-336 -588q-27 -47 -78 -43q-25 0 -45 13.5t-30 36.5l-136 284l-194 -303q-23 -35 -64 -39h-10q-39 0 -59 25l-121 121l-148 -121q-29 -23 -64.5 -21t-58 31t-19.5 64.5z" />
<glyph unicode="&#xf043;" d="M0 614.5q0 141.5 37 272.5t103.5 244.5t159.5 207t207 160t245 103t272 36.5q211 0 398.5 -80.5t325.5 -219t219 -326t81 -398.5q0 -141 -37 -272t-103.5 -244.5t-159.5 -207t-207 -160t-245 -103.5t-272 -37t-272 37t-245 103.5t-207 160t-159.5 207t-103.5 244.5 t-37 272.5zM453 256q0 -29 20.5 -49.5t48.5 -20.5h994q29 0 49 20.5t20 49.5v717q0 29 -20.5 49t-48.5 20h-994q-29 0 -49 -20.5t-20 -48.5v-717zM592 326v577h854v-577h-854zM629 446.5q-2 -20.5 12 -36.5q12 -16 32.5 -18.5t37.5 11.5l84 70l69 -70q18 -14 35 -14h6 q25 4 37 23l111 174l77 -164q12 -27 44 -27q31 -4 45 25l192 338q10 16 4 36.5t-22 30.5q-18 10 -38 4t-30 -22l-145 -256l-76 160q-10 25 -41 28q-31 0 -45 -24l-127 -197l-57 57q-14 14 -33 14.5t-35 -9.5l-119 -101q-16 -12 -18 -32.5z" />
<glyph unicode="&#xf044;" d="M197 555q-4 23 12 42t45 24l170 26q27 4 48.5 -9t25.5 -35.5t-12.5 -43t-45.5 -24.5l-170 -27q-27 -4 -48 9t-25 38zM200.5 1079.5q10.5 22.5 34 29.5t50.5 -5l157 -70q25 -10 36 -32.5t1 -45t-34.5 -29.5t-49.5 3l-157 71q-25 10 -36.5 33t-1 45.5zM506 1427.5 q4 24.5 24 38.5q18 12 43 5t39 -29l95 -146q16 -23 12 -48t-25 -38q-18 -12 -42.5 -5t-39.5 30l-94 145q-16 23 -12 47.5zM580 780v19q0 98 33.5 171.5t94 125t143.5 77t181 25.5h2h2q98 0 181 -25.5t143.5 -77t95.5 -125t35 -171.5q0 -4 -1 -6t-1 -7v-6q0 -37 -10 -82 q-14 -78 -54 -161l-88 -177q-31 -61 -43 -111t-19 -87t-15.5 -58.5t-30.5 -25.5h-389q-23 4 -31 25.5t-15.5 58.5t-19.5 87t-43 111l-88 177q-39 84 -53 161q-4 20 -6 41zM803 -20q0 33 33 32h399q12 0 21.5 -9t9.5 -23v-70q0 -12 -9.5 -21.5t-21.5 -9.5h-399 q-14 0 -23.5 9.5t-9.5 21.5v70zM803 -217q0 12 9 21.5t24 9.5h399q12 0 21.5 -9.5t9.5 -21.5v-70q0 -14 -9.5 -23t-21.5 -9h-399q-33 0 -33 32v70zM981 1350v172q0 29 16.5 47t38.5 18q25 0 41.5 -18.5t16.5 -46.5v-172q0 -29 -16.5 -47.5t-41.5 -18.5q-23 0 -39 18.5 t-16 47.5zM1350 1248q-4 25 12 48l94 146q16 23 40 30t44 -6q20 -14 23.5 -38.5t-11.5 -47.5l-94 -145q-16 -23 -39.5 -30t-44 5.5t-24.5 37.5zM1573 602.5q4 22.5 24.5 35.5t49.5 9l170 -26q27 -4 43 -23.5t12 -42.5q-4 -25 -24.5 -38t-49.5 -9l-170 27q-29 4 -44 24.5 t-11 43zM1591.5 956.5q-10.5 22.5 0.5 45t36 32.5l158 70q25 12 48.5 5t33.5 -29.5t0 -45t-37 -33.5l-158 -71q-25 -10 -48 -3t-33.5 29.5z" />
<glyph unicode="&#xf045;" d="M0 614.5q0 141.5 37 272.5t103.5 244.5t159.5 207t207 160t245 103t272 36.5q211 0 398.5 -80.5t325.5 -219t219 -326t81 -398.5q0 -141 -37 -272t-103.5 -244.5t-159.5 -207t-207 -160t-245 -103.5t-272 -37t-272 37t-245 103.5t-207 160t-159.5 207t-103.5 244.5 t-37 272.5zM461 561.5q4 -16.5 17.5 -26t31.5 -7.5l115 19q18 4 29.5 16t9.5 29q-4 16 -18.5 25.5t-33.5 5.5l-114 -19q-16 -2 -28.5 -14t-8.5 -28.5zM463 913.5q-6 -14.5 1 -30t23 -23.5l107 -47q16 -8 32.5 -3t22.5 19q8 16 0 30.5t-24 23.5l-105 47q-16 8 -33.5 3 t-23.5 -19.5zM669 1147q-3 -17 7 -33l63 -96q10 -16 26.5 -21.5t31.5 4.5q12 10 14 25.5t-8 32.5l-62 98q-10 16 -26.5 20.5t-30.5 -3.5q-12 -10 -15 -27zM717 717q0 -2 2 -4q0 -14 2 -29l4 -27q10 -53 37 -108l57 -119q20 -43 28.5 -77t13.5 -58.5t10.5 -38.5t21.5 -16h262 q14 2 20.5 16t10.5 38.5t12 58.5t29 77l59 119q27 55 37 108l4 27q2 14 2 29v4q0 2 1 4t1 4q0 66 -23.5 116t-64.5 83.5t-97 51t-122 17.5h-2q-131 0 -218 -68.5t-87 -199.5v-8zM868 -6q0 -20 21 -21h270q20 0 21 21v47q0 23 -21 22h-270q-20 0 -21 -22v-47zM868 127 q0 -20 21 -21h270q20 0 21 21v47q0 20 -21 21h-270q-20 0 -21 -21v-47zM987 1096q0 -18 11.5 -31.5t27.5 -13.5t26.5 13t10.5 32v114q0 18 -10.5 31.5t-26.5 13.5t-27.5 -13t-11.5 -32v-114zM1237 1027.5q2 -15.5 14 -26.5q14 -10 30.5 -5t27.5 22l63 96q20 37 -8 60 q-14 8 -30.5 4t-26.5 -21l-62 -98q-10 -16 -8 -31.5zM1384 592q-2 -16 9.5 -28.5t29.5 -16.5l115 -19q18 -2 31.5 7.5t17.5 26t-8 28.5t-29 14l-114 19q-18 4 -32.5 -5.5t-19.5 -25.5zM1399 829q6 -14 22.5 -19t32.5 3l107 47q16 8 23 23.5t1 30t-23.5 19.5t-33.5 -3 l-105 -47q-16 -8 -24 -22.5t0 -31.5z" />
<glyph unicode="&#xf046;" d="M395 295q0 -39 40 -88t121 -93t200.5 -74t279.5 -30q164 0 281 31t191.5 75t109.5 93t35 86v412q0 27 -17.5 44t-44 17t-44 -17.5t-17.5 -43.5v-406q-6 -12 -34 -40t-85 -55.5t-149.5 -49t-225.5 -21.5t-228 21.5t-157.5 50.5t-94.5 56.5t-38 39.5v404q0 27 -17.5 44 t-44 17t-44 -17.5t-17.5 -43.5v-412zM604 383v287v258v471q0 10 19.5 33.5t62.5 50.5q6 2 15.5 6t18.5 2t15 -10t6 -27v-145q0 -6 9.5 -23.5t32 -17.5t32.5 17.5t10 23.5v174q0 41 13.5 49t23.5 10q20 4 39 7t43 3q14 0 25.5 -11t11.5 -58v-174q0 -6 10 -23.5t33 -17.5 t33 17.5t10 23.5v174q0 43 9 56t26 11q27 -2 49.5 -5t44.5 -7q6 -2 16.5 -11t10.5 -44v-174q0 -6 9 -23.5t31.5 -17.5t33 17.5t10.5 23.5v141q0 18 5 27.5t13 10.5t16.5 -1t12.5 -4q47 -27 68.5 -50.5t21.5 -33.5v-471v-258v-287q0 -12 -20.5 -38t-68.5 -51.5t-127 -46 t-194 -20.5q-117 0 -197.5 20.5t-133 46t-76 51.5t-23.5 38zM637 -225q0 14 9 22t22 8h184v283h346v-283h182q31 0 31 -30v-68q0 -12 -8 -21.5t-23 -9.5h-712q-12 0 -21.5 9.5t-9.5 21.5v68z" />
<glyph unicode="&#xf047;" d="M0 614.5q0 141.5 37 272.5t103.5 244.5t159.5 207t207 160t245 103t272 36.5q211 0 398.5 -80.5t325.5 -219t219 -326t81 -398.5q0 -141 -37 -272t-103.5 -244.5t-159.5 -207t-207 -160t-245 -103.5t-272 -37t-272 37t-245 103.5t-207 160t-159.5 207t-103.5 244.5 t-37 272.5zM602 401q0 -23 19.5 -49t57.5 -53t95 -48.5t133 -31.5v-147h-123q-20 0 -20 -21v-45q0 -20 20 -20h480q20 0 20 20v45q0 20 -20 21h-123v143q80 10 137 31.5t95 49.5t55.5 55.5t17.5 49.5v275q0 16 -12.5 28.5t-28.5 12.5t-29.5 -12.5t-13.5 -28.5v-273 q-4 -8 -21.5 -26.5t-56.5 -36.5t-100.5 -32.5t-151.5 -14.5t-153.5 14.5t-105.5 33.5t-62.5 37.5t-24.5 27.5v270q0 16 -13.5 28.5t-29.5 12.5t-28.5 -12.5t-12.5 -28.5v-275zM741 459q0 -8 16.5 -25.5t51.5 -35t89 -31t132 -13.5t131 13.5t85 31t46.5 35t14.5 25.5v192v174 v316q0 6 -14.5 22.5t-47.5 32.5q-6 4 -18.5 4t-12.5 -26v-93q0 -4 -6 -16t-22.5 -12t-22.5 12t-6 16v115q0 25 -7 31t-11 6q-14 4 -29.5 6t-32.5 2q-12 2 -18 -7t-6 -38v-115q0 -4 -6.5 -16t-22.5 -12t-22.5 12t-6.5 16v115q0 33 -7 40t-17 7q-16 0 -29 -2l-27 -4 q-6 -2 -15 -7t-9 -34v-115q0 -4 -6 -16t-22.5 -12t-22.5 12t-6 16v97q0 27 -14.5 24.5t-22.5 -6.5q-29 -16 -42.5 -32.5t-13.5 -22.5v-316v-174v-192z" />
<glyph unicode="&#xf048;" d="M45 1444q12 39 48 56.5t73 6.5l283 -90q27 -8 44 -30.5t21 -51.5l16 -155l1282 -144q43 -6 66 -39q25 -31 18 -73l-77 -447q-4 -35 -32 -57.5t-63 -22.5h-1134l-23 -127h1082q39 0 67.5 -27.5t28.5 -68.5t-28.5 -68.5t-67.5 -27.5h-1196q-43 0 -74 35q-29 35 -23 80 l52 278l-78 782l-221 70q-39 12 -56.5 47t-7.5 74zM451 -122.5q0 61.5 43 104.5t104 43t104 -43t43 -104.5t-43 -105.5t-104 -44t-104 44t-43 105.5zM1325 -122.5q0 61.5 43 104.5t104.5 43t104.5 -43t43 -104.5t-43 -105.5t-104.5 -44t-104.5 44t-43 105.5z" />
<glyph unicode="&#xf049;" d="M0 614.5q0 141.5 37 272.5t103.5 244.5t159.5 207t207 160t245 103t272 36.5q211 0 398.5 -80.5t325.5 -219t219 -326t81 -398.5q0 -141 -37 -272t-103.5 -244.5t-159.5 -207t-207 -160t-245 -103.5t-272 -37t-272 37t-245 103.5t-207 160t-159.5 207t-103.5 244.5 t-37 272.5zM428 1144.5q-8 -24.5 4 -47t37 -30.5l141 -45l52 -504l-33 -180q-2 -12 1 -25.5t13 -23.5q18 -23 47 -23h770q27 0 45.5 17.5t18.5 44t-18.5 44t-45.5 17.5h-696l14 82h733q23 0 39.5 14.5t20.5 36.5l51 289q4 25 -12 47q-16 20 -43 25l-826 92l-10 100 q-2 18 -14 33.5t-29 19.5l-182 58q-25 8 -47.5 -4.5t-30.5 -37zM688 135q0 -41 27.5 -68.5t68.5 -27.5t69 27.5t28 68.5t-28 68.5t-69 27.5t-68.5 -27.5t-27.5 -68.5zM1253 135q0 -41 27 -68.5t68 -27.5t68.5 27.5t27.5 68.5t-27.5 68.5t-68.5 27.5t-68 -27.5t-27 -68.5z " />
<glyph unicode="&#xf04a;" d="M31 -283v1794q0 41 27.5 69t68.5 28h1599q41 0 69 -28t28 -69v-47h137q25 0 42 -17t17 -42v-178q0 -25 -17 -42.5t-42 -17.5h-137v-170h137q25 0 42 -17t17 -42v-178q0 -25 -17 -42.5t-42 -17.5h-137v-170h137q25 0 42 -17t17 -42v-178q0 -25 -17 -42.5t-42 -17.5h-137 v-170h137q25 0 42 -17t17 -42v-178q0 -25 -17 -42t-42 -17h-137v-50q0 -41 -28 -68.5t-69 -27.5h-1599q-41 0 -68.5 27.5t-27.5 68.5zM455 205q0 -27 15 -45.5t38 -18.5h833q23 0 39.5 18.5t16.5 45.5v258q0 39 -35 57l-322 154q55 35 90 101.5t35 146.5q0 57 -18.5 108 t-51 89t-76.5 60.5t-93 22.5t-93.5 -22.5t-77 -60.5t-52 -89t-19.5 -108q0 -82 36 -148.5t95 -101.5l-326 -152q-16 -6 -25 -22.5t-9 -34.5v-258z" />
<glyph unicode="&#xf04b;" d="M0 614.5q0 141.5 37 272.5t103.5 244.5t159.5 207t207 160t245 103t272 36.5q211 0 398.5 -80.5t325.5 -219t219 -326t81 -398.5q0 -141 -37 -272t-103.5 -244.5t-159.5 -207t-207 -160t-245 -103.5t-272 -37t-272 37t-245 103.5t-207 160t-159.5 207t-103.5 244.5 t-37 272.5zM543 180q0 -20 13 -33.5t32 -13.5h776q18 0 31.5 13.5t13.5 33.5v23h68q12 0 20 9t8 21v84q0 12 -8 21.5t-20 9.5h-68v82h68q29 0 28 29v86q0 29 -28 28h-68v82h68q12 0 20 9.5t8 21.5v84q0 12 -8 21.5t-20 9.5h-68v82h68q29 0 28 28v86q0 29 -28 29h-68v23 q0 20 -13.5 33.5t-31.5 13.5h-776q-18 0 -31.5 -13.5t-13.5 -33.5v-869zM748 416v125q0 23 16 28l158 74q-29 16 -46.5 48t-17.5 73q0 55 35 95t82 40q49 0 83 -40t34 -95q0 -41 -16.5 -73t-45.5 -48l158 -74q16 -6 16 -28v-125q0 -12 -8 -21.5t-18 -9.5h-404q-10 0 -18 9 t-8 22z" />
<glyph unicode="&#xf04c;" d="M57 614q0 199 76 375t208 308.5t307 208t376 75.5q199 0 375 -75.5t308 -208t208 -308.5t76 -375q0 -201 -76 -376t-208 -307t-308 -207.5t-375 -75.5q-201 0 -376 75.5t-307 207.5t-208 307.5t-76 375.5zM313 614.5q0 -147.5 56.5 -276.5t152.5 -225.5t225.5 -152.5 t276.5 -56t276.5 56t225.5 152.5t152.5 225.5t56.5 276.5t-56.5 276.5t-152.5 225t-225.5 152.5t-276.5 56.5t-276.5 -56.5t-225.5 -152.5t-152.5 -225t-56.5 -276.5zM571.5 204.5q-2.5 16.5 6.5 33.5l305 505q8 12 16 17l504 301q14 8 30.5 6t26.5 -14q29 -29 10 -60 l-301 -504q-4 -8 -16 -16l-508 -305q-10 -6 -24 -6q-20 0 -33 14l-2 2q-12 10 -14.5 26.5z" />
<glyph unicode="&#xf04d;" d="M0 614.5q0 141.5 37 272.5t103.5 244.5t159.5 207t207 160t245 103t272 36.5q211 0 398.5 -80.5t325.5 -219t219 -326t81 -398.5q0 -141 -37 -272t-103.5 -244.5t-159.5 -207t-207 -160t-245 -103.5t-272 -37t-272 37t-245 103.5t-207 160t-159.5 207t-103.5 244.5 t-37 272.5zM481 156q-20 -41 11 -72l2 -2q14 -18 41 -19q10 0 30 9l617 370q8 4 20 21l365 610q10 16 6 38t-19 36q-30 30 -71 10l-611 -364q-16 -12 -20 -21z" />
<glyph unicode="&#xf04e;" d="M113 -229v745v408v426q0 14 45 50t118.5 74.5t168 70.5t193.5 39t195.5 -18.5t174 -103.5t162.5 -109.5t169 -32.5t163 18.5t143.5 46t112 49t67.5 28.5q31 8 52 0t33.5 -25.5t18.5 -41t6 -45.5v-744q0 -72 -11 -101.5t-46 -53.5q-41 -29 -101.5 -64t-134 -63.5 t-155.5 -46t-165 -12.5t-164 37t-150 101q-84 84 -172 118t-172 36t-160 -19.5t-135 -48.5v-718q0 -53 -38 -90t-91.5 -37t-90 36.5t-36.5 90.5z" />
<glyph unicode="&#xf04f;" d="M0 614.5q0 141.5 37 272.5t103.5 244.5t159.5 207t207 160t245 103t272 36.5q211 0 398.5 -80.5t325.5 -219t219 -326t81 -398.5q0 -141 -37 -272t-103.5 -244.5t-159.5 -207t-207 -160t-245 -103.5t-272 -37t-272 37t-245 103.5t-207 160t-159.5 207t-103.5 244.5 t-37 272.5zM492 111q0 -31 22.5 -53.5t52.5 -22.5q33 0 54.5 22.5t21.5 53.5v424q35 16 80 28t94 11t101.5 -20t101.5 -69q61 -61 136 -74.5t146.5 1t133 45t98.5 55.5q20 14 26.5 31.5t6.5 60.5v438q0 29 -14.5 52.5t-51.5 13.5q-12 -4 -39.5 -17.5t-65.5 -28.5t-84 -26.5 t-96.5 -10.5t-100.5 19.5t-95 63.5t-102.5 60.5t-116 11.5t-114.5 -22.5t-99 -41t-69.5 -44t-26.5 -30.5v-251v-240v-440z" />
<glyph unicode="&#xf050;" d="M317 840v2q0 147 56.5 278t153 228.5t227.5 155t278 57.5h2h2q147 0 278.5 -57.5t227.5 -155t152.5 -228.5t56.5 -278q-2 0 -2 -2h2q-2 -4 -2 -17v-10q-2 -31 -6 -62.5t-10 -62.5q-8 -41 -42 -116.5t-85 -168.5l-107 -190l-110 -182q-53 -84 -95.5 -144.5t-58.5 -79.5 q-27 -27 -57.5 -52t-59 -45.5t-52.5 -33t-32 -12.5q-10 0 -32.5 12.5t-52 34t-60.5 47t-55 49.5q-16 16 -58 78l-94 144l-113 182q-57 98 -106 191.5t-85 169t-42 116.5q-6 31 -10 62.5t-7 62.5v10q0 4 -1 8.5t-1 8.5zM743 850q0 -59 22.5 -112.5t61.5 -93.5t92.5 -62.5 t113 -22.5t112.5 22.5t92 62.5t61.5 93.5t22.5 112.5t-22.5 112.5t-61.5 92.5t-92 61.5t-112.5 22.5t-113 -22.5t-92.5 -61.5t-61.5 -92.5t-22.5 -112.5z" />
<glyph unicode="&#xf051;" d="M8 614.5q0 141.5 37 272.5t103.5 244.5t159.5 207t207 160t245 103t272 36.5q211 0 398.5 -80.5t325.5 -219t219 -326t81 -398.5q0 -141 -37 -272t-103.5 -244.5t-159.5 -207t-206.5 -160t-244.5 -103.5t-272.5 -37t-272.5 37t-245 103.5t-207 160t-159.5 207 t-103.5 244.5t-37 272.5zM535 731q0 -4 2 -6q0 -41 10 -88q4 -29 28.5 -82t59.5 -117l74 -131l77 -127l66 -102q29 -41 41 -53q16 -16 37.5 -35t42 -33t37 -22.5t22.5 -8.5t21.5 8.5t36 21.5t42 31.5t39.5 37.5q12 12 41 54t66 101l78 127l74 131q35 66 58 118t30 81 q4 23 6 44t4 44v6q0 4 1 6t1 6v2q0 102 -39 192.5t-106.5 158t-157.5 107.5t-193 40h-2h-2q-102 0 -192 -40t-158 -107.5t-106.5 -157.5t-38.5 -193v-2v-12zM829 750q0 84 58.5 142t142.5 58t142.5 -58t58.5 -142t-58.5 -142.5t-142.5 -58.5t-142.5 58.5t-58.5 142.5z" />
<glyph unicode="&#xf052;" d="M57 614q0 199 76 375t208 308.5t307 208t376 75.5q199 0 375 -75.5t308 -208t208 -308.5t76 -375q0 -201 -76 -376t-208 -307t-308 -207.5t-375 -75.5q-201 0 -376 75.5t-307 207.5t-208 307.5t-76 375.5zM313 614.5q0 -147.5 56.5 -276.5t152.5 -225.5t225.5 -152.5 t276.5 -56t276.5 56t225.5 152.5t152.5 225.5t56.5 276.5t-56.5 276.5t-152.5 225t-225.5 152.5t-276.5 56.5t-276.5 -56.5t-225.5 -152.5t-152.5 -225t-56.5 -276.5zM662 792.5q0 22.5 14 36.5l100 101q14 14 36 14t36 -14l176 -178l322 321q14 14 35.5 15.5t35.5 -15.5 l101 -100q16 -14 16 -34.5t-16 -37.5l-457 -457q-12 -14 -35 -14h-2q-23 0 -37 14l-311 312q-14 14 -14 36.5z" />
<glyph unicode="&#xf053;" d="M0 614.5q0 141.5 37 272.5t103.5 244.5t159.5 207t207 160t245 103t272 36.5q211 0 398.5 -80.5t325.5 -219t219 -326t81 -398.5q0 -141 -37 -272t-103.5 -244.5t-159.5 -207t-207 -160t-245 -103.5t-272 -37t-272 37t-245 103.5t-207 160t-159.5 207t-103.5 244.5 t-37 272.5zM559 801q0 -12 8 -19l445 -446q12 -8 20 -8v2q10 0 21 6l651 651q18 21 0 39l-143 143q-8 8 -18.5 8.5t-18.5 -8.5l-492 -491l-284 285q-18 18 -37 0l-144 -144q-8 -8 -8 -18z" />
<glyph unicode="&#xf054;" d="M29 -55v1161q0 53 38.5 92t94.5 39h141l121 152q25 29 59 28h351q47 0 67 -45q10 -14 41 -53l70 -82h882q53 0 92 -39t39 -92v-1161q0 -55 -38.5 -94t-92.5 -39h-1732q-55 0 -94 38.5t-39 94.5z" />
<glyph unicode="&#xf055;" d="M0 614.5q0 141.5 37 272.5t103.5 244.5t159.5 207t207 160t245 103t272 36.5q211 0 398.5 -80.5t325.5 -219t219 -326t81 -398.5q0 -141 -37 -272t-103.5 -244.5t-159.5 -207t-207 -160t-245 -103.5t-272 -37t-272 37t-245 103.5t-207 160t-159.5 207t-103.5 244.5 t-37 272.5zM449 225q0 -31 22.5 -53t52.5 -22h1006q33 0 55.5 22.5t22.5 52.5v674q0 33 -22.5 55.5t-55.5 22.5h-512l-39 47q-18 23 -25 31q-10 25 -39 24h-204q-20 0 -33 -16l-72 -86h-82q-31 0 -53 -22.5t-22 -55.5v-674z" />
<glyph unicode="&#xf056;" d="M0 -283v729q0 53 37 91t90 38h455q43 0 76.5 -24.5t46.5 -65.5q35 -104 121.5 -168.5t197.5 -64.5t199 64.5t123 168.5q12 41 45.5 65.5t74.5 24.5h455q53 0 90 -37.5t37 -91.5v-729q0 -53 -37 -90t-90 -37h-1794q-53 0 -90 37t-37 90zM639 1118q10 20 31 21h166v446 q0 14 10 23.5t24 9.5h308q35 0 34 -33v-446h166q20 0 31 -19q10 -20 -2 -37l-354 -497q-10 -14 -27 -15q-18 0 -29 15l-356 497q-12 18 -2 35z" />
<glyph unicode="&#xf057;" d="M0 614.5q0 141.5 37 272.5t103.5 244.5t159.5 207t207 160t245 103t272 36.5q211 0 398.5 -80.5t325.5 -219t219 -326t81 -398.5q0 -141 -37 -272t-103.5 -244.5t-159.5 -207t-207 -160t-245 -103.5t-272 -37t-272 37t-245 103.5t-207 160t-159.5 207t-103.5 244.5 t-37 272.5zM403 158q0 -33 21.5 -55.5t54.5 -22.5h1080q31 0 53 22.5t22 55.5v438q0 31 -22 53.5t-53 22.5h-275q-25 0 -45 -14.5t-29 -39.5q-20 -63 -73.5 -101t-119 -38t-117.5 38t-75 101q-8 25 -27.5 39.5t-43.5 14.5h-275q-33 0 -54.5 -22.5t-21.5 -53.5v-438zM786 999 q-4 -10 2 -22l216 -299q4 -8 16 -8q10 0 16 10l213 297q6 12 0 22q-4 10 -16 11h-100v270q0 20 -21 20h-186q-20 0 -21 -20v-270h-100q-12 0 -19 -11z" />
<glyph unicode="&#xf058;" d="M2 -217v1663q0 53 37 89t88 36h1794q51 0 88 -36t37 -89v-1663q0 -53 -37 -89t-88 -36h-1794q-51 0 -88 36t-37 89zM254 -92h1540v1413h-1540v-1413zM422 66v340h340v-340h-340zM422 514v627h1200v-627h-1200zM852 66v340h340v-340h-340zM1282 66v340h340v-340h-340z" />
<glyph unicode="&#xf059;" d="M0 614.5q0 141.5 37 272.5t103.5 244.5t159.5 207t207 160t245 103t272 36.5q211 0 398.5 -80.5t325.5 -219t219 -326t81 -398.5q0 -141 -37 -272t-103.5 -244.5t-159.5 -207t-207 -160t-245 -103.5t-272 -37t-272 37t-245 103.5t-207 160t-159.5 207t-103.5 244.5 t-37 272.5zM481 158q0 -29 19.5 -48.5t48.5 -19.5h952q29 0 48.5 19.5t19.5 48.5v882q0 29 -19.5 48.5t-48.5 19.5h-952q-29 0 -48.5 -19.5t-19.5 -48.5v-882zM616 223v752h820v-752h-820zM705 307h182v180h-182v-180zM705 545h638v334h-638v-334zM934 307h180v180h-180 v-180zM1163 307h180v180h-180v-180z" />
<glyph unicode="&#xf05a;" d="M74 -229v1687q0 45 31.5 77t76.5 32h1688q47 0 78.5 -32t31.5 -77v-1687q0 -45 -31.5 -77t-78.5 -32h-1688q-45 0 -76.5 32t-31.5 77zM365 557q0 -137 52 -257t142 -209t210 -141t257 -52t258 52t211 141t142.5 209t52.5 257h-1325zM492 999q0 -43 16 -80.5t44 -65.5 t64.5 -44t79.5 -16t81 16t65.5 44t44 65.5t16.5 80.5t-16.5 80t-44 64.5t-65.5 44t-81 16.5q-86 0 -145 -59.5t-59 -145.5zM1133 999q0 -43 16 -80.5t44 -65.5t64.5 -44t79.5 -16t81 16t65.5 44t44 65.5t16.5 80.5t-16.5 80t-44 64.5t-65.5 44t-81 16.5q-86 0 -145 -59.5 t-59 -145.5z" />
<glyph unicode="&#xf05b;" d="M0 614.5q0 141.5 37 272.5t103.5 244.5t159.5 207t207 160t245 103t272 36.5q211 0 398.5 -80.5t325.5 -219t219 -326t81 -398.5q0 -141 -37 -272t-103.5 -244.5t-159.5 -207t-207 -160t-245 -103.5t-272 -37t-272 37t-245 103.5t-207 160t-159.5 207t-103.5 244.5 t-37 272.5zM494 143q0 -25 18 -43t43 -18h942q27 0 44.5 18.5t17.5 42.5v942q0 27 -17.5 44.5t-44.5 17.5h-942q-25 0 -43 -17.5t-18 -44.5v-942zM657 582h740q0 -76 -30 -142.5t-80 -117t-117.5 -79t-143.5 -28.5t-143.5 28.5t-117.5 79t-79 117t-29 142.5zM727 829.5 q0 47.5 34 81t81 33.5t80.5 -33.5t33.5 -81t-33.5 -81t-80.5 -33.5t-81 33.5t-34 81zM1085 829.5q0 47.5 34 81t81 33.5t81 -33.5t34 -81t-34 -81t-81 -33.5t-81 33.5t-34 81z" />
<glyph unicode="&#xf05c;" d="M111 -128q0 40 14 77t45 67l340 340q-72 113 -100.5 242t-15 258t69.5 251t154 220q115 113 259.5 170t294 57t293.5 -57t259 -170q115 -115 172.5 -259t57.5 -293.5t-57.5 -294t-172.5 -259.5q-92 -92 -204.5 -147.5t-233.5 -73.5t-242.5 2.5t-232.5 77.5l-352 -352 q-31 -31 -68 -45.5t-77 -14.5t-76.5 14.5t-67.5 45t-45 67.5t-14 77zM737 773q0 -83 32 -163t95.5 -143.5t143 -95t163.5 -31.5t164 31.5t143.5 95t95.5 143.5t32 163t-32 164t-95.5 144.5t-143.5 94t-164 30.5t-163.5 -30.5t-143 -94t-95.5 -144.5t-32 -164z" />
<glyph unicode="&#xf05d;" d="M0 614.5q0 141.5 37 272.5t103.5 244.5t159.5 207t207 160t245 103t272 36.5q211 0 398.5 -80.5t325.5 -219t219 -326t81 -398.5q0 -141 -37 -272t-103.5 -244.5t-159.5 -207t-207 -160t-245 -103.5t-272 -37t-272 37t-245 103.5t-207 160t-159.5 207t-103.5 244.5 t-37 272.5zM475 164q0 -51 37 -86q35 -37 87 -37t87 37l213 213q68 -35 140.5 -47.5t145 -2t141.5 44.5t124 89q70 70 103.5 156.5t33.5 177t-33.5 177.5t-103.5 156.5t-157 103.5t-177 34t-177 -34t-157 -104q-59 -59 -93 -131.5t-42 -151.5t9.5 -157t60.5 -145l-205 -205 q-37 -37 -37 -88zM852 709.5q0 50.5 19.5 98.5t58.5 87t87 57.5t99 18.5t99.5 -18.5t87 -57.5t57 -87t18.5 -98.5t-18.5 -98.5t-57 -87t-87 -58.5t-99.5 -19.5t-99 19.5t-87 58.5t-58.5 87t-19.5 98.5z" />
<glyph unicode="&#xf05e;" d="M197 1022q-7 41 16 68q10 16 27.5 23t35.5 7h410q-8 66 -17.5 113t-17.5 82q-10 49 8.5 93t47 79t58.5 58.5t42 31.5q29 20 70 10q35 -12 51 -49l186 -418h189q35 0 58 -23.5t23 -58.5v-827q0 -35 -23.5 -58.5t-57.5 -23.5h-758q-14 0 -47 8t-69 28.5t-69.5 55.5 t-48.5 90zM1485 166v913q0 25 17 41.5t42 16.5h240q25 0 42 -16.5t17 -41.5v-913q0 -23 -17.5 -40t-41.5 -17h-240q-25 0 -42 17t-17 40z" />
<glyph unicode="&#xf05f;" d="M188 170v913q0 25 17.5 41.5t42.5 16.5h239q25 0 42.5 -16.5t17.5 -41.5v-913q0 -23 -17.5 -40t-42.5 -17h-239q-25 0 -42.5 17t-17.5 40zM647 211v827q0 35 23.5 58.5t58.5 23.5h758q14 0 47 -8t68.5 -28.5t68.5 -55.5t49 -88l115 -713q7 -40 -16 -67q-23 -31 -64 -31 h-409q8 -66 17 -113t17 -82q10 -49 -8 -93t-47 -78.5t-58.5 -58t-41.5 -32.5q-33 -20 -70 -10q-35 12 -51 49l-186 418h-189q-35 0 -58.5 23.5t-23.5 58.5z" />
<glyph unicode="&#xf060;" d="M88 698.5q0 73.5 52 126t126 52.5q211 0 396.5 -81t323.5 -219.5t219 -323.5t81 -396q0 -74 -52 -126.5t-126 -52.5t-126 52.5t-52 126.5q0 137 -52.5 258t-142.5 211t-211 142t-258 52q-74 0 -126 52.5t-52 126zM88 1372q0 74 52 126t126 52q233 0 449.5 -60t405 -171 t343 -265.5t265 -343t171 -404.5t60.5 -449q0 -74 -52.5 -126.5t-126 -52.5t-125.5 52.5t-52 126.5q0 184 -48.5 355t-135.5 319.5t-208.5 270.5t-270 209t-319.5 135t-356 48q-74 0 -126 52t-52 126zM94 -59q0 51 19.5 97t53.5 80t79 53t98 19q51 0 97 -19t80 -53t53.5 -80 t19.5 -97q0 -53 -19.5 -98.5t-53.5 -79t-80 -53t-97 -19.5q-53 0 -98 19.5t-79 53t-53.5 78.5t-19.5 99z" />
<glyph unicode="&#xf061;" d="M63 -307v1843q0 20 14.5 33.5t35.5 13.5h1822q20 0 35 -13.5t15 -33.5v-1843q0 -20 -14.5 -33.5t-35.5 -13.5h-1822q-20 0 -35 13t-15 34zM969 555h176v-684h254v684h250l10 246h-260v180q0 51 17.5 81t82.5 28h154l6 229q-29 4 -58.5 5t-54.5 3q-29 2 -57 2 q-90 6 -154.5 -19.5t-106.5 -71.5t-62.5 -105.5t-20.5 -120.5v-211h-176v-246z" />
<glyph unicode="&#xf062;" d="M154 37q160 -23 302 25.5t259 136.5q-27 0 -71 5t-94 30.5t-101.5 79t-90.5 149.5q12 -4 34 -5t46.5 1t48 5t41.5 7q-106 33 -166.5 87t-89 111.5t-36 108.5t-7.5 80q27 -16 78 -34.5t92 -16.5q-84 70 -121.5 138.5t-45 133t7 126t39.5 118.5q113 -127 224 -206 t212.5 -122t189.5 -57t154 -14q-12 82 -1 155.5t47 135t95.5 105.5t140.5 66q100 29 192.5 -1.5t158.5 -106.5q29 2 90 18.5t153 71.5q-6 -20 -19 -50t-33.5 -60.5t-49.5 -59.5t-66 -47q31 6 68 14q31 8 72 22t84 32q-18 -39 -68.5 -98.5t-124.5 -104.5q2 -16 3 -30.5 t1 -31.5q0 -86 -19.5 -188t-60.5 -207.5t-103.5 -209t-148.5 -191.5t-195.5 -156t-244.5 -100q-158 -35 -315 -35q-68 0 -140.5 7t-145.5 26.5t-143.5 52.5t-131.5 84z" />
<glyph unicode="&#xf063;" d="M76 614q0 197 74.5 370t202.5 301t301 203t370 75t370 -75t301 -203t202.5 -301t74.5 -369.5t-74.5 -369.5t-202.5 -301t-301 -203t-370 -75q-72 0 -138.5 10.5t-129.5 28.5q27 43 53.5 95.5t40.5 107.5q4 14 12 49q8 29 20.5 79t35.5 132q25 -47 89 -82t142 -35 q115 0 209 49.5t161.5 136.5t104.5 205.5t37 257.5q0 104 -43 202.5t-121 174.5t-189.5 121t-246.5 45q-170 0 -297 -54t-211 -140t-127 -191.5t-43 -206.5q0 -123 47 -222t148 -140q16 -6 29.5 0t17.5 24q4 12 9 37t9 39q4 18 2 27.5t-14 25.5q-29 35 -46.5 79t-17.5 108 q0 90 33 172t93.5 144.5t146.5 99t194 36.5q94 0 168 -27.5t125 -75.5t77 -114.5t26 -144.5q0 -102 -22 -194.5t-61.5 -161t-95 -108.5t-123.5 -40q-37 0 -68.5 14.5t-52 39t-29.5 58t1 70.5q10 45 25 90l28 91q12 43 21.5 82.5t9.5 72.5q0 59 -32 101.5t-97 42.5 q-37 0 -71 -18.5t-58.5 -52.5t-38.5 -79t-14 -96q0 -27 4 -53q4 -23 9 -48.5t17 -48.5q-41 -166 -63.5 -267t-36.5 -157q-16 -66 -23 -94q-12 -53 -15 -110.5t-1 -106.5q-125 55 -229.5 143t-179 201t-116.5 246t-42 278z" />
<glyph unicode="&#xf064;" d="M129 614.5q0 186.5 69.5 349t191.5 284.5t285 192.5t349 70.5t349 -70.5t285 -192.5t192.5 -284.5t70.5 -349t-70.5 -349.5t-192.5 -284.5t-285 -192.5t-349 -71t-349 71t-285 192.5t-191.5 284.5t-69.5 349.5zM225 614.5q0 -165.5 62.5 -311t171 -254t254 -171 t311.5 -62.5t311.5 62.5t254 171t171 254t62.5 311t-62.5 311t-171 254t-254 171t-311.5 62.5t-311.5 -62.5t-254 -171t-171 -254t-62.5 -311zM479 434q12 14 34 12t26 -6q25 -10 49 -42.5t51 -55.5q12 -10 30.5 -20.5t41 -14.5t49 0t53.5 23q6 27 19.5 42t29 24.5 t28.5 14.5t21 9q-113 8 -184.5 37.5t-113.5 76t-57 105.5t-15 125q0 68 20.5 121t56.5 94q-16 49 -11 103.5t22 97.5q78 -4 130 -33t72 -47q88 25 183 24h14q88 0 170 -20q23 18 74 45t127 31q16 -41 21 -92.5t-7 -98.5q41 -41 63.5 -97t22.5 -128q0 -66 -14.5 -124 t-53 -105.5t-107.5 -78t-175 -38.5l43 -21q25 -12 43 -47q10 -23 13 -65.5t3 -87.5t-1 -83t3 -46q8 -16 23.5 -28.5t26 -19t6.5 -15.5t-29 -11q-12 0 -30.5 4t-35 14.5t-27.5 25.5t-11 40v168q0 29 -13.5 41t-27.5 16v-221q0 -59 14 -78q6 -8 11 -17.5t6 -15.5t-7 -7t-31 5 q-43 10 -61 47t-18 78v217h-45v-217q0 -41 -17.5 -77.5t-62.5 -47.5q-23 -6 -30 -5t-7 7t6 15.5t12 17.5q4 8 9.5 28.5t5.5 49.5v221q-14 -4 -26.5 -16.5t-12.5 -40.5v-168q0 -25 -11.5 -40t-28 -25.5t-35 -14.5t-30.5 -4q-25 2 -29 11t6.5 15.5t26 18.5t23.5 29q4 10 3 54 t-1 97q-16 -6 -43 -8t-60 4q-55 10 -83.5 35.5t-55.5 81.5q-14 27 -31.5 44t-31 27.5t-20.5 17.5t-1 13zM664 637q0 -125 129 -170q23 -6 49 -12q23 -4 56.5 -8.5t78.5 -4.5h90q43 0 78 4.5t59 8.5q29 6 49 12q129 45 129 170q0 66 -21.5 103.5t-68.5 62.5q-23 12 -53.5 14 t-65 1t-73.5 -4t-78 -3t-78 3t-73.5 4t-65.5 -1t-53 -14q-47 -25 -67.5 -63t-20.5 -103zM778 651.5q0 28.5 14.5 49t37 20.5t38 -20.5t15.5 -49t-15.5 -49t-38 -20.5t-37 20.5t-14.5 49zM1020 811h2h2h-4zM1180 651.5q0 28.5 14 49t36.5 20.5t38 -20.5t15.5 -49t-15.5 -49 t-38 -20.5t-36.5 20.5t-14 49z" />
<glyph unicode="&#xf065;" d="M311 805q0 131 52.5 239.5t146.5 186.5t225 121t289 43q160 0 291 -43t225 -120t145.5 -186.5t51.5 -240.5q0 -127 -49.5 -230.5t-140.5 -177t-220 -113.5t-289 -42v-92q0 -86 -47 -159t-125 -108q-20 -10 -49 -17t-63 -7q-31 0 -67 8t-77 29v266q33 -25 62.5 -31t53.5 1 t38 26.5t14 48.5v739h260v-461q31 0 77 4.5t96.5 15.5t100.5 32.5t90 57.5t65.5 87t25.5 123q0 96 -41 161.5t-107.5 106.5t-150.5 59.5t-170 18.5q-88 0 -172 -20.5t-150.5 -62.5t-106.5 -107.5t-40 -155.5q0 -29 6 -61.5t16.5 -63.5t23.5 -56.5t28 -37.5l-166 -178 q-37 35 -65.5 84t-47 102t-29 108.5t-10.5 102.5z" />
<glyph unicode="&#xf066;" d="M63 -307v1843q0 20 14.5 33.5t35.5 13.5h1822q20 0 35 -13.5t15 -33.5v-1843q0 -20 -14.5 -33.5t-35.5 -13.5h-1822q-20 0 -35 13t-15 34zM373 1057q0 -59 41 -102.5t112 -43.5h2q74 0 117 43t41 103q0 61 -42 103t-113.5 42t-114.5 -42t-43 -103zM389 -45h279v842h-279 v-842zM823 -45h279v471q0 18 2 35.5t8 32.5q16 37 50 69.5t93 32.5q76 0 109 -52t33 -138v-451h278v483q0 96 -24.5 168t-67.5 119t-101.5 69.5t-127.5 22.5q-55 0 -96 -13t-71 -34.5t-50.5 -46.5t-34.5 -45v119h-279q2 -35 2 -135v-254z" />
<glyph unicode="&#xf067;" d="M80 614.5q0 194.5 74.5 366.5t202.5 300t300 203t367 75t367 -75t300 -203t202.5 -300t74.5 -366.5t-74.5 -366.5t-202.5 -300t-300 -203t-367 -75t-367 75t-300 203t-202.5 300t-74.5 366.5zM217 612q0 -156 55.5 -292.5t151.5 -245.5q6 12 51 77.5t128 149.5t202 169 t276 136q8 4 15.5 5t15.5 5l-33 68l-32 68q-152 -45 -295.5 -69t-257 -34t-188.5 -11t-89 -1v-25zM236 778q12 0 77.5 1t166 10.5t230.5 30t271 57.5l-100 167l-93 144l-69 102l-37 53q-172 -80 -289.5 -228.5t-156.5 -336.5zM528 -23q104 -80 229.5 -125t266.5 -45 q165 1 315 64q-4 27 -16 84t-32.5 138t-50.5 180.5t-73 209.5q-2 -2 -6 -2q-170 -59 -288.5 -142t-193.5 -160t-110 -134zM836 1397q8 -10 37.5 -51t72.5 -105l90 -143q51 -82 101 -172q106 39 184 87t129 91t76.5 73.5t32.5 39.5q-109 96 -245 149t-290 53q-94 1 -188 -22z M1198 805q14 -29 27 -60l26 -57q4 -10 9.5 -20.5t9.5 -20.5q100 12 196.5 10t174 -9t129 -16t61.5 -11q-2 143 -49 270t-133 231q-6 -8 -36 -41.5t-84 -80t-136 -98.5t-195 -97zM1317 520q39 -109 67.5 -206t48 -172.5t28.5 -127t14 -69.5q135 92 226 231t120 309 q-10 2 -55.5 14.5t-113 21.5t-154.5 11.5t-181 -12.5z" />
<glyph unicode="&#xf068;" d="M70 614q0 197 74.5 371t204.5 304t304 205t371 75q150 0 285 -44t252 -122v-916q0 -47 -34 -80.5t-81 -33.5t-82 33.5t-35 80.5v275q0 82 -19.5 141.5t-53 97t-81 55t-100.5 17.5h-469q-63 0 -119.5 -19.5t-99.5 -56t-67.5 -89t-24.5 -115.5q0 -33 8 -72t31.5 -74 t65.5 -62.5t110 -39.5q55 -10 93 -15.5t62.5 -13.5t36 -23.5t11.5 -44t-15.5 -44t-41 -22.5t-61.5 -8t-79 -1h-416q-14 59 -22 118.5t-8 122.5zM174 180h416q150 0 243 75t93 204q0 90 -31 141t-77 79t-101 38l-99 18q-47 8 -77.5 20.5t-30.5 45.5q0 47 36 65.5t103 18.5 h152h137q31 0 62.5 -4t56 -14.5t41 -30t16.5 -52.5v-288q0 -78 27.5 -137.5t74 -99.5t106.5 -59.5t123.5 -19.5t124 19.5t106.5 59.5t74 99.5t28 137.5v704q94 -123 147 -271.5t53 -314.5q0 -197 -74.5 -370.5t-204.5 -303.5t-304 -205t-371 -75q-139 0 -267 38 t-237.5 106.5t-198 165t-147.5 210.5z" />
<glyph unicode="&#xf069;" d="M63 -307v1843q0 20 14.5 33.5t35.5 13.5h1822q20 0 35 -13.5t15 -33.5v-1843q0 -20 -14.5 -33.5t-35.5 -13.5h-1822q-20 0 -35 13t-15 34zM369 -33q0 -14 14 -14h426q14 0 55 6t88 29q43 20 84 71.5t41 147.5v18l-4 45l-16 56l-33 51q-25 25 -55 37q29 16 54.5 50 t25.5 99q0 106 -64.5 169t-179.5 63h-422q-14 0 -14 -15v-813zM575 129v190h224q2 0 14 -2t25.5 -11t23.5 -28.5t10 -56.5q0 -59 -28.5 -75.5t-57.5 -16.5h-211zM575 471v156h193h31h8l14 -9l15 -22l8 -41q0 -29 -5 -46t-13.5 -25.5t-18.5 -10.5t-23 -2h-209zM1081 238 l9 -60l22 -76l51 -73q82 -92 244 -92h12q18 0 64.5 4t94.5 27.5t85 69.5t37 128q0 14 -14 14h-142q-6 0 -10 -4q-4 -8 -4 -10t-2 -14.5t-17 -28.5q-31 -31 -100 -31h-4q-8 0 -28.5 3t-43.5 16q-49 29 -51 96h408q12 0 12 12q0 2 2 31t-2 70.5t-20.5 89t-53.5 88.5 q-78 90 -221 90q-63 0 -111.5 -15.5t-82 -39t-56 -53t-37.5 -56.5q-14 -31 -22 -59.5t-12.5 -51t-6.5 -37.5v-14v-24zM1221 662q0 -12 12 -13h336q14 0 14 13v100q0 14 -14 14h-336q-12 0 -12 -14v-100zM1280 346q2 12 10 28.5t22.5 32t37 26.5t55.5 11q49 0 78 -28 q16 -16 22 -36t11 -34h-236z" />
<glyph unicode="&#xf06a;" d="M49 637q0 45 17.5 86t48 71.5t70.5 48t87 17.5q86 0 148 -55q-29 -18 -60 -41q-43 27 -88 27q-63 0 -108 -45.5t-45 -108.5q0 -68 53 -117q-6 -16 -11 -34.5t-9 -36.5q-47 31 -75 80t-28 108zM119 637q0 63 45 108.5t108 45.5q45 0 88 -27q-135 -104 -188 -244 q-53 49 -53 117zM145 379q0 18 2 35l5 35q4 -4 12 -9l35 62q-8 4 -14.5 9t-12.5 9q53 139 188 244q6 -4 11.5 -9t11.5 -10l49 50q-8 8 -12 10q115 72 262 115t315 47l-2 -6q-6 -14 2 -29q-170 -4 -318.5 -48t-259 -119t-175 -174t-64.5 -212q0 -115 66.5 -215.5t180.5 -176 t267.5 -118.5t327.5 -43t327.5 43t267.5 118.5t180.5 176t66.5 215.5q0 113 -63.5 211t-172 173t-256 120t-315.5 49l4 4l10 31q162 -6 303.5 -49.5t251.5 -112.5q-2 -4 -4 -5t-6 -5l49 -50q8 8 21 17q137 -106 186 -244q-10 -10 -23 -16l35 -62q2 2 4 3t4 3q6 -35 6 -67 q0 -121 -68.5 -228.5t-188 -187.5t-279.5 -126t-340 -46q-182 0 -341 46t-278.5 126t-188.5 187.5t-69 228.5zM152 449q4 -5 12 -9l35 62q-8 4 -14.5 9t-12.5 9q-6 -16 -11 -34.5t-9 -36.5zM180 379q0 113 64.5 212t175 174t259 119t318.5 48q6 -14 19 -17q4 -2 12 -2 q18 0 29 19q168 -4 315.5 -49t256 -120t172 -173t63.5 -211q0 -115 -66.5 -215.5t-180.5 -176t-267.5 -118.5t-327.5 -43t-327.5 43t-267.5 118.5t-180.5 176t-66.5 215.5zM217 378.5q0 -106.5 63.5 -200.5t172 -163.5t256 -110.5t313.5 -41t313.5 41t257 110.5t173 163.5 t63.5 200.5t-63.5 202t-173 165t-257 110.5t-313.5 41t-313.5 -41t-256 -110.5t-172 -165t-63.5 -202zM360 764q31 23 60 41q4 -2 12 -10l-49 -50q-6 4 -11 9.5t-12 9.5zM606 483.5q0 57.5 40 97.5t97.5 40t98.5 -40t41 -97.5t-41 -97.5t-98.5 -40t-97.5 40t-40 97.5z M693 137.5q1 14.5 14 24.5q10 10 24 8t25 -12l14 -15l49 -28l80 -27l121 -12l123 14l86 29l51 28l16 13q10 10 25.5 10t26 -10t10.5 -24.5t-10 -24.5q-2 -2 -21.5 -18.5t-59.5 -36t-101.5 -36t-145.5 -16.5t-143.5 16.5t-98.5 36t-56 36t-20 18.5q-10 12 -9 26.5zM995 961 q-6 -15 2 -29h25h35l4 4l10 31h-49h-25zM997 932q6 -14 19 -17q4 -2 12 -2q18 0 29 19h-35h-25zM997 967l158 446l377 -90q-12 -35 -12 -70l-320 76l-129 -362h-49h-25zM1182 483.5q0 57.5 40 97.5t99 40q57 0 97 -40t40 -97.5t-40 -97.5t-97 -40q-59 0 -99 40t-40 97.5z M1520 1253l10 -2q14 -4 26.5 3.5t16.5 23.5q4 14 -4 25.5t-23 15.5l-14 4q-12 -35 -12 -70zM1520 1253l10 -2q14 -4 26.5 3.5t16.5 23.5q4 14 -4 25.5t-23 15.5l-14 4q23 51 68 83t102 32q78 0 131 -53.5t53 -131.5q0 -76 -53 -129t-131 -53q-76 0 -129 53.5t-53 128.5z M1589 1253q0 -47 33 -79.5t80 -32.5t80 32.5t33 79.5t-33 80t-80 33t-80 -33t-33 -80zM1589 1253q0 47 33 80t80 33t80 -33t33 -80t-33 -79.5t-80 -32.5t-80 32.5t-33 79.5zM1616 795q4 4 6 5t4 5q16 -10 31 -23l29 -20q-12 -8 -21 -17zM1626 805q66 55 148 55 q47 0 88 -17.5t71.5 -48t48 -71.5t17.5 -86q0 -59 -28.5 -109.5t-78.5 -81.5l-8 37l-12 35q27 23 42 53.5t15 65.5q0 63 -45 108.5t-110 45.5q-47 0 -88 -29l-29 20q-14 12 -31 23zM1686 762q41 29 88 29q66 0 110.5 -45.5t44.5 -108.5q0 -35 -15 -65.5t-42 -53.5 q-49 137 -186 244zM1849 502q12 6 23 16q8 -16 12 -35l8 -37q-2 -2 -4 -3t-4 -3z" />
<glyph unicode="&#xf06b;" d="M72 51v488q57 -45 133 -76t170 -31q41 0 88 6q-10 -27 -18.5 -50t-8.5 -60q0 -66 28 -109t56 -82q-41 -2 -97 -2t-118.5 -7t-123 -23.5t-109.5 -53.5zM72 -106q45 53 100 81.5t84 38.5q43 14 91 23.5t90 13.5t73 6t41 2h35l28 -4l148 -102q66 -45 115 -87t76.5 -86 t27.5 -97q0 -10 -1 -17.5t-3 -13.5h-856q-20 0 -34.5 14.5t-14.5 34.5v193zM72 1235v307q0 20 14 34.5t35 14.5h1823q20 0 34.5 -14t14.5 -35v-491h-355v356h-153v-356h-355v-148h355v-358h153v358h355v-1202q0 -20 -14.5 -34.5t-34.5 -14.5h-803q16 55 16 119 q0 72 -26.5 132t-68.5 111.5t-91 94.5l-99 79l-100 78q-25 18 -49.5 46t-24.5 75t26 79t52 58q45 35 86 73t73 85t50.5 105.5t18.5 136.5q0 72 -17.5 128t-43 99t-55.5 74.5t-54 54.5h170l157 127h-592q-55 0 -114.5 -6t-121 -22.5t-124 -48.5t-121.5 -81q-4 -4 -8 -7t-8 -7 zM176 1012q0 53 9.5 107.5t45.5 99.5q35 41 88.5 66.5t106.5 25.5q88 0 153.5 -52.5t109.5 -130t65.5 -167.5t21.5 -166q0 -31 -16.5 -82t-57.5 -99q-35 -41 -85 -55t-103 -14q-90 0 -153.5 46t-104.5 116.5t-60.5 151.5t-19.5 153z" />
<glyph unicode="&#xf06c;" d="M63 -63v1363q0 20 14.5 34t35.5 14h1822q20 0 35 -14t15 -34v-1363q0 -20 -14.5 -34t-35.5 -14h-1822q-20 0 -35 13.5t-15 34.5zM748 193l671 421l-671 422v-843z" />
<glyph unicode="&#xf06d;" d="M63 -307v1843q0 20 14.5 33.5t35.5 13.5h1822q20 0 35 -13.5t15 -33.5v-1843q0 -20 -14.5 -33.5t-35.5 -13.5h-1822q-20 0 -35 13t-15 34zM311 807q10 -10 17 -23l16 -18q6 -10 21 -12q25 -4 49 4t47.5 14t44 2t37.5 -33q4 -8 8 -15t8 -17q-2 2 -2 4q0 -2 2 -4 q12 -29 19.5 -58.5t17.5 -58.5q18 -51 32.5 -104.5t28.5 -112.5l35 -139q20 -76 56 -138q18 -35 41.5 -59.5t54.5 -36.5q20 -10 47 -9t52.5 7t49 15.5t39.5 19.5q90 53 160 125.5t129 150.5q70 92 123 186.5t90 177.5t57.5 146t26.5 92q12 66 -4 117l-8 19q-4 10 -13 20 q-18 23 -43.5 35t-55.5 17t-60.5 4t-57.5 -5q-20 -4 -62 -21.5t-89 -53t-91 -89t-69 -129.5h29q53 4 86.5 -9t44.5 -54q8 -23 4 -72q-4 -41 -21.5 -83t-40.5 -83q-12 -25 -30.5 -55.5t-41 -51t-51 -23.5t-59.5 32q-6 6 -12 14l-12 17q-18 33 -28.5 71.5t-17 80.5t-9.5 82 t-9 75q-8 43 -16.5 94t-22.5 96l-4 13l-4 12q-16 35 -40 63.5t-52 38.5q-37 10 -78 -1t-68 -27q-86 -51 -156.5 -117t-144.5 -125v-8z" />
<glyph unicode="&#xf06e;" d="M63 -307v1843q0 20 14.5 33.5t35.5 13.5h1822q20 0 35 -13.5t15 -33.5v-1843q0 -20 -14.5 -33.5t-35.5 -13.5h-1822q-20 0 -35 13t-15 34zM264 614.5q0 -75.5 29 -142t78 -116t115.5 -78t142.5 -28.5t142.5 28.5t115.5 78t77.5 116t28.5 142t-28.5 142t-77.5 116 t-115.5 78t-142.5 28.5t-142.5 -28.5t-115.5 -78t-78 -116t-29 -142zM1055 614.5q0 -75.5 28.5 -142t77.5 -116t115.5 -78t142.5 -28.5t142.5 28.5t115.5 78t78 116t29 142t-29 142t-78 116t-115.5 78t-142.5 28.5t-142.5 -28.5t-115.5 -78t-77.5 -116t-28.5 -142z" />
<glyph unicode="&#xf06f;" d="M71 640q-3 11 7 19q18 14 59 0q10 -4 23 -12l37 -24q23 -16 63 -39q14 -6 29.5 -14.5t32.5 -18.5q10 -4 18 -8t18 -8q33 -16 70 -29q31 -10 70 -21.5t77 -17.5h365q10 0 22.5 -10.5t28 -25.5t31.5 -33.5t37 -32.5l20 -13l23 -10q84 -29 138 -11.5t79 52.5q29 41 48 60.5 t50 7.5q16 -6 17.5 -25.5t-8 -45.5t-26 -52.5t-34.5 -46.5q-41 -39 -89 -67t-114 -28q-61 0 -104 13q-12 2 -25 6q-10 4 -22.5 7t-22.5 7v-405q0 -41 -19.5 -71t-48 -51.5t-62.5 -31.5t-62.5 -10t-70.5 10t-85 35.5t-84 71t-70 114.5q-20 57 -28 125q-6 59 -2 138t35 173 q-47 20 -92.5 44t-80.5 45q-41 23 -77 47q-14 8 -25 16l-22 16q-8 6 -14.5 11.5t-12.5 11.5q-51 43 -69.5 74.5t-20.5 38.5q-4 8 -7 19zM160 647l37 -24q22 -16 63 -39v893h1522v-889q41 23 63 37l39 24v879q0 23 -14.5 37t-36.5 14h-1624q-20 0 -34.5 -14.5t-14.5 -36.5 v-881zM168 508q6 -6 12.5 -11.5t14.5 -11.5q-16 6 -27 23zM358 535l1348 14q-37 -16 -76 -31l-76 -26q-41 -12 -81 -21h-365q-6 0 -18.5 -4t-22.5 -14q-2 -4 -4 -13q-4 -16 -4 -30v-45q-20 14 -36.5 32.5t-32 33.5t-28 25.5t-22.5 10.5h-365q-39 6 -77.5 17.5t-69.5 21.5 q-37 12 -70 29zM535 778q0 47 18 88t49 72t72 49.5t88 18.5t88 -18.5t71.5 -49.5t49 -72t18.5 -88t-18.5 -88t-49 -71.5t-71.5 -49t-88 -18.5t-88 18.5t-72 49t-49 71.5t-18 88zM1059 -180v379q23 -4 49.5 -8.5t54.5 -4.5q66 0 114 28t89 67q18 20 34.5 46.5t26 52.5t8.5 45 t-18 26q-31 12 -50 -7.5t-48 -60.5q-25 -35 -79 -52.5t-138 11.5q-12 4 -23 10l-20 13v45q0 14 4 30q2 8 4 13q10 10 22.5 14t18.5 4h365q41 8 81 21l76 26q39 14 76 31q4 2 9 4t11 4q16 10 29.5 16.5t26.5 14.5q41 23 63 37l39 24q8 6 14.5 9.5t12.5 7.5q41 14 59 0 q10 -8 7 -19.5t-7 -19.5q0 -4 -7 -20.5t-25.5 -40t-50.5 -52.5t-81 -55q-39 -25 -80 -47q-35 -20 -78.5 -44t-91.5 -44q29 -94 34 -173t-1 -139q-8 -68 -28 -125q-29 -72 -70 -115.5t-84 -70.5t-85 -36t-70.5 -9t-62.5 10t-62.5 31.5t-48 51.5t-19.5 71zM1073 778 q0 47 18.5 88t49 72t71.5 49.5t88.5 18.5t88.5 -18.5t71.5 -49.5t49 -72t18.5 -88t-18.5 -88t-49 -71.5t-71.5 -49t-88.5 -18.5t-88.5 18.5t-71.5 49t-49 71.5t-18.5 88z" />
<glyph unicode="&#xf070;" d="M59 612q0 135 37 261t104.5 237t165 200t218.5 150q2 -2 30 -26l66 -60l86 -76l86 -77l66 -60q29 -25 32 -28q-4 -4 -67 -60l-158 -141l-201 -180l-200 -183l-160 -141q-63 -57 -70 -63q-35 126 -35 247zM129 260q2 2 31 27l69 65l90 80l93 84l75 66q31 29 39 36v-821 q-135 82 -236.5 200t-160.5 263zM629 199h1261q-55 -115 -137 -208t-182.5 -163t-217 -112t-241.5 -54h-176q-160 14 -307 80v457zM686 1505q84 29 168 45.5t170 16.5q209 0 397 -86v-637q-8 8 -63 57l-135 123l-170 154l-172 153l-133 119q-55 49 -62 55zM1524 299v1126 q106 -66 193 -153.5t146.5 -193t92.5 -223.5t33 -243q0 -164 -56 -313h-409z" />
<glyph unicode="&#xf071;" d="M80 1051q0 109 41 204t111.5 165.5t166 111.5t203.5 41q78 0 147.5 -21.5t131.5 -58.5q74 12 153 12q186 0 350 -70.5t287 -193.5t193.5 -286.5t70.5 -350.5q0 -49 -5 -97t-15 -95q53 -111 53 -234q0 -109 -41 -204t-111.5 -165.5t-166 -111.5t-203.5 -41 q-68 0 -130.5 16.5t-115.5 44.5q-41 -6 -83 -10t-83 -4q-186 0 -350 70.5t-287 193.5t-193.5 287t-70.5 350q0 92 19 182q-72 115 -72 265zM502 348q0 -80 59 -164q53 -82 148 -131q125 -68 323 -67q164 0 281 49q118 49 184 139q61 88 62 201q0 92 -35 157q-35 63 -103 109 q-33 20 -70.5 37.5t-82.5 32.5q-45 16 -95.5 28.5t-105.5 24.5q-82 18 -125 31q-18 4 -37 12l-35 14q-35 18 -53 41q-18 25 -18 53q0 49 55 86q57 39 158 39q102 0 149 -34q45 -37 82 -101q29 -49 53 -71q27 -25 78 -25q53 0 92 39q37 39 37 88t-28.5 102.5t-88 98.5 t-147.5 73q-92 29 -211 29q-154 0 -264 -43q-115 -41 -176 -121q-59 -82 -60 -182q0 -111 58 -180q59 -74 155 -115q92 -39 236 -70q53 -10 94 -20t72 -21q57 -18 96 -53q35 -35 35 -86q0 -68 -68 -112q-70 -47 -182 -48q-84 0 -129 25q-49 23 -76 57q-31 41 -53 92 q-23 53 -51 78q-33 27 -80 27q-55 0 -94 -35t-39 -84z" />
<glyph unicode="&#xf072;" d="M63 -285v1841q0 20 14.5 35t35.5 15h1822q20 0 35 -14.5t15 -35.5v-1841q0 -20 -14.5 -34.5t-35.5 -14.5h-1822q-20 0 -35 14.5t-15 34.5zM184 776q-8 -45 3.5 -88t36 -78t61.5 -58.5t82 -31.5q33 -6 63.5 -1t58.5 16l373 -209q10 -84 73.5 -140.5t151.5 -56.5 q47 0 88.5 18.5t72 49t49 71.5t18.5 88l256 199h2q61 0 114.5 22.5t93.5 62.5t63.5 93t23.5 114.5t-23.5 115t-63.5 93.5t-93.5 63.5t-114.5 23.5q-59 0 -112.5 -22.5t-92.5 -61.5t-62.5 -92.5t-25.5 -112.5l-190 -268h-3q-61 0 -116 -33l-346 207q-6 74 -56.5 130 t-128.5 71q-47 6 -90 -4.5t-77.5 -36t-58.5 -62.5t-30 -82zM231 741.5q0 69.5 49.5 117.5t118.5 48q59 0 105.5 -38t58.5 -97l-102 57q-29 18 -62 19q-45 0 -76.5 -31t-31.5 -76q0 -35 18.5 -61.5t46.5 -38.5l103 -55q-29 -12 -60 -13q-70 0 -119 49.5t-49 119zM924 328 l102 -58q25 -18 61 -18q45 0 76 30.5t31 75.5q0 35 -18.5 61.5t-47.5 39.5l-100 55q26 12 59 12q70 0 118 -49t48 -118.5t-48 -117.5t-118 -48q-61 0 -107 37.5t-56 97.5zM1374 848q0 41 15.5 78t43 64.5t63.5 43t77 15.5q84 0 142.5 -58.5t58.5 -142.5t-58.5 -141.5 t-142.5 -57.5q-41 0 -77 15.5t-63.5 42t-43 63.5t-15.5 78zM1444 848q0 -53 38 -91t91 -38t92 38t39 91t-39 92t-92 39t-91 -39t-38 -92z" />
<glyph unicode="&#xf073;" d="M63 -307v1259h519q-23 -47 -36.5 -101t-13.5 -112q0 -98 38 -186t102.5 -152.5t151.5 -102.5t185.5 -38t186.5 38t152.5 102.5t102.5 152.5t38 186q0 115 -51 213h547v-1259q0 -20 -14.5 -33.5t-35.5 -13.5h-1822q-20 0 -35 13t-15 34zM63 1030v506q0 20 14.5 33.5 t35.5 13.5h1822q20 0 35 -13.5t15 -33.5v-506h-596q-66 86 -164.5 136.5t-215 50.5t-215 -50.5t-163.5 -136.5h-568zM158 1116h67v373q-29 -12 -48 -41t-19 -64v-268zM274 1116h66v383h-66v-383zM387 1116h68v383h-68v-383zM502 1116h65v113v155v115h-65v-383zM588 739 q0 88 32.5 165t90 134.5t134.5 90t165 32.5t164.5 -32.5t134 -90t90.5 -134.5t33 -165t-33 -164.5t-90.5 -134t-134 -90.5t-164.5 -33t-165 33t-134.5 90.5t-90 134t-32.5 164.5zM674 739.5q0 -69.5 26.5 -131t72.5 -106.5t106.5 -72t130 -27t131 27t106.5 72t72 106.5 t27 131t-27 130t-72 106.5t-106.5 72.5t-131 26.5t-130 -26.5t-106.5 -72.5t-72.5 -106.5t-26.5 -130zM1485 1229q0 -47 32.5 -80t79.5 -33h185q47 0 79.5 33t32.5 80v155q0 47 -32.5 81t-79.5 34h-185q-47 0 -79.5 -33.5t-32.5 -81.5v-155z" />
<glyph unicode="&#xf074;" d="M63 -307v1843q0 20 14.5 33.5t35.5 13.5h1564l-442 -606l-131 131q-29 29 -66 29t-65 -29l-33 -33l-18 27q-8 12 -19 24q-55 66 -133 102t-164 36q-72 0 -136 -25t-118 -70q-61 -53 -95 -122.5t-40 -144.5t16.5 -148.5t75.5 -135.5q51 -59 121 -95t148 -40l395 -395 q29 -29 65.5 -29t65.5 29l444 447q29 27 29 63.5t-27 63.5l435 366v-1335q0 -20 -14.5 -33.5t-35.5 -13.5h-1822q-20 0 -35 13t-15 34zM293 896q4 60 31.5 115.5t76.5 98.5q45 39 97.5 57.5t107.5 18.5q66 0 128.5 -28t109.5 -81q61 -72 72.5 -161t-23.5 -168l80 -107 q33 -43 37 -45q6 -10 20 -10t25 12l717 985h163q20 0 35 -13.5t15 -33.5v-408l-936 -788q-6 -6 -17 -6h-6q-6 0 -12 6l-297 240q-53 -20 -113 -21q-66 0 -128 27.5t-109 81.5q-43 49 -60.5 108.5t-13.5 119.5z" />
<glyph unicode="&#xf075;" d="M74 657v877q0 20 13 34.5t34 14.5h868q20 0 34.5 -14.5t14.5 -34.5v-877q0 -20 -14 -33.5t-35 -13.5h-868q-20 0 -33.5 13.5t-13.5 33.5zM1012 -287v877q0 20 14 34.5t35 14.5h866q20 0 34.5 -14.5t14.5 -34.5v-877q0 -20 -14 -34.5t-35 -14.5h-866q-20 0 -34.5 14.5 t-14.5 34.5z" />
<glyph unicode="&#xf076;" d="M96 723q0 168 73 317.5t199 260t294.5 175t361.5 64.5t361.5 -64.5t294.5 -175t199 -260t73 -317.5q0 -186 -90 -353t-254 -284l178 -328q16 -31 -10 -57q-12 -12 -33 -12q-12 0 -25 6l-420 246q-135 -37 -274 -37q-193 0 -361.5 64.5t-294.5 175t-199 260t-73 319.5z " />
<glyph unicode="&#xf077;" d="M195 -209v455q0 35 15 62.5t44 39.5l575 268q-104 61 -166.5 177t-62.5 262q0 102 33 192t90 156.5t135 105.5t166 39t166 -39t135 -105.5t90 -156.5t33 -192q0 -141 -61.5 -257t-161.5 -180l571 -270q27 -14 42 -40.5t15 -61.5v-455q0 -47 -26.5 -78.5t-67.5 -31.5 h-1470q-41 0 -67.5 31.5t-26.5 78.5z" />
<glyph unicode="&#xf078;" d="M63 -307v1843q0 20 14.5 33.5t35.5 13.5h1822q20 0 35 -13.5t15 -33.5v-1843q0 -20 -14.5 -33.5t-35.5 -13.5h-1822q-20 0 -35 13t-15 34zM618 729h150v-57v-479q0 -76 30.5 -123t77 -73t99.5 -34t100 -8h82q72 0 118 3t74.5 9t46 13.5t34.5 15.5v231v2v-2 q-41 -27 -90.5 -45t-100.5 -18q-27 0 -55.5 7t-52 17.5t-39 22.5t-15.5 22v279v217h314v57v160h-314v328h-180q-6 -125 -68 -215q-29 -41 -61 -68q-55 -45 -123 -45h-27v-217z" />
<glyph unicode="&#xf079;" d="M104 723q0 168 73 317.5t199 260t295 175t361.5 64.5t361.5 -64.5t295 -175t198.5 -260t72.5 -317.5q0 -170 -72.5 -319.5t-198.5 -260t-295 -175t-362 -64.5q-139 0 -274 37l-420 -246q-12 -6 -25 -6q-20 0 -32 12q-27 27 -11 57l179 328q-164 117 -254.5 284t-90.5 353 zM598 465q0 -23 15.5 -39t37.5 -16h484q23 0 39 16t16 39v127l285 -135v544l-285 -133v-2v125q0 23 -16.5 39.5t-38.5 16.5h-484q-23 0 -38 -16.5t-15 -39.5v-526z" />
<glyph unicode="&#xf07a;" d="M129 573v449h113v-449h-113zM242 129h114v-215h328v215h-328v113h107v217h-221v114h555v449h2h112h115v221v115h115h438h115v-115v-221h112h115v-107v-342v-114h-115v-658h-112h-2h-217h-115h-334h-115v658h-333v-217h106v-113h115v-328h-115h-328h-114v328zM242 1022 v106h114v-106h-114zM356 1128v115h328v-115h-328zM684 1022v106h113v-106h-113zM911 573h115v-659h334v328h115v-328h217v659h2h112v342h-112v-110v-113h-115h-438h-115v113v110h-115v-342zM1141 805h438v110v107v221h-438v-438z" />
<glyph unicode="&#xf07b;" d="M129 600q0 184 70.5 348t191.5 285t285 191.5t348 70.5t348 -70.5t286 -191.5t192.5 -285t70.5 -348t-70.5 -348t-192.5 -286t-286 -192.5t-348 -70.5t-348 70.5t-285 192.5t-191.5 286t-70.5 348zM190 600q0 -172 66 -323.5t179.5 -265t265 -179t323.5 -65.5t323.5 65.5 t265 179t179.5 265t66 323.5t-66 323.5t-179.5 264t-265 178.5t-323.5 66t-323.5 -66t-265 -178.5t-179.5 -264t-66 -323.5zM262 600q0 160 64 305l366 -991q-96 45 -175 115.5t-136 160t-88 193.5t-31 217zM387 1020q102 156 269 249t368 93q150 0 282 -53.5t234 -147.5 q-35 4 -67.5 -9t-59.5 -60q-18 -35 -12 -77t24.5 -84t42 -79t35.5 -61q29 -47 34 -116t-17 -143q-8 -33 -25 -86l-37 -120l-53 -185l-277 822q20 2 41 3t43 5q33 4 29 33q-2 12 -12 20t-23 8l-166 -12h-127l-79 6l-29 4q-12 4 -22.5 -4t-12.5 -20q-4 -12 4 -22.5t21 -12.5 q2 0 23.5 -3t60.5 -7l120 -324l-168 -496l-278 822q23 2 43 3t43 5q33 4 29 33q-2 12 -12.5 20t-22.5 8q-74 -10 -135.5 -12t-110.5 0zM809 -133l229 659l240 -645q-125 -45 -254 -45q-55 0 -109.5 8.5t-105.5 22.5zM1405 -61q12 33 39 110l57 164l58 168l38 115l60 172 q31 90 43 200q2 23 2 44.5t-4 43.5q88 -163 88 -356q0 -106 -27.5 -203.5t-78 -182.5t-120 -155.5t-155.5 -119.5z" />
<glyph unicode="&#xf07c;" d="M119 334q0 100 30.5 194.5t88 174t137.5 141t176 98.5q33 10 64.5 -3t44 -44t-2 -61.5t-47.5 -40.5q-74 -29 -133 -75t-102 -106.5t-66.5 -131t-23.5 -146.5q0 -102 40 -191.5t108.5 -155t160.5 -104.5t197 -39q80 0 154.5 23.5t137 66.5t110.5 102.5t75 131.5 q12 29 18 59q8 33 36 51.5t62.5 10.5t53 -35t10.5 -61q-10 -43 -25 -78q-35 -96 -98 -176t-147 -136.5t-182.5 -87t-204.5 -30.5q-139 0 -261 51t-213.5 139t-144.5 206t-53 253zM625 1413q0 39 15 74t41 60.5t60.5 41t75.5 15.5q39 0 74 -15.5t61.5 -41t41 -60.5t14.5 -74 q0 -80 -55.5 -136t-135.5 -56q-41 0 -75.5 15t-60.5 41t-41 60.5t-15 75.5zM715 1012h2q-2 6 -2 16q0 61 45 105.5t110 44.5q53 0 93.5 -31t54.5 -78l2 -6q0 -4 1 -5t1 -5l18 -95h320q20 0 37 -10q31 -16 40 -49t-7 -61q-12 -23 -35 -33t-47 -8h-273l41 -201h348 q41 0 74 -20.5t49 -55.5l314 -545q10 -20 10 -43q0 -41 -30 -69.5t-71 -28.5q-33 0 -57 16.5t-37 43.5l-270 471h-465q-8 -2 -23 -3q-49 0 -85.5 30t-45.5 77z" />
<glyph unicode="&#xf07d;" d="M55 385v453q0 29 20.5 50t51.5 21q131 0 254 33t230.5 82t195.5 107.5t151.5 107.5t98.5 84l37 35q30 32 77 16q43 -20 43 -67v-1391q0 -23 -11 -40t-32 -26q-16 -6 -26 -6q-33 0 -51 23q-2 2 -37 34.5t-98.5 83t-151.5 108t-195.5 106.5t-230.5 81.5t-254 32.5 q-31 0 -51.5 21.5t-20.5 50.5zM1343 112.5q0 28.5 23 49.5q92 94 140 214t48 251t-48 250.5t-140 212.5q-23 23 -23 51t23 51q23 20 51.5 20t48.5 -22q113 -115 172.5 -259.5t59.5 -304t-59.5 -305t-172.5 -258.5q-22 -22 -51 -22t-49 20q-23 23 -23 51.5zM1493 -132.5 q2 28.5 25 48.5q152 135 233.5 319.5t81.5 387.5q0 205 -82 389t-233 319q-23 20 -25 49t18.5 51.5t49 24.5t51.5 -18q174 -156 268 -368t94 -447q0 -233 -94 -445.5t-268 -367.5q-22 -19 -47 -19q-33 0 -54 25q-20 23 -18 51.5z" />
<glyph unicode="&#xf07e;" d="M66 -45l401 1319q8 23 31 22h264q23 0 31 -22l399 -1311q4 -12 4 -16q0 -14 -9 -22.5t-22 -8.5h-2h-239q-23 0 -29 23l-68 237h-395l-67 -237q-6 -23 -31 -23h-238q-18 0 -26 12q-8 8 -4 27zM494 432h272l-137 483zM1204 219q0 84 28 146.5t72 102.5t100 59.5t114 19.5 q127 0 213 -68v60q0 141 -148 141q-115 0 -209 -96q-12 -12 -26 -9q-16 4 -23 17l-76 131q-10 20 6 37q70 70 162 105.5t201 35.5q174 0 270.5 -88t96.5 -250v-622q0 -12 -9.5 -21.5t-21.5 -9.5h-193q-12 0 -21 9t-9 22v18q-43 -35 -98.5 -53.5t-115 -18.5t-114.5 21.5 t-100.5 63.5t-72 103.5t-26.5 143.5zM1458 217.5q0 -61.5 35 -99.5t94 -38q98 0 144 70v133q-29 47 -72 60t-72 13q-59 0 -94 -38.5t-35 -100z" />
<glyph unicode="&#xf07f;" d="M322 84v270q0 23 15 38.5t38 15.5h1300q23 0 38.5 -15.5t15.5 -38.5v-270q0 -23 -15.5 -38t-38.5 -15h-1300q-23 0 -38 15t-15 38zM336 547q-16 33 10 59l639 688q16 16 39 16.5t39 -16.5l635 -682q20 -16 20 -43q0 -23 -15 -39t-38 -16h-2h-1278q-37 0 -49 33z" />
<glyph unicode="&#xf080;" d="M170 584v346q0 16 12.5 28.5t28.5 12.5h346q16 0 28.5 -12.5t12.5 -28.5v-346q0 -16 -12.5 -28.5t-28.5 -12.5h-346q-16 0 -28.5 12t-12.5 29zM170 1092v346q0 16 12.5 28.5t28.5 12.5h346q16 0 28.5 -12.5t12.5 -28.5v-346q0 -16 -12.5 -28.5t-28.5 -12.5h-346 q-16 0 -28.5 12t-12.5 29zM238 -154q0 41 26 66l1491 1491q31 27 68 27q39 0 65 -27q29 -29 29 -68q0 -37 -29 -65l-1491 -1489q-29 -29 -67.5 -28t-65 27.5t-26.5 65.5zM676 584v346q0 16 12 28.5t29 12.5h346q29 0 39 -25q10 -23 -8 -45l-346 -346q-16 -12 -29 -12h-2 q-16 0 -28.5 12t-12.5 29zM676 1092v346q0 16 12 28.5t29 12.5h346q16 0 28.5 -12.5t12.5 -28.5v-346q0 -16 -12.5 -28.5t-28.5 -12.5h-346q-16 0 -28.5 12t-12.5 29zM1057 18v191q0 12 9 21.5t26 9.5h831q8 0 16.5 -9.5t8.5 -21.5v-191q0 -12 -9.5 -21t-21.5 -9h-830 q-14 0 -22 9t-8 21zM1057 -119q0 12 8 21.5t22 9.5h830q12 0 21.5 -9t9.5 -22v-196q0 -12 -9.5 -21.5t-21.5 -9.5h-830q-14 0 -22 9t-8 22v196zM1114 353q2 9 8 16l195 190q12 8 22 8h578q12 0 21.5 -9t9.5 -21v-191q0 -12 -9.5 -21.5t-21.5 -9.5h-772q-23 0 -29 21 q-4 8 -2 17z" />
<glyph unicode="&#xf081;" d="M63 614.5q0 34.5 32 91t92.5 120t146.5 129t192.5 117.5t231.5 85t266 33q139 0 265 -33t232.5 -85t192.5 -117.5t146.5 -129t92.5 -120t32 -91t-32 -91t-92.5 -120t-146.5 -129t-192.5 -118t-232.5 -85t-265 -32.5q-141 0 -266 32.5t-231.5 85t-192.5 118t-146.5 129 t-92.5 120t-32 91zM571 614.5q0 -90.5 36 -169t97.5 -137t143.5 -92.5t176 -34t176 34t143.5 92.5t97.5 137t36 169t-36 169t-97.5 137t-143.5 92.5t-176 34t-176 -34t-143.5 -92.5t-97.5 -137t-36 -169zM735 614.5q0 57.5 22.5 107.5t61.5 88t92.5 59.5t112.5 21.5 t112.5 -21.5t92.5 -59.5t61.5 -88t22.5 -107.5t-22.5 -107.5t-61.5 -88t-92.5 -59.5t-112.5 -21.5t-112.5 21.5t-92.5 59.5t-61.5 88t-22.5 107.5z" />
<glyph unicode="&#xf082;" d="M87 1352.5q1 19.5 7 38t21.5 32t40.5 19.5q53 10 79.5 -21.5t36.5 -64.5l103 -355q-14 -27 -21.5 -57.5t-3.5 -64.5v-2v-5l66 -391q16 -98 63 -155.5t125 -57.5h25q23 4 58.5 18.5t62.5 51.5q33 -43 73.5 -56.5t73.5 -13.5h14q39 2 76 20.5t64 59.5q45 -80 149 -80 q35 0 69 12.5t61.5 41t46 74.5t20.5 112l4 160q23 -10 51.5 0t65.5 45q86 82 164.5 127t138 55t98.5 -15.5t52.5 -65.5t-1 -83t-59.5 -69q-104 -59 -179 -148.5t-135.5 -188t-109.5 -195.5t-101 -171q-23 -47 -66.5 -80t-127.5 -33h-678q-86 0 -136 67t-67 159 q-12 66 -24 143l-25 162l-29 168l-28 164l-115 608q-4 16 -3 35.5zM434 887q-4 25 2 48t20.5 41.5t35 31t43.5 16.5h12q43 0 74.5 -31.5t37.5 -81.5l13 -129l28 -274v-4v-2v-4q6 -53 -8 -95.5t-74 -50.5q-4 0 -7 -1t-7 -1q-29 0 -47 13.5t-30.5 35t-18.5 46t-10 47.5 l-60 370zM739 999q-4 53 32 90t89 39q2 2 4 2q51 0 87 -34.5t38 -85.5l8 -228l7 -151l2 -99q0 -4 1 -8t1 -8q0 -25 -3.5 -53.5t-14.5 -52t-30.5 -40t-52.5 -18.5q-4 0 -5 -1t-5 -1q-63 0 -86 47t-27 107q0 4 -2 8v2l-22 268zM1075 1008q-2 53 36 87.5t89 34.5h4 q51 -2 87 -38.5t34 -90.5l-6 -215l-6 -276q0 -25 -6.5 -53.5t-18.5 -52t-32.5 -39t-53.5 -15.5q-66 2 -88 50.5t-24 113.5v21l-5 102l-4 145z" />
<glyph unicode="&#xf083;" d="M635 375v551q0 39 10 75.5t31.5 66.5t54.5 47.5t80 17.5h197h4h2h213q45 0 83 -17.5t64.5 -47.5t41 -66.5t14.5 -75.5v-551q0 -29 -18.5 -44.5t-40 -15.5t-40 15.5t-18.5 44.5v497v23q0 12 -13.5 15t-21.5 3t-20.5 -4t-12.5 -14v-1194q0 -37 -25.5 -60.5t-62.5 -23.5 q-35 0 -61.5 25.5t-26.5 60.5v465v266q0 18 -14.5 23.5t-20.5 5.5q-8 0 -25.5 -5t-17.5 -26l2 -264v-465q0 -35 -26.5 -60.5t-61.5 -25.5q-37 0 -62.5 23.5t-25.5 60.5l-2 1194q0 10 -11 14t-19.5 4t-20.5 -3t-12 -15v-23v-497q0 -29 -18.5 -44.5t-40 -15.5t-40 15.5 t-18.5 44.5zM840 1382q0 39 15 75t41 61.5t60.5 41t75.5 15.5q80 0 136.5 -56.5t56.5 -136.5q0 -41 -15.5 -75.5t-41 -60t-61.5 -41t-75 -15.5q-41 0 -75.5 15.5t-60.5 41t-41 60t-15 75.5z" />
<glyph unicode="&#xf084;" d="M461 1023q-12 42 8 103q12 39 43 112t93.5 142.5t160.5 120.5t246 49q98 -2 193 -35.5t171 -99t123 -161t47 -218.5q0 -90 -24.5 -159.5t-62.5 -125t-83 -96.5l-80 -73l-39 -33q-18 -16 -28 -31q-37 -45 -62.5 -105.5t-31.5 -125.5q-6 -63 -52.5 -103.5t-107.5 -40.5h-17 q-66 8 -107.5 59.5t-35.5 116.5q12 113 56 218.5t114 187.5q23 29 49 53l53 45q68 57 104 102.5t36 110.5q0 57 -23.5 94t-57.5 58.5t-71 31t-65 9.5h-4q-57 0 -94.5 -15.5t-63 -43t-41.5 -66.5l-37 -84q-25 -63 -59.5 -89t-69.5 -30q-39 -8 -80 6q-41 16 -65 47 q-23 27 -35 69zM772 -131q0 39 14.5 73.5t40 60.5t60.5 41t73.5 15t73.5 -15t61.5 -41t41 -60.5t14.5 -73.5t-14.5 -74t-41 -60.5t-61.5 -41t-73.5 -15.5t-73.5 15.5t-60.5 41t-40 60.5t-14.5 74z" />
<glyph unicode="&#xf085;" d="M283 248q0 90 24.5 177t75.5 154.5t129 109.5t186 42h326h311q106 0 185 -42t129.5 -109.5t75 -154.5t24.5 -177v-559q0 -33 -33 -33h-203q-33 0 -32 33v487q0 14 -11.5 30.5t-36 16.5t-36 -16.5t-11.5 -30.5v-487q0 -14 -10 -23.5t-24 -9.5h-678q-33 0 -33 33v487 q0 14 -9 30.5t-38 16.5t-38 -16.5t-9 -30.5v-487q0 -14 -10.5 -23.5t-24.5 -9.5h-195q-35 0 -34 33v559zM639 1196q0 80 29.5 149.5t82 122t123 83t150.5 30.5t149.5 -30.5t122 -83t83 -122t30.5 -149.5t-30.5 -150.5t-83 -123t-122 -82t-149.5 -29.5t-150.5 29.5t-123 82 t-82 123t-29.5 150.5z" />
<glyph unicode="&#xf086;" d="M381 -324v676q0 207 78 295t260 90h303h10h303q180 -2 258 -90t78 -295v-676q0 -12 -8 -21t-18 -9h-177q-10 0 -19 9t-9 21v605q0 23 -13.5 37t-33.5 14q-18 0 -32.5 -14.5t-14.5 -36.5v-605q0 -12 -8.5 -21t-20.5 -9h-574q-12 0 -20 9t-8 21v605q0 23 -13.5 37t-33.5 14 q-18 0 -32.5 -14.5t-14.5 -36.5v-605q0 -12 -8.5 -21t-20.5 -9h-182q-10 0 -19.5 9t-9.5 21zM631 1204q0 84 31.5 157t86 127t127 86t156.5 32q82 0 156 -32t128 -86t86 -127t32 -157t-32 -156.5t-86 -127t-128 -86t-156 -31.5q-84 0 -156.5 31.5t-127 86t-86 127 t-31.5 156.5zM803 1126q0 -47 18.5 -89t49 -72.5t72.5 -48t89 -17.5t88 17.5t72 48t49.5 72.5t18.5 89v13h-455q0 -4 -1 -6.5t-1 -6.5z" />
<glyph unicode="&#xf087;" d="M63 616q-4 29 15 50q2 2 14 10l25 12l22 12l15 9l616 313q23 12 46.5 3t33.5 -32q10 -25 3 -50t-30 -36l-438 -198h1268l-439 198q-23 10 -30.5 36t2.5 50q10 23 34.5 31t47.5 -2l635 -320l30 -14q25 -12 33 -22q20 -23 16 -50l-53 -491q-4 -25 -21.5 -41t-39.5 -16h-602 q-23 0 -39.5 14t-20.5 37l-96 428q-10 8 -33.5 15t-58.5 7q-29 0 -49.5 -6t-34.5 -12l-96 -432q-4 -23 -20.5 -37t-39.5 -14h-602q-23 0 -40 16t-19 41zM190 559l39 -364h500l80 364h-619zM1235 559l80 -364h500l38 364h-618z" />
<glyph unicode="&#xf088;" d="M129 86v494v30v494q0 23 12.5 38t34.5 19l836 168q12 2 24 0l836 -168q23 -4 35 -19.5t12 -37.5v-494v-30v-494q0 -23 -12.5 -38t-34.5 -19l-836 -168q-12 -4 -24 0l-836 168q-23 4 -35 19t-12 38zM303 594q0 -92 24.5 -167t68.5 -128t105.5 -83t137.5 -30q182 1 268 191 q6 16 0 35q-6 14 -22 24l-99 41q-18 10 -34 0q-18 -6 -25 -24q-6 -16 -26.5 -45t-61.5 -29q-55 0 -91 59.5t-36 155.5q0 98 36 157.5t91 59.5q35 0 56.5 -22.5t31.5 -45.5q8 -16 25.5 -23t33.5 1l97 43q16 6 24 24q6 20 -2 35q-86 180 -266 181q-76 0 -137.5 -30t-105.5 -83 t-68.5 -129t-24.5 -168zM1137 594q0 -92 24.5 -167t68.5 -128t105.5 -83t137.5 -30q182 1 268 191q8 14 2 35q-6 12 -25 24l-98 41q-16 10 -35 0q-18 -8 -24.5 -24.5t-27 -45t-60.5 -28.5q-55 0 -90 59.5t-35 155.5q0 98 34.5 157.5t90.5 59.5q35 0 57 -22.5t33 -45.5 q8 -16 24.5 -23t32.5 1l98 43q14 6 23 24q6 18 0 35q-86 180 -268 181q-76 0 -137.5 -30t-105.5 -83t-68.5 -129t-24.5 -168z" />
<glyph unicode="&#xf089;" d="M195 -213.5q-5 37.5 18 68.5l256 325l98 355q0 2 1 3t1 3l-2 297l-53 -72l-20 -211q-4 -27 -24.5 -45t-49.5 -18q-4 0 -6 2q-31 2 -51.5 24.5t-16.5 50.5l25 228q0 18 12 34l205 277q23 37 65.5 56.5t89.5 11.5q31 -6 54 -23q20 -10 28 -20l224 -281l217 -43 q31 -6 47 -29.5t12 -52.5q-8 -35 -43 -49l700 -963q6 -6 4.5 -15t-10.5 -13q-14 -12 -30 4l-752 989l-203 39q-29 8 -43 26l-86 109v-92v-219l221 -252q8 -6 11.5 -15.5t5.5 -19.5l104 -477q8 -37 -14.5 -69t-61.5 -40q-8 -2 -20 -2q-35 0 -61.5 20.5t-34.5 53.5l-99 459 l-180 202l-80 -282l-6 -19q-4 -8 -10 -16l-266 -342q-31 -37 -78 -37q-33 0 -60 19q-33 23 -38 60.5zM557 1360q-8 37 0 76t29.5 69.5t52.5 50t67.5 27.5t75.5 2q39 -8 71 -29.5t52.5 -51t28.5 -66.5t0 -76t-29.5 -69.5t-52.5 -51t-67.5 -29t-75.5 0t-70 30t-52.5 51 t-29.5 66.5z" />
<glyph unicode="&#xf08a;" d="M428 -68q0 45 17.5 86t47 71t69.5 47.5t85 17.5t85 -17.5t68.5 -47.5t46 -71t17.5 -86q0 -47 -17.5 -87t-46 -69.5t-68.5 -47t-85 -17.5t-85 17.5t-69.5 47t-47 69.5t-17.5 87zM428 606q0 45 17.5 86t47 71t69.5 47t85 17t85 -17t68.5 -47t46 -71t17.5 -86 q0 -47 -17.5 -87t-46 -69.5t-68.5 -47t-85 -17.5t-85 17.5t-69.5 47t-47 69.5t-17.5 87zM428 1280q0 45 17.5 86t47 71.5t69.5 48t85 17.5t85 -17.5t68.5 -48t46 -71.5t17.5 -86t-17.5 -85t-46 -70.5t-68.5 -48t-85 -17.5t-85 17.5t-69.5 48t-47 70.5t-17.5 85zM1143 606 q0 45 17.5 86t47 71t69.5 47t85 17t85 -17t68.5 -47t46 -71t17.5 -86q0 -47 -17.5 -87t-46 -69.5t-68.5 -47t-85 -17.5t-85 17.5t-69.5 47t-47 69.5t-17.5 87zM1143 1280q0 45 17.5 86t47 71.5t69.5 48t85 17.5t85 -17.5t68.5 -48t46 -71.5t17.5 -86t-17.5 -85t-46 -70.5 t-68.5 -48t-85 -17.5t-85 17.5t-69.5 48t-47 70.5t-17.5 85zM1151 -68q0 43 16.5 82t45 69t67.5 46t82 16t82 -16t67.5 -46t45 -69t16.5 -82q0 -45 -16.5 -83.5t-45 -67.5t-67.5 -45.5t-82 -16.5t-82 16.5t-67.5 45.5t-45 67.5t-16.5 83.5z" />
<glyph unicode="&#xf08b;" d="M123 614.5q0 186.5 70.5 349t191.5 283.5t285 191.5t348 70.5q186 0 349 -70.5t285 -191.5t192.5 -283.5t70.5 -349t-70.5 -349.5t-192.5 -284.5t-285 -192.5t-349 -71q-184 0 -348 71t-285 192.5t-191.5 284.5t-70.5 349.5zM635 303q0 -31 21.5 -52.5t52.5 -21.5h620 q31 0 52.5 21.5t21.5 52.5v623q0 29 -21.5 50t-52.5 21h-620q-31 0 -52.5 -21.5t-21.5 -49.5v-623zM776 410v409q0 16 10.5 26.5t26.5 10.5h412q16 0 26.5 -10t10.5 -27v-409q0 -16 -10.5 -26.5t-26.5 -10.5h-412q-16 0 -26.5 10t-10.5 27z" />
<glyph unicode="&#xf08c;" d="M129 123v1286q0 27 18.5 44t45.5 17h1667q27 0 44 -17t17 -44v-1286q0 -18 -10 -34.5t-29 -22.5l-831 -318q-8 -4 -22.5 -4t-22.5 4l-836 318q-18 6 -29.5 22t-11.5 35zM279 958l112 -495q6 -25 31 -25h86q25 0 31 25l41 205l41 -205q4 -25 30 -25h86q25 0 31 25l111 495 q4 16 -7 27q-10 12 -22 12h-90q-25 0 -29 -24l-43 -219l-45 219q-6 25 -31 24h-65q-27 0 -31 -24l-45 -219l-43 219q-4 25 -31 24h-88q-16 0 -24.5 -12t-5.5 -27zM895 524q29 -45 78 -69.5t108 -24.5q86 0 139.5 48t53.5 126q0 41 -17.5 72t-42.5 51q23 20 37.5 49t14.5 64 q0 76 -49.5 120t-135.5 44q-117 0 -180 -93q-14 -20 4 -41l49 -45q10 -10 25 -10q14 4 22 12q31 43 74 43q35 0 41 -17t6 -26q0 -6 -6 -21t-45 -15h-37q-16 0 -24 -9q-10 -10 -11 -22v-74q0 -14 11 -24q8 -10 24 -7h39q43 0 50 -16t7 -27q0 -47 -51 -47q-49 0 -82 45 q-8 12 -22 13q-12 4 -25 -9l-51 -51q-18 -18 -4 -39zM1313 717q0 -129 64.5 -208t168.5 -79q126 0 187 133q4 16 0 25q-4 12 -17 16l-67 31q-12 6 -25 0q-14 -6 -16 -19q-4 -10 -18.5 -30.5t-43.5 -20.5q-39 0 -63.5 42t-24.5 109.5t24.5 110.5t63.5 43q25 0 39 -16t23 -33 q4 -12 16 -16t25 0l67 31q10 4 17 18q4 14 -2 25q-59 127 -185 127q-104 0 -168.5 -80t-64.5 -209z" />
<glyph unicode="&#xf08d;" d="M119 123v1286q0 27 18.5 44t42.5 17h1669q27 0 44.5 -17t17.5 -44v-1286q0 -18 -11.5 -34.5t-27.5 -22.5l-832 -318q-8 -4 -22 -4t-23 4l-835 318q-18 6 -29.5 22t-11.5 35zM373 717q0 -129 64.5 -208t168.5 -79q126 0 187 133q6 12 0 25q-4 12 -17 16l-67 31 q-12 6 -25 0q-14 -6 -16 -19q-4 -10 -18.5 -30.5t-43.5 -20.5q-39 0 -63.5 42t-24.5 109.5t24.5 110.5t63.5 43q25 0 39 -16t23 -33q6 -12 18 -16t23 0l67 31q14 6 17 18q4 14 -2 25q-59 127 -185 127q-104 0 -168.5 -80t-64.5 -209zM838 541q-12 -23 4 -39q67 -72 182 -72 q49 0 86 15.5t60.5 40t35 56t11.5 64.5q0 43 -15.5 74t-38 52.5t-49.5 33.5l-53 27q-31 14 -49.5 24t-18.5 23q0 20 15.5 25t23.5 5q51 0 82 -34q10 -12 27 -9q12 0 22 15l39 61q14 20 -4 39q-63 63 -164 64q-82 0 -134 -48.5t-52 -121.5q0 -43 14.5 -72t37 -49.5t48 -33.5 t49.5 -24q39 -16 56.5 -28.5t17.5 -28.5q0 -35 -47 -35q-57 0 -94 43q-8 10 -27 10q-16 0 -22 -14zM1249 541q-12 -20 2 -39q72 -72 185 -72q49 0 84.5 15.5t59.5 40t35 56t11 64.5q0 43 -14.5 74t-38 52.5t-49.5 33.5l-51 27q-33 14 -50.5 24t-17.5 23q0 20 15.5 25t21.5 5 q51 0 82 -34q14 -10 26 -9q14 0 23 15l39 61q14 20 -4 39q-63 63 -164 64q-82 0 -134.5 -48.5t-52.5 -121.5q0 -43 14.5 -72t37 -49.5t49 -33.5t51.5 -24q37 -16 54.5 -28.5t17.5 -28.5q0 -35 -47 -35q-55 0 -95 43q-8 10 -24 10q-18 0 -25 -14z" />
<glyph unicode="&#xf08e;" d="M94 626.5q0 106.5 40 200t109.5 163t163 109.5t199.5 40q88 0 169 -29t145.5 -80t111.5 -121.5t70 -152.5h756q43 0 73.5 -32t30.5 -77t-30.5 -76.5t-73.5 -31.5h-15v-338q0 -43 -31.5 -74t-76.5 -31t-77 31t-32 74v338h-102v-211q0 -43 -32 -74t-77 -31t-76.5 31 t-31.5 74v211h-197q-16 -90 -61 -168t-112 -134.5t-152 -89t-179 -32.5q-106 0 -199.5 40t-163 109.5t-109.5 162.5t-40 199.5zM330 626.5q0 -57.5 21.5 -107.5t59.5 -88t88 -59.5t107.5 -21.5t107.5 21.5t87 59.5t58.5 88t21.5 107.5t-21.5 107.5t-58.5 87t-87 58.5 t-107.5 21.5t-107.5 -21.5t-88 -58.5t-59.5 -87t-21.5 -107.5z" />
<glyph unicode="&#xf08f;" d="M168 -160q0 45 31 74l463 467q29 29 72.5 29t72.5 -29q31 -31 31 -74q0 -47 -31 -74l-463 -466q-31 -31 -72 -31q-43 0 -73.5 30.5t-30.5 73.5zM403 735q0 119 45.5 224.5t123 184.5t182 124t223.5 45t223.5 -45t182 -124t122.5 -184.5t45 -224.5q0 -102 -34 -200 q-4 -10 -9 -15q-23 -43 -45 -80l-45 -67q-23 -37 -43 -62q-4 -6 -10 -12t-12 -14q-29 -33 -42.5 -56.5t-11.5 -76.5q4 -111 2 -163t-8 -83q-18 -106 -93 -163.5t-208 -57.5h-4q-37 0 -63.5 26.5t-28.5 65.5q-2 18 5 35.5t20 29.5q27 31 65 31q43 2 66.5 8t36 14.5t15.5 17.5 t5 19l2 11q4 23 4 80t-2 124q-2 53 7 93.5t23.5 71t33 54t36.5 44.5q6 6 19 22q12 14 26 39l33 49q16 25 29.5 48.5t23.5 39.5q10 29 15.5 60.5t5.5 66.5q0 80 -30.5 151.5t-83 124t-123 83t-150.5 30.5t-150.5 -30.5t-123 -83t-83 -124t-30.5 -151.5q0 -39 -26.5 -66.5 t-65.5 -27.5t-67 27.5t-28 66.5zM690 721q0 59 22.5 112.5t61.5 92.5t91.5 61.5t111.5 22.5t111.5 -22.5t91.5 -61.5t61.5 -92.5t22.5 -112.5q0 -35 -22.5 -57.5t-55.5 -22.5t-55.5 22.5t-22.5 57.5q0 53 -38 92t-93 39q-53 0 -92 -39t-39 -92q0 -35 -22.5 -57.5 t-55.5 -22.5t-55.5 22.5t-22.5 57.5zM1499 1182q0 45 31 73l254 256q29 29 72.5 29t72.5 -29q31 -31 31 -73.5t-31 -73.5l-254 -256q-31 -31 -71 -31q-43 0 -74 31t-31 74z" />
<glyph unicode="&#xf090;" d="M221 405.5q0 114.5 43 216t119 176t177.5 119t215.5 44.5q86 0 162 -24t141 -67l-2 2l312 310h-181q-45 0 -73 32q-16 14 -23.5 34t-7.5 42q0 45 31 76q27 31 73 31h262h68h219v-267l-2 3v-285q0 -43 -30.5 -74t-75.5 -31q-43 0 -78 31q-31 31 -31 74v178l-305 -305 q47 -68 72.5 -147.5t25.5 -167.5q0 -115 -44 -216.5t-119.5 -177t-177 -120t-216 -44.5t-216 44.5t-177.5 120t-119 177t-43 216zM444 406q0 -70 27 -130.5t72 -105.5t105 -71.5t128 -26.5q70 0 130.5 26.5t105.5 71.5t70.5 105.5t25.5 130.5q0 68 -25.5 128t-70.5 105 t-105.5 71.5t-130.5 26.5q-68 0 -128 -26.5t-105 -71.5t-72 -105.5t-27 -127.5z" />
</font>
</defs>
</svg>
